<svg width="1440" height="1349" viewBox="0 0 1440 1349" fill="none" xmlns="http://www.w3.org/2000/svg">
<path d="M-93.2134 822.853C-82.3434 904.948 7.35065 969.231 79.8927 946.779C131.542 930.654 165.703 881.306 194.002 833.2C221.153 787.098 246.903 738.946 284.302 702.199C321.701 665.452 374.026 641.269 426.223 653.296C532.446 677.593 581.008 828.01 683.701 869.588C767.48 903.452 857.578 849.541 903.636 773.857C949.693 698.172 964.37 604.53 988.606 516.685C1012.84 428.84 1051.97 339.322 1127.8 298.157C1197.76 260.112 1285.58 271.307 1364.25 297.959C1552.07 361.783 1667.59 346.03 1758.23 534.882" stroke="white" stroke-width="0.2" stroke-miterlimit="10"/>
<path d="M-92.0829 827.227C-87.3976 863.233 -66.4901 895.513 -39.3083 917.628C-4.83247 945.789 39.9058 958.936 79.344 945.618C115.596 933.367 142.665 904.344 165.514 871.049C174.27 858.137 182.456 844.633 190.282 831.228C200.657 813.37 210.979 795.34 222.051 777.853C239.45 750.374 258.378 724.721 281.527 703.34C290.028 695.371 299.331 688.119 309.308 681.804C342.6 660.436 382.18 649.515 421.828 659.381C431.289 661.644 440.165 665.193 448.838 669.36C489.393 689.284 521.635 727.434 554.394 766.003C591.509 809.931 628.983 853.759 678.542 872.511C696.653 879.51 715.049 882.306 733.168 881.618C798.206 879.418 859.878 833.35 895.373 774.262C900.83 765.259 905.823 756.009 910.351 746.513C944.496 676.551 958.394 595.12 979.938 518.327C1000.17 446.206 1031 373.035 1084 327.298C1095.12 317.671 1107.25 309.451 1120.16 302.516C1189.99 266.004 1276.82 279.72 1355.35 303.976C1547.19 363.692 1670.42 355.37 1761.61 545.382" stroke="white" stroke-width="0.2" stroke-miterlimit="10"/>
<path d="M-90.8971 831.772C-86.0318 867.729 -64.3822 899.242 -37.2828 920.442C-3.09938 946.998 40.8068 958.688 78.8507 944.63C114.121 931.712 140.133 902.418 162.21 869.149C170.786 856.287 178.792 842.832 186.438 829.476C196.813 811.619 207.135 793.589 218.312 776.448C236.048 749.438 255.471 724.773 278.627 704.702C287.286 697.252 296.514 690.395 306.236 684.526C339.175 664.567 378.044 655.155 416.897 665.615C426.23 668.1 434.926 671.699 443.419 675.916C483.36 696.384 515.37 734.41 547.971 772.461C585.288 815.77 623.422 857.917 672.793 875.409C690.927 881.839 709.038 884.339 727.052 883.305C791.363 879.994 851.799 833.705 886.934 774.716C892.211 765.763 897.204 756.513 901.731 747.017C935.337 677.204 949.393 596.291 971.147 520.19C991.664 448.365 1023.12 375.96 1076.38 331.088C1087.55 321.634 1099.55 313.637 1112.8 307.17C1182.51 272.191 1268.71 288.33 1346.79 310.461C1542.95 365.797 1673.59 365.178 1765.32 556.352" stroke="white" stroke-width="0.2" stroke-miterlimit="10"/>
<path d="M-89.7643 836.146C-84.9515 871.93 -62.4548 903.022 -35.3629 922.912C-1.23945 947.985 41.4748 958.316 78.3567 943.642C112.645 930.058 137.6 900.493 159.137 867.373C167.48 854.388 175.307 840.983 182.953 827.627C193.148 809.82 203.523 791.963 214.805 775.167C232.698 748.675 252.616 724.999 275.959 706.188C284.543 699.134 293.748 692.845 303.628 687.495C336.267 669.118 374.551 660.992 412.483 672.269C421.508 675.026 430.204 678.625 438.518 682.891C477.791 703.732 509.441 741.857 542.245 779.289C579.764 821.981 618.611 862.619 667.562 878.727C685.538 884.638 703.492 886.62 721.273 885.462C784.805 880.866 844.003 834.356 878.599 775.517C883.876 766.563 888.689 757.363 893.216 747.867C926.515 678.327 940.495 597.81 962.407 522.227C983.261 450.872 1015.05 378.935 1068.68 335.274C1079.96 326.166 1092.01 318.342 1105.13 312.098C1174.72 278.651 1260.12 297.263 1337.87 317.046C1538.23 368.225 1676.58 375.036 1768.56 567.644" stroke="white" stroke-width="0.2" stroke-miterlimit="10"/>
<path d="M-88.631 840.52C-83.8182 876.303 -60.5794 906.628 -33.57 925.604C0.313614 949.243 41.9633 957.995 77.6834 942.704C110.81 928.503 134.94 898.791 155.705 865.697C163.869 852.761 171.462 839.232 178.981 826.099C188.996 808.341 199.371 790.484 210.938 773.985C229.116 747.79 249.454 725.497 272.932 707.773C281.673 701.238 290.804 695.345 300.429 690.44C332.948 673.596 370.287 666.855 407.424 678.725C416.27 681.533 424.838 685.354 432.792 689.72C471.451 711.104 502.74 749.329 535.515 786.02C573.289 828.266 612.562 867.1 661.506 881.898C679.325 887.29 697.174 888.926 714.798 887.25C777.602 881.542 835.744 834.762 869.619 776.12C874.717 767.217 879.529 758.017 884.057 748.52C916.816 679.129 930.826 599.353 953.255 524.19C974.447 453.304 1006.81 381.96 1060.7 339.164C1072.03 330.228 1084.19 322.75 1097.18 316.729C1166.71 284.988 1251.36 305.677 1328.72 323.507C1533.82 370.381 1679.4 384.944 1771.86 578.54" stroke="white" stroke-width="0.2" stroke-miterlimit="10"/>
<path d="M-87.3221 844.844C-82.3818 880.405 -58.5283 910.185 -31.4739 928.024C2.34968 950.18 42.9349 957.351 77.493 941.443C109.637 926.576 132.711 896.594 152.936 863.648C160.74 850.812 168.333 837.283 175.62 824.027C185.635 806.269 196.062 788.585 207.681 772.259C226.017 746.582 246.85 725.278 270.516 708.814C279.181 702.675 288.469 697.3 298.02 692.791C330.239 677.529 366.813 672.123 403.208 684.761C411.927 687.791 420.315 691.662 428.141 696.25C466.185 718.179 497.063 756.33 529.859 792.453C567.836 834.081 607.769 871.233 656.526 884.771C674.187 889.644 691.931 890.934 709.27 888.961C771.115 882.019 828.199 834.968 861.535 776.476C866.633 767.572 871.266 758.421 875.666 749.148C907.885 679.905 922.053 600.648 944.639 526.004C966.116 455.414 998.919 384.886 1053.07 342.954C1064.45 334.192 1076.66 326.886 1089.76 321.211C1159.22 291.175 1243.19 314.114 1320.05 329.647C1529.47 372.141 1682.28 394.457 1775.11 589.263" stroke="white" stroke-width="0.2" stroke-miterlimit="10"/>
<path d="M-86.1897 849.217C-81.2494 884.778 -56.6013 913.964 -29.5544 930.493C3.97682 951.043 43.6025 956.979 76.9462 940.282C108.108 924.749 130.178 894.669 149.578 861.576C157.149 848.616 164.563 835.137 171.902 822.054C181.737 804.346 192.164 786.662 203.941 770.854C222.614 745.647 243.762 725.38 267.615 710.177C276.438 704.556 285.471 699.627 294.947 695.513C326.866 681.833 362.676 677.764 398.456 690.946C406.994 694.025 415.076 698.168 422.902 702.757C460.151 725.28 490.796 763.308 523.848 798.985C562.079 840.168 602.492 875.688 651.009 887.792C668.513 892.147 686.152 893.091 703.386 890.772C764.504 882.719 820.351 835.447 853.147 777.103C858.245 768.199 862.878 759.049 867.098 749.825C899.01 680.855 913.102 601.993 935.899 528.041C957.713 457.92 990.906 388.034 1045.55 347.091C1056.99 338.501 1069.12 331.591 1082.32 326.262C1151.66 297.758 1234.96 322.948 1311.41 336.528C1525.52 374.543 1685.56 404.611 1778.76 600.628" stroke="white" stroke-width="0.2" stroke-miterlimit="10"/>
<path d="M-85.0547 853.59C-80.167 888.979 -54.7242 917.571 -27.5799 933.136C5.89138 952.203 44.2727 956.608 76.402 939.121C106.402 922.972 127.414 892.621 146.455 859.627C153.846 846.717 161.08 833.287 168.187 820.081C178.022 802.373 188.322 784.911 200.331 769.227C219.162 744.539 240.983 725.21 264.844 711.317C273.592 706.092 282.783 701.682 292.236 698.136C323.855 686.039 358.901 683.304 393.939 697.253C402.35 700.556 410.251 704.748 417.897 709.386C454.532 732.454 484.817 770.581 517.839 805.517C556.273 846.081 597.345 879.92 645.674 890.764C663.073 894.773 680.555 895.198 697.504 892.583C757.842 883.245 812.453 835.752 844.889 777.508C849.807 768.654 854.44 759.504 858.66 750.28C890.032 681.458 904.282 603.116 927.288 529.855C949.387 460.031 983.203 390.91 1037.93 350.881C1049.42 342.464 1061.66 335.9 1074.73 330.794C1143.95 303.823 1226.74 331.212 1302.57 342.717C1521.49 376.03 1688.44 414.124 1782.19 611.302" stroke="white" stroke-width="0.2" stroke-miterlimit="10"/>
<path d="M-83.9267 857.964C-78.9115 893.129 -52.8016 921.35 -25.8447 935.654C7.3867 953.288 44.8834 956.063 75.8508 937.96C104.817 920.971 124.877 890.695 143.145 857.728C150.357 844.867 157.358 831.314 164.337 818.33C173.992 800.672 184.525 783.333 196.586 767.822C215.754 743.603 237.943 725.485 261.939 712.68C270.665 708.023 279.78 704.008 289.158 700.859C320.478 690.343 354.939 688.894 389.055 703.66C397.158 707.235 405.059 711.428 412.578 716.288C448.598 739.9 478.651 777.904 511.695 812.271C550.384 852.391 591.937 884.598 640.258 894.132C657.68 897.572 674.876 897.701 691.541 894.79C751.151 884.34 804.525 836.626 836.422 778.531C841.34 769.677 845.792 760.576 850.013 751.352C881.077 682.803 895.253 604.856 918.596 532.065C941.032 462.71 975.238 394.231 1030.41 355.017C1041.95 346.773 1054.24 340.382 1067.24 335.671C1136.39 310.406 1218.58 339.65 1294.06 349.375C1517.79 377.987 1691.66 424.105 1785.78 622.494" stroke="white" stroke-width="0.2" stroke-miterlimit="10"/>
<path d="M-82.792 862.337C-77.7768 897.503 -51.1047 925.006 -23.9228 938.124C9.06865 954.325 45.5534 955.692 75.3063 936.799C103.29 919.144 122.293 888.598 139.969 855.606C146.948 842.622 153.59 829.168 160.749 816.135C170.352 798.303 180.757 781.188 192.976 766.195C212.481 742.445 234.985 725.365 258.988 713.869C267.819 709.559 276.912 706.113 286.215 703.358C317.415 694.375 350.931 694.312 384.252 709.672C392.176 713.296 399.95 717.711 407.109 722.671C442.514 746.828 472.155 784.758 505.221 818.557C544.112 858.058 586.325 888.583 634.459 896.858C651.723 899.779 668.814 899.562 685.321 896.132C744.153 884.398 796.29 836.463 827.646 778.516C832.384 769.712 836.837 760.611 841.057 751.387C871.582 682.987 885.915 605.559 909.468 533.459C932.062 464.623 967.017 396.687 1022.5 358.511C1034.09 350.44 1046.31 344.445 1059.54 339.857C1128.58 316.124 1210.21 347.396 1285.11 355.219C1513.66 379.129 1694.63 433.222 1789.11 632.821" stroke="white" stroke-width="0.2" stroke-miterlimit="10"/>
<path d="M-81.661 866.711C-76.6982 901.703 -49.2315 928.613 -21.9522 940.766C10.9268 955.311 46.2196 955.32 74.8106 935.811C101.812 917.49 119.811 886.846 136.715 853.879C143.514 840.945 149.976 827.541 156.955 814.557C166.378 796.775 176.835 779.833 189.287 764.964C208.897 741.56 231.948 725.641 256.139 715.405C264.947 711.663 274.145 708.563 283.193 706.254C314.041 698.68 346.845 700.125 379.424 716.252C387.22 720.099 394.634 724.613 401.793 729.573C436.584 754.274 465.812 792.131 499.081 825.311C538.175 864.194 580.919 893.261 628.813 900.102C645.92 902.504 662.906 901.941 679.129 898.215C737.233 885.37 788.133 837.214 818.95 779.416C823.688 770.612 827.96 761.561 832.001 752.386C862.039 684.308 876.476 607.226 900.187 535.645C923.065 467.105 958.41 399.812 1014.21 362.673C1025.91 354.948 1038.18 349.126 1051.33 344.934C1120.25 322.733 1201.32 356.032 1275.65 361.952C1509.26 380.715 1696.95 443.452 1791.93 644.039" stroke="white" stroke-width="0.2" stroke-miterlimit="10"/>
<path d="M-80.5285 871.085C-75.3858 906.028 -47.3044 932.392 -20.0326 943.236C12.6065 956.348 47.0148 954.726 74.4438 934.6C100.284 915.663 117.405 884.698 133.77 851.881C140.156 838.873 146.618 825.469 153.597 812.485C162.84 794.753 173.477 777.761 186.034 763.238C205.981 740.303 229.347 725.422 253.726 716.446C262.639 713.05 271.634 710.568 280.84 708.778C311.387 702.786 343.479 705.74 375.391 722.238C383.008 726.135 390.294 730.872 397.326 736.054C431.322 761.349 460.318 799.083 493.609 831.695C532.958 870.133 576.129 897.394 624.016 902.925C640.965 904.809 657.847 903.9 673.964 899.828C731.289 885.698 780.952 837.321 811.229 779.673C815.787 770.918 820.06 761.867 824.1 752.692C853.778 684.713 868.013 608.249 892.114 537.311C915.33 469.24 951.244 402.539 1007.36 366.438C1019.11 358.886 1031.43 353.237 1044.51 349.44C1113.36 328.945 1194.01 364.049 1267.63 368.289C1506.18 382.128 1700.84 453.063 1796.01 654.91" stroke="white" stroke-width="0.2" stroke-miterlimit="10"/>
<path d="M-79.3946 875.458C-74.3045 910.228 -45.4284 935.998 -18.2391 945.928C14.1601 957.606 47.5039 954.404 73.771 933.662C98.6288 914.058 114.566 883.045 130.338 850.204C136.545 837.245 142.774 823.718 149.626 810.957C158.869 793.225 169.379 776.455 182.04 762.278C202.145 739.862 226.006 725.969 250.571 718.254C259.462 715.426 268.51 713.117 277.513 711.945C307.761 707.535 339.268 711.775 370.258 729.09C377.747 733.209 384.854 737.996 391.705 743.228C425.087 769.068 453.903 806.851 487.164 838.721C526.715 876.541 570.599 902.294 618.246 906.392C635.09 907.93 651.814 906.502 667.646 902.133C724.244 886.892 772.67 838.294 802.408 780.795C806.966 772.04 811.238 762.989 815.099 753.864C844.237 686.034 858.682 610.262 883.067 539.619C906.621 472.018 942.925 405.959 999.305 370.723C1011.1 363.344 1023.59 358.213 1036.49 354.466C1105.06 334.985 1185.25 372.462 1258.35 374.973C1501.92 383.492 1703.29 463.07 1799.01 666.078" stroke="white" stroke-width="0.2" stroke-miterlimit="10"/>
<path d="M-78.2669 879.831C-73.1767 914.601 -43.686 939.828 -16.3243 948.397C15.8351 958.642 48.1143 953.86 73.2195 932.501C97.0428 912.058 111.975 880.948 127.155 848.082C133.13 835 139.232 821.696 145.851 808.811C154.914 791.129 165.424 774.359 178.37 760.478C198.813 738.531 223.251 726.541 247.689 719.048C256.452 716.443 265.53 714.875 274.638 714.049C304.586 711.222 335.328 716.797 365.524 734.707C372.705 739.098 379.812 743.885 386.304 749.216C419.07 775.6 447.474 813.309 480.758 844.611C520.511 881.813 564.875 905.934 612.514 908.722C629.201 909.741 645.768 907.794 661.495 903.08C717.313 886.555 764.502 837.735 793.88 780.335C798.438 771.58 802.531 762.579 806.391 753.454C835.222 685.896 849.592 610.52 874.188 540.569C898.026 473.264 934.952 407.97 991.595 373.599C1003.45 366.393 1015.8 361.485 1028.99 358.034C1097.59 340.605 1177.2 379.367 1249.65 380.371C1498.24 383.571 1706.33 471.791 1802.41 676.01" stroke="white" stroke-width="0.2" stroke-miterlimit="10"/>
<path d="M-77.1343 884.205C-71.9167 918.752 -41.8112 943.434 -14.4045 950.867C17.4625 959.506 48.9621 953.439 72.8529 931.29C95.6941 910.181 109.622 878.973 124.03 846.133C129.825 833.101 135.694 819.673 142.366 806.961C151.429 789.279 161.991 772.682 174.99 758.974C195.59 737.546 220.313 725.852 245.148 720.312C254.121 718.398 263.072 717.053 271.925 716.672C301.521 715.254 331.551 722.338 361.004 741.014C368.006 745.455 374.805 750.514 381.297 755.845C413.449 782.774 441.44 820.409 474.927 851.093C514.935 887.85 559.778 910.34 607.177 911.694C623.707 912.194 640.169 909.901 655.611 904.891C710.649 887.081 756.834 838.164 785.44 780.789C789.818 772.084 793.911 763.083 797.591 754.008C825.882 686.599 840.41 611.741 865.215 542.482C889.391 475.646 926.707 410.995 983.844 377.612C995.748 370.579 1008.15 365.844 1021.32 362.961C1089.63 347.114 1168.99 387.632 1240.73 386.956C1494.41 384.44 1709.32 481.65 1805.77 687.079" stroke="white" stroke-width="0.2" stroke-miterlimit="10"/>
<path d="M-75.9466 888.751C-70.729 923.299 -39.829 947.386 -12.3773 953.682C19.2498 960.888 49.685 953.24 72.4138 930.475C94.0931 908.749 107.144 877.221 121.012 844.53C126.627 831.548 132.317 818.169 138.756 805.334C147.639 787.701 158.201 771.105 171.357 757.916C192.295 736.957 217.332 726.3 242.355 722.02C251.253 720.502 260.181 719.726 269.192 719.864C298.488 720.028 327.754 728.447 356.412 747.718C363.286 752.381 369.906 757.49 376.27 763.044C407.627 790.566 435.386 828.079 468.895 858.194C509.106 894.332 554.609 915.141 601.873 915.408C618.245 915.389 634.602 912.75 649.76 907.443C704.018 888.349 749.019 839.384 777.085 782.159C781.463 773.453 785.376 764.502 789.056 755.426C816.86 688.339 831.493 613.828 856.455 545.088C880.968 478.721 918.854 414.662 976.074 382.193C988.03 375.333 1000.54 370.944 1013.58 368.284C1081.82 354.143 1160.52 396.342 1231.79 394.109C1491.04 385.556 1712.65 491.977 1809.65 698.568" stroke="white" stroke-width="0.2" stroke-miterlimit="10"/>
<path d="M-74.6347 893.075C-69.4696 927.45 -37.9548 950.993 -10.4582 956.152C20.7491 961.973 50.4796 952.646 71.8666 929.314C92.5639 906.922 104.558 875.123 117.706 842.631C122.909 829.575 128.598 816.197 134.91 803.584C143.614 786.001 154.228 769.577 167.617 756.511C188.659 735.898 214.244 726.403 239.454 723.383C248.33 722.434 257.363 722.003 266.119 722.586C295.114 724.332 323.796 734.038 351.712 754.075C358.406 758.788 364.898 764.12 371.083 769.723C401.825 797.79 429.352 835.179 462.936 864.899C503.401 900.592 549.384 919.769 596.588 918.553C613.035 918.138 628.875 915.08 644.108 909.378C697.639 889.172 741.35 839.813 768.876 782.736C773.074 774.081 776.987 765.129 780.72 756.227C808.164 689.239 822.774 615.296 848.127 547.198C872.924 481.128 911.253 417.884 968.915 386.23C980.976 379.716 993.54 375.5 1006.63 373.013C1074.75 360.404 1152.97 404.235 1223.77 400.446C1487.29 386.03 1715.77 501.613 1812.95 709.464" stroke="white" stroke-width="0.2" stroke-miterlimit="10"/>
<path d="M-73.5042 897.449C-68.2117 931.601 -36.2097 954.822 -8.48817 958.794C22.4793 963.183 51.1453 952.275 71.5502 928.276C91.213 905.045 102.075 873.371 114.759 840.632C119.781 827.626 125.239 814.124 131.55 801.512C140.254 783.929 150.868 767.505 164.362 754.785C185.741 734.641 211.641 726.183 237.039 724.424C246.019 723.821 255.03 723.959 263.711 724.937C292.354 728.093 320.323 739.307 347.498 760.111C354.064 765.047 360.196 770.477 366.201 776.13C396.329 804.742 423.496 842.23 457.05 871.209C497.717 906.284 544.232 924.001 591.197 921.352C607.487 920.419 623.221 917.015 638.117 910.843C690.868 889.353 733.395 839.946 760.381 783.018C764.579 774.363 768.312 765.461 772.046 756.558C798.95 689.719 813.717 616.295 839.227 548.716C864.362 483.115 903.208 420.291 961.057 389.898C973.171 383.556 985.607 379.563 998.801 377.422C1066.8 366.345 1144.6 411.981 1214.74 406.685C1483.53 386.504 1718.76 511.472 1816.49 720.484" stroke="white" stroke-width="0.2" stroke-miterlimit="10"/>
<path d="M-72.3709 901.822C-67.0783 935.974 -34.2817 958.601 -6.56771 961.264C24.2123 964.392 51.7613 951.73 71.0043 927.115C89.5052 903.268 99.4902 871.273 111.454 838.733C116.244 825.603 121.574 812.324 127.706 799.761C136.229 782.228 146.897 765.977 160.495 753.603C182.212 733.929 208.427 726.508 234.012 726.009C242.917 725.801 251.905 726.508 260.691 727.832C289.035 732.57 316.239 745.119 342.619 766.518C348.878 771.726 355.01 777.157 360.888 783.032C390.221 812.238 417.155 849.603 450.912 877.963C491.782 912.42 538.956 928.456 585.734 924.547C601.866 923.095 617.495 919.344 632.286 912.827C684.363 890.399 725.548 840.425 752.174 783.596C756.192 774.99 760.105 766.038 763.659 757.186C790.255 690.619 804.768 617.64 830.668 550.703C856.088 485.398 895.376 423.389 953.667 393.811C965.834 387.643 978.375 383.995 991.494 382.25C1059.37 372.706 1136.69 419.973 1206.18 413.17C1479.9 386.756 1721.93 521.28 1820.21 731.453" stroke="white" stroke-width="0.2" stroke-miterlimit="10"/>
<path d="M-71.2413 906.196C-66.0012 940.175 -32.5899 962.257 -4.65102 963.733C25.8891 965.428 52.3736 951.186 70.4023 925.781C87.9211 901.267 96.9016 869.175 108.273 836.611C112.884 823.531 117.981 810.129 123.933 797.615C132.456 780.082 142.944 763.88 156.827 751.803C178.701 732.647 205.411 726.215 231.183 726.976C240.246 727.287 249.159 728.389 257.69 730.159C285.914 736.429 312.174 750.364 337.811 772.53C343.891 777.787 349.896 783.44 355.593 789.366C384.311 819.116 411.013 856.357 444.612 884.199C485.737 918.21 533.392 932.615 580.109 927.222C596.136 925.424 611.609 921.155 626.114 914.342C677.231 890.679 717.412 840.607 743.499 783.927C747.517 775.321 751.25 766.419 754.623 757.616C780.68 691.198 795.35 618.738 821.407 552.32C846.985 487.534 887.022 426.068 945.449 397.577C957.668 391.582 970.314 388.28 983.305 386.758C1051.06 378.746 1127.85 427.472 1196.79 419.509C1475.4 386.686 1724.27 530.941 1822.92 742.325" stroke="white" stroke-width="0.2" stroke-miterlimit="10"/>
<path d="M-70.1097 910.569C-64.6897 944.498 -30.6637 966.037 -2.85977 966.425C27.2606 966.736 53.0404 950.814 69.7272 924.843C86.2116 899.49 94.1875 867.3 104.787 834.761C109.218 821.73 114.135 808.378 120.035 795.692C128.378 778.208 139.098 762.13 153.033 750.225C175.245 731.539 202.269 726.145 228.229 728.166C237.217 728.873 246.055 730.37 254.796 732.832C282.668 740.511 308.215 755.954 333.058 778.714C339.01 784.194 344.835 789.897 350.352 795.872C378.456 826.167 404.746 863.334 438.547 890.558C479.875 923.951 528.061 936.897 574.719 930.021C590.588 927.704 605.956 923.09 620.176 915.98C670.567 891.206 709.458 840.74 735.005 784.209C739.023 775.603 742.576 766.75 745.95 757.948C771.519 691.852 786.347 619.91 812.741 553.962C838.656 489.645 879.083 428.821 937.952 401.145C950.223 395.323 962.922 392.194 976.018 391.017C1043.66 384.538 1119.96 434.896 1188.26 425.426C1471.68 386.023 1727.7 540.305 1826.66 752.726" stroke="white" stroke-width="0.2" stroke-miterlimit="10"/>
<path d="M-68.9769 914.943C-63.6093 948.699 -28.9162 969.866 -0.9398 968.894C28.9931 967.946 53.656 950.27 69.3608 923.632C84.6832 897.663 91.6022 865.202 101.842 832.763C105.86 819.658 110.778 806.306 116.55 793.842C124.713 776.408 135.485 760.503 149.526 748.944C171.895 730.777 199.541 726.148 225.561 729.652C234.474 730.754 243.47 732.771 251.956 735.678C279.528 744.939 304.49 761.668 328.591 785.195C334.364 790.725 339.881 796.7 345.451 802.848C372.76 833.737 398.817 870.781 432.641 897.436C474.171 930.211 523.07 941.648 569.307 933.389C585.02 930.554 600.282 925.593 614.398 918.137C664.008 892.078 701.715 841.564 726.722 785.183C730.56 776.626 734.114 767.774 737.487 758.971C762.697 692.974 777.502 621.601 804.106 556.344C830.306 492.324 871.176 432.315 930.487 405.455C942.81 399.805 955.434 397.072 968.583 396.068C1036.15 391.294 1111.75 443.161 1179.62 432.307C1467.88 386.325 1730.8 550.509 1830.12 764.142" stroke="white" stroke-width="0.2" stroke-miterlimit="10"/>
<path d="M-67.8444 919.316C-62.4769 953.073 -27.169 973.695 1.03221 971.537C30.7252 969.155 54.3237 949.898 68.8665 922.644C83.1544 895.835 89.1213 863.45 98.5891 831.036C102.427 817.982 106.932 804.556 112.884 792.042C121.048 774.608 131.64 758.753 145.966 747.49C168.62 729.619 196.633 726.201 222.841 730.966C231.911 732.586 240.832 734.998 249.243 738.301C276.462 748.972 300.765 767.382 324.019 791.33C329.664 797.083 335.001 803.107 340.211 809.354C366.906 840.788 392.731 877.709 426.397 903.845C468.182 936.175 517.56 945.98 563.79 936.411C579.398 933.229 594.45 927.577 608.281 919.825C657.165 892.655 693.582 841.747 718.05 785.514C721.888 776.958 725.261 768.155 728.634 759.352C753.357 693.677 768.267 622.65 795.029 557.912C821.565 494.361 863.005 434.945 922.451 409.171C934.88 403.868 947.556 401.307 960.63 400.699C1028.08 397.458 1103.14 450.784 1170.42 438.595C1463.39 385.687 1733.5 560.072 1833.2 774.915" stroke="white" stroke-width="0.2" stroke-miterlimit="10"/>
<path d="M-66.7117 923.69C-61.2167 957.223 -25.2417 977.474 2.95208 974.006C32.4577 970.364 54.9391 949.354 68.32 921.483C81.446 894.058 86.5359 861.352 95.4639 829.087C99.0696 815.909 103.447 802.706 109.22 790.242C117.203 772.857 128.028 757.125 142.406 746.036C165.217 728.684 193.726 726.253 220.12 732.279C229.116 734.295 238.014 737.275 246.35 740.973C273.269 753.226 296.808 772.972 319.32 797.687C324.605 803.539 329.995 809.737 335.025 816.034C360.977 848.234 386.57 885.032 420.386 910.376C462.373 942.089 512.284 950.435 558.454 939.383C573.904 935.683 588.851 929.684 602.577 921.586C650.681 893.132 686.094 842.126 710.022 786.042C713.68 777.535 717.053 768.733 720.427 759.93C744.609 694.404 759.677 623.896 786.828 559.8C813.703 496.718 855.532 437.944 915.42 412.986C927.901 407.855 940.63 405.468 953.809 405.205C1021.14 403.497 1095.67 458.281 1162.39 444.932C1459.86 384.974 1737.22 569.731 1837.46 785.735" stroke="white" stroke-width="0.2" stroke-miterlimit="10"/>
<path d="M-65.5796 928.063C-60.1371 961.424 -23.4424 981.476 4.69136 976.525C33.7772 971.499 55.5539 948.809 67.7729 920.322C79.9168 892.231 84.0022 859.427 92.1056 827.015C95.5314 813.887 99.6768 800.56 105.269 788.146C113.2 770.588 123.897 755.079 138.433 744.508C161.581 727.625 190.405 726.233 216.987 733.518C226.087 735.88 234.963 739.429 243.277 743.696C270.076 757.481 292.67 778.613 314.44 804.095C319.597 810.169 324.627 816.466 329.657 822.763C354.995 855.507 380.176 892.232 414.014 917.008C456.384 948.052 506.437 954.297 552.757 942.455C568.154 938.581 582.892 931.891 596.333 923.496C643.71 893.931 677.833 842.531 701.221 786.596C704.827 777.916 708.253 769.287 711.266 760.583C735.089 695.156 749.954 625.266 777.443 561.64C804.602 498.854 847.054 440.845 907.024 416.802C919.558 411.844 932.212 409.852 945.443 409.763C1012.66 409.587 1086.47 465.88 1152.96 451.097C1455.04 383.868 1739.51 579.22 1840.12 796.434" stroke="white" stroke-width="0.2" stroke-miterlimit="10"/>
<path d="M-64.4462 932.436C-59.0037 965.797 -21.5144 985.255 6.66439 979.167C35.5628 972.881 56.2226 948.438 67.2796 919.334C78.2092 890.453 81.29 857.552 89.0336 825.239C92.0471 812.037 96.1925 798.71 101.837 786.469C109.588 768.961 120.338 753.624 135.106 743.177C158.592 726.763 187.73 726.408 214.5 734.954C223.578 737.885 232.378 741.83 240.617 746.491C267.064 761.686 289.126 784.276 309.921 810.402C314.951 816.699 319.801 823.046 324.704 829.565C349.427 862.854 374.375 899.455 408.288 923.836C450.86 954.262 501.836 959.69 547.526 945.772C562.713 941.207 577.399 934.344 590.735 925.603C637.332 894.753 670.27 843.306 693.119 787.52C696.545 778.89 699.971 770.26 702.984 761.556C726.32 696.451 741.29 626.907 768.989 563.972C796.485 501.656 839.274 444.117 899.792 421.234C912.378 416.449 925.085 414.63 938.241 414.937C1005.33 416.293 1078.62 474.045 1144.5 457.928C1450.98 383.304 1742.97 589.324 1843.94 807.75" stroke="white" stroke-width="0.2" stroke-miterlimit="10"/>
<path d="M-63.3161 936.81C-57.7461 969.948 -19.7995 988.343 8.5816 981.637C37.5025 974.782 56.8355 947.894 66.7305 918.173C76.678 888.626 78.7019 855.454 85.7259 823.34C88.5594 810.187 92.5249 796.91 97.9372 784.546C105.688 767.038 116.438 751.701 131.311 741.6C154.954 725.705 184.767 726.289 211.492 735.971C220.675 739.248 229.4 743.588 237.617 748.819C263.764 765.596 285.061 789.521 305.294 816.365C310.144 822.711 314.867 829.28 319.41 835.899C343.338 869.782 368.234 906.21 401.99 930.072C444.764 959.88 496.271 963.85 541.902 948.448C557.112 943.315 571.512 936.155 584.511 926.946C630.381 894.984 662.03 843.143 684.339 787.505C687.765 778.875 691.011 770.295 694.024 761.591C717 696.586 731.948 627.61 759.804 565.194C787.638 503.347 830.996 446.4 891.596 424.432C904.235 419.82 917.047 418.347 930.075 418.876C996.995 421.592 1070.35 483.447 1135.14 463.698C1442.95 370.337 1745.9 599.01 1847.37 818.424" stroke="white" stroke-width="0.2" stroke-miterlimit="10"/>
<path d="M-61.9493 941.307C-56.4319 974.272 -17.6082 992.987 10.5555 984.279C39.0791 975.472 57.505 947.522 66.418 917.135C75.1511 886.798 76.4029 853.652 82.7821 821.341C85.4358 808.238 89.1689 794.838 94.4538 782.696C102.025 765.237 112.827 750.074 127.985 740.269C151.966 724.843 182.041 726.292 209.005 737.408C218.166 741.253 226.997 745.939 234.958 751.614C260.933 769.751 281.338 795.235 300.776 822.672C305.499 829.241 309.862 835.91 314.404 842.528C337.538 877.006 362.201 913.31 396.16 936.554C439.189 965.917 491.356 968.205 536.746 951.371C551.852 945.891 566.095 938.212 578.808 928.707C623.899 895.461 654.364 843.571 676.133 788.083C679.379 779.503 682.625 770.922 685.691 762.392C708.179 697.708 723.232 629.078 751.478 567.305C779.596 505.754 823.397 449.622 884.492 428.642C897.184 424.203 910.1 423.076 923.233 423.951C990.086 428.372 1062.6 490.648 1127.04 470.43C1439.36 372.64 1749.02 608.646 1850.86 829.27" stroke="white" stroke-width="0.2" stroke-miterlimit="10"/>
<path d="M-60.8219 945.681C-55.3045 978.646 -15.6337 996.94 12.5225 986.922C40.8587 976.855 58.1676 947.15 65.9187 916.147C73.6698 885.144 73.6846 851.777 79.5242 819.615C81.9454 806.389 85.5511 793.211 90.7835 780.896C98.1748 763.487 108.977 748.324 124.24 738.865C148.325 723.785 178.948 726.394 206.1 738.77C215.365 742.962 223.993 748.266 232.112 754.46C257.787 774.179 277.428 800.998 296.124 829.203C300.487 835.871 304.902 842.712 309.317 849.554C331.836 884.576 356.087 920.807 390.068 943.482C433.3 972.227 485.999 973.056 531.15 954.788C546.097 948.79 560.235 940.765 572.844 930.914C617.207 896.556 646.383 844.273 667.612 788.933C670.858 780.353 673.924 771.822 676.99 763.292C698.939 698.757 714.202 630.819 742.553 569.391C770.828 508.359 815.379 452.77 876.737 432.655C889.48 428.389 902.269 427.485 915.508 428.705C982.24 434.659 1053.52 496.714 1118.12 477.015C1437.13 379.439 1752.01 618.504 1854.22 840.339" stroke="white" stroke-width="0.2" stroke-miterlimit="10"/>
<path d="M-59.6887 950.054C-53.9913 982.97 -13.6534 1000.89 14.4429 989.391C42.5391 977.891 58.7836 946.606 65.3728 914.986C71.9619 883.367 71.1522 849.852 76.3995 817.666C81.6468 785.479 94.6153 753.036 120.68 737.41C153.364 717.896 197.87 730.92 229.4 757.083C260.929 783.246 282.354 820.444 304.259 856.011C326.163 891.577 350.002 927.734 384.185 949.791C441.96 987.269 516.945 973.515 567.088 932.502C617.411 891.44 646.909 828.009 668.498 763.573C690.14 699.311 705.327 631.769 733.888 571.032C762.449 510.296 807.442 455.523 869.062 436.272C946.409 412.307 1032.24 508.207 1109.22 483.031C1432.38 377.937 1755.13 628.14 1857.7 851.185" stroke="white" stroke-width="0.2" stroke-miterlimit="10"/>
<path d="M-60.1839 949.066C-54.6365 978.274 -15.7079 992.837 12.7932 980.1C40.3947 967.611 57.1039 936.573 64.6226 905.446C69.9824 883.912 71.8639 861.838 74.6749 840.258C75.8293 830.568 77.2686 821.174 79.3001 811.804C85.4844 781.421 98.7229 751.153 124.72 737.232C147.509 724.947 175.74 728.029 201.655 740.184C212.6 745.411 223.192 752.048 232.608 759.946C264.242 786.455 286.747 823.355 309.393 858.155C328.014 886.755 348 915.353 373.63 936.209C379.372 940.997 385.369 945.341 391.801 949.189C450.183 984.812 524.854 970.02 574.914 928.093C585.776 918.911 595.731 908.667 604.884 897.707C637.351 858.198 658.61 808.098 674.975 757.288C695.867 692.482 710.484 624.347 738.295 563.068C766.137 502.531 810.125 447.66 871.1 428.212C877.704 426.203 884.339 424.934 891.003 424.408C957.57 419.536 1029.21 485.99 1094.63 478.624C1099.51 478.025 1104.3 477.08 1108.97 475.79C1179.03 454.774 1248.82 450.888 1316.95 458.892C1430.66 472.503 1539.09 518.87 1629.11 581.002C1729.62 650.735 1807.8 740.687 1850.15 826.28" stroke="white" stroke-width="0.2" stroke-miterlimit="10"/>
<path d="M-60.6792 948.077C-55.2293 973.751 -17.71 984.954 10.911 970.685C38.0177 957.208 55.1917 926.416 63.8724 895.906C69.8769 874.569 72.7404 853.162 76.6909 832.766C78.415 823.669 80.1391 814.571 82.3805 805.893C89.5019 777.313 103.063 749.393 128.888 736.832C151.504 725.906 179.405 729.829 205.013 742.256C216.01 747.656 226.475 754.515 235.943 762.587C267.863 789.392 291.034 825.921 314.475 860.126C333.891 888.132 354.798 915.914 380.938 935.879C386.808 940.445 392.932 944.565 399.492 948.191C458.66 981.91 533.017 966.081 582.762 923.116C593.572 913.761 603.474 903.344 612.395 892.261C644.472 852.109 665.214 801.59 681.241 750.31C701.563 684.912 715.071 616.334 742.673 554.363C769.614 494.074 812.905 438.833 873.288 419.361C879.84 417.178 886.474 415.91 893.139 415.383C959.189 410.092 1030.38 475.731 1094.96 470.096C1099.72 469.72 1104.33 468.825 1109 467.534C1177.84 448.918 1246.43 446.862 1313.64 455.682C1426.22 470.729 1534.82 514.426 1624.17 572.431C1723.75 637.172 1800.69 721.094 1842.92 800.533" stroke="white" stroke-width="0.2" stroke-miterlimit="10"/>
<path d="M-60.9416 947.213C-55.5891 969.352 -19.4791 977.195 9.4417 961.344C36.0537 946.879 53.6924 916.334 63.3551 886.49C70.0568 865.523 74.0822 844.732 78.7599 825.448C80.8213 816.82 82.9353 808.364 85.514 800.156C93.5724 773.379 107.403 747.633 133.16 736.778C155.657 727.384 183.176 731.975 208.529 744.848C219.399 750.47 229.916 757.502 239.384 765.574C271.408 792.725 295.247 828.882 319.843 862.394C339.873 889.855 361.702 916.82 388.352 935.895C394.349 940.239 400.601 944.137 407.108 947.589C466.831 979.281 540.873 962.414 590.408 918.757C601.166 909.229 611.016 898.639 619.884 887.383C651.571 846.59 672.028 795.774 687.358 744.124C707.111 678.134 719.869 609.013 746.721 546.499C772.71 486.285 815.229 431.069 874.968 411.401C881.519 409.218 887.974 408 894.586 407.3C960.119 401.589 1030.82 466.24 1094.56 462.336C1099.14 462.009 1103.79 461.287 1108.52 460.169C1176.26 443.729 1243.29 443.603 1309.82 453.364C1421.5 469.968 1530.04 510.872 1618.54 564.801C1717.3 624.896 1792.88 702.443 1835.18 775.678" stroke="white" stroke-width="0.2" stroke-miterlimit="10"/>
<path d="M-61.4358 946.225C-56.1808 964.83 -21.5326 969.14 7.74053 951.879C33.8577 936.427 52.0138 906.301 62.5535 876.778C69.9523 856.181 74.9598 836.056 80.5445 817.834C82.9433 809.674 85.5745 801.639 88.3631 794.122C97.3586 769.148 111.639 745.527 137.329 736.378C159.653 728.344 186.79 733.602 211.708 746.97C222.45 752.815 233.02 760.02 242.488 768.091C274.85 795.712 299.535 831.448 324.873 864.192C345.751 891.233 368.27 917.258 395.609 935.393C401.733 939.514 408.113 943.189 414.747 946.419C475.078 976.257 548.984 958.302 598.258 913.781C608.962 904.079 618.58 893.366 627.576 881.888C659.105 840.575 678.993 789.167 693.805 737.098C712.808 670.564 724.817 600.9 751.099 537.794C776.189 477.828 817.884 422.465 876.925 402.426C883.297 400.294 889.878 398.852 896.363 398.375C961.326 392.072 1031.81 456.031 1094.72 453.858C1099.35 453.704 1103.88 453.205 1108.43 452.137C1174.94 438.096 1240.77 439.8 1306.56 450.327C1417.12 468.367 1525.69 506.824 1613.65 556.403C1711.53 611.679 1785.82 683.024 1828.19 750.055" stroke="white" stroke-width="0.2" stroke-miterlimit="10"/>
<path d="M-61.8781 945.41C-56.7205 960.481 -23.4817 961.431 6.0913 942.588C31.7137 926.147 50.3346 896.268 61.8563 867.411C69.9523 847.184 75.9418 827.725 82.3811 810.392C85.2971 802.652 88.1382 795.308 91.2641 788.26C101.197 765.09 115.747 743.644 141.317 736.027C163.469 729.353 190.276 735.452 214.939 749.264C225.733 755.283 236.123 762.537 245.644 770.782C278.111 798.748 303.643 834.063 329.956 866.164C351.628 892.61 375.069 917.818 402.738 935.113C408.99 939.011 415.497 942.464 422.079 945.521C483.196 973.454 556.608 954.511 605.567 908.952C616.219 899.078 625.784 888.192 634.547 876.59C665.687 834.636 685.11 782.981 699.585 730.442C718.071 663.489 729.097 593.159 754.99 529.41C779.18 469.693 820.05 414.183 878.446 393.947C884.818 391.814 891.22 390.423 897.832 389.723C962.458 382.951 1032.27 445.971 1094.33 445.529C1098.84 445.598 1103.37 445.098 1107.79 444.253C1173.26 432.561 1237.72 436.145 1302.57 447.489C1411.96 466.791 1520.8 502.924 1607.86 548.253C1704.87 598.711 1777.86 663.853 1820.12 724.73" stroke="white" stroke-width="0.2" stroke-miterlimit="10"/>
<path d="M-62.3703 944.422C-57.1828 955.736 -25.4283 953.722 4.26464 933.346C29.4448 916.09 48.6578 886.235 60.9292 857.921C69.6699 837.891 76.6939 819.272 84.0402 803C87.2936 795.729 90.5245 789.028 93.9878 782.449C104.857 761.082 119.73 741.984 145.18 735.899C167.159 730.584 193.637 737.524 218.045 751.782C228.712 758.023 239.154 765.45 248.675 773.695C281.427 801.957 307.626 836.901 334.733 868.408C357.2 894.26 381.383 918.701 409.795 935.228C416.174 938.904 422.808 942.134 429.57 945.142C491.295 971.22 564.519 951.017 613.268 904.766C623.868 894.719 633.38 883.66 642.091 871.885C673.073 829.412 691.926 777.165 705.884 724.206C723.62 656.711 734.078 585.788 759.272 521.669C782.691 461.977 822.556 406.369 880.36 386.11C886.68 383.804 893.082 382.412 899.514 381.762C963.622 374.57 1033.12 436.553 1094.22 438.065C1098.72 438.134 1103.12 437.857 1107.42 437.234C1171.67 427.941 1234.69 433.232 1298.86 445.516C1407.17 466.425 1515.95 499.766 1602.52 540.918C1698.47 586.607 1770.29 645.325 1812.67 700.171" stroke="white" stroke-width="0.2" stroke-miterlimit="10"/>
<path d="M-62.6862 943.384C-57.5961 951.163 -27.2509 945.79 2.74185 923.832C27.4797 905.761 47.105 875.98 60.3584 848.332C69.7963 828.671 77.9822 810.669 86.2356 795.459C89.8263 788.658 93.5745 782.375 97.2477 776.489C109.107 757.097 124.197 740.001 149.527 735.449C171.386 731.667 197.301 739.324 221.582 753.804C232.302 760.218 242.617 767.869 252.137 776.113C284.994 804.721 312.093 839.417 340.122 870.107C363.436 895.538 388.309 919.039 417.41 934.626C423.917 938.079 430.498 941.136 437.568 943.872C499.9 968.096 572.809 946.855 621.295 899.74C631.843 889.52 641.303 878.288 649.781 866.389C680.374 823.274 698.942 770.73 712.33 717.18C729.497 649.091 739.024 577.675 763.649 512.964C786.168 453.52 825.389 397.715 882.369 377.308C888.508 375.052 894.91 373.661 901.289 372.838C964.881 365.226 1033.88 426.221 1094.14 429.463C1098.52 429.755 1102.74 429.528 1107.09 429.078C1170.12 422.184 1231.94 429.305 1295.24 442.579C1402.61 464.873 1511.24 495.817 1597.09 532.669C1692.16 573.54 1762.69 626.055 1804.95 674.747" stroke="white" stroke-width="0.2" stroke-miterlimit="10"/>
<path d="M-63.1282 942.569C-58.1356 946.814 -29.1473 938.254 1.09286 914.541C25.3884 895.654 45.426 865.947 59.6615 838.965C69.7965 819.675 78.9644 802.338 88.1249 788.19C92.2854 781.981 96.1909 776.218 100.201 770.801C112.818 753.262 128.358 738.291 153.62 735.444C175.307 733.022 200.84 741.347 224.918 756.445C235.51 763.082 245.878 770.905 255.451 779.322C288.592 808.227 316.359 842.551 345.362 872.597C369.291 897.484 395.266 920.119 424.697 934.865C431.331 938.095 438.093 941.103 445.057 943.492C507.996 965.862 580.77 943.534 628.942 895.381C639.437 884.988 648.845 873.583 657.27 861.512C687.653 817.704 705.524 764.791 718.447 710.994C735.044 642.313 743.822 570.353 767.698 505.1C789.317 445.904 827.713 389.952 884.228 369.298C890.367 367.042 896.717 365.477 903.096 364.654C966.17 356.623 1034.68 416.63 1094.15 421.777C1098.35 422.118 1102.67 422.237 1106.84 421.836C1168.77 417.119 1229.09 426.343 1291.83 440.334C1398.07 464.063 1506.69 492.387 1592.06 525.062C1686.07 561.164 1755.48 607.427 1797.81 649.915" stroke="white" stroke-width="0.2" stroke-miterlimit="10"/>
<path d="M-63.6238 941.581C-58.7286 942.292 -31.1496 930.372 -0.609619 905.076C23.0638 885.424 43.6936 855.741 59.0385 829.203C70.0506 810.233 80.0206 793.612 90.0882 780.526C94.586 774.786 98.8289 769.492 103.229 764.717C116.783 748.982 132.592 736.185 157.788 735.044C179.302 733.981 204.505 743.147 228.328 758.691C238.793 765.55 249.161 773.373 258.786 781.963C292.032 811.214 320.699 845.289 350.624 874.519C375.4 898.984 402.064 920.679 432.185 934.486C438.946 937.493 445.836 940.278 452.927 942.445C516.474 962.961 588.881 939.422 636.842 890.577C647.285 880.011 656.513 868.656 665.013 856.189C695.059 811.912 712.592 758.53 724.946 704.14C740.845 635.089 748.874 562.587 772.307 496.518C793.207 437.521 830.598 381.471 886.416 360.447C892.555 358.191 898.725 356.676 905.052 355.68C967.736 347.007 1035.8 406.198 1094.25 413.126C1098.5 413.64 1102.65 413.808 1106.69 413.631C1167.4 411.312 1226.52 422.366 1288.33 437.174C1393.45 462.338 1502.29 488.165 1586.81 516.764C1679.76 548.096 1748.05 588.108 1790.45 624.392" stroke="white" stroke-width="0.2" stroke-miterlimit="10"/>
<path d="M-63.8858 940.716C-59.0881 937.893 -32.866 922.786 -2.20603 895.958C21.0251 875.491 42.2996 846.005 58.3941 820.009C70.0509 801.236 81.003 785.282 92.03 773.43C96.8652 768.16 101.678 763.458 106.056 759.252C120.546 745.32 136.626 734.698 161.701 735.089C182.863 735.436 207.916 745.392 231.252 761.258C241.77 768.29 252.01 776.336 261.635 784.926C295.166 814.473 324.5 848.177 355.22 876.812C380.79 900.684 408.197 921.612 438.827 934.528C445.768 937.486 452.732 939.875 459.824 942.042C523.978 960.703 596.25 936.077 643.949 886.367C654.159 875.678 663.514 864.1 671.783 851.51C701.618 806.541 718.455 752.789 730.471 697.93C745.801 628.286 753.079 555.241 775.763 488.63C795.763 429.881 832.278 373.51 887.503 352.463C893.643 350.207 899.76 348.519 905.959 347.745C968.126 338.653 1035.7 396.856 1093.36 405.688C1097.43 406.251 1101.63 406.593 1105.72 406.588C1165.21 406.668 1222.9 419.429 1284.02 435.177C1388.07 461.949 1496.84 484.983 1580.87 509.405C1672.95 535.919 1739.76 569.778 1782.23 599.858" stroke="white" stroke-width="0.2" stroke-miterlimit="10"/>
<path d="M-64.3835 939.727C-59.7358 933.197 -34.818 915.076 -3.91069 886.493C19.058 865.161 40.5649 835.798 57.6415 810.469C69.9954 792.066 81.9295 776.778 93.8112 765.815C98.9836 761.014 104.186 756.954 108.901 753.217C124.201 741.311 140.678 732.641 165.686 734.738C186.676 736.444 211.219 747.291 234.48 763.552C244.87 770.807 255.163 779.026 264.788 787.616C298.604 817.459 328.605 850.791 360.299 878.783C386.664 902.06 414.993 922.172 446.133 934.197C453.202 936.933 460.293 939.1 467.512 941.044C532.273 957.851 604.231 932.187 651.615 881.439C661.772 870.577 671.075 858.826 679.291 846.063C708.789 800.625 725.288 746.404 736.788 691.125C751.368 620.939 757.897 547.351 780.011 480.146C799.291 421.596 834.801 365.128 889.382 343.883C895.289 341.504 901.458 339.989 907.785 338.993C969.435 329.481 1036.51 386.696 1093.34 397.259C1097.46 397.995 1101.48 398.386 1105.44 398.604C1163.84 400.86 1220.2 415.675 1280.4 432.24C1383.32 460.446 1491.95 481.083 1575.44 501.156C1666.51 523.073 1732.16 550.507 1774.69 574.384" stroke="white" stroke-width="0.2" stroke-miterlimit="10"/>
<path d="M-64.8768 938.74C-60.1466 928.626 -36.7656 907.367 -5.6109 877.029C16.968 855.055 38.8347 825.593 56.8408 800.757C69.8919 782.724 82.8081 768.102 95.7767 758.151C101.466 753.77 106.826 750.229 111.931 747.134C127.988 737.081 144.915 730.536 169.803 734.166C190.62 737.231 214.834 748.919 237.788 765.452C248.05 772.93 258.395 781.321 268.02 789.911C301.942 820.101 333.022 853.135 365.458 880.36C392.67 903.216 421.689 922.387 453.338 933.523C460.355 936.085 467.574 938.029 474.92 939.751C540.288 954.703 612.058 927.779 659.233 876.34C669.338 865.305 678.588 853.381 686.572 840.494C715.68 794.415 731.842 739.724 742.824 684.025C756.834 613.246 762.666 539.288 784.158 471.319C802.538 413.017 837.404 356.352 891.16 334.96C897.067 332.58 903.184 330.892 909.331 329.946C970.464 320.014 1037.23 376.192 1093.08 388.708C1097.08 389.667 1100.92 390.108 1104.93 390.499C1162.11 395.154 1217.09 411.848 1276.73 429.13C1378.53 458.772 1487.19 476.962 1570.14 492.685C1659.98 509.883 1724.69 531.015 1767.11 548.738" stroke="white" stroke-width="0.2" stroke-miterlimit="10"/>
<path d="M-65.1396 937.875C-60.5069 924.226 -38.3028 899.731 -7.2606 867.737C14.876 844.948 37.335 815.51 56.1432 791.39C70.0713 773.677 83.7896 759.771 97.6653 750.882C103.692 746.97 109.442 744.071 114.884 741.445C131.699 733.245 149.075 728.825 174.076 734.111C194.72 738.536 218.604 751.064 241.303 768.043C251.618 775.693 261.783 784.134 271.461 792.898C305.667 823.383 337.414 856.046 370.825 882.627C398.832 904.889 428.592 923.293 460.984 933.662C468.128 936.001 475.474 937.723 482.948 939.222C548.924 952.32 620.379 924.358 667.291 872.054C677.343 860.846 686.541 848.749 694.472 835.69C723.371 788.918 738.888 734.03 749.3 677.739C762.793 606.541 767.823 531.867 788.565 463.354C806.226 405.251 840.087 348.488 893.146 326.726C899.053 324.347 904.99 322.709 911.085 321.589C971.88 311.188 1037.92 366.254 1093.16 380.625C1096.98 381.634 1100.92 382.42 1104.76 382.861C1160.66 389.742 1214.49 408.44 1273.21 426.539C1373.94 457.788 1482.53 473.185 1564.82 484.781C1653.6 497.21 1717.19 512.091 1759.68 523.609" stroke="white" stroke-width="0.2" stroke-miterlimit="10"/>
<path d="M-65.6333 936.887C-61.098 919.704 -40.1983 892.196 -8.96119 858.274C12.7856 834.842 35.6044 805.305 55.3946 781.851C70.0199 764.508 84.7202 751.268 99.503 743.441C105.867 739.998 111.954 737.569 117.787 735.585C135.485 729.015 153.184 726.943 178.065 733.761C198.537 739.545 222.038 752.742 244.535 770.338C254.722 778.211 264.94 786.826 274.67 795.762C308.981 826.593 341.576 858.835 375.781 884.822C404.583 906.49 435.265 924.077 468.167 933.555C475.438 935.672 482.964 937.344 490.566 938.621C557.148 949.864 628.289 920.865 675.066 867.473C685.066 856.092 694.031 843.872 702.09 830.59C730.651 783.349 745.778 727.819 755.725 671.281C768.469 599.54 772.749 524.324 792.922 455.218C809.863 397.313 842.667 340.28 895.314 318.444C901.041 316.114 907.105 314.254 913.2 313.135C973.425 302.141 1039.02 356.392 1093.48 372.667C1097.35 373.849 1101.11 374.685 1104.82 375.348C1159.68 384.578 1211.95 405.205 1269.93 424.072C1369.53 456.756 1477.98 469.755 1559.91 476.952C1647.69 484.786 1710.05 493.068 1752.66 498.555" stroke="white" stroke-width="0.2" stroke-miterlimit="10"/>
<path d="M-66.1253 935.899C-61.6876 915.181 -42.1447 884.486 -10.6077 848.982C10.6968 824.735 34.1602 795.395 54.8276 772.261C70.15 755.288 85.8323 742.715 101.522 735.949C108.224 732.975 114.858 731.707 120.87 729.674C138.674 723.449 157.422 724.837 182.288 733.533C202.535 740.504 225.579 754.764 247.948 772.583C258.009 780.679 268.279 789.466 278.009 798.402C312.605 829.529 345.919 861.573 381.047 886.743C410.695 907.99 442.067 924.637 475.478 933.225C482.877 935.119 490.531 936.569 498.08 937.673C565.09 947.111 636.222 916.802 682.61 862.768C692.557 851.214 701.47 838.821 709.296 825.416C737.647 777.483 752.31 721.706 761.688 664.576C773.861 592.242 777.444 516.656 796.815 446.835C812.857 389.178 844.836 331.997 896.838 309.964C902.513 307.462 908.45 305.824 914.492 304.531C974.2 293.118 1039.48 346.331 1092.92 364.387C1096.61 365.618 1100.42 366.627 1104.01 367.513C1157.59 378.969 1208.72 401.6 1265.77 421.283C1364.43 455.352 1472.74 465.955 1553.95 468.852C1640.66 471.916 1701.92 473.946 1744.41 473.28" stroke="white" stroke-width="0.2" stroke-miterlimit="10"/>
<path d="M-66.572 935.084C-62.2842 910.659 -43.8133 877.073 -12.2613 839.691C8.65337 814.802 32.4766 785.362 54.126 762.895C70.0931 746.119 86.7575 734.211 103.407 728.681C110.678 726.299 117.26 724.858 123.819 723.986C143.033 721.121 161.578 723.127 186.376 733.528C206.272 741.909 229.166 756.96 251.28 775.224C261.393 783.493 271.303 792.379 281.266 801.439C315.966 832.912 350.307 864.485 386.177 888.888C416.44 909.59 448.787 925.594 482.835 933.068C490.362 934.74 498.143 935.967 505.819 936.848C573.489 944.606 644.254 913.085 690.506 857.964C700.401 846.237 709.262 833.671 717.088 820.266C745.102 771.864 759.195 715.495 768.235 657.895C779.659 585.019 782.672 508.84 801.473 438.426C816.795 380.968 847.77 323.689 899.127 301.46C904.802 298.957 910.687 297.146 916.549 295.903C975.74 284.07 1040.52 336.296 1093.18 356.255C1096.92 357.66 1100.55 358.718 1104.19 359.777C1156.55 373.632 1206.3 398.143 1262.66 418.766C1360.25 454.443 1468.36 462.475 1549.21 460.973C1634.74 459.491 1695.01 455.047 1737.57 448.176" stroke="white" stroke-width="0.2" stroke-miterlimit="10"/>
<path d="M-66.8847 934.046C-62.6944 906.087 -45.4004 869.265 -13.9609 830.226C6.74388 804.646 30.7471 775.157 53.3785 753.355C70.2227 736.9 87.6891 725.708 105.373 721.016C112.982 719.104 119.953 718.305 126.85 717.902C146.768 716.717 165.816 721.021 190.494 732.955C210.217 742.696 232.781 758.587 254.461 777.346C264.446 785.837 274.408 794.897 284.551 803.907C319.537 835.676 354.545 866.877 391.389 890.637C422.447 910.745 455.536 925.982 490.094 932.566C497.748 934.015 505.476 935.069 513.28 935.727C581.557 941.63 652.135 908.85 697.997 853.086C707.84 841.187 716.648 828.448 724.242 814.919C752.046 765.825 765.674 709.209 774.197 651.19C785.051 577.721 787.367 501.172 805.366 430.043C819.968 372.783 850.118 315.357 900.651 292.98C906.146 290.527 912.031 288.716 918.073 287.424C976.926 275.122 1040.98 326.235 1092.85 348.099C1096.41 349.553 1099.92 350.835 1103.61 352.066C1154.88 368.098 1203.24 394.488 1258.92 416.051C1355.38 453.163 1463.53 458.748 1543.66 452.947C1628.19 446.868 1687.28 435.999 1729.91 422.925" stroke="white" stroke-width="0.2" stroke-miterlimit="10"/>
<path d="M-67.3258 933.231C-63.2329 901.738 -47.2433 861.901 -15.6089 820.935C4.70606 794.712 29.3015 765.247 52.63 743.816C70.1714 727.73 88.6198 717.204 107.211 713.574C115.157 712.132 122.646 711.752 129.752 712.041C150.375 712.536 170.053 718.915 194.536 732.777C214.266 743.828 236.141 760.659 257.693 779.641C267.55 788.355 277.566 797.587 287.708 806.597C322.799 838.712 358.706 869.665 396.293 892.658C428.198 912.345 462.156 926.592 497.224 932.285C505.005 933.512 512.862 934.344 520.793 934.779C589.677 938.828 659.94 905.009 705.72 848.332C715.51 836.259 724.266 823.347 731.807 809.646C759.221 759.91 772.332 702.874 780.517 644.386C790.855 570.497 792.369 493.232 809.617 421.56C823.5 364.499 852.593 306.802 902.481 284.228C907.976 281.775 913.808 279.791 919.671 278.549C978.007 265.827 1041.75 315.903 1092.65 339.72C1096.08 341.397 1099.64 342.851 1103.1 343.96C1153.14 362.39 1200.13 390.661 1255.07 412.991C1350.46 451.71 1458.46 454.898 1538.23 444.698C1621.58 434.073 1679.68 416.729 1722.2 397.501" stroke="white" stroke-width="0.2" stroke-miterlimit="10"/>
<path d="M-67.8203 932.243C-63.645 897.166 -48.9598 854.315 -17.258 811.643C2.79466 784.556 27.6225 755.214 51.933 734.449C70.1716 718.733 89.602 708.874 109.1 706.306C117.383 705.332 125.21 705.422 132.706 706.353C154.266 708.651 174.213 717.205 198.577 732.6C218.082 744.837 239.679 762.682 260.976 782.109C270.887 790.995 280.774 800.45 290.917 809.46C326.292 841.872 362.867 872.453 401.428 894.802C434.128 913.895 468.828 927.375 504.586 932.129C512.494 933.133 520.478 933.742 528.589 934.128C598.08 936.322 668.208 901.416 713.494 843.75C723.231 831.505 731.755 818.469 739.423 804.545C766.68 754.291 779.273 696.835 786.762 637.977C796.35 563.546 797.346 485.861 814.025 413.596C827.009 356.783 855.277 298.94 904.521 276.169C909.963 273.543 915.615 271.608 921.477 270.366C979.244 257.051 1042.67 306.09 1092.6 331.861C1096.04 333.538 1099.47 335.214 1102.8 336.545C1151.75 357.152 1197.41 387.476 1251.42 410.622C1345.69 450.777 1453.55 451.567 1532.78 437.017C1614.94 421.846 1672.06 398.028 1714.64 372.595" stroke="white" stroke-width="0.2" stroke-miterlimit="10"/>
<path d="M-68.135 931.205C-64.0572 892.593 -50.4965 846.679 -18.7796 802.129C0.883209 774.399 26.3032 745.081 51.3634 724.859C70.479 709.464 90.8391 700.098 111.117 698.814C119.917 698.26 127.953 699.042 135.787 700.442C158.051 704.42 178.501 715.272 202.797 732.372C222.13 745.969 243.398 764.654 264.387 784.354C274.223 793.636 284.058 802.918 294.305 812.274C329.966 844.982 367.388 875.142 406.743 896.897C440.237 915.395 475.68 928.108 512 932.145C520.088 933.099 528.199 933.485 536.205 933.526C606.356 934.038 676.065 897.749 721.32 839.342C731.005 826.923 739.476 813.715 746.912 799.667C773.779 748.77 786.035 690.846 793.007 631.568C802.024 556.544 802.324 478.49 818.201 405.509C830.465 348.895 857.729 290.953 906.327 267.985C911.77 265.359 917.422 263.425 923.232 262.009C980.481 248.275 1043.41 296.326 1092.56 324.001C1095.87 325.9 1099.3 327.577 1102.5 329.13C1150.23 352.136 1194.51 384.34 1247.78 408.253C1340.97 450.015 1448.88 448.359 1527.51 429.287C1608.67 409.519 1664.61 379.276 1707.09 347.69" stroke="white" stroke-width="0.2" stroke-miterlimit="10"/>
<path d="M-68.578 930.39C-64.5976 888.244 -52.2138 839.094 -20.6094 792.887C-1.15652 764.466 24.4434 735.098 50.4331 715.37C70.2459 700.344 91.588 691.644 112.773 691.422C121.911 691.337 130.284 692.588 138.508 694.63C161.656 700.239 182.556 713.216 206.837 732.195C225.998 747.151 246.703 766.554 267.67 786.822C277.378 796.326 287.266 805.781 297.513 815.137C333.278 848.191 371.547 877.93 411.698 899.091C446.039 917.168 482.171 928.941 519.181 932.038C527.397 932.77 535.455 932.983 543.769 932.751C614.347 931.459 684.1 894.032 729.093 834.76C738.726 822.169 747.144 808.787 754.528 794.567C781.005 743.028 792.796 684.857 799.378 624.937C807.646 549.37 807.376 470.723 822.503 397.199C834.047 340.784 860.307 282.744 908.441 259.53C913.703 256.953 919.303 254.846 925.112 253.43C982.025 239.227 1044.41 286.117 1092.59 315.746C1095.89 317.645 1099.2 319.544 1102.27 321.32C1148.73 346.552 1191.86 380.759 1244.39 405.44C1336.46 448.637 1444.27 444.756 1522.32 421.161C1602.52 396.971 1657.24 360.13 1699.79 322.339" stroke="white" stroke-width="0.2" stroke-miterlimit="10"/>
<path d="M-69.0745 929.402C-65.244 883.549 -53.9322 831.508 -22.3129 783.423C-3.24976 754.36 22.8899 724.843 49.8617 705.781C70.3716 691.125 92.6957 683.091 114.967 683.882C124.443 684.266 133.333 685.937 141.767 688.67C165.853 696.082 187.022 711.234 211.183 731.745C230.119 747.888 250.547 768.305 271.259 789.018C281.019 798.696 290.78 808.373 301.027 817.729C337.077 851.079 376.066 880.62 417.139 900.963C452.274 918.447 489.381 929.576 526.668 931.659C535.011 932.168 543.197 932.159 551.458 931.754C622.696 928.78 692.082 890.143 736.76 829.833C746.16 817.119 754.706 803.515 761.858 789.171C788.177 737.113 799.399 678.35 805.516 618.183C813.267 542.196 812.247 463.006 826.572 388.767C837.449 332.723 862.831 274.363 910.088 250.828C915.351 248.252 920.95 246.144 926.528 244.606C982.923 229.983 1044.99 275.835 1092.38 307.368C1095.56 309.489 1098.69 311.438 1101.99 313.338C1147.36 340.745 1188.98 377.055 1240.77 402.503C1331.77 447.308 1439.62 440.98 1517.07 412.863C1596.14 384.299 1649.59 340.687 1692.43 296.816" stroke="white" stroke-width="0.2" stroke-miterlimit="10"/>
<path d="M-69.5145 928.587C-65.7816 879.199 -55.5943 824.095 -23.9599 774.132C-5.10669 744.376 21.2653 714.983 49.1142 696.241C70.5012 681.906 93.5749 674.415 116.806 676.44C126.799 677.244 135.899 679.606 144.67 682.809C169.64 691.851 191.312 709.301 215.226 731.567C233.989 749.07 254.087 770.327 274.492 791.313C284.125 801.213 293.938 811.063 304.185 820.419C340.34 854.115 380.176 883.235 422.223 902.935C458.153 919.824 496.002 930.186 533.979 931.329C542.45 931.616 550.763 931.384 559.204 930.929C631.049 926.101 700.248 886.204 744.716 825.202C754.064 812.314 762.557 798.538 769.656 784.021C795.586 731.321 806.523 672.261 812.07 611.502C819.071 534.972 817.481 455.19 831.237 380.358C841.394 324.512 865.719 265.882 912.384 242.323C917.646 239.747 923.014 237.516 928.824 236.101C984.701 221.058 1046.22 265.749 1092.83 299.186C1095.88 301.53 1099.06 303.652 1102.18 305.601C1146.32 335.408 1186.75 373.548 1237.61 399.812C1327.49 446.052 1435.25 437.5 1512.11 404.86C1590.17 371.7 1642.45 321.664 1685.18 271.638" stroke="white" stroke-width="0.2" stroke-miterlimit="10"/>
<path d="M-69.8314 927.549C-66.1959 874.627 -56.9532 816.41 -25.4312 764.791C-7.02034 734.22 19.764 704.901 48.4149 686.874C70.4991 672.909 94.5549 666.084 118.641 668.998C128.971 670.271 138.409 673.103 147.569 676.948C173.244 687.67 195.366 707.245 219.212 731.217C237.803 750.079 257.391 772.227 277.541 793.657C287.047 803.78 296.859 813.631 307.159 823.159C343.599 857.152 384.282 885.85 427.124 904.956C463.848 921.251 502.44 930.846 541.106 931.049C549.704 931.113 558.145 930.659 566.713 929.981C639.166 923.299 708.049 882.364 752.255 820.498C761.55 807.437 769.811 793.537 777.038 778.797C802.81 725.578 812.997 665.976 818.027 604.797C824.459 527.675 822.352 447.473 835.125 371.975C844.563 316.328 867.884 257.6 913.904 233.844C918.934 231.144 924.354 229.086 930.111 227.498C985.419 211.863 1046.63 255.516 1092.32 291.079C1095.37 293.424 1098.42 295.769 1101.42 297.94C1144.46 329.923 1183.38 370.166 1233.5 397.197C1322.13 445.094 1430.1 434.046 1506.37 396.884C1583.49 359.3 1634.54 302.666 1677.34 246.437" stroke="white" stroke-width="0.2" stroke-miterlimit="10"/>
<path d="M-70.3267 926.561C-66.6088 870.055 -58.6704 808.824 -27.3134 755.376C-8.93248 724.064 18.0842 694.868 47.6647 677.335C70.4461 663.739 95.4839 657.581 120.477 661.556C131.144 663.299 141.099 666.55 150.47 671.087C177.082 683.612 199.653 705.312 223.252 731.039C241.85 751.211 260.929 774.249 280.772 795.952C290.15 806.297 300.015 816.321 310.315 825.85C346.86 860.188 388.39 888.465 432.026 906.977C469.598 922.851 509.058 931.456 548.054 930.818C556.78 930.66 565.401 930.156 573.864 929.133C646.976 920.769 715.673 878.573 759.563 815.669C768.806 802.435 777.015 788.362 784.009 773.5C809.391 719.639 819.294 659.74 823.806 598.142C829.668 520.427 826.864 439.855 838.835 363.641C847.554 308.192 869.87 249.367 915.245 225.414C920.275 222.714 925.643 220.483 931.22 218.944C986.19 202.84 1046.9 245.505 1091.57 282.85C1094.5 285.417 1097.55 287.761 1100.42 290.155C1142.24 324.537 1179.78 366.66 1229.34 394.409C1316.84 443.741 1424.91 430.418 1500.4 388.783C1576.57 346.777 1626.4 283.545 1669.09 221.162" stroke="white" stroke-width="0.2" stroke-miterlimit="10"/>
<path d="M-70.767 925.746C-67.1465 865.706 -60.1527 801.361 -28.9606 746.085C-10.9695 714.131 16.4595 685.008 46.9171 667.795C70.5755 654.52 96.3629 648.904 122.315 654.115C133.5 656.277 143.665 660.22 153.373 665.226C180.869 679.381 203.763 703.429 227.294 730.862C245.721 752.393 264.469 776.272 284.057 798.42C293.488 808.938 303.225 819.184 313.578 828.886C350.407 863.521 392.604 891.426 437.215 909.294C475.582 924.574 515.785 932.413 555.47 930.835C564.144 930.503 572.892 929.777 581.663 928.481C655.382 918.263 723.711 874.857 767.392 811.261C776.582 797.854 784.738 783.608 791.68 768.573C816.852 714.02 826.057 653.751 830.232 591.683C835.397 513.599 832.023 432.434 843.373 355.455C851.371 300.205 872.863 241.232 917.413 217.132C922.443 214.432 927.631 212.251 933.336 210.489C987.789 193.966 1048.13 235.42 1091.89 274.891C1094.81 277.458 1097.74 280.025 1100.48 282.642C1141.39 319.15 1177.25 363.425 1226.11 392.114C1312.41 443.277 1420.7 427.457 1495.55 381.127C1570.76 334.698 1619.37 264.868 1662.12 196.28" stroke="white" stroke-width="0.2" stroke-miterlimit="10"/>
<path d="M-71.0834 924.708C-67.6128 860.96 -61.691 793.725 -30.4839 736.57C-12.7027 703.924 15.0861 674.702 46.3458 658.205C70.7014 645.3 97.6508 640.301 124.51 646.573C136.032 649.205 146.535 653.617 156.632 659.265C185.066 675.224 208.357 701.223 231.641 730.411C249.842 753.129 268.133 778.072 287.646 800.615C296.949 811.356 306.74 821.775 317.092 831.477C354.027 866.457 397.303 894.065 442.656 911.166C481.817 925.852 522.762 932.923 563.01 930.628C571.811 930.074 580.687 929.125 589.405 927.656C663.836 915.929 731.925 871.09 775.344 806.629C784.482 793.05 792.585 778.631 799.294 763.472C824.13 708.45 832.997 647.712 836.603 585.052C841.198 506.375 837.254 424.618 847.674 347.145C855.133 292.044 875.388 232.85 919.474 208.503C924.504 205.803 929.639 203.449 935.163 201.737C989.099 184.794 1049.13 225.21 1091.87 266.462C1094.66 269.252 1097.41 271.869 1100.2 274.658C1139.84 313.393 1174.54 359.671 1222.49 389.177C1307.85 441.724 1416.04 423.681 1490.35 373.001C1564.61 322.148 1612 245.721 1654.82 170.929" stroke="white" stroke-width="0.2" stroke-miterlimit="10"/>
<path d="M-71.5768 923.72C-68.2037 856.438 -63.2264 786.09 -32.3117 727.329C-14.7404 693.991 13.4607 664.843 45.65 648.839C70.7552 636.477 98.6341 631.971 126.401 639.305C138.26 642.405 149.279 647.237 159.587 653.577C188.905 671.166 212.699 699.464 235.735 730.407C253.944 754.435 271.725 780.268 290.931 803.083C300.107 814.047 309.897 824.466 320.302 834.34C357.521 869.617 401.465 896.853 447.793 913.311C487.748 927.403 529.615 933.657 570.373 930.471C579.301 929.695 588.304 928.523 597.202 927.005C672.241 913.424 740.015 867.546 783.119 802.048C792.204 788.295 800.255 773.704 806.912 758.372C831.537 702.658 839.888 641.5 843.029 578.594C846.874 499.373 842.593 417.147 852.031 339.008C858.822 284.279 878.02 224.814 921.461 200.27C926.259 197.447 931.447 195.266 936.919 193.381C990.338 176.018 1050.18 215.174 1091.82 258.603C1094.62 261.392 1097.29 264.405 1099.9 267.244C1138.32 308.377 1171.65 356.536 1218.85 386.808C1303.08 440.791 1411.54 420.423 1484.9 365.321C1558.39 309.995 1604.38 227.019 1647.03 145.901" stroke="white" stroke-width="0.2" stroke-miterlimit="10"/>
<path d="M-72.0175 922.905C-68.7419 852.089 -64.8366 778.85 -33.9594 718.037C-3.0822 657.224 62.743 612.635 128.239 631.863C203.12 653.75 242.289 741.719 294.164 805.378C364.884 891.952 474.901 940.319 577.451 930.018C680.001 919.717 771.996 850.851 814.245 752.975C869.095 625.945 840.309 471.946 856.05 330.403C862.782 269.692 884.588 202.76 938.517 184.506C991.546 166.501 1050.77 204.892 1091.57 250.051C1132.43 295.383 1165.48 350.364 1215.18 383.698C1298.34 439.289 1406.89 416.647 1479.6 356.849C1552.14 297.101 1596.91 207.527 1639.63 120.205" stroke="white" stroke-width="0.2" stroke-miterlimit="10"/>
</svg>
