<svg width="1440" height="814" viewBox="0 0 1440 814" fill="none" xmlns="http://www.w3.org/2000/svg">
<g clip-path="url(#clip0_11_83)">
<path d="M-93.2134 643.853C-82.3434 725.948 7.35068 790.231 79.8927 767.779C131.542 751.654 165.703 702.306 194.002 654.2C221.153 608.098 246.903 559.946 284.302 523.199C321.701 486.452 374.026 462.269 426.223 474.296C532.446 498.593 581.008 649.01 683.701 690.588C767.48 724.452 857.578 670.541 903.636 594.857C949.693 519.172 964.37 425.53 988.606 337.685C1012.84 249.84 1051.97 160.322 1127.8 119.157C1197.76 81.112 1285.58 92.307 1364.25 118.959C1552.07 182.783 1667.59 167.03 1758.23 355.882" stroke="white" stroke-width="0.2" stroke-miterlimit="10"/>
<path d="M-92.083 648.227C-87.3977 684.233 -66.4902 716.513 -39.3084 738.628C-4.83258 766.789 39.9057 779.936 79.3439 766.618C115.596 754.367 142.665 725.344 165.514 692.049C174.27 679.137 182.456 665.633 190.282 652.228C200.657 634.37 210.979 616.34 222.051 598.853C239.45 571.374 258.378 545.721 281.527 524.34C290.028 516.371 299.331 509.119 309.308 502.804C342.6 481.436 382.18 470.515 421.828 480.381C431.289 482.644 440.165 486.193 448.838 490.36C489.393 510.284 521.635 548.434 554.394 587.003C591.509 630.931 628.983 674.759 678.542 693.511C696.653 700.51 715.049 703.306 733.168 702.618C798.206 700.418 859.878 654.35 895.373 595.262C900.83 586.259 905.823 577.009 910.351 567.513C944.496 497.551 958.394 416.12 979.938 339.327C1000.17 267.206 1031 194.035 1084 148.298C1095.12 138.671 1107.25 130.451 1120.16 123.516C1189.99 87.004 1276.82 100.72 1355.35 124.976C1547.19 184.692 1670.42 176.37 1761.61 366.382" stroke="white" stroke-width="0.2" stroke-miterlimit="10"/>
<path d="M-90.897 652.772C-86.0317 688.729 -64.3821 720.242 -37.2827 741.442C-3.09925 767.998 40.8069 779.688 78.8508 765.63C114.121 752.712 140.133 723.418 162.21 690.149C170.786 677.287 178.792 663.832 186.438 650.476C196.813 632.619 207.135 614.589 218.312 597.448C236.048 570.438 255.471 545.773 278.627 525.702C287.286 518.252 296.514 511.395 306.236 505.526C339.175 485.567 378.044 476.155 416.897 486.615C426.23 489.1 434.926 492.699 443.419 496.916C483.36 517.384 515.37 555.41 547.971 593.461C585.288 636.77 623.422 678.917 672.793 696.409C690.927 702.839 709.038 705.339 727.052 704.305C791.363 700.994 851.799 654.705 886.934 595.716C892.211 586.763 897.204 577.513 901.731 568.017C935.337 498.204 949.393 417.291 971.147 341.19C991.664 269.365 1023.12 196.96 1076.38 152.088C1087.55 142.634 1099.55 134.637 1112.8 128.17C1182.51 93.191 1268.71 109.33 1346.79 131.461C1542.95 186.797 1673.59 186.178 1765.32 377.352" stroke="white" stroke-width="0.2" stroke-miterlimit="10"/>
<path d="M-89.7642 657.146C-84.9514 692.93 -62.4547 724.022 -35.3628 743.912C-1.23931 768.985 41.4749 779.316 78.3568 764.642C112.645 751.058 137.6 721.493 159.137 688.373C167.48 675.388 175.307 661.983 182.953 648.627C193.148 630.82 203.523 612.963 214.805 596.167C232.698 569.675 252.616 545.999 275.959 527.188C284.543 520.134 293.748 513.845 303.628 508.495C336.267 490.118 374.551 481.992 412.483 493.269C421.508 496.026 430.204 499.625 438.518 503.891C477.791 524.732 509.441 562.857 542.245 600.289C579.764 642.981 618.611 683.619 667.562 699.727C685.538 705.638 703.492 707.62 721.273 706.462C784.805 701.866 844.003 655.356 878.599 596.517C883.876 587.563 888.689 578.363 893.216 568.867C926.515 499.327 940.495 418.81 962.407 343.227C983.261 271.872 1015.05 199.935 1068.68 156.274C1079.96 147.166 1092.01 139.342 1105.13 133.098C1174.72 99.651 1260.12 118.263 1337.87 138.046C1538.23 189.225 1676.58 196.036 1768.56 388.644" stroke="white" stroke-width="0.2" stroke-miterlimit="10"/>
<path d="M-88.6309 661.52C-83.8181 697.303 -60.5793 727.628 -33.5699 746.604C0.313751 770.243 41.9634 778.995 77.6835 763.704C110.81 749.503 134.94 719.791 155.705 686.697C163.869 673.761 171.462 660.232 178.981 647.099C188.996 629.341 199.371 611.484 210.938 594.985C229.116 568.79 249.454 546.497 272.932 528.773C281.673 522.238 290.804 516.345 300.429 511.44C332.948 494.596 370.287 487.855 407.424 499.725C416.27 502.533 424.838 506.354 432.792 510.72C471.451 532.104 502.74 570.329 535.515 607.02C573.289 649.266 612.562 688.1 661.506 702.898C679.325 708.29 697.174 709.926 714.798 708.25C777.602 702.542 835.744 655.762 869.619 597.12C874.717 588.217 879.529 579.017 884.057 569.52C916.816 500.129 930.826 420.353 953.255 345.19C974.447 274.304 1006.81 202.96 1060.7 160.164C1072.03 151.228 1084.19 143.75 1097.18 137.729C1166.71 105.988 1251.36 126.677 1328.72 144.507C1533.82 191.381 1679.4 205.944 1771.86 399.54" stroke="white" stroke-width="0.2" stroke-miterlimit="10"/>
<path d="M-87.3223 665.844C-82.382 701.405 -58.5285 731.185 -31.4741 749.024C2.34951 771.18 42.9347 778.351 77.4928 762.443C109.637 747.576 132.711 717.594 152.936 684.648C160.74 671.812 168.333 658.283 175.62 645.027C185.635 627.269 196.062 609.585 207.681 593.259C226.017 567.582 246.85 546.278 270.516 529.814C279.181 523.675 288.469 518.3 298.02 513.791C330.239 498.529 366.813 493.123 403.208 505.761C411.927 508.791 420.315 512.662 428.141 517.25C466.185 539.179 497.063 577.33 529.859 613.453C567.836 655.081 607.769 692.233 656.526 705.771C674.187 710.644 691.931 711.934 709.27 709.961C771.115 703.019 828.199 655.968 861.535 597.476C866.633 588.572 871.266 579.421 875.666 570.148C907.885 500.905 922.053 421.648 944.639 347.004C966.116 276.414 998.919 205.886 1053.07 163.954C1064.45 155.192 1076.66 147.886 1089.76 142.211C1159.22 112.175 1243.19 135.114 1320.05 150.647C1529.47 193.141 1682.28 215.457 1775.11 410.263" stroke="white" stroke-width="0.2" stroke-miterlimit="10"/>
<path d="M-86.1895 670.217C-81.2492 705.778 -56.6011 734.964 -29.5542 751.493C3.97707 772.043 43.6027 777.979 76.9464 761.282C108.108 745.749 130.178 715.669 149.578 682.576C157.149 669.616 164.563 656.137 171.902 643.054C181.737 625.346 192.164 607.662 203.941 591.854C222.614 566.647 243.762 546.38 267.615 531.177C276.438 525.556 285.471 520.627 294.947 516.513C326.866 502.833 362.676 498.764 398.456 511.946C406.994 515.025 415.076 519.168 422.902 523.757C460.151 546.28 490.796 584.308 523.848 619.985C562.079 661.168 602.492 696.688 651.009 708.792C668.513 713.147 686.152 714.091 703.386 711.772C764.504 703.719 820.351 656.447 853.147 598.103C858.245 589.199 862.878 580.049 867.098 570.825C899.01 501.855 913.102 422.993 935.899 349.041C957.713 278.92 990.906 209.034 1045.55 168.091C1056.99 159.501 1069.12 152.591 1082.32 147.262C1151.66 118.758 1234.96 143.948 1311.41 157.528C1525.52 195.543 1685.56 225.611 1778.76 421.628" stroke="white" stroke-width="0.2" stroke-miterlimit="10"/>
<path d="M-85.0547 674.59C-80.167 709.979 -54.7242 738.571 -27.5799 754.136C5.89139 773.203 44.2727 777.608 76.402 760.121C106.402 743.972 127.414 713.621 146.455 680.627C153.846 667.717 161.08 654.287 168.187 641.081C178.022 623.373 188.322 605.911 200.331 590.227C219.162 565.539 240.983 546.21 264.844 532.317C273.592 527.092 282.783 522.682 292.236 519.136C323.855 507.039 358.901 504.304 393.939 518.253C402.35 521.556 410.251 525.748 417.897 530.386C454.532 553.454 484.817 591.581 517.839 626.517C556.273 667.081 597.345 700.92 645.674 711.764C663.073 715.773 680.555 716.198 697.504 713.583C757.842 704.245 812.453 656.752 844.889 598.508C849.807 589.654 854.44 580.504 858.66 571.28C890.032 502.458 904.282 424.116 927.288 350.855C949.387 281.031 983.203 211.91 1037.93 171.881C1049.42 163.464 1061.66 156.9 1074.73 151.794C1143.95 124.823 1226.74 152.212 1302.57 163.717C1521.49 197.03 1688.44 235.124 1782.19 432.302" stroke="white" stroke-width="0.2" stroke-miterlimit="10"/>
<path d="M-83.9268 678.964C-78.9116 714.129 -52.8017 742.35 -25.8448 756.654C7.38664 774.288 44.8833 777.063 75.8507 758.96C104.817 741.971 124.877 711.695 143.145 678.728C150.357 665.867 157.358 652.314 164.337 639.33C173.992 621.672 184.525 604.333 196.586 588.822C215.754 564.603 237.943 546.485 261.939 533.68C270.665 529.023 279.78 525.008 289.158 521.859C320.478 511.343 354.939 509.894 389.055 524.66C397.158 528.235 405.059 532.428 412.578 537.288C448.598 560.9 478.651 598.904 511.695 633.271C550.384 673.391 591.937 705.598 640.258 715.132C657.68 718.572 674.876 718.701 691.541 715.79C751.151 705.34 804.525 657.626 836.422 599.531C841.34 590.677 845.792 581.576 850.013 572.352C881.077 503.803 895.253 425.856 918.596 353.065C941.032 283.71 975.238 215.231 1030.41 176.017C1041.95 167.773 1054.24 161.382 1067.24 156.671C1136.39 131.406 1218.58 160.65 1294.06 170.375C1517.79 198.987 1691.66 245.105 1785.78 443.494" stroke="white" stroke-width="0.2" stroke-miterlimit="10"/>
<path d="M-82.792 683.337C-77.7768 718.503 -51.1047 746.006 -23.9228 759.124C9.06866 775.325 45.5534 776.692 75.3063 757.799C103.29 740.144 122.293 709.598 139.969 676.606C146.948 663.622 153.59 650.168 160.749 637.135C170.352 619.303 180.757 602.188 192.976 587.195C212.481 563.445 234.985 546.365 258.988 534.869C267.819 530.559 276.912 527.113 286.215 524.358C317.415 515.375 350.931 515.312 384.252 530.672C392.176 534.296 399.95 538.711 407.109 543.671C442.514 567.828 472.155 605.758 505.221 639.557C544.112 679.058 586.325 709.583 634.459 717.858C651.723 720.779 668.814 720.562 685.321 717.132C744.153 705.398 796.29 657.463 827.646 599.516C832.384 590.712 836.837 581.611 841.057 572.387C871.582 503.987 885.915 426.559 909.468 354.459C932.062 285.623 967.017 217.687 1022.5 179.511C1034.09 171.44 1046.31 165.445 1059.54 160.857C1128.58 137.124 1210.21 168.396 1285.11 176.219C1513.66 200.129 1694.63 254.222 1789.11 453.821" stroke="white" stroke-width="0.2" stroke-miterlimit="10"/>
<path d="M-81.6611 687.711C-76.6983 722.703 -49.2316 749.613 -21.9523 761.766C10.9267 776.311 46.2195 776.32 74.8105 756.811C101.812 738.49 119.811 707.846 136.715 674.879C143.514 661.945 149.976 648.541 156.955 635.557C166.378 617.775 176.835 600.833 189.287 585.964C208.897 562.56 231.948 546.641 256.139 536.405C264.947 532.663 274.145 529.563 283.193 527.254C314.041 519.68 346.845 521.125 379.424 537.252C387.22 541.099 394.634 545.613 401.793 550.573C436.584 575.274 465.812 613.131 499.081 646.311C538.175 685.194 580.919 714.261 628.813 721.102C645.92 723.504 662.906 722.941 679.129 719.215C737.233 706.37 788.133 658.214 818.95 600.416C823.688 591.612 827.96 582.561 832.001 573.386C862.039 505.308 876.476 428.226 900.187 356.645C923.065 288.105 958.41 220.812 1014.21 183.673C1025.91 175.948 1038.18 170.126 1051.33 165.934C1120.25 143.733 1201.32 177.032 1275.65 182.952C1509.26 201.715 1696.95 264.452 1791.93 465.039" stroke="white" stroke-width="0.2" stroke-miterlimit="10"/>
<path d="M-80.5283 692.085C-75.3856 727.028 -47.3042 753.392 -20.0324 764.236C12.6067 777.348 47.015 775.726 74.444 755.6C100.284 736.663 117.405 705.698 133.77 672.881C140.156 659.873 146.618 646.469 153.597 633.485C162.84 615.753 173.477 598.761 186.034 584.238C205.981 561.303 229.347 546.422 253.726 537.446C262.639 534.05 271.634 531.568 280.84 529.778C311.387 523.786 343.479 526.74 375.391 543.238C383.008 547.135 390.294 551.872 397.326 557.054C431.322 582.349 460.318 620.083 493.609 652.695C532.958 691.133 576.129 718.394 624.016 723.925C640.965 725.809 657.847 724.9 673.964 720.828C731.289 706.698 780.952 658.321 811.229 600.673C815.787 591.918 820.06 582.867 824.1 573.692C853.778 505.713 868.013 429.249 892.114 358.311C915.33 290.24 951.244 223.539 1007.36 187.438C1019.11 179.886 1031.43 174.237 1044.51 170.44C1113.36 149.945 1194.01 185.049 1267.63 189.289C1506.18 203.128 1700.84 274.063 1796.01 475.91" stroke="white" stroke-width="0.2" stroke-miterlimit="10"/>
<path d="M-79.3945 696.458C-74.3044 731.228 -45.4283 756.998 -18.239 766.928C14.1602 778.606 47.504 775.404 73.7711 754.662C98.6289 735.058 114.566 704.045 130.338 671.204C136.545 658.245 142.774 644.718 149.626 631.957C158.869 614.225 169.379 597.455 182.04 583.278C202.145 560.862 226.006 546.969 250.571 539.254C259.462 536.426 268.51 534.117 277.513 532.945C307.761 528.535 339.268 532.775 370.258 550.09C377.747 554.209 384.854 558.996 391.705 564.228C425.087 590.068 453.903 627.851 487.164 659.721C526.715 697.541 570.599 723.294 618.246 727.392C635.09 728.93 651.814 727.502 667.646 723.133C724.244 707.892 772.67 659.294 802.408 601.795C806.966 593.04 811.238 583.989 815.099 574.864C844.237 507.034 858.682 431.262 883.067 360.619C906.621 293.018 942.925 226.959 999.305 191.723C1011.1 184.344 1023.59 179.213 1036.49 175.466C1105.06 155.985 1185.25 193.462 1258.35 195.973C1501.92 204.492 1703.29 284.07 1799.01 487.078" stroke="white" stroke-width="0.2" stroke-miterlimit="10"/>
<path d="M-78.2671 700.831C-73.1769 735.601 -43.6862 760.828 -16.3245 769.397C15.8349 779.642 48.1141 774.86 73.2193 753.501C97.0426 733.058 111.975 701.948 127.155 669.082C133.13 656 139.232 642.696 145.851 629.811C154.914 612.129 165.424 595.359 178.37 581.478C198.813 559.531 223.251 547.541 247.689 540.048C256.452 537.443 265.53 535.875 274.638 535.049C304.586 532.222 335.328 537.797 365.524 555.707C372.705 560.098 379.812 564.885 386.304 570.216C419.07 596.6 447.474 634.309 480.758 665.611C520.511 702.813 564.875 726.934 612.514 729.722C629.201 730.741 645.768 728.794 661.495 724.08C717.313 707.555 764.502 658.735 793.88 601.335C798.438 592.58 802.531 583.579 806.391 574.454C835.222 506.896 849.592 431.52 874.188 361.569C898.026 294.264 934.952 228.97 991.595 194.599C1003.45 187.393 1015.8 182.485 1028.99 179.034C1097.59 161.605 1177.2 200.367 1249.65 201.371C1498.24 204.571 1706.33 292.791 1802.41 497.01" stroke="white" stroke-width="0.2" stroke-miterlimit="10"/>
<path d="M-77.1343 705.205C-71.9167 739.752 -41.8112 764.434 -14.4045 771.867C17.4625 780.506 48.9621 774.439 72.8529 752.29C95.6941 731.181 109.622 699.973 124.03 667.133C129.825 654.101 135.694 640.673 142.366 627.961C151.429 610.279 161.991 593.682 174.99 579.974C195.59 558.546 220.313 546.852 245.148 541.312C254.121 539.398 263.072 538.053 271.925 537.672C301.521 536.254 331.551 543.338 361.004 562.014C368.006 566.455 374.805 571.514 381.297 576.845C413.449 603.774 441.44 641.409 474.927 672.093C514.935 708.85 559.778 731.34 607.177 732.694C623.707 733.194 640.169 730.901 655.611 725.891C710.649 708.081 756.834 659.164 785.44 601.789C789.818 593.084 793.911 584.083 797.591 575.008C825.882 507.599 840.41 432.741 865.215 363.482C889.391 296.646 926.707 231.995 983.844 198.612C995.748 191.579 1008.15 186.844 1021.32 183.961C1089.63 168.114 1168.99 208.632 1240.73 207.956C1494.41 205.44 1709.32 302.65 1805.77 508.079" stroke="white" stroke-width="0.2" stroke-miterlimit="10"/>
<path d="M-75.9468 709.751C-70.7292 744.299 -39.8292 768.386 -12.3775 774.682C19.2496 781.888 49.6848 774.24 72.4136 751.475C94.0929 729.749 107.144 698.221 121.012 665.53C126.627 652.548 132.317 639.169 138.756 626.334C147.639 608.701 158.201 592.105 171.357 578.916C192.295 557.957 217.332 547.3 242.355 543.02C251.253 541.502 260.181 540.726 269.192 540.864C298.488 541.028 327.754 549.447 356.412 568.718C363.286 573.381 369.906 578.49 376.27 584.044C407.627 611.566 435.386 649.079 468.895 679.194C509.106 715.332 554.609 736.141 601.873 736.408C618.245 736.389 634.602 733.75 649.76 728.443C704.018 709.349 749.019 660.384 777.085 603.159C781.463 594.453 785.376 585.502 789.056 576.426C816.86 509.339 831.493 434.828 856.455 366.088C880.968 299.721 918.854 235.662 976.074 203.193C988.03 196.333 1000.54 191.944 1013.58 189.284C1081.82 175.143 1160.52 217.342 1231.79 215.109C1491.04 206.556 1712.65 312.977 1809.65 519.568" stroke="white" stroke-width="0.2" stroke-miterlimit="10"/>
<path d="M-74.6348 714.075C-69.4697 748.45 -37.9549 771.993 -10.4583 777.152C20.749 782.973 50.4795 773.646 71.8665 750.314C92.5638 727.922 104.558 696.123 117.706 663.631C122.909 650.575 128.598 637.197 134.91 624.584C143.614 607.001 154.228 590.577 167.617 577.511C188.659 556.898 214.244 547.403 239.454 544.383C248.33 543.434 257.363 543.003 266.119 543.586C295.114 545.332 323.796 555.038 351.712 575.075C358.406 579.788 364.898 585.12 371.083 590.723C401.825 618.79 429.352 656.179 462.936 685.899C503.401 721.592 549.384 740.769 596.588 739.553C613.035 739.138 628.875 736.08 644.108 730.378C697.639 710.172 741.35 660.813 768.876 603.736C773.074 595.081 776.987 586.129 780.72 577.227C808.164 510.239 822.774 436.296 848.127 368.198C872.924 302.128 911.253 238.884 968.915 207.23C980.976 200.716 993.54 196.5 1006.63 194.013C1074.75 181.404 1152.97 225.235 1223.77 221.446C1487.29 207.03 1715.77 322.613 1812.95 530.464" stroke="white" stroke-width="0.2" stroke-miterlimit="10"/>
<path d="M-73.5044 718.449C-68.2119 752.601 -36.2099 775.822 -8.48836 779.794C22.4791 784.183 51.1451 773.275 71.55 749.276C91.2128 726.045 102.075 694.371 114.759 661.632C119.781 648.626 125.239 635.124 131.55 622.512C140.254 604.929 150.868 588.505 164.362 575.785C185.741 555.641 211.641 547.183 237.039 545.424C246.019 544.821 255.03 544.959 263.711 545.937C292.354 549.093 320.323 560.307 347.498 581.111C354.064 586.047 360.196 591.477 366.201 597.13C396.329 625.742 423.496 663.23 457.05 692.209C497.717 727.284 544.232 745.001 591.197 742.352C607.487 741.419 623.221 738.015 638.117 731.843C690.868 710.353 733.395 660.946 760.381 604.018C764.579 595.363 768.312 586.461 772.046 577.558C798.95 510.719 813.717 437.295 839.227 369.716C864.362 304.115 903.208 241.291 961.057 210.898C973.171 204.556 985.607 200.563 998.801 198.422C1066.8 187.345 1144.6 232.981 1214.74 227.685C1483.53 207.504 1718.76 332.472 1816.49 541.484" stroke="white" stroke-width="0.2" stroke-miterlimit="10"/>
<path d="M-72.3711 722.822C-67.0785 756.974 -34.2819 779.601 -6.5679 782.264C24.2121 785.392 51.7611 772.73 71.0041 748.115C89.505 724.268 99.49 692.273 111.454 659.733C116.244 646.603 121.574 633.324 127.706 620.761C136.229 603.228 146.897 586.977 160.495 574.603C182.212 554.929 208.427 547.508 234.012 547.009C242.917 546.801 251.905 547.508 260.691 548.832C289.035 553.57 316.239 566.119 342.619 587.518C348.878 592.726 355.01 598.157 360.888 604.032C390.221 633.238 417.155 670.603 450.912 698.963C491.782 733.42 538.956 749.456 585.734 745.547C601.866 744.095 617.495 740.344 632.286 733.827C684.363 711.399 725.548 661.425 752.174 604.596C756.192 595.99 760.105 587.038 763.659 578.186C790.255 511.619 804.768 438.64 830.668 371.703C856.088 306.398 895.376 244.389 953.667 214.811C965.834 208.643 978.375 204.995 991.494 203.25C1059.37 193.706 1136.69 240.973 1206.18 234.17C1479.9 207.756 1721.93 342.28 1820.21 552.453" stroke="white" stroke-width="0.2" stroke-miterlimit="10"/>
<path d="M-71.2412 727.196C-66.0011 761.175 -32.5898 783.257 -4.65092 784.733C25.8892 786.428 52.3737 772.186 70.4024 746.781C87.9212 722.267 96.9017 690.175 108.273 657.611C112.884 644.531 117.981 631.129 123.933 618.615C132.456 601.082 142.944 584.88 156.827 572.803C178.701 553.647 205.411 547.215 231.183 547.976C240.246 548.287 249.159 549.389 257.69 551.159C285.914 557.429 312.174 571.364 337.811 593.53C343.891 598.787 349.896 604.44 355.593 610.366C384.311 640.116 411.013 677.357 444.612 705.199C485.737 739.21 533.392 753.615 580.109 748.222C596.136 746.424 611.609 742.155 626.114 735.342C677.231 711.679 717.412 661.607 743.499 604.927C747.517 596.321 751.25 587.419 754.623 578.616C780.68 512.198 795.35 439.738 821.407 373.32C846.985 308.534 887.022 247.068 945.449 218.577C957.668 212.582 970.314 209.28 983.305 207.758C1051.06 199.746 1127.85 248.472 1196.79 240.509C1475.4 207.686 1724.27 351.941 1822.92 563.325" stroke="white" stroke-width="0.2" stroke-miterlimit="10"/>
<path d="M-70.1099 731.569C-64.6899 765.498 -30.6639 787.037 -2.85993 787.425C27.2604 787.736 53.0403 771.814 69.7271 745.843C86.2115 720.49 94.1873 688.3 104.787 655.761C109.218 642.73 114.135 629.378 120.035 616.692C128.378 599.208 139.098 583.13 153.033 571.225C175.245 552.539 202.269 547.145 228.229 549.166C237.217 549.873 246.055 551.37 254.796 553.832C282.668 561.511 308.215 576.954 333.058 599.714C339.01 605.194 344.835 610.897 350.352 616.872C378.456 647.167 404.746 684.334 438.547 711.558C479.875 744.951 528.061 757.897 574.719 751.021C590.588 748.704 605.956 744.09 620.176 736.98C670.567 712.206 709.458 661.74 735.005 605.209C739.023 596.603 742.576 587.75 745.95 578.948C771.519 512.852 786.347 440.91 812.741 374.962C838.656 310.645 879.083 249.821 937.952 222.145C950.223 216.323 962.922 213.194 976.018 212.017C1043.66 205.538 1119.96 255.896 1188.26 246.426C1471.68 207.023 1727.7 361.305 1826.66 573.726" stroke="white" stroke-width="0.2" stroke-miterlimit="10"/>
<path d="M-68.9771 735.943C-63.6095 769.699 -28.9163 790.866 -0.939949 789.894C28.993 788.946 53.6559 771.27 69.3607 744.632C84.6831 718.663 91.6021 686.202 101.842 653.763C105.86 640.658 110.778 627.306 116.55 614.842C124.713 597.408 135.485 581.503 149.526 569.944C171.895 551.777 199.541 547.148 225.561 550.652C234.474 551.754 243.47 553.771 251.956 556.678C279.528 565.939 304.49 582.668 328.591 606.195C334.364 611.725 339.881 617.7 345.451 623.848C372.76 654.737 398.817 691.781 432.641 718.436C474.171 751.211 523.07 762.648 569.307 754.389C585.02 751.554 600.282 746.593 614.398 739.137C664.008 713.078 701.715 662.564 726.722 606.183C730.56 597.626 734.114 588.774 737.487 579.971C762.697 513.974 777.502 442.601 804.106 377.344C830.306 313.324 871.176 253.315 930.487 226.455C942.81 220.805 955.434 218.072 968.583 217.068C1036.15 212.294 1111.75 264.161 1179.62 253.307C1467.88 207.325 1730.8 371.509 1830.12 585.142" stroke="white" stroke-width="0.2" stroke-miterlimit="10"/>
<path d="M-67.8442 740.316C-62.4767 774.073 -27.1688 794.695 1.03237 792.537C30.7254 790.155 54.3239 770.898 68.8667 743.644C83.1546 716.835 89.1215 684.45 98.5893 652.036C102.427 638.982 106.932 625.556 112.884 613.042C121.048 595.608 131.64 579.753 145.966 568.49C168.62 550.619 196.633 547.201 222.841 551.966C231.911 553.586 240.832 555.998 249.243 559.301C276.462 569.972 300.765 588.382 324.019 612.33C329.664 618.083 335.001 624.107 340.211 630.354C366.906 661.788 392.731 698.709 426.397 724.845C468.182 757.175 517.56 766.98 563.79 757.411C579.398 754.229 594.45 748.577 608.281 740.825C657.165 713.655 693.582 662.747 718.05 606.514C721.888 597.958 725.261 589.155 728.634 580.352C753.357 514.677 768.267 443.65 795.029 378.912C821.565 315.361 863.005 255.945 922.451 230.171C934.88 224.868 947.556 222.307 960.63 221.699C1028.08 218.458 1103.14 271.784 1170.42 259.595C1463.39 206.687 1733.5 381.072 1833.2 595.915" stroke="white" stroke-width="0.2" stroke-miterlimit="10"/>
<path d="M-66.7119 744.69C-61.2169 778.223 -25.2419 798.474 2.95187 795.006C32.4575 791.364 54.9389 770.354 68.3198 742.483C81.4458 715.058 86.5357 682.352 95.4637 650.087C99.0694 636.909 103.447 623.706 109.22 611.242C117.203 593.857 128.028 578.125 142.406 567.036C165.217 549.684 193.726 547.253 220.12 553.279C229.116 555.295 238.014 558.275 246.35 561.973C273.269 574.226 296.808 593.972 319.32 618.687C324.605 624.539 329.995 630.737 335.025 637.034C360.977 669.234 386.57 706.032 420.386 731.376C462.373 763.089 512.284 771.435 558.454 760.383C573.904 756.683 588.851 750.684 602.577 742.586C650.681 714.132 686.094 663.126 710.022 607.042C713.68 598.535 717.053 589.733 720.427 580.93C744.609 515.404 759.677 444.896 786.828 380.8C813.703 317.718 855.532 258.944 915.42 233.986C927.901 228.855 940.63 226.468 953.809 226.205C1021.14 224.497 1095.67 279.281 1162.39 265.932C1459.86 205.974 1737.22 390.731 1837.46 606.735" stroke="white" stroke-width="0.2" stroke-miterlimit="10"/>
<path d="M-65.5796 749.063C-60.1371 782.424 -23.4424 802.476 4.69137 797.525C33.7772 792.499 55.5539 769.809 67.7729 741.322C79.9168 713.231 84.0022 680.427 92.1056 648.015C95.5314 634.887 99.6768 621.56 105.269 609.146C113.2 591.588 123.897 576.079 138.433 565.508C161.581 548.625 190.405 547.233 216.987 554.518C226.087 556.88 234.963 560.429 243.277 564.696C270.076 578.481 292.67 599.613 314.44 625.095C319.597 631.169 324.627 637.466 329.657 643.763C354.995 676.507 380.176 713.232 414.014 738.008C456.384 769.052 506.437 775.297 552.757 763.455C568.154 759.581 582.892 752.891 596.333 744.496C643.71 714.931 677.833 663.531 701.221 607.596C704.827 598.916 708.253 590.287 711.266 581.583C735.089 516.156 749.954 446.266 777.443 382.64C804.602 319.854 847.054 261.845 907.024 237.802C919.558 232.844 932.212 230.852 945.443 230.763C1012.66 230.587 1086.47 286.88 1152.96 272.097C1455.04 204.868 1739.51 400.22 1840.12 617.434" stroke="white" stroke-width="0.2" stroke-miterlimit="10"/>
<path d="M-64.4463 753.436C-59.0038 786.797 -21.5145 806.255 6.6643 800.167C35.5627 793.881 56.2225 769.438 67.2795 740.334C78.2091 711.453 81.2899 678.552 89.0335 646.239C92.047 633.037 96.1924 619.71 101.837 607.469C109.588 589.961 120.338 574.624 135.106 564.177C158.592 547.763 187.73 547.408 214.5 555.954C223.578 558.885 232.378 562.83 240.617 567.491C267.064 582.686 289.126 605.276 309.921 631.402C314.951 637.699 319.801 644.046 324.704 650.565C349.427 683.854 374.375 720.455 408.288 744.836C450.86 775.262 501.836 780.69 547.526 766.772C562.713 762.207 577.399 755.344 590.735 746.603C637.332 715.753 670.27 664.306 693.119 608.52C696.545 599.89 699.971 591.26 702.984 582.556C726.32 517.451 741.29 447.907 768.989 384.972C796.485 322.656 839.274 265.117 899.792 242.234C912.378 237.449 925.085 235.63 938.241 235.937C1005.33 237.293 1078.62 295.045 1144.5 278.928C1450.98 204.304 1742.97 410.324 1843.94 628.75" stroke="white" stroke-width="0.2" stroke-miterlimit="10"/>
<path d="M-63.3159 757.81C-57.7459 790.948 -19.7993 809.343 8.58179 802.637C37.5027 795.782 56.8357 768.894 66.7307 739.173C76.6782 709.626 78.7021 676.454 85.7261 644.34C88.5596 631.187 92.5251 617.91 97.9374 605.546C105.688 588.038 116.438 572.701 131.311 562.6C154.954 546.705 184.767 547.289 211.492 556.971C220.675 560.248 229.4 564.588 237.617 569.819C263.764 586.596 285.061 610.521 305.294 637.365C310.144 643.711 314.867 650.28 319.41 656.899C343.338 690.782 368.234 727.21 401.99 751.072C444.764 780.88 496.271 784.85 541.902 769.448C557.112 764.315 571.512 757.155 584.511 747.946C630.381 715.984 662.03 664.143 684.339 608.505C687.765 599.875 691.011 591.295 694.024 582.591C717 517.586 731.948 448.61 759.804 386.194C787.638 324.347 830.996 267.4 891.596 245.432C904.235 240.82 917.047 239.347 930.075 239.876C996.995 242.592 1070.35 304.447 1135.14 284.698C1442.95 191.337 1745.9 420.01 1847.37 639.424" stroke="white" stroke-width="0.2" stroke-miterlimit="10"/>
<path d="M-61.9492 762.307C-56.4318 795.272 -17.6081 813.987 10.5556 805.279C39.0792 796.472 57.5051 768.522 66.4181 738.135C75.1512 707.798 76.403 674.652 82.7822 642.341C85.4359 629.238 89.169 615.838 94.4539 603.696C102.025 586.237 112.827 571.074 127.985 561.269C151.966 545.843 182.041 547.292 209.005 558.408C218.166 562.253 226.997 566.939 234.958 572.614C260.933 590.751 281.338 616.235 300.776 643.672C305.499 650.241 309.862 656.91 314.404 663.528C337.538 698.006 362.201 734.31 396.16 757.554C439.189 786.917 491.356 789.205 536.746 772.371C551.852 766.891 566.095 759.212 578.808 749.707C623.899 716.461 654.364 664.571 676.133 609.083C679.379 600.503 682.625 591.922 685.691 583.392C708.179 518.708 723.232 450.078 751.478 388.305C779.596 326.754 823.397 270.622 884.492 249.642C897.184 245.203 910.1 244.076 923.233 244.951C990.086 249.372 1062.6 311.648 1127.04 291.43C1439.36 193.64 1749.02 429.646 1850.86 650.27" stroke="white" stroke-width="0.2" stroke-miterlimit="10"/>
<path d="M-60.8218 766.681C-55.3044 799.646 -15.6336 817.94 12.5226 807.922C40.8588 797.855 58.1677 768.15 65.9188 737.147C73.6699 706.144 73.6847 672.777 79.5243 640.615C81.9455 627.389 85.5512 614.211 90.7836 601.896C98.1749 584.487 108.977 569.324 124.24 559.865C148.325 544.785 178.948 547.394 206.1 559.77C215.365 563.962 223.993 569.266 232.112 575.46C257.787 595.179 277.428 621.998 296.124 650.203C300.487 656.871 304.902 663.712 309.317 670.554C331.836 705.576 356.087 741.807 390.068 764.482C433.3 793.227 485.999 794.056 531.15 775.788C546.097 769.79 560.235 761.765 572.844 751.914C617.207 717.556 646.383 665.273 667.612 609.933C670.858 601.353 673.924 592.822 676.99 584.292C698.939 519.757 714.202 451.819 742.553 390.391C770.828 329.359 815.379 273.77 876.737 253.655C889.48 249.389 902.269 248.485 915.508 249.705C982.24 255.659 1053.52 317.714 1118.12 298.015C1437.13 200.439 1752.01 439.504 1854.22 661.339" stroke="white" stroke-width="0.2" stroke-miterlimit="10"/>
<path d="M-59.6885 771.054C-53.9911 803.97 -13.6532 821.89 14.4431 810.391C42.5393 798.891 58.7838 767.606 65.373 735.986C71.9621 704.367 71.1524 670.852 76.3997 638.666C81.647 606.479 94.6155 574.036 120.68 558.41C153.364 538.896 197.87 551.92 229.4 578.083C260.929 604.246 282.354 641.444 304.259 677.011C326.163 712.577 350.002 748.734 384.185 770.791C441.96 808.269 516.945 794.515 567.088 753.502C617.411 712.44 646.909 649.009 668.498 584.573C690.14 520.311 705.327 452.769 733.888 392.032C762.449 331.296 807.442 276.523 869.062 257.272C946.409 233.307 1032.24 329.207 1109.22 304.031C1432.38 198.937 1755.13 449.14 1857.7 672.185" stroke="white" stroke-width="0.2" stroke-miterlimit="10"/>
<path d="M-60.1841 770.066C-54.6367 799.274 -15.7081 813.837 12.793 801.1C40.3945 788.611 57.1037 757.573 64.6224 726.446C69.9822 704.912 71.8637 682.838 74.6747 661.258C75.8291 651.568 77.2684 642.174 79.2999 632.804C85.4842 602.421 98.7227 572.153 124.72 558.232C147.509 545.947 175.74 549.029 201.655 561.184C212.6 566.411 223.192 573.048 232.608 580.946C264.242 607.455 286.747 644.355 309.393 679.155C328.014 707.755 348 736.353 373.63 757.209C379.372 761.997 385.369 766.341 391.801 770.189C450.183 805.812 524.854 791.02 574.914 749.093C585.776 739.911 595.731 729.667 604.884 718.707C637.351 679.198 658.61 629.098 674.975 578.288C695.867 513.482 710.484 445.347 738.295 384.068C766.137 323.531 810.125 268.66 871.1 249.212C877.704 247.203 884.339 245.934 891.003 245.408C957.57 240.536 1029.21 306.99 1094.63 299.624C1099.51 299.025 1104.3 298.08 1108.97 296.79C1179.03 275.774 1248.82 271.888 1316.95 279.892C1430.66 293.503 1539.09 339.87 1629.11 402.002C1729.62 471.735 1807.8 561.687 1850.15 647.28" stroke="white" stroke-width="0.2" stroke-miterlimit="10"/>
<path d="M-60.6792 769.077C-55.2293 794.751 -17.71 805.954 10.911 791.685C38.0177 778.208 55.1917 747.416 63.8724 716.906C69.8769 695.569 72.7404 674.162 76.6909 653.766C78.415 644.669 80.1391 635.571 82.3805 626.893C89.5019 598.313 103.063 570.393 128.888 557.832C151.504 546.906 179.405 550.829 205.013 563.256C216.01 568.656 226.475 575.515 235.943 583.587C267.863 610.392 291.034 646.921 314.475 681.126C333.891 709.132 354.798 736.914 380.938 756.879C386.808 761.445 392.932 765.565 399.492 769.191C458.66 802.91 533.017 787.081 582.762 744.116C593.572 734.761 603.474 724.344 612.395 713.261C644.472 673.109 665.214 622.59 681.241 571.31C701.563 505.912 715.071 437.334 742.673 375.363C769.614 315.074 812.905 259.833 873.288 240.361C879.84 238.178 886.474 236.91 893.139 236.383C959.189 231.092 1030.38 296.731 1094.96 291.096C1099.72 290.72 1104.33 289.825 1109 288.534C1177.84 269.918 1246.43 267.862 1313.64 276.682C1426.22 291.729 1534.82 335.426 1624.17 393.431C1723.75 458.172 1800.69 542.094 1842.92 621.533" stroke="white" stroke-width="0.2" stroke-miterlimit="10"/>
<path d="M-60.9414 768.213C-55.5889 790.352 -19.4789 798.195 9.44189 782.344C36.0539 767.879 53.6926 737.334 63.3553 707.49C70.057 686.523 74.0824 665.732 78.7601 646.448C80.8215 637.82 82.9355 629.364 85.5142 621.156C93.5726 594.379 107.403 568.633 133.16 557.778C155.657 548.384 183.176 552.975 208.529 565.848C219.399 571.47 229.916 578.502 239.384 586.574C271.408 613.725 295.247 649.882 319.843 683.394C339.873 710.855 361.702 737.82 388.352 756.895C394.349 761.239 400.601 765.137 407.108 768.589C466.831 800.281 540.873 783.414 590.408 739.757C601.166 730.229 611.016 719.639 619.884 708.383C651.571 667.59 672.028 616.774 687.358 565.124C707.111 499.134 719.869 430.013 746.721 367.499C772.71 307.285 815.229 252.069 874.968 232.401C881.519 230.218 887.974 229 894.586 228.3C960.119 222.589 1030.82 287.24 1094.56 283.336C1099.14 283.009 1103.79 282.287 1108.52 281.169C1176.26 264.729 1243.29 264.603 1309.82 274.364C1421.5 290.968 1530.04 331.872 1618.54 385.801C1717.3 445.896 1792.88 523.443 1835.18 596.678" stroke="white" stroke-width="0.2" stroke-miterlimit="10"/>
<path d="M-61.436 767.225C-56.181 785.83 -21.5328 790.14 7.7403 772.879C33.8575 757.427 52.0136 727.301 62.5533 697.778C69.9521 677.181 74.9596 657.056 80.5443 638.834C82.9431 630.674 85.5743 622.639 88.3629 615.122C97.3584 590.148 111.639 566.527 137.329 557.378C159.653 549.344 186.79 554.602 211.708 567.97C222.45 573.815 233.02 581.02 242.488 589.091C274.85 616.712 299.535 652.448 324.873 685.192C345.751 712.233 368.27 738.258 395.609 756.393C401.733 760.514 408.113 764.189 414.747 767.419C475.078 797.257 548.984 779.302 598.258 734.781C608.962 725.079 618.58 714.366 627.576 702.888C659.105 661.575 678.993 610.167 693.805 558.098C712.808 491.564 724.817 421.9 751.099 358.794C776.189 298.828 817.884 243.465 876.925 223.426C883.297 221.294 889.878 219.852 896.363 219.375C961.326 213.072 1031.81 277.031 1094.72 274.858C1099.35 274.704 1103.88 274.205 1108.43 273.137C1174.94 259.096 1240.77 260.8 1306.56 271.327C1417.12 289.367 1525.69 327.824 1613.65 377.403C1711.53 432.679 1785.82 504.024 1828.19 571.055" stroke="white" stroke-width="0.2" stroke-miterlimit="10"/>
<path d="M-61.8779 766.41C-56.7203 781.481 -23.4815 782.431 6.09147 763.588C31.7139 747.147 50.3348 717.268 61.8565 688.411C69.9525 668.184 75.942 648.725 82.3813 631.392C85.2973 623.652 88.1384 616.308 91.2643 609.26C101.197 586.09 115.747 564.644 141.317 557.027C163.469 550.353 190.276 556.452 214.939 570.264C225.733 576.283 236.123 583.537 245.644 591.782C278.111 619.748 303.643 655.063 329.956 687.164C351.628 713.61 375.069 738.818 402.738 756.113C408.99 760.011 415.497 763.464 422.079 766.521C483.196 794.454 556.608 775.511 605.567 729.952C616.219 720.078 625.784 709.192 634.547 697.59C665.687 655.636 685.11 603.981 699.585 551.442C718.071 484.489 729.097 414.159 754.99 350.41C779.18 290.693 820.05 235.183 878.446 214.947C884.818 212.814 891.22 211.423 897.832 210.723C962.458 203.951 1032.27 266.971 1094.33 266.529C1098.84 266.598 1103.37 266.098 1107.79 265.253C1173.26 253.561 1237.72 257.145 1302.57 268.489C1411.96 287.791 1520.8 323.924 1607.86 369.253C1704.87 419.711 1777.86 484.853 1820.12 545.73" stroke="white" stroke-width="0.2" stroke-miterlimit="10"/>
<path d="M-62.3701 765.422C-57.1826 776.736 -25.4281 774.722 4.26482 754.346C29.445 737.09 48.658 707.235 60.9294 678.921C69.6701 658.891 76.6941 640.272 84.0404 624C87.2938 616.729 90.5247 610.028 93.988 603.449C104.857 582.082 119.73 562.984 145.18 556.899C167.159 551.584 193.637 558.524 218.045 572.782C228.712 579.023 239.154 586.45 248.675 594.695C281.427 622.957 307.626 657.901 334.733 689.408C357.2 715.26 381.383 739.701 409.795 756.228C416.174 759.904 422.808 763.134 429.57 766.142C491.295 792.22 564.519 772.017 613.268 725.766C623.868 715.719 633.38 704.66 642.091 692.885C673.073 650.412 691.926 598.165 705.884 545.206C723.62 477.711 734.078 406.788 759.272 342.669C782.691 282.977 822.556 227.369 880.36 207.11C886.68 204.804 893.082 203.412 899.514 202.762C963.622 195.57 1033.12 257.553 1094.22 259.065C1098.72 259.134 1103.12 258.857 1107.42 258.234C1171.67 248.941 1234.69 254.232 1298.86 266.516C1407.17 287.425 1515.95 320.766 1602.52 361.918C1698.47 407.607 1770.29 466.325 1812.67 521.171" stroke="white" stroke-width="0.2" stroke-miterlimit="10"/>
<path d="M-62.686 764.384C-57.5959 772.163 -27.2507 766.79 2.74201 744.832C27.4799 726.761 47.1052 696.98 60.3586 669.332C69.7965 649.671 77.9824 631.669 86.2358 616.459C89.8265 609.658 93.5747 603.375 97.2479 597.489C109.107 578.097 124.197 561.001 149.527 556.449C171.386 552.667 197.301 560.324 221.582 574.804C232.302 581.218 242.617 588.869 252.137 597.113C284.994 625.721 312.093 660.417 340.122 691.107C363.436 716.538 388.309 740.039 417.41 755.626C423.917 759.079 430.498 762.136 437.568 764.872C499.9 789.096 572.809 767.855 621.295 720.74C631.843 710.52 641.303 699.288 649.781 687.389C680.374 644.274 698.942 591.73 712.33 538.18C729.497 470.091 739.024 398.675 763.649 333.964C786.168 274.52 825.389 218.715 882.369 198.308C888.508 196.052 894.91 194.661 901.289 193.838C964.881 186.226 1033.88 247.221 1094.14 250.463C1098.52 250.755 1102.74 250.528 1107.09 250.078C1170.12 243.184 1231.94 250.305 1295.24 263.579C1402.61 285.873 1511.24 316.817 1597.09 353.669C1692.16 394.54 1762.69 447.055 1804.95 495.747" stroke="white" stroke-width="0.2" stroke-miterlimit="10"/>
<path d="M-63.1284 763.569C-58.1358 767.814 -29.1475 759.254 1.09264 735.541C25.3882 716.654 45.4258 686.947 59.6613 659.965C69.7963 640.675 78.9642 623.338 88.1247 609.19C92.2852 602.981 96.1907 597.218 100.201 591.801C112.818 574.262 128.358 559.291 153.62 556.444C175.307 554.022 200.84 562.347 224.918 577.445C235.51 584.082 245.878 591.905 255.451 600.322C288.592 629.227 316.359 663.551 345.362 693.597C369.291 718.484 395.266 741.119 424.697 755.865C431.331 759.095 438.093 762.103 445.057 764.492C507.996 786.862 580.77 764.534 628.942 716.381C639.437 705.988 648.845 694.583 657.27 682.512C687.653 638.704 705.524 585.791 718.447 531.994C735.044 463.313 743.822 391.353 767.698 326.1C789.317 266.904 827.713 210.952 884.228 190.298C890.367 188.042 896.717 186.477 903.096 185.654C966.17 177.623 1034.68 237.63 1094.15 242.777C1098.35 243.118 1102.67 243.237 1106.84 242.836C1168.77 238.119 1229.09 247.343 1291.83 261.334C1398.07 285.063 1506.69 313.387 1592.06 346.062C1686.07 382.164 1755.48 428.427 1797.81 470.915" stroke="white" stroke-width="0.2" stroke-miterlimit="10"/>
<path d="M-63.624 762.581C-58.7288 763.292 -31.1498 751.372 -0.609844 726.076C23.0636 706.424 43.6934 676.741 59.0383 650.203C70.0504 631.233 80.0204 614.612 90.088 601.526C94.5858 595.786 98.8287 590.492 103.229 585.717C116.783 569.982 132.592 557.185 157.788 556.044C179.302 554.981 204.505 564.147 228.328 579.691C238.793 586.55 249.161 594.373 258.786 602.963C292.032 632.214 320.699 666.289 350.624 695.519C375.4 719.984 402.064 741.679 432.185 755.486C438.946 758.493 445.836 761.278 452.927 763.445C516.474 783.961 588.881 760.422 636.842 711.577C647.285 701.011 656.513 689.656 665.013 677.189C695.059 632.912 712.592 579.53 724.946 525.14C740.845 456.089 748.874 383.587 772.307 317.518C793.207 258.521 830.598 202.471 886.416 181.447C892.555 179.191 898.725 177.676 905.052 176.68C967.736 168.007 1035.8 227.198 1094.25 234.126C1098.5 234.64 1102.65 234.808 1106.69 234.631C1167.4 232.312 1226.52 243.366 1288.33 258.174C1393.45 283.338 1502.29 309.165 1586.81 337.764C1679.76 369.096 1748.05 409.108 1790.45 445.392" stroke="white" stroke-width="0.2" stroke-miterlimit="10"/>
<path d="M-63.8857 761.716C-59.088 758.893 -32.8659 743.786 -2.20597 716.958C21.0252 696.491 42.2997 667.005 58.3942 641.009C70.051 622.236 81.0031 606.282 92.0301 594.43C96.8653 589.16 101.678 584.458 106.056 580.252C120.546 566.32 136.626 555.698 161.701 556.089C182.863 556.436 207.916 566.392 231.252 582.258C241.77 589.29 252.01 597.336 261.635 605.926C295.166 635.473 324.5 669.177 355.22 697.812C380.79 721.684 408.197 742.612 438.827 755.528C445.768 758.486 452.732 760.875 459.824 763.042C523.978 781.703 596.25 757.077 643.949 707.367C654.159 696.678 663.514 685.1 671.783 672.51C701.618 627.541 718.455 573.789 730.471 518.93C745.801 449.286 753.079 376.241 775.763 309.63C795.763 250.881 832.278 194.51 887.503 173.463C893.643 171.207 899.76 169.519 905.959 168.745C968.126 159.653 1035.7 217.856 1093.36 226.688C1097.43 227.251 1101.63 227.593 1105.72 227.588C1165.21 227.668 1222.9 240.429 1284.02 256.177C1388.07 282.949 1496.84 305.983 1580.87 330.405C1672.95 356.919 1739.76 390.778 1782.23 420.858" stroke="white" stroke-width="0.2" stroke-miterlimit="10"/>
<path d="M-64.3833 760.727C-59.7356 754.197 -34.8178 736.076 -3.91049 707.493C19.0582 686.161 40.5651 656.798 57.6417 631.469C69.9956 613.066 81.9297 597.778 93.8114 586.815C98.9838 582.014 104.186 577.954 108.901 574.217C124.201 562.311 140.678 553.641 165.686 555.738C186.676 557.444 211.219 568.291 234.48 584.552C244.87 591.807 255.163 600.026 264.788 608.616C298.604 638.459 328.605 671.791 360.299 699.783C386.664 723.06 414.993 743.172 446.133 755.197C453.202 757.933 460.293 760.1 467.512 762.044C532.273 778.851 604.231 753.187 651.615 702.439C661.772 691.577 671.075 679.826 679.291 667.063C708.789 621.625 725.288 567.404 736.788 512.125C751.368 441.939 757.897 368.351 780.011 301.146C799.291 242.596 834.801 186.128 889.382 164.883C895.289 162.504 901.458 160.989 907.785 159.993C969.435 150.481 1036.51 207.696 1093.34 218.259C1097.46 218.995 1101.48 219.386 1105.44 219.604C1163.84 221.86 1220.2 236.675 1280.4 253.24C1383.32 281.446 1491.95 302.083 1575.44 322.156C1666.51 344.073 1732.16 371.507 1774.69 395.384" stroke="white" stroke-width="0.2" stroke-miterlimit="10"/>
<path d="M-64.877 759.74C-60.1468 749.626 -36.7658 728.367 -5.61105 698.029C16.9678 676.055 38.8346 646.593 56.8407 621.757C69.8918 603.724 82.808 589.102 95.7766 579.151C101.466 574.77 106.826 571.229 111.931 568.134C127.988 558.081 144.915 551.536 169.803 555.166C190.62 558.231 214.834 569.919 237.788 586.452C248.05 593.93 258.395 602.321 268.02 610.911C301.942 641.101 333.022 674.135 365.458 701.36C392.67 724.216 421.689 743.387 453.338 754.523C460.355 757.085 467.574 759.029 474.92 760.751C540.288 775.703 612.058 748.779 659.233 697.34C669.338 686.305 678.588 674.381 686.572 661.494C715.68 615.415 731.842 560.724 742.824 505.025C756.834 434.246 762.666 360.288 784.158 292.319C802.538 234.017 837.404 177.352 891.16 155.96C897.067 153.58 903.184 151.892 909.331 150.946C970.464 141.014 1037.23 197.192 1093.08 209.708C1097.08 210.667 1100.92 211.108 1104.93 211.499C1162.11 216.154 1217.09 232.848 1276.73 250.13C1378.53 279.772 1487.19 297.962 1570.14 313.685C1659.98 330.883 1724.69 352.015 1767.11 369.738" stroke="white" stroke-width="0.2" stroke-miterlimit="10"/>
<path d="M-65.1396 758.875C-60.5069 745.226 -38.3028 720.731 -7.26065 688.737C14.876 665.948 37.335 636.51 56.1432 612.39C70.0713 594.677 83.7896 580.771 97.6653 571.882C103.692 567.97 109.442 565.071 114.884 562.445C131.699 554.245 149.075 549.825 174.076 555.111C194.72 559.536 218.604 572.064 241.303 589.043C251.618 596.693 261.783 605.134 271.461 613.898C305.667 644.383 337.414 677.046 370.825 703.627C398.832 725.889 428.592 744.293 460.984 754.662C468.128 757.001 475.474 758.723 482.948 760.222C548.924 773.32 620.379 745.358 667.291 693.054C677.343 681.846 686.541 669.749 694.472 656.69C723.371 609.918 738.888 555.03 749.3 498.739C762.793 427.541 767.823 352.867 788.565 284.354C806.226 226.251 840.087 169.488 893.146 147.726C899.053 145.347 904.99 143.709 911.085 142.589C971.88 132.188 1037.92 187.254 1093.16 201.625C1096.98 202.634 1100.92 203.42 1104.76 203.861C1160.66 210.742 1214.49 229.44 1273.21 247.539C1373.94 278.788 1482.53 294.185 1564.82 305.781C1653.6 318.21 1717.19 333.091 1759.68 344.609" stroke="white" stroke-width="0.2" stroke-miterlimit="10"/>
<path d="M-65.6333 757.887C-61.098 740.704 -40.1983 713.196 -8.96119 679.274C12.7856 655.842 35.6044 626.305 55.3946 602.851C70.0199 585.508 84.7202 572.268 99.503 564.441C105.867 560.998 111.954 558.569 117.787 556.585C135.485 550.015 153.184 547.943 178.065 554.761C198.537 560.545 222.038 573.742 244.535 591.338C254.722 599.211 264.94 607.826 274.67 616.762C308.981 647.593 341.576 679.835 375.781 705.822C404.583 727.49 435.265 745.077 468.167 754.555C475.438 756.672 482.964 758.344 490.566 759.621C557.148 770.864 628.289 741.865 675.066 688.473C685.066 677.092 694.031 664.872 702.09 651.59C730.651 604.349 745.778 548.819 755.725 492.281C768.469 420.54 772.749 345.324 792.922 276.218C809.863 218.313 842.667 161.28 895.314 139.444C901.041 137.114 907.105 135.254 913.2 134.135C973.425 123.141 1039.02 177.392 1093.48 193.667C1097.35 194.849 1101.11 195.685 1104.82 196.348C1159.68 205.578 1211.95 226.205 1269.93 245.072C1369.53 277.756 1477.98 290.755 1559.91 297.952C1647.69 305.786 1710.05 314.068 1752.66 319.555" stroke="white" stroke-width="0.2" stroke-miterlimit="10"/>
<path d="M-66.1255 756.899C-61.6878 736.181 -42.1449 705.486 -10.6079 669.982C10.6966 645.735 34.16 616.395 54.8274 593.261C70.1498 576.288 85.8321 563.715 101.522 556.949C108.224 553.975 114.858 552.707 120.87 550.674C138.674 544.449 157.422 545.837 182.288 554.533C202.535 561.504 225.579 575.764 247.948 593.583C258.009 601.679 268.279 610.466 278.009 619.402C312.605 650.529 345.919 682.573 381.047 707.743C410.695 728.99 442.067 745.637 475.478 754.225C482.877 756.119 490.531 757.569 498.08 758.673C565.09 768.111 636.222 737.802 682.61 683.768C692.557 672.214 701.47 659.821 709.296 646.416C737.647 598.483 752.31 542.706 761.688 485.576C773.861 413.242 777.444 337.656 796.815 267.835C812.857 210.178 844.836 152.997 896.838 130.964C902.513 128.462 908.45 126.824 914.492 125.531C974.2 114.118 1039.48 167.331 1092.92 185.387C1096.61 186.618 1100.42 187.627 1104.01 188.513C1157.59 199.969 1208.72 222.6 1265.77 242.283C1364.43 276.352 1472.74 286.955 1553.95 289.852C1640.66 292.916 1701.92 294.946 1744.41 294.28" stroke="white" stroke-width="0.2" stroke-miterlimit="10"/>
<path d="M-66.5718 756.084C-62.284 731.659 -43.8131 698.073 -12.2611 660.691C8.65359 635.802 32.4768 606.362 54.1262 583.895C70.0933 567.119 86.7577 555.211 103.407 549.681C110.678 547.299 117.26 545.858 123.819 544.986C143.033 542.121 161.578 544.127 186.376 554.528C206.272 562.909 229.166 577.96 251.28 596.224C261.393 604.493 271.303 613.379 281.266 622.439C315.966 653.912 350.307 685.485 386.177 709.888C416.44 730.59 448.787 746.594 482.835 754.068C490.362 755.74 498.143 756.967 505.819 757.848C573.489 765.606 644.254 734.085 690.506 678.964C700.401 667.237 709.262 654.671 717.088 641.266C745.102 592.864 759.195 536.495 768.235 478.895C779.659 406.019 782.672 329.84 801.473 259.426C816.795 201.968 847.77 144.689 899.127 122.46C904.802 119.957 910.687 118.146 916.549 116.903C975.74 105.07 1040.52 157.296 1093.18 177.255C1096.92 178.66 1100.55 179.718 1104.19 180.777C1156.55 194.632 1206.3 219.143 1262.66 239.766C1360.25 275.443 1468.36 283.475 1549.21 281.973C1634.74 280.491 1695.01 276.047 1737.57 269.176" stroke="white" stroke-width="0.2" stroke-miterlimit="10"/>
<path d="M-66.8848 755.046C-62.6945 727.087 -45.4005 690.265 -13.961 651.226C6.74381 625.646 30.747 596.157 53.3784 574.355C70.2226 557.9 87.689 546.708 105.373 542.016C112.982 540.104 119.953 539.305 126.85 538.902C146.768 537.717 165.816 542.021 190.494 553.955C210.217 563.696 232.781 579.587 254.461 598.346C264.446 606.837 274.408 615.897 284.551 624.907C319.537 656.676 354.545 687.877 391.389 711.637C422.447 731.745 455.536 746.982 490.094 753.566C497.748 755.015 505.476 756.069 513.28 756.727C581.557 762.63 652.135 729.85 697.997 674.086C707.84 662.187 716.648 649.448 724.242 635.919C752.046 586.825 765.674 530.209 774.197 472.19C785.051 398.721 787.367 322.172 805.366 251.043C819.968 193.783 850.118 136.357 900.651 113.98C906.146 111.527 912.031 109.716 918.073 108.424C976.926 96.122 1040.98 147.235 1092.85 169.099C1096.41 170.553 1099.92 171.835 1103.61 173.066C1154.88 189.098 1203.24 215.488 1258.92 237.051C1355.38 274.163 1463.53 279.748 1543.66 273.947C1628.19 267.868 1687.28 256.999 1729.91 243.925" stroke="white" stroke-width="0.2" stroke-miterlimit="10"/>
<path d="M-67.3257 754.231C-63.2328 722.738 -47.2432 682.901 -15.6088 641.935C4.70617 615.712 29.3016 586.247 52.6301 564.816C70.1715 548.73 88.6199 538.204 107.211 534.574C115.157 533.132 122.646 532.752 129.752 533.041C150.375 533.536 170.053 539.915 194.536 553.777C214.266 564.828 236.141 581.659 257.693 600.641C267.55 609.355 277.566 618.587 287.708 627.597C322.799 659.712 358.706 690.665 396.293 713.658C428.198 733.345 462.156 747.592 497.224 753.285C505.005 754.512 512.862 755.344 520.793 755.779C589.677 759.828 659.94 726.009 705.72 669.332C715.51 657.259 724.266 644.347 731.807 630.646C759.221 580.91 772.332 523.874 780.517 465.386C790.855 391.497 792.369 314.232 809.617 242.56C823.5 185.499 852.593 127.802 902.481 105.228C907.976 102.775 913.808 100.791 919.671 99.549C978.007 86.827 1041.75 136.903 1092.65 160.72C1096.08 162.397 1099.64 163.851 1103.1 164.96C1153.14 183.39 1200.13 211.661 1255.07 233.991C1350.46 272.71 1458.46 275.898 1538.23 265.698C1621.58 255.073 1679.68 237.729 1722.2 218.501" stroke="white" stroke-width="0.2" stroke-miterlimit="10"/>
<path d="M-67.8203 753.243C-63.645 718.166 -48.9598 675.315 -17.258 632.643C2.79465 605.556 27.6225 576.214 51.933 555.449C70.1716 539.733 89.602 529.874 109.1 527.306C117.383 526.332 125.21 526.422 132.706 527.353C154.266 529.651 174.213 538.205 198.577 553.6C218.082 565.837 239.679 583.682 260.976 603.109C270.887 611.995 280.774 621.45 290.917 630.46C326.292 662.872 362.867 693.453 401.428 715.802C434.128 734.895 468.828 748.375 504.586 753.129C512.494 754.133 520.478 754.742 528.589 755.128C598.08 757.322 668.208 722.416 713.494 664.75C723.231 652.505 731.755 639.469 739.423 625.545C766.68 575.291 779.273 517.835 786.762 458.977C796.35 384.546 797.346 306.861 814.025 234.596C827.009 177.783 855.277 119.94 904.521 97.169C909.963 94.543 915.615 92.608 921.477 91.366C979.244 78.051 1042.67 127.09 1092.6 152.861C1096.04 154.538 1099.47 156.214 1102.8 157.545C1151.75 178.152 1197.41 208.476 1251.42 231.622C1345.69 271.777 1453.55 272.567 1532.78 258.017C1614.94 242.846 1672.06 219.028 1714.64 193.595" stroke="white" stroke-width="0.2" stroke-miterlimit="10"/>
<path d="M-68.1348 752.205C-64.057 713.593 -50.4963 667.679 -18.7794 623.129C0.883444 595.399 26.3034 566.081 51.3636 545.859C70.4792 530.464 90.8393 521.098 111.117 519.814C119.917 519.26 127.953 520.042 135.787 521.442C158.051 525.42 178.501 536.272 202.797 553.372C222.13 566.969 243.398 585.654 264.387 605.354C274.223 614.636 284.058 623.918 294.305 633.274C329.966 665.982 367.388 696.142 406.743 717.897C440.237 736.395 475.68 749.108 512 753.145C520.088 754.099 528.199 754.485 536.205 754.526C606.356 755.038 676.065 718.749 721.32 660.342C731.005 647.923 739.476 634.715 746.912 620.667C773.779 569.77 786.035 511.846 793.007 452.568C802.024 377.544 802.324 299.49 818.201 226.509C830.465 169.895 857.729 111.953 906.327 88.985C911.77 86.359 917.422 84.425 923.232 83.009C980.481 69.275 1043.41 117.326 1092.56 145.001C1095.87 146.9 1099.3 148.577 1102.5 150.13C1150.23 173.136 1194.51 205.34 1247.78 229.253C1340.97 271.015 1448.88 269.359 1527.51 250.287C1608.67 230.519 1664.61 200.276 1707.09 168.69" stroke="white" stroke-width="0.2" stroke-miterlimit="10"/>
<path d="M-68.5781 751.39C-64.5977 709.244 -52.2139 660.094 -20.6095 613.887C-1.15664 585.466 24.4433 556.098 50.433 536.37C70.2458 521.344 91.5879 512.644 112.773 512.422C121.911 512.337 130.284 513.588 138.508 515.63C161.656 521.239 182.556 534.216 206.837 553.195C225.998 568.151 246.703 587.554 267.67 607.822C277.378 617.326 287.266 626.781 297.513 636.137C333.278 669.191 371.547 698.93 411.698 720.091C446.039 738.168 482.171 749.941 519.181 753.038C527.397 753.77 535.455 753.983 543.769 753.751C614.347 752.459 684.1 715.032 729.093 655.76C738.726 643.169 747.144 629.787 754.528 615.567C781.005 564.028 792.796 505.857 799.378 445.937C807.646 370.37 807.376 291.723 822.503 218.199C834.047 161.784 860.307 103.744 908.441 80.53C913.703 77.953 919.303 75.846 925.112 74.43C982.025 60.227 1044.41 107.117 1092.59 136.746C1095.89 138.645 1099.2 140.544 1102.27 142.32C1148.73 167.552 1191.86 201.759 1244.39 226.44C1336.46 269.637 1444.27 265.756 1522.32 242.161C1602.52 217.971 1657.24 181.13 1699.79 143.339" stroke="white" stroke-width="0.2" stroke-miterlimit="10"/>
<path d="M-69.0747 750.402C-65.2442 704.549 -53.9324 652.508 -22.3131 604.423C-3.24997 575.36 22.8897 545.843 49.8615 526.781C70.3714 512.125 92.6955 504.091 114.967 504.882C124.443 505.266 133.333 506.937 141.767 509.67C165.853 517.082 187.022 532.234 211.183 552.745C230.119 568.888 250.547 589.305 271.259 610.018C281.019 619.696 290.78 629.373 301.027 638.729C337.077 672.079 376.066 701.62 417.139 721.963C452.274 739.447 489.381 750.576 526.668 752.659C535.011 753.168 543.197 753.159 551.458 752.754C622.696 749.78 692.082 711.143 736.76 650.833C746.16 638.119 754.706 624.515 761.858 610.171C788.177 558.113 799.399 499.35 805.516 439.183C813.267 363.196 812.247 284.006 826.572 209.767C837.449 153.723 862.831 95.363 910.088 71.828C915.351 69.252 920.95 67.144 926.528 65.606C982.923 50.983 1044.99 96.835 1092.38 128.368C1095.56 130.489 1098.69 132.438 1101.99 134.338C1147.36 161.745 1188.98 198.055 1240.77 223.503C1331.77 268.308 1439.62 261.98 1517.07 233.863C1596.14 205.299 1649.59 161.687 1692.43 117.816" stroke="white" stroke-width="0.2" stroke-miterlimit="10"/>
<path d="M-69.5146 749.587C-65.7817 700.199 -55.5944 645.095 -23.96 595.132C-5.10683 565.376 21.2652 535.983 49.1141 517.241C70.5011 502.906 93.5747 495.415 116.806 497.44C126.799 498.244 135.899 500.606 144.67 503.809C169.64 512.851 191.312 530.301 215.226 552.567C233.989 570.07 254.087 591.327 274.492 612.313C284.125 622.213 293.938 632.063 304.185 641.419C340.34 675.115 380.176 704.235 422.223 723.935C458.153 740.824 496.002 751.186 533.979 752.329C542.45 752.616 550.763 752.384 559.204 751.929C631.049 747.101 700.248 707.204 744.716 646.202C754.064 633.314 762.557 619.538 769.656 605.021C795.586 552.321 806.523 493.261 812.07 432.502C819.071 355.972 817.481 276.19 831.237 201.358C841.394 145.512 865.719 86.882 912.384 63.323C917.646 60.747 923.014 58.516 928.824 57.101C984.701 42.058 1046.22 86.749 1092.83 120.186C1095.88 122.53 1099.06 124.652 1102.18 126.601C1146.32 156.408 1186.75 194.548 1237.61 220.812C1327.49 267.052 1435.25 258.5 1512.11 225.86C1590.17 192.7 1642.45 142.664 1685.18 92.638" stroke="white" stroke-width="0.2" stroke-miterlimit="10"/>
<path d="M-69.8315 748.549C-66.196 695.627 -56.9533 637.41 -25.4313 585.791C-7.02048 555.22 19.7639 525.901 48.4148 507.874C70.499 493.909 94.5548 487.084 118.641 489.998C128.971 491.271 138.409 494.103 147.569 497.948C173.244 508.67 195.366 528.245 219.212 552.217C237.803 571.079 257.391 593.227 277.541 614.657C287.047 624.78 296.859 634.631 307.159 644.159C343.599 678.152 384.282 706.85 427.124 725.956C463.848 742.251 502.44 751.846 541.106 752.049C549.704 752.113 558.145 751.659 566.713 750.981C639.166 744.299 708.049 703.364 752.255 641.498C761.55 628.437 769.811 614.537 777.038 599.797C802.81 546.578 812.997 486.976 818.027 425.797C824.459 348.675 822.352 268.473 835.125 192.975C844.563 137.328 867.884 78.6 913.904 54.844C918.934 52.144 924.354 50.086 930.111 48.498C985.419 32.863 1046.63 76.516 1092.32 112.079C1095.37 114.424 1098.42 116.769 1101.42 118.94C1144.46 150.923 1183.38 191.166 1233.5 218.197C1322.13 266.094 1430.1 255.046 1506.37 217.884C1583.49 180.3 1634.54 123.666 1677.34 67.437" stroke="white" stroke-width="0.2" stroke-miterlimit="10"/>
<path d="M-70.3267 747.561C-66.6088 691.055 -58.6704 629.824 -27.3134 576.376C-8.93244 545.064 18.0842 515.868 47.6647 498.335C70.4461 484.739 95.4839 478.581 120.477 482.556C131.144 484.299 141.099 487.55 150.47 492.087C177.082 504.612 199.653 526.312 223.252 552.039C241.85 572.211 260.929 595.249 280.772 616.952C290.15 627.297 300.015 637.321 310.315 646.85C346.86 681.188 388.39 709.465 432.026 727.977C469.598 743.851 509.058 752.456 548.054 751.818C556.78 751.66 565.401 751.156 573.864 750.133C646.976 741.769 715.673 699.573 759.563 636.669C768.806 623.435 777.015 609.362 784.009 594.5C809.391 540.639 819.294 480.74 823.806 419.142C829.668 341.427 826.864 260.855 838.835 184.641C847.554 129.192 869.87 70.367 915.245 46.414C920.275 43.714 925.643 41.483 931.22 39.944C986.19 23.84 1046.9 66.505 1091.57 103.85C1094.5 106.417 1097.55 108.761 1100.42 111.155C1142.24 145.537 1179.78 187.66 1229.34 215.409C1316.84 264.741 1424.91 251.418 1500.4 209.783C1576.57 167.777 1626.4 104.545 1669.09 42.162" stroke="white" stroke-width="0.2" stroke-miterlimit="10"/>
<path d="M-70.7671 746.746C-67.1466 686.706 -60.1528 622.361 -28.9607 567.085C-10.9696 535.131 16.4594 506.008 46.917 488.795C70.5754 475.52 96.3628 469.904 122.315 475.115C133.5 477.277 143.665 481.22 153.373 486.226C180.869 500.381 203.763 524.429 227.294 551.862C245.721 573.393 264.469 597.272 284.057 619.42C293.488 629.938 303.225 640.184 313.578 649.886C350.407 684.521 392.604 712.426 437.215 730.294C475.582 745.574 515.785 753.413 555.47 751.835C564.144 751.503 572.892 750.777 581.663 749.481C655.382 739.263 723.711 695.857 767.392 632.261C776.582 618.854 784.738 604.608 791.68 589.573C816.852 535.02 826.057 474.751 830.232 412.683C835.397 334.599 832.023 253.434 843.373 176.455C851.371 121.205 872.863 62.232 917.413 38.132C922.443 35.432 927.631 33.251 933.336 31.489C987.789 14.966 1048.13 56.42 1091.89 95.891C1094.81 98.458 1097.74 101.025 1100.48 103.642C1141.39 140.15 1177.25 184.425 1226.11 213.114C1312.41 264.277 1420.7 248.457 1495.55 202.127C1570.76 155.698 1619.37 85.868 1662.12 17.28" stroke="white" stroke-width="0.2" stroke-miterlimit="10"/>
<path d="M-71.0835 745.708C-67.6129 681.96 -61.6911 614.725 -30.484 557.57C-12.7028 524.924 15.086 495.702 46.3457 479.205C70.7013 466.3 97.6507 461.301 124.51 467.573C136.032 470.205 146.535 474.617 156.632 480.265C185.066 496.224 208.357 522.223 231.641 551.411C249.842 574.129 268.133 599.072 287.646 621.615C296.949 632.356 306.74 642.775 317.092 652.477C354.027 687.457 397.303 715.065 442.656 732.166C481.817 746.852 522.762 753.923 563.01 751.628C571.811 751.074 580.687 750.125 589.405 748.656C663.836 736.929 731.925 692.09 775.344 627.629C784.482 614.05 792.585 599.631 799.294 584.472C824.13 529.45 832.997 468.712 836.603 406.052C841.198 327.375 837.254 245.618 847.674 168.145C855.133 113.044 875.388 53.85 919.474 29.503C924.504 26.803 929.639 24.449 935.163 22.737C989.099 5.794 1049.13 46.21 1091.87 87.462C1094.66 90.252 1097.41 92.869 1100.2 95.658C1139.84 134.393 1174.54 180.671 1222.49 210.177C1307.85 262.724 1416.04 244.681 1490.35 194.001C1564.61 143.148 1612 66.721 1654.82 -8.071" stroke="white" stroke-width="0.2" stroke-miterlimit="10"/>
<path d="M-71.5767 744.72C-68.2036 677.438 -63.2263 607.09 -32.3116 548.329C-14.7403 514.991 13.4608 485.843 45.6501 469.839C70.7553 457.477 98.6342 452.971 126.401 460.305C138.26 463.405 149.279 468.237 159.587 474.577C188.905 492.166 212.699 520.464 235.735 551.407C253.944 575.435 271.725 601.268 290.931 624.083C300.107 635.047 309.897 645.466 320.302 655.34C357.521 690.617 401.465 717.853 447.793 734.311C487.748 748.403 529.615 754.657 570.373 751.471C579.301 750.695 588.304 749.523 597.202 748.005C672.241 734.424 740.015 688.546 783.119 623.048C792.204 609.295 800.255 594.704 806.912 579.372C831.537 523.658 839.888 462.5 843.029 399.594C846.874 320.373 842.593 238.147 852.031 160.008C858.822 105.279 878.02 45.814 921.461 21.27C926.259 18.447 931.447 16.266 936.919 14.381C990.338 -2.982 1050.18 36.174 1091.82 79.603C1094.62 82.392 1097.29 85.405 1099.9 88.244C1138.32 129.377 1171.65 177.536 1218.85 207.808C1303.08 261.791 1411.54 241.423 1484.9 186.321C1558.39 130.995 1604.38 48.019 1647.03 -33.099" stroke="white" stroke-width="0.2" stroke-miterlimit="10"/>
<path d="M-72.0176 743.905C-68.742 673.089 -64.8367 599.85 -33.9595 539.037C-3.08228 478.224 62.7429 433.635 128.239 452.863C203.12 474.75 242.289 562.719 294.164 626.378C364.884 712.952 474.901 761.319 577.451 751.018C680.001 740.717 771.996 671.851 814.245 573.975C869.095 446.945 840.309 292.946 856.05 151.403C862.782 90.692 884.588 23.76 938.517 5.506C991.546 -12.499 1050.77 25.892 1091.57 71.051C1132.43 116.383 1165.48 171.364 1215.18 204.698C1298.34 260.289 1406.89 237.647 1479.6 177.849C1552.14 118.101 1596.91 28.527 1639.63 -58.795" stroke="white" stroke-width="0.2" stroke-miterlimit="10"/>
</g>
<defs>
<clipPath id="clip0_11_83">
<rect width="1440" height="814" fill="white"/>
</clipPath>
</defs>
</svg>
