<svg width="11" height="12" viewBox="0 0 11 12" fill="none" xmlns="http://www.w3.org/2000/svg">
<path d="M2.28745 5.29417C3.12745 6.945 4.48078 8.2925 6.13161 9.13833L7.41495 7.855C7.57245 7.6975 7.80578 7.645 8.00995 7.715C8.66328 7.93083 9.36911 8.0475 10.0924 8.0475C10.4133 8.0475 10.6758 8.31 10.6758 8.63083V10.6667C10.6758 10.9875 10.4133 11.25 10.0924 11.25C4.61495 11.25 0.175781 6.81083 0.175781 1.33333C0.175781 1.0125 0.438281 0.75 0.759115 0.75H2.80078C3.12161 0.75 3.38411 1.0125 3.38411 1.33333C3.38411 2.0625 3.50078 2.7625 3.71661 3.41583C3.78078 3.62 3.73411 3.8475 3.57078 4.01083L2.28745 5.29417Z" fill="#FFC72C"/>
</svg>
