<svg width="20" height="21" viewBox="0 0 20 21" fill="none" xmlns="http://www.w3.org/2000/svg">
<path d="M12.5 15.9167C10.4083 15.9167 8.6 14.7333 7.7 13H12.5V11.3333H7.15C7.10833 11.0583 7.08333 10.7833 7.08333 10.5C7.08333 10.2167 7.10833 9.94167 7.15 9.66667H12.5V8H7.7C8.6 6.26667 10.4167 5.08333 12.5 5.08333C13.8417 5.08333 15.075 5.575 16.025 6.39167L17.5 4.91667C16.175 3.725 14.4167 3 12.5 3C9.23333 3 6.46667 5.09167 5.43333 8H2.5V9.66667H5.05C5.01667 9.94167 5 10.2167 5 10.5C5 10.7833 5.01667 11.0583 5.05 11.3333H2.5V13H5.43333C6.46667 15.9083 9.23333 18 12.5 18C14.425 18 16.175 17.275 17.5 16.0833L16.0167 14.6083C15.075 15.425 13.85 15.9167 12.5 15.9167Z" fill="#98774A"/>
</svg>
