<svg width="20" height="21" viewBox="0 0 20 21" fill="none" xmlns="http://www.w3.org/2000/svg">
<path d="M7.5013 10.292C6.9263 10.292 6.45964 10.7587 6.45964 11.3337C6.45964 11.9087 6.9263 12.3753 7.5013 12.3753C8.0763 12.3753 8.54297 11.9087 8.54297 11.3337C8.54297 10.7587 8.0763 10.292 7.5013 10.292ZM12.5013 10.292C11.9263 10.292 11.4596 10.7587 11.4596 11.3337C11.4596 11.9087 11.9263 12.3753 12.5013 12.3753C13.0763 12.3753 13.543 11.9087 13.543 11.3337C13.543 10.7587 13.0763 10.292 12.5013 10.292ZM10.0013 2.16699C5.4013 2.16699 1.66797 5.90033 1.66797 10.5003C1.66797 15.1003 5.4013 18.8337 10.0013 18.8337C14.6013 18.8337 18.3346 15.1003 18.3346 10.5003C18.3346 5.90033 14.6013 2.16699 10.0013 2.16699ZM10.0013 17.167C6.3263 17.167 3.33464 14.1753 3.33464 10.5003C3.33464 10.2587 3.3513 10.017 3.3763 9.78366C5.34297 8.90866 6.9013 7.30033 7.71797 5.30866C9.2263 7.44199 11.7096 8.83366 14.518 8.83366C15.168 8.83366 15.793 8.75866 16.393 8.61699C16.568 9.20866 16.668 9.84199 16.668 10.5003C16.668 14.1753 13.6763 17.167 10.0013 17.167Z" fill="#98774A"/>
</svg>
