<svg width="1440" height="795" viewBox="0 0 1440 795" fill="none" xmlns="http://www.w3.org/2000/svg">
<g opacity="0.3">
<path d="M-105.882 602.849C-94.3508 685.124 -4.21955 750.337 68.0666 728.569C119.533 712.931 153.256 663.869 181.132 615.994C207.879 570.114 233.209 522.168 270.27 485.751C307.331 449.334 359.406 425.636 411.65 438.18C517.966 463.532 567.712 614.557 670.643 657.17C754.616 691.879 844.183 638.793 889.575 563.487C934.967 488.18 948.863 394.595 972.355 306.906C995.847 219.216 1034.21 129.996 1109.63 89.5296C1179.2 52.1296 1267.03 64.1869 1345.83 91.6276C1533.99 157.334 1649.26 142.687 1741.36 332.591" stroke="white" stroke-width="0.2" stroke-miterlimit="10"/>
<path d="M-104.716 607.238C-99.7406 643.322 -78.5896 675.835 -51.2537 698.233C-16.5816 726.756 28.2199 740.349 67.5099 727.402C103.626 715.491 130.431 686.704 152.984 653.601C161.625 640.763 169.692 627.325 177.401 613.984C187.619 596.211 197.784 578.265 208.702 560.869C225.858 533.533 244.558 508.041 267.508 486.865C275.935 478.972 285.17 471.803 295.086 465.58C328.169 444.515 367.621 433.969 407.31 444.229C416.78 446.586 425.676 450.224 434.375 454.479C475.053 474.815 507.575 513.313 540.618 552.235C578.055 596.563 615.851 640.795 665.514 660.046C683.664 667.227 702.065 670.204 720.16 669.691C785.116 668.121 846.349 622.61 881.325 563.812C886.703 554.854 891.615 545.644 896.061 536.184C929.6 466.49 942.817 385.119 963.711 308.465C983.333 236.475 1013.54 163.536 1066.11 118.273C1077.13 108.744 1089.18 100.635 1102.02 93.8185C1171.49 57.9512 1258.35 72.5234 1336.99 97.5633C1529.13 159.197 1652.17 152.063 1744.82 343.135" stroke="white" stroke-width="0.2" stroke-miterlimit="10"/>
<path d="M-103.495 611.799C-98.3397 647.836 -76.4536 679.588 -49.2076 701.07C-14.8406 727.982 29.1176 740.109 67.0086 726.407C102.138 713.82 127.885 684.752 149.667 651.667C158.129 638.877 166.017 625.487 173.546 612.194C183.764 594.421 193.929 576.475 204.954 559.427C222.452 532.564 241.654 508.065 264.622 488.2C273.211 480.828 282.374 474.054 292.039 468.274C324.781 448.617 363.534 439.574 402.435 450.42C411.779 452.999 420.495 456.685 429.015 460.988C469.083 481.863 501.373 520.235 534.254 558.636C571.888 602.348 610.329 644.903 659.795 662.89C677.963 669.502 696.077 672.181 714.064 671.321C778.284 668.63 838.28 622.886 872.898 564.185C878.097 555.274 883.008 546.065 887.454 536.604C920.455 467.054 933.834 386.204 954.943 310.244C974.852 238.553 1005.68 166.387 1058.52 121.992C1069.6 112.637 1081.53 104.749 1094.71 98.4058C1164.07 64.0713 1250.32 81.0624 1328.49 103.971C1524.92 161.263 1655.42 161.911 1748.63 354.15" stroke="white" stroke-width="0.2" stroke-miterlimit="10"/>
<path d="M-102.328 616.188C-97.2267 652.051 -74.4978 683.39 -47.2699 703.561C-12.9751 728.988 29.7813 739.744 66.5065 725.414C100.649 712.151 125.338 682.801 146.582 649.86C154.811 636.944 162.519 623.602 170.049 610.309C180.088 592.584 190.306 574.812 201.439 558.111C219.098 531.768 238.802 508.264 261.969 489.662C270.486 482.685 279.631 476.48 289.457 471.221C321.913 453.144 360.092 445.382 398.079 457.037C407.118 459.885 415.835 463.572 424.175 467.923C463.58 489.163 495.51 527.631 528.588 565.416C566.42 608.51 605.56 649.563 654.595 666.161C672.602 672.252 690.554 674.41 708.308 673.424C771.739 669.44 830.498 623.463 864.577 564.905C869.776 555.995 874.508 546.833 878.954 537.373C911.65 468.092 924.957 387.637 946.228 312.198C966.477 240.981 997.648 169.287 1050.87 126.107C1062.06 117.1 1074.03 109.385 1087.09 103.264C1156.34 70.4619 1241.8 89.92 1319.64 110.476C1520.22 163.647 1658.49 171.808 1751.95 365.484" stroke="white" stroke-width="0.2" stroke-miterlimit="10"/>
<path d="M-101.161 620.576C-96.06 656.439 -72.596 687.017 -45.4581 706.273C-11.4146 730.263 30.2654 739.426 65.8248 724.468C98.8019 710.576 122.665 681.071 143.138 648.149C151.188 635.28 158.663 621.813 166.067 608.741C175.927 591.064 186.145 573.291 197.565 556.89C215.511 530.847 235.646 508.731 258.956 491.219C267.635 484.763 276.708 478.953 286.283 474.137C318.632 457.593 355.879 451.209 393.077 463.451C401.936 466.347 410.528 470.255 418.509 474.701C457.304 496.481 488.876 535.044 521.918 572.087C560.001 614.738 599.553 653.989 648.57 669.275C666.415 674.846 684.259 676.656 701.852 675.149C764.547 670.047 822.248 623.788 855.61 565.422C860.63 556.56 865.362 547.398 869.808 537.937C901.966 468.8 915.309 389.088 937.1 314.074C957.69 243.329 989.435 172.235 1042.92 129.922C1054.17 121.089 1066.25 113.722 1079.18 107.821C1148.38 76.726 1233.12 98.256 1310.55 116.854C1515.83 165.761 1661.38 181.752 1755.34 376.421" stroke="white" stroke-width="0.2" stroke-miterlimit="10"/>
<path d="M-99.8159 624.917C-94.5894 660.558 -70.5158 690.597 -43.3422 708.715C-9.37077 731.22 31.2329 738.791 65.6264 723.205C97.617 708.637 120.422 678.851 140.357 646.072C148.048 633.299 155.524 619.832 162.694 606.634C172.554 588.957 182.826 571.358 194.3 555.13C212.408 529.608 233.045 508.486 256.552 492.238C265.159 486.177 274.394 480.888 283.898 476.467C315.96 461.504 352.454 456.449 388.916 469.451C397.651 472.569 406.063 476.524 413.919 481.193C452.104 503.511 483.264 541.997 516.324 578.471C554.603 620.505 594.801 658.079 643.62 672.103C661.304 677.152 679.04 678.615 696.346 676.809C758.073 670.461 814.715 623.921 847.539 565.699C852.559 556.837 857.112 547.723 861.432 538.484C893.052 469.491 906.557 390.299 928.509 315.806C949.387 245.361 981.58 175.086 1035.34 133.642C1046.63 124.982 1058.77 117.789 1071.81 112.236C1140.96 82.8468 1225.03 106.622 1301.94 122.915C1511.5 167.481 1664.34 191.301 1758.68 387.186" stroke="white" stroke-width="0.2" stroke-miterlimit="10"/>
<path d="M-98.6494 629.305C-93.4229 664.947 -68.5603 694.399 -41.4049 711.206C-7.73871 732.1 31.8962 738.426 65.0701 722.037C96.0742 706.793 117.875 676.899 136.985 643.965C144.443 631.067 151.739 617.647 158.963 604.623C168.644 586.995 178.916 569.396 190.552 553.688C209 528.639 229.96 508.559 253.665 493.574C262.434 488.033 271.417 483.188 280.85 479.162C312.625 465.78 348.366 462.054 384.219 475.595C392.774 478.761 400.881 482.986 408.737 487.654C446.134 510.56 477.06 548.92 510.371 584.95C548.902 626.542 589.565 662.487 638.133 675.074C655.655 679.602 673.284 680.718 690.482 678.565C751.473 671.097 806.878 624.324 839.164 566.246C844.184 557.384 848.737 548.27 852.877 539.079C884.193 470.355 897.626 391.559 919.794 317.76C941.012 247.788 973.6 178.16 1027.86 137.71C1039.21 129.223 1051.28 122.425 1064.42 117.219C1133.46 89.3627 1216.88 115.383 1293.37 129.718C1507.58 169.847 1667.7 201.497 1762.41 398.597" stroke="white" stroke-width="0.2" stroke-miterlimit="10"/>
<path d="M-97.4827 633.694C-92.31 669.162 -66.6585 698.027 -39.4137 713.869C-5.81952 733.279 32.5597 738.06 64.5139 720.87C94.3522 704.997 115.095 674.822 133.846 641.984C141.125 629.133 148.242 615.762 155.233 602.612C164.913 584.983 175.06 567.606 186.929 552.024C205.539 527.496 227.18 508.362 250.904 494.688C259.6 489.543 268.746 485.218 278.16 481.761C309.649 469.959 344.637 467.563 379.755 481.865C388.184 485.252 396.112 489.525 403.789 494.241C440.576 517.686 471.143 556.142 504.418 591.43C543.146 632.405 584.455 666.673 632.825 677.997C650.239 682.178 667.707 682.773 684.618 680.32C744.82 671.56 798.987 624.553 830.915 566.571C835.755 557.757 840.308 548.643 844.449 539.451C875.226 470.872 888.82 392.596 911.204 319.492C932.709 249.819 965.925 180.963 1020.27 141.429C1031.68 133.116 1043.85 126.665 1056.87 121.681C1125.8 95.3576 1208.74 123.576 1284.58 135.827C1503.56 171.296 1670.66 211.046 1765.93 409.314" stroke="white" stroke-width="0.2" stroke-miterlimit="10"/>
<path d="M-96.3162 638.082C-91.018 673.328 -64.703 701.828 -37.6557 716.408C-4.31295 734.38 33.1692 737.521 63.9576 719.702C92.7555 702.98 112.548 672.871 130.528 640.05C137.627 627.248 144.511 613.751 151.377 600.823C160.878 583.242 171.257 565.99 183.18 550.582C202.131 526.527 224.149 508.608 248.017 496.024C256.695 491.447 265.769 487.518 275.112 484.456C306.314 474.235 340.729 473.12 374.932 488.23C383.057 491.887 390.984 496.16 398.536 501.098C434.713 525.081 465.047 563.412 498.34 598.131C537.319 638.663 579.094 671.302 627.445 681.315C644.878 684.927 662.058 685.223 678.682 682.471C738.148 672.591 791.078 625.351 822.468 567.513C827.308 558.698 831.682 549.633 835.823 540.441C866.295 472.131 879.818 394.251 902.542 321.62C924.388 252.419 957.999 184.21 1012.8 145.496C1024.25 137.357 1036.48 131.08 1049.43 126.49C1118.31 101.873 1200.65 131.942 1276.13 142.409C1499.88 173.219 1673.96 221.068 1769.61 420.551" stroke="white" stroke-width="0.2" stroke-miterlimit="10"/>
<path d="M-95.148 642.471C-89.8498 677.717 -62.979 705.504 -35.7168 718.898C-2.62545 735.434 33.8342 737.156 63.4029 718.535C91.2143 701.136 109.948 670.746 127.337 637.896C134.203 624.968 140.728 611.567 147.773 598.591C157.22 580.836 167.474 563.806 179.559 548.919C198.85 525.337 221.192 508.459 245.077 497.186C253.864 492.957 262.92 489.596 272.191 486.93C303.286 478.241 336.768 478.503 370.182 494.201C378.128 497.905 385.93 502.4 393.122 507.434C428.69 531.956 458.612 570.209 491.923 604.359C531.099 644.274 573.519 675.238 621.673 683.987C638.944 687.078 656.017 687.027 672.479 683.754C731.156 672.581 782.848 625.108 813.7 567.413C818.361 558.647 822.734 549.581 826.875 540.39C856.81 472.223 870.494 394.864 893.434 322.927C915.441 254.248 949.805 186.589 1004.93 148.917C1016.44 140.951 1028.6 135.069 1041.78 130.606C1110.55 107.521 1192.35 139.614 1267.24 148.171C1495.76 174.322 1676.99 230.222 1773.02 430.921" stroke="white" stroke-width="0.2" stroke-miterlimit="10"/>
<path d="M-93.9831 646.859C-88.7388 681.932 -61.0791 709.132 -33.7274 721.562C-0.76191 736.439 34.4959 736.791 62.8988 717.541C89.7237 699.466 107.454 668.968 124.071 636.136C130.757 623.256 137.103 609.903 143.969 596.975C153.237 579.268 163.545 562.411 175.862 547.65C195.261 524.415 218.159 508.705 242.242 498.695C251.011 495.035 260.174 492.021 269.195 489.798C299.949 482.517 332.733 484.282 365.412 500.74C373.232 504.666 380.675 509.256 387.868 514.29C422.826 539.352 452.335 577.526 485.843 611.06C525.216 650.358 568.156 679.867 616.058 687.179C633.168 689.749 650.133 689.351 666.308 685.779C724.25 673.486 774.705 625.78 805.018 568.229C809.679 559.463 813.874 550.445 817.835 541.301C847.285 473.452 861.078 396.44 884.179 325.024C906.473 256.644 941.232 189.632 996.675 153.002C1008.29 145.383 1020.51 139.675 1033.61 135.607C1102.28 114.055 1183.54 148.171 1257.84 154.819C1491.38 175.867 1679.4 240.484 1775.92 442.176" stroke="white" stroke-width="0.2" stroke-miterlimit="10"/>
<path d="M-92.8167 651.248C-87.393 686.272 -59.1236 712.934 -31.7902 724.052C0.923917 737.493 35.2847 736.204 62.5217 716.326C88.1808 697.622 105.032 666.796 121.111 634.107C127.385 621.149 133.731 607.796 140.597 594.868C149.685 577.209 160.173 560.305 172.598 545.891C192.338 523.129 215.559 508.461 239.839 499.714C248.716 496.401 257.682 494.004 266.864 492.302C297.332 486.601 329.416 489.869 361.431 506.692C369.072 510.666 376.39 515.479 383.457 520.734C417.626 546.382 446.903 584.431 480.428 617.396C520.052 656.251 563.404 683.957 611.288 689.958C628.236 692.008 645.094 691.262 661.162 687.343C718.314 673.757 767.531 625.818 797.307 568.411C801.788 559.692 805.983 550.674 809.944 541.531C839.036 473.778 852.631 397.382 876.126 326.613C898.762 258.706 934.095 192.293 989.861 156.704C1001.53 149.259 1013.8 143.724 1026.84 140.051C1095.45 120.206 1176.3 156.124 1249.88 161.084C1488.32 177.251 1683.36 250.141 1780.09 453.096" stroke="white" stroke-width="0.2" stroke-miterlimit="10"/>
<path d="M-91.649 655.636C-86.2792 690.487 -57.2208 716.562 -29.9773 726.764C2.48543 738.768 35.7698 735.886 61.841 715.38C86.5136 696 102.181 665.114 117.669 632.396C123.763 619.486 129.876 606.007 136.616 593.3C145.705 575.641 156.067 558.958 168.599 544.892C188.501 522.65 212.224 508.976 236.702 501.492C245.561 498.748 254.581 496.525 263.565 495.439C293.747 491.32 325.258 495.869 356.359 513.501C363.874 517.696 371.012 522.557 377.9 527.86C411.46 554.047 440.557 592.144 474.046 624.367C513.867 662.605 557.918 688.808 605.551 693.372C622.392 695.075 639.088 693.808 654.868 689.589C711.285 674.884 759.265 626.711 788.502 569.448C792.984 560.73 797.178 551.712 800.96 542.616C829.514 475.007 843.324 399.306 867.107 328.836C890.083 261.402 925.811 195.635 981.846 160.914C993.573 153.643 1006 148.629 1018.86 145.004C1087.2 126.171 1167.62 164.46 1240.67 167.684C1484.07 178.575 1685.89 260.181 1783.17 464.304" stroke="white" stroke-width="0.2" stroke-miterlimit="10"/>
<path d="M-90.4822 660.024C-85.1124 694.875 -55.4444 720.411 -28.0397 729.254C4.17156 739.821 36.3796 735.347 61.2849 714.213C84.9172 693.982 99.5802 662.989 114.476 630.241C120.338 617.205 126.324 603.948 132.832 591.115C141.741 573.505 152.103 556.822 164.923 543.054C185.165 521.286 209.481 509.521 233.833 502.259C242.566 499.737 251.622 498.256 260.715 497.517C290.61 494.978 321.367 500.857 351.679 519.076C358.89 523.541 366.028 528.401 372.557 533.8C405.507 560.527 434.192 598.546 467.699 630.2C507.717 667.821 552.234 692.396 599.849 695.648C616.528 696.83 633.062 695.042 648.735 690.477C704.362 674.478 751.105 626.072 779.984 568.905C784.465 560.187 788.48 551.217 792.263 542.121C820.511 474.781 834.25 399.476 858.248 329.7C881.512 262.565 917.867 197.571 974.172 163.718C985.952 156.62 998.254 151.828 1011.4 148.502C1079.79 131.723 1159.64 171.293 1232.02 173.002C1480.39 178.618 1689 268.939 1786.66 474.278" stroke="white" stroke-width="0.2" stroke-miterlimit="10"/>
<path d="M-89.3166 664.413C-83.8213 699.042 -53.5437 724.039 -26.1034 731.745C5.80269 740.701 37.2213 734.934 60.907 712.997C83.5528 692.091 97.2115 660.989 111.336 628.26C117.018 615.272 122.772 601.889 129.333 589.23C138.242 571.619 148.658 555.11 161.532 541.516C181.936 520.269 206.538 508.803 231.304 503.499C240.252 501.671 249.183 500.412 258.024 500.117C287.579 498.985 317.637 506.366 347.214 525.346C354.245 529.859 361.079 534.988 367.608 540.387C399.949 567.653 428.22 605.594 461.925 636.631C502.194 673.81 547.177 696.755 594.54 698.571C611.057 699.232 627.484 697.097 642.87 692.232C697.708 674.941 743.446 626.427 771.554 569.278C775.856 560.608 779.871 551.638 783.474 542.59C811.185 475.394 825.085 400.609 849.299 331.528C872.903 264.866 909.653 200.518 966.46 167.659C978.295 160.735 990.65 156.116 1003.78 153.359C1071.89 138.161 1151.5 179.486 1223.17 179.506C1476.57 179.451 1692.07 278.836 1790.1 485.389" stroke="white" stroke-width="0.2" stroke-miterlimit="10"/>
<path d="M-88.095 668.975C-82.5997 703.605 -51.5331 728.015 -24.0572 734.583C7.59753 742.102 37.9398 734.743 60.4597 712.178C81.9396 690.642 94.7195 659.212 108.306 626.626C113.809 613.686 119.383 600.351 125.711 587.567C134.441 570.004 144.857 553.495 157.892 540.422C178.637 519.647 203.562 509.224 228.525 505.183C237.402 503.75 246.315 503.059 255.318 503.285C284.586 503.734 313.892 512.445 342.679 532.011C349.585 536.746 356.24 541.923 362.643 547.544C394.195 575.396 422.233 613.212 455.955 643.68C496.422 680.242 542.05 701.511 589.27 702.237C605.625 702.377 621.945 699.895 637.044 694.731C691.092 676.146 735.647 627.573 763.216 570.568C767.518 561.897 771.354 552.975 774.957 543.928C802.184 477.049 816.192 402.612 840.567 334.051C864.512 267.862 901.836 204.113 958.733 172.17C970.621 165.42 983.084 161.148 996.086 158.613C1064.14 145.12 1143.11 188.122 1214.29 186.58C1473.22 180.536 1695.48 289.206 1794.07 496.927" stroke="white" stroke-width="0.2" stroke-miterlimit="10"/>
<path d="M-86.7489 673.316C-81.3074 707.771 -49.6312 731.642 -22.1197 737.073C9.10431 743.203 38.7289 734.155 59.9036 711.01C80.397 688.798 92.1187 657.087 104.988 624.693C110.078 611.675 115.653 598.34 121.855 585.777C130.406 568.262 140.876 551.927 154.144 538.979C174.996 518.552 200.478 509.296 225.638 506.518C234.498 505.654 243.518 505.311 252.27 505.98C281.251 508.009 309.983 518.002 338.036 538.328C344.762 543.111 351.291 548.51 357.516 554.179C388.458 582.57 416.263 620.26 450.057 650.333C490.774 686.452 536.868 706.092 584.016 705.333C600.443 705.078 616.242 702.171 631.413 696.611C684.726 676.907 727.989 627.928 755.021 571.066C759.144 562.443 762.98 553.521 766.636 544.647C793.504 477.865 807.494 403.996 832.264 336.082C856.496 270.193 894.269 207.263 951.614 176.141C963.61 169.738 976.127 165.64 989.182 163.278C1057.13 151.318 1135.64 195.949 1206.33 192.844C1469.47 180.973 1698.67 298.88 1797.46 507.864" stroke="white" stroke-width="0.2" stroke-miterlimit="10"/>
<path d="M-85.5826 677.704C-80.0156 711.939 -47.8553 735.492 -20.1288 739.737C10.8438 744.43 39.392 733.79 59.5802 709.968C79.0333 686.907 89.6252 655.309 102.028 622.664C106.939 609.694 112.281 596.233 118.483 583.671C127.033 566.156 137.503 549.82 150.879 537.22C172.072 517.265 197.877 509.051 223.235 507.537C232.202 507.02 241.205 507.245 249.885 508.309C278.526 511.746 306.559 523.241 333.876 544.329C340.477 549.333 346.648 554.828 352.693 560.544C383.025 589.475 410.472 627.261 444.229 656.591C485.144 692.093 531.758 710.278 578.654 708.083C594.92 707.307 610.611 704.052 625.441 698.02C677.964 677.023 720.044 627.983 746.538 571.266C750.661 562.643 754.317 553.769 757.974 544.895C784.304 478.256 798.455 404.908 823.387 337.516C847.959 272.099 886.252 209.594 943.795 179.735C955.845 173.506 968.237 169.629 981.399 167.614C1049.24 157.188 1127.33 203.62 1197.36 199.001C1465.72 181.412 1701.74 308.777 1801.08 518.928" stroke="white" stroke-width="0.2" stroke-miterlimit="10"/>
<path d="M-84.4155 682.093C-78.8485 716.327 -45.8992 739.293 -18.1909 742.227C12.5841 745.657 40.0021 733.251 59.0244 708.801C77.3117 685.111 87.0248 653.184 98.7105 620.73C103.388 607.635 108.604 594.396 114.627 581.881C122.998 564.414 133.522 548.252 147.006 535.999C168.54 516.518 194.668 509.345 220.223 509.094C229.118 508.972 238.103 509.767 246.891 511.178C275.245 516.195 302.525 529.02 329.054 550.694C335.35 555.968 341.52 561.463 347.44 567.401C376.983 596.918 404.197 634.578 438.152 663.292C479.264 698.178 526.523 714.686 573.221 711.227C589.325 709.931 604.909 706.329 619.631 699.949C671.473 678.006 712.208 628.386 738.343 571.764C742.286 563.19 746.122 554.268 749.599 545.442C775.625 479.072 789.525 406.168 814.851 339.421C839.711 274.304 878.452 212.62 936.444 183.58C948.548 177.525 961.047 173.995 974.138 172.376C1041.87 163.482 1119.5 211.543 1188.87 205.409C1462.1 181.628 1704.99 318.625 1804.89 529.944" stroke="white" stroke-width="0.2" stroke-miterlimit="10"/>
<path d="M-83.2484 686.481C-77.7353 720.542 -44.1764 742.969 -16.2531 744.717C14.2705 746.71 40.6121 732.712 58.4148 707.46C75.7156 683.093 84.4244 651.059 95.5183 618.576C100.017 605.528 104.999 592.163 110.843 579.697C119.214 562.23 129.559 546.115 143.329 534.162C165.025 515.201 191.655 509.022 217.408 510.035C226.465 510.434 235.378 511.623 243.915 513.478C272.162 520.027 298.51 534.23 324.303 556.665C330.42 561.986 336.465 567.703 342.205 573.689C371.139 603.745 398.119 641.279 431.913 669.472C473.275 703.915 521 718.795 567.627 713.851C583.623 712.207 599.046 708.084 613.481 701.405C664.354 678.217 704.084 628.49 729.681 572.012C733.625 563.437 737.281 554.563 740.579 545.785C766.066 479.559 780.129 407.175 805.616 340.95C830.637 276.353 870.132 215.22 928.267 187.27C940.425 181.388 953.032 178.206 965.997 176.808C1033.62 169.447 1110.73 218.963 1179.54 211.662C1457.6 181.515 1707.41 328.318 1807.69 540.852" stroke="white" stroke-width="0.2" stroke-miterlimit="10"/>
<path d="M-82.0827 690.87C-76.3903 724.882 -42.2218 746.771 -14.4422 747.429C15.6507 748.033 41.2746 732.347 57.7321 706.514C73.9925 681.298 81.697 649.156 92.0198 616.691C96.339 603.691 101.142 590.374 106.932 577.734C115.124 560.315 125.701 544.326 139.526 532.546C161.562 514.059 188.516 508.922 214.466 511.197C223.451 511.991 232.293 513.576 241.045 516.125C268.952 524.082 294.6 539.787 319.605 562.809C325.596 568.352 331.462 574.116 337.023 580.15C365.347 610.745 391.915 648.202 425.905 675.779C467.465 709.604 515.71 723.029 562.264 716.6C578.099 714.436 593.414 709.966 607.562 702.987C657.699 678.68 696.138 628.546 721.198 572.211C725.141 563.637 728.618 554.811 731.916 546.032C756.919 480.124 771.143 408.261 796.971 342.509C822.333 278.385 862.223 217.898 920.806 190.769C933.018 185.06 945.679 182.052 958.752 181.001C1026.27 175.173 1102.91 226.318 1171.06 217.502C1453.88 180.815 1710.91 337.723 1811.51 551.299" stroke="white" stroke-width="0.2" stroke-miterlimit="10"/>
<path d="M-80.9149 695.258C-75.2764 729.097 -40.4443 750.62 -12.5037 749.92C17.3917 749.26 41.8854 731.808 57.3564 705.299C72.451 679.454 79.0973 647.031 89.0614 614.662C92.9681 601.584 97.7714 588.268 103.436 575.849C111.448 558.478 122.08 542.663 136.012 531.23C158.21 513.263 185.791 508.898 211.814 512.659C220.727 513.848 229.73 515.954 238.231 518.946C265.851 528.483 290.926 545.47 315.196 569.252C321.008 574.843 326.569 580.877 332.183 587.085C359.718 618.267 386.053 655.598 420.061 682.606C461.818 715.814 510.762 727.736 556.886 719.919C572.56 717.233 587.766 712.416 601.807 705.09C651.155 679.49 688.41 629.296 712.931 573.105C716.696 564.579 720.173 555.752 723.471 546.974C748.115 481.162 762.321 409.868 788.365 344.81C814.014 280.985 854.352 221.319 913.384 195.009C925.649 189.475 938.238 186.861 951.366 185.984C1018.83 181.862 1094.77 234.51 1162.49 224.305C1450.08 181.08 1714.09 347.967 1815.07 562.759" stroke="white" stroke-width="0.2" stroke-miterlimit="10"/>
<path d="M-79.748 699.647C-74.1094 733.486 -38.6677 754.47 -10.5122 752.584C19.1318 750.488 42.5492 731.443 56.8544 704.305C70.9086 677.61 76.6044 645.254 85.7974 612.902C89.5248 599.873 93.9156 586.478 99.7593 574.011C107.772 556.64 118.224 540.873 132.443 529.74C154.928 512.072 182.886 508.923 209.106 513.947C218.181 515.657 227.113 518.158 235.542 521.545C262.822 532.49 287.252 551.153 310.678 575.348C316.365 581.161 321.746 587.243 327.002 593.546C353.927 625.267 380.029 662.473 413.876 688.96C455.884 721.725 505.294 732.018 551.399 722.89C566.965 719.857 581.956 714.345 595.71 706.72C644.323 680 680.287 629.399 704.27 573.353C708.034 564.826 711.332 556.048 714.63 547.27C738.79 481.775 753.104 410.828 779.309 346.291C805.299 282.939 846.211 223.871 905.387 198.652C917.76 193.464 930.403 191.024 943.458 190.542C1010.82 187.953 1086.24 242.056 1153.35 230.51C1445.6 180.398 1716.87 357.564 1818.22 573.571" stroke="white" stroke-width="0.2" stroke-miterlimit="10"/>
<path d="M-78.5813 704.035C-72.8173 737.653 -36.7121 758.271 -8.57481 755.074C20.8717 751.714 43.1588 730.904 56.2981 703.138C69.1865 675.815 74.0036 643.129 82.6585 610.921C86.1527 597.766 90.4181 584.593 96.0824 572.174C103.916 554.851 114.601 539.21 128.874 528.25C151.52 511.103 179.981 508.947 206.398 515.234C215.402 517.34 224.315 520.409 232.673 524.192C259.666 536.717 283.343 556.71 306.035 581.666C311.362 587.574 316.798 593.83 321.874 600.181C348.065 632.663 373.933 669.743 407.923 695.439C450.128 727.588 500.058 736.426 546.092 725.813C561.496 722.259 576.38 716.4 590.025 708.428C637.849 680.415 672.808 629.706 696.253 573.803C699.838 565.325 703.136 556.546 706.434 547.768C730.056 482.417 744.532 411.991 771.131 348.101C797.462 285.222 838.769 226.801 898.393 202.401C910.82 197.387 923.517 195.121 936.68 194.986C1003.93 193.93 1078.83 249.488 1145.38 236.774C1442.07 179.651 1720.66 367.269 1822.57 584.443" stroke="white" stroke-width="0.2" stroke-miterlimit="10"/>
<path d="M-77.4173 708.423C-71.7071 741.867 -34.8846 762.294 -6.81933 757.612C22.1964 752.864 43.7658 730.364 55.7393 701.97C67.6412 673.971 71.454 641.177 79.2839 608.814C82.5988 595.707 86.631 582.408 92.116 570.037C99.8954 552.54 110.455 537.121 124.889 526.682C147.877 510.008 176.66 508.894 203.276 516.444C212.386 518.897 221.282 522.535 229.623 526.886C256.508 540.945 279.253 562.315 301.209 588.031C306.412 594.161 311.488 600.513 316.565 606.864C342.146 639.885 367.602 676.887 401.609 702.014C444.191 733.498 494.246 740.235 540.422 728.831C555.773 725.104 570.441 718.55 583.8 710.279C630.888 681.146 664.556 630.031 687.463 574.272C690.994 565.62 694.346 557.015 697.285 548.333C720.549 483.078 734.827 413.268 761.768 349.851C788.386 287.271 830.32 229.622 890.034 206.139C902.515 201.298 915.14 199.428 928.357 199.467C995.501 199.943 1069.71 257.004 1136 242.853C1437.24 178.496 1723.02 376.788 1825.31 595.178" stroke="white" stroke-width="0.2" stroke-miterlimit="10"/>
<path d="M-76.2499 712.812C-70.5396 746.256 -32.9282 766.096 -4.82735 760.276C23.9909 754.264 44.43 729.999 55.2378 700.976C65.92 672.175 68.7284 639.274 76.1997 607.006C79.1021 593.822 83.1343 580.523 88.6732 568.326C96.2733 550.877 106.887 535.631 121.554 525.317C144.883 509.117 173.989 509.044 200.802 517.858C209.895 520.879 218.719 524.913 226.988 529.659C253.533 545.125 275.758 567.949 296.746 594.301C301.823 600.653 306.72 607.052 311.671 613.625C336.642 647.184 361.865 684.061 395.945 708.793C438.723 739.661 489.692 745.589 535.223 732.101C550.358 727.68 564.973 720.953 578.224 712.334C624.522 681.908 657.007 630.733 679.376 575.118C682.728 566.514 686.08 557.909 689.019 549.227C711.799 484.289 726.184 414.827 753.34 352.104C780.299 289.997 822.574 232.821 882.845 210.505C895.379 205.838 908.058 204.141 921.204 204.575C988.24 206.584 1061.93 265.101 1127.61 249.609C1433.17 177.892 1726.56 386.936 1829.22 606.541" stroke="white" stroke-width="0.2" stroke-miterlimit="10"/>
<path d="M-75.0822 717.2C-69.2465 750.423 -31.187 769.203 -2.88895 762.766C25.9471 756.186 45.0407 729.46 54.6826 699.809C64.3783 670.331 66.1285 637.149 72.8825 605.073C75.6056 591.936 79.4585 578.686 84.7642 566.363C92.3643 548.914 102.978 533.668 117.753 523.702C141.243 508.022 171.031 508.895 197.808 518.846C207.009 522.215 215.761 526.644 224.012 531.959C250.271 549.005 271.743 573.159 292.175 600.224C297.073 606.623 301.844 613.244 306.437 619.913C330.619 654.059 355.788 690.762 389.706 714.974C432.682 745.224 484.171 749.698 529.629 734.725C544.782 729.735 559.11 722.708 572.02 713.617C617.583 682.071 648.776 630.49 670.608 575.018C673.959 566.414 677.132 557.857 680.071 549.175C702.492 484.333 716.86 415.44 744.177 353.238C771.477 291.604 814.326 235.026 874.686 213.626C887.275 209.133 900.061 207.783 913.081 208.439C979.957 211.807 1053.75 274.431 1118.31 255.293C1425.04 164.836 1729.57 396.659 1832.74 617.257" stroke="white" stroke-width="0.2" stroke-miterlimit="10"/>
<path d="M-73.6829 721.715C-67.901 754.763 -28.9627 773.873 -0.898253 765.43C27.5249 756.892 45.7036 729.095 54.359 698.767C62.835 668.487 63.8141 635.323 69.9225 603.044C72.4662 589.955 76.0859 576.579 81.2661 564.477C88.6869 547.077 99.3542 532.004 114.416 522.337C138.247 507.13 168.304 508.872 195.333 520.26C204.516 524.198 213.376 528.974 221.376 534.732C247.474 553.137 268.067 578.842 287.711 606.494C292.482 613.114 296.896 619.831 301.488 626.5C324.881 661.234 349.817 697.811 383.932 721.405C427.159 751.213 479.293 754.01 524.5 737.6C539.546 732.262 553.712 724.715 566.335 715.324C611.108 682.486 641.118 630.845 662.411 575.517C665.584 566.961 668.756 558.404 671.749 549.895C693.686 485.371 708.162 416.825 735.874 355.269C763.46 293.935 806.758 238.177 867.621 217.771C880.263 213.452 893.157 212.449 906.285 213.452C973.107 218.527 1046.06 281.563 1110.27 261.953C1421.48 167.106 1732.77 406.333 1836.31 628.148" stroke="white" stroke-width="0.2" stroke-miterlimit="10"/>
<path d="M-72.5179 726.103C-66.736 759.152 -26.9549 777.848 1.09139 768.094C29.317 758.293 46.3655 728.729 53.855 697.773C61.3446 666.817 61.0862 633.42 66.6566 601.285C68.9672 588.07 72.4614 574.915 77.5877 562.64C84.8292 545.287 95.4965 530.215 110.666 520.895C134.605 506.035 165.218 508.944 192.444 521.596C201.735 525.881 210.398 531.273 218.559 537.552C244.37 557.538 264.211 584.573 283.119 612.985C287.533 619.701 292 626.592 296.467 633.482C319.25 668.755 343.774 705.254 377.906 728.28C421.33 757.471 473.984 758.812 518.94 740.966C533.824 735.108 547.882 727.213 560.398 717.475C604.436 683.517 633.154 631.469 653.909 576.285C657.082 567.729 660.075 559.22 663.068 550.711C684.467 486.331 699.158 418.479 726.977 357.271C754.726 296.457 798.777 241.251 859.909 221.713C872.605 217.567 885.374 216.785 898.609 218.136C965.324 224.743 1037.04 287.547 1101.41 268.457C1419.31 173.89 1735.84 416.23 1839.76 639.259" stroke="white" stroke-width="0.2" stroke-miterlimit="10"/>
<path d="M-71.3484 730.491C-65.3872 763.492 -24.9426 781.823 3.03156 770.584C31.0057 759.346 46.9779 728.191 53.3016 696.606C59.6253 665.021 58.542 631.469 63.5205 599.304C68.4991 567.139 81.1891 534.792 107.1 519.405C139.592 500.191 184.16 513.658 215.873 540.152C247.585 566.645 269.293 604.085 291.467 639.896C313.641 675.707 337.752 712.129 372.082 734.538C430.106 772.611 504.905 759.572 554.662 719.009C604.599 678.398 633.548 615.196 654.588 550.911C675.682 486.8 690.301 419.344 718.337 358.829C746.372 298.315 790.871 243.929 852.273 225.259C929.347 202.023 1015.88 298.843 1092.58 274.392C1414.56 172.34 1739.03 425.905 1843.33 650.149" stroke="white" stroke-width="0.2" stroke-miterlimit="10"/>
<path d="M-71.8523 729.497C-66.0712 758.786 -27.0621 773.74 1.30639 761.268C28.7782 749.036 45.2167 718.132 52.4731 687.05C57.6512 665.548 59.3501 643.473 61.9817 621.9C63.0556 612.212 64.4165 602.824 66.3692 593.465C72.2987 563.114 85.2761 532.947 111.134 519.266C133.799 507.191 162.028 510.549 188.016 522.968C198.993 528.306 209.629 535.051 219.1 543.048C250.92 569.889 273.704 607.041 296.613 642.092C315.45 670.899 335.65 699.717 361.425 720.841C367.201 725.689 373.227 730.095 379.684 734.009C438.3 770.232 512.776 756.151 562.443 714.672C573.219 705.587 583.081 695.43 592.135 684.549C624.245 645.319 645.074 595.381 661.006 544.682C681.346 480.021 695.392 411.966 722.673 350.901C749.991 290.578 793.487 236.084 854.242 217.211C860.823 215.264 867.44 214.059 874.094 213.596C940.555 209.367 1012.66 276.577 1077.96 269.839C1082.84 269.287 1087.61 268.388 1092.27 267.141C1162.08 246.787 1231.77 243.575 1299.9 252.248C1413.61 266.976 1522.31 314.437 1612.75 377.5C1713.73 448.272 1792.57 539.065 1835.58 625.148" stroke="white" stroke-width="0.2" stroke-miterlimit="10"/>
<path d="M-72.3548 728.504C-66.7 754.254 -29.1263 765.831 -0.650574 751.827C26.3189 738.601 43.2237 707.948 51.6459 677.494C57.4697 656.196 60.1551 634.797 63.9347 614.421C65.5826 605.332 67.2305 596.243 69.3986 587.579C76.279 559.042 89.5976 531.228 115.294 518.906C137.799 508.19 165.704 512.387 191.388 525.074C202.419 530.586 212.929 537.553 222.454 545.724C254.561 572.864 278.009 609.651 301.707 644.114C321.332 672.334 342.447 700.345 368.724 720.582C374.625 725.209 380.777 729.393 387.36 733.086C446.746 767.41 520.899 752.288 570.243 709.767C580.965 700.508 590.773 690.178 599.594 679.171C631.31 639.295 651.618 588.931 667.209 537.76C686.976 472.499 699.909 403.99 726.975 342.23C753.397 282.148 796.192 227.276 856.356 208.373C862.883 206.252 869.501 205.047 876.154 204.585C942.095 199.93 1013.76 266.32 1078.23 261.307C1082.98 260.977 1087.57 260.125 1092.23 258.879C1160.84 240.914 1229.35 239.522 1296.57 249.003C1409.16 265.156 1518.01 309.948 1607.74 368.874C1707.76 434.641 1785.3 519.386 1828.15 599.308" stroke="white" stroke-width="0.2" stroke-miterlimit="10"/>
<path d="M-72.6236 727.636C-67.0951 749.848 -30.9569 758.048 -2.19454 742.463C24.2726 728.243 41.6437 697.842 51.0524 668.065C57.5757 647.144 61.427 626.373 65.9421 607.116C67.9308 598.5 69.9734 590.058 72.4824 581.866C80.3136 555.143 93.9197 529.509 119.563 518.893C141.96 509.71 169.489 514.572 194.922 527.702C205.827 533.436 216.392 540.576 225.916 548.747C258.131 576.234 282.242 612.656 307.088 646.437C327.323 674.118 349.352 701.319 376.131 720.67C382.158 725.076 388.435 729.038 394.964 732.557C454.888 764.858 528.717 748.694 577.846 705.479C588.515 696.046 598.269 685.542 607.036 674.362C638.357 633.839 658.378 583.176 673.27 531.628C692.462 465.769 704.642 396.708 730.955 334.398C756.426 274.382 798.451 219.529 857.969 200.422C864.496 198.301 870.934 197.144 877.534 196.508C942.955 191.429 1014.11 256.825 1077.76 253.536C1082.33 253.253 1086.98 252.576 1091.69 251.503C1159.23 235.706 1226.19 236.23 1292.73 246.645C1404.44 264.35 1513.2 306.345 1602.06 361.181C1701.21 422.291 1777.35 500.642 1820.21 574.355" stroke="white" stroke-width="0.2" stroke-miterlimit="10"/>
<path d="M-73.1265 726.642C-67.7244 745.315 -33.0754 749.966 -3.97265 732.973C21.9921 717.76 39.8834 687.783 50.1709 658.335C57.3938 637.791 62.2315 617.697 67.6614 599.512C69.9911 591.369 72.5538 583.351 75.2781 575.854C84.0602 550.945 98.133 527.442 123.723 518.533C145.959 510.709 173.112 516.235 198.114 529.857C208.894 535.812 219.512 543.126 229.037 551.297C261.592 579.256 286.546 615.265 312.127 648.285C333.205 675.553 355.915 701.821 383.375 720.238C389.528 724.421 395.931 728.162 402.585 731.46C463.1 761.91 536.786 744.656 585.646 700.573C596.261 690.967 605.781 680.337 614.674 668.936C645.834 627.892 665.281 576.63 679.652 524.657C698.091 458.247 709.518 388.636 735.257 325.727C759.831 265.951 801.031 210.942 859.849 191.458C866.197 189.385 872.761 188.007 879.235 187.592C944.082 181.914 1015.02 246.616 1077.85 245.051C1082.47 244.943 1086.99 244.486 1091.53 243.462C1157.86 230.054 1223.64 232.398 1289.45 243.574C1400.05 262.704 1508.82 302.25 1597.1 352.728C1695.34 409.006 1770.14 481.137 1813.02 548.64" stroke="white" stroke-width="0.2" stroke-miterlimit="10"/>
<path d="M-73.5753 725.822C-68.2995 740.957 -35.0859 742.231 -5.69658 723.658C19.7658 707.45 38.1235 677.725 49.3975 648.954C57.3198 628.786 63.144 609.368 69.435 592.082C72.2848 584.363 75.0629 577.04 78.128 570.016C87.861 546.921 102.221 525.597 127.704 518.221C149.779 511.756 176.609 518.121 201.36 532.185C212.194 538.314 222.633 545.676 232.211 554.021C264.875 582.327 290.671 617.923 317.22 650.308C339.087 676.989 362.712 702.448 390.495 720.027C396.773 723.989 403.301 727.508 409.901 730.632C471.187 759.184 544.371 740.937 592.908 695.812C603.469 686.032 612.935 675.229 621.595 663.701C652.36 622.011 671.34 570.498 685.371 518.052C703.29 451.217 713.73 380.93 739.075 317.375C762.752 257.837 803.127 202.673 861.3 182.986C867.648 180.913 874.032 179.583 880.631 178.947C945.138 172.795 1015.4 236.551 1077.4 236.711C1081.9 236.824 1086.42 236.368 1090.83 235.565C1156.14 224.498 1220.56 228.711 1285.45 240.695C1394.88 261.076 1503.91 298.3 1591.26 344.515C1688.58 395.961 1762.03 461.872 1804.74 523.214" stroke="white" stroke-width="0.2" stroke-miterlimit="10"/>
<path d="M-74.0774 724.828C-68.8024 736.203 -37.0959 734.495 -7.59931 714.389C17.4145 697.362 36.364 667.667 48.3914 639.446C56.9594 619.482 63.8239 600.914 71.0298 584.699C74.2204 577.453 77.3932 570.777 80.7992 564.226C91.4831 542.945 106.185 523.973 131.56 518.13C153.473 513.024 179.981 520.227 204.482 534.735C215.19 541.085 225.682 548.621 235.261 556.965C268.211 585.572 294.671 620.801 322.009 652.6C344.665 678.694 369.025 703.392 397.543 720.211C403.946 723.951 410.6 727.249 417.38 730.325C479.257 757.027 552.243 737.516 600.565 691.697C611.072 681.743 620.485 670.767 629.09 659.065C659.694 616.854 678.1 564.742 691.611 511.871C708.777 444.486 718.643 373.6 743.288 309.668C766.194 250.149 805.565 194.877 863.146 175.16C869.44 172.914 875.824 171.583 882.244 170.995C946.23 164.419 1016.17 227.133 1077.21 229.239C1081.72 229.352 1086.11 229.117 1090.4 228.536C1154.51 219.858 1217.51 225.766 1281.72 238.684C1390.09 260.664 1499.03 295.092 1585.86 337.122C1682.08 383.784 1754.31 443.252 1797.1 498.56" stroke="white" stroke-width="0.2" stroke-miterlimit="10"/>
<path d="M-74.4002 723.786C-69.2515 731.622 -38.9804 726.539 -9.1972 704.852C15.3681 687.004 34.7301 657.387 47.744 629.842C57.0114 610.256 65.0418 592.316 73.1625 577.172C76.694 570.4 80.387 564.148 84.0083 558.292C95.6969 538.998 110.632 522.033 135.9 517.722C157.706 514.149 183.658 522.065 208.033 536.794C218.795 543.318 229.162 551.075 238.741 559.42C271.799 588.373 299.156 623.363 327.408 654.353C350.907 680.034 375.948 703.798 405.147 719.682C411.676 723.201 418.276 726.325 425.361 729.132C487.829 753.983 560.492 733.431 608.545 686.743C618.998 676.617 628.357 665.466 636.729 653.639C666.938 610.781 685.058 558.37 697.994 504.901C714.586 436.917 723.519 365.528 747.59 300.997C769.6 241.718 808.325 186.243 865.081 166.37C871.196 164.172 877.58 162.841 883.946 162.079C947.412 155.078 1016.85 216.799 1077.07 220.629C1081.45 220.964 1085.66 220.777 1090 220.369C1152.91 214.081 1214.73 221.809 1278.07 235.71C1385.52 259.067 1494.3 291.093 1580.37 328.813C1675.68 370.643 1746.56 423.891 1789.18 473.038" stroke="white" stroke-width="0.2" stroke-miterlimit="10"/>
<path d="M-74.8473 722.966C-69.8249 727.264 -40.9355 718.977 -10.9195 695.536C13.1973 676.868 32.9717 647.328 46.9721 620.46C56.9391 601.251 65.956 583.987 74.9915 569.915C79.097 563.741 82.9515 558.011 86.9137 552.627C99.3738 535.195 114.776 520.361 139.99 517.757C161.635 515.543 187.211 524.124 211.389 539.47C222.025 546.215 232.446 554.146 242.079 562.664C275.424 591.917 303.444 626.541 332.665 656.897C356.773 682.038 382.907 704.946 412.43 719.992C419.084 723.289 425.864 726.366 432.84 728.825C495.9 751.826 568.42 730.184 616.149 682.455C626.548 672.154 635.853 660.83 644.172 648.83C674.166 605.277 691.586 552.489 704.056 498.768C720.074 430.186 728.254 358.246 751.571 293.165C772.684 234.125 810.584 178.495 866.874 158.371C872.989 156.172 879.319 154.668 885.685 153.906C948.631 146.48 1017.56 207.207 1077.02 212.936C1081.21 213.318 1085.53 213.479 1089.69 213.118C1151.53 208.998 1211.86 218.816 1274.65 233.429C1380.98 258.211 1489.72 287.616 1575.27 321.15C1669.49 358.197 1739.21 405.176 1781.84 448.114" stroke="white" stroke-width="0.2" stroke-miterlimit="10"/>
<path d="M-75.3507 721.972C-70.4546 722.732 -43.0006 711.068 -12.6981 686.047C10.7909 666.607 31.1572 637.097 46.2696 610.683C57.1153 591.803 66.9394 575.264 76.8898 562.263C81.3361 556.562 85.5315 551.304 89.8884 546.567C103.299 530.949 118.989 518.295 144.15 517.397C165.634 516.542 190.887 525.961 214.814 541.75C225.324 548.717 235.746 556.648 245.432 565.34C278.885 594.94 307.801 629.325 337.937 658.871C362.888 683.6 389.704 705.573 419.907 719.685C426.687 722.761 433.592 725.615 440.694 727.853C504.346 749.004 576.488 726.147 624.002 677.723C634.347 667.249 643.473 655.973 651.863 643.577C681.516 599.552 698.595 546.291 710.492 491.971C725.81 423.012 733.237 350.522 756.106 284.62C776.501 225.772 813.397 170.034 868.987 149.533C875.102 147.335 881.253 145.878 887.565 144.943C950.116 136.87 1018.6 196.777 1077.05 204.278C1081.3 204.834 1085.44 205.042 1089.48 204.904C1150.11 203.172 1209.26 214.811 1271.13 230.233C1376.36 256.44 1485.29 283.347 1569.96 312.793C1663.08 345.056 1731.63 385.767 1774.29 422.496" stroke="white" stroke-width="0.2" stroke-miterlimit="10"/>
<path d="M-75.6193 721.104C-70.8495 718.325 -44.7771 703.459 -14.3673 676.904C8.67314 656.644 29.6851 627.338 45.5508 601.475C57.0422 582.798 67.8528 566.935 78.7719 555.18C83.5591 549.952 88.3284 545.292 92.6675 541.124C107.029 527.32 123.006 516.845 148.06 517.48C169.204 518.032 194.313 528.241 217.756 544.348C228.321 551.489 238.616 559.641 248.302 568.333C282.042 598.232 311.623 632.252 342.547 661.212C368.287 685.353 395.838 706.566 426.543 719.791C433.502 722.819 440.479 725.279 447.581 727.516C511.824 746.817 583.823 722.87 631.067 673.578C641.18 662.979 650.431 651.481 658.588 638.96C688.026 594.24 704.405 540.602 715.961 485.809C730.705 416.251 737.378 343.21 759.494 276.758C778.993 218.15 815.01 162.082 870.008 141.552C876.123 139.353 882.22 137.723 888.407 137.009C950.438 128.512 1018.42 187.424 1076.1 196.824C1080.17 197.428 1084.36 197.81 1088.45 197.845C1147.89 198.503 1205.62 211.836 1266.81 228.192C1370.98 255.998 1479.82 280.11 1563.97 305.37C1656.18 332.802 1723.2 367.34 1765.87 397.86" stroke="white" stroke-width="0.2" stroke-miterlimit="10"/>
<path d="M-76.1226 720.11C-71.533 713.619 -46.7883 695.723 -16.1457 667.415C6.62551 646.286 27.8706 617.105 44.7228 591.919C56.9138 573.619 68.7109 558.433 80.491 547.575C85.619 542.82 90.783 538.807 95.4629 535.112C110.65 523.344 127.04 514.826 152.04 517.168C173.023 519.079 197.63 530.174 221.002 546.676C231.441 554.038 241.79 562.365 251.476 571.056C285.503 601.255 315.747 634.909 347.639 663.234C374.168 686.788 402.634 707.193 433.841 719.532C440.926 722.339 448.028 724.576 455.256 726.593C520.09 744.043 591.766 719.055 638.687 668.721C648.746 657.948 657.943 646.276 666.046 633.581C695.143 588.389 711.182 534.278 722.217 479.06C736.208 408.951 742.128 335.36 763.67 268.309C782.452 209.892 817.464 153.718 871.817 132.984C877.698 130.659 883.849 129.203 890.162 128.268C951.673 119.345 1019.15 177.264 1076 188.388C1080.13 189.165 1084.15 189.595 1088.11 189.852C1146.47 192.677 1202.89 208.052 1263.17 225.217C1366.22 254.449 1474.91 276.159 1558.48 297.06C1649.64 319.882 1715.45 347.978 1758.14 372.29" stroke="white" stroke-width="0.2" stroke-miterlimit="10"/>
<path d="M-76.6247 719.117C-71.9821 709.039 -48.7984 687.989 -17.923 657.925C4.45353 636.151 26.0573 606.874 43.8422 582.19C56.7326 564.267 69.5162 549.757 82.3905 539.923C88.0387 535.593 93.3642 532.101 98.4388 529.053C114.398 519.146 131.254 512.76 156.147 516.634C176.969 519.905 201.254 531.838 224.32 548.61C234.634 556.194 245.037 564.693 254.723 573.385C288.858 603.931 320.177 637.297 352.805 664.862C380.177 688.003 409.323 707.473 441.033 718.926C448.063 721.559 455.291 723.575 462.644 725.37C528.07 740.971 599.548 714.718 646.254 663.69C656.259 652.743 665.403 640.898 673.273 628.078C701.975 582.238 717.673 527.654 728.188 472.012C741.605 401.305 746.825 327.336 767.739 259.513C785.624 201.336 819.991 144.958 873.518 124.068C879.4 121.744 885.497 120.114 891.63 119.227C952.621 109.879 1019.78 166.756 1075.68 179.826C1079.68 180.825 1083.52 181.303 1087.53 181.734C1144.69 186.948 1199.75 204.192 1259.47 222.069C1361.42 252.726 1470.12 271.987 1553.12 288.53C1643.01 306.616 1707.82 328.396 1750.35 346.546" stroke="white" stroke-width="0.2" stroke-miterlimit="10"/>
<path d="M-76.8931 718.248C-72.3767 704.632 -50.3953 680.331 -19.6459 648.609C2.28218 626.014 24.4778 596.767 43.0698 572.808C56.8391 555.214 70.4299 541.428 84.219 532.666C90.208 528.809 95.9283 525.963 101.344 523.388C118.074 515.343 135.397 511.088 160.416 516.621C181.077 521.251 205.039 534.022 227.854 551.237C238.222 558.994 248.446 567.542 258.186 576.407C292.607 607.252 324.591 640.254 358.186 667.183C386.347 689.737 416.229 708.447 448.673 719.14C455.829 721.551 463.183 723.346 470.661 724.919C536.678 738.669 607.834 711.375 654.271 659.479C664.221 648.358 673.311 636.34 681.128 623.346C709.614 576.812 724.666 522.024 734.607 465.783C747.504 394.651 751.917 319.958 772.078 251.584C789.246 193.599 822.608 137.113 875.436 115.847C881.318 113.523 887.236 111.941 893.315 110.879C953.965 101.059 1020.39 156.817 1075.7 171.737C1079.52 172.784 1083.46 173.609 1087.3 174.087C1143.2 181.517 1197.13 200.755 1255.94 219.441C1356.83 251.696 1465.44 268.162 1547.74 280.568C1636.53 293.87 1700.18 309.381 1742.72 321.323" stroke="white" stroke-width="0.2" stroke-miterlimit="10"/>
<path d="M-77.3975 717.255C-73.0075 700.1 -52.3538 672.77 -21.4255 639.12C0.10789 615.879 22.6621 586.536 42.2407 563.253C56.7095 546.036 71.2867 532.927 85.9907 525.236C92.3206 521.851 98.3817 519.479 104.192 517.55C121.819 511.146 139.484 509.244 164.395 516.309C184.895 522.298 208.48 535.735 231.099 553.566C241.341 561.545 251.619 570.266 261.412 579.305C295.942 610.497 328.768 643.085 363.152 669.428C392.102 691.395 422.898 709.297 455.845 719.103C463.126 721.292 470.659 723.039 478.263 724.391C544.872 736.291 615.704 707.955 661.997 654.969C671.894 643.675 680.751 631.531 688.692 618.315C716.838 571.308 731.496 515.874 740.97 459.382C753.114 387.699 756.774 312.455 776.36 243.483C792.811 185.69 825.115 128.923 877.531 107.578C883.233 105.302 889.277 103.498 895.356 102.437C955.432 92.0183 1021.4 146.956 1075.94 163.774C1079.82 164.995 1083.58 165.868 1087.3 166.568C1142.18 176.339 1194.57 197.493 1252.64 216.939C1352.41 250.62 1460.86 264.685 1542.77 272.684C1630.52 281.376 1692.89 290.272 1735.5 296.178" stroke="white" stroke-width="0.2" stroke-miterlimit="10"/>
<path d="M-77.8989 716.261C-73.6352 695.568 -54.3631 665.034 -23.1481 629.804C-2.06332 605.742 21.1366 576.603 41.594 553.649C56.7622 536.809 72.326 524.376 87.9449 517.757C94.6156 514.845 101.233 513.64 107.222 511.663C124.957 505.606 143.699 507.177 168.61 516.122C188.895 523.297 212.033 537.793 234.526 555.846C244.642 564.046 254.974 572.941 264.768 581.98C299.584 613.472 333.127 645.868 368.426 671.402C398.219 692.956 429.696 709.923 463.145 718.843C470.552 720.811 478.21 722.337 485.76 723.514C552.781 733.612 623.595 703.966 669.493 650.333C679.336 638.865 688.139 626.547 695.848 613.206C723.778 565.505 737.97 509.819 746.87 452.728C758.44 380.447 761.4 304.826 780.179 235.129C795.733 177.576 827.213 120.653 878.983 99.1056C884.631 96.6556 890.549 95.0737 896.574 93.839C956.13 82.9949 1021.78 136.891 1075.32 155.482C1079.01 156.75 1082.83 157.797 1086.42 158.718C1140.04 170.705 1191.3 193.853 1248.46 214.108C1347.3 249.166 1455.59 260.83 1536.74 264.518C1623.4 268.427 1684.6 271.054 1727.05 270.799" stroke="white" stroke-width="0.2" stroke-miterlimit="10"/>
<path d="M-78.3466 715.441C-74.263 691.035 -56.0855 657.598 -24.871 620.488C-4.18081 595.78 19.3777 566.544 40.8216 544.267C56.6356 527.631 73.1858 515.874 89.7734 510.5C97.0181 508.187 103.582 506.808 110.127 505.999C129.298 503.318 147.842 505.505 172.7 516.157C192.644 524.739 215.639 540.026 237.881 558.522C248.051 566.896 258.024 575.886 268.051 585.051C302.975 616.89 337.54 648.825 373.575 673.599C403.977 694.613 436.423 710.946 470.498 718.758C478.031 720.504 485.815 721.808 493.49 722.764C561.156 731.186 631.593 700.324 677.348 645.601C687.137 633.96 695.886 621.468 703.595 608.127C731.185 559.953 744.802 503.669 753.362 446.105C764.178 373.273 766.564 297.053 784.769 226.758C799.606 169.396 830.081 112.366 881.205 90.6151C886.854 88.1651 892.718 86.4095 898.564 85.2228C957.599 73.9537 1022.75 126.856 1075.51 147.345C1079.26 148.787 1082.9 149.882 1086.54 150.977C1138.97 165.353 1188.86 190.369 1245.34 211.558C1343.12 248.215 1451.19 257.304 1531.95 256.586C1617.39 255.933 1677.55 252.07 1720.02 245.606" stroke="white" stroke-width="0.2" stroke-miterlimit="10"/>
<path d="M-78.6704 714.399C-74.7131 686.455 -57.7379 649.767 -26.6492 610.998C-6.17444 585.596 17.5634 556.312 39.9938 534.711C56.6866 518.404 74.0441 507.372 91.6719 502.847C99.2575 501.008 106.216 500.276 113.102 499.939C132.99 498.947 152.055 503.439 176.806 515.624C196.589 525.564 219.261 541.689 241.073 560.676C251.117 569.272 261.144 578.436 271.351 587.553C306.562 619.691 341.79 651.261 378.793 675.4C409.984 695.828 443.165 711.399 477.743 718.325C485.401 719.85 493.131 720.98 500.932 721.715C569.189 728.286 639.429 696.161 684.789 640.792C694.524 628.977 703.219 616.312 710.695 602.845C738.069 553.976 751.22 497.441 759.26 439.452C769.502 366.021 771.189 289.424 788.587 218.405C802.706 161.235 832.356 104.049 882.655 82.1427C888.125 79.7405 893.989 77.985 900.014 76.7503C958.709 65.0083 1023.12 116.791 1075.11 139.178C1078.68 140.668 1082.2 141.985 1085.89 143.253C1137.24 159.797 1185.78 186.681 1241.57 208.804C1338.24 246.887 1446.33 253.527 1526.33 248.498C1610.73 243.235 1669.67 232.93 1712.16 220.257" stroke="white" stroke-width="0.2" stroke-miterlimit="10"/>
<path d="M-79.1185 713.579C-75.2876 682.097 -59.6401 642.38 -28.3725 601.683C-8.29242 575.634 16.0373 546.38 39.1672 525.156C56.5594 509.226 74.9034 498.87 93.4461 495.417C101.373 494.05 108.851 493.743 115.953 494.101C136.559 494.797 156.269 501.373 180.842 515.485C200.643 526.737 222.633 543.796 244.319 563.005C254.239 571.822 264.32 581.16 274.526 590.277C309.845 622.762 345.97 654.092 383.708 677.47C415.742 697.485 449.783 712.075 484.863 718.114C492.646 719.418 500.502 720.326 508.428 720.839C577.277 725.56 647.193 692.393 692.464 636.109C702.145 624.12 710.787 611.281 718.208 597.64C745.188 548.125 757.819 491.165 765.517 432.703C775.239 358.847 776.119 281.527 792.764 209.956C806.166 152.978 834.758 95.5112 884.411 73.4012C889.881 70.9991 895.691 69.0699 901.537 67.8831C959.711 55.7161 1023.8 106.457 1074.84 130.79C1078.29 132.502 1081.86 133.992 1085.32 135.135C1135.47 154.068 1182.64 182.821 1237.7 205.704C1333.31 245.385 1441.24 249.625 1520.84 240.189C1604.02 230.364 1661.92 213.569 1704.24 194.736" stroke="white" stroke-width="0.2" stroke-miterlimit="10"/>
<path d="M-79.6209 712.585C-75.7369 677.516 -61.4172 634.769 -30.0962 592.366C-10.2853 565.449 14.2776 536.321 38.394 515.773C56.4857 500.22 75.8162 490.541 95.2738 488.159C103.541 487.266 111.36 487.431 118.857 488.436C140.414 490.946 160.412 499.701 184.877 515.346C204.463 527.784 226.185 545.855 247.62 565.507C257.593 574.497 267.548 584.057 277.755 593.173C313.36 625.958 350.149 656.923 388.855 679.666C421.678 699.094 456.455 712.923 492.216 718.028C500.125 719.11 508.105 719.797 516.211 720.263C585.651 723.133 655.424 688.877 700.192 631.598C709.82 619.436 718.228 606.471 725.775 592.609C752.593 542.573 764.704 485.188 771.703 426.349C780.672 351.942 781.031 274.196 797.102 202.028C809.607 145.289 837.374 87.6668 886.382 65.3533C891.798 62.7776 897.428 60.8964 903.275 59.7096C960.875 46.944 1024.64 96.6429 1074.73 122.922C1078.18 124.634 1081.62 126.346 1084.96 127.71C1134.03 148.811 1179.89 179.606 1234.04 203.298C1328.54 244.404 1436.31 246.243 1515.34 232.448C1597.29 218.061 1654.15 194.776 1696.49 169.734" stroke="white" stroke-width="0.2" stroke-miterlimit="10"/>
<path d="M-79.9444 711.543C-76.1867 672.936 -63.0155 627.112 -31.6949 582.829C-12.2787 555.265 12.876 526.167 37.7458 506.17C56.7164 490.946 76.9795 481.769 97.2264 480.681C106.014 480.212 114.048 481.072 121.886 482.55C144.16 486.748 164.679 497.808 189.091 515.16C208.516 528.956 229.915 547.866 251.045 567.787C260.947 577.173 270.848 586.559 281.162 596.023C317.055 629.107 354.686 659.658 394.181 681.815C427.793 700.655 463.305 713.724 499.622 718.117C507.71 719.151 515.816 719.616 523.815 719.734C593.9 720.928 663.242 685.282 707.974 627.261C717.548 614.925 725.902 601.787 733.216 587.799C759.639 537.117 771.409 479.259 777.888 419.995C786.283 344.99 785.943 266.867 801.207 193.974C812.995 137.427 839.757 79.6972 888.12 57.1802C893.535 54.6045 899.166 52.7233 904.958 51.3629C962.038 38.1724 1025.3 86.8775 1074.63 115.055C1077.94 116.988 1081.39 118.7 1084.6 120.286C1132.47 143.776 1176.97 176.439 1230.38 200.891C1323.82 243.597 1431.61 242.986 1510.01 224.66C1590.92 205.663 1646.56 175.935 1688.74 144.732" stroke="white" stroke-width="0.2" stroke-miterlimit="10"/>
<path d="M-80.3928 710.723C-76.7614 668.577 -64.7924 619.503 -33.5977 573.561C-14.3969 545.303 10.9372 516.157 36.7396 496.662C56.4096 481.816 77.6592 473.315 98.8211 473.298C107.949 473.302 116.325 474.636 124.557 476.759C147.728 482.598 168.714 495.789 193.126 515.021C212.39 530.177 233.233 549.799 254.346 570.289C264.122 579.897 274.077 589.456 284.391 598.92C320.391 632.351 358.866 662.489 399.15 684.059C433.604 702.486 469.797 714.621 506.795 718.079C515.009 718.892 523.062 719.184 531.365 719.032C601.862 718.424 671.24 681.641 715.703 622.751C725.223 610.242 733.523 596.93 740.783 582.769C766.812 531.439 778.115 473.33 784.2 413.419C791.841 337.864 790.927 259.142 805.437 185.699C816.508 129.343 842.266 71.5061 890.162 48.7378C895.398 46.21 900.975 44.1551 906.768 42.7947C963.507 29.1312 1026.21 76.669 1074.59 106.793C1077.91 108.726 1081.22 110.659 1084.31 112.467C1130.92 138.172 1174.3 172.829 1226.97 198.042C1319.31 242.173 1426.98 239.335 1504.75 216.477C1584.68 193.043 1639.05 156.7 1681.24 119.288" stroke="white" stroke-width="0.2" stroke-miterlimit="10"/>
<path d="M-80.8958 709.729C-77.4446 663.872 -66.5702 611.893 -35.3759 564.072C-16.5698 535.167 9.30223 505.877 36.0911 487.059C56.4607 472.589 78.6969 464.765 100.953 465.772C110.422 466.249 119.317 468.007 127.765 470.825C151.887 478.478 173.16 493.849 197.465 514.613C216.514 530.955 237.089 551.589 257.95 572.522C267.78 582.303 277.61 592.084 287.924 601.548C324.211 635.278 363.403 665.225 404.601 685.986C439.845 703.826 477.006 715.326 514.273 717.772C522.612 718.363 530.79 718.433 539.04 718.108C610.182 715.824 679.183 677.825 723.323 617.894C732.61 605.259 741.036 591.726 748.063 577.438C773.93 525.588 784.659 466.88 790.277 406.718C797.398 330.737 795.731 251.466 809.434 177.298C819.841 121.308 844.721 63.1414 891.738 40.044C896.974 37.5162 902.551 35.4613 908.11 33.9752C964.329 19.8867 1026.71 66.3828 1074.32 98.4046C1077.51 100.559 1080.65 102.54 1083.97 104.474C1129.51 132.347 1171.39 169.094 1223.33 195.068C1314.61 240.797 1422.3 235.511 1499.44 208.12C1578.2 180.297 1631.24 137.165 1673.68 93.6697" stroke="white" stroke-width="0.2" stroke-miterlimit="10"/>
<path d="M-81.3434 708.909C-78.0185 659.513 -68.2926 604.457 -37.0987 554.756C-18.5079 525.156 7.5973 495.992 35.265 477.503C56.5134 463.363 79.5029 456.089 102.728 458.341C112.717 459.243 121.828 461.696 130.616 464.987C155.636 474.28 177.429 491.956 201.501 514.475C220.389 532.175 240.641 553.647 261.198 574.85C270.902 584.853 280.786 594.808 291.1 604.271C327.495 638.349 367.529 667.882 409.696 688.008C445.728 705.262 483.625 716.001 521.573 717.513C530.038 717.883 538.341 717.731 546.77 717.358C618.504 713.223 687.307 673.961 731.232 613.336C740.465 600.527 748.837 586.82 755.81 572.359C781.282 519.863 791.725 460.855 796.769 400.095C803.136 323.563 800.895 243.693 814.024 168.926C823.714 113.128 847.535 54.6806 893.961 31.5534C899.197 29.0256 904.541 26.8451 910.333 25.4847C966.032 10.9712 1027.86 56.2998 1074.69 90.2198C1077.76 92.5961 1080.95 94.7509 1084.09 96.732C1128.43 126.994 1169.13 165.562 1220.16 192.344C1310.32 239.499 1417.9 231.985 1494.42 200.062C1572.14 167.629 1623.95 118.055 1666.23 68.3988" stroke="white" stroke-width="0.2" stroke-miterlimit="10"/>
<path d="M-81.6658 707.868C-78.4672 654.933 -69.7103 596.752 -38.6423 545.392C-20.5 514.973 6.01761 485.886 34.4925 468.122C56.4404 454.358 80.4164 447.761 104.502 450.911C114.832 452.286 124.284 455.211 133.467 459.149C159.204 470.13 181.464 489.937 205.483 514.163C224.21 533.222 243.96 555.581 264.266 577.227C273.844 587.451 283.728 597.406 294.096 607.043C330.778 641.42 371.655 670.54 414.611 690.079C451.432 706.746 490.064 716.724 528.693 717.303C537.284 717.45 545.712 717.077 554.267 716.483C626.592 710.498 695.072 670.194 738.728 608.7C747.907 595.718 756.046 581.885 763.144 567.203C788.455 514.186 798.144 454.627 802.668 393.442C808.462 316.312 805.7 236.016 817.843 160.573C826.816 104.967 849.632 46.4119 895.412 23.0812C900.415 20.4278 905.813 18.4208 911.551 16.8868C966.676 1.77477 1028.18 46.0616 1074.12 82.1014C1077.18 84.4777 1080.25 86.854 1083.26 89.0567C1126.53 121.487 1165.74 162.144 1216.03 189.687C1304.96 238.488 1412.74 228.478 1488.63 192.022C1565.36 155.154 1615.9 98.9634 1658.19 43.0983" stroke="white" stroke-width="0.2" stroke-miterlimit="10"/>
<path d="M-82.1687 706.874C-78.9171 650.352 -71.488 589.142 -40.5997 535.95C-22.4935 504.788 4.25736 475.828 33.6649 458.566C56.3123 445.179 81.2748 439.258 106.275 443.48C116.946 445.328 126.918 448.678 136.317 453.31C163.005 466.105 185.732 488.044 209.517 514.024C228.263 534.395 247.511 557.639 267.511 579.555C276.965 590 286.902 600.129 297.27 609.766C334.06 644.491 375.78 673.197 419.525 692.149C457.189 708.403 496.681 717.399 535.633 717.139C544.349 717.065 552.957 716.644 561.404 715.702C634.374 708.041 702.657 666.474 745.989 603.939C755.115 590.782 763.2 576.776 770.065 561.968C794.981 508.304 804.383 448.447 808.387 386.836C813.607 309.108 810.146 228.435 821.481 152.268C829.737 96.8531 851.549 38.1905 896.683 14.6564C901.686 12.0029 907.03 9.82237 912.589 8.3363C967.373 -7.24868 1028.38 36.0444 1073.31 73.8566C1076.25 76.4544 1079.32 78.8308 1082.2 81.255C1124.27 116.074 1162.12 158.6 1211.85 186.855C1299.67 237.082 1407.52 224.796 1482.6 183.857C1558.34 142.551 1607.61 79.7455 1649.74 17.7195" stroke="white" stroke-width="0.2" stroke-miterlimit="10"/>
<path d="M-82.6171 706.054C-79.4918 645.994 -73.0318 581.659 -42.3233 526.635C-24.6117 494.826 2.55159 465.943 32.838 449.01C56.3642 435.953 82.08 430.583 108.049 436.049C119.24 438.322 129.428 442.367 139.167 447.472C166.752 461.908 189.82 486.199 213.553 513.886C232.137 535.616 251.062 559.698 270.812 582.057C280.319 592.676 290.131 603.026 300.553 612.837C337.629 647.861 380.013 676.202 424.726 694.519C463.179 710.186 503.406 718.422 543.04 717.227C551.702 716.98 560.435 716.337 569.187 715.126C642.749 705.614 710.655 662.832 753.771 599.602C762.843 586.272 770.874 572.093 777.686 557.111C802.387 502.753 811.089 442.518 814.752 380.435C819.272 302.329 815.237 221.058 825.945 144.118C833.483 88.8955 854.471 30.0773 898.78 6.38774C903.783 3.73427 908.947 1.60168 914.632 -0.105952C968.896 -16.1159 1029.52 25.9618 1073.56 65.8937C1076.5 68.4915 1079.44 71.0894 1082.2 73.7352C1123.37 110.674 1159.55 155.338 1208.61 184.527C1295.24 236.574 1403.28 221.792 1477.68 176.146C1552.44 130.405 1600.43 60.983 1642.58 -7.2518" stroke="white" stroke-width="0.2" stroke-miterlimit="10"/>
<path d="M-82.9403 705.012C-79.9952 641.24 -74.6297 574.001 -43.9217 517.097C-26.4254 484.594 1.09655 455.615 32.1901 439.407C56.4158 426.726 83.2975 421.984 110.182 428.523C121.714 431.268 132.242 435.786 142.376 441.538C170.912 457.787 194.393 484.037 217.892 513.477C236.261 536.393 254.739 561.536 274.417 584.289C283.799 595.13 293.665 605.654 304.086 615.465C341.271 650.836 384.73 678.889 430.178 696.446C469.42 711.525 510.383 719.001 550.572 717.094C559.359 716.625 568.218 715.761 576.916 714.376C651.177 703.361 718.831 659.142 761.679 595.044C770.697 581.541 778.674 567.187 785.253 552.08C809.613 497.248 817.974 436.541 821.063 373.859C825.009 295.155 820.4 213.285 830.175 135.843C837.175 80.7636 856.926 21.7122 900.768 -2.22868C905.771 -4.88216 910.882 -7.18836 916.387 -8.84805C970.131 -25.283 1030.43 15.753 1073.47 57.4573C1076.28 60.2767 1079.04 62.9226 1081.86 65.742C1121.77 104.896 1156.82 151.554 1204.96 181.552C1290.66 234.976 1398.6 217.967 1472.43 167.962C1546.19 117.784 1592.91 41.7472 1635.08 -32.6965" stroke="white" stroke-width="0.2" stroke-miterlimit="10"/>
<path d="M-83.4428 704.018C-80.624 636.708 -76.2276 566.344 -45.8248 507.829C-28.5439 474.631 -0.609471 445.73 31.4168 430.025C56.3958 417.895 84.2101 413.656 112.009 421.266C123.882 424.484 134.93 429.427 145.279 435.873C174.713 453.763 198.714 482.317 221.981 513.512C240.368 537.739 258.344 563.768 277.717 586.791C286.973 597.854 296.839 608.377 307.315 618.362C344.786 654.032 388.909 681.72 435.325 698.642C475.357 713.135 517.233 719.801 557.924 717.009C566.837 716.318 575.822 715.232 584.699 713.799C659.551 700.934 726.883 655.673 769.407 590.534C778.371 576.857 786.295 562.33 792.819 547.049C816.964 491.523 824.806 430.391 827.428 367.457C830.621 288.202 825.671 205.86 834.46 127.741C840.796 73.0272 859.488 13.6946 902.685 -10.4497C907.455 -13.2289 912.62 -15.3615 918.071 -17.1948C971.295 -34.0547 1031.4 5.71802 1073.36 49.59C1076.17 52.4095 1078.86 55.4504 1081.5 58.3178C1120.21 99.8614 1153.9 148.387 1201.31 179.146C1285.89 233.995 1394.08 214.663 1466.92 160.222C1539.88 105.56 1585.14 22.9547 1627.09 -57.8236" stroke="white" stroke-width="0.2" stroke-miterlimit="10"/>
<path d="M-83.8908 703.198C-81.1983 632.349 -77.8965 559.081 -47.5479 498.513C-17.1993 437.944 48.1954 393.953 113.783 413.835C188.769 436.469 228.62 524.899 280.964 589.119C352.324 676.459 462.627 725.938 564.991 716.624C667.355 707.309 758.694 639.273 800.1 541.718C853.855 415.105 823.837 260.686 838.404 119.166C844.631 58.4652 865.868 -8.31617 919.594 -26.0624C972.423 -43.5689 1031.9 -4.56835 1073.03 41.0282C1114.22 86.7984 1147.69 142.15 1197.61 175.997C1281.14 232.446 1389.4 210.838 1461.55 151.691C1533.53 92.5925 1577.52 3.3717 1619.48 -83.6154" stroke="white" stroke-width="0.2" stroke-miterlimit="10"/>
</g>
</svg>
