<svg width="1440" height="901" viewBox="0 0 1440 901" fill="none" xmlns="http://www.w3.org/2000/svg">
<path d="M1589.76 349.683C1586.92 294.059 1505.63 257.471 1432.86 279.165C1381.04 294.707 1343.11 331.636 1311 367.206C1280.21 401.297 1250.58 436.681 1210.69 465.206C1170.8 493.732 1117.55 514.883 1067.85 511.078C966.687 503.456 933.586 403.998 837.492 384.168C759.091 368.029 666.25 412.902 614.249 468.996C562.248 525.09 539.114 590.862 507.219 653.46C475.324 716.059 428.763 781.088 351.02 815.957C279.295 848.171 194.819 847.996 120.716 836.386C-56.1902 808.537 -170.187 829.305 -240.642 706.98" stroke="white" stroke-width="0.2" stroke-miterlimit="10"/>
<path d="M1589.07 346.767C1587.91 322.364 1570.59 301.92 1546.21 289.018C1515.29 272.576 1472.95 267.358 1433.29 279.918C1396.82 291.47 1367.72 313.788 1342.32 338.686C1332.57 348.333 1323.33 358.339 1314.44 368.246C1302.65 381.439 1290.89 394.746 1278.46 407.744C1258.92 428.168 1238.06 447.466 1213.5 464.183C1204.47 470.402 1194.72 476.197 1184.41 481.403C1149.97 498.982 1110.39 509.902 1072.7 506.508C1063.7 505.761 1055.39 504.078 1047.34 501.952C1009.72 491.706 981.919 468.192 953.653 444.432C921.651 417.355 889.289 390.377 842.791 381.712C825.812 378.445 808.159 378.097 790.447 380.126C726.895 387.224 662.48 424.255 622.333 468.008C616.168 474.679 610.433 481.48 605.126 488.41C565.267 539.539 544.045 596.832 515.814 651.586C489.302 703.008 452.366 756.063 396.431 792.121C384.695 799.708 372.105 806.412 358.878 812.298C287.415 843.446 204.14 841.448 129.95 831.478C-51.2571 806.803 -172.066 823.114 -242.944 700.036" stroke="white" stroke-width="0.2" stroke-miterlimit="10"/>
<path d="M1588.35 343.737C1587 319.384 1568.89 299.532 1544.5 287.252C1513.71 271.892 1472.05 267.607 1433.67 280.557C1398.1 292.483 1370 314.897 1345.36 339.712C1335.79 349.309 1326.73 359.265 1318.02 369.123C1306.23 382.315 1294.47 395.622 1281.97 408.391C1262.15 428.521 1240.9 447.18 1216.45 462.995C1207.32 468.871 1197.68 474.387 1187.66 479.264C1153.69 495.842 1114.95 505.662 1078.1 501.791C1069.24 500.879 1061.11 499.147 1053.24 496.971C1016.27 486.297 988.681 462.847 960.519 439.432C928.262 412.798 895.098 387.035 848.664 379.222C831.609 376.348 814.206 376.18 796.564 378.439C733.615 386.24 670.384 423.317 630.597 466.971C624.612 473.592 618.876 480.393 613.57 487.324C574.25 538.304 552.924 595.252 524.554 649.548C497.792 700.79 460.323 753.372 404.213 788.856C392.442 796.328 379.998 802.868 366.487 808.459C295.285 838.541 212.853 834.821 138.9 826.276C-46.9336 804.99 -174.229 816.629 -245.53 692.798" stroke="white" stroke-width="0.2" stroke-miterlimit="10"/>
<path d="M1587.66 340.821C1586.35 316.582 1567.37 297.093 1542.86 285.715C1511.99 271.371 1471.37 267.92 1434.06 281.195C1399.38 293.496 1372.29 316.005 1348.19 340.671C1338.83 350.333 1329.95 360.24 1321.24 370.097C1309.63 383.24 1297.84 396.433 1285.27 408.972C1265.34 428.758 1243.7 446.779 1219.19 461.742C1210.17 467.338 1200.61 472.461 1190.48 476.995C1156.96 492.456 1118.9 501.341 1083.02 496.828C1074.49 495.702 1066.36 493.969 1058.67 491.744C1022.38 480.757 995.158 457.208 966.741 434.236C934.228 408.045 900.229 383.382 854.073 376.487C837.122 373.957 819.823 374.133 802.396 376.456C740.085 385.076 678.038 422.198 638.79 465.704C632.805 472.325 627.25 479.076 621.943 486.007C582.949 536.773 561.733 593.443 533.258 647.394C506.212 698.342 468.459 750.629 412.106 785.311C400.265 792.554 387.787 798.979 374.42 804.406C303.48 833.422 222.069 827.929 148.209 820.973C-42.1056 802.911 -176.212 810.094 -247.612 685.296" stroke="white" stroke-width="0.2" stroke-miterlimit="10"/>
<path d="M1586.97 337.906C1585.66 313.667 1565.89 294.77 1541.37 284.015C1510.6 270.638 1470.86 268.184 1434.63 281.784C1401.02 294.41 1374.72 316.95 1351.37 341.532C1342.2 351.144 1333.53 361.116 1324.96 370.809C1313.53 383.903 1301.74 397.095 1288.92 409.455C1268.74 429.061 1246.83 446.165 1222.29 460.39C1213.16 465.643 1203.71 470.486 1193.87 474.691C1160.61 489.087 1123.61 496.936 1088.56 491.945C1080.21 490.77 1072.22 488.873 1064.89 486.548C1029.26 475.134 1002.39 451.486 973.931 429.022C941.128 403.159 906.542 379.777 860.27 373.783C843.424 371.597 826.194 372.002 808.871 374.67C747.164 383.992 686.121 421.211 647.593 464.517C641.788 471.089 636.232 477.84 630.926 484.771C592.471 535.388 571.296 591.55 542.357 645.256C515.027 695.91 476.774 747.838 420.247 781.947C408.372 789.075 395.824 795.271 382.603 800.534C311.889 828.368 231.39 821.381 157.732 815.737C-37.603 801.048 -178.017 803.51 -249.805 678.074" stroke="white" stroke-width="0.2" stroke-miterlimit="10"/>
<path d="M1586.1 335.039C1584.64 310.964 1564.22 292.495 1539.56 282.528C1508.7 270.167 1469.85 268.71 1434.69 282.635C1401.98 295.636 1376.68 318.272 1353.87 342.705C1345.06 352.218 1336.39 362.19 1328.04 371.948C1316.61 385.042 1304.78 398.12 1291.93 410.364C1271.64 429.627 1249.34 446.092 1224.74 459.466C1215.72 464.439 1206.17 468.939 1196.44 472.865C1163.62 486.145 1127.49 493.008 1093.23 487.425C1085.03 486.086 1077.22 484.139 1070.03 481.65C1035.05 469.808 1008.58 446.175 980.044 424.104C946.985 398.685 911.599 376.518 865.39 371.376C848.648 369.534 831.488 370.169 814.414 373.016C753.525 383.107 693.486 420.421 655.497 463.579C649.692 470.15 644.317 476.852 639.156 483.618C601.24 534.086 579.961 589.904 550.918 643.267C523.338 693.741 484.732 745.145 428.031 778.681C416.121 785.694 403.538 791.775 390.247 796.809C319.76 823.463 240.138 814.867 166.752 810.763C-33.2089 799.463 -179.929 797.204 -251.961 670.965" stroke="white" stroke-width="0.2" stroke-miterlimit="10"/>
<path d="M1585.41 332.124C1583.95 308.049 1562.7 290.057 1537.92 280.992C1507.2 269.712 1469.17 269.024 1435.12 283.389C1403.3 296.764 1378.96 319.381 1356.95 343.845C1348.35 353.423 1339.86 363.345 1331.47 372.989C1320.22 386.032 1308.4 399.11 1295.44 411.011C1274.87 429.98 1252.36 445.757 1227.69 458.278C1218.57 462.908 1209.31 467.079 1199.69 470.726C1167.31 482.89 1132.05 488.768 1098.44 482.757C1090.42 481.368 1082.94 479.208 1075.75 476.718C1041.6 464.399 1015.34 440.831 986.515 419.089C953.166 393.998 917.158 372.996 871.048 368.821C854.41 367.323 837.32 368.187 820.316 371.264C760.029 382.057 701.175 419.418 663.726 462.427C657.921 468.998 652.545 475.7 647.564 482.417C609.974 532.671 588.805 588.21 559.622 641.114C531.758 691.294 492.833 742.289 435.744 775.186C423.799 782.085 411.326 787.887 397.966 792.691C327.74 818.28 248.994 808.075 175.812 805.281C-29.1354 797.469 -182.162 790.489 -254.438 663.448" stroke="white" stroke-width="0.2" stroke-miterlimit="10"/>
<path d="M1584.72 329.208C1583.3 305.248 1561.22 287.733 1536.25 279.34C1505.45 269.077 1468.48 269.337 1435.54 284.141C1404.8 297.842 1381.47 320.555 1359.81 344.919C1351.39 354.448 1343.08 364.32 1334.91 374.029C1323.66 387.072 1311.98 399.986 1298.8 411.822C1278.13 430.446 1255.06 445.635 1230.5 457.255C1221.49 461.605 1212.12 465.432 1202.58 468.686C1170.64 479.734 1136.25 484.626 1103.44 478.023C1095.56 476.47 1088.26 474.26 1081.26 471.721C1047.75 458.974 1021.85 435.306 992.989 414.072C959.385 389.425 922.575 369.638 876.528 366.315C859.961 365.047 842.975 366.255 826.22 369.511C766.572 381.122 708.901 418.529 671.812 461.439C666.186 467.96 660.811 474.662 655.83 481.379C618.779 531.484 597.506 586.679 568.184 639.125C540.071 689.125 500.612 739.646 443.528 771.92C431.549 778.705 419.006 784.277 405.791 788.917C335.827 813.439 257.778 801.676 185.013 800.258C-25.065 796.098 -184.073 784.183 -256.772 656.39" stroke="white" stroke-width="0.2" stroke-miterlimit="10"/>
<path d="M1584.03 326.292C1582.47 302.496 1559.7 285.295 1534.79 277.754C1504.09 268.458 1467.83 269.765 1435.96 284.895C1406.15 299.085 1383.75 321.664 1362.85 345.944C1354.61 355.423 1346.51 365.361 1338.49 374.905C1327.42 387.899 1315.53 400.748 1302.31 412.469C1281.36 430.799 1258.04 445.185 1233.46 456.067C1224.52 460.024 1215.26 463.572 1205.83 466.547C1174.34 476.48 1140.64 480.435 1108.8 473.191C1101.25 471.424 1093.95 469.213 1087.08 466.51C1054.23 453.335 1028.55 429.733 999.607 408.892C965.712 384.574 928.281 365.952 882.118 363.531C865.475 362.656 848.738 364.044 832.233 367.479C773.188 379.794 716.701 417.247 680.152 460.008C674.527 466.529 669.331 473.181 664.35 479.898C627.624 529.79 606.461 584.706 576.856 636.857C548.458 686.563 508.68 736.675 451.242 768.426C439.228 775.095 426.651 780.553 413.546 784.915C343.808 808.256 266.526 795.163 193.929 794.941C-21.2805 794.433 -186.27 777.584 -259.212 648.988" stroke="white" stroke-width="0.2" stroke-miterlimit="10"/>
<path d="M1583.34 323.376C1581.77 299.58 1558.39 282.922 1533.16 276.217C1502.55 267.888 1467.15 270.078 1436.39 285.647C1407.46 300.212 1386.07 322.887 1365.74 347.133C1357.72 356.677 1349.98 366.515 1341.78 376.109C1330.74 389.218 1318.99 401.902 1305.68 413.279C1284.44 431.315 1260.91 445.014 1236.45 454.994C1227.44 458.721 1218.26 461.876 1208.94 464.572C1177.7 473.438 1145.05 476.358 1114.05 468.636C1106.67 466.82 1099.52 464.445 1093.01 461.643C1060.81 448.04 1035.52 424.453 1006.51 404.006C972.356 380.131 934.124 362.724 888.025 361.155C871.486 360.624 854.819 362.241 838.418 366.02C780.011 379.153 724.708 416.652 688.698 459.264C683.253 465.736 678.057 472.388 673.076 479.105C636.89 528.847 615.623 583.419 585.878 635.112C557.376 684.474 516.919 734.277 459.273 765.34C447.224 771.894 434.757 777.074 421.438 781.37C351.962 803.645 275.411 789.107 203.196 790.147C-17.1442 793.291 -188.296 771.557 -261.481 642.158" stroke="white" stroke-width="0.2" stroke-miterlimit="10"/>
<path d="M1582.65 320.46C1581.12 296.779 1556.91 280.598 1531.49 274.566C1500.84 267.368 1466.46 270.391 1436.78 286.285C1408.75 301.225 1388.33 323.881 1368.75 348.043C1360.91 357.537 1353.35 367.326 1345.33 376.87C1334.47 389.929 1322.69 402.499 1309.16 413.811C1287.85 431.618 1263.89 444.563 1239.37 453.691C1230.44 457.025 1221.18 459.95 1212.15 462.318C1181.4 470.183 1149.58 472.003 1119.37 463.689C1112.14 461.708 1105.35 459.234 1098.84 456.432C1067.29 442.4 1042.4 418.829 1013.13 398.826C978.719 375.393 939.832 359.037 893.83 358.435C877.396 358.248 860.798 360.094 844.647 364.054C786.844 377.89 732.724 415.435 697.254 457.898C691.809 464.37 686.793 470.972 681.992 477.639C646.311 527.118 624.974 581.461 595.125 632.81C566.373 681.992 525.597 731.386 467.742 761.761C455.624 768.086 443.122 773.151 429.913 777.168C360.698 798.377 284.879 782.395 213.047 784.696C-12.7145 791.82 -189.592 764.709 -263.166 634.671" stroke="white" stroke-width="0.2" stroke-miterlimit="10"/>
<path d="M1581.96 317.544C1580.25 293.913 1555.39 278.16 1529.85 273.03C1499.3 266.798 1465.63 270.868 1437.02 287.088C1410.06 302.352 1390.47 325.154 1371.43 349.167C1363.98 358.677 1356.42 368.465 1348.4 378.009C1337.72 391.019 1325.76 403.638 1312.16 414.721C1290.57 432.233 1266.41 444.491 1241.81 452.767C1232.81 455.872 1223.82 458.353 1214.68 460.377C1184.37 467.127 1153.39 467.846 1123.86 459.219C1116.81 457.188 1110.16 454.55 1103.8 451.583C1073.08 437.075 1048.4 413.568 1019.06 393.958C984.36 370.855 944.885 355.779 898.768 356.079C882.437 356.236 865.91 358.311 849.828 362.499C792.662 377.154 739.727 414.744 704.797 457.058C699.531 463.481 694.515 470.083 689.714 476.751C654.393 526.13 633.312 580.03 603.144 630.969C574.108 679.857 532.833 728.892 474.769 758.579C462.616 764.79 450.079 769.74 436.98 773.478C367.993 793.506 292.76 776.245 221.456 779.642C-9.58215 790.583 -192.476 758.422 -266.114 627.533" stroke="white" stroke-width="0.2" stroke-miterlimit="10"/>
<path d="M1581.27 314.629C1579.59 291.112 1553.9 275.836 1528.36 271.329C1497.91 266.064 1465.13 271.132 1437.59 287.677C1411.53 303.316 1393.08 326.049 1374.62 350.028C1367.35 359.488 1360 369.341 1352.13 378.721C1341.45 391.731 1329.63 404.186 1315.96 415.039C1294.26 432.208 1269.71 443.827 1245.06 451.251C1236.13 453.962 1227.1 456.329 1218.22 457.909C1188.35 463.543 1158.06 463.327 1129.51 454.058C1122.61 451.863 1116.14 449.175 1109.96 446.159C1079.89 431.222 1055.39 407.666 1026 388.564C991.047 365.904 950.737 351.928 904.717 353.195C888.457 353.581 872.033 356.001 856.201 360.369C799.639 375.726 747.887 413.363 713.497 455.528C708.231 461.951 703.216 468.553 698.594 475.171C663.813 524.401 642.592 577.842 612.175 628.602C582.854 677.196 541.26 725.822 483.023 754.935C470.835 761.032 458.194 765.638 445.275 769.326C376.653 788.632 302.083 769.697 231.126 774.241C-5.29813 789.277 -193.918 751.738 -267.979 620.096" stroke="white" stroke-width="0.2" stroke-miterlimit="10"/>
<path d="M1580.58 311.713C1578.9 288.196 1552.56 273.348 1526.72 269.792C1496.37 265.495 1464.48 271.56 1438.01 288.429C1412.88 304.558 1395.4 327.272 1377.51 351.217C1370.46 360.742 1363.26 370.431 1355.6 379.876C1345.1 392.836 1333.28 405.291 1319.36 415.965C1297.38 432.839 1272.45 443.197 1247.94 450.456C1239.16 453.003 1230.17 454.862 1221.22 456.213C1191.78 460.731 1162.37 459.529 1134.65 449.782C1128.07 447.374 1121.6 444.686 1115.78 441.57C1086.36 426.206 1062.25 402.665 1032.79 383.957C997.582 361.74 956.651 348.93 910.515 351.098C894.359 351.828 878.04 354.592 862.277 359.189C806.353 375.364 755.785 413.048 721.754 455.113C716.489 461.536 711.653 468.088 707.032 474.706C672.576 523.723 651.465 576.885 620.909 627.186C591.339 675.6 549.211 723.752 490.8 752.293C478.577 758.274 466.081 762.716 452.913 766.225C384.448 784.121 310.568 764.249 240.105 769.775C-1.70629 788.907 -196.052 745.99 -270.357 613.546" stroke="white" stroke-width="0.2" stroke-miterlimit="10"/>
<path d="M1579.89 308.797C1578.07 285.445 1551.08 271.025 1525.09 268.256C1494.86 265.04 1463.61 271.923 1438.25 289.232C1414.01 305.735 1397.5 328.431 1380.37 352.291C1373.5 361.767 1366.51 371.521 1358.82 380.851C1348.32 393.811 1336.47 406.152 1322.51 416.711C1300.43 433.241 1275.24 443.42 1250.53 449.368C1241.61 451.456 1232.77 453.151 1224.11 454.174C1195.15 457.691 1166.57 455.388 1139.65 445.049C1133.25 442.591 1127.1 439.689 1121.28 436.573C1092.51 420.781 1068.8 397.256 1039.08 378.991C1003.58 357.103 962.031 345.458 915.994 348.593C899.942 349.667 883.692 352.66 868.179 357.437C812.893 374.43 763.294 412.094 730.018 454.076C724.933 460.449 720.097 467.002 715.656 473.57C681.739 522.437 660.524 575.255 629.828 625.098C599.974 673.218 557.528 720.961 498.728 748.863C486.47 754.73 473.939 759.057 460.847 762.173C392.823 778.953 319.35 757.851 249.414 764.474C2.1064 787.98 -198.035 739.456 -272.584 606.209" stroke="white" stroke-width="0.2" stroke-miterlimit="10"/>
<path d="M1579.17 305.766C1577.34 282.414 1549.52 268.471 1523.38 266.49C1493.26 264.241 1462.89 272.122 1438.61 289.756C1415.44 306.584 1399.75 329.425 1383.16 353.136C1376.47 362.562 1369.66 372.267 1362.18 381.662C1351.86 394.572 1340.01 406.913 1325.95 417.128C1303.58 433.364 1278.19 442.855 1253.42 447.951C1244.61 449.76 1235.84 451.061 1227.07 451.74C1198.56 454.141 1170.85 450.853 1144.75 440.037C1138.5 437.414 1132.53 434.462 1126.86 431.182C1098.92 414.913 1075.42 391.452 1045.63 373.581C1009.88 352.136 967.521 341.706 921.513 345.579C905.565 346.997 889.385 350.219 874.121 355.176C819.474 372.987 771.024 410.582 738.287 452.415C733.202 458.788 728.546 465.291 724.104 471.859C690.693 520.463 669.409 573.052 638.609 622.551C608.47 670.377 565.524 717.76 506.731 745.039C494.438 750.792 481.838 754.889 468.89 757.84C401.093 773.44 328.421 751.123 258.799 758.778C5.48915 786.922 -200.303 732.626 -275.275 598.626" stroke="white" stroke-width="0.2" stroke-miterlimit="10"/>
<path d="M1578.3 302.9C1576.51 279.662 1548.04 266.148 1521.74 264.954C1491.9 263.621 1462.06 272.599 1439.03 290.509C1416.76 307.711 1402.08 330.648 1386.2 354.161C1379.9 363.602 1373.1 373.307 1365.76 382.538C1355.63 395.398 1343.74 407.624 1329.46 417.774C1307.02 433.781 1281.21 442.519 1256.37 446.763C1247.64 448.179 1238.8 449.251 1230.33 449.6C1202.25 450.886 1175.23 446.662 1149.93 435.253C1143.86 432.581 1138.04 429.465 1132.54 426.136C1105.25 409.438 1081.97 386.043 1052.07 368.451C1016.02 347.334 973.047 338.069 926.957 342.959C910.9 344.656 895.184 348.122 879.81 353.358C825.765 371.872 778.534 409.629 746.337 451.313C741.432 457.636 736.776 464.139 732.3 470.592C699.248 519.097 678.039 571.292 646.92 620.382C616.532 668.028 573.232 714.888 514.085 741.644C501.722 747.167 489.088 751.15 476.105 753.986C408.57 768.52 336.519 745.038 267.21 753.724C9.1923 786.273 -202.43 726.256 -277.466 591.403" stroke="white" stroke-width="0.2" stroke-miterlimit="10"/>
<path d="M1577.61 299.984C1575.68 276.91 1546.7 263.659 1520.07 263.302C1490.33 262.937 1461.38 272.912 1439.24 291.196C1417.9 308.888 1404.33 331.642 1388.88 355.285C1382.76 364.676 1376.18 374.446 1368.84 383.677C1358.7 396.537 1346.81 408.763 1332.47 418.684C1309.75 434.397 1283.72 442.446 1258.82 445.838C1250.02 447.025 1241.25 447.703 1232.89 447.774C1205.29 448.059 1179.11 442.734 1154.61 430.733C1148.68 427.897 1143.22 424.682 1137.9 421.303C1111.26 404.177 1088.34 380.682 1058.39 363.599C1022.09 342.925 978.463 334.711 932.471 340.567C916.518 342.608 900.872 346.304 885.782 351.834C832.375 371.166 786.293 408.854 754.636 450.389C749.731 456.713 745.255 463.166 740.779 469.619C708.267 517.975 686.954 569.826 655.73 618.573C625.058 665.924 581.294 712.539 522.083 738.443C509.686 743.851 497.196 747.67 484.144 750.277C416.87 763.745 345.406 738.982 276.589 748.651C12.8953 785.624 -204.413 719.72 -279.871 584.115" stroke="white" stroke-width="0.2" stroke-miterlimit="10"/>
<path d="M1576.92 297.068C1574.99 273.995 1545.18 261.221 1518.44 261.766C1488.76 262.252 1460.73 273.34 1439.66 291.949C1419.39 309.966 1406.65 332.865 1391.93 356.31C1386.02 365.766 1379.58 375.372 1372.42 384.553C1362.46 397.364 1350.54 409.475 1336.13 419.166C1313.12 434.585 1286.89 441.947 1261.92 444.486C1253.23 445.394 1244.54 445.679 1236.11 445.52C1208.95 444.689 1183.64 438.378 1159.97 425.9C1154.36 422.85 1148.9 419.635 1143.73 416.091C1117.92 398.489 1095.21 375.059 1065.01 358.418C1028.46 338.188 984.025 331.189 938.097 337.897C922.248 340.282 906.671 344.207 891.65 349.967C838.813 369.888 793.984 407.851 762.687 449.287C757.961 455.56 753.305 462.063 749.009 468.467C716.822 516.609 695.799 568.132 664.256 616.469C633.335 663.641 589.217 709.732 529.652 735.112C517.22 740.406 504.661 743.995 491.72 746.324C424.707 758.725 353.864 732.797 285.54 743.448C16.4538 785.139 -206.574 713.235 -282.456 576.877" stroke="white" stroke-width="0.2" stroke-miterlimit="10"/>
<path d="M1576.23 294.153C1574.33 271.194 1543.87 258.848 1516.8 260.23C1487.22 261.683 1460.08 273.768 1440.12 292.817C1420.75 311.209 1408.97 334.089 1394.82 357.499C1389.1 366.906 1382.87 376.576 1375.89 385.708C1365.93 398.519 1354.19 410.58 1339.53 420.092C1316.41 435.166 1289.79 441.89 1264.76 443.578C1255.97 444.141 1247.39 444.147 1239.25 443.66C1212.35 441.763 1188.09 434.417 1165.21 421.347C1159.79 418.247 1154.47 414.867 1149.48 411.274C1124.32 393.244 1101.83 369.879 1071.73 353.582C1034.89 333.68 989.834 327.847 943.824 335.572C928.045 338.186 912.572 342.455 897.802 348.394C845.782 369.083 801.922 407.027 771.165 448.314C766.439 454.588 761.963 461.041 757.847 467.395C726.199 515.389 705.072 566.567 673.425 614.561C642.399 661.388 597.603 707.17 538.009 731.813C525.542 736.992 512.914 740.352 500.117 742.516C433.366 753.851 363.179 726.873 295.279 738.277C20.8346 784.8 -207.949 706.781 -284.074 569.62" stroke="white" stroke-width="0.2" stroke-miterlimit="10"/>
<path d="M1575.54 291.237C1573.46 268.328 1542.35 256.41 1515.31 258.529C1486 260.899 1459.39 274.081 1440.69 293.406C1422.24 312.287 1411.44 335.148 1398.04 358.474C1392.5 367.831 1386.45 377.452 1379.5 386.698C1369.73 399.46 1357.77 411.456 1343.07 420.854C1319.68 435.633 1292.85 441.669 1267.75 442.505C1259.06 442.789 1250.6 442.516 1242.32 441.571C1215.9 438.672 1192.47 430.226 1170.42 416.678C1165.14 413.414 1160.01 409.985 1155.2 406.342C1130.69 387.884 1108.59 364.534 1078.24 348.681C1041.14 329.222 995.429 324.44 949.337 333.181C933.662 336.139 918.259 340.637 903.738 346.756C852.322 368.148 809.68 406.253 779.463 447.391C774.737 453.665 770.441 460.069 766.325 466.423C735.183 514.152 713.951 564.987 682.02 612.686C650.71 659.22 605.594 704.592 545.646 728.712C533.145 733.776 520.481 737.021 507.615 738.956C441.126 749.225 371.56 721.081 304.153 733.467C24.3856 784.939 -210.402 700.624 -286.736 562.776" stroke="white" stroke-width="0.2" stroke-miterlimit="10"/>
<path d="M1574.85 288.321C1572.81 265.526 1541.02 253.922 1513.68 256.992C1484.43 260.215 1458.74 274.509 1440.93 294.208C1423.56 313.414 1413.76 336.371 1400.72 359.598C1395.57 368.97 1389.52 378.591 1382.72 387.673C1373.13 400.385 1361.14 412.267 1346.37 421.435C1322.87 435.871 1295.5 441.433 1270.49 441.251C1261.92 441.257 1253.35 440.64 1245.35 439.366C1219.38 435.352 1196.64 425.969 1175.39 411.83C1170.29 408.516 1165.48 404.873 1160.63 401.115C1136.95 382.179 1115.07 358.895 1084.64 343.435C1047.29 324.42 1000.74 320.738 954.928 330.396C939.357 333.698 924.024 338.426 909.572 344.774C858.794 366.984 817.302 405.02 787.624 446.01C783.078 452.234 778.782 458.637 774.666 464.991C743.883 512.622 722.728 563.063 690.657 610.303C659.097 656.657 613.628 701.506 553.326 725.102C540.79 730.051 528.237 733.018 515.336 734.838C449.073 743.926 380.344 714.682 313.215 727.985C28.1245 784.404 -212.453 693.86 -289.03 555.209" stroke="white" stroke-width="0.2" stroke-miterlimit="10"/>
<path d="M1574.16 285.405C1572.11 262.61 1539.67 251.434 1512 255.341C1482.86 259.531 1458.06 274.822 1441.32 294.846C1424.87 314.542 1416.01 337.365 1403.72 360.508C1398.75 369.831 1393.1 379.467 1386.12 388.599C1376.53 401.311 1364.71 413.143 1349.7 422.131C1325.95 436.387 1298.34 441.147 1273.26 440.114C1264.58 439.775 1256.12 438.879 1248.24 437.326C1222.74 432.311 1200.81 421.714 1180.42 407.211C1175.46 403.733 1170.83 400.04 1166.35 396.183C1143.32 376.82 1121.65 353.6 1091.33 338.484C1053.68 319.798 1006.51 317.281 960.583 327.841C945.082 331.372 929.888 336.558 915.686 343.086C865.511 366 825.237 404.197 796.099 445.037C791.554 451.261 787.437 457.615 783.321 463.969C753.043 511.336 731.818 561.548 699.643 608.444C667.799 654.504 621.831 698.994 561.5 721.852C548.895 726.572 536.307 729.424 523.516 730.965C457.515 738.987 389.441 708.693 322.771 722.863C32.4269 784.459 -214.19 687.505 -291.011 548.051" stroke="white" stroke-width="0.2" stroke-miterlimit="10"/>
<path d="M1573.47 282.489C1571.28 259.859 1538.15 248.995 1510.37 253.804C1481.29 258.846 1457.41 275.25 1441.74 295.599C1426.37 315.62 1418.33 338.588 1406.59 361.583C1401.83 370.971 1396.32 380.443 1389.52 389.525C1380.11 402.186 1368.08 413.954 1353.03 422.827C1329.17 436.74 1301.18 440.861 1276.04 438.975C1267.47 438.358 1259.08 437.069 1251.31 435.237C1226.25 429.106 1205.19 417.523 1185.6 402.428C1181 398.85 1176.34 395.043 1172.03 391.137C1149.8 371.181 1128.34 348.026 1097.8 333.468C1059.9 315.225 1012.07 313.759 966.064 325.335C950.667 329.211 935.543 334.626 921.41 341.383C871.873 365.114 832.569 403.293 803.97 443.984C799.605 450.158 795.488 456.513 791.372 462.867C761.634 510.084 740.305 559.952 707.811 606.44C675.682 652.205 629.395 696.286 568.711 718.62C556.07 723.226 543.448 725.963 530.587 727.275C464.847 734.231 397.43 702.886 331.183 717.809C35.8003 784.647 -216.89 681.168 -294.135 540.962" stroke="white" stroke-width="0.2" stroke-miterlimit="10"/>
<path d="M1572.78 279.573C1570.63 257.058 1536.78 246.393 1508.91 252.218C1480.11 258.177 1456.76 275.678 1442.17 296.352C1427.69 316.747 1420.62 339.697 1409.67 362.722C1405.09 372.06 1399.79 381.597 1393.18 390.63C1383.79 403.406 1371.91 415.009 1356.76 423.539C1332.62 437.157 1304.41 440.59 1279.21 437.852C1270.57 437.006 1262.26 435.323 1254.57 433.097C1229.77 425.9 1209.76 413.282 1190.96 397.595C1186.51 393.853 1182.2 389.946 1177.9 386.04C1156.31 365.656 1135.25 342.517 1104.63 328.353C1066.3 310.602 1018.14 310.596 971.906 322.73C956.544 326.72 941.558 332.594 927.675 339.531C878.741 363.966 840.656 402.305 812.597 442.847C808.266 449.136 804.115 455.375 800.358 461.63C770.981 508.749 749.906 558.174 717.128 604.367C684.75 649.952 637.929 693.559 577.251 715.271C564.576 719.762 552.063 722.22 539.168 723.417C473.69 729.307 407.108 696.861 340.959 712.752C40.3932 784.995 -218.226 674.828 -295.714 533.819" stroke="white" stroke-width="0.2" stroke-miterlimit="10"/>
<path d="M1572.09 276.657C1569.94 254.142 1535.26 243.954 1507.24 250.567C1478.5 257.378 1456.07 275.991 1442.56 296.99C1429.19 317.825 1423.08 340.756 1412.49 363.681C1408.31 373.035 1403.01 382.572 1396.36 391.49C1387.16 404.217 1375.24 415.705 1359.87 424.17C1335.45 437.494 1307.03 440.239 1281.77 436.649C1273.2 435.409 1265 433.447 1257.42 430.942C1233.1 422.744 1213.74 409.075 1195.95 392.861C1191.65 388.955 1187.52 384.999 1183.36 380.928C1162.43 360.116 1141.58 337.043 1110.85 323.157C1072.26 305.849 1023.13 306.485 977.312 319.995C962.089 324.444 947.138 330.432 933.325 337.598C885.029 362.851 848.093 401.121 820.574 441.515C816.423 447.754 812.271 453.994 808.515 460.248C779.642 507.103 758.498 556.299 725.581 602.033C692.919 647.325 645.813 690.637 584.712 711.596C572.002 715.972 559.454 718.316 546.67 719.234C481.453 724.058 415.527 690.562 349.837 707.32C44.3014 785.034 -220.641 668.163 -298.373 526.352" stroke="white" stroke-width="0.2" stroke-miterlimit="10"/>
<path d="M1571.4 273.742C1569.1 251.39 1533.88 241.975 1505.61 249.031C1476.79 256.235 1455.42 276.419 1442.98 297.743C1430.5 318.953 1425.4 341.979 1415.53 364.707C1411.53 374.011 1406.41 383.498 1399.97 392.481C1390.77 405.208 1378.86 416.696 1363.42 424.931C1338.89 437.911 1309.91 440.068 1284.79 435.691C1276.16 434.222 1268.07 431.981 1260.56 429.082C1236.68 419.769 1218.19 405.114 1201.02 388.357C1196.9 384.401 1192.92 380.281 1189.12 376.111C1169.01 354.822 1148.2 331.863 1117.58 318.321C1078.73 301.457 1028.94 303.143 983.041 317.669C967.743 322.512 953.041 328.68 939.512 336.14C891.82 362.096 856.102 400.527 829.123 440.772C824.972 447.011 821 453.201 817.244 459.456C788.731 506.212 767.663 555.013 734.641 600.404C701.695 645.401 654.09 688.354 592.995 708.69C580.25 712.952 567.633 715.066 554.993 715.82C490.073 719.693 424.461 683.376 359.501 702.541C50.898 793.279 -222.588 661.743 -300.709 519.293" stroke="white" stroke-width="0.2" stroke-miterlimit="10"/>
<path d="M1570.5 270.761C1568.23 248.524 1532.19 238.963 1503.93 247.379C1475.32 255.895 1454.74 276.732 1443.19 298.431C1431.82 320.08 1427.47 343.023 1418.21 365.83C1414.39 375.085 1409.49 384.637 1403.2 393.456C1394.17 406.133 1382.22 417.507 1366.53 425.562C1341.72 438.248 1312.57 439.831 1287.35 434.488C1278.79 432.625 1270.64 430.154 1263.42 426.928C1239.83 416.662 1222.36 400.857 1206.02 383.623C1202.04 379.503 1198.42 375.284 1194.62 371.114C1175.34 349.347 1154.75 326.453 1123.87 313.354C1084.73 296.819 1034.14 299.72 988.341 315.213C973.112 320.285 958.515 326.797 945.235 334.437C898.181 361.211 863.612 399.574 837.172 439.669C833.201 445.859 829.23 452.049 825.439 458.189C797.431 504.681 776.293 553.253 742.952 598.235C709.756 643.052 661.798 685.482 600.314 705.18C587.534 709.327 574.848 711.212 562.139 711.737C497.444 714.428 432.698 677.749 368.022 697.209C54.6128 791.384 -224.716 655.372 -303.08 512.12" stroke="white" stroke-width="0.2" stroke-miterlimit="10"/>
<path d="M1569.81 267.845C1567.55 245.608 1530.63 236.41 1502.27 245.728C1473.72 255.095 1454.06 277.045 1443.58 299.069C1433.1 321.093 1429.94 344.082 1421.22 366.74C1417.61 376.06 1412.86 385.448 1406.6 394.381C1397.76 407.009 1385.8 418.382 1370.05 426.209C1345.16 438.665 1315.58 439.495 1290.31 433.299C1281.68 431.207 1273.78 428.294 1266.45 424.723C1243.31 413.342 1226.71 396.551 1211.16 378.725C1207.54 374.506 1203.89 370.171 1200.23 365.837C1181.61 343.643 1161.41 320.764 1130.45 308.059C1091.06 291.967 1039.81 295.918 994.111 312.379C978.986 317.794 964.459 324.536 951.249 332.405C904.798 359.882 871.448 398.406 845.548 438.352C841.577 444.542 837.785 450.682 833.994 456.822C806.526 503.165 785.249 551.279 751.838 596.032C718.538 640.505 669.901 682.625 608.243 701.749C595.429 705.782 582.887 707.503 570.109 707.798C505.676 709.424 442.114 672.79 377.333 691.906C57.4244 786.508 -226.697 648.837 -305.304 504.782" stroke="white" stroke-width="0.2" stroke-miterlimit="10"/>
<path d="M1569.12 264.929C1566.67 242.742 1529.08 233.857 1500.63 244.191C1472.18 254.526 1453.4 277.473 1444 299.822C1434.6 322.171 1432.22 345.19 1424.08 367.815C1415.93 390.439 1400.23 413.903 1373.37 426.905C1339.7 443.154 1297.58 438.001 1269.34 422.683C1241.1 407.365 1223.75 383.577 1205.77 360.955C1187.79 338.333 1167.99 315.469 1136.78 303.207C1084.04 282.347 1009.71 298.258 957.003 330.817C904.116 363.424 869.399 409.655 842.29 455.899C815.147 502.029 793.98 549.864 760.431 594.157C726.881 638.451 677.89 680.048 616.058 698.599C538.463 721.747 463.916 663.047 386.565 686.998C61.9017 787.136 -228.828 642.467 -307.678 497.609" stroke="white" stroke-width="0.2" stroke-miterlimit="10"/>
<path d="M1569.51 265.568C1566.86 245.922 1530.32 239.23 1501.36 250.451C1473.3 261.424 1454.09 284.241 1443.83 306.33C1436.58 321.625 1432.66 336.994 1427.89 352.103C1425.85 358.877 1423.56 365.473 1420.7 372.102C1411.81 393.565 1396.06 415.553 1369.42 427.375C1346.07 437.794 1318.86 438.094 1294.77 431.944C1284.61 429.282 1274.92 425.62 1266.49 420.986C1238.18 405.439 1219.75 381.949 1200.97 359.919C1185.54 341.814 1168.77 323.827 1145.78 311.659C1140.64 308.853 1135.2 306.375 1129.3 304.276C1075.8 284.745 1001.68 301.345 948.968 334.526C937.522 341.784 926.859 349.696 916.91 358.032C881.56 388.037 856.126 424.376 835.392 460.786C808.928 507.225 788.26 555.419 755.389 600.022C722.559 644.118 674.538 685.695 613.315 704.326C606.693 706.278 600.112 707.721 593.571 708.656C528.277 717.725 464.779 678.092 400.367 688.782C395.55 689.614 390.803 690.675 386.125 691.966C315.913 712.456 247.573 721.124 181.968 721.458C72.509 721.839 -28.726 699.203 -110.534 664.125C-201.846 624.711 -269.5 569.451 -302.666 514.119" stroke="white" stroke-width="0.2" stroke-miterlimit="10"/>
<path d="M1569.9 266.206C1567.01 248.986 1531.53 244.489 1502.3 256.776C1474.63 268.387 1455 291.074 1443.66 312.838C1435.8 328.053 1430.99 343.047 1425.22 357.437C1422.68 363.852 1420.14 370.268 1417.14 376.439C1407.51 396.739 1391.66 417.138 1365.33 428.008C1342.27 437.476 1315.46 437.169 1291.7 430.805C1281.49 428.029 1271.95 424.201 1263.49 419.453C1234.93 403.726 1215.81 380.55 1196.21 358.997C1179.94 341.369 1162.2 324.024 1138.63 312.513C1133.34 309.872 1127.76 307.558 1121.72 305.624C1067.27 287.472 993.359 304.759 940.854 338.628C929.442 346.001 918.814 354.027 909.08 362.428C874.049 392.843 849.079 429.427 828.629 466.13C802.664 512.929 783.035 561.333 750.303 606.396C718.373 650.243 670.995 692.015 610.347 710.612C603.76 712.678 597.179 714.121 590.638 715.056C525.809 724.37 462.665 685.26 399.234 694.686C394.562 695.353 389.994 696.365 385.317 697.656C316.521 716.389 249.521 723.692 184.892 723.384C76.6633 722.681 -24.9841 701.898 -106.532 669.606C-197.41 633.551 -264.421 582.338 -298.058 531.236" stroke="white" stroke-width="0.2" stroke-miterlimit="10"/>
<path d="M1570.07 266.779C1566.94 251.986 1532.51 249.682 1502.85 263.085C1475.57 275.334 1455.5 297.891 1443.28 319.28C1434.77 334.3 1428.89 348.969 1422.51 362.656C1419.69 368.777 1416.83 374.784 1413.55 380.66C1403.17 399.799 1387.27 418.723 1361.16 428.412C1338.36 436.814 1311.99 436.014 1288.51 429.321C1278.46 426.381 1268.88 422.439 1260.42 417.691C1231.79 401.734 1211.99 378.871 1191.19 357.895C1174.28 340.695 1155.56 323.992 1131.41 313.138C1125.97 310.661 1120.25 308.512 1114.24 306.692C1059.06 289.984 985.36 307.96 932.994 342.287C921.617 349.775 911.024 357.916 901.324 366.431C866.613 397.255 841.892 434.018 822.086 470.917C796.62 518.075 777.67 566.789 745.617 612.161C714.621 655.874 667.998 697.563 607.959 716.24C601.372 718.306 594.97 719.7 588.465 720.749C524.099 730.308 461.344 691.836 398.894 699.997C394.402 700.615 389.8 701.512 385.087 702.688C317.563 719.828 252.264 725.668 188.395 724.653C81.1825 722.8 -20.6628 703.936 -101.77 674.379C-192.284 641.454 -258.582 594.518 -292.871 547.695" stroke="white" stroke-width="0.2" stroke-miterlimit="10"/>
<path d="M1570.46 267.417C1567.09 255.051 1533.76 255.055 1503.62 269.459C1476.72 282.347 1456.19 304.659 1443.14 325.903C1433.99 340.728 1427.21 355.022 1420.06 368.055C1416.95 373.882 1413.63 379.644 1410.2 385.062C1399.08 403.039 1382.95 420.537 1357.06 429.046C1334.56 436.496 1308.63 435.203 1285.62 428.132C1275.71 425.027 1266.09 420.971 1257.63 416.223C1228.72 399.972 1208.05 377.472 1186.46 357.088C1168.68 340.251 1149.21 324.254 1124.29 314.107C1118.72 311.794 1112.85 309.81 1106.69 308.154C1050.75 292.776 977.072 311.489 924.88 346.39C913.538 353.992 903.16 362.198 893.315 370.878C858.708 402.045 834.486 439.168 815.144 476.311C790.357 523.779 772.086 572.803 740.532 618.534C710.436 661.999 664.602 703.718 605.207 722.591C598.799 724.607 592.253 726.165 585.892 727.05C522.026 736.968 459.41 698.955 397.941 705.851C393.414 706.355 388.957 707.087 384.425 708.214C318.316 723.596 254.359 728.072 191.285 726.465C85.3029 723.527 -16.8099 706.351 -97.8022 679.745C-187.916 650.065 -253.537 607.29 -288.477 564.747" stroke="white" stroke-width="0.2" stroke-miterlimit="10"/>
<path d="M1570.81 267.941C1567.21 258.001 1534.93 260.199 1504.35 275.718C1477.84 289.244 1456.88 311.426 1442.94 332.296C1433.14 346.925 1425.47 360.845 1417.57 373.339C1413.99 378.921 1410.53 384.225 1406.82 389.348C1394.96 406.164 1378.77 422.187 1353.15 429.629C1330.94 436.128 1305.41 434.228 1282.69 426.828C1272.74 423.609 1263.31 419.503 1254.82 414.64C1225.83 398.16 1204.3 376.022 1181.7 356.166C1163.09 339.806 1142.64 324.451 1117.32 314.912C1111.6 312.763 1105.59 310.943 1099.47 309.401C1042.58 295.403 969.29 314.754 917.306 350.343C906 358.06 895.656 366.38 886.026 375.125C851.737 406.701 827.945 443.955 808.888 481.392C784.565 529.104 767.187 578.503 735.952 624.643C706.756 667.86 661.711 709.61 602.925 728.563C596.518 730.579 590.151 732.087 583.646 733.137C520.063 743.349 458.016 705.925 397.528 711.556C393.146 711.895 388.689 712.628 384.302 713.59C319.43 727.264 256.993 730.327 194.895 728.079C90.1782 724.17 -12.4168 708.618 -92.9341 684.863C-182.649 658.427 -247.592 619.814 -283.003 581.501" stroke="white" stroke-width="0.2" stroke-miterlimit="10"/>
<path d="M1571.2 268.579C1567.21 261.23 1536.1 265.343 1505.25 281.928C1479.1 295.978 1457.57 318.194 1442.95 338.754C1432.54 353.303 1423.94 366.733 1415.25 378.574C1411.4 383.862 1407.62 388.756 1403.63 393.586C1391.02 409.239 1374.73 423.673 1349.37 430.049C1327.46 435.597 1302.33 433.088 1279.9 425.361C1270.1 421.977 1260.63 417.756 1252.14 412.893C1222.91 396.234 1200.69 374.409 1177.26 355.03C1157.82 339.148 1136.57 324.385 1110.46 315.438C1104.6 313.453 1098.44 311.797 1092.14 310.306C1034.48 297.637 961.257 317.84 909.413 353.888C898.141 361.719 887.832 370.154 878.237 379.014C844.053 410.934 820.759 448.546 802.166 486.229C778.522 534.25 761.643 584.008 731.053 630.343C702.61 673.476 658.534 715.208 600.323 734.126C593.951 736.257 587.584 737.765 581.259 738.765C518.141 749.222 456.302 712.486 396.94 716.688C392.559 717.027 388.247 717.596 384.004 718.394C320.549 730.31 259.668 732.074 198.33 729.119C94.8088 724.011 -7.98393 710.377 -88.4209 689.457C-177.556 666.216 -241.967 631.929 -278.064 597.781" stroke="white" stroke-width="0.2" stroke-miterlimit="10"/>
<path d="M1571.41 269.267C1567.18 264.344 1537.12 270.65 1505.84 288.352C1480.04 302.925 1458.11 325.126 1442.59 345.311C1431.55 359.665 1421.87 372.771 1412.4 383.957C1408.26 388.951 1404.02 393.601 1399.89 397.972C1386.5 412.348 1370.19 425.422 1345.09 430.732C1323.45 435.213 1298.93 432.163 1276.65 424.271C1266.81 420.772 1257.49 416.387 1248.99 411.524C1219.69 394.635 1196.57 373.059 1172.17 354.321C1151.86 338.802 1129.86 324.747 1102.99 316.506C1096.97 314.686 1090.85 313.144 1084.23 311.867C1025.8 300.528 952.787 321.419 901.117 358.039C889.88 365.985 879.606 374.535 870.225 383.46C836.36 415.789 813.316 453.581 795.222 491.623C772.077 540.004 756.057 590.022 725.965 636.716C698.422 679.601 654.956 721.413 597.534 740.362C591.341 742.443 584.975 743.951 578.684 745.066C516.03 755.768 454.58 719.669 396.199 722.607C391.963 722.782 387.831 723.301 383.554 723.984C321.515 734.143 261.975 734.543 201.577 730.831C99.1067 724.688 -3.77358 712.694 -83.9154 694.674C-172.651 674.677 -236.384 644.551 -272.952 614.634" stroke="white" stroke-width="0.2" stroke-miterlimit="10"/>
<path d="M1571.76 269.791C1567.3 267.294 1538.26 275.68 1506.57 294.612C1481.12 309.708 1458.8 331.894 1442.39 351.704C1430.7 365.864 1420.13 378.594 1409.88 389.127C1405.24 393.762 1400.89 398.068 1396.47 402.144C1382.53 415.309 1365.98 426.957 1341.11 431.087C1319.76 434.617 1295.67 431.073 1273.65 422.738C1263.96 419.075 1254.6 414.575 1246.07 409.598C1216.52 392.529 1192.72 371.266 1167.3 353.056C1146.35 337.965 1123.18 324.6 1095.91 316.967C1089.76 315.311 1083.45 313.819 1076.9 312.771C1017.71 302.762 944.72 324.39 893.259 361.699C882.056 369.759 871.817 378.424 862.471 387.463C828.745 420.251 806.345 458.238 788.681 496.41C766.034 545.15 750.693 595.478 721.28 642.482C694.637 685.118 651.96 726.961 594.968 746.04C588.775 748.121 582.443 749.744 576.152 750.859C513.963 761.805 452.901 726.345 395.467 727.904C391.41 728.029 387.209 728.318 383.111 728.952C322.344 737.518 264.47 736.34 204.687 732.086C103.448 724.857 0.334601 714.666 -79.7268 699.483C-167.883 682.68 -231.118 656.766 -268.338 631.128" stroke="white" stroke-width="0.2" stroke-miterlimit="10"/>
<path d="M1572.15 270.429C1567.45 270.359 1539.46 280.938 1507.33 300.986C1482.42 316.556 1459.53 338.777 1442.08 358.376C1429.56 372.39 1418.28 384.697 1407.24 394.576C1402.32 398.916 1397.69 402.928 1392.95 406.595C1378.26 418.599 1361.66 428.771 1337.01 431.72C1315.96 434.299 1292.28 430.148 1270.54 421.484C1260.99 417.657 1251.64 413.157 1243.07 408.065C1213.45 390.767 1188.75 369.752 1162.36 352.184C1140.54 337.455 1116.62 324.798 1088.58 317.871C1082.28 316.38 1075.84 315.052 1069.13 314.168C1009.18 305.489 936.434 327.92 885.111 365.687C873.944 373.862 863.884 382.477 854.428 391.795C820.987 424.877 798.871 463.159 781.705 501.689C759.703 550.625 745.041 601.262 715.982 648.79C690.058 691.228 648.35 733.051 592.002 752.326C585.809 754.407 579.657 755.98 573.401 757.209C511.531 768.565 450.823 733.628 394.55 733.872C390.458 733.883 386.437 734.123 382.485 734.592C323.134 741.401 266.6 738.859 207.793 733.963C107.784 725.649 4.22358 717.197 -75.3976 704.749C-162.975 691.142 -225.712 669.439 -263.583 648.081" stroke="white" stroke-width="0.2" stroke-miterlimit="10"/>
<path d="M1572.32 271.002C1567.38 273.359 1540.42 286.017 1508.03 307.131C1483.47 323.225 1459.96 345.365 1441.84 364.655C1428.71 378.588 1416.54 390.52 1404.68 399.631C1399.47 403.677 1394.34 407.329 1389.68 410.603C1374.25 421.445 1357.59 430.142 1333.2 432.025C1312.63 433.603 1289.17 428.893 1267.93 419.966C1258.35 416.024 1249.14 411.36 1240.58 406.268C1210.71 388.791 1185.32 368.089 1158.1 350.998C1135.45 336.747 1110.73 324.682 1082.12 318.412C1075.64 316.97 1069.08 315.922 1062.38 315.038C1001.66 307.688 928.941 330.857 877.792 369.197C866.839 377.437 856.635 386.216 847.393 395.6C814.091 429.14 792.619 467.617 775.738 506.442C754.234 555.736 740.251 606.683 711.871 654.521C686.847 696.711 645.963 738.68 590.189 757.92C583.997 760.001 577.88 761.689 571.769 762.754C510.362 774.354 450.043 740.056 394.716 738.92C390.805 738.881 386.748 739.007 382.761 739.361C324.827 744.412 269.849 740.571 211.802 734.968C112.989 725.455 9.23097 718.921 -70.3098 709.309C-157.487 698.946 -219.367 681.355 -257.889 664.277" stroke="white" stroke-width="0.2" stroke-miterlimit="10"/>
<path d="M1572.71 271.64C1567.57 276.538 1541.59 291.161 1508.79 313.505C1484.41 330.172 1460.69 352.247 1441.67 371.162C1427.9 384.901 1414.83 396.458 1402.22 405.03C1396.73 408.782 1391.28 412.025 1386.34 415.004C1370.31 424.52 1353.45 431.907 1329.29 432.609C1309 433.235 1286.12 427.869 1265 418.662C1255.57 414.556 1246.32 409.777 1237.76 404.686C1207.64 387.028 1181.56 366.64 1153.34 350.076C1129.86 336.303 1104.16 324.879 1074.97 319.267C1068.34 317.989 1061.64 317.105 1054.79 316.385C993.303 310.365 920.798 334.221 869.858 373.249C858.94 381.604 848.77 390.498 839.563 399.996C806.545 433.831 785.358 472.602 768.941 511.672C748.116 561.276 734.811 612.533 706.93 660.729C682.626 702.721 642.711 744.671 587.547 763.991C581.569 766.137 575.417 767.711 569.161 768.94C508.218 780.784 448.288 747.125 393.942 744.725C389.996 744.571 386.119 744.647 382.278 744.837C325.615 748.295 272.123 742.926 215.051 736.681C117.469 726.083 13.6228 721.188 -65.8028 714.526C-152.436 707.243 -213.783 693.978 -252.956 681.179" stroke="white" stroke-width="0.2" stroke-miterlimit="10"/>
<path d="M1573.1 272.279C1567.54 279.653 1542.76 296.305 1509.55 319.879C1485.49 336.955 1461.41 359.129 1441.53 377.785C1427.12 391.328 1413.16 402.511 1399.59 410.479C1393.63 413.986 1388.08 416.885 1382.81 419.456C1366.22 427.76 1349.12 433.721 1325.22 433.357C1305.24 433.032 1282.76 427.058 1261.96 417.638C1252.67 413.367 1243.39 408.474 1234.82 403.382C1204.64 385.496 1177.48 365.405 1148.46 349.433C1124.11 336.023 1097.66 325.306 1067.89 320.351C1061.3 319.188 1054.45 318.468 1047.46 317.912C985.2 313.222 912.758 337.93 861.957 377.417C851.074 385.887 840.939 394.895 831.947 404.458C799.248 438.702 778.345 477.767 762.392 517.081C742.066 567.045 729.406 618.497 702.059 667.167C678.654 708.911 639.348 750.941 584.973 770.292C578.995 772.438 572.878 774.126 566.802 775.306C506.324 787.395 446.602 754.423 393.382 750.594C389.581 750.276 385.885 750.302 382.008 750.378C326.762 752.078 274.791 745.296 218.334 738.508C121.982 726.825 17.8688 723.62 -61.4416 719.908C-147.315 715.77 -208.344 706.765 -247.989 698.197" stroke="white" stroke-width="0.2" stroke-miterlimit="10"/>
<path d="M1573.27 272.852C1567.47 282.652 1543.54 301.433 1510.28 326.139C1486.57 343.738 1461.92 365.947 1441.32 384.178C1426.09 397.576 1411.41 408.334 1397.06 415.649C1390.82 418.861 1384.95 421.351 1379.4 423.628C1362.25 430.72 1344.91 435.256 1321.06 433.761C1301.37 432.484 1279.29 425.903 1258.78 416.154C1249.46 411.769 1240.35 406.826 1231.76 401.62C1201.32 383.554 1173.48 363.776 1143.45 348.331C1118.27 335.398 1091.02 325.274 1060.45 320.911C1053.72 319.912 1046.72 319.356 1039.59 318.965C976.564 315.604 904.331 341.001 853.704 381.061C842.855 389.645 832.755 398.768 823.798 408.446C791.238 443.148 770.944 482.294 755.491 521.967C735.629 572.176 723.682 624.052 697.014 673.032C674.329 714.577 635.992 756.588 582.261 776.134C576.283 778.281 570.346 779.919 564.305 781.213C504.111 793.597 444.992 761.328 392.539 756.169C388.918 755.802 385.152 755.599 381.455 755.624C327.66 755.682 276.995 747.421 221.514 739.992C126.357 727.109 22.0463 725.822 -57.0038 724.895C-142.298 723.953 -202.829 719.159 -243.125 714.871" stroke="white" stroke-width="0.2" stroke-miterlimit="10"/>
<path d="M1573.66 273.49C1567.63 285.717 1544.67 306.462 1511.05 332.513C1487.66 350.522 1462.64 372.829 1441.16 390.686C1425.27 403.889 1409.71 414.272 1394.57 420.933C1388.05 423.851 1381.89 426.047 1376.02 427.915C1358.16 433.96 1340.73 436.906 1317.14 434.345C1297.75 432.117 1276.1 425.043 1255.85 414.851C1246.68 410.301 1237.54 405.244 1228.9 399.923C1198.4 381.627 1169.69 362.212 1138.83 347.245C1112.83 334.79 1084.6 325.307 1053.45 321.601C1046.57 320.767 1039.4 320.261 1032.11 320.034C968.326 318.002 896.301 344.087 845.703 384.884C834.889 393.583 825.004 402.771 815.902 412.613C783.626 447.61 763.651 487.164 748.627 526.968C729.444 577.486 718.176 629.672 692.007 679.011C670.041 720.358 632.709 762.465 579.372 782.026C573.574 784.123 567.492 785.925 561.45 787.22C501.755 799.963 442.99 768.218 391.484 761.68C387.828 761.197 384.242 760.945 380.69 760.806C328.132 759.156 279.168 749.431 224.481 741.41C130.556 727.442 26.157 727.795 -52.9579 729.868C-137.708 732.005 -197.671 731.652 -238.653 731.529" stroke="white" stroke-width="0.2" stroke-miterlimit="10"/>
<path d="M1574.05 274.129C1567.77 288.782 1545.84 311.606 1511.78 338.773C1488.74 357.305 1463.12 379.532 1440.8 397.243C1424.28 410.251 1407.82 420.26 1391.9 426.267C1385.09 428.891 1378.51 430.334 1372.46 432.251C1354.53 438.067 1336.4 438.721 1313.01 434.864C1293.95 431.799 1272.85 423.953 1252.74 413.597C1243.71 408.883 1234.54 403.711 1225.9 398.39C1195.14 379.915 1165.72 360.699 1133.89 346.373C1107.01 334.28 1078.03 325.504 1046.3 322.456C1039.27 321.786 1031.95 321.444 1024.71 321.332C960.332 320.58 888.191 347.567 837.912 388.773C827.133 397.587 817.283 406.889 808.395 416.796C776.258 452.252 756.713 491.936 742.188 532.099C723.504 582.976 712.88 635.357 687.424 685.121C666.358 726.219 629.815 768.357 577.088 787.999C571.325 790.21 565.387 791.848 559.381 793.257C500.15 806.245 441.594 775.188 391.248 767.336C387.772 766.804 384.151 766.436 380.745 766.133C329.638 762.84 281.98 751.637 228.268 742.974C135.393 727.971 30.9074 729.963 -47.9124 734.936C-132.083 740.268 -191.549 744.127 -233.002 748.234" stroke="white" stroke-width="0.2" stroke-miterlimit="10"/>
<path d="M1574.41 274.652C1567.92 291.847 1546.76 316.57 1512.51 345.032C1489.79 363.973 1463.81 386.3 1440.6 403.636C1423.46 416.564 1406.11 426.198 1389.37 431.437C1382.07 433.702 1375.52 435.259 1369.05 436.423C1350.06 440.046 1332.19 440.256 1309.02 435.218C1290.43 431.152 1269.56 422.749 1249.74 412.064C1240.67 407.235 1231.86 401.964 1223.01 396.578C1192.19 377.873 1161.72 359.07 1129.09 345.336C1101.57 333.672 1071.57 325.423 1039.11 323.195C1031.94 322.69 1024.48 322.512 1017.09 322.564C951.911 323.028 880.014 350.817 829.763 392.761C819.019 401.689 809.203 411.106 800.316 421.013C768.463 456.763 749.417 496.807 735.176 537.264C717.171 588.451 707.046 641.191 682.089 691.314C661.743 732.214 626.169 774.333 574.051 794.055C568.288 796.266 562.385 798.019 556.559 799.378C497.792 812.61 439.624 782.192 390.225 772.96C386.714 772.314 383.273 771.896 379.832 771.479C330.141 766.428 284.004 753.812 231.053 744.442C139.374 728.239 34.8353 731.985 -44.0491 739.958C-127.495 748.321 -186.608 756.555 -228.712 764.941" stroke="white" stroke-width="0.2" stroke-miterlimit="10"/>
<path d="M1574.62 275.34C1567.9 294.961 1547.58 321.813 1513.27 351.406C1490.69 370.806 1464.53 393.182 1440.43 410.144C1422.47 422.926 1404.4 432.136 1386.74 436.886C1379.15 438.856 1372.28 440.004 1365.53 440.874C1346.01 443.4 1327.87 442.07 1304.96 435.966C1286.67 430.949 1266.19 421.937 1246.85 410.874C1237.92 405.882 1229.08 400.496 1220.05 395.159C1188.97 376.275 1157.82 357.785 1124.18 344.578C1095.83 333.391 1065.04 325.734 1032 324.164C1024.68 323.823 1017.26 323.76 1009.72 323.976C943.776 325.77 871.942 354.411 822.01 396.764C811.301 405.806 801.52 415.339 792.847 425.31C761.134 461.519 742.517 501.692 728.74 542.394C711.234 593.941 701.753 646.876 677.51 697.423C657.883 738.124 623.098 780.274 571.77 800.027C566.186 802.189 560.284 803.941 554.277 805.35C495.795 818.877 438.231 789.161 389.778 778.551C386.447 777.854 383.151 777.273 379.675 776.741C331.256 770.097 286.639 756.067 234.449 745.99C144.001 728.702 39.1942 734.137 -39.3952 745.011C-122.296 756.454 -180.877 769.013 -223.633 781.68" stroke="white" stroke-width="0.2" stroke-miterlimit="10"/>
<path d="M1574.97 275.863C1568.01 297.911 1548.68 326.727 1514 357.665C1491.74 377.474 1465 399.885 1440.26 416.651C1421.66 429.239 1402.69 438.073 1384.24 442.17C1376.37 443.846 1369.04 444.75 1362.14 445.161C1342.11 446.59 1323.54 443.884 1301.01 436.435C1282.83 430.516 1263.12 420.798 1243.92 409.571C1235.14 404.414 1226.25 398.913 1217.23 393.576C1186.08 374.463 1154.03 356.221 1119.59 343.607C1090.38 332.782 1058.65 325.882 1025.03 324.969C1017.57 324.792 1009.99 324.893 1002.31 325.274C935.602 328.397 863.977 357.726 814.04 400.702C803.365 409.859 793.619 419.506 784.981 429.592C753.586 466.209 735.434 506.628 721.941 547.624C704.899 599.415 696.132 652.775 672.568 703.632C653.661 744.134 619.88 786.38 569.16 806.213C563.577 808.375 557.709 810.242 551.883 811.601C493.865 825.373 436.509 796.345 389.182 784.305C385.997 783.445 382.666 782.749 379.405 782.282C332.402 773.88 289.306 758.436 237.911 747.768C148.658 729.28 43.7646 736.354 -34.8895 750.228C-117.066 764.701 -175.294 781.636 -218.521 798.533" stroke="white" stroke-width="0.2" stroke-miterlimit="10"/>
<path d="M1575.36 276.502C1567.98 301.026 1549.63 331.806 1514.73 363.925C1492.64 384.307 1465.69 406.653 1440.05 423.045C1420.81 435.437 1400.95 443.897 1381.72 447.34C1373.56 448.721 1365.95 449.331 1358.73 449.333C1337.95 449.6 1319.33 445.42 1297.06 436.905C1279.21 430.149 1259.86 419.708 1240.95 408.152C1232.14 402.881 1223.4 397.216 1214.37 391.879C1182.98 372.586 1150.24 354.657 1114.79 342.57C1084.75 332.223 1052.22 325.915 1017.85 325.709C1010.24 325.696 1002.52 325.962 994.657 326.392C927.183 330.845 855.586 360.911 806.038 404.525C795.398 413.797 785.866 423.509 777.083 433.76C745.793 470.721 728.105 511.384 715.256 552.576C698.893 604.676 690.59 658.28 667.525 709.497C649.517 749.751 616.526 792.027 566.415 811.941C560.867 814.217 555.179 816.035 549.353 817.394C491.833 831.525 434.687 803.185 388.486 789.716C385.3 788.856 382.115 787.995 378.999 787.364C333.267 777.369 291.658 760.397 241.238 749.087C153.216 729.514 48.2341 738.228 -30.3048 755.052C-111.757 772.555 -169.632 793.866 -213.51 815.042" stroke="white" stroke-width="0.2" stroke-miterlimit="10"/>
<path d="M1575.57 277.19C1567.95 304.14 1550.41 336.935 1515.31 370.349C1493.55 391.14 1466.02 413.52 1439.7 429.602C1419.63 441.849 1398.92 450.049 1379.05 452.674C1370.43 453.811 1362.67 453.962 1355.17 453.67C1333.87 452.84 1314.97 447.119 1292.92 437.424C1275.38 429.716 1256.43 418.668 1237.84 406.898C1229.14 401.348 1220.44 395.798 1211.34 390.232C1179.7 370.759 1146.09 353.193 1109.82 341.583C1078.94 331.714 1045.62 325.998 1010.63 326.334C1002.84 326.371 994.977 326.801 987.183 327.46C918.907 333.128 847.589 364.112 798 408.234C787.395 417.621 777.898 427.447 769.329 437.763C738.358 475.133 720.954 516.091 708.57 557.527C692.706 609.987 685.047 663.786 662.695 715.426C645.408 755.482 613.385 797.739 563.884 817.734C558.335 820.01 552.648 821.828 546.856 823.301C489.801 837.677 433.043 809.975 387.788 795.127C384.748 794.102 381.562 793.242 378.591 792.446C334.276 780.694 294.188 762.309 244.563 750.406C157.737 729.634 52.4876 740.036 -25.9013 759.925C-106.809 780.509 -164.152 806.145 -208.501 831.552" stroke="white" stroke-width="0.2" stroke-miterlimit="10"/>
<path d="M1575.92 277.713C1568.07 307.09 1551.37 342.014 1516.22 376.559C1494.59 397.809 1466.89 420.238 1439.71 436.06C1419 448.112 1397.39 455.937 1376.74 457.909C1367.83 458.751 1359.79 458.608 1351.98 457.907C1329.96 456.03 1310.83 448.884 1288.97 437.893C1271.72 429.234 1253.39 417.644 1234.88 405.48C1226.32 399.765 1217.58 394.1 1208.48 388.534C1176.77 368.832 1142.3 351.629 1105.2 340.497C1073.46 330.991 1039.38 325.981 1003.62 327.024C995.69 327.225 987.861 327.77 979.743 328.643C910.88 335.591 839.411 367.362 789.996 412.058C779.425 421.559 769.963 431.5 761.43 441.931C730.778 479.71 713.803 520.797 701.737 562.642C686.552 615.412 679.393 669.57 657.72 721.521C641.152 761.378 610.098 803.616 561.027 823.74C555.658 825.967 550.005 827.899 544.213 829.373C487.443 844.043 431.108 817.094 386.98 800.817C383.939 799.792 380.899 798.768 378.073 797.808C335.209 784.412 296.427 764.549 247.597 752.054C162.001 730.197 56.6301 742.123 -21.6089 765.077C-102.007 788.626 -158.782 818.703 -203.783 848.39" stroke="white" stroke-width="0.2" stroke-miterlimit="10"/>
<path d="M1576.31 278.351C1568.25 310.269 1552.32 347.092 1516.99 382.933C1495.68 404.592 1467.43 427.17 1439.36 442.617C1418.01 454.474 1395.5 461.925 1373.89 463.292C1364.7 463.841 1356.19 463.453 1348.24 462.293C1325.48 459.254 1306.29 450.633 1284.7 438.576C1267.78 429.08 1249.81 416.768 1231.59 404.276C1223 398.446 1214.4 392.617 1205.31 387.051C1173.34 367.169 1138.16 350.165 1100.07 339.674C1067.5 330.645 1032.41 326.163 996.294 327.929C988.216 328.294 980.242 329.003 972.158 329.991C902.495 338.154 831.269 370.727 782.063 416.11C771.707 425.677 762.1 435.782 753.781 446.278C723.233 484.401 706.757 525.847 695.121 567.822C680.4 620.837 673.919 675.305 652.96 727.679C637.077 767.223 606.848 809.607 558.6 829.877C553.231 832.103 547.579 834.036 542.001 835.575C485.695 850.489 429.569 824.228 386.387 806.572C383.492 805.383 380.631 804.308 377.59 803.284C335.998 788.295 298.882 766.853 250.847 753.766C166.447 730.71 60.8086 744.325 -17.2804 770.344C-96.9886 796.809 -153.162 831.441 -199.028 865.342" stroke="white" stroke-width="0.2" stroke-miterlimit="10"/>
<path d="M1576.66 278.875C1568.37 313.219 1553.24 352.056 1517.72 389.192C1496.55 411.31 1468.09 433.823 1439.19 449.125C1417.01 460.837 1393.83 467.978 1371.4 468.577C1361.74 468.88 1353.1 468.034 1344.86 466.58C1321.39 462.494 1301.93 452.333 1280.74 439.045C1264.12 428.598 1246.55 415.678 1228.66 402.972C1220.21 396.978 1211.58 391.034 1202.49 385.468C1170.45 365.357 1134.4 348.715 1095.31 338.752C1061.91 330.201 1026.02 326.311 989.144 328.783C980.921 329.312 972.802 330.186 964.538 331.223C894.108 340.716 822.946 374.141 773.878 419.983C763.558 429.664 753.985 439.884 745.701 450.495C715.473 489.026 699.246 530.653 688.109 572.987C674.067 626.311 668.085 681.139 647.625 733.873C632.461 773.218 603.236 815.697 555.563 835.933C550.194 838.159 544.756 840.157 538.964 841.631C483.122 856.79 427.419 831.282 385.184 812.246C382.433 810.893 379.538 809.704 376.677 808.629C336.501 791.883 300.726 769.078 253.667 755.349C170.497 731.207 64.7364 746.348 -13.2026 775.431C-92.3662 804.976 -148.007 843.934 -194.345 882.065" stroke="white" stroke-width="0.2" stroke-miterlimit="10"/>
<path d="M1576.87 279.563C1568.33 316.334 1553.84 357.235 1518.26 395.502C1497.45 418.143 1468.59 440.64 1438.99 455.518C1416.16 467.035 1392.09 473.801 1368.9 473.861C1358.96 473.871 1350.04 472.73 1341.48 470.867C1317.48 465.684 1297.79 454.097 1276.82 439.629C1260.5 428.23 1243.51 414.653 1225.91 401.619C1217.6 395.461 1208.98 389.517 1199.84 383.836C1167.56 363.546 1130.65 347.266 1090.72 337.781C1056.49 329.707 1019.81 326.409 982.173 329.588C973.805 330.282 965.541 331.319 957.131 332.521C885.935 343.343 814.982 377.457 766.088 423.872C755.802 433.668 746.444 443.953 738.015 454.727C707.891 493.603 692.343 535.539 681.67 578.118C668.127 631.801 662.61 686.873 643.043 739.982C628.599 779.129 600.343 821.59 553.279 841.905C548.125 844.197 542.652 846.08 536.895 847.668C481.552 863.186 426.058 838.366 384.914 817.787C382.163 816.434 379.413 815.081 376.698 813.842C337.793 795.503 303.684 771.119 257.419 756.798C175.626 731.407 69.4175 748.286 -8.37156 780.434C-87.0254 812.945 -142.098 856.343 -189.087 898.754" stroke="white" stroke-width="0.2" stroke-miterlimit="10"/>
<path d="M1577.26 280.201C1568.3 319.448 1554.79 362.314 1519.21 401.826C1498.35 424.975 1469.28 447.408 1438.82 462.026C1415.35 473.348 1390.38 479.739 1366.41 479.146C1356.19 478.861 1346.8 477.475 1338.1 475.154C1313.36 468.809 1293.43 455.797 1272.87 440.098C1256.66 427.798 1240.25 413.564 1222.98 400.315C1214.82 393.993 1206.16 387.934 1197.02 382.254C1164.67 361.734 1126.89 345.817 1086.14 336.81C1051.04 329.098 1013.42 326.557 975.382 330.343C966.869 331.201 958.425 332.288 950.085 333.72C878.088 345.757 807.198 380.722 758.513 427.826C748.262 437.736 738.939 448.136 730.724 458.975C700.919 498.26 685.621 540.376 675.412 583.199C662.368 637.242 657.495 692.509 638.642 746.042C624.917 784.99 597.63 827.432 551.176 847.828C546.022 850.12 540.584 852.117 535.006 853.656C479.947 869.468 424.842 845.287 384.859 823.393C382.254 821.876 379.504 820.522 376.933 819.119C339.445 799.023 306.856 773.225 261.208 758.362C180.645 731.886 74.1341 750.339 -3.32512 785.502C-81.4692 820.978 -135.975 868.818 -183.435 915.459" stroke="white" stroke-width="0.2" stroke-miterlimit="10"/>
<path d="M1577.61 280.725C1568.42 322.398 1555.54 367.327 1519.94 408.086C1499.4 431.644 1469.94 454.061 1438.65 468.534C1414.35 479.71 1388.71 485.792 1363.92 484.43C1353.23 483.9 1343.71 482.056 1334.72 479.441C1309.28 472.048 1289.25 457.447 1268.92 440.567C1253.01 427.315 1237 412.474 1220.01 398.896C1211.82 392.46 1203.3 386.237 1194.14 380.442C1161.53 359.742 1123.07 344.139 1081.31 335.658C1045.38 328.424 1006.97 326.475 968.165 330.968C959.687 331.941 951.098 333.192 942.433 334.838C869.669 348.204 799.023 383.972 750.477 431.534C740.261 441.559 730.972 452.074 722.793 463.028C693.127 502.771 678.473 545.082 668.548 588.2C656.148 642.437 651.774 698.064 633.454 752.071C620.45 790.82 593.952 833.293 548.286 853.72C543.133 856.011 537.874 857.959 532.152 859.662C477.557 875.719 422.695 852.34 383.804 828.903C381.199 827.386 378.593 825.868 376.168 824.301C339.771 802.66 309.029 775.236 264.14 759.665C184.918 731.825 77.9603 752.018 0.685919 790.36C-76.9483 828.801 -130.887 881.081 -178.998 932.002" stroke="white" stroke-width="0.2" stroke-miterlimit="10"/>
<path d="M1577.82 281.413C1568.43 325.628 1556.31 372.456 1520.52 414.51C1500.13 438.526 1470.3 461.043 1438.3 475.091C1413.36 486.072 1386.64 491.829 1361.07 489.814C1350.1 488.99 1340.29 486.852 1330.98 483.827C1304.8 475.273 1284.57 459.36 1264.64 441.251C1249.06 427.162 1233.6 411.548 1216.72 397.692C1208.68 391.091 1200.12 384.754 1190.96 378.958C1158.29 358.03 1118.74 342.724 1076.18 334.836C1039.43 328.079 1000.22 326.722 960.801 331.758C952.177 332.895 943.443 334.311 934.813 336.07C861.214 350.538 790.666 387.273 742.294 435.407C732.112 445.547 722.859 456.176 714.893 467.195C685.512 507.233 671.142 549.838 661.717 593.315C649.816 647.912 645.94 703.898 628.479 758.165C616.014 796.766 590.7 839.284 545.464 859.841C540.31 862.133 535.087 864.195 529.545 865.849C475.414 882.151 420.761 859.459 383.03 834.708C380.57 833.026 378.145 831.459 375.685 829.777C340.74 806.494 311.303 777.59 267.39 761.378C189.218 732.503 82.138 754.22 4.97874 795.512C-72.1457 836.919 -125.517 893.64 -174.279 948.84" stroke="white" stroke-width="0.2" stroke-miterlimit="10"/>
<path d="M1578.21 282.051C1568.58 328.692 1557.09 377.584 1521.43 420.719C1501.17 445.195 1470.95 467.696 1438.09 481.484C1412.47 492.155 1384.9 497.652 1358.55 494.983C1347.29 493.865 1337.01 491.482 1327.57 487.999C1300.68 478.398 1280.17 460.945 1260.66 441.605C1245.19 426.614 1230.31 410.344 1213.76 396.274C1205.86 389.508 1197.3 383.171 1188.1 377.261C1155.18 356.152 1114.95 341.16 1071.38 333.799C1033.8 327.52 993.612 326.804 953.615 332.497C944.846 333.799 935.967 335.379 927.157 337.188C852.791 352.985 782.452 390.408 734.289 439.231C724.142 449.485 714.923 460.229 706.993 471.362C677.75 511.859 663.845 554.708 654.849 598.316C643.626 653.222 640.035 709.502 623.468 764.144C611.688 802.432 587.378 845.046 542.751 865.683C537.812 868.04 532.554 869.988 527.046 871.756C473.379 888.302 418.79 866.463 382.331 840.119C379.871 838.437 377.556 836.591 375.276 834.859C341.747 809.818 313.831 779.501 270.713 762.697C193.772 732.737 86.2099 756.078 9.56047 800.336C-67.2341 844.758 -119.858 905.869 -169.057 965.414" stroke="white" stroke-width="0.2" stroke-miterlimit="10"/>
<path d="M1578.57 282.575C1568.69 331.643 1557.97 382.434 1522.16 426.979C1486.35 471.525 1418.03 507.893 1356.05 500.268C1285.19 491.617 1255.34 434.374 1210.83 394.97C1150.12 341.397 1047.53 317.519 946.681 333.417C845.829 349.315 749.73 404.655 699.343 475.71C633.932 567.932 647.434 671.554 618.743 770.418C606.457 812.821 578.901 860.804 524.654 878.007C471.306 894.963 417.251 873.597 381.773 845.988C346.26 818.265 319.251 783.225 273.998 764.525C198.253 733.365 90.3879 758.28 13.9233 805.717C-62.3615 853.105 -114.418 918.657 -164.268 982.482" stroke="white" stroke-width="0.2" stroke-miterlimit="10"/>
</svg>
