<svg width="320" height="368" viewBox="0 0 320 368" fill="none" xmlns="http://www.w3.org/2000/svg">
<path d="M-563.441 145.035C-579.932 92.8444 -532.286 38.3284 -471.445 39.9049C-428.085 41.1129 -387.816 65.6429 -352.292 90.3962C-318.224 114.113 -284.588 139.324 -245.679 155.579C-206.77 171.833 -160.492 177.872 -125.159 161.718C-53.2016 128.952 -62.0478 28.5113 2.09757 -14.2618C54.4461 -49.1224 137.809 -31.1984 194.844 7.4879C251.879 46.1742 290.887 101.153 335.288 150.968C379.688 200.783 435.701 249.12 504.604 261.624C568.188 273.201 630.343 251.568 681.038 221.991C802.02 151.258 892.912 141.5 903.937 10.4056" stroke="white" stroke-width="0.2" stroke-miterlimit="10"/>
<path d="M-563.76 142.118C-571.055 119.244 -565.132 95.9295 -551.484 77.7952C-534.207 54.7254 -504.776 39.1401 -471.369 40.6789C-440.658 42.0993 -411.77 55.3509 -384.751 71.9319C-374.352 78.3799 -364.199 85.2872 -354.345 92.194C-341.256 101.403 -328.154 110.727 -314.656 119.592C-293.444 133.523 -271.639 146.075 -247.966 155.299C-239.237 158.757 -230.125 161.642 -220.791 163.838C-189.557 171.348 -156.761 171.392 -130.144 158.675C-123.766 155.697 -118.209 152.028 -112.988 148.014C-88.7083 128.975 -76.0904 100.154 -63.2123 70.9891C-48.6912 37.8051 -33.872 4.62158 -2.52557 -15.2121C8.8864 -22.5497 21.77 -27.3577 35.4908 -29.9816C84.6617 -39.5658 144.466 -21.6766 188.647 8.59972C195.415 13.2046 201.91 18.0388 208.133 23.1025C254.565 60.2753 289.332 107.887 328.412 151.369C365.113 192.206 410.035 231.904 463.271 251.048C474.448 255.085 485.958 258.087 497.665 260.171C560.695 270.827 621.352 247.816 672.654 219.737C797.853 150.857 892.265 135.245 903.345 3.36434" stroke="white" stroke-width="0.2" stroke-miterlimit="10"/>
<path d="M-564.156 139.104C-571.301 116.234 -564.597 93.2686 -550.738 75.7116C-533.2 53.6794 -503.956 39.1299 -471.37 41.3565C-441.194 43.3501 -413.016 56.9433 -386.582 73.6358C-376.332 80.0826 -366.329 86.9885 -356.625 93.8941C-343.536 103.102 -330.435 112.424 -316.963 121.058C-295.641 134.642 -273.765 146.503 -250.48 154.921C-241.791 158.034 -232.854 160.688 -223.844 162.653C-193.296 169.357 -161.487 168.596 -135.643 155.65C-129.427 152.557 -124.02 148.888 -118.949 144.875C-95.2931 125.608 -82.8135 96.906 -69.8995 68.09C-55.0445 35.2561 -39.2318 2.99784 -7.65071 -16.0286C3.94719 -23.0203 16.7058 -27.598 30.4508 -29.9918C79.408 -38.771 138.352 -20.5413 182.232 9.72988C188.851 14.3338 195.346 19.1673 201.568 24.2301C247.55 61.3966 282.277 108.657 321.305 151.672C358.128 192.273 403.283 231.391 456.452 249.957C467.615 253.878 478.963 256.765 490.779 258.504C553.256 268.238 612.711 243.85 664.31 217.154C794.034 150.243 891.654 128.664 902.789 -4.00083" stroke="white" stroke-width="0.2" stroke-miterlimit="10"/>
<path d="M-564.514 136.177C-571.647 113.426 -564.186 90.5787 -549.941 73.8284C-532.006 52.7185 -503.246 39.2039 -471.344 42.0035C-441.703 44.5703 -414.234 58.5052 -388.249 75.1947C-378.135 81.7553 -368.282 88.6601 -358.578 95.5647C-345.64 104.771 -332.552 113.977 -319.106 122.38C-297.823 135.617 -275.875 146.788 -252.83 154.4C-244.315 157.283 -235.566 159.592 -226.595 161.212C-196.747 166.995 -165.761 165.544 -140.852 152.254C-134.947 149.045 -129.541 145.377 -124.619 141.364C-101.574 121.984 -89.3947 93.2853 -76.1463 64.8181C-60.9572 32.3335 -44.1634 0.884759 -12.4837 -17.2203C-0.848734 -23.8665 11.9469 -28.099 25.5544 -30.3779C74.3113 -38.2375 132.395 -19.667 175.826 10.5994C182.444 15.2026 188.79 20.0353 195.012 25.0974C240.681 62.1435 275.233 109.167 314.221 151.832C351.153 192.083 396.417 230.851 449.494 248.611C460.631 252.301 471.965 255.073 483.619 256.697C545.543 265.51 603.648 239.745 655.706 214.546C789.795 149.486 890.933 122.056 901.813 -11.5099" stroke="white" stroke-width="0.2" stroke-miterlimit="10"/>
<path d="M-564.906 133.289C-572.039 110.54 -563.796 88.0418 -549.34 71.8683C-531.156 51.6802 -502.72 39.3153 -471.501 42.6876C-442.544 45.8273 -415.647 59.9891 -390.247 76.7903C-380.283 83.3498 -370.567 90.3682 -361.025 97.1568C-348.236 106.361 -335.149 115.566 -321.58 123.739C-300.175 136.745 -278.33 146.995 -255.511 153.916C-247.035 156.454 -238.461 158.533 -229.814 159.923C-200.517 164.785 -170.653 162.643 -146.516 149.124C-140.761 145.916 -135.517 142.133 -130.894 138.12C-108.473 118.512 -96.5929 89.8171 -83.1464 61.8134C-67.6359 29.5632 -49.9849 -0.846649 -17.9211 -18.145C-6.24915 -24.4457 6.57081 -28.448 20.2153 -30.3821C68.7592 -37.4372 126.132 -18.5259 168.964 11.7354C175.433 16.3378 181.779 21.1697 188 26.2312C233.22 63.2715 267.571 109.829 306.817 152.144C343.859 192.045 389.368 230.348 442.378 247.531C453.502 251.106 464.81 253.648 476.301 255.156C537.66 262.933 594.59 236.021 646.931 212.089C785.832 148.882 890.027 115.488 900.975 -18.7495" stroke="white" stroke-width="0.2" stroke-miterlimit="10"/>
<path d="M-565.16 130.364C-572.131 107.733 -563.267 85.4682 -548.439 69.9861C-529.857 50.7197 -501.743 39.504 -471.208 43.4491C-442.785 47.1616 -416.597 61.6651 -391.645 78.4636C-381.98 85.0217 -372.264 92.0393 -362.859 98.9416C-350.071 108.145 -336.997 117.234 -323.442 125.29C-302.076 137.95 -280.159 147.51 -257.58 153.626C-249.279 155.934 -240.743 157.668 -232.27 158.827C-203.673 162.77 -174.782 159.938 -151.43 146.075C-145.837 142.752 -140.742 138.97 -136.281 134.842C-114.484 115.005 -102.891 86.4285 -89.2592 58.7729C-73.4144 26.8717 -54.7697 -2.6145 -22.4707 -19.1067C-10.7616 -25.0621 2.08272 -28.8343 15.6026 -30.5387C63.7974 -36.675 120.46 -17.4227 162.843 12.834C169.312 17.4359 175.508 22.267 181.567 27.2127C226.338 64.2476 260.649 110.455 299.856 152.42C337.02 192.086 382.612 229.811 435.556 246.417C446.666 249.876 457.961 252.303 469.426 253.581C530.219 260.323 585.962 232.149 638.613 209.713C782.04 148.472 889.294 109.114 900.149 -25.9106" stroke="white" stroke-width="0.2" stroke-miterlimit="10"/>
<path d="M-565.533 127.386C-572.505 104.754 -562.87 82.719 -547.654 68.0405C-528.808 49.807 -501.039 39.5091 -471.172 44.1425C-443.281 48.4287 -417.812 63.1617 -393.431 80.1899C-383.902 86.8631 -374.335 93.8808 -364.942 100.669C-352.303 109.872 -339.229 118.962 -325.711 126.674C-304.234 138.99 -282.393 147.862 -260.051 153.174C-251.787 155.137 -243.575 156.641 -235.277 157.571C-207.376 160.594 -179.454 157.071 -156.723 142.977C-151.279 139.654 -146.495 135.756 -142.034 131.628C-121.006 111.56 -109.549 83.0965 -95.593 55.6696C-79.424 23.9969 -59.9318 -4.5709 -27.3812 -20.1448C-15.6337 -25.756 -2.76348 -29.2987 10.7822 -30.7734C58.7692 -36.1063 114.577 -16.5097 156.514 13.7481C162.982 18.3501 169.179 23.1815 175.089 28.1273C219.55 65.0488 253.688 111.029 292.844 152.536C330.12 191.86 375.811 229.127 428.828 245.046C439.927 248.391 451.047 250.588 462.487 251.636C522.734 257.459 577.295 228.019 630.237 206.846C778.504 147.56 888.827 102.233 899.594 -33.6022" stroke="white" stroke-width="0.2" stroke-miterlimit="10"/>
<path d="M-565.929 124.327C-572.887 101.802 -562.478 79.9908 -546.897 65.8825C-527.647 48.5629 -500.341 39.41 -471.139 44.7335C-443.925 49.5949 -419.16 64.6765 -395.073 81.7101C-385.692 88.3853 -376.273 95.4052 -367.016 102.31C-354.375 111.517 -341.461 120.494 -327.805 128.094C-306.363 140.07 -284.296 148.256 -262.338 152.765C-254.247 154.499 -246.071 155.659 -237.959 156.244C-210.752 158.349 -183.795 154.135 -161.843 139.691C-156.559 136.252 -151.922 132.352 -147.609 128.223C-127.198 107.918 -116.035 79.4448 -101.875 52.4689C-85.3648 21.1312 -64.8713 -6.52535 -32.076 -21.2996C-20.3007 -26.6827 -7.38995 -29.8817 6.03454 -31.1271C53.8337 -35.5426 108.794 -15.5955 150.438 14.672C156.758 19.2754 162.955 24.1084 168.867 29.0559C212.886 65.9893 246.988 111.64 286.097 152.702C323.501 191.809 369.432 228.515 422.246 243.864C433.333 247.095 444.429 249.063 455.71 249.997C515.418 254.903 568.957 224.189 622.062 204.388C775.357 147.159 888.459 95.7342 899.298 -40.9489" stroke="white" stroke-width="0.2" stroke-miterlimit="10"/>
<path d="M-566.349 121.228C-573.145 98.811 -562.124 77.1081 -546.301 63.8001C-526.795 47.3945 -499.656 39.3878 -471.131 45.287C-444.433 50.839 -420.396 66.0397 -396.89 83.1933C-387.657 89.8706 -378.373 97.0076 -369.277 103.8C-356.783 113.009 -343.731 121.875 -330.086 129.363C-308.53 140.998 -286.549 148.382 -264.811 152.204C-256.907 153.593 -248.904 154.524 -240.965 154.879C-214.451 156.064 -188.31 151.159 -167.285 136.364C-162.311 132.809 -157.674 128.908 -153.521 124.662C-133.727 104.12 -122.696 75.7525 -108.344 49.113C-91.5051 17.9954 -70.1591 -8.74953 -36.9699 -22.7234C-25.0049 -27.7631 -12.2153 -30.7334 1.08794 -31.7494C48.6866 -35.3618 102.799 -15.0641 144 15.2132C150.322 19.8182 156.37 24.6527 162.283 29.6018C205.996 66.4324 239.927 111.868 279.151 152.599C316.67 191.375 362.705 227.634 415.612 242.414C426.688 245.532 437.774 247.386 448.883 248.09C508.039 251.963 560.582 220.204 613.974 201.547C772.3 146.376 888.182 88.8486 898.944 -48.6836" stroke="white" stroke-width="0.2" stroke-miterlimit="10"/>
<path d="M-566.826 118.171C-573.622 95.7476 -561.963 74.3836 -545.613 61.7619C-525.852 46.2712 -499.04 39.2963 -471.18 45.8864C-445.011 52.0144 -421.679 67.5641 -398.605 84.8377C-389.507 91.632 -380.52 98.7709 -371.274 105.565C-358.766 114.893 -345.874 123.647 -332.265 130.792C-310.595 142.087 -288.687 148.783 -267.333 151.801C-259.452 152.962 -251.635 153.547 -243.869 153.673C-217.899 153.938 -192.873 148.34 -172.615 133.31C-167.789 129.753 -163.312 125.736 -159.456 121.488C-140.279 100.709 -129.529 72.4474 -114.986 46.1447C-97.8053 15.3627 -75.4575 -10.4696 -42.0236 -23.6426C-30.0181 -28.3389 -17.2007 -31.08 -3.85698 -31.7514C43.5535 -34.4452 96.8171 -13.7968 137.576 16.4899C143.749 21.0962 149.799 25.9322 155.712 30.883C198.982 67.7251 232.877 112.83 272.055 153.115C309.539 191.559 355.977 227.371 408.816 241.466C419.881 244.47 430.795 246.094 442.041 246.685C500.659 249.639 552.192 216.72 605.734 199.321C769.092 146.21 887.905 82.5778 898.591 -55.8027" stroke="white" stroke-width="0.2" stroke-miterlimit="10"/>
<path d="M-567.161 115.091C-573.943 92.775 -561.509 71.6352 -544.794 59.5851C-524.616 45.1251 -498.281 39.1823 -471.099 46.3488C-445.459 53.0532 -422.845 68.8371 -400.352 86.2306C-391.402 93.027 -382.563 100.168 -373.464 106.965C-361.104 116.295 -348.223 124.937 -334.476 131.97C-312.828 143.038 -290.856 148.933 -269.737 151.146C-262.042 151.962 -254.249 152.318 -246.805 152.213C-221.515 151.673 -197.468 145.267 -177.988 129.886C-173.323 126.213 -169.143 122.195 -165.287 117.946C-146.726 96.9292 -136.258 68.7728 -121.374 42.8072C-103.851 12.3609 -80.6631 -12.6735 -46.9717 -24.9301C-34.9257 -29.2829 -22.0805 -31.7948 -8.85816 -32.2364C38.3514 -34.126 90.766 -13.1267 131.083 17.1695C137.257 21.7774 143.157 26.6148 148.922 31.567C191.737 68.3058 225.61 113.196 264.753 153.149C302.365 191.375 348.906 226.739 401.678 240.15C412.719 242.925 423.622 244.435 434.696 244.795C492.775 246.83 543.299 212.75 596.991 196.611C765.706 145.792 886.968 75.7046 897.74 -63.4101" stroke="white" stroke-width="0.2" stroke-miterlimit="10"/>
<path d="M-567.663 112.029C-574.295 89.7057 -561.235 68.7904 -544.129 57.5423C-523.696 43.9984 -497.528 39.204 -471.024 46.9471C-446.063 54.228 -424.005 70.3613 -401.956 87.7598C-393.291 94.673 -384.452 101.817 -375.352 108.615C-363.139 117.949 -350.108 126.593 -336.384 133.399C-314.623 144.126 -292.723 149.332 -271.838 150.741C-264.167 151.327 -256.709 151.337 -249.302 150.887C-224.705 149.426 -201.637 142.212 -182.762 126.711C-178.245 123.037 -174.226 118.902 -170.53 114.536C-152.735 93.2821 -142.4 65.2318 -127.324 39.6035C-109.472 9.37832 -85.4181 -14.6272 -51.3328 -26.0818C-39.2464 -30.0906 -26.3734 -32.3731 -13.1234 -32.5847C33.8975 -33.5546 85.4625 -12.2044 125.336 18.1011C131.362 22.7102 137.263 27.5492 143.028 32.5031C185.55 69.2533 219.088 113.812 258.334 153.318C296.06 191.212 342.854 226.128 395.558 238.853C406.589 241.514 417.48 242.909 428.382 243.04C485.91 244.04 535.585 208.913 589.265 193.92C763.176 145.279 887.213 68.9634 897.761 -71.0002" stroke="white" stroke-width="0.2" stroke-miterlimit="10"/>
<path d="M-568.064 108.964C-574.683 86.7494 -560.848 66.0588 -543.526 55.383C-522.838 42.7558 -496.986 39.1102 -471.16 47.4303C-446.728 55.2883 -425.538 71.6558 -403.922 89.1744C-395.405 96.0896 -386.701 103.35 -377.762 110.036C-365.548 119.373 -352.677 127.905 -338.977 134.482C-317.25 144.867 -295.274 149.385 -274.623 149.989C-267.138 150.23 -259.691 150.125 -252.619 149.33C-228.716 146.947 -206.465 139.04 -188.518 123.187C-184.162 119.396 -180.291 115.26 -176.744 110.893C-159.566 89.4013 -149.375 61.342 -134.094 36.1663C-115.901 6.27743 -90.8569 -16.9287 -56.5143 -27.4657C-44.4001 -31.2456 -31.4867 -33.1834 -18.3582 -33.1651C28.4612 -33.3297 79.1764 -11.6283 118.607 18.6864C124.633 23.297 130.535 28.1376 136.152 33.0928C178.23 69.8543 211.72 113.967 251.093 153.256C288.934 190.817 335.832 225.284 388.48 237.439C399.5 239.985 410.355 241.036 421.11 241.166C478.137 241.591 526.777 205.072 580.594 191.225C759.878 144.994 886.368 62.216 896.99 -78.5967" stroke="white" stroke-width="0.2" stroke-miterlimit="10"/>
<path d="M-568.533 105.932C-575.151 83.7103 -560.69 63.2445 -542.827 53.3718C-521.884 41.662 -496.348 39.166 -471.202 48.0634C-447.288 56.6138 -426.815 73.2157 -405.632 90.8544C-397.251 97.8867 -388.708 105.034 -379.905 111.837C-367.839 121.177 -354.966 129.711 -341.14 136.061C-319.299 146.104 -297.459 149.358 -276.966 149.847C-269.642 149.972 -262.393 149.407 -255.345 148.381C-232.136 145.076 -210.852 136.474 -193.672 120.386C-189.625 116.479 -185.753 112.341 -182.503 107.972C-165.943 86.243 -156.034 58.2899 -140.561 33.4521C-122.025 3.89982 -96.1276 -18.3913 -61.3912 -28.1251C-49.2366 -31.5607 -36.2828 -33.1538 -23.1268 -32.9051C23.5035 -32.1489 73.3683 -10.0963 112.505 20.2277C118.531 24.8398 124.285 29.6817 129.902 34.6385C171.673 71.2962 204.99 115.193 244.316 154.034C282.284 191.377 329.423 225.28 382.016 236.863C393.025 239.295 403.721 240.231 414.6 240.131C471.051 239.29 518.881 202.068 572.673 189.254C757.331 145.434 886.275 56.1898 896.823 -85.4722" stroke="white" stroke-width="0.2" stroke-miterlimit="10"/>
<path d="M-568.937 102.836C-575.392 80.7225 -560.304 60.4816 -542.063 51.2974C-520.852 40.6207 -495.509 39.0448 -471.03 48.635C-447.646 57.7631 -427.893 74.5995 -407.292 92.3581C-399.059 99.3925 -390.652 106.657 -381.86 113.347C-369.793 122.689 -356.931 131.112 -343.116 137.348C-321.31 147.05 -299.342 150.074 -279.134 149.297C-271.859 148.962 -264.772 148.281 -258.046 147.024C-235.518 142.912 -215.213 133.5 -198.812 117.06C-194.914 113.151 -191.352 108.897 -188.101 104.527C-172.158 82.5601 -162.531 54.7132 -146.716 30.2137C-127.851 0.883289 -101.1 -20.4923 -66.106 -29.3074C-53.9111 -32.3986 -40.9297 -33.7617 -27.8954 -33.2827C18.5456 -31.6052 67.6961 -9.31617 106.252 21.1318C112.13 25.7452 117.884 30.5886 123.353 35.5468C164.681 72.2155 197.962 115.78 237.24 154.173C275.323 191.182 322.565 224.636 375.24 235.532C386.238 237.851 396.923 238.672 407.617 238.226C463.38 236.463 510.51 198.193 564.291 186.526C754.499 145.35 885.875 49.4061 896.349 -93.1053" stroke="white" stroke-width="0.2" stroke-miterlimit="10"/>
<path d="M-569.309 99.6485C-575.764 77.5284 -559.9 57.513 -541.28 49.0176C-519.815 39.2595 -494.789 38.8345 -470.989 49.0026C-448.285 58.7085 -429.089 75.8949 -408.934 93.6584C-400.85 100.695 -392.591 107.962 -383.935 114.768C-372.016 124.113 -359.153 132.539 -345.374 138.431C-323.454 147.791 -301.558 150.125 -281.584 148.541C-274.483 147.976 -267.581 146.949 -260.891 145.346C-239.057 140.31 -219.719 130.204 -204.086 113.528C-200.349 109.502 -196.935 105.246 -193.845 100.759C-178.669 78.5549 -169.174 50.8146 -153.167 26.6536C-133.96 -2.33962 -106.205 -22.7987 -70.9794 -30.925C-58.7442 -33.6714 -45.7351 -34.8045 -32.8226 -34.0951C13.4287 -31.4957 61.7153 -8.97044 99.8275 21.4864C105.706 26.1012 111.311 30.946 116.78 35.9057C157.651 72.47 190.909 115.818 230.153 153.877C268.35 190.553 315.845 223.556 368.316 233.881C379.303 236.084 389.964 236.675 400.498 236.114C455.709 233.314 501.855 194.11 555.759 183.477C751.979 145.062 885.627 42.2987 896.177 -101.062" stroke="white" stroke-width="0.2" stroke-miterlimit="10"/>
<path d="M-569.627 96.5958C-576.068 74.5844 -559.577 54.7945 -540.58 46.9885C-519.009 38.1494 -494.002 38.8764 -471.032 49.6224C-448.859 59.9065 -430.37 77.4426 -410.81 95.2106C-403.011 102.364 -394.752 109.633 -386.257 116.326C-374.486 125.674 -361.634 133.986 -347.717 139.766C-325.819 148.898 -303.859 150.427 -284.119 148.036C-277.203 147.124 -270.326 145.867 -263.959 144.033C-242.819 138.073 -224.299 127.272 -209.446 110.244C-205.856 106.217 -202.604 101.845 -199.662 97.3562C-185.104 74.9141 -175.741 47.2808 -159.555 23.3435C-140.018 -5.4272 -111.409 -24.9693 -75.7774 -32.1755C-63.3654 -34.692 -50.6148 -35.4801 -37.5257 -34.5398C8.52289 -31.1332 55.9702 -8.14145 93.638 22.3239C99.3679 26.9399 104.974 31.7861 110.43 36.6321C151.006 73.207 184.078 116.222 223.424 153.832C261.748 190.288 309.334 222.726 361.899 232.478C372.862 234.452 383.512 234.928 394.036 234.252C448.708 230.529 494.018 190.391 548.046 180.792C749.245 145.254 885.315 35.6688 895.643 -108.54" stroke="white" stroke-width="0.2" stroke-miterlimit="10"/>
<path d="M-570.12 93.5595C-576.398 71.6567 -559.442 51.9766 -539.917 44.8605C-518.091 36.941 -493.401 38.8203 -470.962 50.1452C-449.308 61.1233 -431.701 78.779 -412.413 96.7828C-404.763 103.938 -396.639 111.325 -388.144 118.02C-376.371 127.371 -363.518 135.686 -349.624 141.237C-327.612 150.026 -305.724 150.864 -286.218 147.666C-279.326 146.524 -272.634 144.92 -266.44 142.855C-245.981 136.086 -228.441 124.473 -214.368 107.093C-210.939 102.95 -207.984 98.5753 -205.191 94.0853C-191.25 71.405 -182.182 43.7627 -165.791 20.2792C-145.91 -8.15409 -116.46 -26.8943 -80.5706 -33.1802C-68.1182 -35.3517 -55.34 -35.9094 -42.3601 -34.6232C3.49861 -30.2936 50.0813 -7.06509 87.3049 23.4094C93.0353 28.0269 98.4922 32.8745 103.949 37.722C144.081 74.308 177.116 116.991 216.427 154.267C254.866 190.39 302.718 222.493 355.054 231.441C366.006 233.3 376.496 233.661 386.997 232.754C441.13 228.108 485.592 186.919 539.595 178.355C746.5 145.467 884.835 28.9373 895.241 -116.123" stroke="white" stroke-width="0.2" stroke-miterlimit="10"/>
<path d="M-570.461 90.4837C-576.738 68.5744 -559.005 49.1203 -539.089 42.8097C-517.02 35.6952 -492.636 38.8427 -470.879 50.7464C-449.906 62.3032 -432.857 80.3091 -414.165 98.3174C-406.651 105.59 -398.689 112.863 -390.342 119.561C-378.718 128.914 -365.876 137.116 -352.005 142.438C-329.879 150.885 -308.062 151.032 -288.79 147.025C-282.072 145.652 -275.565 143.702 -269.396 141.405C-249.631 133.711 -233.058 121.402 -219.753 103.786C-216.635 99.5256 -213.679 95.1498 -211.046 90.5431C-197.873 67.6246 -188.937 40.0893 -172.204 16.9455C-151.981 -11.1497 -121.527 -28.9716 -85.3935 -34.452C-72.9011 -36.2781 -60.0955 -36.6053 -47.0883 -35.0881C-1.44541 -30.0656 44.3098 -6.25492 81.2378 24.2283C86.8194 28.847 92.4262 33.6962 97.7343 38.545C137.558 75.0262 170.271 117.491 209.684 154.317C248.249 190.22 296.193 221.757 348.623 230.132C359.564 231.877 370.031 232.007 380.359 230.869C433.952 225.299 477.578 183.175 531.555 175.646C744.053 145.755 884.642 22.1644 895.124 -123.745" stroke="white" stroke-width="0.2" stroke-miterlimit="10"/>
<path d="M-570.941 87.4421C-577.203 65.6415 -558.842 46.4133 -538.399 40.7934C-516.076 34.5998 -492.01 38.9009 -470.921 51.4991C-450.48 63.6352 -434.152 81.8762 -415.894 100.005C-408.529 107.279 -400.703 114.67 -392.505 121.369C-380.88 130.725 -368.186 138.93 -354.189 144.023C-332.097 152.126 -310.203 151.582 -291.165 146.767C-284.483 145.047 -278.15 142.866 -272.303 140.338C-253.082 131.718 -237.626 118.712 -225.102 100.744C-222.132 96.4818 -219.337 91.9892 -216.853 87.3809C-204.297 64.2241 -195.494 36.7959 -178.718 13.9911C-158.164 -13.8812 -126.856 -30.7846 -90.3159 -35.3433C-77.7959 -36.9393 -64.9503 -36.9206 -52.0653 -35.1724C-6.76233 -29.2262 38.2766 -5.17853 74.7597 25.3134C80.3418 29.9335 85.7997 34.784 90.9588 39.634C130.337 76.1257 163.013 118.257 202.392 154.749C240.922 190.317 289.268 221.403 341.482 229.088C352.412 230.719 362.856 230.618 373.023 229.365C426.078 222.87 468.881 179.926 522.807 173.202C740.912 146.424 883.746 15.6528 894.158 -131.107" stroke="white" stroke-width="0.2" stroke-miterlimit="10"/>
<path d="M-571.358 84.4009C-577.47 62.5944 -558.481 43.5925 -537.808 38.6635C-515.381 33.3911 -491.335 38.8468 -471.077 52.0242C-451.157 64.855 -435.549 83.3308 -417.876 101.579C-410.659 108.855 -402.982 116.248 -394.77 123.064C-383.294 132.423 -370.462 140.515 -356.476 145.495C-334.27 153.254 -312.448 152.018 -293.643 146.394C-287.134 144.443 -280.975 142.03 -275.177 139.04C-256.638 129.61 -242.162 115.791 -230.406 97.5859C-227.597 93.2074 -224.951 88.7133 -222.615 84.1035C-210.678 60.7087 -202.156 33.3877 -185.039 10.9232C-164.142 -16.6104 -131.991 -32.7098 -95.0459 -36.3463C-82.486 -37.5966 -69.6131 -37.3471 -56.8503 -35.3678C-11.7513 -28.6127 32.4465 -4.09789 68.4843 26.4022C74.0668 31.0236 79.3757 35.8753 84.5352 40.7267C123.455 77.1129 156.095 118.911 195.587 155.067C234.233 190.299 282.682 220.933 334.99 228.045C345.91 229.56 356.342 229.345 366.487 227.86C419.002 220.44 460.969 176.561 514.868 170.873C738.593 147.326 883.795 9.14127 894.149 -138.352" stroke="white" stroke-width="0.2" stroke-miterlimit="10"/>
<path d="M-571.717 81.3231C-577.815 59.6257 -558.211 40.7347 -536.998 36.6128C-514.328 32.1469 -490.589 38.8729 -470.865 52.6301C-451.626 66.0406 -436.727 84.8669 -419.352 103.12C-412.421 110.513 -404.743 117.908 -396.693 124.611C-385.365 133.972 -372.545 141.951 -358.582 146.701C-336.411 154.117 -314.349 152.304 -295.94 145.755C-289.604 143.573 -283.481 140.813 -278.005 137.591C-260.161 127.234 -246.504 112.718 -235.528 94.1607C-232.868 89.7808 -230.532 85.1697 -228.208 80.4432C-217.038 56.8099 -208.649 29.5963 -191.339 7.47183C-170.1 -19.7229 -136.957 -35.0177 -99.9046 -37.732C-87.3047 -38.6364 -74.4046 -38.156 -61.6147 -35.9453C-16.7071 -28.2653 26.6241 -3.51376 62.2164 26.9946C67.6499 31.6172 72.9591 36.4703 78.119 41.3232C116.743 77.7196 149.196 119.183 188.641 154.888C227.413 189.901 275.955 219.967 328.357 226.504C339.266 227.904 349.525 227.458 359.659 225.858C411.622 217.397 452.617 172.696 506.626 167.93C735.973 147.617 883.411 2.12836 893.694 -146.215" stroke="white" stroke-width="0.2" stroke-miterlimit="10"/>
<path d="M-572.215 78.2825C-578.312 56.5789 -558.079 37.9145 -536.339 34.4846C-513.415 30.9411 -489.995 38.8226 -470.953 53.1599C-452.235 67.2659 -438.071 86.2119 -421.28 104.585C-414.498 111.98 -407.107 119.492 -398.906 126.197C-387.577 135.561 -374.905 143.542 -360.816 148.063C-338.518 155.251 -316.54 152.629 -298.364 145.27C-292.065 142.741 -286.115 139.749 -280.813 136.295C-263.65 125.127 -250.986 109.683 -240.766 91.0034C-238.267 86.5066 -236.08 81.8939 -234.054 77.1656C-223.503 53.2941 -215.246 26.188 -197.893 4.40364C-176.323 -22.5674 -142.325 -36.9418 -104.88 -38.8484C-92.2523 -39.5221 -79.2998 -38.5798 -66.6324 -36.1378C-21.9292 -27.6479 20.5601 -2.42878 55.7066 28.0878C61.1405 32.7117 66.3007 37.5659 71.4608 42.4202C109.626 78.7111 142.055 119.956 181.465 155.325C220.352 190.001 269.146 219.615 321.332 225.462C332.217 226.632 342.466 226.07 352.427 224.238C403.851 214.852 444.022 169.329 497.992 165.485C732.987 148.638 882.788 -4.38822 893.001 -153.581" stroke="white" stroke-width="0.2" stroke-miterlimit="10"/>
<path d="M-572.616 75.2345C-578.55 53.6407 -557.702 35.0876 -535.571 32.4655C-512.405 29.7295 -489.293 38.8826 -470.934 53.8C-452.9 68.4861 -439.295 87.7827 -422.951 106.16C-416.307 113.673 -409.077 121.071 -401.025 127.778C-389.845 137.144 -377.034 145.012 -362.956 149.419C-340.693 156.262 -318.637 152.947 -300.695 144.779C-294.569 142.017 -288.805 138.679 -283.676 134.992C-267.207 122.897 -255.512 106.754 -246.073 87.7225C-243.872 83.2241 -241.696 78.4948 -239.819 73.765C-230.048 49.5395 -221.924 22.5414 -204.217 1.21337C-182.304 -25.4181 -147.464 -38.987 -109.613 -39.9699C-96.9459 -40.2974 -83.9663 -39.1239 -71.272 -36.4502C-26.761 -27.0346 15.0101 -1.5786 49.7105 28.9458C54.9954 33.5708 60.1558 38.4264 65.3162 43.2821C103.036 79.5824 135.428 120.492 174.939 155.41C213.94 189.75 262.838 218.91 315.118 224.182C325.993 225.237 336.231 224.559 346.169 222.496C397.054 212.183 436.401 165.839 490.318 162.802C730.823 149.538 882.976 -11.1437 893.27 -161.185" stroke="white" stroke-width="0.2" stroke-miterlimit="10"/>
<path d="M-573.025 72.1785C-578.944 50.6941 -557.493 32.1369 -534.958 30.4385C-511.689 28.6258 -488.598 38.936 -470.922 54.434C-453.422 69.7007 -440.54 89.2326 -424.768 107.845C-418.273 115.36 -411.179 122.875 -403.276 129.584C-392.083 139.068 -379.433 146.823 -365.391 150.885C-343.013 157.384 -321.028 153.375 -303.319 144.396C-297.217 141.403 -291.639 137.716 -286.696 133.683C-270.771 120.659 -260.194 103.818 -251.537 84.4333C-249.497 79.8179 -247.619 75.0869 -245.741 70.3558C-236.589 45.8919 -228.747 19.0013 -210.847 -1.98584C-188.441 -28.2774 -152.859 -40.5788 -114.652 -41.0993C-101.97 -41.3114 -88.9382 -39.6755 -76.3665 -36.7704C-32.0605 -26.544 8.86778 -0.620113 43.1219 29.9123C48.4196 34.654 53.5679 39.3955 58.4296 44.2521C95.8519 80.5622 127.908 121.136 167.534 155.718C206.662 189.837 255.801 218.428 307.877 223.124C318.741 224.064 328.806 223.155 338.733 220.976C389.079 209.736 427.453 162.57 481.63 160.457C727.809 150.893 882.156 -17.5648 892.38 -168.456" stroke="white" stroke-width="0.2" stroke-miterlimit="10"/>
<path d="M-573.517 69.142C-579.435 47.6519 -557.205 29.322 -534.293 28.3168C-510.782 27.3124 -488 38.8955 -471.008 54.974C-454.179 70.9369 -442.02 90.7039 -426.547 109.321C-420.337 116.953 -413.244 124.47 -405.353 131.065C-394.309 140.552 -381.67 148.193 -367.489 152.141C-344.996 158.295 -323.082 153.593 -305.607 143.802C-299.691 140.462 -294.286 136.543 -289.516 132.277C-274.273 118.441 -264.528 100.785 -256.789 81.1635C-254.91 76.4312 -253.181 71.6986 -251.464 66.8506C-242.931 42.1483 -235.222 15.366 -217.142 -5.39539C-194.393 -31.3469 -157.869 -43.3034 -119.505 -42.4378C-106.771 -42.1878 -93.7253 -40.436 -81.127 -37.2989C-37.0139 -26.146 3.04594 0.0146337 36.8535 30.5546C42.002 35.2974 47.1505 40.0402 52.0125 44.8981C88.9756 81.1018 121.007 121.456 160.585 155.585C199.827 189.366 249.083 217.62 301.229 221.509C312.081 222.333 322.136 221.309 331.89 218.898C381.697 206.73 419.247 158.742 473.383 157.553C725.1 151.807 881.928 -24.5443 892.083 -176.284" stroke="white" stroke-width="0.2" stroke-miterlimit="10"/>
<path d="M-573.883 66.1123C-579.637 44.7318 -556.74 26.9755 -533.487 26.3172C-509.785 25.6595 -487.261 38.9784 -470.954 55.6382C-454.659 72.1824 -443.211 92.3007 -428.336 110.922C-422.276 118.556 -415.331 126.075 -407.577 132.787C-396.532 142.277 -383.892 149.92 -369.734 153.638C-347.276 159.448 -325.134 154.051 -308.029 143.564C-302.136 139.992 -296.904 135.841 -292.32 131.227C-277.771 116.462 -268.994 98.1066 -261.887 78.1317C-260.157 73.3978 -258.589 68.5482 -257.171 63.6983C-249.405 38.7569 -241.679 12.0825 -223.556 -8.33798C-200.463 -33.9496 -163.096 -45.0994 -124.327 -43.3086C-111.404 -42.7116 -98.4799 -40.7283 -85.9918 -37.2439C-42.084 -25.2793 -2.86786 1.34981 30.4931 31.898C35.6418 36.6421 40.6411 41.3861 45.5033 46.2453C82.1691 82.4591 114.014 122.478 153.557 156.27C192.914 189.715 242.424 217.515 294.365 220.827C305.207 221.537 315.238 220.281 324.833 217.754C374.113 204.773 410.503 154.229 464.912 155.465C723.282 161.051 881.585 -31.1744 891.836 -183.65" stroke="white" stroke-width="0.2" stroke-miterlimit="10"/>
<path d="M-574.176 62.944C-579.916 41.6737 -556.453 23.5672 -532.76 24.1806C-508.767 24.7943 -486.602 38.925 -470.83 56.1661C-455.208 73.4068 -444.345 93.6448 -429.894 112.502C-423.984 120.137 -417.176 127.774 -409.584 134.372C-398.687 143.863 -386.059 151.393 -371.775 154.881C-349.202 160.346 -327.118 154.37 -310.259 142.956C-304.552 139.036 -299.343 134.653 -295.082 129.806C-281.066 114.227 -273.42 95.057 -267.082 74.8449C-265.513 69.994 -264.244 65.1427 -262.824 60.2917C-255.828 35.1117 -248.234 8.54606 -229.77 -11.5323C-206.347 -36.9187 -167.975 -47.1453 -128.95 -44.429C-116 -43.6006 -103.037 -41.2701 -90.6724 -37.5539C-46.9584 -24.6619 -8.61161 2.20387 24.3022 32.7592C29.3017 37.5043 34.3011 42.2495 39.151 46.9944C75.3571 83.1011 107.177 122.899 146.822 156.238C186.305 189.46 235.907 216.69 287.931 219.31C298.762 219.904 308.769 218.417 318.341 215.658C367.069 201.634 402.71 150.96 457.015 152.544C720.123 160.103 881.299 -37.8275 891.481 -191.15" stroke="white" stroke-width="0.2" stroke-miterlimit="10"/>
<path d="M-574.62 59.8804C-580.359 38.6045 -556.13 20.6101 -532.046 22.0334C-507.812 23.4569 -485.957 38.8623 -470.87 56.6848C-455.783 74.5073 -445.782 95.0962 -431.779 113.957C-426.006 121.71 -419.36 129.233 -411.755 135.948C-401.007 145.442 -388.378 152.974 -374.117 156.232C-351.566 161.467 -329.416 154.681 -312.789 142.454C-307.106 138.302 -302.233 133.57 -298.008 128.375C-284.685 111.867 -278.008 91.997 -272.453 71.4316C-271.182 66.579 -269.924 61.6108 -268.666 56.6427C-262.289 31.224 -254.977 4.76655 -236.32 -14.97C-212.554 -40.0157 -173.339 -49.4345 -134.059 -45.7922C-121.07 -44.6168 -108.08 -42.0544 -95.6884 -38.1059C-52.1807 -24.4016 -14.6786 2.93245 17.788 33.4953C22.7877 38.2417 27.6377 42.9879 32.4878 47.7341C68.2465 83.8499 100.017 123.196 139.639 156.312C179.087 189.197 229.092 215.972 281.061 218.016C291.882 218.494 301.729 216.891 311.277 213.9C359.466 198.947 394.259 148.605 448.535 149.843C716.633 156.141 880.851 -44.6101 890.966 -198.783" stroke="white" stroke-width="0.2" stroke-miterlimit="10"/>
<path d="M-575.014 56.8264C-580.601 35.5452 -555.754 17.6626 -531.268 20.0119C-506.781 22.3612 -485.248 38.9264 -470.847 57.3307C-456.445 75.7349 -447.018 96.5596 -433.452 115.541C-419.886 134.522 -400.46 152.356 -376.26 157.595C-345.938 164.115 -316.503 148.552 -300.721 127.071C-284.939 105.591 -280.029 79.0074 -274.271 53.35C-268.513 27.6925 -261.483 1.3433 -242.484 -18.051C-210.433 -50.9524 -150.152 -55.139 -100.318 -38.2998C-50.3343 -21.4603 -9.25086 12.7077 26.2098 48.8326C61.6581 84.8419 93.2541 123.967 132.829 156.63C172.403 189.292 222.5 215.497 274.415 216.963C339.521 218.679 375.098 144.972 440.291 147.498C713.793 157.739 880.617 -51.2694 890.666 -206.292" stroke="white" stroke-width="0.2" stroke-miterlimit="10"/>
<path d="M-575.251 57.928C-579.843 38.9702 -555.058 23.4076 -529.905 26.4498C-505.501 29.4909 -483.696 45.8168 -468.747 63.7501C-458.286 76.1301 -450.267 89.4309 -441.701 102.27C-437.935 108.054 -434.044 113.606 -429.718 119.044C-415.989 136.744 -397.014 153.181 -373.382 157.377C-352.641 161.106 -332.427 154.434 -316.664 142.555C-310.035 137.481 -304.092 131.597 -299.408 125.133C-283.661 103.432 -277.861 76.8633 -271.326 51.5668C-265.948 30.7751 -259.549 9.75385 -246.604 -7.44429C-243.739 -11.3688 -240.549 -15.0618 -236.886 -18.5229C-203.843 -50.3663 -143.507 -53.8578 -93.4724 -36.4495C-82.5904 -32.6199 -72.0695 -27.9819 -61.9349 -22.7667C-25.7966 -3.87712 5.12211 23.4401 32.5888 52.0233C67.6359 88.4755 98.9824 128.042 138.154 161.149C177.126 193.794 226.491 220.215 277.966 221.91C283.512 222.034 288.859 221.695 294.007 220.894C345.304 212.651 379.039 159.547 430.225 153.037C434.064 152.581 437.928 152.355 441.816 152.361C500.558 153.489 553.974 144.094 602.59 127.643C683.645 100.032 750.946 53.1023 799.737 -0.441622C854.109 -60.4482 885.707 -129.155 891.783 -189.119" stroke="white" stroke-width="0.2" stroke-miterlimit="10"/>
<path d="M-575.542 59.0446C-579.152 42.2927 -554.427 29.0479 -528.733 33.013C-504.409 36.7451 -482.334 52.8315 -466.7 70.1788C-455.816 82.3219 -447.261 95.0389 -438.197 106.948C-434.182 112.267 -430.167 117.586 -425.89 122.558C-412.001 138.979 -393.49 153.905 -370.4 157.289C-350.201 160.206 -330.494 153.075 -315.051 141.087C-308.438 135.9 -302.66 129.903 -297.991 123.326C-282.13 101.406 -275.728 74.968 -268.428 49.9169C-262.284 29.3683 -254.957 8.70594 -241.373 -8.0203C-238.347 -11.8271 -234.997 -15.4023 -231.174 -18.7459C-196.989 -49.5316 -136.599 -52.3288 -86.5008 -34.2371C-75.6088 -30.2941 -65.0777 -25.5432 -55.0821 -20.2156C-19.0503 -0.874476 11.6036 26.7741 38.9563 55.6882C73.7519 92.5825 104.4 132.589 143.617 166.14C181.837 198.766 230.781 225.518 281.804 227.327C287.362 227.566 292.707 227.228 297.852 226.427C348.87 218.534 382.494 166.035 432.516 158.602C436.191 158.03 439.904 157.805 443.791 157.811C500.882 157.665 552.833 147.348 600.494 130.557C680.245 102.265 748.437 56.9778 797.936 6.11921C853.076 -50.6212 885.522 -115.364 893.34 -171.482" stroke="white" stroke-width="0.2" stroke-miterlimit="10"/>
<path d="M-575.598 60.0492C-578.225 45.501 -553.559 34.5716 -527.174 39.4588C-502.932 43.8811 -480.586 59.7282 -464.418 76.4897C-453.124 88.2803 -443.885 100.414 -434.609 111.509C-430.482 116.479 -426.368 121.333 -421.98 125.957C-407.931 141.099 -389.872 154.631 -367.35 156.973C-347.706 158.965 -328.493 151.49 -313.381 139.277C-306.933 133.977 -301.171 127.867 -296.505 121.295C-280.679 99.1554 -273.675 72.8475 -265.312 48.0422C-258.552 27.7364 -250.297 7.4328 -236.073 -8.82189C-232.887 -12.511 -229.378 -15.9687 -225.544 -19.1951C-190.355 -48.8087 -129.909 -50.9124 -79.773 -32.3692C-68.8711 -28.3129 -58.3298 -23.4492 -48.3236 -18.0092C-12.3983 1.78275 18.1276 29.6468 45.0673 58.8908C79.6114 96.2261 109.861 136.672 148.674 170.666C186.154 203.388 234.503 230.24 285.088 232.277C290.643 232.516 295.837 232.178 300.993 231.493C351.731 223.95 385.259 172.171 434.116 163.817C437.64 163.245 441.339 162.904 445.213 162.794C500.814 161.491 551.002 150.253 597.846 133.008C676.431 103.921 745.376 60.3898 795.435 12.2138C851.319 -41.4943 884.64 -102.046 894.352 -154.322" stroke="white" stroke-width="0.2" stroke-miterlimit="10"/>
<path d="M-575.887 61.179C-577.531 48.8323 -552.91 40.3313 -525.847 46.024C-501.686 51.1357 -479.083 66.6281 -462.357 83.0347C-450.653 94.4732 -440.879 106.024 -431.244 116.306C-427.006 120.927 -422.631 125.433 -418.293 129.592C-404.084 143.457 -386.329 155.597 -364.375 156.898C-345.273 158.08 -326.554 150.262 -311.924 137.824C-305.641 132.411 -299.895 126.19 -295.232 119.621C-279.304 97.1477 -271.548 70.9708 -262.409 46.5264C-254.896 26.3483 -245.851 6.51845 -230.838 -9.26476C-227.492 -12.8362 -223.822 -16.1765 -219.828 -19.2855C-183.648 -47.8433 -122.998 -49.254 -72.8109 -30.1447C-61.8991 -25.9755 -51.497 -20.9994 -41.331 -15.4469C-5.37538 4.67976 24.8981 32.9891 51.5743 62.5622C85.7173 100.337 115.568 141.221 154.128 175.657C190.855 208.36 238.622 235.426 288.779 237.807C294.184 238.046 299.538 237.823 304.53 237.023C355.001 229.944 388.556 178.655 436.249 169.38C439.76 168.693 443.296 168.237 447.018 168.127C500.969 165.553 549.692 153.396 595.732 135.812C673.014 106.046 742.688 64.0391 793.619 18.6593C850.26 -31.9035 884.445 -88.3831 896.051 -136.82" stroke="white" stroke-width="0.2" stroke-miterlimit="10"/>
<path d="M-576.14 62.2023C-576.799 52.0549 -552.236 45.8644 -524.482 52.4769C-500.402 58.277 -477.53 73.53 -460.271 89.3513C-448.159 100.438 -437.851 111.406 -427.844 120.991C-423.345 125.264 -419.021 129.305 -414.573 133.117C-400.206 145.706 -382.903 156.454 -361.505 156.831C-342.946 157.204 -324.733 148.929 -310.434 136.266C-304.167 130.741 -298.574 124.523 -293.926 117.842C-278.034 95.1511 -269.527 69.1055 -259.474 44.907C-251.196 24.972 -241.225 5.50069 -225.722 -9.81173C-222.216 -13.2657 -218.386 -16.4885 -214.381 -19.4805C-177.06 -46.983 -116.505 -47.702 -66.2552 -27.9124C-55.3336 -23.6304 -44.9213 -18.542 -34.8943 -12.8776C0.954555 7.69808 30.9504 36.221 57.5124 66.1226C91.3911 104.221 120.706 145.657 159.161 180.534C195.137 213.216 242.321 240.496 292.039 243.105C297.441 243.343 302.644 243.12 307.797 242.436C358.138 235.706 391.448 185.138 437.976 174.944C441.323 174.142 444.858 173.686 448.417 173.46C500.866 169.616 547.976 156.541 593.063 138.619C669.055 108.291 739.595 67.6921 791.099 25.1058C848.499 -22.3145 883.549 -74.7253 896.9 -119.327" stroke="white" stroke-width="0.2" stroke-miterlimit="10"/>
<path d="M-576.368 63.3478C-575.882 55.5127 -551.549 51.3994 -523.255 58.9303C-499.268 65.3027 -475.965 80.4318 -458.311 95.7833C-445.778 106.633 -434.95 116.905 -424.585 125.677C-419.975 129.602 -415.553 133.18 -410.993 136.644C-396.469 147.958 -379.632 157.201 -358.791 156.655C-340.774 156.22 -323.067 147.487 -309.099 134.601C-302.998 128.964 -297.42 122.634 -292.776 115.957C-276.769 93.0489 -267.66 67.1346 -256.844 43.1817C-247.801 23.4898 -237.053 4.37665 -220.774 -10.5802C-217.108 -13.9167 -213.118 -17.0222 -208.966 -20.0123C-170.654 -46.4607 -109.882 -46.3731 -59.5949 -26.1348C-48.6635 -21.7402 -38.2411 -16.5397 -28.2037 -10.7636C7.67502 10.1453 37.4183 39.1117 63.7166 69.3407C97.194 107.877 126.259 149.748 164.298 184.949C199.684 217.726 246.136 245.219 295.403 247.94C300.816 248.294 306.017 248.071 311.018 247.387C361.08 241.006 394.444 191.158 439.646 179.93C442.992 179.128 446.363 178.557 449.76 178.216C500.558 173.104 546.068 159.226 590.339 140.853C665.016 109.732 736.309 70.8863 788.675 30.9759C846.684 -13.3052 882.762 -61.5359 897.997 -102.422" stroke="white" stroke-width="0.2" stroke-miterlimit="10"/>
<path d="M-576.409 64.5168C-574.938 58.8759 -550.66 57.0679 -521.676 65.5161C-497.783 72.46 -474.199 87.4648 -456.014 102.232C-443.073 112.73 -431.564 122.42 -420.841 130.382C-416.121 133.958 -411.439 137.19 -406.931 140.19C-392.262 150.115 -375.867 158.085 -355.582 156.617C-338.12 155.26 -321.056 146.186 -307.258 133.192C-301.172 127.443 -295.759 121.001 -291.118 114.328C-275.147 91.2034 -265.3 65.3058 -253.559 41.7141C-243.764 22.1503 -232.226 3.51033 -215.159 -10.9759C-211.333 -14.195 -207.333 -17.1835 -202.872 -20.0563C-163.569 -45.4513 -102.742 -44.6736 -52.4056 -23.8725C-41.4645 -19.3655 -31.0321 -14.0532 -21.1337 -8.16573C14.6379 13.1904 44.2525 42.3689 70.2996 73.0394C103.525 112.012 132.042 154.317 169.827 189.957C204.46 222.712 250.479 250.417 299.157 253.366C304.419 253.719 309.618 253.496 314.63 252.927C364.413 246.894 397.681 197.767 441.72 185.623C444.903 184.706 448.123 184.135 451.506 183.679C500.654 177.3 544.701 162.506 588.007 143.681C661.531 111.886 733.404 74.5605 786.494 37.4385C845.263 -3.70613 882.209 -47.8761 899.19 -84.9344" stroke="white" stroke-width="0.2" stroke-miterlimit="10"/>
<path d="M-576.723 65.5691C-574.267 62.1198 -550.057 62.4992 -520.371 71.9784C-496.57 79.4928 -472.707 94.3731 -453.992 108.556C-440.644 118.702 -428.603 127.811 -417.524 134.963C-412.557 138.077 -407.913 140.961 -403.295 143.614C-388.62 152.267 -372.53 158.85 -352.814 156.345C-335.894 154.182 -319.324 144.768 -305.869 131.437C-299.949 125.576 -294.552 119.023 -289.926 112.239C-273.841 88.8985 -263.394 63.133 -250.741 39.7875C-240.331 20.4669 -227.719 2.18534 -210.162 -11.831C-206.176 -14.9328 -202.028 -17.9193 -197.544 -20.5601C-157.252 -44.9025 -96.2212 -43.4355 -45.8229 -21.9577C-34.8723 -17.3387 -24.43 -11.9147 -14.5213 -5.91608C21.292 15.8864 50.4919 45.3907 76.2623 76.2712C109.235 115.678 137.353 158.417 174.734 194.493C208.615 227.226 254.051 255.142 302.439 258.317C307.699 258.67 312.909 258.562 317.919 257.994C367.422 252.309 400.596 203.903 443.458 190.728C446.491 189.811 449.685 189.01 452.917 188.554C500.577 181.025 542.849 165.202 585.502 146.042C657.724 113.574 730.338 77.8827 784.29 43.4315C843.669 5.42022 881.633 -34.6929 900.51 -67.9274" stroke="white" stroke-width="0.2" stroke-miterlimit="10"/>
<path d="M-576.881 66.7663C-573.441 65.5059 -549.284 68.1848 -518.91 78.5783C-495.352 86.6621 -471.059 101.418 -451.654 115.131C-437.75 124.927 -425.328 133.455 -413.892 139.797C-408.815 142.565 -404.062 145.101 -399.347 147.293C-384.516 154.675 -368.881 159.872 -349.734 156.333C-333.357 153.366 -317.293 143.497 -304.169 129.943C-298.414 123.97 -293.02 117.422 -288.41 110.528C-272.361 86.9718 -261.176 61.224 -247.599 38.2398C-236.438 19.0478 -223.037 1.23915 -204.693 -12.3071C-200.547 -15.2918 -196.24 -18.1611 -191.596 -20.685C-150.314 -43.9757 -89.2166 -41.7056 -38.7823 -19.7827C-27.8222 -15.0519 -17.5319 -9.63188 -7.45132 -3.40707C28.2416 18.7254 57.3249 48.5546 82.8438 79.8741C115.402 119.6 143.12 162.769 180.408 199.395C213.686 232.106 258.39 260.231 306.352 263.748C311.61 264.101 316.669 263.993 321.69 263.54C371.075 258.318 404.142 210.517 445.692 196.428C448.71 195.397 451.754 194.596 454.823 194.026C500.833 185.233 541.643 168.498 583.344 149.003C654.264 115.862 727.755 81.69 782.27 49.9066C842.261 15.0253 881.244 -21.0352 902.017 -50.4502" stroke="white" stroke-width="0.2" stroke-miterlimit="10"/>
<path d="M-576.976 67.8123C-572.55 68.738 -548.459 73.5988 -517.544 84.9062C-494.078 93.5596 -469.369 108.077 -449.571 121.323C-435.248 130.884 -422.296 138.833 -410.517 144.252C-405.33 146.673 -400.331 148.749 -395.804 150.594C-380.818 156.707 -365.637 160.521 -347.046 156.064C-331.36 152.292 -315.651 141.968 -302.994 128.306C-297.253 122.222 -292.024 115.562 -287.416 108.671C-271.252 84.8991 -259.465 59.2817 -245.125 36.5415C-233.199 17.5913 -219.022 0.138457 -200.038 -12.9397C-195.746 -15.9225 -191.265 -18.5601 -186.624 -21.0827C-144.349 -43.3248 -83.0462 -40.367 -32.5615 -17.8827C-21.7406 -13.04 -11.2911 -7.50815 -1.34921 -1.17233C34.3862 21.4067 63.0553 51.5626 88.4595 83.2084C120.766 123.37 148.085 166.973 184.969 204.037C217.496 236.727 261.631 265.18 309.143 268.809C314.4 269.161 319.47 269.168 324.327 268.6C373.436 263.724 406.412 216.64 446.788 201.522C449.657 200.492 452.687 199.576 455.742 198.891C500.105 188.836 539.321 171.303 580.208 151.358C649.82 117.428 724.069 84.9996 779.45 55.8785C840.206 24.121 879.912 -7.89529 902.584 -33.4978" stroke="white" stroke-width="0.2" stroke-miterlimit="10"/>
<path d="M-577.27 68.5846C-571.845 71.8115 -547.821 78.7433 -516.192 91.0896C-492.659 100.32 -467.812 114.727 -447.478 127.402C-432.745 136.621 -419.258 143.998 -407.107 148.729C-401.808 150.806 -396.709 152.423 -392.071 153.924C-377.086 158.658 -362.192 161.208 -344.159 155.714C-329.007 151.136 -313.942 140.349 -301.457 126.454C-295.877 120.253 -290.659 113.476 -286.051 106.584C-269.759 82.5761 -257.359 57.0681 -242.096 34.5535C-229.396 15.8297 -214.283 -1.28116 -194.649 -13.9016C-190.193 -16.7699 -185.551 -19.293 -180.746 -21.701C-137.456 -42.9121 -76.0684 -39.2632 -25.5021 -16.0829C-14.6674 -11.1239 -4.20404 -5.47557 5.75146 0.976911C41.3794 23.9066 69.9394 54.4151 95.0849 86.4136C126.997 127.045 153.92 171.118 190.56 208.652C222.492 241.349 265.912 270.039 313.008 273.898C318.129 274.365 323.187 274.257 328.207 273.804C377.062 269.272 409.973 222.867 449.211 206.824C452.066 205.678 454.948 204.762 457.842 203.961C500.743 192.753 538.36 174.178 578.322 153.882C646.676 119.253 721.549 88.3124 777.841 61.9451C839.235 33.1704 880.001 5.28699 904.587 -16.5249" stroke="white" stroke-width="0.2" stroke-miterlimit="10"/>
<path d="M-577.586 69.415C-571.025 74.8294 -547.205 83.948 -514.861 97.3336C-491.425 107.027 -466.276 121.437 -445.395 133.657C-430.251 142.533 -416.229 149.338 -403.568 153.266C-398.009 154.999 -392.948 156.271 -388.21 157.312C-373.213 160.783 -358.619 161.954 -341.132 155.538C-326.513 150.153 -311.944 138.902 -299.767 124.888C-294.348 118.571 -289.142 111.677 -284.532 104.783C-268.261 80.5396 -254.964 55.0266 -238.913 32.8526C-225.452 14.2403 -209.539 -2.4136 -189.254 -14.5761C-184.785 -17.3301 -179.98 -19.7386 -175.013 -22.0318C-130.706 -42.2115 -69.0729 -37.7558 -18.4504 -14.1093C-7.60184 -9.03397 2.87527 -3.26912 12.6953 3.29986C48.2281 26.6954 76.679 57.5566 101.566 89.9079C133.232 131.009 159.746 175.438 196.154 213.556C227.343 246.261 270.344 275.187 316.876 279.277C321.997 279.744 327.068 279.751 331.94 279.298C380.542 275.11 413.537 229.383 451.473 212.3C454.168 211.038 456.901 210.122 459.782 209.206C501.06 196.728 537.09 177.227 576.424 156.58C643.52 121.251 719.168 91.7993 776.369 68.1873C838.265 42.5117 880.227 18.6486 906.578 0.62913" stroke="white" stroke-width="0.2" stroke-miterlimit="10"/>
<path d="M-577.716 70.0758C-570.168 77.6787 -546.254 88.9855 -513.495 103.411C-490.141 113.681 -464.555 127.981 -443.288 139.63C-427.583 148.164 -413.176 154.396 -400.154 157.52C-394.483 158.909 -389.323 159.721 -384.473 160.418C-369.465 162.625 -355.169 162.415 -338.091 154.961C-324.007 148.769 -309.933 137.055 -298.076 122.807C-292.669 116.372 -287.611 109.477 -283.012 102.467C-266.614 77.9869 -252.703 52.5834 -235.728 30.6352C-221.493 12.2493 -204.793 -4.06246 -183.721 -15.8818C-179.089 -18.5211 -174.121 -20.8149 -168.991 -22.9935C-123.668 -42.1412 -61.95 -36.9936 -11.2586 -12.7654C-0.396125 -7.57366 10.0947 -1.69222 19.9283 4.99357C55.5153 28.8556 83.5459 59.9543 108.186 92.7739C139.593 134.231 165.724 179.246 201.738 217.833C232.333 250.546 274.618 279.709 320.746 284.145C325.868 284.612 330.791 284.619 335.676 284.28C384.174 280.437 416.966 235.504 453.901 217.379C456.447 216.118 459.155 214.971 461.888 214.055C501.553 200.421 536.134 179.877 574.542 158.879C640.368 122.735 716.815 95.0029 774.765 74.0321C837.311 51.4573 880.321 31.6161 908.586 17.391" stroke="white" stroke-width="0.2" stroke-miterlimit="10"/>
<path d="M-577.974 70.846C-569.439 80.6384 -545.592 94.0192 -512.106 109.6C-488.849 120.333 -462.962 134.638 -441.159 145.714C-425.043 153.906 -410.101 159.565 -396.719 161.885C-390.936 162.929 -385.663 163.397 -380.714 163.634C-365.532 164.691 -351.698 162.984 -335.165 154.608C-321.615 147.608 -308.023 135.545 -296.501 120.948C-291.254 114.397 -286.207 107.385 -281.621 100.257C-265.243 75.5416 -250.571 50.2481 -232.82 28.5259C-217.811 10.3668 -200.174 -5.60237 -178.451 -16.9633C-173.657 -19.4879 -168.539 -21.7821 -163.246 -23.8458C-116.906 -41.961 -55.1042 -36.1212 -4.18237 -11.196C6.69387 -5.88779 17.0493 0.110059 27.0456 6.91284C62.5246 31.126 90.4584 62.6927 114.827 95.7502C145.839 137.677 171.573 183.163 207.341 222.22C237.341 254.94 278.922 284.455 324.77 289.007C329.744 289.474 334.83 289.596 339.715 289.258C387.973 285.873 420.687 241.505 456.469 222.339C459.003 220.962 461.562 219.815 464.133 218.783C502.324 203.878 535.168 182.407 572.799 161.058C637.367 124.213 714.438 97.9713 773.447 79.7588C836.631 60.1714 880.713 44.5845 910.88 34.0409" stroke="white" stroke-width="0.2" stroke-miterlimit="10"/>
<path d="M-578.25 71.6336C-568.729 83.6167 -544.938 99.1877 -510.75 115.694C-487.577 127.006 -461.265 141.084 -438.9 151.82C-422.373 159.669 -406.895 164.755 -393.152 166.271C-387.257 166.969 -381.923 166.632 -376.825 166.869C-361.666 167.696 -348.082 163.687 -332.121 154.157C-319.091 146.464 -306.157 133.822 -294.794 119.106C-289.708 112.438 -284.672 105.309 -280.084 98.1797C-263.579 73.2278 -248.306 47.9288 -229.618 26.5478C-213.847 8.50044 -195.409 -7.01115 -173.035 -17.9135C-168.078 -20.3234 -162.797 -22.5028 -157.491 -24.4519C-110.283 -41.5342 -48.0859 -34.8863 2.74275 -9.49424C13.6328 -4.06953 24.0019 2.04501 33.8625 8.96448C69.3955 33.6444 97.0578 65.4491 121.179 98.9751C151.945 141.373 177.27 187.215 212.656 226.857C241.912 259.585 282.925 289.337 328.357 294.12C333.344 294.702 338.268 294.709 343.167 294.486C391.171 291.446 423.969 247.757 458.463 227.664C460.848 226.286 463.395 225.024 465.805 223.876C502.383 207.815 533.777 185.301 570.482 163.6C633.942 126.054 711.637 101.303 771.407 85.8498C835.241 69.3663 880.37 57.8055 912.302 51.0599" stroke="white" stroke-width="0.2" stroke-miterlimit="10"/>
<path d="M-578.578 72.3026C-568.057 86.5926 -544.199 104.125 -509.433 121.788C-486.356 133.563 -459.743 147.645 -436.842 157.808C-419.891 165.43 -403.878 169.943 -389.786 170.538C-383.642 170.777 -378.295 170.554 -373.135 169.986C-357.928 168.511 -344.679 164.155 -329.276 153.586C-316.929 145.084 -304.342 131.978 -293.299 117.028C-288.225 110.243 -283.487 103.112 -278.761 95.8664C-262.277 70.6782 -246.092 45.4895 -226.616 24.4499C-210.218 6.6293 -190.857 -8.65443 -167.669 -18.9825C-162.549 -21.2777 -157.106 -23.3422 -151.637 -25.1764C-103.425 -41.3402 -41.131 -33.8843 9.92796 -7.7946C20.8318 -2.25334 31.2145 3.9779 41.076 10.8991C76.5008 35.9306 103.917 68.2034 127.928 102.083C158.297 144.951 183.375 191.265 218.515 231.377C247.175 264.112 287.471 294.101 332.487 299.115C337.475 299.698 342.412 299.82 347.162 299.596C394.913 296.901 427.645 253.892 460.987 232.757C463.36 231.263 465.758 230.001 468.156 228.738C503.109 211.404 532.915 187.961 568.83 165.794C631.019 127.431 709.352 104.288 770.18 91.5952C834.502 78.1019 880.839 70.6846 914.685 67.7394" stroke="white" stroke-width="0.2" stroke-miterlimit="10"/>
<path d="M-578.703 73.0776C-567.195 89.5603 -543.244 109.285 -508.063 127.989C-484.933 140.228 -458.168 154.314 -434.731 163.904C-417.219 171.184 -400.819 175.122 -386.205 175.028C-379.948 174.922 -374.502 174.238 -369.23 173.325C-353.997 170.698 -341.059 164.844 -326.203 153.35C-314.39 144.04 -302.298 130.469 -291.726 115.285C-286.812 108.383 -282.085 101.135 -277.209 93.8877C-260.597 68.4634 -243.798 43.3849 -223.397 22.572C-206.225 4.97863 -186.075 -9.96208 -162.236 -19.831C-156.953 -22.0113 -151.496 -23.961 -145.865 -25.6803C-96.6358 -40.8099 -34.0965 -32.5454 16.8687 -5.9887C27.7863 -0.330878 38.1826 6.01709 47.9084 13.055C83.3866 38.5534 110.531 71.0639 134.282 105.297C164.404 148.636 189.072 195.306 223.829 236.003C251.894 268.745 291.622 298.971 336.071 304.216C340.911 304.798 345.849 304.92 350.749 304.697C398.395 302.347 430.924 260.133 463.114 237.955C465.338 236.462 467.574 235.083 469.96 233.705C503.45 215.213 531.668 190.842 566.792 168.208C627.723 129.144 706.829 107.493 768.418 97.5626C833.376 87.0613 880.772 83.7893 916.532 84.6462" stroke="white" stroke-width="0.2" stroke-miterlimit="10"/>
<path d="M-579.021 73.7556C-566.526 92.4323 -542.645 114.235 -506.737 134.097C-483.703 146.8 -456.5 160.775 -432.651 170.023C-414.727 176.96 -397.791 180.324 -382.815 179.424C-376.446 178.972 -370.738 177.944 -365.516 176.569C-350.258 172.79 -337.469 165.552 -323.333 152.903C-311.904 142.784 -300.606 128.748 -290.194 113.444C-285.44 106.425 -280.725 99.0604 -275.847 91.8111C-259.256 66.1501 -241.706 41.0663 -220.517 20.5949C-202.581 3.11341 -181.482 -11.3689 -156.99 -20.7785C-151.545 -22.8439 -145.925 -24.6788 -140.131 -26.283C-89.8839 -40.3781 -27.2604 -31.4199 23.9225 -4.27985C34.8538 1.49468 45.2637 7.95952 55.003 15.1145C90.3855 41.0801 117.27 73.9443 140.911 108.532C170.774 152.227 195.056 199.485 229.418 240.652C256.887 273.402 295.91 303.98 339.943 309.456C344.783 310.039 349.734 310.277 354.486 310.053C401.878 308.048 434.491 266.515 465.38 243.293C467.442 241.683 469.666 240.189 471.916 238.926C503.78 219.16 530.411 193.859 564.758 170.873C624.418 130.991 704.15 110.834 766.797 103.667C832.243 96.1588 880.847 97.0345 918.373 101.695" stroke="white" stroke-width="0.2" stroke-miterlimit="10"/>
<path d="M-579.247 74.5051C-565.617 95.377 -541.805 119.259 -505.332 140.163C-482.233 153.445 -454.891 167.309 -430.505 175.985C-412.169 182.578 -394.697 185.368 -379.359 183.662C-372.878 182.865 -367.058 181.491 -361.735 179.655C-346.316 174.608 -333.974 165.985 -320.384 152.41C-309.476 141.597 -298.687 126.981 -288.595 111.443C-283.853 104.307 -279.299 96.8248 -274.42 89.5738C-257.7 63.6764 -239.536 38.7027 -217.421 18.4582C-198.71 1.20412 -176.822 -12.9348 -151.529 -21.8846C-145.921 -23.8351 -140.138 -25.5549 -134.194 -27.1592C-82.9297 -40.2191 -20.0732 -30.5668 31.0412 -2.72875C41.9861 3.16248 52.2603 9.74398 62.1622 17.0162C97.5856 43.334 124.211 76.5516 147.442 111.492C176.908 155.659 200.93 203.273 235.045 244.912C261.769 277.669 300.222 308.484 343.838 314.192C348.691 314.89 353.494 315.127 358.246 314.904C405.397 313.358 438.094 272.507 467.681 248.241C469.744 246.631 471.806 245.021 473.895 243.642C504.295 222.718 529.325 196.372 562.745 173.033C621.146 132.449 701.502 113.785 765.059 109.384C830.993 104.87 880.803 109.895 920.243 118.362" stroke="white" stroke-width="0.2" stroke-miterlimit="10"/>
<path d="M-579.398 75.2833C-564.782 98.3514 -540.891 124.314 -503.841 146.377C-480.838 160.123 -453.058 173.876 -428.271 182.093C-409.374 188.343 -391.352 190.674 -375.815 188.046C-369.072 186.903 -363.301 185.068 -357.866 182.886C-342.421 176.686 -330.39 166.563 -317.358 151.947C-306.984 140.323 -296.69 125.242 -286.907 109.584C-282.339 102.216 -277.77 94.8472 -272.915 87.3639C-256.067 61.2299 -237.139 36.3665 -214.247 16.3486C-194.76 -0.678055 -172.083 -14.4735 -146.151 -23.0788C-140.393 -25.0295 -134.447 -26.6342 -128.476 -28.0084C-76.2071 -40.1479 -13.2415 -29.5708 38.0776 -1.26423C49.0362 4.74378 59.3239 11.4422 69.09 18.8313C104.417 45.6168 130.932 79.1883 153.903 114.483C183.121 159.121 206.732 207.093 240.464 249.318C266.592 282.082 304.326 313.135 347.526 319.074C352.379 319.772 357.183 320.01 361.948 319.901C408.845 318.701 441.477 278.531 469.911 253.221C471.812 251.495 473.875 249.885 475.802 248.389C504.577 226.191 528.018 198.914 560.66 175.222C617.791 133.82 698.921 116.652 763.4 115.132C829.97 113.614 880.838 122.791 922.043 135.065" stroke="white" stroke-width="0.2" stroke-miterlimit="10"/>
<path d="M-579.662 75.9274C-564.059 101.193 -540.077 129.351 -502.611 152.458C-479.557 166.669 -451.624 180.426 -426.288 188.185C-406.978 194.091 -388.42 195.847 -372.52 192.412C-365.665 190.924 -359.781 188.742 -354.247 186.099C-338.625 178.745 -326.893 167.236 -314.432 151.463C-304.592 139.029 -294.93 123.597 -285.332 107.59C-280.924 100.104 -276.366 92.6186 -271.51 85.1335C-254.683 58.7627 -234.991 34.0097 -211.322 14.2187C-191.072 -2.69565 -167.593 -16.0322 -140.86 -24.1771C-134.938 -26.0128 -128.979 -27.5026 -122.696 -28.7614C-69.5584 -39.8649 -6.21049 -28.5927 45.1764 0.297448C56.1487 6.42227 66.4499 13.2377 76.2293 20.744C111.46 47.9971 137.703 81.8071 160.575 117.572C189.396 162.681 212.758 211.126 246.093 253.821C271.624 286.593 308.641 317.883 351.572 324.054C356.277 324.752 361.094 325.105 365.86 324.997C412.652 324.142 445.23 284.769 472.362 258.413C474.264 256.687 476.166 254.961 477.931 253.35C505.092 229.991 527.082 201.668 558.946 177.624C614.818 135.519 696.56 119.731 761.961 121.094C829.153 122.459 881.092 135.904 924.211 151.988" stroke="white" stroke-width="0.2" stroke-miterlimit="10"/>
<path d="M-579.944 76.7208C-563.343 104.3 -539.295 134.426 -501.252 158.692C-478.295 173.368 -449.911 187.129 -424.037 194.315C-404.315 199.877 -385.22 201.058 -368.808 196.816C-361.84 194.982 -355.694 192.454 -350.209 189.349C-334.425 180.725 -323.139 167.829 -311.224 151.129C-301.905 137.999 -292.752 121.987 -283.474 105.744C-279.078 98.1414 -274.681 90.5385 -269.824 83.0516C-252.867 56.4438 -232.572 31.6856 -207.964 12.237C-186.938 -4.44973 -162.533 -17.5575 -135.284 -25.1272C-129.2 -26.8477 -123.078 -28.2223 -116.781 -29.3661C-62.6376 -39.5483 0.806601 -27.4657 52.274 2.12384C63.1106 8.36535 73.5746 15.2981 83.218 22.9214C118.49 50.5274 144.484 84.8069 167.083 120.811C195.643 166.277 218.607 215.195 251.558 258.477C276.48 291.141 312.939 322.784 355.316 329.302C360.022 330 364.839 330.353 369.47 330.36C416.008 329.851 448.669 291.16 474.649 263.759C476.389 261.917 478.142 260.19 480.044 258.463C505.741 233.943 525.98 204.573 557.067 180.177C611.667 137.252 694.184 122.961 760.506 127.208C828.173 131.457 881.194 149.289 926.363 169.069" stroke="white" stroke-width="0.2" stroke-miterlimit="10"/>
<path d="M-580.206 77.3745C-562.619 107.152 -538.493 139.362 -499.873 164.788C-476.863 179.929 -448.34 193.578 -421.904 200.421C-401.619 205.639 -382.123 206.36 -365.361 201.195C-358.131 199.014 -352.035 196.025 -346.437 192.574C-330.477 182.795 -319.502 168.396 -308.294 150.653C-299.509 136.712 -290.851 120.234 -281.883 103.872C-277.647 96.1518 -273.261 88.4319 -268.403 80.9432C-251.467 54.0986 -230.407 29.451 -204.873 10.2299C-183.07 -6.2289 -157.876 -18.9925 -129.825 -26.1014C-123.578 -27.7067 -117.293 -28.9661 -110.846 -30.1099C-55.6847 -39.2549 8.00477 -26.3615 59.5271 3.6967C70.3772 10.0551 80.8546 17.1049 90.5113 24.8454C125.686 52.9193 151.557 87.4375 173.908 123.911C202.07 169.849 224.784 219.239 257.488 262.993C281.813 295.663 317.565 327.659 359.512 334.294C364.218 334.992 368.9 335.46 373.667 335.352C419.951 335.189 452.559 297.297 477.386 268.849C478.965 266.891 480.705 265.048 482.458 263.321C506.529 237.525 525.328 207.223 555.487 182.474C608.828 138.845 691.957 125.936 759.2 133.068C827.501 140.318 881.579 162.307 928.512 185.901" stroke="white" stroke-width="0.2" stroke-miterlimit="10"/>
<path d="M-580.294 78.123C-561.721 110.102 -537.369 144.396 -498.334 170.867C-475.408 186.588 -446.596 200.126 -419.771 206.394C-399.073 211.269 -379.041 211.414 -361.903 205.556C-354.56 203.03 -348.35 199.694 -342.652 195.78C-326.665 184.845 -315.987 169.058 -305.338 150.272C-297.086 135.52 -289.074 118.575 -280.426 101.978C-276.351 94.1403 -271.964 86.4185 -267.117 78.8126C-250.052 51.7309 -228.227 27.1937 -201.915 8.19988C-179.335 -8.03109 -153.352 -20.4506 -124.499 -27.0985C-118.089 -28.5886 -111.641 -29.7326 -105.031 -30.7611C-48.851 -38.8685 14.922 -25.2793 66.5119 5.36351C77.3755 11.8389 87.717 19.0056 97.5363 26.8637C132.752 55.2909 158.225 90.2786 180.314 127.107C208.228 173.518 230.68 223.266 262.849 267.606C286.577 300.285 321.61 332.518 363.139 339.384C367.709 340.198 372.379 340.551 377.159 340.558C423.201 340.857 455.893 303.647 479.405 274.037C480.984 272.079 482.563 270.12 484.155 268.277C506.761 241.318 523.809 209.969 553.19 184.866C605.111 140.418 689.163 129.006 757.327 139.026C826.251 149.162 881.397 175.427 930.244 202.836" stroke="white" stroke-width="0.2" stroke-miterlimit="10"/>
<path d="M-580.622 78.9141C-560.915 113.095 -536.635 149.474 -497.171 177.107C-474.044 193.294 -445.092 206.721 -417.717 212.53C-396.606 217.06 -376.035 216.629 -358.534 209.963C-351.078 207.09 -344.606 203.407 -338.957 199.031C-322.806 186.825 -312.425 169.649 -302.482 149.819C-294.615 134.254 -287.248 116.843 -278.909 100.126C-274.994 92.1706 -270.619 84.3314 -265.77 76.7236C-248.724 49.4043 -226.135 24.9776 -199.045 6.211C-175.7 -9.90745 -148.765 -21.8671 -119.409 -28.0542C-112.835 -29.4291 -106.237 -30.5732 -99.6005 -31.371C-42.4144 -38.5557 21.6042 -24.1547 73.2741 7.1885C84.1513 13.781 94.5062 21.065 104.189 29.0402C139.308 57.9362 164.658 93.1635 186.485 130.347C214.15 177.231 236.19 227.337 267.974 272.265C291.105 304.951 325.417 337.423 366.529 344.521C371.1 345.335 375.782 345.804 380.415 345.811C426.352 346.455 458.978 309.929 481.201 279.386C482.618 277.312 484.198 275.353 485.628 273.393C506.607 245.157 522.066 212.874 550.819 187.418C601.48 142.265 686.295 132.236 755.231 145.144C824.776 158.169 880.991 188.711 931.602 219.937" stroke="white" stroke-width="0.2" stroke-miterlimit="10"/>
<path d="M-580.866 79.553C-560.173 115.936 -535.667 154.402 -495.776 183.197C-472.747 199.849 -443.506 213.164 -415.566 218.629C-393.893 222.816 -372.921 221.923 -355.069 214.333C-347.35 211.113 -340.927 206.968 -335.165 202.245C-318.838 188.882 -308.916 170.201 -299.531 149.327C-292.198 132.95 -285.326 115.072 -277.309 98.1197C-273.405 90.0471 -269.19 82.0904 -264.352 74.3655C-247.178 46.8091 -223.972 22.493 -195.955 3.95415C-171.833 -11.9361 -144.108 -23.5511 -113.949 -29.2768C-107.362 -30.5365 -100.601 -31.5651 -93.6521 -32.2473C-35.4475 -38.3932 28.6666 -23.1806 80.3911 8.63211C91.2818 15.3417 101.65 22.7429 111.346 30.8355C146.517 60.2003 171.457 95.7817 193.172 133.32C220.426 180.561 242.215 231.141 273.763 276.657C296.297 309.349 330.038 342.059 370.582 349.389C375.154 350.204 379.687 350.672 384.482 350.795C430.164 351.785 462.887 316.058 483.794 284.353C485.212 282.277 486.63 280.202 487.899 278.127C507.563 248.728 521.121 215.396 549.082 189.471C598.309 143.382 684.048 134.853 753.916 150.766C824.083 166.681 881.365 201.502 933.89 236.547" stroke="white" stroke-width="0.2" stroke-miterlimit="10"/>
<path d="M-581.004 80.3072C-559.313 119.01 -534.744 159.448 -494.276 189.405C-471.195 206.524 -441.651 219.842 -413.323 224.732C-391.236 228.575 -369.576 227.106 -351.36 218.706C-343.528 215.139 -336.992 210.647 -331.129 205.461C-314.637 190.826 -304.999 170.87 -296.322 148.95C-289.509 131.876 -283.296 113.416 -275.449 96.2281C-271.706 88.0378 -267.503 79.9637 -262.663 72.2368C-245.508 44.4427 -221.4 20.1219 -192.592 1.92602C-167.692 -13.7361 -139.177 -25.0063 -108.378 -30.3861C-101.628 -31.5304 -94.7028 -32.4437 -87.7404 -33.0105C-28.5419 -38.3482 35.8301 -22.2075 87.6218 10.1907C98.526 17.0175 108.908 24.536 118.468 32.746C153.529 62.4644 178.356 98.4011 199.822 136.411C226.826 184.125 248.365 235.178 279.366 281.167C301.451 313.868 334.335 346.93 374.611 354.493C379.183 355.308 383.729 355.892 388.375 356.014C433.803 357.351 466.609 322.308 486.227 289.669C487.483 287.478 488.752 285.402 490.008 283.211C508.058 252.647 520.164 218.266 547.197 191.987C595.315 145.192 681.666 138.048 752.442 156.738C823.231 175.543 881.58 214.646 936.017 253.512" stroke="white" stroke-width="0.2" stroke-miterlimit="10"/>
<path d="M-581.244 81.0726C-558.568 121.98 -533.773 164.507 -493.041 195.511C-469.907 213.096 -440.075 226.303 -411.195 230.734C-388.706 234.115 -366.496 232.186 -347.915 222.976C-339.97 219.062 -333.171 214.223 -327.357 208.574C-310.687 192.78 -301.358 171.318 -293.388 148.353C-286.96 130.466 -281.391 111.539 -273.854 94.2305C-270.271 85.9225 -266.066 77.8464 -261.238 70.0022C-243.953 41.9706 -219.228 17.7602 -189.492 -0.20765C-163.814 -15.6414 -134.359 -26.5665 -102.907 -31.4846C-95.9934 -32.5135 -88.9055 -33.3112 -81.7926 -33.8779C-21.575 -38.176 42.88 -21.3381 94.7512 11.7612C105.669 18.7051 116.064 26.3411 125.637 34.6686C160.75 64.8565 185.317 101.148 206.508 139.398C233.113 187.585 254.537 238.997 285.003 285.574C306.477 318.166 338.653 351.583 378.51 359.378C382.946 360.308 387.48 360.777 392.14 361.015C437.313 362.698 470.365 328.455 488.518 294.652C489.774 292.46 490.869 290.152 491.976 287.96C508.399 256.117 518.914 220.801 545.17 194.168C592.029 146.668 679.291 140.909 750.688 162.491C822.247 184.189 881.513 227.575 937.726 270.38" stroke="white" stroke-width="0.2" stroke-miterlimit="10"/>
<path d="M-581.554 81.7179C-557.893 124.831 -533.035 169.332 -491.713 201.615C-450.39 233.898 -387.772 250.275 -344.513 227.357C-295.027 201.215 -292.061 140.356 -272.304 92.3414C-245.305 27.0142 -177.455 -21.3907 -97.6209 -32.3589C-17.787 -43.3271 71.6881 -16.4002 132.622 36.8159C211.718 105.881 236.298 205.701 290.472 290.32C313.693 326.619 350.06 364.207 395.887 366.354C440.967 368.5 473.79 334.826 490.801 300.089C507.8 265.236 516.075 225.751 543.282 196.803C588.867 148.481 676.891 144.108 749.22 168.699C821.4 193.291 881.732 240.962 939.859 287.591" stroke="white" stroke-width="0.2" stroke-miterlimit="10"/>
</svg>
