<svg width="1439" height="464" viewBox="0 0 1439 464" fill="none" xmlns="http://www.w3.org/2000/svg">
<g opacity="0.5">
<path d="M-277.204 133.19C-320.698 186.544 -285.883 242.275 -209.925 240.664C-155.754 239.429 -95.0862 214.352 -40.1896 189.046C12.4476 164.8 65.2118 139.028 120.535 122.411C175.858 105.793 235.776 99.6206 272.335 116.135C346.848 149.631 291.46 252.311 351.881 296.038C401.211 331.676 512.263 313.353 599.934 273.804C687.606 234.255 760.187 178.05 837.153 127.124C914.12 76.1981 1004.8 26.7831 1095.56 14.0006C1179.34 2.16526 1246.65 24.2806 1296.28 54.5172C1414.63 126.828 1522.75 136.804 1478.38 270.821" stroke="#98774A" stroke-width="0.2" stroke-miterlimit="10"/>
<path d="M-278.944 136.17C-298.092 159.554 -301.082 183.388 -292.22 201.927C-281.052 225.511 -251.534 241.444 -209.517 239.871C-170.888 238.419 -129.281 224.872 -88.5113 207.921C-72.7898 201.329 -57.1712 194.268 -41.9216 187.207C-21.6504 177.793 -1.31264 168.261 19.3125 159.198C51.7236 144.957 84.2587 132.124 117.632 122.695C129.963 119.16 142.514 116.211 155.035 113.966C197.006 106.288 237.604 106.243 264.911 119.243C271.485 122.288 276.737 126.039 281.42 130.143C303.037 149.606 305.895 179.07 308.922 208.885C312.204 242.809 315.854 276.732 345.863 297.008C356.736 304.51 370.549 309.425 386.365 312.107C442.964 321.905 524.88 303.617 592.944 272.666C603.357 267.958 613.533 263.016 623.474 257.84C697.377 219.838 761.465 171.164 829.063 126.712C892.547 84.9655 965.7 44.3819 1040.04 24.8108C1055.66 20.6845 1071.23 17.6147 1086.64 15.4844C1169.34 4.59131 1234.21 28.1154 1285.26 56.8204C1409.69 127.236 1519.6 143.197 1474.95 278.018" stroke="#98774A" stroke-width="0.2" stroke-miterlimit="10"/>
<path d="M-280.831 139.252C-299.797 162.632 -301.664 186.11 -292.282 204.058C-280.327 226.582 -250.572 241.456 -209.255 239.179C-171.024 237.141 -130.131 223.245 -90.0261 206.18C-74.4863 199.59 -59.0494 192.53 -43.9816 185.47C-23.7068 176.057 -3.36535 166.527 17.1305 157.701C49.5323 143.814 81.8587 131.688 114.403 123.083C126.537 119.9 138.773 117.187 150.794 115.178C191.569 108.324 230.602 109.102 256.859 122.337C263.183 125.499 268.252 129.25 272.752 133.353C293.503 153.049 296.245 182.391 299.474 211.85C303.327 245.416 308.62 278.393 339.286 297.844C350.546 304.992 364.311 309.671 380.264 312.119C436.972 321.093 517.995 302.457 585.703 271.511C595.933 266.805 606.111 261.863 616.053 256.688C689.416 218.692 753.315 170.378 820.659 126.404C884.205 84.8979 957.407 44.9074 1031.43 25.9269C1046.98 21.9187 1062.31 18.9671 1077.7 17.1893C1159.34 7.2384 1222.13 32.1701 1274.18 59.4613C1405.12 127.865 1516.39 149.925 1471.45 285.548" stroke="#98774A" stroke-width="0.2" stroke-miterlimit="10"/>
<path d="M-282.56 142.244C-301.461 165.503 -302.338 188.859 -292.118 205.983C-279.258 227.564 -249.637 241.38 -208.903 238.518C-171.071 235.894 -130.895 221.648 -91.3374 204.586C-75.9132 197.879 -60.6585 190.821 -45.5884 183.762C-25.495 174.351 -5.21698 164.939 15.149 156.349C47.3562 142.816 79.473 131.396 111.373 123.615C123.19 120.668 135.044 118.307 146.868 116.651C186.379 110.739 224.097 112.223 249.051 125.809C254.941 129.089 260.011 132.839 264.327 136.942C284.277 156.754 286.652 186.092 290.452 215.194C294.876 248.403 301.746 280.553 332.951 299.062C344.413 305.856 358.38 310.183 374.218 312.513C431.099 320.548 511.228 301.563 578.393 270.622C588.624 265.916 598.62 260.976 608.563 255.801C681.501 217.928 745.092 169.856 812.245 126.24C875.786 85.0916 948.984 45.4587 1022.55 27.3029C1037.98 23.5302 1053.23 20.6965 1068.38 19.0366C1148.94 10.0274 1209.47 36.367 1262.77 62.1278C1399.97 128.638 1513.04 156.68 1467.38 293.224" stroke="#98774A" stroke-width="0.2" stroke-miterlimit="10"/>
<path d="M-284.388 145.198C-303.292 168.453 -303.045 191.453 -292.305 207.988C-278.724 228.626 -248.985 241.266 -208.834 237.819C-171.585 234.609 -132.009 220.132 -93.1168 202.956C-77.8747 196.25 -62.7357 189.075 -47.9144 182.135C-28.0024 172.725 -7.72118 163.315 12.6996 154.961C44.9635 141.664 76.553 131.186 107.874 124.11C119.494 121.515 131.032 119.39 142.355 117.97C180.787 112.999 216.82 115.188 240.723 129.009C246.43 132.288 251.249 136.155 255.197 140.258C274.281 160.304 276.288 189.638 280.541 218.267C285.47 251.236 293.865 282.324 325.911 300.008C337.575 306.449 351.679 310.541 367.719 312.518C424.708 319.73 504.127 300.397 570.564 269.461C580.612 264.756 590.609 259.817 600.554 254.642C672.95 216.776 736.099 169.18 803.432 125.922C866.967 85.1314 940.279 45.9734 1013.53 28.4074C1028.89 24.7526 1044.02 22.1542 1058.91 20.6122C1138.34 12.6619 1196.92 40.1739 1251.14 64.6396C1395.16 129.256 1509.4 163.395 1463.53 300.626" stroke="#98774A" stroke-width="0.2" stroke-miterlimit="10"/>
<path d="M-286.019 148.187C-304.674 171.322 -303.553 194.084 -292.042 209.911C-277.557 229.607 -247.7 241.073 -208.133 237.04C-171.284 233.245 -132.425 218.418 -94.0816 201.245C-79.2067 194.54 -64.0655 187.366 -49.3603 180.31C-29.4454 170.901 -9.22781 161.61 11.1293 153.374C43.1983 140.432 74.5779 130.658 105.253 124.406C116.557 122.047 127.897 120.274 138.904 119.089C176.071 115.058 210.602 117.954 233.387 132.126C238.844 135.522 243.48 139.389 247.177 143.609C265.393 163.888 267.099 193.102 271.738 221.374C277.239 253.987 287.277 284.131 319.98 300.991C331.846 307.079 346.085 310.935 362.077 312.677C419.054 318.951 497.762 299.269 563.654 268.338C573.704 263.633 583.518 258.694 593.213 253.638C665.065 215.778 728.022 168.54 795.165 125.639C858.76 85.0889 931.934 46.5227 1004.86 29.5462C1020.16 26.0094 1035.22 23.5287 1049.99 22.2218C1128.27 15.33 1184.84 44.1317 1240.12 67.068C1390.66 129.675 1506.07 169.911 1459.73 307.946" stroke="#98774A" stroke-width="0.2" stroke-miterlimit="10"/>
<path d="M-287.126 151.231C-305.78 174.367 -303.604 196.894 -291.258 211.9C-275.99 230.54 -246.158 241.067 -207.117 236.331C-170.676 231.949 -132.61 216.887 -94.874 199.479C-80.118 192.657 -65.1623 185.483 -50.5244 178.544C-30.7954 169.135 -10.579 159.843 9.57728 151.959C41.6293 139.368 72.6076 130.299 102.63 124.868C113.733 122.861 124.571 121.323 135.259 120.373C171.152 117.282 204.174 120.884 226.086 135.292C231.357 138.689 235.557 142.674 239.254 146.894C256.411 167.41 257.999 196.508 263.14 224.546C269.142 256.925 280.634 286.13 314.053 302.051C326.117 307.788 340.489 311.409 356.612 312.917C413.682 318.369 491.477 298.335 556.811 267.403C566.861 262.698 576.674 257.759 586.184 252.703C657.595 214.958 720.232 167.953 787.105 125.52C850.681 85.3193 923.77 47.2206 996.479 30.9474C1011.71 27.5277 1026.45 25.282 1041.08 24.2098C1118.28 18.2575 1172.82 48.3535 1229.01 69.9992C1386.39 130.607 1502.95 176.945 1456.15 315.809" stroke="#98774A" stroke-width="0.2" stroke-miterlimit="10"/>
<path d="M-287.386 154.359C-305.968 177.386 -302.739 199.684 -289.699 214.107C-273.538 231.812 -243.792 241.169 -205.291 235.727C-169.456 230.757 -132.128 215.339 -94.7755 197.926C-80.2098 191.102 -65.4443 183.926 -50.93 176.867C-31.2085 167.455 -11.2508 158.277 9.01564 150.507C40.8556 138.265 71.7912 129.897 100.966 125.286C111.747 123.514 122.38 122.328 132.68 121.73C167.287 119.578 198.787 123.886 219.565 138.653C224.583 142.168 228.595 146.155 232.106 150.376C248.382 171.134 249.596 200.242 255.183 227.819C261.747 259.856 274.871 288.129 308.923 303.233C321.115 308.736 335.679 312.006 351.744 313.279C408.952 317.793 485.807 297.402 550.748 266.459C560.609 261.753 570.418 256.812 579.925 251.754C650.756 213.997 713.171 167.329 779.754 125.352C843.359 85.3725 916.457 47.8478 988.619 32.1562C1003.77 28.8528 1018.38 26.8411 1032.75 25.8861C1108.83 20.8715 1161.5 52.2698 1218.47 72.5125C1382.87 131.018 1500.1 183.589 1453.02 323.32" stroke="#98774A" stroke-width="0.2" stroke-miterlimit="10"/>
<path d="M-287.61 157.527C-305.935 180.444 -301.906 202.631 -288.223 216.235C-271.355 233.007 -241.327 241.192 -203.432 235.161C-167.952 229.486 -131.494 213.946 -94.8277 196.41C-80.4521 189.584 -65.8104 182.287 -51.5528 175.344C-32.0235 165.929 -11.9558 156.865 8.23593 149.211C40.0479 137.316 70.5049 129.767 99.0838 125.86C109.476 124.44 119.787 123.489 129.765 123.125C163.086 121.914 193.25 126.929 212.71 142.053C217.289 145.688 221.3 149.676 224.557 154.016C239.953 175.016 241.045 204.017 247.01 231.25C254.069 263.062 268.639 290.403 303.509 304.688C316.079 309.84 330.585 312.877 346.591 313.916C403.87 317.609 479.785 296.858 544.147 265.906C554.004 261.198 563.625 256.256 573.128 251.196C643.497 213.544 705.572 167.096 772.114 125.456C835.68 85.816 908.668 48.7483 980.652 33.6383C995.732 30.4511 1010.27 28.5561 1024.32 27.8359C1099.2 23.877 1150.14 56.3436 1207.93 75.4173C1379.36 131.819 1497.25 190.628 1449.7 331.227" stroke="#98774A" stroke-width="0.2" stroke-miterlimit="10"/>
<path d="M-288.023 160.652C-306.343 183.576 -301.381 205.416 -286.753 218.319C-269.178 234.155 -239.119 241.286 -201.763 234.549C-166.703 228.284 -130.982 212.388 -94.817 194.729C-80.565 187.783 -66.2978 180.485 -51.8613 173.539C-32.2731 164.003 -12.4643 155.054 7.5198 147.75C39.3038 136.203 69.349 129.357 97.0811 126.272C107.336 125.086 117.258 124.487 126.914 124.359C159.136 124.088 187.595 129.81 205.99 145.176C210.382 148.812 214.14 152.918 217.027 157.261C231.542 178.503 232.328 207.395 238.671 234.285C246.293 265.753 262.492 292.161 297.995 305.628C310.758 310.429 325.39 313.231 341.589 313.918C399.005 316.672 473.982 295.563 537.766 264.601C547.434 259.892 557.052 254.948 566.551 249.887C636.339 212.223 698.192 166.112 764.444 124.929C827.786 85.628 901.033 49.0176 972.587 34.6074C987.595 31.5367 1001.8 29.8762 1015.97 29.2729C1089.74 26.2531 1138.88 59.906 1197.37 77.6924C1375.82 131.988 1494.54 197.039 1446.54 338.505" stroke="#98774A" stroke-width="0.2" stroke-miterlimit="10"/>
<path d="M-288.167 163.8C-306.415 186.614 -300.403 208.225 -285.082 220.544C-266.549 235.326 -236.643 241.401 -199.893 234.075C-165.253 227.221 -130.336 211.085 -94.8559 193.304C-80.794 186.356 -66.7169 179.056 -52.4706 172.107C-33.0747 162.569 -13.3404 153.734 6.75313 146.545C38.3908 135.23 68.1418 129.204 95.2117 126.94C105.078 126.107 114.863 125.743 124.013 125.85C155.016 126.402 181.891 132.951 199.155 148.675C203.294 152.43 206.68 156.538 209.565 160.882C223.201 182.367 223.682 211.151 230.587 237.696C238.77 268.821 256.346 294.413 292.547 306.943C305.504 311.393 320.262 313.961 336.401 314.413C393.888 316.344 467.927 294.877 531.131 263.905C540.796 259.194 550.225 254.249 559.536 249.186C628.677 211.628 690.374 165.737 756.4 124.893C819.769 85.8144 892.905 49.6618 964.029 35.9518C978.897 33.1151 993.033 31.5716 1006.87 31.2034C1079.52 29.1231 1126.87 63.9632 1186.06 80.4616C1372.02 132.414 1490.83 204.065 1442.62 346.281" stroke="#98774A" stroke-width="0.2" stroke-miterlimit="10"/>
<path d="M-288.52 166.932C-306.577 189.753 -299.7 211.134 -283.553 222.633C-264.314 236.479 -234.127 241.38 -197.982 233.465C-163.945 226.021 -129.579 209.528 -94.6667 191.742C-80.9125 184.674 -66.841 177.372 -52.6005 170.421C-33.3967 160.88 -13.4862 152.042 6.46594 145.085C38.0752 134.119 67.4144 128.797 93.8225 127.356C103.552 126.757 112.764 126.747 121.71 127.206C151.431 128.7 176.722 136.075 193.172 151.922C197.125 155.678 200.259 159.906 202.891 164.369C215.465 186.096 215.824 214.772 223.107 240.972C231.785 271.871 250.869 296.412 287.887 308.122C301.037 312.22 315.921 314.554 332.186 314.77C389.81 315.761 462.911 293.935 525.537 262.954C535.014 258.242 544.439 253.295 553.747 248.231C622.491 210.661 683.597 165.108 749.515 124.721C812.845 85.9827 886.053 50.2883 956.747 37.2791C971.542 34.559 985.606 33.1326 999.122 32.9995C1070.59 31.9771 1116.39 67.8872 1176.04 83.2144C1369.24 132.94 1488.64 210.957 1439.79 354.042" stroke="#98774A" stroke-width="0.2" stroke-miterlimit="10"/>
<path d="M-288.746 170.064C-306.73 192.774 -298.805 213.926 -282.15 224.84C-262.206 237.749 -231.921 241.475 -196.38 232.97C-162.763 224.937 -129.384 208.204 -94.9713 190.295C-81.407 183.226 -67.459 175.803 -53.475 168.968C-34.2791 159.423 -14.6277 150.701 5.18295 143.977C36.5792 133.36 65.6906 128.741 91.4372 128.124C100.778 127.878 109.92 127.985 118.294 128.798C146.732 131.234 170.691 139.318 185.828 155.524C189.528 159.399 192.476 163.628 194.922 168.092C206.618 190.063 206.79 218.748 214.518 244.485C223.755 275.04 244.399 298.764 282.114 309.536C295.39 313.4 310.467 315.381 326.673 315.362C384.366 315.531 456.53 293.345 518.578 262.355C528.051 257.641 537.472 252.693 546.592 247.627C614.756 210.046 675.572 164.949 741.515 124.784C804.803 86.3856 877.9 51.1499 948.23 38.7244C962.952 36.121 976.81 35.0469 990.136 34.9139C1060.68 34.4795 1104.56 71.8133 1164.84 85.9684C1365.61 133.231 1485.09 217.854 1435.96 361.807" stroke="#98774A" stroke-width="0.2" stroke-miterlimit="10"/>
<path d="M-289.201 173.163C-307.18 195.881 -298.391 216.803 -280.728 226.896C-260.078 238.866 -229.695 241.418 -194.759 232.322C-161.494 223.581 -128.916 206.609 -95.004 188.577C-81.5629 181.388 -67.8712 174.081 -54.0108 167.127C-35.007 157.579 -15.3638 148.854 4.48938 142.363C35.8567 132.095 64.2241 128.769 89.7081 128.269C98.7943 128.141 107.482 128.719 115.719 129.768C142.876 133.146 165.32 141.94 179.395 158.387C182.658 162.382 185.604 166.612 187.681 171.078C198.5 193.291 198.367 221.868 206.472 247.26C216.27 277.471 238.353 300.259 276.883 310.21C290.352 313.722 305.62 315.351 321.952 315.096C379.782 314.323 451.009 291.779 512.663 260.779C522.132 256.064 531.365 251.114 540.481 246.047C608.182 208.571 668.657 163.696 734.307 123.989C797.622 85.8134 870.723 51.1544 940.689 39.3129C955.338 36.8263 968.939 35.8696 982.31 35.9716C1051.54 36.8316 1094.07 74.8837 1154.74 87.9838C1363.06 132.781 1482.62 224.015 1433.04 368.836" stroke="#98774A" stroke-width="0.2" stroke-miterlimit="10"/>
<path d="M-289.442 176.329C-307.164 198.935 -297.512 219.628 -279.092 229.017C-257.672 239.931 -227.14 241.542 -192.74 231.738C-159.894 222.407 -128.117 205.195 -94.8891 187.04C-81.6377 179.849 -68.0694 172.422 -54.2813 165.583C-35.2856 156.033 -15.7174 147.422 4.06063 141.047C35.2148 131.129 63.6202 128.037 88.1775 128.832C96.9937 129.174 105.427 129.87 113.159 131.155C139.102 135.36 159.965 144.981 172.913 161.787C175.99 165.783 178.5 170.133 180.575 174.6C190.518 197.057 190.082 225.525 198.747 250.57C209.039 280.555 232.561 302.407 271.787 311.419C285.448 314.579 300.842 315.972 317.115 315.483C375.081 313.768 445.49 290.982 506.448 259.855C515.728 255.139 524.958 250.187 533.886 245.118C601.006 207.632 661.258 163.096 726.615 123.847C789.887 86.0123 862.876 51.8128 932.596 40.6734C947.171 38.3036 960.7 37.4642 973.681 37.9195C1041.61 39.7218 1082.79 78.8455 1143.9 90.7723C1360.09 132.866 1479.6 230.95 1429.56 376.639" stroke="#98774A" stroke-width="0.2" stroke-miterlimit="10"/>
<path d="M-289.611 179.587C-307.326 202.201 -296.629 222.662 -277.452 231.347C-255.327 241.323 -224.698 241.757 -190.901 231.363C-158.657 221.44 -127.431 203.871 -94.7681 185.711C-81.7062 178.518 -68.3276 171.089 -54.6629 164.13C-35.8593 154.577 -16.2996 145.964 3.27032 139.94C34.3953 130.372 62.389 127.985 86.2858 129.604C94.781 130.183 102.827 131.232 110.356 132.871C135.02 138.019 154.37 148.351 166.258 165.399C169.083 169.514 171.407 173.865 173.231 178.452C182.115 201.151 181.558 229.51 190.6 254.21C201.451 283.85 226.595 304.765 266.384 313.072C280.238 315.88 295.757 317.038 311.971 316.313C370.073 313.656 439.48 290.628 499.86 259.492C509.136 254.775 518.178 249.822 527.102 244.752C593.576 207.372 653.67 163.057 718.801 124.15C782.031 86.6561 855.09 52.9164 924.262 42.3621C938.764 40.1092 952.153 39.5051 964.878 40.0784C1031.63 42.9412 1071.14 83.0195 1132.83 93.8898C1357.49 133.161 1476.69 238.216 1426.38 384.773" stroke="#98774A" stroke-width="0.2" stroke-miterlimit="10"/>
<path d="M-289.761 182.708C-307.404 205.21 -295.845 225.442 -275.912 233.422C-253.268 242.458 -222.172 241.715 -189.161 230.729C-157.335 220.216 -126.841 202.288 -94.9279 184.124C-82.1727 176.811 -68.7997 169.38 -55.391 162.538C-36.7791 152.981 -17.2942 144.484 2.38454 138.575C33.363 129.24 61.063 127.677 84.3 130.121C92.4082 131.053 100.317 132.338 107.343 134.213C130.728 140.306 148.751 151.348 159.513 168.756C162.153 172.872 164.226 177.342 165.864 181.931C173.874 204.873 173.198 233.123 182.551 257.594C193.894 287.006 220.475 306.984 261.143 314.351C275.307 316.924 290.65 317.729 307.173 316.768C365.346 313.285 433.884 289.781 493.687 258.636C502.776 253.917 511.814 248.963 520.668 244.009C586.747 206.618 646.434 162.644 711.455 124.196C774.71 86.9264 847.59 53.7652 916.582 43.796C930.946 41.778 944.262 41.2914 956.914 41.9825C1022.55 45.7886 1060.59 86.8217 1122.84 96.6347C1354.76 132.964 1473.84 244.994 1422.89 392.418" stroke="#98774A" stroke-width="0.2" stroke-miterlimit="10"/>
<path d="M-290.106 185.814C-307.491 208.205 -295.323 228.324 -274.451 235.599C-251.105 243.695 -219.913 241.773 -187.321 230.196C-155.847 218.973 -126.403 200.924 -94.7386 182.518C-82.173 175.204 -68.9235 167.652 -55.521 160.807C-36.9178 151.248 -17.442 142.748 2.0945 137.073C33.0427 128.088 60.3305 127.231 82.9072 130.501C90.8785 131.668 98.4006 133.308 105.106 135.419C127.279 142.339 143.725 154.211 153.363 171.978C155.751 176.214 157.454 180.686 158.908 185.276C166.044 208.462 164.999 236.721 174.793 260.728C186.695 289.795 214.643 308.953 256.005 315.38C270.36 317.599 285.829 318.17 302.359 316.855C360.665 312.428 428.202 288.682 487.426 257.528C496.511 252.808 505.361 247.852 514.211 242.896C579.708 205.494 639.169 161.86 703.962 123.752C767.172 86.8243 840.186 54.0053 908.496 44.8576C922.786 42.9567 935.845 42.5878 948.359 43.5147C1012.88 48.2648 1049.38 90.3718 1112.01 99.1273C1351.95 132.749 1470.65 251.877 1419.44 400.172" stroke="#98774A" stroke-width="0.2" stroke-miterlimit="10"/>
<path d="M-290.268 188.957C-307.647 211.355 -294.435 231.242 -272.742 237.694C-248.76 244.967 -217.404 241.749 -185.413 229.58C-154.54 217.766 -125.644 199.358 -94.7284 180.948C-82.2856 173.514 -69.2918 166.078 -56.0789 159.232C-37.6676 149.67 -18.2669 141.284 1.12798 135.844C32.0465 127.209 58.9232 127.059 80.8407 131.154C88.4917 132.558 95.6274 134.552 102.197 136.9C123.093 144.765 138.031 157.349 146.611 175.358C148.564 179.713 150.267 184.187 151.469 188.896C157.549 212.326 156.385 240.475 166.739 264.135C179.199 292.857 208.765 311.076 250.754 316.678C265.301 318.545 280.894 318.88 297.549 317.329C355.859 312.194 422.594 287.853 481.425 256.69C490.322 251.968 499.352 247.011 508.014 242.054C573.049 204.759 631.985 161.347 696.668 123.7C759.902 86.9962 832.735 54.7564 900.865 46.1947C915.081 44.411 928.002 44.2777 940.193 45.4407C1003.6 51.1353 1038.63 94.1981 1101.65 101.895C1349.62 132.453 1467.88 258.8 1416.39 407.963" stroke="#98774A" stroke-width="0.2" stroke-miterlimit="10"/>
<path d="M-290.65 192.067C-307.956 214.354 -293.885 234.011 -271.256 239.756C-246.572 246.087 -215.119 241.69 -183.663 228.811C-153.207 216.405 -125.11 197.757 -94.6923 179.224C-82.4387 171.787 -69.5681 164.232 -56.5449 157.383C-38.142 147.819 -18.934 139.431 0.502409 134.224C31.2071 125.94 57.8558 126.497 79.1143 131.419C86.5624 133.177 93.3781 135.407 99.4443 137.992C119.248 146.803 132.495 160.1 139.953 178.469C141.721 182.826 143.172 187.418 144.191 192.129C149.399 215.803 148.115 243.842 158.661 267.156C171.612 295.65 202.61 312.93 245.475 317.59C260.147 319.222 275.932 319.203 292.527 317.415C350.788 311.337 416.707 286.753 474.96 255.581C483.853 250.858 492.695 245.899 501.17 240.941C565.624 203.636 624.335 160.565 688.789 123.259C751.795 86.8979 824.879 55.1191 892.394 47.262C906.537 45.5955 919.319 45.6979 931.253 46.9793C993.548 53.6189 1027.18 97.5206 1090.44 104.395C1346.49 131.77 1464.24 265.457 1412.31 415.49" stroke="#98774A" stroke-width="0.2" stroke-miterlimit="10"/>
<path d="M-290.979 195.174C-308.094 217.467 -293.166 236.893 -269.966 241.931C-244.764 247.321 -212.847 241.744 -182.175 228.273C-152.069 215.156 -124.768 196.268 -95.0315 177.613C-82.9667 170.174 -70.2853 162.617 -57.2016 155.649C-38.9904 146.081 -19.6739 137.809 -0.312829 132.718C30.3622 124.786 56.6002 126.05 77.2005 131.799C84.3288 133.794 90.8251 136.26 96.623 139.317C115.219 148.957 126.893 163.084 133.297 181.695C134.813 186.171 136.081 190.766 136.914 195.478C141.252 219.395 139.667 247.325 150.772 270.29C164.28 298.438 196.643 314.896 240.384 318.614C255.248 319.892 271.157 319.637 287.694 317.614C346.024 310.708 411.077 285.646 468.754 254.466C477.643 249.742 486.297 244.782 494.769 239.822C558.578 202.625 617.064 159.895 681.475 122.932C744.438 86.9143 817.407 55.5976 884.741 48.3273C898.812 46.7783 911.521 46.9985 923.317 48.5161C984.5 56.1013 1016.66 100.96 1080.31 106.774C1344.51 130.846 1461.81 272.112 1409.49 422.894" stroke="#98774A" stroke-width="0.2" stroke-miterlimit="10"/>
<path d="M-291.12 198.323C-308.162 220.504 -292.443 239.816 -268.242 244.03C-242.405 248.596 -210.325 241.72 -180.069 227.656C-150.563 213.946 -123.992 194.7 -94.6362 176.04C-82.8774 168.482 -70.2018 160.922 -57.3737 154.07C-39.3544 144.5 -20.1133 136.343 -0.894067 131.487C29.5673 123.905 55.8274 125.759 75.5201 132.454C82.3288 134.685 88.6228 137.507 93.9184 140.801C111.241 151.388 121.594 166.228 126.877 185.199C128.209 189.676 129.043 194.39 129.809 199.222C133.094 223.383 131.39 251.203 142.87 273.821C156.935 301.622 190.844 317.258 235.093 320.033C250.149 320.957 266.183 320.466 282.844 318.206C341.308 310.355 405.363 285.051 462.463 253.863C471.164 249.137 479.815 244.176 488.282 239.215C551.696 202.007 609.773 159.619 673.889 123.117C736.874 87.3241 809.661 56.5876 876.814 49.9045C890.811 48.4729 903.198 48.9292 914.922 50.5651C974.927 59.2144 1005.51 104.912 1069.65 109.785C1341.99 130.551 1458.71 279.283 1405.94 430.935" stroke="#98774A" stroke-width="0.2" stroke-miterlimit="10"/>
<path d="M-291.531 201.43C-308.566 223.617 -291.99 242.698 -266.854 246.204C-240.318 249.827 -208.14 241.77 -178.484 227.113C-149.327 212.692 -123.619 193.324 -94.9432 174.541C-83.3731 166.981 -71.0037 159.302 -57.9984 152.447C-39.9874 142.874 -20.9387 134.715 -1.67803 130.093C28.8193 122.745 54.6024 125.426 73.6377 132.948C80.2441 135.534 86.219 138.592 91.1959 142.123C107.312 153.541 116.029 169.33 120.326 188.425C121.408 193.022 122.057 197.738 122.457 202.572C124.872 226.975 123.05 254.686 134.722 276.956C149.277 304.529 184.614 319.224 229.671 321.173C244.851 321.861 261.142 320.898 277.744 318.402C336.277 309.722 399.466 283.941 455.99 252.744C464.687 248.017 473.151 243.054 481.614 238.092C544.382 200.992 602.301 158.827 666.188 122.669C729.128 87.2196 801.982 56.9458 868.521 50.9686C882.379 49.7725 894.693 50.3469 906.095 52.2194C964.99 61.8154 994.171 108.353 1058.63 112.283C1339.23 129.506 1455.42 285.944 1402.21 438.464" stroke="#98774A" stroke-width="0.2" stroke-miterlimit="10"/>
<path d="M-291.768 204.545C-308.547 226.62 -291.182 245.587 -265.229 248.268C-238.059 251.065 -205.718 241.708 -176.661 226.457C-148.102 211.444 -122.939 191.717 -94.826 172.93C-83.3781 165.25 -71.2637 157.687 -58.4475 150.83C-40.628 141.255 -21.4713 133.212 -2.28606 128.706C27.998 121.71 53.554 125.099 71.9328 133.45C78.2201 136.273 83.8101 139.686 88.4686 143.455C103.314 155.82 110.529 172.322 113.708 191.778C114.423 196.377 115.005 201.212 115.221 206.047C116.519 230.813 114.579 258.413 126.875 280.217C141.986 307.442 178.684 321.314 224.615 322.318C239.986 322.653 256.401 321.453 273.128 318.72C331.796 309.095 394.172 283.071 450.12 251.866C458.63 247.138 467.09 242.174 475.549 237.21C537.739 200.1 595.433 158.278 659.21 122.582C722.105 87.4763 794.844 57.6658 861.202 52.2766C874.987 51.1981 887.229 51.8906 898.493 53.9996C956.278 64.5428 984.062 111.92 1048.77 115.024C1337.51 128.585 1453.11 292.849 1399.64 446.236" stroke="#98774A" stroke-width="0.2" stroke-miterlimit="10"/>
<path d="M-292.097 207.669C-308.802 229.632 -290.715 248.603 -263.879 250.34C-236.195 252.193 -203.391 241.653 -174.931 225.809C-146.788 210.202 -122.42 190.234 -94.9195 171.207C-83.66 163.525 -71.6682 155.842 -59.0412 148.984C-41.164 139.288 -22.2659 131.36 -3.28874 127.208C26.9648 120.564 52.1104 124.662 69.8329 133.841C75.9844 136.901 81.1897 140.67 85.464 144.793C99.222 158.107 104.754 175.324 106.816 195.141C107.281 199.859 107.496 204.696 107.712 209.532C108.143 234.542 105.903 262.032 118.572 283.487C134.422 310.365 172.561 322.941 219.099 323.473C234.528 323.689 251.2 322.017 267.867 319.047C326.603 308.593 388.115 282.091 443.487 250.878C452.06 246.03 460.449 241.183 468.539 236.218C530.333 199.098 587.436 157.619 651.166 122.267C714.083 87.387 786.821 58.1578 852.632 53.3572C866.343 52.3965 878.263 53.3255 889.455 55.553C946.132 67.0439 972.337 115.262 1037.72 117.422C1334.85 127.199 1449.6 299.413 1395.68 453.669" stroke="#98774A" stroke-width="0.2" stroke-miterlimit="10"/>
<path d="M-292.407 210.774C-309.105 232.743 -289.98 251.482 -262.395 252.51C-234.078 253.536 -201.111 241.695 -173.249 225.258C-145.637 208.939 -122.062 188.731 -94.9405 169.699C-83.986 161.897 -71.9998 154.212 -59.4449 147.47C-41.759 137.772 -22.9359 129.961 -3.85122 125.925C26.3721 119.633 51.108 124.44 68.1749 134.449C73.9418 137.864 78.8289 141.87 82.7855 146.231C95.3408 160.376 99.491 178.425 100.32 198.485C100.536 203.322 100.568 208.16 100.534 213.117C100.099 238.37 97.7412 265.749 110.718 286.974C127.123 313.504 166.539 325.727 213.847 324.842C229.534 324.586 246.264 322.796 263.055 319.589C321.925 308.187 382.443 281.443 437.241 250.222C445.626 245.373 454.012 240.525 462.097 235.559C523.247 198.548 580.192 157.294 643.628 122.404C706.5 87.8687 779.188 58.9855 844.686 55.0098C858.325 54.1668 870.173 55.2141 881.044 57.6786C936.613 70.1176 961.424 119.176 1027.12 120.392C1332.5 126.266 1446.72 306.549 1392.35 461.673" stroke="#98774A" stroke-width="0.2" stroke-miterlimit="10"/>
<path d="M-292.655 213.871C-309.097 235.728 -288.922 253.88 -260.788 254.553C-232.105 255.226 -198.711 241.61 -171.447 224.579C-144.249 207.665 -121.403 187.099 -95.0261 168.062C-84.26 160.258 -72.4627 152.571 -60.0309 145.709C-42.3541 136.008 -23.5407 128.194 -4.59833 124.393C25.4106 118.454 50.1018 123.971 66.3963 134.692C72.0275 138.344 76.5965 142.587 80.1694 147.304C91.4564 162.399 94.1092 181.163 94.007 201.584C94.0389 206.423 93.8217 211.381 93.4216 216.339C91.9388 241.836 89.6468 269.106 102.814 289.981C119.772 316.164 160.543 327.563 208.721 325.732C224.781 325.121 241.451 323.094 258.249 319.532C317.185 307.3 376.839 280.078 431.06 248.848C439.441 243.998 447.64 239.149 455.721 234.181C516.475 197.16 573.01 156.248 636.215 121.703C699.039 87.5119 771.791 59.0922 836.74 55.706C850.305 54.9808 862.015 56.2645 872.631 58.848C927.158 72.1178 949.4 123.79 1016.45 122.525C1334.73 116.816 1443.66 313.327 1389.09 469.203" stroke="#98774A" stroke-width="0.2" stroke-miterlimit="10"/>
<path d="M-292.838 217.11C-309.206 238.855 -288.509 257.365 -259.295 256.738C-229.716 256.111 -196.424 241.665 -169.574 224.04C-142.905 206.414 -120.734 185.725 -94.7855 166.448C-84.207 158.642 -72.5317 150.835 -60.3546 144.09C-42.8687 134.387 -24.1302 126.689 -5.14628 123.123C24.8328 117.537 49.1811 123.645 64.7554 135.314C70.0026 139.322 74.437 143.803 77.5101 148.758C87.7796 164.684 88.6877 184.281 87.5383 204.944C87.321 209.903 86.738 214.863 86.3379 219.822C83.8083 245.563 81.3993 272.721 95.1231 293.248C112.57 319.2 154.946 329.655 203.812 326.878C219.996 326.031 236.856 323.648 253.596 319.849C312.667 306.67 371.329 279.205 424.976 247.968C433.171 243.117 441.365 238.266 449.377 233.416C509.488 196.504 565.866 155.819 628.96 121.736C691.806 87.7728 764.376 59.9362 829.08 57.2575C842.573 56.6502 854.144 58.1706 864.622 60.991C917.979 75.3279 939.227 127.132 1006.26 125.513C1331 117.785 1440.82 320.129 1385.82 476.871" stroke="#98774A" stroke-width="0.2" stroke-miterlimit="10"/>
<path d="M-293.147 220.242C-309.509 241.992 -287.843 260.388 -257.817 258.933C-227.608 257.478 -194.154 241.729 -167.899 223.509C-141.645 205.289 -120.381 184.241 -94.9937 164.959C-84.537 157.034 -73.1161 149.343 -60.8789 142.478C-43.5843 132.772 -24.8551 125.072 -6.01308 121.742C23.8185 116.39 47.874 123.327 62.7943 135.827C67.9064 140.072 71.7745 144.909 74.6475 150.219C83.6514 167.096 83.0653 187.409 80.8036 208.433C80.2207 213.394 79.5718 218.473 78.9228 223.552C75.5301 249.537 72.8217 276.585 86.9182 296.761C104.918 322.366 148.648 331.994 198.2 328.271C214.574 327.069 231.558 324.45 248.421 320.413C307.559 306.403 365.36 278.46 418.433 247.215C426.624 242.363 434.631 237.511 442.639 232.659C502.173 195.738 558.259 155.515 621.19 121.66C683.807 88.0414 756.625 60.6693 820.965 58.5806C834.384 58.0913 845.7 59.7304 856.041 62.7878C908.292 78.0745 928.629 129.539 995.43 128.274C1325.48 121.835 1437.67 327.062 1382.22 484.673" stroke="#98774A" stroke-width="0.2" stroke-miterlimit="10"/>
<path d="M-293.414 223.364C-309.585 245.12 -287.136 263.402 -256.232 261C-225.328 258.598 -191.777 241.664 -166.118 222.849C-140.459 204.034 -119.805 182.745 -94.9111 163.341C-70.0175 143.937 -38.48 125.705 -6.65513 120.349C33.2008 113.684 62.2669 129.594 72.0772 151.553C81.8875 173.512 76.1913 200.689 71.9366 226.918C67.6819 253.148 64.6744 280.085 79.3259 299.912C103.963 333.547 175.659 337.827 243.855 320.612C312.233 303.397 377.371 268.467 436.51 231.537C495.583 194.724 551.327 154.727 613.963 121.336C676.599 87.9446 749.232 61.156 813.208 59.6575C893.386 57.9023 904.384 133.253 985.025 130.671C1323.17 120.202 1434.81 333.871 1378.92 492.35" stroke="#98774A" stroke-width="0.2" stroke-miterlimit="10"/>
<path d="M-296.824 222.239C-310.773 241.619 -287.342 257.529 -255.279 254.419C-224.13 251.31 -190.314 234.62 -164.164 216.287C-145.94 203.631 -130.295 190.033 -114.182 176.908C-107.038 170.995 -99.8437 165.319 -92.1667 159.76C-67.6113 141.665 -37.2024 124.861 -6.48897 120.572C20.4869 116.76 42.2442 123.581 56.274 135.724C62.1395 140.912 66.8111 146.927 69.6898 153.535C79.38 175.72 74.7775 202.881 71.6334 228.742C69.0567 249.997 67.6274 271.487 75.8743 289.069C77.6481 293.081 79.9198 296.856 82.8721 300.394C109.229 332.948 181.395 336.517 250.172 318.721C265.149 314.806 280.041 310.064 294.715 304.733C347.168 285.422 396.952 257.496 443.077 228.275C501.922 191.01 557.618 150.561 620.03 116.715C681.995 83.3427 753.917 56.333 817.542 54.6001C824.372 54.4735 830.754 54.8197 836.689 55.6387C895.726 64.0653 913.575 118.354 973.237 125.009C977.726 125.475 982.346 125.706 987.099 125.7C1059.35 124.546 1120.47 134.151 1172.62 150.969C1259.48 179.196 1321.05 227.172 1357.1 281.91C1397.12 343.254 1405.5 413.494 1386.54 474.795" stroke="#98774A" stroke-width="0.2" stroke-miterlimit="10"/>
<path d="M-300.405 221.096C-312.194 238.222 -287.781 251.762 -254.607 247.708C-223.212 243.893 -189.13 227.448 -162.371 209.714C-143.713 197.3 -127.652 184.299 -111.323 172.124C-104.071 166.687 -96.8185 161.25 -89.3989 156.166C-65.1823 139.38 -35.9702 124.12 -6.23804 120.661C19.7528 117.679 40.7195 124.969 54.3328 137.224C60.1388 142.527 64.5666 148.658 67.3828 155.381C77.136 177.79 73.33 204.818 71.2327 230.427C69.703 251.434 69.571 272.557 78.8248 289.657C80.8501 293.548 83.3736 297.203 86.5785 300.621C114.842 332.094 187.479 334.953 256.721 316.458C271.78 312.427 286.752 307.57 301.324 302.124C353.91 282.351 403.575 254.086 449.759 224.527C508.559 186.811 563.656 145.912 626.393 111.612C687.503 78.2588 759.145 50.9103 822.352 49.0614C829.255 48.8168 835.644 49.1629 841.585 49.9815C900.515 58.0504 918.536 111.72 976.45 119.318C980.694 119.903 985.136 120.134 989.893 120.128C1059.66 120.277 1118.67 130.824 1169.57 147.989C1254.67 176.912 1318.15 223.209 1356.31 275.202C1398.78 333.207 1409.97 399.394 1394.83 456.764" stroke="#98774A" stroke-width="0.2" stroke-miterlimit="10"/>
<path d="M-303.655 220.069C-313.28 234.942 -287.882 246.115 -253.413 241.119C-221.774 236.598 -187.425 220.398 -160.24 203.262C-141.214 191.209 -124.554 178.804 -108.306 167.462C-101.063 162.381 -93.8857 157.419 -86.4748 152.692C-62.5978 137.212 -34.5192 123.378 -5.90298 120.984C19.0344 118.948 39.275 126.589 52.4047 139.075C57.9677 144.494 62.3345 150.739 65.1543 157.458C74.7876 180.091 71.7798 206.986 71.0982 232.344C70.4345 253.103 71.6026 273.859 81.8653 290.476C84.1425 294.248 86.9184 297.783 90.1931 301.081C120.25 331.355 193.358 333.505 262.932 314.549C278.071 310.402 293.125 305.43 307.776 299.868C360.495 279.635 410.155 251.15 456.031 221.254C514.784 183.086 569.647 141.738 632.158 106.986C692.476 73.534 763.521 46.0836 826.374 44.001C833.283 43.7565 839.496 44.1027 845.509 44.8029C904.332 52.5144 922.591 105.448 978.753 113.988C982.817 114.573 987.198 114.921 991.894 115.033C1059.42 116.365 1115.94 127.854 1165.72 145.484C1249.16 175.22 1314.44 219.721 1354.53 268.972C1399.32 323.877 1413.46 385.779 1402.34 439.221" stroke="#98774A" stroke-width="0.2" stroke-miterlimit="10"/>
<path d="M-307.238 218.915C-314.695 231.537 -288.246 240.227 -252.546 234.407C-220.661 229.182 -186.112 213.344 -158.368 196.571C-138.973 184.878 -121.895 173.069 -105.547 162.558C-98.3124 157.834 -90.961 153.228 -83.8083 148.976C-60.2717 134.802 -33.1453 122.391 -5.6472 121.061C18.301 119.853 37.8139 127.845 50.2759 140.56C55.5956 146.094 59.9013 152.454 62.7249 159.17C72.3554 182.144 70.3312 208.904 70.7678 233.894C71.0892 254.522 73.443 274.794 84.9 290.929C87.4296 294.58 90.4584 297.995 93.9864 301.173C125.774 330.368 199.536 331.81 269.509 312.275C284.729 308.012 299.68 302.925 314.595 297.249C367.562 276.674 417.167 247.733 462.917 217.5C521.439 178.883 576.066 137.088 638.534 101.884C697.991 68.4516 768.502 40.7821 831.066 38.348C837.799 38.104 844.267 38.3318 850.038 39.1499C908.818 46.3863 927.369 98.819 981.773 108.3C985.776 109.003 989.912 109.469 994.429 109.582C1059.46 112.213 1113.86 124.642 1162.58 142.617C1244.24 173.047 1311.18 215.991 1353.64 262.382C1400.83 314.073 1417.86 371.812 1410.75 421.329" stroke="#98774A" stroke-width="0.2" stroke-miterlimit="10"/>
<path d="M-310.833 217.868C-316.118 228.242 -288.682 234.571 -251.682 227.811C-219.552 221.881 -184.736 206.288 -156.564 190.114C-136.8 178.78 -119.304 167.567 -102.788 157.769C-95.3793 153.401 -88.2865 149.269 -81.1427 145.372C-57.9471 132.503 -31.9582 121.515 -5.51394 121.13C17.4432 120.749 36.161 129.208 48.1375 142.153C53.397 147.801 57.5245 154.158 60.2855 160.988C69.7964 184.185 68.758 210.811 70.4325 235.549C71.8076 255.929 75.4669 275.834 87.7536 291.488C90.536 295.019 93.8182 298.314 97.4165 301.373C131.122 329.488 205.172 330.223 275.61 309.992C290.911 305.615 305.942 300.413 320.754 294.622C373.853 273.588 423.268 244.429 469.075 213.861C527.482 174.912 581.755 132.553 644.362 96.8984C702.955 63.4871 772.931 35.5991 835.14 32.9319C841.88 32.6882 848.171 32.9162 854.197 33.6157C913.053 40.4952 931.66 92.1914 984.305 102.613C988.062 103.433 992.202 103.899 996.474 104.13C1059.19 108.059 1111.28 121.426 1158.75 139.747C1238.7 170.752 1307.42 212.256 1351.89 255.792C1401.47 304.27 1421.41 357.849 1418.13 403.446" stroke="#98774A" stroke-width="0.2" stroke-miterlimit="10"/>
<path d="M-314.231 216.698C-317.09 224.708 -288.982 228.913 -250.865 221.214C-218.556 214.699 -183.224 199.233 -154.741 183.539C-134.541 172.447 -116.693 161.947 -100.076 152.978C-92.6756 148.966 -85.6581 145.308 -78.5233 141.767C-55.6693 130.201 -30.8868 120.752 -5.49851 121.31C16.4655 121.755 34.3865 130.682 45.8767 143.855C50.8922 149.619 54.9585 156.09 57.7233 162.915C67.2982 186.334 67.0643 212.827 69.7957 237.314C72.2267 257.445 77.0103 276.984 90.4293 292.274C93.4651 295.685 97.0011 298.86 100.787 301.917C136.23 328.955 211.001 328.865 281.771 308.176C297.152 303.683 312.264 298.367 327.156 292.462C380.503 271.087 429.86 241.474 475.539 210.571C533.711 171.176 587.929 128.371 650.24 92.3848C708.217 58.8767 777.472 30.7712 839.257 27.9892C846.07 27.6278 852.367 27.8557 858.215 28.5552C916.962 35.0784 935.994 86.0378 986.626 97.5158C990.387 98.3355 994.28 98.9195 998.307 99.2679C1058.52 104.494 1108.36 118.681 1154.69 137.464C1232.79 169.279 1303.32 208.991 1350.11 249.792C1401.9 295.06 1424.99 344.366 1425.68 386.164" stroke="#98774A" stroke-width="0.2" stroke-miterlimit="10"/>
<path d="M-317.517 215.503C-318.197 221.269 -289.1 223.118 -249.68 214.481C-217.192 207.382 -181.527 192.043 -152.615 176.947C-132.044 166.214 -113.593 156.308 -96.8744 148.169C-89.4829 144.513 -82.2906 141.209 -75.415 138.142C-52.9697 127.996 -29.2626 119.848 -4.93225 121.349C15.9705 122.736 32.9758 132.012 44.2294 145.296C49.1844 151.174 53.0055 157.759 55.7742 164.58C65.2299 188.221 65.9198 214.696 69.9608 238.814C73.3835 258.814 79.3604 277.869 93.9803 292.679C97.27 295.97 100.876 299.025 105.101 301.962C142.284 327.923 217.528 327.128 288.695 305.863C304.157 301.255 319.349 295.825 334.137 289.806C387.615 267.973 436.965 238.144 482.581 206.79C540.701 166.948 594.495 123.7 656.758 87.2656C713.868 53.7795 782.767 25.4569 844.009 22.4427C850.645 22.0819 856.948 22.3097 862.868 22.8911C921.506 29.0583 940.78 79.281 989.645 91.6963C993.159 92.6335 996.873 93.2175 1000.84 93.6835C1058.54 100.205 1106.25 115.328 1151.26 134.573C1227.75 167.077 1299.78 205.235 1348.76 243.185C1402.96 285.247 1428.95 330.402 1433.5 368.286" stroke="#98774A" stroke-width="0.2" stroke-miterlimit="10"/>
<path d="M-321.117 214.427C-319.613 217.953 -289.593 217.565 -248.802 207.875C-216.135 200.193 -180.136 184.981 -150.794 170.482C-129.853 160.109 -110.982 150.797 -94.1606 143.486C-86.6601 140.302 -79.6607 137.354 -72.7942 134.641C-50.8756 125.796 -28.1282 119.066 -4.92387 121.626C14.9824 123.837 31.2547 133.461 41.9543 147.09C46.6649 153.082 50.4245 159.781 53.1308 166.716C62.6514 190.577 64.1499 216.917 69.4368 240.783C73.7359 260.535 81.2102 279.224 96.6653 293.553C100.209 296.724 104.004 299.777 108.366 302.477C147.293 327.362 223.194 325.862 294.826 303.905C310.369 299.183 325.641 293.638 340.509 287.506C394.301 265.217 443.34 235.055 488.76 203.486C546.828 163.2 600.38 119.509 662.411 82.6285C718.65 49.1652 787.008 20.6269 848.074 17.3805C854.716 17.0199 861.093 17.1301 867.019 17.7112C925.546 23.5227 945.063 73.0085 992.092 86.4773C995.426 87.4142 999.011 88.2332 1002.79 88.6992C1058.23 96.3959 1103.37 112.572 1147.49 132.159C1222.2 165.352 1295.96 201.839 1347.27 237.058C1403.69 275.917 1432.78 316.924 1441.37 350.9" stroke="#98774A" stroke-width="0.2" stroke-miterlimit="10"/>
<path d="M-324.571 213.203C-320.881 214.491 -289.87 211.752 -247.772 201.127C-215.111 192.863 -178.593 177.778 -148.57 163.759C-127.073 153.745 -107.965 145.026 -91.0416 138.543C-83.5497 135.714 -76.5593 133.121 -69.7683 130.88C-48.1929 123.334 -26.591 118.02 -4.51451 121.638C14.3935 124.672 29.8651 134.761 40.0766 148.617C44.5423 154.723 48.307 161.417 50.9509 168.466C60.3529 192.547 62.7797 218.869 69.3818 242.365C74.6771 261.985 83.3499 280.191 100.01 294.039C103.809 297.09 107.859 300.024 112.477 302.604C153.151 326.414 229.591 324.093 301.555 301.682C317.179 296.845 332.28 291.304 347.479 284.941C401.334 262.315 450.431 231.82 495.785 199.802C553.548 159.191 606.857 115.06 669.089 77.6162C724.639 44.1764 792.27 15.4235 853.042 11.828C859.691 11.4678 865.889 11.5782 871.888 12.0413C930.555 17.3799 950.25 66.2461 995.322 80.6494C998.593 81.7033 1002 82.522 1005.53 83.1056C1058.46 92.0939 1101.45 109.203 1144.31 129.132C1217.23 163.012 1292.86 197.946 1346.12 230.438C1404.77 266.097 1436.96 302.962 1449.6 333.033" stroke="#98774A" stroke-width="0.2" stroke-miterlimit="10"/>
<path d="M-327.601 212.133C-321.721 211.187 -289.79 206.218 -246.574 194.658C-213.739 185.812 -176.774 170.971 -146.442 157.429C-124.509 147.655 -104.981 139.529 -88.0244 133.989C-80.5419 131.514 -73.4435 129.392 -67.0313 127.505C-45.8024 121.256 -25.3507 117.357 -4.34068 121.914C13.3803 125.77 28.2317 136.324 37.8346 150.29C42.2386 156.51 45.7568 163.319 48.4043 170.363C57.8701 194.665 61.1081 220.854 68.7753 244.101C75.1339 263.474 84.9389 281.316 102.62 294.686C106.607 297.735 110.978 300.432 115.6 303.01C158.018 325.748 235.104 322.725 307.455 299.739C322.973 294.788 338.337 289.133 353.429 282.656C407.59 259.574 456.368 228.745 501.77 196.394C559.47 155.337 612.527 110.761 674.516 72.8707C729.183 39.4517 796.326 10.3643 856.662 6.65482C863.316 6.29491 869.586 6.28778 875.338 6.86853C933.886 11.8527 953.822 59.9865 997.044 75.4415C1000.13 76.495 1003.47 77.4309 1006.95 78.1317C1057.34 88.4106 1098.06 106.335 1139.78 126.725C1210.82 161.411 1288.25 194.563 1343.83 224.333C1404.88 256.799 1439.8 289.529 1456.5 315.702" stroke="#98774A" stroke-width="0.2" stroke-miterlimit="10"/>
<path d="M-327.792 211.345C-319.662 208.047 -286.914 200.96 -242.376 188.339C-209.22 178.902 -172.149 164.174 -141.422 151.216C-119.142 141.792 -99.2162 134.25 -82.1107 129.414C-74.6459 127.291 -67.6315 125.638 -61.2366 124.103C-40.6286 119.263 -21.0998 116.656 -1.24925 122.273C15.4465 126.953 29.2883 137.981 38.5692 152.186C42.7203 158.525 46.1701 165.453 48.816 172.499C58.3277 197.042 62.3662 223.119 71.2677 246.135C78.6771 265.277 89.7827 282.769 108.459 295.671C112.696 298.603 117.316 301.183 122.187 303.644C166.292 325.328 243.75 321.598 316.476 297.901C332.056 292.831 347.481 287.057 362.635 280.461C416.794 257.02 465.572 225.831 510.791 193.119C568.187 151.582 620.942 106.525 682.81 68.155C736.723 34.7282 803.056 5.39908 862.95 1.45381C869.483 0.976421 875.684 1.08684 881.686 1.54993C940.043 6.18272 960.182 53.6231 1001.57 70.0236C1004.59 71.195 1007.74 72.1313 1010.96 72.95C1059.01 84.4086 1097.27 103.397 1137.67 124.146C1206.81 159.547 1285.63 191.178 1343.52 218.133C1406.65 247.549 1444.68 276.055 1465.41 298.353" stroke="#98774A" stroke-width="0.2" stroke-miterlimit="10"/>
<path d="M-328.045 210.494C-317.549 204.959 -284.102 195.637 -238.243 181.953C-205.017 172.043 -167.589 157.311 -136.401 144.819C-113.774 135.745 -93.4508 128.788 -76.0793 124.773C-68.448 123.001 -61.6354 121.701 -55.3244 120.636C-35.2705 117.088 -16.7307 115.891 2.02749 122.451C17.6986 127.956 30.7157 139.457 39.5571 153.783C43.4553 160.242 46.8369 167.289 49.4813 174.337C58.8545 199.121 63.995 225.203 74.0123 247.871C82.4053 266.899 94.6928 283.924 114.365 296.358C118.666 299.173 123.535 301.635 128.655 303.98C174.446 324.609 252.527 320.054 325.495 295.88C341.136 290.692 356.622 284.799 371.653 278.083C425.877 254.166 474.655 222.617 519.691 189.544C576.967 147.526 629.354 102.106 691.166 63.1386C744.142 29.7043 810.033 0.133091 869.302 -4.04785C875.833 -4.52539 882.099 -4.53258 887.914 -4.0692C946.081 0.212021 966.607 46.9585 1005.9 64.4227C1008.67 65.7122 1011.64 66.6489 1014.79 67.5854C1060.25 80.3421 1096.12 100.278 1135.57 121.385C1202.8 157.502 1283.2 187.61 1343.39 211.749C1408.48 237.997 1449.74 262.392 1474.32 280.813" stroke="#98774A" stroke-width="0.2" stroke-miterlimit="10"/>
<path d="M-327.98 209.82C-315.303 202.048 -280.789 190.489 -233.98 175.742C-200.616 165.242 -162.716 150.623 -131.318 138.715C-108.162 129.99 -87.6247 123.619 -70.1722 120.425C-62.5588 119.006 -55.8304 118.176 -49.5369 117.463C-30.0372 115.207 -12.4863 115.422 5.29763 123.042C19.9444 129.372 32.1371 141.347 40.4726 155.913C44.3024 162.491 47.4978 169.54 50.0742 176.707C59.4931 201.732 65.4328 227.702 76.6826 250.14C86.1249 268.936 99.5268 285.611 120.311 297.694C124.861 300.392 129.978 302.737 135.347 304.965C182.823 324.539 261.273 319.277 334.548 294.508C350.25 289.201 365.798 283.188 380.891 276.353C435.361 251.959 483.705 220.167 528.624 186.616C585.713 144.235 637.863 98.2155 699.37 58.7679C751.591 25.3256 816.672 -4.48769 875.566 -9.02227C882.095 -9.49997 888.173 -9.507 894.053 -9.16116C952.213 -5.23185 972.825 40.7033 1010.4 59.2316C1012.98 60.5216 1015.82 61.6938 1018.79 62.6307C1061.72 76.5686 1095.32 97.5699 1133.44 119.036C1198.71 155.987 1280.8 184.337 1343.06 205.775C1410.28 228.854 1454.59 249.137 1483.19 263.68" stroke="#98774A" stroke-width="0.2" stroke-miterlimit="10"/>
<path d="M-328.043 209.033C-313.187 199.022 -277.856 185.343 -229.662 169.415C-196.228 158.442 -157.972 143.819 -126.18 132.495C-102.679 124.121 -81.7446 118.335 -64.211 115.964C-56.6156 114.897 -49.9048 114.419 -43.6953 114.176C-24.4989 113.096 -8.18671 114.84 8.50595 123.404C22.1292 130.56 33.5647 142.891 41.3283 157.814C44.9056 164.511 48.0328 171.679 50.5412 178.966C59.8218 204.233 66.7445 230.09 79.042 252.297C89.5329 270.861 104.233 287.186 126.011 298.8C130.809 301.381 136.109 303.727 141.726 305.836C190.886 324.356 269.707 318.386 343.54 292.905C359.303 287.478 374.728 281.346 390.066 274.392C444.534 249.639 492.944 217.368 537.614 183.574C594.399 140.712 646.247 94.2113 707.632 54.2836C759.1 20.8337 823.438 -9.33907 882.009 -13.9923C888.351 -14.47 894.679 -14.5949 900.556 -14.249C958.592 -10.7893 979.341 34.569 1015.01 54.1619C1017.53 55.5699 1020.18 56.7424 1022.9 57.7974C1063.42 73.0346 1094.45 94.9843 1131.44 116.81C1194.81 154.476 1278.29 181.303 1343.03 199.922C1412.32 219.946 1459.81 235.88 1492.37 246.659" stroke="#98774A" stroke-width="0.2" stroke-miterlimit="10"/>
<path d="M-328.173 208.227C-311.139 195.976 -274.926 180.058 -225.481 163.184C-191.911 151.62 -153.249 137.227 -120.932 126.253C-97.0863 118.228 -75.7558 113.029 -58.1416 111.479C-50.5642 110.765 -44.1371 111.11 -37.7458 110.868C-18.6897 110.022 -3.71276 114.121 11.7561 123.863C24.4227 131.728 34.7843 144.652 42.2932 159.696C45.6181 166.513 48.6771 173.8 51.184 181.089C60.5101 206.597 68.1644 232.46 81.7592 254.318C93.2314 272.768 109.111 288.625 131.881 299.771C136.928 302.234 142.476 304.462 148.157 306.455C198.816 323.918 278.44 317.122 352.328 291.164C368.152 285.618 383.638 279.367 398.853 272.293C453.568 247.063 501.726 214.549 546.28 180.276C602.944 136.933 654.423 90.0676 715.567 49.5417C766.098 16.0843 829.811 -14.3309 887.94 -19.2204C894.346 -19.8158 900.421 -19.8229 906.362 -19.5947C964.207 -16.487 985.343 28.1764 1019 48.7171C1021.33 50.1256 1023.91 51.4162 1026.37 52.5893C1064.38 69.009 1093.14 92.025 1128.81 114.21C1190.46 152.593 1275.32 177.896 1342.19 193.694C1413.61 210.545 1464.15 222.363 1500.54 229.259" stroke="#98774A" stroke-width="0.2" stroke-miterlimit="10"/>
<path d="M-328.371 207.543C-309.093 192.934 -271.948 175.011 -221.304 156.955C-187.664 144.917 -148.648 130.521 -115.938 120.131C-91.6816 112.339 -69.9548 107.726 -52.3267 107.117C-44.6498 106.873 -38.1586 107.1 -32.0508 107.681C-13.9624 109.189 0.441289 113.642 14.7537 124.447C26.2139 133.138 35.9369 146.537 42.941 161.82C46.1977 168.756 48.887 176.046 51.5099 183.454C60.6978 209.204 69.5176 234.954 84.2249 256.463C96.5603 274.681 113.669 290.305 137.682 300.864C142.978 303.21 148.774 305.321 154.703 307.196C206.977 323.72 287.036 316.098 361.481 289.426C377.366 283.761 392.913 277.391 408.123 270.316C462.834 244.726 510.875 211.734 555.429 177.098C611.789 133.274 663.15 85.9274 724.172 44.921C773.95 11.456 836.854 -19.2012 894.542 -24.327C900.946 -24.9226 907.085 -25.0475 912.84 -24.819C970.493 -22.0635 991.833 21.9045 1023.59 43.511C1025.85 45.0375 1028.25 46.3286 1030.64 47.6197C1066.06 65.34 1092.44 89.3054 1126.9 111.967C1186.6 151.185 1272.91 174.845 1342.26 187.82C1415.57 201.614 1469.39 209.197 1509.8 212.208" stroke="#98774A" stroke-width="0.2" stroke-miterlimit="10"/>
<path d="M-328.315 206.751C-306.863 189.9 -268.652 169.736 -217.06 150.615C-183.166 138.103 -143.979 123.703 -110.877 113.898C-86.0929 106.457 -64.1542 102.431 -46.1953 102.527C-38.5366 102.636 -32.1297 103.334 -26.0394 104.268C-8.43809 106.953 4.91257 112.938 18.1358 124.688C28.5744 134.206 37.4753 148.079 43.7911 163.602C46.7957 170.658 49.417 178.067 52.2224 185.476C61.456 211.468 71.0728 237.105 87.0095 258.382C100.391 276.368 118.612 291.642 143.617 301.731C149.16 303.96 155.021 305.953 161.198 307.711C215.152 323.178 295.831 314.729 370.332 287.58C386.277 281.796 401.886 275.306 416.973 268.112C471.931 242.045 519.721 208.809 564.093 173.813C620.332 129.508 671.325 81.7965 732.107 40.192C781.133 6.71975 843.413 -24.1798 900.477 -29.5416C906.695 -30.1373 912.831 -30.2621 918.768 -30.0338C976.416 -27.6311 997.841 15.5236 1027.69 38.1961C1029.77 39.7232 1031.92 41.1326 1034.25 42.5417C1067.33 61.4454 1091.33 86.3603 1124.59 109.499C1182.39 149.434 1270.27 171.568 1341.74 181.72C1417.11 192.455 1474.04 195.8 1518.47 194.924" stroke="#98774A" stroke-width="0.2" stroke-miterlimit="10"/>
<path d="M-328.513 206.057C-304.886 186.964 -265.862 164.675 -212.891 144.37C-178.928 131.385 -139.271 117.097 -105.829 107.643C-80.7015 100.552 -58.3679 97.1125 -40.3295 98.0326C-32.6892 98.4943 -26.1164 99.5457 -20.2943 100.951C-3.18036 104.814 9.36769 112.214 21.1853 125.145C30.7864 135.49 38.4979 149.839 44.5596 165.484C47.3122 172.659 49.8656 180.188 52.6692 187.599C61.7644 213.832 72.2947 239.476 89.3418 260.403C103.703 278.275 123.283 293.08 149.278 302.699C155.07 304.811 161.178 306.687 167.602 308.327C223.234 322.736 304.279 313.578 379.268 285.833C395.274 279.93 410.943 273.321 426.091 266.006C481.111 239.461 528.715 205.864 573.087 170.506C629.139 125.836 679.895 77.5248 740.369 35.4391C788.643 1.95892 850.18 -29.3009 906.803 -34.8994C913.018 -35.4952 919.218 -35.7379 924.969 -35.5093C982.424 -33.4591 1004.24 8.99975 1032.01 32.7394C1033.84 34.3849 1035.91 35.9123 1038.13 37.2042C1068.62 57.4101 1090.24 83.2754 1122.37 106.775C1178.21 147.545 1267.46 168.152 1341.41 175.479C1418.66 183.155 1478.88 182.259 1527.14 177.495" stroke="#98774A" stroke-width="0.2" stroke-miterlimit="10"/>
<path d="M-328.492 205.292C-302.51 183.954 -262.672 159.54 -208.571 138.169C-174.289 124.591 -134.528 110.418 -100.696 101.549C-75.2257 94.8089 -52.4974 91.9567 -34.3794 93.7008C-26.7575 94.5157 -20.2027 95.9205 -14.4647 97.7971C2.27967 102.957 13.6582 111.772 24.3879 125.649C33.0349 136.704 39.8591 151.646 45.4171 167.53C48.1017 174.826 50.4034 182.474 53.2054 189.887C62.3462 216.362 73.6721 241.892 91.9465 262.588C107.352 280.227 128.042 294.681 155.21 303.831C161.25 305.825 167.605 307.583 174.211 309.223C231.52 322.574 313.117 312.707 388.292 284.248C404.359 278.225 419.905 271.497 435.297 264.062C490.497 237.158 537.916 203.199 581.921 167.479C637.668 122.328 688.239 73.652 748.591 31.0851C795.929 -2.40229 856.841 -33.9047 913.024 -39.7397C919.303 -40.4534 925.317 -40.696 931.065 -40.4675C988.396 -38.8878 1010.59 2.8744 1036.29 27.6815C1038.11 29.3274 1039.94 30.9732 1041.9 32.3834C1070.07 53.7739 1089.24 80.7077 1120.05 104.567C1174 146.056 1264.63 165.135 1340.88 169.635C1420.01 174.25 1483.51 169.112 1535.78 160.457" stroke="#98774A" stroke-width="0.2" stroke-miterlimit="10"/>
<path d="M-328.349 204.496C-300.196 180.914 -259.363 154.373 -204.067 131.817C-169.716 117.765 -129.487 103.705 -95.3814 95.3044C-69.3854 88.9151 -46.1967 86.5324 -28.2497 89.2191C-20.4626 90.3872 -14.176 92.2635 -8.45584 94.4938C7.80146 100.832 18.1284 111.182 27.7043 126.123C35.3314 138.006 41.3352 153.424 46.456 169.431C48.8226 176.963 51.1892 184.496 53.8568 192.146C63.043 218.863 75.3474 244.281 94.6642 264.745C111.114 282.152 132.912 296.255 161.002 305.052C167.223 307.046 173.826 308.686 180.562 310.091C239.479 322.502 321.574 311.689 397.17 282.751C413.297 276.609 428.903 269.761 444.173 262.207C499.433 234.824 546.851 200.504 590.672 164.422C646.298 118.789 696.5 69.7473 756.611 26.5812C803.197 -6.9138 863.301 -38.6589 919.042 -44.7305C925.319 -45.4445 931.331 -45.6872 937.143 -45.5764C994.282 -44.3497 1016.68 -3.28403 1040.48 22.591C1042.06 24.3553 1043.88 26.0015 1045.59 27.5301C1071.18 50.224 1087.97 78.1091 1117.65 102.329C1169.64 144.654 1261.83 162.205 1340.44 163.759C1421.63 165.311 1488.23 155.929 1544.32 143.381" stroke="#98774A" stroke-width="0.2" stroke-miterlimit="10"/>
<path d="M-328.425 203.838C-298.104 178.009 -256.208 149.222 -199.969 125.6C-165.366 111.073 -124.968 97.0092 -90.407 89.0769C-64.0692 83.0388 -40.4869 81.2438 -22.4608 84.7553C-14.6924 86.277 -8.42377 88.5071 -2.78781 91.2091C13.1663 98.7273 22.5086 110.493 30.8654 126.618C37.4733 139.329 42.5401 155.105 47.2751 171.469C49.3902 179.122 51.689 186.774 54.355 194.426C63.4031 221.385 76.6853 246.69 97.0437 266.923C114.47 284.214 137.441 297.848 166.704 306.175C173.172 308.051 179.838 309.574 187.005 310.861C247.413 322.212 330.241 310.689 406.14 281.154C422.327 274.893 437.994 267.925 453.324 260.252C508.645 232.391 555.812 197.827 599.699 161.265C655.02 115.149 705.103 65.6248 764.907 21.9772C810.742 -11.5252 870.038 -43.5128 925.523 -49.8215C931.613 -50.5355 937.689 -50.8962 943.499 -50.7854C1000.63 -49.912 1023.3 -9.66118 1045.02 17.2825C1046.59 19.0472 1048.17 20.8118 1049.63 22.4589C1072.7 46.3388 1087.24 75.2932 1115.79 99.8732C1165.88 142.917 1259.38 159.057 1340.36 157.665C1423.54 156.269 1493.3 142.523 1553.39 126.081" stroke="#98774A" stroke-width="0.2" stroke-miterlimit="10"/>
<path d="M-328.476 203.027C-295.922 174.833 -253.098 144.035 -195.668 119.227C-160.996 104.225 -120.064 90.1566 -85.1141 82.8107C-58.4353 77.124 -34.4603 75.917 -16.1721 80.2535C-8.42241 82.1289 -1.98846 84.7128 3.37966 87.8869C18.9641 96.7032 27.1387 109.887 34.4097 126.959C40.0653 140.382 44.2466 156.751 48.4787 173.356C50.5261 181.128 52.5736 188.901 55.238 196.555C64.3312 223.756 78.3404 249.066 99.9891 268.948C118.457 286.007 142.652 299.407 172.784 307.146C179.499 308.905 186.412 310.31 193.642 311.479C255.656 321.888 338.913 309.536 415.18 279.287C431.244 272.906 447.154 265.819 462.361 258.026C517.86 229.804 564.907 194.76 608.544 157.954C663.676 111.473 713.456 61.4652 773.018 17.2177C818.036 -16.1745 876.774 -48.5231 931.7 -55.1864C937.788 -55.9005 943.861 -56.2613 949.552 -56.2682C1006.49 -55.748 1029.55 -16.1947 1049.37 11.818C1050.7 13.7012 1052.09 15.4665 1053.66 17.2316C1074.41 42.2982 1086.32 72.3231 1113.74 97.2638C1161.88 141.145 1256.93 155.756 1340.27 151.414C1425.26 147.07 1498.25 128.841 1562.45 108.619" stroke="#98774A" stroke-width="0.2" stroke-miterlimit="10"/>
<path d="M-328.524 202.358C-293.804 171.916 -249.985 138.989 -191.363 112.995C-156.44 97.5172 -115.406 83.5635 -79.9351 76.5685C-52.7318 71.2332 -28.4811 70.4967 -10.1806 75.7768C-2.26612 78.006 3.89985 81.062 9.25018 84.5904C24.5317 94.5873 31.6568 109.307 37.5931 127.446C42.2311 141.697 45.5939 158.543 49.3901 175.27C51.1864 183.162 53.1662 191.054 55.829 198.71C64.7843 226.153 79.7699 251.351 102.642 271C122.152 287.826 147.452 300.874 178.754 308.142C185.715 309.783 192.876 311.07 200.286 312.239C263.972 321.588 347.844 308.408 424.347 277.679C440.47 271.179 456.441 263.972 471.709 256.059C527.269 227.359 574.248 192.071 617.767 154.784C672.595 107.822 722.255 57.3305 781.695 12.6011C825.962 -20.7982 883.959 -53.5073 938.38 -60.2897C944.466 -61.0041 950.419 -61.4826 956.224 -61.3718C1012.97 -61.2051 1036.3 -22.4677 1054.23 6.61422C1055.31 8.616 1056.63 10.4997 1058.02 12.2654C1076.2 38.637 1085.91 69.6142 1112.03 94.9157C1158.27 139.517 1254.63 152.714 1340.33 145.423C1427.37 138.011 1503.46 115.532 1571.47 91.4118" stroke="#98774A" stroke-width="0.2" stroke-miterlimit="10"/>
<path d="M-328.316 201.592C-291.433 168.9 -246.438 133.841 -186.877 106.779C-151.819 90.7075 -110.502 76.8677 -74.8271 70.4599C-47.2839 65.4762 -22.6414 65.3283 -4.1966 71.3165C3.69886 73.8997 9.84652 77.3101 15.1126 81.3109C29.9075 92.4893 36.0498 108.628 40.8356 127.833C44.4566 142.915 46.8181 160.237 50.1122 177.205C51.6576 185.217 53.636 193.111 56.2309 200.887C65.2315 228.572 81.1922 253.657 105.103 273.074C125.652 289.667 152.057 302.363 184.527 309.159C191.735 310.683 199.142 311.852 206.799 312.904C272.153 321.192 356.387 307.3 433.191 275.974C449.374 269.354 465.221 262.027 480.732 253.994C536.469 224.933 583.145 189.165 626.48 151.515C681.185 104.07 730.659 53.2124 789.673 7.88295C833.19 -25.524 890.38 -58.4761 944.36 -65.4956C950.326 -66.3279 956.21 -66.6887 962.079 -66.6958C1018.7 -67.0006 1042.41 -28.9615 1058.2 1.30878C1059.28 3.31105 1060.35 5.31333 1061.49 7.19766C1077.35 34.7571 1084.44 66.8058 1109.43 92.4684C1153.54 137.908 1251.63 149.574 1339.68 139.331C1428.71 128.968 1507.95 102.118 1579.96 74.0976" stroke="#98774A" stroke-width="0.2" stroke-miterlimit="10"/>
<path d="M-328.39 200.784C-289.163 165.841 -243.36 128.65 -182.794 100.401C-147.303 83.8532 -105.886 70.1274 -69.7584 64.1888C-41.876 59.557 -16.8426 59.9978 1.67979 66.8126C9.55612 69.7502 15.8687 73.5148 20.8672 77.9884C35.2926 90.4668 40.4527 108.026 43.9056 128.298C46.6935 144.21 48.0547 162.009 50.9133 179.099C52.2079 187.232 54.1187 195.246 56.712 203.023C65.5742 230.952 82.5092 255.923 107.457 275.108C128.979 291.586 156.736 303.812 190.006 310.137C197.461 311.543 205.048 312.713 212.833 313.528C279.788 320.873 364.633 306.151 441.801 274.109C458.044 267.369 473.95 259.923 489.338 251.77C545.133 222.23 591.74 186.217 634.89 148.204C689.472 100.275 738.577 49.0513 797.348 3.12103C840.114 -30.2936 896.497 -63.4891 950.036 -70.7459C955.999 -71.5784 961.947 -72.0573 967.63 -72.0642C1024.24 -72.7231 1048.15 -35.382 1061.94 -4.15869C1062.77 -2.03772 1063.84 -0.0349323 1064.73 1.96807C1078.01 30.8342 1082.74 63.837 1106.78 89.8606C1149 136.021 1248.58 146.273 1338.8 133.077C1429.81 119.762 1512.2 88.5385 1588.02 56.6159" stroke="#98774A" stroke-width="0.2" stroke-miterlimit="10"/>
<path d="M-328.357 200.13C-286.97 162.936 -239.993 123.612 -178.422 94.1756C-142.864 77.152 -101.163 63.5403 -64.5169 57.9532C-36.1119 53.6733 -10.8045 54.5854 7.72941 62.345C15.77 65.6368 21.8147 69.8743 26.7952 74.7027C40.9179 88.3635 44.8472 107.461 47.1516 128.801C48.924 145.543 49.4689 163.819 51.8264 181.15C53.0537 189.402 54.7137 197.536 57.2392 205.434C66.1468 233.604 83.8722 258.463 110.04 277.415C132.601 293.66 161.46 305.534 195.897 311.387C203.414 312.675 211.247 313.726 219.462 314.424C288.083 320.707 373.356 305.155 450.758 272.633C467.06 265.774 483.027 258.207 498.475 249.934C554.512 219.915 600.75 183.54 643.899 145.164C698.11 96.8699 747.094 45.1626 805.808 -1.3684C847.825 -34.7902 903.584 -68.229 956.5 -75.7228C962.461 -76.5556 968.223 -77.0343 974.153 -77.1595C1030.57 -78.1723 1054.93 -41.6485 1066.59 -9.23603C1067.41 -7.11456 1068.23 -4.99306 1068.87 -2.87137C1080.02 27.1834 1081.95 61.2586 1104.8 87.7615C1144.82 134.878 1246.13 143.597 1338.77 127.329C1431.77 111.06 1517.3 75.4621 1597.11 39.6355" stroke="#98774A" stroke-width="0.2" stroke-miterlimit="10"/>
<path d="M-328.133 199.36C-284.523 159.795 -236.622 118.455 -173.866 87.8297C-138.058 70.3296 -96.0102 56.7139 -59.1617 51.7147C-30.4186 47.7869 -4.53814 49.2883 14.0728 57.8752C22.094 61.5216 28.1202 66.114 33.0165 71.4155C46.7698 86.3775 49.7847 106.778 50.7583 129.187C51.5821 146.641 51.062 165.513 53.1018 183.085C54.0787 191.457 55.6713 199.712 58.1951 207.611C66.9645 236.025 85.7793 260.888 113.049 279.489C136.646 295.501 166.606 307.022 201.958 312.522C209.721 313.692 217.799 314.626 226.077 315.205C296.229 320.662 382.176 304.161 459.876 271.04C476.237 264.061 492.263 256.375 507.587 247.982C563.616 217.601 609.851 180.863 652.881 142.006C706.967 93.2278 755.831 41.0357 814.053 -5.97836C855.503 -39.408 910.339 -73.2081 962.997 -80.9396C968.955 -81.7726 974.781 -82.3695 980.525 -82.4945C1036.75 -83.8614 1061.5 -48.0368 1071.15 -14.6703C1071.72 -12.43 1072.36 -10.3078 1072.93 -8.06754C1081.58 23.1772 1081.26 58.3252 1102.8 85.19C1141.12 133.028 1243.73 140.332 1338.65 121.226C1433.63 102.001 1522.31 62.0261 1606.1 22.293" stroke="#98774A" stroke-width="0.2" stroke-miterlimit="10"/>
<path d="M-328.019 198.578C-282.253 156.758 -233.18 113.283 -169.673 81.5873C-133.616 63.6105 -91.2857 50.109 -53.9862 45.5797C-24.9715 42.1224 1.36462 44.0953 20.0525 53.51C28.0543 57.5112 34.2451 62.4584 38.8742 68.2334C52.3247 84.3791 54.2936 106.32 53.9374 129.797C53.9305 148.083 52.4124 167.433 54.0179 185.127C54.7447 193.62 56.3361 201.876 58.7921 209.895C67.6067 238.552 87.21 263.302 115.697 281.671C140.33 297.449 171.573 308.617 207.905 313.645C215.914 314.697 224.238 315.512 232.695 316.092C304.509 320.486 390.815 303.272 468.878 269.435C485.298 262.336 501.384 254.53 516.768 246.017C573.038 215.156 619.086 178.055 661.864 138.952C715.645 89.6905 764.505 37.1315 822.301 -10.4837C862.936 -43.8027 917.032 -77.9643 969.249 -85.9333C975.088 -86.8844 980.845 -87.3634 986.652 -87.6066C1042.68 -89.3277 1068.06 -54.321 1075.4 -19.7638C1075.97 -17.523 1076.3 -15.1639 1076.69 -12.9229C1082.77 19.6303 1080.09 55.7336 1100.5 82.9602C1136.94 131.52 1241.21 137.407 1338.11 115.344C1435.25 93.1624 1526.89 48.8085 1614.54 5.04941" stroke="#98774A" stroke-width="0.2" stroke-miterlimit="10"/>
<path d="M-328.108 197.918C-280.187 153.843 -230.192 108.35 -165.434 75.3472C-100.675 42.3441 -16.8676 25.6016 25.9608 49.0308C74.9882 75.7563 51.8292 137.972 54.8632 187.057C59.1345 253.841 120.827 303.325 213.657 314.538C306.488 325.751 427.791 298.224 525.753 243.821C652.909 173.216 726.913 71.1698 830.429 -15.3365C874.812 -52.4443 935.843 -90.8709 992.847 -93.0658C1048.94 -95.2596 1074.27 -60.8345 1079.78 -25.3227C1085.24 10.3072 1077.98 50.6729 1098.52 80.2659C1133.01 129.666 1238.76 134.137 1338.07 108.997C1437.19 83.8569 1531.97 35.1222 1623.6 -12.5466" stroke="#98774A" stroke-width="0.2" stroke-miterlimit="10"/>
</g>
</svg>
