<svg width="319" height="343" viewBox="0 0 319 343" fill="none" xmlns="http://www.w3.org/2000/svg">
<path d="M434.924 84.0363C434.384 66.2855 411.786 57.4076 391.307 66.9332C376.721 73.7466 365.93 86.934 356.777 99.4799C347.997 111.505 339.538 123.904 328.235 134.464C316.932 145.024 301.924 153.687 288.023 154.217C259.726 155.335 250.912 124.583 224.092 121.604C202.209 119.187 176.004 136.858 161.184 156.692C146.364 176.525 139.584 198.448 130.365 219.66C121.146 240.873 107.809 263.382 85.8767 277.311C65.6425 290.176 41.9856 293.096 21.2862 291.981C-28.1291 289.275 -60.1493 299.956 -79.3198 263.182" stroke="white" stroke-width="0.5" stroke-miterlimit="10"/>
<path d="M434.618 83.1171C434.404 75.3353 429.649 69.3912 422.88 66.1137C414.299 61.9313 402.471 61.7489 391.308 67.1715C381.046 72.1582 372.796 80.3371 365.572 89.2125C362.799 92.648 360.164 96.1811 357.631 99.6698C354.27 104.314 350.918 108.993 347.377 113.598C341.813 120.833 335.886 127.753 328.932 133.977C326.375 136.288 323.621 138.489 320.709 140.521C310.986 147.368 299.855 152.262 289.32 152.501C286.804 152.578 284.485 152.331 282.24 151.933C271.754 149.973 264.078 143.414 256.273 136.792C247.437 129.239 238.5 121.73 225.521 120.589C220.783 120.139 215.842 120.649 210.874 121.923C193.049 126.435 174.845 140.573 163.405 156.013C161.649 158.368 160.012 160.75 158.495 163.158C147.102 180.952 140.898 200.065 132.744 218.61C125.087 236.028 114.504 254.336 98.6785 267.863C95.3581 270.708 91.8029 273.301 88.0728 275.653C67.9228 288.153 44.6175 290.445 23.8919 289.86C-26.7282 288.329 -60.6256 297.81 -79.9071 260.851" stroke="white" stroke-width="0.5" stroke-miterlimit="10"/>
<path d="M434.293 82.1618C434.028 74.4117 429.049 68.6927 422.278 65.619C413.731 61.7837 402.091 61.877 391.29 67.3731C381.28 72.4426 373.313 80.6072 366.303 89.4188C363.582 92.828 360.999 96.3347 358.517 99.7969C355.157 104.436 351.806 109.11 348.248 113.637C342.608 120.78 336.577 127.501 329.663 133.425C327.079 135.627 324.357 137.732 321.53 139.646C311.948 146.148 301.059 150.655 290.762 150.712C288.288 150.731 286.02 150.463 283.826 150.043C273.528 147.926 265.914 141.388 258.138 134.881C249.231 127.488 240.067 120.406 227.106 119.538C222.346 119.218 217.476 119.776 212.528 121.119C194.874 125.831 177.008 139.926 165.673 155.302C163.968 157.632 162.332 160.012 160.815 162.417C149.578 180.123 143.35 199.106 135.162 217.488C127.439 234.835 116.712 252.988 100.847 266.323C97.518 269.129 94.0054 271.661 90.1983 273.926C70.1331 286.062 47.0786 287.77 26.4195 287.635C-25.4952 287.355 -61.176 295.559 -80.5679 258.419" stroke="white" stroke-width="0.5" stroke-miterlimit="10"/>
<path d="M433.97 81.2066C433.714 73.5003 428.493 67.9339 421.687 65.1563C413.115 61.6534 401.763 61.9772 391.264 67.5341C381.505 72.6871 373.821 80.8386 366.965 89.5744C364.305 92.9933 361.773 96.4742 359.292 99.9329C355.983 104.544 352.624 109.178 349.049 113.63C343.383 120.659 337.248 127.183 330.322 132.83C327.771 134.937 325.073 136.911 322.219 138.717C312.768 144.841 302.08 149.019 292.062 148.837C289.68 148.777 287.413 148.508 285.27 148.067C275.168 145.828 267.656 139.253 259.809 132.905C250.831 125.671 241.43 118.978 228.547 118.394C223.815 118.181 218.974 118.845 214.087 120.201C196.613 125.147 179.083 139.201 167.904 154.494C166.199 156.822 164.614 159.177 163.098 161.58C151.956 179.187 145.762 198.057 137.55 216.313C129.751 233.559 118.95 251.609 103.024 264.681C99.6783 267.414 96.1575 269.907 92.3929 272.113C72.4115 283.886 49.6572 284.99 29.0222 285.361C-24.1469 286.273 -61.7034 293.283 -81.1145 255.878" stroke="white" stroke-width="0.5" stroke-miterlimit="10"/>
<path d="M433.663 80.2904C433.407 72.5925 427.962 67.2495 421.153 64.6745C412.606 61.4811 401.501 62.0926 391.304 67.7099C381.847 72.9238 374.386 81.0488 367.744 89.722C365.135 93.1151 362.663 96.6055 360.224 100.003C356.968 104.587 353.61 109.216 349.967 113.615C344.234 120.588 338.027 126.821 331.098 132.228C328.52 134.227 325.855 136.106 323.084 137.795C313.715 143.562 303.329 147.369 293.547 147.005C291.216 146.923 288.991 146.597 286.95 146.112C277.034 143.717 269.626 137.105 261.767 130.927C252.708 123.817 243.14 117.561 230.223 117.271C225.521 117.164 220.699 117.899 215.842 119.359C198.538 124.505 181.294 138.539 170.32 153.727C168.667 156.031 167.082 158.383 165.566 160.783C154.58 178.305 148.402 196.991 140.064 215.166C132.19 232.308 121.254 250.242 105.287 263.124C101.933 265.818 98.395 268.238 94.6729 270.384C74.7662 281.76 52.28 282.354 31.7015 283.137C-22.8727 285.304 -62.1614 291.021 -81.6742 253.468" stroke="white" stroke-width="0.5" stroke-miterlimit="10"/>
<path d="M433.314 79.3861C433.015 71.7534 427.388 66.5754 420.535 64.2597C411.963 61.3972 401.104 62.2956 391.209 67.9738C382.002 73.271 374.824 81.3834 368.335 89.9817C365.828 93.3272 363.358 96.8141 360.979 100.221C357.723 104.801 354.357 109.39 350.706 113.749C344.947 120.609 338.636 126.647 331.695 131.778C329.15 133.682 326.458 135.453 323.72 137.048C314.482 142.438 304.346 145.896 294.792 145.317C292.503 145.177 290.33 144.83 288.33 144.287C278.6 141.735 271.304 135.122 263.424 129.079C254.294 122.126 244.498 116.293 231.599 116.273C226.925 116.273 222.123 117.078 217.336 118.586C200.262 123.943 183.303 137.959 172.484 153.066C170.831 155.367 169.297 157.695 167.824 160.035C156.992 177.473 150.789 196.035 142.426 214.085C134.485 231.162 123.456 248.923 107.448 261.616C104.085 264.272 100.539 266.655 96.7991 268.728C76.9665 279.708 54.7384 279.759 34.2343 281.024C-21.6351 284.434 -62.6561 288.861 -82.2296 251.099" stroke="white" stroke-width="0.5" stroke-miterlimit="10"/>
<path d="M432.993 78.0751C432.695 70.4394 426.833 65.4408 419.943 63.4161C411.402 60.8929 400.768 62.0082 391.179 67.79C382.22 73.1774 375.312 81.253 369.043 89.8367C366.595 93.1968 364.175 96.6629 361.787 100.036C358.581 104.596 355.215 109.186 351.536 113.441C345.698 120.22 339.331 126.047 332.375 130.911C329.802 132.709 327.193 134.366 324.487 135.868C315.376 140.889 305.487 144.003 296.115 143.263C293.877 143.102 291.795 142.674 289.796 142.132C280.299 139.397 273.062 132.794 265.099 126.864C255.885 120.023 245.909 114.581 233.031 114.867C228.385 114.973 223.601 115.848 218.831 117.427C201.921 122.99 185.292 136.984 174.623 152.031C172.97 154.333 171.436 156.662 170.012 158.981C159.272 176.346 153.1 194.822 144.699 212.738C136.678 229.738 125.561 247.387 109.445 259.894C106.073 262.516 102.558 264.806 98.7998 266.809C79.0429 277.444 57.0652 276.95 36.6097 278.627C-20.6756 283.326 -63.4433 286.469 -83.0829 248.443" stroke="white" stroke-width="0.5" stroke-miterlimit="10"/>
<path d="M432.692 76.2847C432.404 68.6644 426.303 63.8342 419.354 62.0253C410.78 59.823 400.433 61.2061 391.146 67.1039C382.479 72.571 375.847 80.6624 369.674 89.2237C367.275 92.57 364.903 96.0228 362.573 99.418C359.365 103.989 356.037 108.534 352.296 112.786C346.426 119.475 339.898 125.149 332.974 129.732C330.431 131.442 327.792 132.997 325.107 134.374C316.118 139.034 306.471 141.809 297.319 140.849C295.12 140.629 293.087 140.178 291.137 139.612C281.819 136.709 274.678 130.044 266.697 124.261C257.404 117.553 247.192 112.513 234.32 113.068C229.689 113.245 224.929 114.229 220.225 115.86C203.479 121.675 187.168 135.678 176.592 150.719C174.988 153.005 173.453 155.339 172.029 157.664C161.431 175.007 155.226 193.425 146.781 211.245C138.685 228.24 127.411 245.801 111.288 258.14C107.905 260.733 104.369 262.958 100.649 264.909C80.9568 275.219 59.1667 274.198 38.8082 276.303C-19.968 282.359 -64.4158 284.137 -84.1802 245.783" stroke="white" stroke-width="0.5" stroke-miterlimit="10"/>
<path d="M432.382 74.4527C432.052 66.8699 425.755 62.1509 418.815 60.6079C410.259 58.7058 400.098 60.4028 391.103 66.3819C382.688 71.987 376.312 80.0235 370.347 88.5534C367.996 91.8862 365.683 95.3613 363.392 98.7073C360.232 103.268 356.842 107.811 353.088 112.039C347.135 118.661 340.538 124.1 333.604 128.459C331.083 130.044 328.474 131.509 325.819 132.796C316.953 137.094 307.496 139.551 298.614 138.348C296.506 138.047 294.472 137.594 292.562 136.968C283.421 133.897 276.336 127.226 268.327 121.557C258.945 114.945 248.548 110.287 235.63 111.136C230.973 111.442 226.279 112.477 221.641 114.161C205.048 120.194 189.056 134.206 178.624 149.219C177.019 151.51 175.533 153.829 174.108 156.16C163.593 173.468 157.415 191.84 148.884 209.623C140.703 226.578 129.333 244.064 113.102 256.279C109.706 258.843 106.159 261.038 102.469 262.9C82.8306 272.849 61.2466 271.369 40.9157 273.856C-19.3545 281.275 -65.4852 281.68 -85.3244 242.974" stroke="white" stroke-width="0.5" stroke-miterlimit="10"/>
<path d="M432.101 72.7073C431.772 65.1049 425.296 60.5695 418.255 59.3028C409.716 57.7026 399.784 59.657 391.091 65.7532C382.918 71.4611 376.819 79.5132 371.009 88.0333C368.717 91.3878 366.503 94.827 364.16 98.2039C361.007 102.812 357.655 107.309 353.871 111.44C347.835 117.994 341.178 123.232 334.276 127.308C331.734 128.825 329.147 130.164 326.522 131.361C317.727 135.317 308.564 137.409 299.91 136.018C297.852 135.694 295.858 135.183 294.048 134.51C285.085 131.269 278.107 124.572 270.069 119.016C260.609 112.538 249.974 108.286 237.062 109.408C232.429 109.821 227.751 110.93 223.137 112.725C206.708 119.013 191.036 133.033 180.747 148.017C179.191 150.292 177.705 152.616 176.278 154.953C165.907 172.238 159.695 190.55 151.121 208.235C142.905 225.126 131.337 242.581 115.039 254.612C111.631 257.147 108.114 259.254 104.361 261.106C84.7874 270.727 63.4007 268.751 43.1574 271.635C-18.6085 280.424 -66.4742 279.471 -86.3882 240.413" stroke="white" stroke-width="0.5" stroke-miterlimit="10"/>
<path d="M431.797 70.9075C431.477 63.3208 424.762 58.9563 417.661 57.9092C409.098 56.6706 399.444 58.8616 391.045 65.0398C383.115 70.8512 377.283 78.8836 371.68 87.3718C369.437 90.7125 367.272 94.1382 364.977 97.5013C361.872 102.099 358.509 106.571 354.662 110.7C348.603 117.198 341.826 122.222 334.905 126.035C332.384 127.427 329.776 128.698 327.233 129.781C318.57 133.406 309.639 135.119 301.206 133.504C299.187 133.121 297.293 132.563 295.482 131.889C286.698 128.478 279.826 121.753 271.71 116.334C262.169 109.99 251.339 106.088 238.441 107.521C233.833 108.041 229.169 109.224 224.621 111.073C208.346 117.581 192.994 131.609 182.85 146.564C181.292 148.845 179.855 151.153 178.478 153.474C168.241 170.7 162.005 188.988 153.396 206.612C145.104 223.497 133.439 240.876 117.073 252.723C113.645 255.192 110.115 257.269 106.392 259.032C86.8827 268.323 65.6933 265.848 45.5374 269.13C-17.8106 279.413 -67.2901 276.921 -87.3206 237.566" stroke="white" stroke-width="0.5" stroke-miterlimit="10"/>
<path d="M431.498 69.1088C431.128 61.5251 424.224 57.3102 417.081 56.5556C408.536 55.6224 399.069 58.1318 390.963 64.3922C383.327 70.2849 377.721 78.355 372.266 86.7972C370.132 90.1373 367.965 93.5715 365.669 96.943C362.612 101.53 359.195 106.036 355.327 110.102C349.185 116.532 342.347 121.353 335.407 124.902C332.866 126.225 330.33 127.347 327.757 128.325C319.217 131.582 310.52 132.913 302.275 131.168C300.306 130.761 298.452 130.143 296.681 129.409C288.127 125.804 281.31 119.075 273.166 113.771C263.537 107.527 252.529 104.049 239.585 105.779C235.001 106.409 230.353 107.666 225.82 109.59C209.709 116.356 194.677 130.391 184.677 145.317C183.169 147.581 181.731 149.894 180.352 152.221C170.209 169.446 164.041 187.628 155.337 205.175C146.96 222.018 135.147 239.341 118.714 251.002C115.274 253.442 111.732 255.487 108.039 257.16C88.5844 266.083 67.5514 263.165 47.5245 266.79C-17.3658 278.515 -68.5435 274.592 -88.5985 234.861" stroke="white" stroke-width="0.5" stroke-miterlimit="10"/>
<path d="M431.196 67.3202C430.836 59.7529 423.692 55.7108 416.54 55.1558C408.012 54.5294 398.783 57.3364 390.971 63.6795C383.578 69.6765 378.29 77.7039 372.993 86.1358C370.907 89.4618 368.799 92.9182 366.542 96.2397C363.483 100.838 360.105 105.297 356.215 109.302C350.041 115.64 343.092 120.28 336.133 123.562C333.614 124.758 331.066 125.847 328.565 126.674C320.148 129.562 311.644 130.567 303.67 128.574C301.741 128.107 299.936 127.465 298.215 126.706C289.84 122.93 283.07 116.16 274.906 111.008C265.197 104.9 253.942 101.798 241.012 103.843C236.443 104.545 231.82 105.913 227.353 107.891C211.396 114.879 196.685 128.923 186.829 143.818C185.32 146.088 183.88 148.407 182.551 150.717C172.552 167.918 166.342 186.002 157.561 203.544C149.098 220.344 137.189 237.59 120.696 249.1C117.245 251.509 113.673 253.452 110.028 255.107C90.6652 263.803 69.8118 260.31 49.863 264.302C-16.605 277.57 -69.4008 272.091 -89.5819 232.027" stroke="white" stroke-width="0.5" stroke-miterlimit="10"/>
<path d="M430.947 65.6352C430.587 58.0487 423.254 54.1579 416.009 53.9208C407.498 53.6029 398.507 56.7089 390.989 63.135C383.85 69.2726 378.83 77.2794 373.69 85.7006C371.663 89.0484 369.594 92.4548 367.396 95.7981C364.385 100.385 361.005 104.855 357.042 108.82C350.785 115.088 343.729 119.343 336.807 122.575C334.327 123.715 331.792 124.639 329.27 125.397C320.977 127.912 312.716 128.567 304.972 126.384C303.134 125.835 301.328 125.191 299.707 124.385C291.511 120.436 284.848 113.639 276.656 108.604C266.867 102.633 255.424 99.9233 242.448 102.269C237.904 103.081 233.305 104.56 228.853 106.615C213.06 113.863 198.67 127.913 188.908 142.8C187.398 145.076 186.008 147.378 184.678 149.694C174.763 166.856 168.579 184.892 159.753 202.333C151.214 219.126 139.148 236.28 122.597 247.636C119.134 250.016 115.601 251.904 111.883 253.514C92.5578 261.767 71.8887 257.933 52.0598 262.236C-15.9884 277.055 -70.404 270.012 -90.6607 229.593" stroke="white" stroke-width="0.5" stroke-miterlimit="10"/>
<path d="M430.658 63.8566C430.256 56.3095 422.734 52.5708 415.437 52.5944C406.953 52.6227 398.131 55.9797 390.917 62.5252C384.022 68.7681 379.271 76.754 374.339 85.1419C372.361 88.4754 370.35 91.9037 368.141 95.2192C365.128 99.8175 361.735 104.262 357.761 108.201C351.471 114.376 344.34 118.591 337.362 121.41C334.844 122.409 332.348 123.276 329.908 123.918C321.747 126.096 313.721 126.364 306.198 123.953C304.41 123.38 302.695 122.653 301.073 121.845C293.056 117.722 286.5 110.899 278.229 106.004C268.35 100.134 256.719 97.8183 243.757 100.48C239.237 101.402 234.653 102.957 230.268 105.067C214.638 112.575 200.51 126.619 190.952 141.489C189.492 143.747 188.101 146.056 186.821 148.355C177.05 165.492 170.832 183.464 161.963 200.804C153.338 217.553 141.174 234.627 124.504 245.817C121.029 248.166 117.485 250.023 113.788 251.505C94.5771 259.398 74.0142 255.137 54.3143 259.787C-15.3493 276.26 -71.4057 267.573 -91.7381 226.796" stroke="white" stroke-width="0.5" stroke-miterlimit="10"/>
<path d="M430.335 62.0045C429.934 54.4385 422.171 50.8755 414.823 51.1611C406.356 51.5011 397.772 55.1601 390.853 61.7892C384.253 68.115 379.729 76.1385 374.946 84.4791C373.017 87.7981 371.056 91.2122 368.905 94.5493C365.94 99.1362 362.545 103.592 358.54 107.432C352.166 113.535 344.975 117.543 337.978 120.093C335.49 120.998 333.016 121.736 330.546 122.271C322.509 124.073 314.727 123.988 307.435 121.385C305.687 120.751 304.022 119.999 302.441 119.13C294.655 114.811 288.154 107.983 279.855 103.207C269.895 97.475 258.025 95.5785 245.058 98.486C240.563 99.5186 235.994 101.149 231.675 103.313C216.21 111.084 202.395 125.098 192.981 139.937C191.52 142.201 190.178 144.492 188.897 146.797C179.261 163.872 173.02 181.816 164.115 199.09C155.405 215.794 143.092 232.81 126.415 243.823C122.927 246.141 119.362 247.93 115.704 249.356C96.5488 256.873 76.2031 252.174 56.5723 257.161C-14.8524 275.398 -72.5101 265.001 -92.9692 223.889" stroke="white" stroke-width="0.5" stroke-miterlimit="10"/>
<path d="M429.991 60.2699C429.599 52.7219 421.646 49.313 414.246 49.862C405.848 50.4926 397.402 54.5001 390.829 61.1901C384.474 67.6213 380.228 75.6593 375.645 83.9288C373.826 87.2466 371.863 90.6688 369.752 93.9548C366.835 98.5298 363.429 102.96 359.36 106.795C352.963 112.84 345.651 116.625 338.635 118.903C336.169 119.68 333.675 120.347 331.287 120.764C323.373 122.189 315.785 121.771 308.715 118.939C307.017 118.281 305.393 117.468 303.861 116.574C296.255 112.08 289.811 105.249 281.473 100.556C271.424 94.9276 259.366 93.4294 246.362 96.6787C241.831 97.8088 237.389 99.5061 233.034 101.771C217.724 109.768 204.241 123.824 194.973 138.629C193.561 140.876 192.219 143.172 190.927 145.446C181.385 162.516 175.162 180.371 166.161 197.564C157.374 214.257 144.955 231.155 128.168 242.034C124.66 244.285 121.083 246.041 117.413 247.435C98.323 254.61 78.1443 249.494 58.5829 254.817C-14.2389 274.704 -73.5497 262.611 -94.0337 221.121" stroke="white" stroke-width="0.5" stroke-miterlimit="10"/>
<path d="M429.727 58.5193C429.294 51.0108 421.191 47.6971 413.689 48.5335C405.307 49.479 397.099 53.7919 390.771 60.5896C384.67 67.1643 380.736 75.1227 376.269 83.4405C374.499 86.744 372.595 90.1885 370.482 93.4828C367.563 98.0694 364.153 102.51 360.063 106.282C353.582 112.256 346.209 115.832 339.174 117.838C336.687 118.543 334.214 119.08 331.857 119.402C324.077 120.485 316.723 119.674 309.875 116.61C308.218 115.891 306.694 115.031 305.213 114.112C297.787 109.442 291.44 102.547 283.083 98.0091C272.953 92.5199 260.695 91.3854 247.704 94.9559C243.198 96.1977 238.771 97.9719 234.491 100.329C219.345 108.59 206.175 122.618 197.052 137.393C195.639 139.645 194.346 141.925 193.054 144.204C183.657 161.249 177.399 179.041 168.363 196.168C159.49 212.817 146.93 229.694 130.116 240.322C126.596 242.542 123.058 244.243 119.367 245.567C100.341 252.4 80.319 246.828 60.8769 252.468C-13.6217 274.056 -74.5495 260.196 -95.1612 218.365" stroke="white" stroke-width="0.5" stroke-miterlimit="10"/>
<path d="M429.444 56.7666C429.011 49.24 420.666 46.1045 413.122 47.2434C404.747 48.4687 396.789 53.1244 390.757 60.0065C384.953 66.6651 381.247 74.6608 376.98 82.9071C375.269 86.2321 373.405 89.6255 371.341 92.9048C368.471 97.4795 365.049 101.894 360.937 105.602C354.373 111.503 346.938 114.868 339.885 116.6C337.428 117.211 334.977 117.616 332.599 117.867C324.944 118.568 317.835 117.398 311.219 114.14C309.653 113.337 308.129 112.475 306.688 111.493C299.493 106.625 293.203 99.7265 284.766 95.332C274.555 89.9838 262.057 89.2742 249.071 93.1306C244.589 94.4845 240.177 96.3355 235.912 98.7705C220.913 107.225 208.085 121.331 199.056 136.095C197.693 138.329 196.348 140.637 195.105 142.9C185.793 159.903 179.614 177.619 170.482 194.663C161.532 211.302 148.865 228.058 131.941 238.551C128.409 240.74 124.85 242.372 121.188 243.603C102.228 250.09 82.3731 244.097 63.0513 250.055C-13.0451 273.435 -75.5988 257.767 -96.3378 215.601" stroke="white" stroke-width="0.5" stroke-miterlimit="10"/>
<path d="M429.177 55.0567C428.754 47.548 420.218 44.5686 412.57 45.9977C404.212 47.5408 396.493 52.5047 390.767 59.5087C385.209 66.2749 381.773 74.2489 377.665 82.4834C376.003 85.7937 374.198 89.2091 372.183 92.4735C369.311 97.0593 365.937 101.462 361.752 105.128C355.155 110.934 347.609 114.11 340.536 115.566C338.05 116.069 335.629 116.379 333.333 116.511C325.751 116.852 318.939 115.299 312.546 111.808C311.03 110.98 309.546 110.056 308.155 109.05C301.141 104.004 294.907 97.1016 286.492 92.8052C276.19 87.5618 263.502 87.2562 250.478 91.4595C246.012 92.8895 241.624 94.8545 237.426 97.3455C222.642 106.043 210.077 120.142 201.194 134.874C199.83 137.114 198.535 139.404 197.342 141.649C188.175 158.626 181.961 176.275 172.794 193.251C163.808 209.821 150.941 226.54 134 236.815C130.456 238.972 126.875 240.535 123.253 241.709C104.357 247.85 84.6783 241.469 65.4577 247.674C-12.2317 272.893 -76.4244 255.37 -97.2404 212.841" stroke="white" stroke-width="0.5" stroke-miterlimit="10"/>
<path d="M428.916 53.3571C428.442 45.8536 419.714 43.0315 412.066 44.7062C403.776 46.5457 396.195 51.8644 390.817 58.9303C385.514 65.8404 382.349 73.7917 378.451 81.9902C376.839 85.2852 375.083 88.6856 373.077 91.9942C370.253 96.5675 366.816 100.966 362.619 104.604C355.938 110.336 348.33 113.299 341.239 114.479C338.783 114.886 336.393 115.1 334.059 115.085C326.611 115.078 320.036 113.128 313.875 109.44C312.4 108.55 310.966 107.601 309.626 106.569C302.793 101.346 296.666 94.4179 288.171 90.2667C277.788 85.1659 264.901 85.2298 251.84 89.781C247.398 91.324 243.025 93.3667 238.893 95.9136C224.266 104.842 212.034 118.982 203.297 133.678C201.932 135.924 200.687 138.197 199.493 140.447C190.462 157.357 184.216 174.937 174.962 191.865C165.89 208.386 152.924 225.019 135.873 235.156C132.318 237.282 128.725 238.811 125.081 239.915C106.251 245.706 86.7403 238.901 67.6403 245.426C-11.6328 272.526 -77.5342 253.09 -98.4174 210.24" stroke="white" stroke-width="0.5" stroke-miterlimit="10"/>
<path d="M428.624 51.5939C428.159 44.1092 419.23 41.4082 411.488 43.4124C403.206 45.5359 395.874 51.2023 390.743 58.3766C385.737 65.3718 382.853 73.3374 379.054 81.5093C377.552 84.8029 375.794 88.2113 373.828 91.4679C371.052 96.029 367.604 100.401 363.385 103.974C356.671 109.609 348.909 112.44 341.84 113.282C339.416 113.593 336.996 113.698 334.744 113.564C327.42 113.17 321.041 110.879 315.104 106.957C313.678 106.042 312.337 105.008 310.986 103.936C304.386 98.5119 298.315 91.5806 289.791 87.5519C279.327 82.5943 266.188 83.0523 253.191 87.9074C248.774 89.564 244.417 91.6847 240.3 94.3109C225.838 103.507 213.922 117.616 205.331 132.278C204.015 134.506 202.769 136.784 201.574 139.039C192.638 155.943 186.409 173.432 177.111 190.253C167.961 206.761 154.888 223.273 137.726 233.272C134.158 235.365 130.596 236.802 126.94 237.871C108.166 243.275 88.8832 236.057 69.8431 242.89C-11.0181 271.881 -78.5714 250.536 -99.5316 207.324" stroke="white" stroke-width="0.5" stroke-miterlimit="10"/>
<path d="M428.357 49.8958C427.893 42.3934 418.772 39.8509 410.926 42.1494C402.661 44.595 395.57 50.5736 390.736 57.8337C385.986 64.9741 383.364 72.8801 379.776 81.0159C378.324 84.2942 376.676 87.7013 374.657 90.9884C371.879 95.5601 368.479 99.9195 364.187 103.45C357.398 109.046 349.566 111.625 342.478 112.188C340.024 112.389 337.635 112.397 335.414 112.166C328.225 111.421 322.074 108.691 316.379 104.608C314.994 103.63 313.703 102.571 312.454 101.451C306.035 95.8472 300.021 88.9128 291.519 84.9845C280.963 80.134 267.634 81.0019 254.59 86.1713C250.188 87.9052 245.864 90.1779 241.814 92.8607C227.508 102.289 215.927 116.44 207.482 131.067C206.165 133.3 204.969 135.56 203.773 137.821C194.974 154.658 188.72 172.114 179.386 188.863C170.15 205.322 156.927 221.77 139.748 231.548C136.159 233.572 132.584 234.975 128.958 235.949C110.249 241.001 91.1441 233.391 72.2151 240.51C-10.218 271.474 -79.495 248.162 -100.532 204.588" stroke="white" stroke-width="0.5" stroke-miterlimit="10"/>
<path d="M428.089 48.1683C427.582 40.7087 418.26 38.2888 410.37 40.8966C402.113 43.6287 395.272 49.9575 390.737 57.3032C386.285 64.529 383.894 72.4715 380.456 80.5564C379.063 83.8559 377.456 87.2107 375.486 90.4821C372.757 95.0409 369.294 99.3962 364.99 102.897C358.168 108.395 350.223 110.781 343.116 111.063C340.693 111.168 338.326 111.042 336.136 110.712C329.072 109.577 323.168 106.481 317.697 102.162C316.415 101.136 315.113 100.037 313.914 98.8914C307.719 93.0485 301.762 86.1118 293.189 82.3676C282.552 77.6621 269.022 78.9047 255.94 84.4265C251.563 86.2748 247.254 88.6262 243.22 91.3887C229.08 101.087 217.763 115.228 209.465 129.818C208.198 132.033 207.002 134.299 205.805 136.564C197.151 153.37 190.865 170.754 181.435 187.417C172.112 203.825 158.79 220.185 141.501 229.821C137.9 231.813 134.313 233.182 130.666 234.084C112.023 238.781 93.0957 230.779 74.269 238.149C-9.67681 271.105 -80.688 245.781 -101.853 201.87" stroke="white" stroke-width="0.5" stroke-miterlimit="10"/>
<path d="M427.829 46.4958C427.332 39.0559 417.798 36.7221 409.874 39.6776C401.685 42.7116 394.983 49.4016 390.746 56.8336C386.542 64.1685 384.423 72.0878 381.205 80.1728C379.862 83.4568 378.315 86.8331 376.394 90.0889C373.673 94.6951 370.249 99.0001 365.913 102.398C359.007 107.82 351 109.989 343.875 109.988C341.431 110.019 339.086 109.758 336.917 109.294C329.928 107.79 324.323 104.303 319.077 99.7465C317.835 98.6584 316.635 97.5102 315.435 96.362C309.422 90.3386 303.573 83.3761 294.971 79.7568C284.2 75.2199 270.558 76.9639 257.401 82.6917C253.029 84.581 248.755 87.0856 244.787 89.9051C230.803 99.838 219.822 114.02 211.67 128.574C210.412 130.831 209.205 133.065 208.109 135.29C199.551 152.088 193.333 169.354 183.816 185.967C174.416 202.361 160.934 218.619 143.637 228.068C140.024 230.028 136.467 231.302 132.808 232.169C114.23 236.51 95.5324 228.091 76.7146 235.795C-8.78995 270.814 -81.497 243.407 -102.74 199.134" stroke="white" stroke-width="0.5" stroke-miterlimit="10"/>
<path d="M427.538 44.747C427.042 37.2905 417.263 35.1407 409.287 38.3711C401.106 41.6941 394.654 48.7373 390.717 56.2553C386.821 63.7131 384.975 71.6083 381.857 79.6648C380.624 82.9468 379.075 86.3305 377.144 89.5563C374.472 94.1494 371.035 98.4267 366.636 101.817C359.645 107.163 351.577 109.114 344.433 108.83C342.011 108.726 339.697 108.367 337.56 107.805C330.706 105.945 325.288 102.073 320.327 97.2933C319.127 96.1425 317.977 94.9684 316.819 93.7573C310.988 87.5533 305.196 80.5889 296.555 77.0582C285.703 72.6679 271.771 74.665 258.715 80.8499C254.378 82.8914 250.109 85.4384 246.157 88.3381C232.34 98.5425 221.676 112.691 213.672 127.207C212.463 129.446 211.255 131.685 210.159 133.914C201.738 150.642 195.496 167.873 185.934 184.373C176.447 200.715 162.876 216.92 145.449 226.153C141.824 228.079 138.256 229.319 134.627 230.09C116.115 234.073 97.5959 225.258 78.8897 233.252C-8.1135 270.354 -82.6289 240.866 -103.949 196.234" stroke="white" stroke-width="0.5" stroke-miterlimit="10"/>
<path d="M427.302 43.0787C426.763 35.6647 416.819 33.7878 408.762 37.1832C400.551 40.6483 394.386 48.196 390.749 55.8016C387.101 63.37 385.537 71.2795 382.621 79.2622C381.439 82.5287 379.94 85.8972 378.068 89.1446C375.393 93.7484 371.954 98.0356 367.532 101.36C360.508 106.606 352.275 108.384 345.173 107.829C342.73 107.651 340.447 107.193 338.332 106.494C331.603 104.239 326.434 99.9955 321.647 94.9995C320.497 93.8226 319.389 92.5853 318.332 91.3248C312.735 84.9151 306.948 77.9708 298.329 74.5426C287.393 70.299 273.259 72.676 260.165 79.2185C255.801 81.3993 251.599 84.0033 247.723 86.9979C234.061 97.4395 223.734 111.63 215.876 126.111C214.667 128.355 213.509 130.576 212.411 132.811C204.085 149.532 197.861 166.668 188.263 183.095C178.689 199.387 164.966 215.527 147.53 224.571C143.893 226.465 140.303 227.633 136.713 228.346C118.276 232.006 99.8467 222.211 81.3208 231.004C-6.68789 272.667 -83.6079 238.495 -105.048 193.554" stroke="white" stroke-width="0.5" stroke-miterlimit="10"/>
<path d="M426.962 41.3613C426.433 33.9689 416.248 32.0684 408.185 35.9269C400.019 39.832 394.069 47.5864 390.68 55.3012C387.342 62.9928 385.991 70.8632 383.245 78.8674C382.114 82.1175 380.674 85.5071 378.842 88.7006C376.216 93.2908 372.765 97.5495 368.271 100.829C361.162 105.997 352.877 107.592 345.746 106.714C343.326 106.4 341.023 105.867 338.99 105.045C332.346 102.454 327.467 97.7779 322.916 92.5802C321.807 91.3402 320.801 90.0538 319.743 88.7905C314.381 82.1762 308.651 75.2308 299.951 71.953C288.924 67.8207 274.547 70.6393 261.467 77.5162C257.117 79.7758 252.94 82.4968 249.131 85.5488C235.637 96.2633 225.628 110.418 217.918 124.86C216.759 127.085 215.6 129.31 214.492 131.513C206.305 148.161 200.056 165.259 190.362 181.594C180.71 197.869 166.879 213.879 149.324 222.741C145.675 224.6 142.064 225.696 138.453 226.336C120.074 229.598 101.879 219.627 83.4192 228.525C-6.03428 271.602 -84.641 236.06 -106.159 190.762" stroke="white" stroke-width="0.5" stroke-miterlimit="10"/>
<path d="M426.692 39.6641C426.163 32.2552 415.724 30.5036 407.617 34.6782C399.458 38.876 393.76 46.9882 390.671 54.7903C387.583 62.5923 386.566 70.4525 383.972 78.4044C382.9 81.6757 381.501 85.012 379.677 88.2499C377.101 92.8267 373.647 97.0946 369.13 100.306C361.997 105.411 353.59 106.77 346.44 105.606C344 105.216 341.769 104.523 339.707 103.587C333.19 100.597 328.56 95.5465 324.234 90.1085C323.228 88.8191 322.211 87.4923 321.195 86.1656C316.017 79.3683 310.395 72.3978 301.665 69.2474C290.556 65.2638 275.976 68.4656 262.909 75.6788C258.584 78.0552 254.423 80.8566 250.629 83.9898C237.292 94.942 227.62 109.137 220.058 123.54C218.898 125.771 217.789 127.978 216.681 130.185C208.64 146.8 202.349 163.785 192.628 180.082C182.94 196.28 168.907 212.245 151.292 220.938C147.631 222.764 144.059 223.802 140.427 224.368C122.114 227.267 104.243 217.245 85.7409 226.049C-5.62925 269.596 -85.6444 233.586 -107.24 187.924" stroke="white" stroke-width="0.5" stroke-miterlimit="10"/>
<path d="M426.42 37.9873C425.841 30.5855 415.199 28.9578 407.056 33.4853C398.913 38.0128 393.456 46.4455 390.666 54.3342C387.877 62.2229 387.082 70.0814 384.648 78.0173C382.213 85.9533 377.629 94.4479 369.924 99.818C360.265 106.533 348.318 106.331 340.368 102.189C332.419 98.0483 327.608 90.6504 322.615 83.6687C317.621 76.687 312.11 69.6905 303.299 66.6898C288.415 61.5714 267.199 69.6563 252.043 82.5724C236.837 95.5117 226.725 112.387 218.777 128.99C210.82 145.555 204.553 162.478 194.783 178.657C185.014 194.836 170.869 210.668 153.192 219.187C131.01 229.835 110.12 212.737 88.0034 223.647C-4.8254 269.305 -86.7317 231.071 -108.396 185.042" stroke="white" stroke-width="0.5" stroke-miterlimit="10"/>
<path d="M426.859 39.9204C426.208 33.412 415.868 32.494 407.589 37.3218C399.566 42.0333 393.998 50.4039 390.973 58.2039C388.836 63.6103 387.646 68.9198 386.213 74.1731C385.6 76.525 384.917 78.8256 384.07 81.1587C381.437 88.6982 376.853 96.6645 369.231 101.609C362.548 105.963 354.823 107.056 348.014 105.866C345.141 105.342 342.409 104.463 340.041 103.213C332.083 99.0174 326.968 91.7921 321.751 85.0699C317.461 79.5457 312.792 74.1097 306.326 70.8569C304.881 70.1009 303.352 69.4659 301.687 68.9752C286.598 64.3587 265.47 72.6404 250.335 85.7165C247.049 88.5737 243.981 91.6221 241.114 94.7871C230.925 106.163 223.519 119.307 217.448 132.303C209.698 148.879 203.585 165.835 194.026 182.028C184.481 198.048 170.635 213.776 153.159 222.271C151.269 223.168 149.394 223.893 147.532 224.446C128.949 229.874 111.123 218.864 92.7819 224.805C91.4101 225.26 90.057 225.79 88.7224 226.395C68.6845 235.842 49.2383 241.246 30.6112 243.749C-0.466474 247.866 -29.0922 243.945 -52.1392 235.134C-77.8624 225.211 -96.7883 209.098 -105.922 191.705" stroke="white" stroke-width="0.5" stroke-miterlimit="10"/>
<path d="M427.316 41.9501C426.585 36.2915 416.548 36.0751 408.202 41.2489C400.298 46.1402 394.618 54.4466 391.295 62.1426C388.99 67.5206 387.551 72.7137 385.842 77.7397C385.09 79.9791 384.338 82.2186 383.456 84.393C380.622 91.5375 376.028 98.9404 368.507 103.535C361.922 107.542 354.325 108.412 347.619 107.146C344.741 106.587 342.055 105.653 339.68 104.371C331.664 100.144 326.36 93.0815 320.912 86.5799C316.389 81.2708 311.447 76.1098 304.822 73.1134C303.337 72.4212 301.768 71.8495 300.063 71.4215C284.72 67.3238 263.679 75.7945 248.623 89.0374C245.351 91.9196 242.298 94.992 239.496 98.1574C229.412 109.609 222.148 122.761 216.166 135.788C208.569 152.395 202.76 169.309 193.254 185.58C183.981 201.415 170.339 217.117 153.052 225.544C151.174 226.475 149.301 227.197 147.442 227.747C129.017 233.219 111.313 222.423 93.2836 227.882C91.9558 228.275 90.6559 228.779 89.3233 229.381C69.7258 238.15 50.6953 243.028 32.3749 245.272C1.69673 248.968 -27.0146 245.704 -49.9698 237.858C-75.5511 229.091 -94.2898 214.384 -103.568 198.502" stroke="white" stroke-width="0.5" stroke-miterlimit="10"/>
<path d="M427.681 43.9474C426.871 39.1315 417.136 39.6102 408.672 45.1498C400.887 50.2188 395.095 58.4609 391.527 66.0303C389.044 71.3427 387.305 76.4432 385.432 81.2343C384.603 83.376 383.764 85.4807 382.804 87.5577C379.772 94.3102 375.176 101.191 367.736 105.365C361.24 108.989 353.78 109.677 347.167 108.297C344.335 107.682 341.643 106.715 339.272 105.439C331.248 101.159 325.755 94.2582 319.974 88.0219C315.271 82.9035 310.056 78.0157 303.273 75.2737C301.747 74.6449 300.139 74.1361 298.446 73.7472C282.91 70.178 261.955 78.8353 246.96 92.1686C243.702 95.0752 240.663 98.1712 237.874 101.36C227.894 112.886 220.713 126.031 214.922 139.042C207.477 155.676 201.87 172.593 192.569 188.871C183.577 204.558 170.17 220.136 153.081 228.533C151.206 229.46 149.387 230.156 147.54 230.741C129.272 236.256 111.699 225.709 93.9796 230.689C92.705 231.058 91.3977 231.523 90.0578 232.086C70.8572 240.241 52.3431 244.551 34.268 246.525C3.92726 249.788 -24.8092 247.19 -47.6217 240.278C-73.0801 232.584 -91.6136 219.346 -101.086 204.986" stroke="white" stroke-width="0.5" stroke-miterlimit="10"/>
<path d="M428.142 46.0485C427.253 42.0684 417.829 43.2727 409.238 49.1371C401.572 54.3816 395.659 62.522 391.865 70.0384C389.205 75.2852 387.219 80.2703 385.13 84.851C384.224 86.8955 383.256 88.9263 382.261 90.8467C379.03 97.2099 374.381 103.595 367.022 107.351C360.625 110.634 353.301 111.141 346.832 109.626C344.046 108.954 341.348 107.955 338.98 106.686C330.888 102.339 325.156 95.6226 319.155 89.6412C314.212 84.6988 308.785 80.0962 301.792 77.6299C300.228 77.0639 298.579 76.6174 296.847 76.2903C281.109 73.2087 260.19 82.0728 245.265 95.5306C242.021 98.461 239.047 101.557 236.221 104.791C226.284 116.376 219.254 129.562 213.603 142.578C206.362 159.215 200.955 176.133 191.809 192.438C183.087 207.939 169.925 223.429 153.042 231.83C151.221 232.73 149.363 233.483 147.56 234.006C129.458 239.6 111.946 229.252 94.5362 233.756C93.2542 234.087 91.9907 234.491 90.7039 235.028C71.9409 242.514 53.8396 246.306 36.0182 248.049C6.07449 250.898 -22.7052 248.886 -45.4681 242.984C-70.7942 236.392 -89.1321 224.573 -98.7983 211.724" stroke="white" stroke-width="0.5" stroke-miterlimit="10"/>
<path d="M428.58 48.1557C427.612 45.0043 418.489 46.8904 409.781 53.1124C402.233 58.5298 396.209 66.6049 392.171 73.9946C389.335 79.1755 387.102 84.0457 384.809 88.4539C383.774 90.4248 382.771 92.2996 381.699 94.1242C378.269 100.101 373.619 105.972 366.35 109.35C360.051 112.293 352.853 112.584 346.477 110.958C343.685 110.253 341.042 109.237 338.669 107.937C330.569 103.54 324.598 97.0069 318.317 91.2652C313.144 86.5347 307.446 82.2018 300.347 79.9633C298.743 79.4597 297.055 79.075 295.334 78.7864C279.345 76.2113 258.564 85.2333 243.717 98.8489C240.487 101.802 237.527 104.921 234.766 108.153C224.933 119.808 218.035 132.96 212.473 146.002C205.374 162.625 200.228 179.554 191.186 195.907C182.733 211.221 169.815 226.621 153.129 234.99C151.31 235.886 149.506 236.612 147.665 237.193C129.668 242.849 112.337 232.728 95.236 236.761C93.9976 237.031 92.736 237.433 91.4929 237.908C73.1152 244.754 55.4766 248.009 37.9594 249.5C8.42091 251.974 -20.4618 250.53 -43.0727 245.584C-68.2665 240.083 -86.4087 229.673 -96.2166 218.3" stroke="white" stroke-width="0.5" stroke-miterlimit="10"/>
<path d="M428.996 50.2696C427.909 47.9983 419.118 50.464 410.345 57.0168C402.906 62.5685 396.73 70.6372 392.508 77.9142C389.506 83.0659 387.017 87.7853 384.51 91.9858C383.398 93.8608 382.309 95.6038 381.16 97.3332C377.532 102.926 372.872 108.251 365.692 111.254C359.491 113.861 352.419 113.937 346.135 112.202C343.389 111.442 340.741 110.395 338.37 109.102C330.211 104.677 324.054 98.3044 317.545 92.7783C312.142 88.2582 306.225 84.1703 298.909 82.1668C297.265 81.7251 295.537 81.4018 293.768 81.1376C277.579 79.0419 256.843 88.3012 242.056 101.999C238.841 104.975 235.894 108.115 233.147 111.369C223.358 123.078 216.61 136.267 211.187 149.31C204.291 165.931 199.293 182.879 190.447 199.195C182.221 214.381 169.597 229.668 153.098 237.967C151.291 238.895 149.49 239.619 147.702 240.174C129.861 245.87 112.609 236.018 95.8575 239.525C94.6209 239.794 93.4028 240.135 92.2032 240.549C74.2604 246.736 57.0921 249.497 39.8179 250.724C10.6647 252.754 -18.2421 251.959 -40.8125 247.969C-65.8233 243.528 -83.812 234.573 -93.8209 224.65" stroke="white" stroke-width="0.5" stroke-miterlimit="10"/>
<path d="M429.405 52.5211C428.239 51.063 419.748 54.1971 410.859 61.0989C403.528 66.7825 397.251 74.8209 392.787 81.9716C389.609 87.0573 386.825 91.6855 384.105 95.6798C382.916 97.4595 381.699 99.1306 380.515 100.707C376.68 105.883 372.027 110.738 364.938 113.369C358.824 115.606 351.938 115.484 345.705 113.7C342.953 112.908 340.35 111.808 337.982 110.522C329.817 106.048 323.413 99.8217 316.635 94.569C310.994 90.2219 304.867 86.4137 297.343 84.6797C295.66 84.2994 293.945 84.0142 292.086 83.8331C275.697 82.2127 255.047 91.6465 240.329 105.459C237.129 108.457 234.196 111.618 231.514 114.87C221.828 126.644 215.161 139.818 209.887 152.897C203.141 169.535 198.394 186.453 189.701 202.788C181.744 217.787 169.311 233.003 153.059 241.246C151.306 242.147 149.507 242.867 147.731 243.456C130.046 249.19 112.924 239.586 96.479 242.629C95.2859 242.838 94.1205 243.155 92.9134 243.531C75.4043 249.065 58.645 251.321 41.6639 252.264C12.8534 253.914 -16.0445 253.666 -38.514 250.638C-63.3927 247.27 -81.1861 239.699 -91.335 231.227" stroke="white" stroke-width="0.5" stroke-miterlimit="10"/>
<path d="M429.819 54.7024C428.577 54.0495 420.376 57.8085 411.38 65.0906C404.158 70.9037 397.78 78.9105 393.075 85.9348C389.722 90.9541 386.693 95.4688 383.76 99.2582C382.435 100.93 381.193 102.484 379.932 103.967C375.951 108.743 371.246 113.118 364.236 115.345C358.219 117.252 351.468 116.957 345.317 115.03C342.611 114.184 340.002 113.053 337.629 111.739C329.405 107.24 322.815 101.173 315.76 96.1563C309.941 91.9951 303.495 88.4737 295.867 86.9618C294.144 86.6423 292.38 86.3814 290.542 86.2737C273.956 85.1243 253.342 94.7516 238.703 108.711C235.517 111.73 232.598 114.912 229.929 118.183C220.296 130.042 213.821 143.189 208.677 156.228C202.082 172.88 197.533 189.788 189.045 206.116C181.356 220.926 169.164 236.047 153.057 244.277C151.307 245.174 149.52 245.926 147.747 246.512C130.218 252.283 113.225 242.925 97.0763 245.474C95.9357 245.659 94.7536 245.903 93.5991 246.255C76.481 251.201 60.2219 252.876 43.441 253.618C15.0234 254.868 -13.9068 255.222 -36.335 253.132C-61.0306 250.804 -78.6794 244.627 -89.0182 237.615" stroke="white" stroke-width="0.5" stroke-miterlimit="10"/>
<path d="M430.271 57.0294C428.952 57.1733 421.05 61.5858 411.939 69.207C404.876 75.1247 398.347 83.1212 393.359 90.0775C389.782 95.0528 386.559 99.4319 383.415 103.018C382.013 104.596 380.695 106.057 379.348 107.411C375.171 111.813 370.464 115.691 363.534 117.517C357.613 119.097 350.987 118.593 344.928 116.562C342.267 115.662 339.662 114.538 337.283 113.195C329.051 108.651 322.217 102.73 314.894 97.9832C308.839 93.9933 302.185 90.7475 294.351 89.5006C292.59 89.2414 290.787 89.0405 288.91 88.992C272.126 88.309 251.608 98.1396 237.029 112.171C233.857 115.21 230.994 118.352 228.297 121.701C218.759 133.583 212.374 146.746 207.377 159.814C200.974 176.419 196.624 193.313 188.248 209.712C180.775 224.354 168.876 239.356 152.973 247.585C151.226 248.478 149.492 249.204 147.731 249.824C130.316 255.687 113.443 246.54 97.6502 248.612C96.502 248.761 95.3724 248.981 94.2611 249.272C77.5743 253.576 61.7217 254.757 45.242 255.257C17.2162 256.111 -11.8055 257.046 -34.0908 255.841C-58.6032 254.543 -76.1073 249.747 -86.635 244.182" stroke="white" stroke-width="0.5" stroke-miterlimit="10"/>
<path d="M430.646 59.1473C429.251 60.0802 421.635 65.1065 412.459 73.0459C405.502 79.0931 398.813 87.0489 393.643 93.8978C389.9 98.846 386.433 103.116 383.067 106.467C381.59 107.953 380.135 109.31 378.813 110.528C374.439 114.563 369.729 117.95 362.886 119.417C357.111 120.652 350.557 119.964 344.648 117.84C341.981 116.91 339.421 115.734 337.044 114.397C328.753 109.826 321.733 104.059 314.184 99.519C307.901 95.7318 301.029 92.7209 293.038 91.7132C291.228 91.4779 289.395 91.3719 287.521 91.3239C270.537 91.1019 250.05 101.126 235.538 115.272C232.43 118.311 229.53 121.497 226.896 124.844C217.408 136.815 211.212 149.958 206.302 163.05C200.048 179.676 195.894 196.568 187.719 212.967C180.511 227.43 168.859 242.382 153.138 250.544C151.393 251.432 149.671 252.191 147.953 252.75C130.69 258.651 113.942 249.741 98.441 251.329C97.345 251.455 96.2075 251.638 95.0885 251.893C78.828 255.564 63.4372 256.269 47.1942 256.515C19.5439 256.941 -9.50618 258.501 -31.7546 258.215C-56.14 257.957 -73.4017 254.48 -84.1195 250.343" stroke="white" stroke-width="0.5" stroke-miterlimit="10"/>
<path d="M431.078 59.4897C429.613 61.2512 422.26 66.8859 412.959 75.2522C406.044 81.49 399.29 89.4483 393.868 96.2216C389.944 101.14 386.226 105.329 382.651 108.539C381.094 109.944 379.55 111.182 378.15 112.318C373.612 115.954 368.848 118.932 362.07 120.013C356.38 120.932 349.988 120.01 344.108 117.788C341.482 116.797 338.91 115.583 336.532 114.243C328.168 109.613 320.951 103.959 313.113 99.6146C306.592 96.0025 299.44 93.2265 291.279 92.4486C289.427 92.2707 287.552 92.2225 285.635 92.2325C268.42 92.4647 247.977 102.723 233.512 117.111C230.411 120.192 227.518 123.42 224.892 126.809C215.477 138.889 209.356 152.143 204.571 165.324C198.501 182.059 194.533 199.062 186.491 215.592C179.481 229.995 168.093 244.936 152.534 253.118C150.848 254.021 149.116 254.746 147.356 255.364C130.211 261.339 113.561 252.601 98.3327 253.749C97.2269 253.839 96.1395 254 95.0613 254.197C79.1558 257.316 64.1804 257.475 48.2051 257.479C20.8901 257.511 -8.20781 259.604 -30.4496 260.263C-54.7095 260.977 -71.851 258.868 -82.7767 256.125" stroke="white" stroke-width="0.5" stroke-miterlimit="10"/>
<path d="M431.524 59.8595C429.929 62.4396 422.899 68.6985 413.473 77.4932C406.641 83.864 399.782 91.8828 394.117 98.6159C390.01 103.503 386.041 107.611 382.196 110.667C380.509 112.011 378.937 113.145 377.448 114.162C372.756 117.433 367.929 119.965 361.226 120.694C355.62 121.296 349.34 120.162 343.55 117.854C340.963 116.802 338.381 115.55 336.002 114.207C327.615 109.495 320.09 103.964 312.022 99.8297C305.253 96.3577 297.881 93.8308 289.55 93.2836C287.706 93.1411 285.788 93.1509 283.829 93.219C266.384 93.9073 245.943 104.458 231.506 119.018C228.413 122.14 225.527 125.411 222.96 128.82C213.626 141.044 207.579 154.41 202.92 167.68C196.984 184.547 193.193 201.624 185.293 218.322C178.532 232.641 167.308 247.616 151.961 255.796C150.274 256.701 148.55 257.463 146.84 258.059C129.815 264.108 113.212 255.566 98.2977 256.213C97.2328 256.245 96.1955 256.384 95.1075 256.546C79.5989 259.052 65.0488 258.7 49.2401 258.505C22.2607 258.141 -6.93588 260.791 -29.171 262.4C-53.2457 264.103 -70.3269 263.354 -81.4102 261.988" stroke="white" stroke-width="0.5" stroke-miterlimit="10"/>
<path d="M431.884 60.1244C430.21 63.504 423.402 70.4352 413.951 79.6155C407.212 86.1562 400.187 94.2227 394.32 100.857C389.98 105.737 385.81 109.741 381.746 112.619C379.98 113.881 378.319 114.895 376.751 115.829C371.903 118.735 367.014 120.819 360.325 121.18C354.803 121.465 348.636 120.116 342.925 117.686C340.328 116.597 337.795 115.319 335.406 113.937C326.945 109.166 319.223 103.748 310.864 99.8109C303.857 96.5152 296.255 94.2024 287.693 93.8735C285.807 93.7889 283.846 93.857 281.844 93.9833C264.168 95.1296 243.771 105.916 229.371 120.685C226.285 123.85 223.407 127.163 220.847 130.614C211.544 143.008 205.663 156.405 201.139 169.802C195.328 186.766 191.732 203.991 184.016 220.799C177.453 235.058 166.494 250.023 151.318 258.259C149.63 259.166 147.955 259.907 146.253 260.54C129.297 266.685 112.851 258.331 98.1503 258.521C97.1355 258.53 96.0792 258.598 95.0413 258.737C79.9389 260.663 65.7543 259.784 50.2135 259.346C23.5604 258.548 -5.71717 261.83 -27.9048 264.333C-51.8453 267.052 -68.816 267.646 -80.1083 267.686" stroke="white" stroke-width="0.5" stroke-miterlimit="10"/>
<path d="M432.302 60.4149C430.548 64.5971 424.004 72.1442 414.436 81.792C407.781 88.4668 400.65 96.5941 394.53 103.152C390.008 108 385.586 111.923 381.303 114.622C379.457 115.8 377.717 116.732 376.06 117.546C371.016 120.142 366.105 121.717 359.491 121.724C354.054 121.689 348.008 120.162 342.368 117.574C339.811 116.424 337.268 115.107 334.868 113.687C326.385 108.833 318.414 103.552 309.815 99.791C302.569 96.6725 294.686 94.5975 285.954 94.5011C284.025 94.4747 282.012 94.5653 279.968 94.7502C262.06 96.3563 241.707 107.379 227.302 122.415C224.224 125.622 221.404 128.954 218.801 132.471C209.571 144.974 203.774 158.52 199.366 171.97C193.741 189.045 190.33 206.38 182.747 223.32C176.383 237.518 165.699 252.508 150.625 260.75C148.987 261.636 147.27 262.437 145.567 263.071C128.739 269.327 112.382 261.112 97.9454 260.819C96.9208 260.793 95.9147 260.838 94.9178 260.919C80.1625 262.25 66.4548 260.833 51.1318 260.172C24.815 258.975 -4.511 262.797 -26.7431 266.279C-50.5584 269.982 -67.3998 271.997 -78.9105 273.412" stroke="white" stroke-width="0.5" stroke-miterlimit="10"/>
<path d="M432.73 60.7376C430.897 65.726 424.625 73.9281 414.922 83.9738C408.36 90.8197 401.054 98.9589 394.699 105.512C389.993 110.33 385.32 114.17 380.817 116.689C378.891 117.785 377.035 118.488 375.326 119.327C370.26 121.855 365.162 122.713 358.604 122.291C353.261 121.972 347.369 120.171 341.767 117.518C339.251 116.307 336.697 114.951 334.296 113.528C325.739 108.614 317.56 103.411 308.68 99.8851C301.185 96.9084 293.081 95.0854 284.177 95.2225C282.206 95.2545 280.151 95.4037 278.114 95.6249C260.025 97.6701 239.623 109.011 225.297 124.199C222.226 127.449 219.413 130.824 216.869 134.362C207.669 147.034 201.988 160.634 197.716 174.211C192.225 191.421 188.991 208.832 181.602 225.92C175.487 240.033 165.017 255.036 150.105 263.298C148.475 264.222 146.799 264.966 145.104 265.638C128.396 271.968 112.085 263.951 97.973 263.188C96.9986 263.139 95.9826 263.148 95.0267 263.171C80.6786 263.918 67.3373 261.97 52.2827 261.063C26.2512 259.487 -3.12397 263.851 -25.2997 268.271C-48.981 272.999 -65.7121 276.368 -77.3818 279.178" stroke="white" stroke-width="0.5" stroke-miterlimit="10"/>
<path d="M433.149 60.9911C431.245 66.8247 425.177 75.6344 415.408 86.1286C408.929 93.1097 401.517 101.31 394.909 107.785C390.029 112.608 385.103 116.365 380.372 118.669C378.306 119.667 376.458 120.408 374.633 121.017C369.277 122.874 364.25 123.579 357.758 122.763C352.551 122.1 346.72 120.105 341.199 117.329C338.671 116.079 336.218 114.675 333.756 113.235C325.176 108.239 316.697 103.197 307.586 99.8841C299.902 97.0634 291.507 95.4438 282.391 95.8741C280.376 95.9647 278.278 96.1727 276.199 96.4529C257.869 98.9254 237.519 110.541 223.189 125.998C220.125 129.29 217.32 132.708 214.774 136.253C205.647 149.036 200.101 162.762 195.904 176.452C190.598 193.772 187.5 211.318 180.244 228.539C174.328 242.591 164.125 257.582 149.375 265.865C147.744 266.79 146.076 267.572 144.431 268.222C127.842 274.627 111.63 266.787 97.7819 265.538C96.7977 265.453 95.832 265.439 94.8663 265.426C80.9168 265.55 68.0026 263.082 53.1569 261.915C27.453 259.901 -1.96201 264.845 -24.1828 270.252C-47.6882 275.949 -64.3504 280.738 -76.2303 284.97" stroke="white" stroke-width="0.5" stroke-miterlimit="10"/>
<path d="M433.525 61.3316C431.541 67.9773 425.696 77.4689 415.902 88.3541C409.457 95.4933 401.989 103.732 395.127 110.129C390.013 114.943 384.886 118.594 379.893 120.775C377.747 121.689 375.81 122.309 373.905 122.834C368.404 124.354 363.304 124.568 356.888 123.392C351.765 122.406 346.047 120.194 340.657 117.272C338.17 115.961 335.706 114.518 333.191 113.098C324.538 108.041 315.861 103.115 306.458 100.003C298.535 97.3619 289.908 95.9602 280.62 96.626C278.563 96.7754 276.473 97.0199 274.351 97.3594C255.789 100.297 235.441 112.21 221.19 127.818C218.133 131.153 215.336 134.614 212.848 138.179C203.752 151.131 198.323 164.912 194.252 178.692C189.081 196.145 186.161 213.766 179.098 231.134C173.382 245.122 163.394 260.124 148.857 268.404C147.276 269.309 145.607 270.091 143.91 270.766C127.391 277.268 111.336 269.619 97.7537 267.883C96.8199 267.775 95.8953 267.702 94.9198 267.653C81.328 267.21 68.8415 264.221 54.205 262.793C28.8385 260.375 -0.676212 265.887 -22.8403 272.241C-46.2204 278.933 -62.7629 285.123 -74.8532 290.784" stroke="white" stroke-width="0.5" stroke-miterlimit="10"/>
<path d="M433.955 61.5955C431.89 69.0575 426.309 79.1761 416.398 90.5369C410.036 97.8131 402.401 106.1 395.355 112.47C390.057 117.252 384.677 120.82 379.463 122.82C377.238 123.649 375.17 124.207 373.227 124.588C367.578 125.771 362.365 125.549 356.056 123.917C350.968 122.629 345.464 120.154 340.112 117.167C337.665 115.793 335.191 114.311 332.675 112.887C323.998 107.747 315.062 102.923 305.427 100.026C297.254 97.5286 288.354 96.4044 278.894 97.3066C276.793 97.5152 274.661 97.819 272.496 98.2179C253.7 101.623 233.395 113.777 219.13 129.621C216.081 132.999 213.291 136.503 210.81 140.112C201.796 153.213 196.492 167.086 192.497 180.98C187.451 198.534 184.727 216.305 177.849 233.786C172.332 247.712 162.619 262.741 148.244 271.041C146.662 271.948 145.001 272.769 143.354 273.421C126.954 280 110.946 272.551 97.6795 270.303C96.7868 270.135 95.8524 270.026 94.9365 269.99C81.7438 268.92 69.6851 265.407 55.2667 263.753C30.2277 260.892 0.662658 266.954 -21.5476 274.303C-44.7525 281.973 -61.2268 289.594 -73.4776 296.666" stroke="white" stroke-width="0.5" stroke-miterlimit="10"/>
<path d="M434.365 61.8574C432.169 70.161 426.852 80.9083 416.865 92.6864C410.545 100.158 402.846 108.448 395.545 114.739C390.064 119.49 384.43 122.974 378.995 124.791C376.69 125.536 374.542 126.008 372.51 126.267C366.655 127.098 361.43 126.393 355.196 124.399C350.202 122.822 344.802 120.092 339.531 116.98C337.073 115.567 334.639 114.022 332.122 112.596C323.371 107.394 314.235 102.687 304.308 99.9931C295.894 97.6759 286.762 96.7714 277.079 97.9337C274.936 98.2016 272.761 98.5649 270.543 98.9872C251.515 102.861 231.201 115.279 217.034 131.349C213.992 134.77 211.26 138.295 208.736 141.969C199.744 155.206 194.566 169.169 190.748 183.133C185.888 200.798 183.291 218.668 176.547 236.284C171.28 250.124 161.783 265.164 147.571 273.485C145.997 274.43 144.386 275.229 142.738 275.883C126.467 282.573 110.506 275.327 97.5559 272.565C96.6626 272.396 95.7694 272.228 94.8946 272.133C82.0603 270.492 70.4208 266.417 56.2721 264.513C31.5708 261.245 1.95588 267.857 -20.2493 276.182C-43.2784 284.835 -59.6843 293.891 -72.1466 302.403" stroke="white" stroke-width="0.5" stroke-miterlimit="10"/>
<path d="M434.732 62.1286C432.455 71.2549 427.352 82.6567 417.298 94.8908C411.062 102.501 403.195 110.839 395.699 117.065C389.983 121.807 384.105 125.243 378.491 126.817C376.055 127.5 373.869 127.827 371.757 128C365.755 128.491 360.457 127.288 354.289 124.893C349.38 122.99 344.093 120.039 338.911 116.839C336.485 115.327 334.059 113.816 331.521 112.313C322.696 107.05 313.31 102.483 303.141 99.9693C294.486 97.8334 285.122 97.1494 275.257 98.5136C273.062 98.8046 270.843 99.2277 268.643 99.7235C249.371 104.032 229.119 116.765 214.928 133.036C211.893 136.5 209.169 140.068 206.704 143.764C197.793 157.15 192.69 171.228 188.998 185.284C184.273 203.086 181.854 221.034 175.304 238.799C170.237 252.577 161.007 267.606 146.957 275.948C145.382 276.894 143.771 277.695 142.131 278.387C125.979 285.153 110.115 278.087 97.4315 274.83C96.5794 274.603 95.6856 274.434 94.8521 274.279C82.418 272.006 71.2074 267.403 57.2774 265.271C32.9045 261.558 3.18809 268.746 -19.0033 278.088C-41.908 287.748 -58.195 298.225 -70.8185 308.16" stroke="white" stroke-width="0.5" stroke-miterlimit="10"/>
<path d="M435.148 62.3586C432.79 72.3104 427.91 84.4055 417.831 97.0378C411.628 104.809 403.705 113.186 395.964 119.369C390.063 124.08 383.931 127.431 378.096 128.821C375.579 129.418 373.313 129.659 371.112 129.709C364.912 129.881 359.551 128.215 353.44 125.381C348.617 123.15 343.502 119.992 338.341 116.653C335.956 115.079 333.519 113.527 330.98 112.022C322.131 106.674 312.494 102.248 302.083 99.9152C293.177 97.9248 283.59 97.4986 273.501 99.1249C271.263 99.4757 269.052 99.9359 266.758 100.515C247.303 105.273 226.992 118.295 212.837 134.781C209.81 138.287 207.093 141.899 204.636 145.639C195.807 159.174 190.82 173.308 187.214 187.516C182.675 205.431 180.392 223.515 174.027 241.393C169.161 255.108 160.197 270.125 146.259 278.511C144.735 279.436 143.131 280.275 141.49 280.968C125.408 287.834 109.65 280.984 97.2837 277.21C96.4312 276.982 95.5786 276.753 94.7863 276.539C82.7623 273.667 71.921 268.52 58.21 266.159C34.1754 262.036 4.39915 269.743 -17.7785 280.106C-40.5679 290.742 -56.7266 302.68 -69.5626 314.066" stroke="white" stroke-width="0.5" stroke-miterlimit="10"/>
<path d="M435.588 62.6272C433.158 73.4452 428.483 86.1639 418.336 99.2559C412.217 107.166 404.136 115.628 396.139 121.733C390.053 126.411 383.667 129.678 377.56 130.905C374.963 131.417 372.566 131.594 370.326 131.498C363.918 131.313 358.545 129.159 352.509 125.958C347.781 123.433 342.77 120.018 337.69 116.552C335.293 114.938 332.897 113.324 330.357 111.815C321.433 106.405 311.587 102.06 300.891 99.9687C291.743 98.1608 281.862 97.9433 271.66 99.8236C269.379 100.234 267.125 100.755 264.839 101.371C245.14 106.567 224.88 119.871 210.772 136.609C207.803 140.137 205.042 143.816 202.643 147.577C193.836 161.25 188.984 175.513 185.495 189.777C181.082 207.793 178.987 225.993 172.817 244.022C168.141 257.637 159.403 272.704 145.688 281.123C144.162 282.051 142.558 282.891 140.976 283.599C125.013 290.542 109.302 283.897 97.202 279.625C96.3907 279.336 95.5887 279.085 94.7356 278.856C83.071 275.407 72.7012 269.668 59.2093 267.077C35.5035 262.505 5.62485 270.792 -16.5396 282.18C-39.1632 293.774 -55.1848 307.217 -68.2943 320.047" stroke="white" stroke-width="0.5" stroke-miterlimit="10"/>
<path d="M435.997 62.8441C433.485 74.4939 429.024 87.8741 418.81 101.426C412.724 109.498 404.577 117.963 396.344 124.06C390.022 128.73 383.442 131.924 377.104 132.929C374.375 133.377 371.94 133.408 369.62 133.224C363.013 132.718 357.568 130.06 351.65 126.431C347.007 123.576 342.11 119.938 337.12 116.383C334.764 114.706 332.356 113.052 329.815 111.54C320.868 106.046 310.77 101.843 299.78 99.9567C290.39 98.3323 280.276 98.338 269.85 100.482C267.526 100.953 265.229 101.534 262.89 102.174C242.956 107.846 222.697 121.455 208.617 138.372C205.655 141.943 202.902 145.665 200.511 149.47C191.786 163.293 187 177.635 183.647 192.027C179.421 210.157 177.463 228.493 171.426 246.658C166.952 260.208 158.491 275.3 144.93 283.703C143.403 284.632 141.857 285.488 140.215 286.184C124.372 293.204 108.768 286.778 96.9347 282.006C96.1648 281.658 95.353 281.369 94.5505 281.117C83.2879 277.028 73.2976 270.778 60.0765 267.934C36.7098 262.948 6.77118 271.758 -15.3796 284.175C-37.8785 296.789 -53.7811 311.667 -67.0529 325.937" stroke="white" stroke-width="0.5" stroke-miterlimit="10"/>
<path d="M436.376 63.1258C433.783 75.6118 429.485 89.6804 419.246 103.636C413.252 111.885 404.988 120.376 396.55 126.371C390.043 131.008 383.208 134.116 376.657 134.972C373.848 135.333 371.332 135.277 368.923 134.969C362.168 134.117 356.66 130.989 350.808 126.953C346.251 123.766 341.518 119.882 336.608 116.199C334.293 114.459 331.884 112.801 329.332 111.249C320.31 105.693 309.96 101.631 298.726 99.9288C289.094 98.4884 278.746 98.7182 268.095 101.128C265.727 101.659 263.387 102.301 261.005 103.002C240.835 109.152 220.619 123.007 206.575 140.142C203.62 143.757 200.925 147.501 198.491 151.373C189.787 165.334 185.188 179.783 181.962 194.27C177.871 212.538 176.041 230.976 170.25 249.271C165.976 262.756 157.783 277.838 144.385 286.262C142.917 287.207 141.362 288.028 139.727 288.761C124.013 295.896 108.455 289.675 96.9314 284.343C96.1609 283.994 95.3905 283.644 94.6293 283.332C83.727 278.66 74.2094 271.814 61.2078 268.739C38.2218 263.277 8.12896 272.695 -14.0091 286.146C-36.3933 299.748 -52.1682 316.107 -65.6542 331.846" stroke="white" stroke-width="0.5" stroke-miterlimit="10"/>
<path d="M436.811 63.3776C434.085 76.7267 430.052 91.4411 419.796 105.84C413.784 114.276 405.454 122.77 396.768 128.721C390.076 133.326 382.985 136.349 376.212 137.017C373.322 137.291 370.674 137.171 368.226 136.714C361.264 135.501 355.692 131.902 349.957 127.434C345.435 123.937 340.867 119.805 336.047 116.031C333.772 114.227 331.353 112.529 328.799 110.974C319.753 105.331 309.15 101.412 297.673 99.8937C287.788 98.6012 277.164 99.1157 266.389 101.746C263.978 102.338 261.585 103.003 259.22 103.779C238.804 110.373 218.588 124.537 204.59 141.928C201.642 145.587 198.955 149.375 196.579 153.269C187.957 167.383 183.423 181.913 180.325 196.495C176.369 214.902 174.718 233.421 169.122 251.869C165.049 265.291 157.124 280.362 143.888 288.808C142.42 289.755 140.872 290.614 139.288 291.326C123.642 298.561 108.182 292.525 96.9854 286.702C96.2564 286.292 95.4855 285.942 94.7657 285.569C84.2659 280.253 75.1795 272.867 62.3465 269.582C39.6994 263.703 9.49348 273.672 -12.5812 288.139C-34.8511 302.734 -50.4988 320.579 -64.1485 337.772" stroke="white" stroke-width="0.5" stroke-miterlimit="10"/>
<path d="M437.216 63.5594C434.408 77.7507 430.54 93.1578 420.266 107.999C414.338 116.576 405.891 125.096 396.967 131.04C390.038 135.635 382.752 138.585 375.747 139.028C372.726 139.239 370.039 138.97 367.511 138.425C360.349 136.886 354.756 132.754 349.088 127.876C344.652 124.044 340.197 119.687 335.459 115.786C333.173 113.941 330.794 112.18 328.23 110.584C319.109 104.879 308.304 101.08 296.531 99.7696C286.404 98.6627 275.545 99.4032 264.545 102.3C262.142 102.93 259.705 103.657 257.246 104.517C236.594 111.593 216.429 126.042 202.458 143.614C199.518 147.317 196.838 151.149 194.469 155.088C185.879 169.377 181.523 183.978 178.5 198.676C174.723 217.161 173.208 235.818 167.757 254.441C163.885 267.798 156.177 282.88 143.156 291.324C141.687 292.273 140.19 293.11 138.562 293.884C123.037 301.197 107.632 295.406 96.7454 289.017C96.0159 288.607 95.2864 288.196 94.6081 287.763C84.4186 281.882 75.8574 273.873 63.2353 270.318C40.9607 263.923 10.6005 274.505 -11.4521 290.049C-33.6071 305.64 -49.1269 324.976 -62.9915 343.649" stroke="white" stroke-width="0.5" stroke-miterlimit="10"/>
<path d="M437.599 63.799C434.717 78.8742 431.054 94.9187 420.712 110.229C414.817 118.972 406.262 127.555 397.132 133.396C390.016 137.958 382.423 140.844 375.195 141.098C372.093 141.221 369.325 140.864 366.707 140.192C359.336 138.29 353.689 133.719 348.139 128.405C343.798 124.274 339.499 119.631 334.79 115.624C332.545 113.716 330.155 111.913 327.589 110.314C318.444 104.522 307.326 100.853 295.317 99.7652C284.946 98.8444 273.852 99.8118 262.668 102.917C260.221 103.608 257.741 104.396 255.289 105.295C234.381 112.781 214.225 127.578 200.29 145.371C197.357 149.118 194.684 152.996 192.374 156.956C183.856 171.363 179.576 186.082 176.69 200.912C173.048 219.538 171.671 238.336 166.457 257.053C162.735 270.369 155.356 285.455 142.447 293.943C140.977 294.894 139.488 295.77 137.911 296.522C122.505 303.914 107.146 298.331 96.5878 291.449C95.8998 290.977 95.221 290.543 94.533 290.071C84.7562 283.577 76.5671 275.011 64.2162 271.198C42.2301 264.405 11.8071 275.52 -10.243 292.074C-32.2839 308.666 -47.6766 329.501 -61.7571 349.662" stroke="white" stroke-width="0.5" stroke-miterlimit="10"/>
<path d="M438.017 64.0064C435.053 79.9315 431.554 96.6753 421.236 112.373C415.374 121.281 406.701 129.891 397.322 135.687C390.012 140.18 382.171 143.016 374.72 143.08C371.536 143.115 368.637 142.692 365.98 141.871C358.409 139.64 352.689 134.555 347.257 128.804C342.951 124.359 338.817 119.465 334.199 115.366C331.994 113.394 329.603 111.587 327.026 109.947C317.806 104.092 306.485 100.544 294.18 99.6657C283.564 98.9318 272.183 100.15 260.824 103.502C258.334 104.254 255.81 105.104 253.306 106.027C232.159 113.999 212.045 129.047 198.156 147.098C195.231 150.89 192.565 154.812 190.263 158.818C181.775 173.402 177.621 188.216 174.854 203.104C171.399 221.847 170.099 240.772 165.132 259.62C161.603 272.833 154.502 287.946 141.757 296.456C140.346 297.422 138.846 298.263 137.277 299.053C121.991 306.525 106.636 301.211 96.44 293.736C95.7515 293.263 95.105 292.73 94.4678 292.235C85.0952 285.088 77.3392 275.976 65.2087 271.928C43.5628 264.713 12.9747 276.408 -8.96109 293.967C-30.9388 311.587 -46.153 333.903 -60.3893 355.572" stroke="white" stroke-width="0.5" stroke-miterlimit="10"/>
<path d="M438.445 64.2126C435.399 80.9903 432.105 98.3753 421.729 114.582C411.352 130.788 391.802 145.439 374.273 145.138C354.228 144.816 346.056 126.746 333.636 115.177C316.697 99.4551 287.737 95.1903 259.069 104.173C230.4 113.155 202.88 135.163 188.239 160.769C169.232 194.004 172.537 228.188 163.906 262.312C160.209 276.947 152.156 294.003 136.692 301.73C121.484 309.341 106.269 304.155 96.3508 296.205C86.4238 288.217 78.9441 277.473 66.2105 272.859C44.8961 265.183 14.1942 277.437 -7.72034 296.088C-29.5836 314.715 -44.6704 338.54 -59.1232 361.708" stroke="white" stroke-width="0.5" stroke-miterlimit="10"/>
</svg>
