<svg width="18" height="11" viewBox="0 0 18 11" fill="none" xmlns="http://www.w3.org/2000/svg">
<path d="M15.2513 0.5C14.1596 0.5 13.2763 1.34167 13.1846 2.41667C11.618 2 10.818 0.916667 9.0013 0.916667C7.1763 0.916667 6.38464 2 4.81797 2.41667C4.7263 1.35 3.84297 0.5 2.7513 0.5C1.6013 0.5 0.667969 1.43333 0.667969 2.58333V3C0.667969 8 3.66797 9.50833 6.1013 9.65C6.94297 10.1833 7.93464 10.5 9.0013 10.5C10.068 10.5 11.0596 10.1833 11.9013 9.65C14.3346 9.50833 17.3346 8 17.3346 3V2.58333C17.3346 1.43333 16.4013 0.5 15.2513 0.5ZM1.91797 3V2.58333C1.91797 2.125 2.29297 1.75 2.7513 1.75C3.20964 1.75 3.58464 2.125 3.58464 2.58333V5.08333C3.58464 6.15 3.9013 7.14167 4.4263 7.98333C3.15964 7.39167 1.91797 6.04167 1.91797 3ZM16.0846 3C16.0846 6.04167 14.843 7.39167 13.5763 7.98333C14.1096 7.14167 14.418 6.15 14.418 5.08333V2.58333C14.418 2.125 14.793 1.75 15.2513 1.75C15.7096 1.75 16.0846 2.125 16.0846 2.58333V3ZM7.90964 4.23333C7.54297 4.45 7.10964 4.7 6.5013 4.86667V4C6.9013 3.85833 7.2013 3.68333 7.48464 3.51667C7.93464 3.25 8.35964 3 9.0013 3C9.64297 3 10.0596 3.25 10.5013 3.51667C10.7846 3.68333 11.093 3.86667 11.5013 4.00833V4.875C10.8763 4.7 10.4513 4.45 10.0763 4.225C9.69297 4 9.40964 3.83333 9.0013 3.83333C8.59297 3.83333 8.3013 4 7.90964 4.23333Z" fill="#98774A"/>
</svg>
