<svg width="1440" height="653" viewBox="0 0 1440 653" fill="none" xmlns="http://www.w3.org/2000/svg">
<path d="M1580.8 91.5968C1577.96 35.9726 1496.67 -0.614975 1423.9 21.0786C1372.07 36.6205 1334.14 73.5496 1302.04 109.12C1271.25 143.211 1241.62 178.594 1201.73 207.12C1161.84 235.645 1108.59 256.796 1058.89 252.991C957.725 245.369 924.625 145.911 828.531 126.081C750.129 109.942 657.289 154.816 605.288 210.91C553.286 267.004 530.153 332.776 498.258 395.374C466.362 457.972 419.802 523.002 342.059 557.87C270.334 590.084 185.857 589.91 111.755 578.3C-65.1517 550.451 -179.149 571.218 -249.603 448.893" stroke="white" stroke-width="0.2" stroke-miterlimit="10"/>
<path d="M1580.11 88.681C1578.95 64.2776 1561.63 43.8335 1537.24 30.9313C1506.32 14.4891 1463.99 9.27157 1424.32 21.8316C1387.86 33.3834 1358.76 55.7015 1333.36 80.5999C1323.61 90.2467 1314.37 100.253 1305.48 110.16C1293.69 123.352 1281.93 136.66 1269.5 149.657C1249.96 170.082 1229.1 189.379 1204.54 206.096C1195.51 212.315 1185.76 218.11 1175.45 223.317C1141.01 240.895 1101.43 251.816 1063.74 248.422C1054.74 247.675 1046.43 245.992 1038.38 243.865C1000.76 233.62 972.957 210.105 944.691 186.346C912.689 159.268 880.327 132.29 833.829 123.625C816.85 120.358 799.197 120.01 781.486 122.04C717.933 129.138 653.519 166.168 613.372 209.922C607.207 216.592 601.471 223.393 596.165 230.324C556.305 281.453 535.084 338.746 506.853 393.5C480.34 444.922 443.405 497.977 387.469 534.035C375.733 541.622 363.144 548.325 349.917 554.211C278.454 585.359 195.179 583.362 120.989 573.392C-60.2185 548.717 -181.027 565.027 -251.905 441.95" stroke="white" stroke-width="0.2" stroke-miterlimit="10"/>
<path d="M1579.39 85.651C1578.04 61.2973 1559.93 41.4454 1535.54 29.166C1504.75 13.8053 1463.09 9.52031 1424.71 22.4703C1389.14 34.3968 1361.04 56.8107 1336.4 81.6252C1326.83 91.2223 1317.77 101.179 1309.06 111.036C1297.27 124.229 1285.51 137.536 1273.01 150.304C1253.19 170.435 1231.94 189.094 1207.49 204.909C1198.36 210.784 1188.72 216.3 1178.7 221.178C1144.73 237.755 1105.99 247.576 1069.13 243.704C1060.28 242.793 1052.15 241.06 1044.27 238.884C1007.31 228.211 979.719 204.761 951.558 181.345C919.3 154.711 886.137 128.948 839.703 121.135C822.648 118.262 805.244 118.094 787.602 120.352C724.653 128.154 661.423 165.23 621.635 208.885C615.65 215.506 609.915 222.306 604.609 229.237C565.289 280.217 543.963 337.166 515.592 391.461C488.83 442.704 451.361 495.285 395.252 530.77C383.481 538.242 371.037 544.781 357.526 550.373C286.324 580.455 203.891 576.734 129.939 568.189C-55.895 546.903 -183.19 558.543 -254.492 434.712" stroke="white" stroke-width="0.2" stroke-miterlimit="10"/>
<path d="M1578.7 82.7348C1577.39 58.4957 1558.41 39.0066 1533.9 27.6291C1503.03 13.2848 1462.41 9.83314 1425.1 23.1082C1390.42 35.4094 1363.33 57.919 1339.22 82.5845C1329.87 92.2467 1320.99 102.154 1312.28 112.011C1300.67 125.154 1288.88 138.346 1276.3 150.885C1256.38 170.672 1234.74 188.693 1210.23 203.656C1201.21 209.252 1191.65 214.374 1181.52 218.908C1147.99 234.37 1109.94 243.254 1074.06 238.741C1065.53 237.616 1057.4 235.883 1049.71 233.657C1013.42 222.671 986.196 199.122 957.779 176.149C925.266 149.959 891.267 125.296 845.111 118.4C828.161 115.871 810.862 116.047 793.434 118.37C731.123 126.989 669.077 164.112 629.829 207.617C623.844 214.238 618.288 220.99 612.982 227.92C573.987 278.686 552.771 335.356 524.297 389.308C497.251 440.256 459.497 492.543 403.144 527.225C391.304 534.468 378.825 540.892 365.459 546.32C294.518 575.335 213.108 569.842 139.247 562.887C-51.0671 544.825 -185.174 552.007 -256.574 427.21" stroke="white" stroke-width="0.2" stroke-miterlimit="10"/>
<path d="M1578.01 79.8194C1576.7 55.5803 1556.92 36.6833 1532.41 25.9286C1501.64 12.5512 1461.9 10.0971 1425.67 23.6972C1392.06 36.3234 1365.76 58.8638 1342.41 83.4454C1333.24 93.058 1324.56 103.03 1316 112.723C1304.57 125.816 1292.78 139.009 1279.96 151.368C1259.78 170.975 1237.87 188.078 1213.33 202.304C1204.2 207.556 1194.75 212.4 1184.91 216.605C1151.65 231.001 1114.65 238.849 1079.6 233.859C1071.25 232.684 1063.26 230.787 1055.93 228.462C1020.29 217.048 993.428 193.399 964.97 170.935C932.167 145.073 897.581 121.69 851.309 115.696C834.463 113.511 817.233 113.916 799.91 116.583C738.202 125.906 677.16 163.124 638.631 206.431C632.826 213.003 627.271 219.754 621.964 226.684C583.509 277.302 562.334 333.463 533.396 387.17C506.065 437.824 467.813 489.752 411.286 523.86C399.411 530.989 386.862 537.184 373.641 542.447C302.928 570.282 222.428 563.295 148.771 557.65C-46.5644 542.961 -186.978 545.423 -258.766 419.987" stroke="white" stroke-width="0.2" stroke-miterlimit="10"/>
<path d="M1577.14 76.9528C1575.68 52.878 1555.26 34.4089 1530.59 24.4414C1499.74 12.0804 1460.89 10.6238 1425.73 24.549C1393.02 37.5499 1367.72 60.186 1344.91 84.6187C1336.1 94.132 1327.43 104.104 1319.08 113.862C1307.65 126.955 1295.82 140.033 1282.97 152.278C1262.68 171.541 1240.38 188.006 1215.78 201.379C1206.76 206.353 1197.21 210.852 1187.48 214.779C1154.66 228.058 1118.53 234.922 1084.27 229.339C1076.07 228 1068.26 226.053 1061.07 223.564C1026.09 211.722 999.616 188.089 971.083 166.018C938.024 140.599 902.637 118.431 856.428 113.29C839.687 111.448 822.527 112.082 805.453 114.93C744.563 125.02 684.525 162.334 646.536 205.492C640.731 212.064 635.355 218.765 630.194 225.532C592.279 276 571 331.818 541.956 385.18C514.377 435.655 475.77 487.059 419.07 520.594C407.16 527.608 394.576 533.689 381.286 538.723C310.799 565.377 231.176 556.781 157.791 552.676C-42.1703 541.376 -188.89 539.117 -260.922 412.879" stroke="white" stroke-width="0.2" stroke-miterlimit="10"/>
<path d="M1576.45 74.0372C1574.99 49.9624 1553.74 31.9708 1528.96 22.9051C1498.24 11.6256 1460.21 10.9373 1426.15 25.3021C1394.34 38.6777 1370 61.2949 1347.98 85.7584C1339.39 95.3367 1330.89 105.259 1322.51 114.902C1311.26 127.946 1299.44 141.024 1286.47 152.925C1265.91 171.893 1243.4 187.671 1218.73 200.192C1209.61 204.821 1200.35 208.992 1190.73 212.64C1158.35 224.804 1123.09 230.681 1089.48 224.671C1081.46 223.282 1073.98 221.121 1066.79 218.632C1032.64 206.312 1006.38 182.744 977.554 161.002C944.205 135.912 908.197 114.91 862.086 110.735C845.449 109.237 828.358 110.101 811.354 113.177C751.068 123.971 692.213 161.331 654.764 204.34C648.959 210.912 643.583 217.613 638.602 224.33C601.012 274.584 579.843 330.123 550.661 383.027C522.797 433.207 483.872 484.202 426.782 517.1C414.837 523.999 402.364 529.801 389.004 534.605C318.779 560.193 240.033 549.989 166.85 547.195C-38.0968 539.383 -191.124 532.403 -263.399 405.362" stroke="white" stroke-width="0.2" stroke-miterlimit="10"/>
<path d="M1575.76 71.1213C1574.34 47.1611 1552.26 29.647 1527.29 21.2538C1496.49 10.9908 1459.52 11.2504 1426.58 26.0549C1395.84 39.7556 1372.51 62.4685 1350.85 86.8327C1342.43 96.3613 1334.12 106.234 1325.95 115.942C1314.7 128.986 1303.02 141.9 1289.84 153.735C1269.17 172.36 1246.09 187.549 1221.54 199.168C1212.53 203.519 1203.16 207.346 1193.62 210.599C1161.68 221.648 1127.29 226.54 1094.48 219.937C1086.6 218.384 1079.3 216.173 1072.29 213.635C1038.79 200.887 1012.89 177.22 984.028 155.986C950.423 131.339 913.614 111.552 867.567 108.229C850.999 106.96 834.013 108.168 817.258 111.424C757.61 123.036 699.939 160.442 662.85 203.352C657.225 209.874 651.849 216.575 646.868 223.292C609.818 273.398 588.544 328.593 559.223 381.038C531.109 431.038 491.65 481.56 434.567 513.834C422.587 520.618 410.045 526.191 396.83 530.831C326.866 555.353 248.817 543.59 176.052 542.172C-34.0265 538.011 -193.035 526.097 -265.734 398.303" stroke="white" stroke-width="0.2" stroke-miterlimit="10"/>
<path d="M1575.07 68.2058C1573.5 44.4099 1550.74 27.209 1525.83 19.668C1495.13 10.3717 1458.87 11.6786 1427 26.8082C1397.19 40.9981 1374.79 63.5775 1353.89 87.8578C1345.65 97.3368 1337.55 107.274 1329.53 116.818C1318.46 129.812 1306.56 142.661 1293.35 154.382C1272.4 172.713 1249.08 187.099 1224.5 197.981C1215.56 201.938 1206.3 205.486 1196.87 208.461C1165.38 218.393 1131.68 222.349 1099.84 215.104C1092.29 213.337 1084.99 211.127 1078.12 208.424C1045.27 195.248 1019.59 171.646 990.645 150.806C956.751 126.487 919.32 107.866 873.157 105.445C856.514 104.57 839.777 105.957 823.272 109.393C764.227 121.708 707.74 159.16 671.19 201.921C665.565 208.443 660.369 215.095 655.388 221.812C618.663 271.703 597.5 326.619 567.894 378.77C539.496 428.476 499.718 478.589 442.281 510.34C430.266 517.009 417.689 522.467 404.585 526.828C334.847 550.17 257.565 537.076 184.968 536.855C-30.2419 536.346 -195.232 519.497 -268.174 390.901" stroke="white" stroke-width="0.2" stroke-miterlimit="10"/>
<path d="M1574.38 65.2896C1572.81 41.4937 1549.43 24.8353 1524.19 18.1311C1493.59 9.80165 1458.19 11.9914 1427.42 27.5607C1398.5 42.1253 1377.11 64.8005 1356.78 89.0464C1348.76 98.5905 1341.02 108.429 1332.82 118.022C1321.78 131.131 1310.03 143.816 1296.72 155.193C1275.48 173.229 1251.95 186.927 1227.49 196.907C1218.48 200.635 1209.3 203.789 1199.98 206.485C1168.74 215.352 1136.09 218.272 1105.09 210.55C1097.71 208.733 1090.56 206.359 1084.05 203.556C1051.85 189.953 1026.56 166.366 997.545 145.92C963.395 122.044 925.163 104.637 879.063 103.069C862.525 102.538 845.857 104.154 829.457 107.934C771.05 121.067 715.747 158.566 679.737 201.177C674.292 207.65 669.096 214.302 664.115 221.018C627.929 270.761 606.662 325.333 576.917 377.026C548.415 426.388 507.958 476.19 450.312 507.253C438.262 513.808 425.796 518.987 412.476 523.283C343 545.558 266.449 531.021 194.235 532.06C-26.1056 535.204 -197.257 513.47 -270.443 384.072" stroke="white" stroke-width="0.2" stroke-miterlimit="10"/>
<path d="M1573.69 62.3736C1572.16 38.6923 1547.95 22.5114 1522.53 16.4797C1491.88 9.28143 1457.5 12.3045 1427.81 28.1988C1399.79 43.1381 1379.36 65.7944 1359.79 89.9564C1351.95 99.4508 1344.39 109.239 1336.37 118.784C1325.51 131.843 1313.73 144.412 1300.19 155.724C1278.89 173.531 1254.93 186.477 1230.41 195.605C1221.47 198.939 1212.22 201.864 1203.19 204.231C1172.43 212.097 1140.62 213.916 1110.41 205.602C1103.18 203.621 1096.39 201.148 1089.88 198.345C1058.33 184.314 1033.43 160.742 1004.16 140.739C969.758 117.307 930.87 100.951 884.869 100.349C868.434 100.162 851.837 102.008 835.685 105.967C777.882 119.804 723.762 157.348 688.293 199.811C682.847 206.283 677.831 212.886 673.03 219.553C637.349 269.032 616.013 323.374 586.163 374.723C557.412 423.905 516.636 473.299 458.781 503.674C446.662 510 434.161 515.064 420.952 519.082C351.737 540.291 275.918 524.309 204.086 526.609C-21.6759 533.734 -198.554 506.622 -272.128 376.585" stroke="white" stroke-width="0.2" stroke-miterlimit="10"/>
<path d="M1573 59.4578C1571.29 35.8262 1546.43 20.0731 1520.89 14.9432C1490.34 8.71175 1456.67 12.782 1428.06 29.0013C1401.1 44.2657 1381.5 67.0673 1362.47 91.0805C1355.02 100.59 1347.46 110.379 1339.44 119.923C1328.76 132.932 1316.8 145.552 1303.2 156.635C1281.61 174.147 1257.44 186.405 1232.85 194.68C1223.85 197.785 1214.86 200.267 1205.72 202.29C1175.4 209.04 1144.43 209.76 1114.9 201.132C1107.85 199.102 1101.2 196.464 1094.84 193.497C1064.12 178.988 1039.44 155.482 1010.09 135.872C975.398 112.768 935.924 97.6924 889.806 97.9921C873.476 98.1492 856.948 100.224 840.866 104.413C783.701 119.067 730.765 156.658 695.835 198.972C690.57 205.395 685.554 211.997 680.753 218.664C645.432 268.044 624.35 321.943 594.182 372.883C565.146 421.771 523.871 470.805 465.808 500.493C453.654 506.703 441.118 511.653 428.019 515.392C359.031 535.42 283.799 518.158 212.494 521.555C-18.5435 532.497 -201.437 500.335 -275.075 369.446" stroke="white" stroke-width="0.2" stroke-miterlimit="10"/>
<path d="M1572.31 56.5422C1570.63 33.0252 1544.94 17.7497 1519.4 13.2427C1488.94 7.97802 1456.17 13.0458 1428.63 29.5902C1402.56 45.2293 1384.12 67.9624 1365.65 91.9412C1358.39 101.401 1351.04 111.255 1343.16 120.635C1332.49 133.644 1320.67 146.099 1307 156.953C1285.3 174.121 1260.75 185.741 1236.1 193.164C1227.17 195.875 1218.14 198.243 1209.26 199.823C1179.39 205.457 1149.1 205.24 1120.55 195.971C1113.65 193.776 1107.18 191.088 1101 188.072C1070.92 173.136 1046.42 149.58 1017.04 130.478C982.086 107.818 941.775 93.842 895.756 95.1085C879.495 95.4949 863.072 97.9141 847.24 102.282C790.678 117.64 738.926 155.277 704.535 197.442C699.27 203.864 694.254 210.467 689.633 217.084C654.852 266.315 633.631 319.756 603.213 370.516C573.893 419.11 532.299 467.735 474.062 496.849C461.873 502.945 449.233 507.551 436.314 511.24C367.692 530.546 293.121 511.611 222.165 516.154C-14.2596 531.191 -202.88 493.652 -276.941 362.01" stroke="white" stroke-width="0.2" stroke-miterlimit="10"/>
<path d="M1571.62 53.6262C1569.94 30.1093 1543.6 15.2616 1517.76 11.706C1487.41 7.40821 1455.52 13.4735 1429.05 30.343C1403.92 46.4714 1386.44 69.1856 1368.55 93.1302C1361.5 102.655 1354.3 112.345 1346.63 121.789C1336.14 134.749 1324.32 147.204 1310.4 157.878C1288.42 174.752 1263.49 185.111 1238.98 192.37C1230.2 194.917 1221.21 196.776 1212.26 198.127C1182.82 202.645 1153.41 201.443 1125.69 191.696C1119.11 189.287 1112.64 186.599 1106.82 183.484C1077.4 168.12 1053.29 144.579 1023.83 125.871C988.621 103.654 947.689 90.8434 901.554 93.0117C885.398 93.742 869.078 96.5052 853.316 101.103C797.392 117.278 746.824 154.961 712.793 197.027C707.528 203.449 702.692 210.002 698.07 216.62C663.614 265.636 642.504 318.798 611.947 369.1C582.377 417.514 540.25 465.665 481.838 494.206C469.615 500.188 457.12 504.629 443.951 508.138C375.486 526.035 301.607 506.163 231.143 511.689C-10.6677 530.821 -205.014 487.904 -279.318 355.459" stroke="white" stroke-width="0.2" stroke-miterlimit="10"/>
<path d="M1570.93 50.7108C1569.11 27.3581 1542.12 12.9382 1516.13 10.1699C1485.9 6.95352 1454.65 13.8368 1429.29 31.1459C1405.05 47.649 1388.54 70.3443 1371.41 94.205C1364.54 103.68 1357.55 113.435 1349.85 122.765C1339.36 135.725 1327.51 148.065 1313.55 158.624C1291.47 175.155 1266.28 185.333 1241.57 191.282C1232.65 193.37 1223.81 195.065 1215.15 196.087C1186.19 199.604 1157.61 197.302 1130.69 186.963C1124.29 184.504 1118.14 181.603 1112.32 178.487C1083.55 162.695 1059.84 139.17 1030.12 120.905C994.623 99.0162 953.07 87.3713 907.032 90.5065C890.981 91.5807 874.731 94.5732 859.218 99.3504C803.932 116.344 754.333 154.008 721.057 195.99C715.971 202.363 711.135 208.915 706.694 215.483C672.778 264.351 651.563 317.169 620.867 367.012C591.013 415.132 548.566 462.874 489.766 490.777C477.508 496.644 464.978 500.971 451.885 504.086C383.862 520.866 310.388 499.765 240.453 506.387C-6.85509 529.893 -206.997 481.369 -281.545 348.122" stroke="white" stroke-width="0.2" stroke-miterlimit="10"/>
<path d="M1570.2 47.68C1568.38 24.3274 1540.56 10.385 1514.42 8.40381C1484.3 6.15427 1453.93 14.0351 1429.65 31.6692C1406.48 48.4974 1390.79 71.3381 1374.2 95.0498C1367.51 104.476 1360.7 114.18 1353.22 123.576C1342.9 136.486 1331.05 148.826 1316.99 159.041C1294.62 175.277 1269.23 184.768 1244.45 189.864C1235.65 191.674 1226.88 192.975 1218.11 193.653C1189.6 196.055 1161.89 192.766 1135.79 181.95C1129.54 179.327 1123.57 176.376 1117.9 173.096C1089.96 156.826 1066.46 133.366 1036.67 115.495C1000.91 94.0495 958.56 83.6197 912.551 87.4924C896.604 88.9105 880.424 92.1323 865.16 97.0892C810.512 114.9 762.062 152.496 729.326 194.329C724.24 200.702 719.584 207.205 715.143 213.773C681.732 262.377 660.447 314.966 629.647 364.465C599.509 412.29 556.563 459.673 497.769 486.953C485.476 492.705 472.877 496.803 459.929 499.754C392.132 515.354 319.46 493.037 249.837 500.691C-3.47224 528.835 -209.265 474.54 -284.236 340.54" stroke="white" stroke-width="0.2" stroke-miterlimit="10"/>
<path d="M1569.34 44.8139C1567.55 21.5759 1539.08 8.06133 1512.78 6.8673C1482.94 5.53494 1453.1 14.5126 1430.07 32.4222C1407.8 49.625 1393.11 72.5614 1377.24 96.0746C1370.94 105.516 1364.14 115.221 1356.8 124.451C1346.66 137.312 1334.78 149.538 1320.5 159.688C1298.06 175.695 1272.25 184.432 1247.41 188.677C1238.68 190.092 1229.84 191.164 1221.36 191.514C1193.29 192.8 1166.27 188.575 1140.97 177.167C1134.9 174.494 1129.08 171.379 1123.58 168.049C1096.29 151.352 1073.01 127.956 1043.1 110.364C1007.06 89.2474 964.086 79.9829 917.996 84.8721C901.938 86.5692 886.222 90.0356 870.848 95.2714C816.804 113.786 769.572 151.542 737.376 193.226C732.47 199.55 727.814 206.052 723.338 212.506C690.286 261.011 669.078 313.206 637.958 362.296C607.571 409.942 564.271 456.801 505.123 483.557C492.761 489.08 480.126 493.063 467.144 495.9C399.608 510.433 327.558 486.951 258.248 495.638C0.230917 528.187 -211.392 468.169 -286.427 333.317" stroke="white" stroke-width="0.2" stroke-miterlimit="10"/>
<path d="M1568.65 41.8977C1566.71 18.824 1537.74 5.57302 1511.11 5.2158C1481.37 4.85026 1452.42 14.8255 1430.28 33.1097C1408.93 50.8019 1395.37 73.5551 1379.92 97.1983C1373.8 106.59 1367.21 116.36 1359.88 125.591C1349.74 138.451 1337.85 150.677 1323.51 160.598C1300.79 176.31 1274.76 184.36 1249.86 187.752C1241.06 188.939 1232.29 189.617 1223.93 189.688C1196.33 189.972 1170.15 184.647 1145.64 172.647C1139.71 169.81 1134.26 166.595 1128.94 163.216C1102.3 146.091 1079.38 122.596 1049.43 105.512C1013.13 84.8385 969.502 76.6248 923.51 82.4808C907.557 84.5218 891.91 88.2175 876.82 93.7476C823.414 113.08 777.332 150.768 745.675 192.303C740.769 198.626 736.293 205.079 731.817 211.533C699.305 259.889 677.992 311.74 646.769 360.486C616.097 407.838 572.333 454.453 513.121 480.356C500.724 485.765 488.235 489.584 475.183 492.191C407.909 505.658 336.445 480.896 267.628 490.564C3.93405 527.537 -213.374 461.634 -288.833 326.029" stroke="white" stroke-width="0.2" stroke-miterlimit="10"/>
<path d="M1567.96 38.9819C1566.03 15.9081 1536.22 3.13463 1509.48 3.67922C1479.79 4.16586 1451.77 15.2533 1430.7 33.8626C1410.43 51.8798 1397.69 74.7784 1382.96 98.2231C1377.06 107.68 1370.62 117.285 1363.46 126.466C1353.5 139.277 1341.58 151.388 1327.17 161.08C1304.16 176.498 1277.93 183.86 1252.96 186.4C1244.27 187.307 1235.58 187.592 1227.15 187.434C1199.99 186.603 1174.68 180.292 1151 167.814C1145.4 164.763 1139.94 161.548 1134.77 158.005C1108.96 140.402 1086.25 116.972 1056.05 100.332C1019.5 80.1013 975.063 73.1026 929.135 79.8108C913.286 82.1958 897.709 86.1208 882.689 91.8802C829.851 111.801 785.022 149.764 753.725 191.2C749 197.474 744.344 203.977 740.047 210.38C707.861 258.523 686.838 310.045 655.295 358.382C624.373 405.554 580.256 451.646 520.691 477.026C508.259 482.32 495.7 485.909 482.758 488.237C415.746 500.639 344.903 474.711 276.579 485.362C7.4924 527.053 -215.536 455.149 -291.418 318.791" stroke="white" stroke-width="0.2" stroke-miterlimit="10"/>
<path d="M1567.27 36.0664C1565.37 13.1073 1534.91 0.7617 1507.84 2.14309C1478.26 3.59655 1451.12 15.6815 1431.16 34.7305C1411.78 53.1224 1400.01 76.0021 1385.86 99.4125C1380.13 108.819 1373.9 118.49 1366.93 127.621C1356.97 140.432 1345.23 152.494 1330.57 162.006C1307.45 177.08 1280.83 183.804 1255.8 185.491C1247 186.055 1238.43 186.061 1230.29 185.574C1203.39 183.677 1179.13 176.331 1156.25 163.26C1150.83 160.16 1145.51 156.781 1140.52 153.188C1115.36 135.157 1092.87 111.792 1062.77 95.4957C1025.93 75.5939 980.873 69.7606 934.863 77.4852C919.083 80.0995 903.611 84.3685 888.84 90.3075C836.82 110.997 792.961 148.941 762.203 190.228C757.478 196.502 753.002 202.955 748.885 209.309C717.238 257.302 696.111 308.481 664.464 356.474C633.438 403.302 588.642 449.084 529.048 473.726C516.581 478.905 503.952 482.266 491.156 484.43C424.405 495.765 354.218 468.786 286.318 480.19C11.8733 526.714 -216.91 448.695 -293.035 311.534" stroke="white" stroke-width="0.2" stroke-miterlimit="10"/>
<path d="M1566.58 33.1506C1564.5 10.2412 1533.39 -1.67661 1506.35 0.442313C1477.04 2.81296 1450.43 15.9948 1431.73 35.3192C1413.28 54.2004 1402.47 77.0612 1389.08 100.388C1383.53 109.745 1377.48 119.366 1370.54 128.612C1360.76 141.373 1348.81 153.37 1334.11 162.767C1310.71 177.547 1283.88 183.583 1258.79 184.418C1250.1 184.703 1241.64 184.43 1233.36 183.484C1206.94 180.586 1183.51 172.139 1161.46 158.592C1156.18 155.327 1151.05 151.899 1146.24 148.256C1121.73 129.797 1099.63 106.448 1069.28 90.5943C1032.18 71.1358 986.467 66.3532 940.376 75.0943C924.701 78.0525 909.298 82.5508 894.777 88.6695C843.36 110.062 800.719 148.167 770.502 189.305C765.776 195.579 761.48 201.982 757.363 208.336C726.221 256.066 704.99 306.901 673.058 354.6C641.748 401.133 596.633 446.506 536.685 470.625C524.183 475.69 511.52 478.935 498.654 480.87C432.164 491.139 362.599 462.995 295.192 475.381C15.4242 526.852 -219.363 442.538 -295.698 304.689" stroke="white" stroke-width="0.2" stroke-miterlimit="10"/>
<path d="M1565.89 30.2345C1563.85 7.43968 1532.05 -4.16489 1504.72 -1.09452C1475.47 2.1283 1449.78 16.4223 1431.97 36.1214C1414.6 55.3276 1404.8 78.2842 1391.76 101.511C1386.61 110.884 1380.56 120.505 1373.76 129.587C1364.17 142.298 1352.17 154.18 1337.41 163.348C1313.91 177.784 1286.54 183.346 1261.53 183.165C1252.95 183.171 1244.38 182.554 1236.39 181.28C1210.41 177.266 1187.68 167.883 1166.43 153.743C1161.33 150.429 1156.52 146.786 1151.67 143.029C1127.99 124.093 1106.11 100.809 1075.68 85.3487C1038.33 66.3333 991.78 62.6511 945.967 72.3094C930.396 75.6115 915.063 80.3391 900.611 86.6871C849.833 108.897 808.34 146.934 778.663 187.923C774.117 194.147 769.821 200.551 765.704 206.905C734.922 254.535 713.766 304.976 681.696 352.217C650.136 398.571 604.667 443.42 544.365 467.015C531.829 471.965 519.276 474.932 506.375 476.752C440.112 485.84 371.382 456.596 304.253 469.899C19.1631 526.318 -221.414 435.773 -297.992 297.122" stroke="white" stroke-width="0.2" stroke-miterlimit="10"/>
<path d="M1565.2 27.3188C1563.15 4.52403 1530.71 -6.65267 1503.04 -2.7455C1473.9 1.44415 1449.09 16.7357 1432.36 36.7599C1415.91 56.4554 1407.04 79.2785 1394.76 102.422C1389.79 111.745 1384.14 121.381 1377.16 130.513C1367.56 143.224 1355.75 155.056 1340.74 164.045C1316.98 178.301 1289.38 183.06 1264.3 182.027C1255.62 181.689 1247.16 180.793 1239.28 179.24C1213.78 174.225 1191.84 163.627 1171.46 149.125C1166.5 145.646 1161.87 141.954 1157.39 138.097C1134.35 118.733 1112.69 95.5139 1082.36 80.3978C1044.72 61.7111 997.551 59.1942 951.622 69.7543C936.121 73.2858 920.927 78.4719 906.724 84.9996C856.549 107.913 816.276 146.11 787.138 186.951C782.592 193.175 778.476 199.529 774.359 205.883C744.082 253.25 722.857 303.461 690.682 350.358C658.838 396.417 612.869 440.907 552.539 463.765C539.933 468.486 527.345 471.338 514.555 472.879C448.553 480.901 380.48 450.606 313.809 464.777C23.4655 526.372 -223.151 429.418 -299.972 289.965" stroke="white" stroke-width="0.2" stroke-miterlimit="10"/>
<path d="M1564.51 24.403C1562.32 1.77253 1529.19 -9.09098 1501.41 -4.28199C1472.33 0.759831 1448.45 17.1636 1432.78 37.5128C1417.41 57.5334 1409.37 80.5018 1397.63 103.496C1392.87 112.884 1387.36 122.356 1380.56 131.438C1371.15 144.1 1359.12 155.867 1344.07 164.741C1320.21 178.653 1292.22 182.774 1267.08 180.889C1258.51 180.272 1250.12 178.982 1242.35 177.15C1217.29 171.019 1196.23 159.436 1176.64 144.341C1172.04 140.764 1167.38 136.957 1163.07 133.05C1140.83 113.094 1119.38 89.94 1088.84 75.3818C1050.94 57.1383 1003.11 55.6722 957.103 67.2487C941.706 71.1241 926.581 76.5396 912.449 83.2965C862.912 107.028 823.607 145.206 795.009 185.898C790.643 192.072 786.527 198.426 782.411 204.78C752.673 251.998 731.343 301.866 698.849 348.353C666.721 394.119 620.434 438.2 559.749 460.534C547.109 465.14 534.486 467.877 521.626 469.189C455.886 476.145 388.469 444.799 322.221 459.723C26.8389 526.56 -225.851 423.082 -303.096 282.875" stroke="white" stroke-width="0.2" stroke-miterlimit="10"/>
<path d="M1563.82 21.487C1561.67 -1.02884 1527.82 -11.6938 1499.95 -5.86834C1471.15 0.0906618 1447.8 17.5913 1433.21 38.2655C1418.73 58.6608 1411.66 81.6103 1400.7 104.635C1396.13 113.974 1390.83 123.511 1384.21 132.543C1374.83 145.32 1362.95 156.923 1347.8 165.452C1323.66 179.07 1295.45 182.504 1270.25 179.766C1261.61 178.92 1253.3 177.236 1245.61 175.011C1220.81 167.814 1200.79 155.195 1182 139.508C1177.55 135.766 1173.24 131.86 1168.94 127.954C1147.35 107.57 1126.29 84.4309 1095.67 70.2663C1057.34 52.5156 1009.18 52.5092 962.944 64.6436C947.582 68.6337 932.597 74.5077 918.714 81.4443C869.78 105.879 831.694 144.218 803.636 184.761C799.305 191.05 795.154 197.289 791.397 203.544C762.019 250.662 740.945 300.087 708.167 346.28C675.789 391.866 628.968 435.473 568.29 457.184C555.614 461.675 543.102 464.134 530.207 465.331C464.728 471.221 398.147 438.775 331.998 454.665C31.4318 526.909 -227.187 416.742 -304.675 275.733" stroke="white" stroke-width="0.2" stroke-miterlimit="10"/>
<path d="M1563.13 18.571C1560.98 -3.94484 1526.3 -14.1323 1498.28 -7.51968C1469.54 -0.708508 1447.11 17.9043 1433.6 38.9036C1420.22 59.7386 1414.12 82.6692 1403.53 105.595C1399.35 114.949 1394.05 124.486 1387.4 133.403C1378.2 146.13 1366.28 157.619 1350.91 166.083C1326.49 179.407 1298.07 182.152 1272.81 178.563C1264.24 177.323 1256.04 175.361 1248.46 172.856C1224.13 164.658 1204.78 150.989 1186.99 134.775C1182.69 130.868 1178.56 126.912 1174.4 122.842C1153.46 102.03 1132.62 78.9561 1101.89 65.0705C1063.3 47.763 1014.16 48.3983 968.351 61.9085C953.128 66.3572 938.177 72.3459 924.363 79.5118C876.068 104.764 839.131 143.035 811.612 183.428C807.461 189.668 803.31 195.907 799.554 202.162C770.681 249.017 749.537 298.212 716.619 343.947C683.957 389.238 636.852 432.551 575.75 453.509C563.04 457.886 550.493 460.23 537.708 461.148C472.491 465.972 406.566 432.475 340.875 449.233C35.3399 526.948 -229.603 410.077 -307.334 268.265" stroke="white" stroke-width="0.2" stroke-miterlimit="10"/>
<path d="M1562.44 15.6555C1560.14 -6.69604 1524.92 -16.1117 1496.64 -9.05585C1467.83 -1.85109 1446.46 18.3325 1434.02 39.6568C1421.54 60.8665 1416.44 83.8929 1406.57 106.62C1402.57 115.924 1397.45 125.412 1391.01 134.394C1381.81 147.121 1369.89 158.609 1354.46 166.845C1329.93 179.825 1300.95 181.981 1275.83 177.604C1267.2 176.135 1259.11 173.894 1251.6 170.996C1227.72 161.682 1209.23 147.027 1192.06 130.271C1187.93 126.315 1183.95 122.194 1180.16 118.025C1160.05 96.7354 1139.24 73.7761 1108.61 60.2344C1069.77 43.3701 1019.98 45.0562 974.08 59.5829C958.781 64.4251 944.08 70.5935 930.551 78.0537C882.859 104.01 847.14 142.441 820.161 182.685C816.01 188.925 812.039 195.115 808.282 201.369C779.769 248.125 758.701 296.927 725.679 342.318C692.733 387.315 645.129 430.268 584.033 450.604C571.288 454.865 558.672 456.98 546.032 457.734C481.111 461.606 415.5 425.289 350.54 444.455C41.9366 535.192 -231.55 403.657 -309.67 261.207" stroke="white" stroke-width="0.2" stroke-miterlimit="10"/>
<path d="M1561.53 12.6746C1559.27 -9.56236 1523.23 -19.1234 1494.97 -10.7072C1466.36 -2.19164 1445.78 18.6456 1434.23 40.3446C1422.86 61.994 1418.51 84.9364 1409.25 107.744C1405.43 116.999 1400.53 126.551 1394.23 135.369C1385.21 148.047 1373.26 159.42 1357.57 167.476C1332.76 180.161 1303.6 181.745 1278.39 176.401C1269.83 174.538 1261.67 172.068 1254.46 168.841C1230.87 158.576 1213.4 142.771 1197.06 125.537C1193.08 121.417 1189.46 117.197 1185.66 113.027C1166.38 91.2606 1145.79 68.3664 1114.91 55.2678C1075.77 38.7322 1025.18 41.6333 979.379 57.1268C964.15 62.1983 949.553 68.7106 936.273 76.3504C889.219 103.124 854.65 141.487 828.211 181.583C824.24 187.772 820.269 193.962 816.477 200.102C788.469 246.595 767.331 295.167 733.99 340.149C700.795 384.966 652.837 427.396 591.352 447.093C578.573 451.24 565.886 453.125 553.177 453.65C488.483 456.342 423.737 419.662 359.061 439.122C45.6514 533.298 -233.677 397.286 -312.041 254.034" stroke="white" stroke-width="0.2" stroke-miterlimit="10"/>
<path d="M1560.85 9.75838C1558.58 -12.4785 1521.67 -21.6767 1493.3 -12.3587C1464.76 -2.99098 1445.09 18.9585 1434.62 40.9825C1424.14 63.0066 1420.98 85.9951 1412.26 108.654C1408.65 117.973 1403.89 127.361 1397.64 136.294C1388.79 148.922 1376.84 160.296 1361.08 168.122C1336.2 180.578 1306.62 181.409 1281.35 175.213C1272.72 173.121 1264.81 170.207 1257.49 166.637C1234.35 155.256 1217.75 138.465 1202.2 120.639C1198.58 116.419 1194.93 112.085 1191.27 107.751C1172.65 85.5563 1152.45 62.6775 1121.49 49.9725C1082.1 33.8801 1030.85 37.8319 985.15 54.2922C970.025 59.7077 955.498 66.4493 942.287 74.3184C895.837 101.796 862.486 140.319 836.587 180.266C832.615 186.456 828.824 192.596 825.033 198.736C797.564 245.079 776.287 293.193 742.877 337.945C709.577 382.419 660.94 424.539 599.282 443.663C586.467 447.696 573.926 449.416 561.147 449.712C496.715 451.337 433.152 414.704 368.372 433.82C48.463 528.422 -235.659 390.751 -314.266 246.696" stroke="white" stroke-width="0.2" stroke-miterlimit="10"/>
<path d="M1560.15 6.84266C1557.71 -15.3446 1520.12 -24.2296 1491.67 -13.8951C1463.22 -3.56056 1444.44 19.3865 1435.04 41.7355C1425.64 64.0846 1423.26 87.1039 1415.11 109.728C1406.97 132.353 1391.27 155.816 1364.41 168.819C1330.74 185.067 1288.62 179.915 1260.38 164.597C1232.14 149.279 1214.79 125.491 1196.81 102.868C1178.83 80.2461 1159.03 57.3826 1127.81 45.1209C1075.08 24.2604 1000.75 40.172 948.042 72.7301C895.154 105.338 860.438 151.569 833.329 197.813C806.186 243.942 785.019 291.777 751.469 336.071C717.92 380.365 668.929 421.961 607.097 440.512C529.502 463.661 454.955 404.96 377.604 428.911C52.9402 529.05 -237.789 384.38 -316.64 239.523" stroke="white" stroke-width="0.2" stroke-miterlimit="10"/>
<path d="M1560.55 7.48123C1557.9 -12.1649 1521.36 -18.8562 1492.4 -7.63524C1464.34 3.33752 1445.13 26.1545 1434.87 48.2436C1427.62 63.5389 1423.7 78.9075 1418.93 94.0161C1416.89 100.791 1414.6 107.386 1411.74 114.016C1402.85 135.478 1387.1 157.467 1360.46 169.288C1337.11 179.708 1309.9 180.008 1285.81 173.858C1275.64 171.196 1265.95 167.533 1257.53 162.9C1229.22 147.352 1210.78 123.862 1192.01 101.832C1176.58 83.7272 1159.81 65.7403 1136.82 53.5721C1131.67 50.7661 1126.24 48.2887 1120.34 46.1896C1066.84 26.6587 992.721 43.2582 940.007 76.4392C928.561 83.6974 917.898 91.6091 907.949 99.9452C872.599 129.951 847.164 166.29 826.431 202.699C799.966 249.138 779.298 297.333 746.428 341.936C713.598 386.031 665.576 427.609 604.353 446.24C597.731 448.191 591.15 449.634 584.61 450.569C519.316 459.639 455.818 420.005 391.406 430.695C386.589 431.527 381.842 432.589 377.164 433.879C306.952 454.37 238.611 463.037 173.007 463.371C63.5476 463.753 -37.6874 441.117 -119.495 406.038C-210.808 366.625 -278.462 311.365 -311.628 256.032" stroke="white" stroke-width="0.2" stroke-miterlimit="10"/>
<path d="M1560.93 8.11968C1558.05 -9.09993 1522.56 -13.5976 1493.34 -1.31049C1465.67 10.3005 1446.04 32.9875 1434.7 54.7515C1426.84 69.9665 1422.03 84.9604 1416.26 99.3504C1413.72 105.766 1411.18 112.181 1408.18 118.352C1398.55 138.653 1382.7 159.052 1356.37 169.922C1333.31 179.39 1306.5 179.082 1282.73 172.719C1272.53 169.942 1262.99 166.115 1254.53 161.367C1225.97 145.64 1206.85 122.463 1187.25 100.91C1170.98 83.2829 1153.24 65.9379 1129.67 54.4268C1124.38 51.7851 1118.8 49.472 1112.76 47.5371C1058.31 29.3856 984.397 46.6729 931.892 80.5418C920.481 87.9146 909.853 95.941 900.119 104.342C865.088 134.756 840.118 171.341 819.668 208.044C793.702 254.842 774.073 303.247 741.342 348.309C709.412 392.156 662.034 433.929 601.386 452.526C594.799 454.592 588.217 456.035 581.677 456.97C516.847 466.284 453.703 427.174 390.272 436.599C385.6 437.267 381.033 438.279 376.355 439.569C307.559 458.302 240.56 465.606 175.93 465.298C67.702 464.595 -33.9455 443.812 -115.493 411.519C-206.371 375.465 -273.382 324.252 -307.02 273.149" stroke="white" stroke-width="0.2" stroke-miterlimit="10"/>
<path d="M1561.11 8.69265C1557.98 -6.10045 1523.55 -8.4044 1493.89 4.9984C1466.61 17.2477 1446.54 39.8046 1434.32 61.194C1425.81 76.2139 1419.93 90.8828 1413.55 104.569C1410.73 110.691 1407.87 116.697 1404.58 122.574C1394.21 141.713 1378.31 160.636 1352.2 170.326C1329.4 178.728 1303.03 177.927 1279.55 171.235C1269.5 168.294 1259.92 164.352 1251.46 159.604C1222.83 143.648 1203.02 120.785 1182.23 99.8085C1165.32 82.6089 1146.6 65.9056 1122.44 55.0517C1117.01 52.5743 1111.29 50.4255 1105.28 48.6052C1050.1 31.898 976.398 49.8732 924.032 84.2007C912.656 91.6882 902.063 99.8292 892.363 108.345C857.651 139.168 832.93 175.932 813.125 212.83C787.658 259.988 768.708 308.703 736.656 354.074C705.66 397.788 659.037 439.476 598.997 458.154C592.41 460.22 586.009 461.613 579.503 462.663C515.138 472.221 452.383 433.75 389.932 441.911C385.441 442.529 380.839 443.426 376.126 444.602C308.601 461.741 243.303 467.582 179.434 466.567C72.2211 464.714 -29.6242 445.849 -110.732 416.293C-201.245 383.368 -267.544 336.431 -301.832 289.609" stroke="white" stroke-width="0.2" stroke-miterlimit="10"/>
<path d="M1561.5 9.33095C1558.13 -3.03566 1524.79 -3.03128 1494.65 11.3726C1467.76 24.2601 1447.23 46.5724 1434.18 67.8164C1425.03 82.6413 1418.25 96.9355 1411.09 109.969C1407.99 115.795 1404.67 121.557 1401.24 126.975C1390.12 144.952 1373.98 162.451 1348.1 170.959C1325.6 178.41 1299.67 177.117 1276.66 170.046C1266.75 166.941 1257.13 162.884 1248.67 158.137C1219.76 141.886 1199.09 119.385 1177.5 99.0013C1159.72 82.1645 1140.25 66.168 1115.33 56.0208C1109.75 53.7077 1103.89 51.7232 1097.73 50.0672C1041.79 34.6897 968.111 53.4025 915.918 88.3032C904.577 95.9053 894.198 104.111 884.354 112.791C849.746 143.959 825.524 181.082 806.183 218.225C781.395 265.692 763.124 314.716 731.571 360.447C701.474 403.913 655.64 445.632 596.245 464.504C589.838 466.521 583.292 468.078 576.931 468.964C513.065 478.882 450.448 440.869 388.979 447.765C384.453 448.268 379.996 449.001 375.463 450.127C309.355 465.51 245.397 469.986 182.323 468.379C76.3415 465.441 -25.7713 448.265 -106.764 421.659C-196.878 391.978 -262.498 349.204 -297.438 306.661" stroke="white" stroke-width="0.2" stroke-miterlimit="10"/>
<path d="M1561.85 9.8543C1558.25 -0.0857917 1525.97 2.11226 1495.38 17.6319C1468.88 31.1577 1447.92 53.34 1433.98 74.2092C1424.18 88.8391 1416.51 102.759 1408.6 115.253C1405.03 120.835 1401.57 126.138 1397.86 131.262C1386 148.077 1369.81 164.1 1344.18 171.543C1321.98 178.042 1296.45 176.141 1273.73 168.742C1263.78 165.522 1254.35 161.416 1245.85 156.554C1216.87 140.074 1195.34 117.936 1172.74 98.0791C1154.13 81.7198 1133.68 66.3651 1108.36 56.8254C1102.64 54.6766 1096.63 52.8563 1090.51 51.315C1033.62 37.3168 960.329 56.6678 908.345 92.2564C897.038 99.9732 886.695 108.294 877.065 117.039C842.776 148.615 818.984 185.868 799.927 223.306C775.603 271.018 758.225 320.416 726.991 366.556C697.794 409.773 652.749 451.524 593.964 470.476C587.556 472.493 581.19 474.001 574.684 475.05C511.102 485.263 449.054 447.838 388.566 453.47C384.185 453.809 379.728 454.542 375.341 455.504C310.469 469.178 248.032 472.241 185.933 469.992C81.2167 466.084 -21.3783 450.532 -101.896 426.776C-191.61 400.34 -256.553 361.727 -291.964 323.414" stroke="white" stroke-width="0.2" stroke-miterlimit="10"/>
<path d="M1562.24 10.4926C1558.25 3.14333 1527.14 7.25614 1496.29 23.8419C1470.14 37.8912 1448.61 60.1078 1433.99 80.6674C1423.58 95.2169 1414.98 108.647 1406.29 120.488C1402.44 125.775 1398.66 130.67 1394.66 135.499C1382.06 151.153 1365.77 165.586 1340.41 171.962C1318.5 177.51 1293.37 175.002 1270.94 167.274C1261.14 163.89 1251.67 159.669 1243.18 154.807C1213.95 138.147 1191.73 116.323 1168.3 96.9433C1148.86 81.0615 1127.61 66.2989 1101.5 57.3514C1095.63 55.3669 1089.48 53.7109 1083.18 52.2192C1025.52 39.5507 952.296 59.7538 900.452 95.8011C889.18 103.632 878.871 112.068 869.275 120.927C835.091 152.848 811.798 190.46 793.205 228.142C769.56 276.164 752.682 325.922 722.091 372.257C693.649 415.39 649.573 457.121 591.362 476.04C584.989 478.171 578.623 479.679 572.297 480.679C509.179 491.136 447.34 454.399 387.979 458.602C383.597 458.941 379.285 459.509 375.043 460.307C311.588 472.224 250.706 473.988 189.368 471.032C85.8474 465.924 -16.9453 452.291 -97.3823 431.371C-186.517 408.129 -250.928 373.842 -287.025 339.694" stroke="white" stroke-width="0.2" stroke-miterlimit="10"/>
<path d="M1562.44 11.1803C1558.22 6.25753 1528.16 12.564 1496.88 30.2655C1471.08 44.8384 1449.15 67.0396 1433.63 87.2245C1422.59 101.579 1412.91 114.684 1403.44 125.871C1399.3 130.865 1395.06 135.514 1390.92 139.885C1377.54 154.262 1361.23 167.335 1336.13 172.645C1314.49 177.127 1289.97 174.076 1267.69 166.184C1257.85 162.686 1248.53 158.3 1240.03 153.438C1210.73 136.549 1187.61 114.973 1163.21 96.2351C1142.9 80.7161 1120.9 66.6603 1094.02 58.4196C1088.01 56.5993 1081.89 55.058 1075.26 53.7803C1016.84 42.4414 943.826 63.3324 892.156 99.9529C880.918 107.899 870.644 116.449 861.264 125.374C827.399 157.703 804.355 195.495 786.261 233.536C763.115 281.917 747.095 331.935 717.004 378.63C689.461 421.515 645.994 463.326 588.573 482.275C582.38 484.357 576.014 485.865 569.723 486.979C507.069 497.681 445.618 461.583 387.238 464.521C383.001 464.696 378.87 465.214 374.592 465.898C312.554 476.057 253.013 476.457 192.615 472.745C90.1454 466.601 -12.735 454.607 -92.8768 436.588C-181.613 416.591 -245.345 386.465 -281.914 356.548" stroke="white" stroke-width="0.2" stroke-miterlimit="10"/>
<path d="M1562.8 11.7041C1558.34 9.20784 1529.3 17.5933 1497.6 36.5252C1472.16 51.6218 1449.84 73.8076 1433.43 93.6178C1421.74 107.777 1411.17 120.508 1400.91 131.041C1396.28 135.675 1391.93 139.981 1387.51 144.057C1373.57 157.223 1357.02 168.871 1332.15 173C1310.79 176.53 1286.71 172.987 1264.69 164.651C1255 160.988 1245.64 156.489 1237.11 151.512C1207.56 134.443 1183.75 113.18 1158.34 94.9694C1137.39 79.8782 1114.22 66.5139 1086.95 58.8806C1080.79 57.2247 1074.49 55.733 1067.93 54.6846C1008.75 44.6753 935.759 66.3039 884.297 103.612C873.095 111.673 862.855 120.338 853.51 129.377C819.784 162.165 797.384 200.152 779.719 238.323C757.073 287.063 741.732 337.391 712.319 384.395C685.676 427.032 642.999 468.874 586.006 487.954C579.814 490.035 573.482 491.658 567.191 492.772C505.001 503.719 443.939 468.259 386.505 469.817C382.449 469.942 378.247 470.232 374.15 470.865C313.383 479.431 255.508 478.254 195.726 473.999C94.4863 466.771 -8.62679 456.58 -88.6882 441.396C-176.845 424.594 -240.079 398.679 -277.299 373.042" stroke="white" stroke-width="0.2" stroke-miterlimit="10"/>
<path d="M1563.19 12.3425C1558.49 12.2727 1530.5 22.8519 1498.37 42.8995C1473.46 58.47 1450.56 80.6901 1433.11 100.29C1420.6 114.304 1409.32 126.61 1398.28 136.49C1393.36 140.83 1388.72 144.841 1383.99 148.509C1369.3 160.512 1352.7 170.685 1328.05 173.634C1307 176.212 1283.31 172.061 1261.58 163.397C1252.03 159.57 1242.67 155.07 1234.11 149.979C1204.49 132.681 1179.79 111.666 1153.4 94.0972C1131.58 79.3689 1107.66 66.7113 1079.62 59.7849C1073.32 58.2932 1066.87 56.9658 1060.17 56.0817C1000.22 47.4021 927.473 69.8332 876.15 107.6C864.982 115.775 854.923 124.39 845.467 133.709C812.025 166.791 789.91 205.072 772.744 243.603C750.741 292.538 736.079 343.176 707.02 390.703C681.097 433.141 639.389 474.965 583.04 494.239C576.848 496.321 570.696 497.894 564.44 499.123C502.569 510.478 441.861 475.542 385.588 475.786C381.497 475.797 377.475 476.036 373.523 476.506C314.173 483.314 257.639 480.772 198.831 475.876C98.8226 467.563 -4.73781 459.111 -84.359 446.663C-171.936 433.056 -234.673 411.352 -272.544 389.994" stroke="white" stroke-width="0.2" stroke-miterlimit="10"/>
<path d="M1563.36 12.9156C1558.42 15.2724 1531.46 27.9306 1499.06 49.0443C1474.51 65.1384 1451 87.2781 1432.87 106.568C1419.75 120.502 1407.58 132.433 1395.72 141.545C1390.51 145.591 1385.38 149.243 1380.72 152.517C1365.29 163.358 1348.63 172.056 1324.24 173.938C1303.66 175.516 1280.2 170.807 1258.97 161.88C1249.39 157.938 1240.18 153.274 1231.61 148.182C1201.75 130.704 1176.36 110.003 1149.14 92.9115C1126.49 78.6607 1101.77 66.5953 1073.16 60.326C1066.68 58.884 1060.12 57.8355 1053.42 56.9514C992.694 49.6015 919.98 72.7701 868.831 111.11C857.878 119.351 847.673 128.13 838.432 137.513C805.129 171.054 783.658 209.53 766.777 248.355C745.273 297.65 731.29 348.597 702.91 396.434C677.886 438.624 637.002 480.593 581.228 499.833C575.035 501.915 568.918 503.602 562.807 504.667C501.401 516.267 441.082 481.969 385.755 480.834C381.843 480.795 377.787 480.92 373.8 481.275C315.866 486.326 260.888 482.485 202.841 476.882C104.028 467.369 0.269583 460.835 -79.2712 451.223C-166.449 440.86 -228.328 423.268 -266.85 406.19" stroke="white" stroke-width="0.2" stroke-miterlimit="10"/>
<path d="M1563.75 13.5537C1558.61 18.4516 1532.63 33.0742 1499.83 55.4183C1475.44 72.0857 1451.73 94.1604 1432.7 113.076C1418.93 126.814 1405.87 138.371 1393.26 146.944C1387.77 150.695 1382.32 153.938 1377.38 156.918C1361.35 166.433 1344.48 173.82 1320.33 174.522C1300.04 175.148 1277.16 169.782 1256.04 160.576C1246.61 156.47 1237.36 151.691 1228.79 146.599C1198.68 128.942 1172.6 108.553 1144.38 91.9894C1120.89 78.2161 1095.2 66.7925 1066.01 61.1803C1059.38 59.9026 1052.68 59.0184 1045.83 58.2986C984.342 52.2783 911.836 76.1349 860.896 115.163C849.978 123.518 839.808 132.412 830.602 141.91C797.584 175.745 776.396 214.515 759.979 253.585C739.155 303.189 725.85 354.446 697.969 402.643C673.665 444.634 633.75 486.584 578.585 505.905C572.607 508.051 566.456 509.624 560.199 510.853C499.257 522.698 439.326 489.038 384.981 486.638C381.035 486.485 377.158 486.56 373.316 486.75C316.654 490.208 263.162 484.839 206.09 478.594C108.507 467.996 4.6615 463.102 -74.7641 456.44C-161.397 449.157 -222.744 435.891 -261.917 423.093" stroke="white" stroke-width="0.2" stroke-miterlimit="10"/>
<path d="M1564.14 14.1922C1558.58 21.5662 1533.8 38.2182 1500.59 61.7927C1476.53 78.869 1452.45 101.043 1432.57 119.698C1418.15 133.242 1404.19 144.424 1390.62 152.393C1384.67 155.899 1379.11 158.799 1373.85 161.369C1357.26 169.673 1340.16 175.635 1316.26 175.271C1296.28 174.945 1273.8 168.972 1253 159.551C1243.71 155.281 1234.43 150.388 1225.86 145.296C1195.67 127.409 1168.52 107.318 1139.5 91.3466C1115.15 77.9362 1088.7 67.2193 1058.93 62.2643C1052.33 61.1012 1045.49 60.3813 1038.49 59.8258C976.239 55.1352 903.797 79.8439 852.996 119.331C842.113 127.8 831.978 136.809 822.986 146.372C790.286 180.616 769.384 219.681 753.431 258.995C733.105 308.959 720.445 360.41 693.097 409.081C669.692 450.824 630.387 492.855 576.011 512.206C570.034 514.352 563.917 516.04 557.84 517.219C497.362 529.309 437.64 496.337 384.421 492.508C380.62 492.19 376.923 492.216 373.047 492.292C317.8 493.992 265.829 487.209 209.373 480.422C113.021 468.739 8.90741 465.533 -70.403 461.821C-156.277 457.684 -217.306 448.679 -256.95 440.111" stroke="white" stroke-width="0.2" stroke-miterlimit="10"/>
<path d="M1564.31 14.7653C1558.51 24.5659 1534.57 43.3465 1501.32 68.0521C1477.61 85.6521 1452.96 107.86 1432.36 126.091C1417.12 139.49 1402.45 150.247 1388.1 157.562C1381.86 160.775 1375.99 163.265 1370.44 165.541C1353.29 172.634 1335.95 177.17 1312.09 175.675C1292.4 174.398 1270.33 167.817 1249.82 158.068C1240.5 153.683 1231.39 148.74 1222.79 143.533C1192.36 125.467 1164.52 105.69 1134.49 90.2449C1109.31 77.3119 1082.06 67.1872 1051.49 62.8244C1044.75 61.8256 1037.76 61.27 1030.62 60.8787C967.603 57.5178 895.37 82.9144 844.743 122.974C833.894 131.559 823.794 140.682 814.837 150.359C782.277 185.062 761.983 224.207 746.529 263.881C726.667 314.089 714.721 365.965 688.052 414.946C665.367 456.49 627.031 498.502 573.3 518.048C567.322 520.194 561.385 521.832 555.343 523.126C495.149 535.51 436.031 503.242 383.577 498.083C379.956 497.715 376.19 497.512 372.494 497.538C318.699 497.595 268.034 489.334 212.552 481.905C117.396 469.022 13.0849 467.735 -65.9653 466.809C-151.26 465.866 -211.791 461.073 -252.086 456.784" stroke="white" stroke-width="0.2" stroke-miterlimit="10"/>
<path d="M1564.7 15.4037C1558.66 27.6307 1535.71 48.3758 1502.09 74.4264C1478.7 92.4353 1453.68 114.743 1432.19 132.599C1416.31 145.802 1400.75 156.186 1385.61 162.847C1379.09 165.765 1372.93 167.961 1367.06 169.828C1349.2 175.874 1331.77 178.82 1308.18 176.258C1288.79 174.03 1267.14 166.956 1246.89 156.764C1237.71 152.215 1228.58 147.157 1219.94 141.836C1189.43 123.541 1160.73 104.126 1129.87 89.1588C1103.86 76.7033 1075.64 67.2203 1044.49 63.5146C1037.61 62.6801 1030.43 62.1742 1023.15 61.9472C959.365 59.9159 887.34 86.0004 836.742 126.798C825.928 135.497 816.042 144.685 806.94 154.527C774.664 189.524 754.69 229.078 739.665 268.882C720.482 319.4 709.215 371.586 683.045 420.925C661.08 462.271 623.747 504.378 570.41 523.94C564.612 526.037 558.53 527.839 552.489 529.133C492.794 541.876 434.029 510.131 382.522 503.593C378.866 503.111 375.28 502.858 371.729 502.72C319.17 501.069 270.206 491.345 215.52 483.324C121.594 469.356 17.1955 469.708 -61.9194 471.782C-146.669 473.919 -206.633 473.566 -247.615 473.443" stroke="white" stroke-width="0.2" stroke-miterlimit="10"/>
<path d="M1565.09 16.0422C1558.81 30.6957 1536.88 53.5198 1502.82 80.6862C1479.78 99.2187 1454.16 121.446 1431.84 139.157C1415.32 152.165 1398.86 162.173 1382.94 168.181C1376.13 170.805 1369.55 172.248 1363.5 174.165C1345.57 179.981 1327.44 180.634 1304.05 176.778C1284.98 173.713 1263.89 165.867 1243.78 155.51C1234.75 150.797 1225.57 145.625 1216.94 140.303C1186.18 121.828 1156.76 102.612 1124.92 88.2867C1098.05 76.1941 1069.07 67.4179 1037.34 64.3694C1030.31 63.6991 1022.99 63.3575 1015.75 63.2451C951.371 62.4939 879.23 89.4802 828.951 130.687C818.172 139.5 808.321 148.803 799.434 158.71C767.297 194.165 747.752 233.85 733.226 274.013C714.542 324.89 703.919 377.271 678.463 427.035C657.397 468.133 620.854 510.27 568.126 529.912C562.363 532.124 556.426 533.762 550.419 535.171C491.189 548.158 432.632 517.101 382.287 509.249C378.811 508.717 375.19 508.35 371.783 508.047C320.676 504.754 273.018 493.551 219.307 484.888C126.432 469.884 21.946 471.876 -56.8738 476.85C-141.044 482.182 -200.51 486.04 -241.963 490.147" stroke="white" stroke-width="0.2" stroke-miterlimit="10"/>
<path d="M1565.44 16.5656C1558.96 33.7603 1537.8 58.4838 1503.54 86.9455C1480.83 105.887 1454.84 128.213 1431.64 145.55C1414.5 158.478 1397.15 168.111 1380.41 173.351C1373.1 175.615 1366.56 177.173 1360.09 178.337C1341.1 181.959 1323.23 182.17 1300.06 177.132C1281.47 173.066 1260.6 164.662 1240.78 153.977C1231.71 149.149 1222.9 143.877 1214.05 138.491C1183.22 119.787 1152.76 100.983 1120.12 87.25C1092.6 75.5852 1062.61 67.3361 1030.15 65.109C1022.98 64.6031 1015.52 64.4257 1008.13 64.4777C942.95 64.9415 871.052 92.7303 820.802 134.674C810.058 143.602 800.242 153.02 791.354 162.927C759.502 198.676 740.456 238.72 726.214 279.178C708.209 330.365 698.085 383.105 673.128 433.228C652.782 474.127 617.207 516.246 565.089 535.968C559.326 538.18 553.424 539.933 547.597 541.292C488.831 554.524 430.663 524.105 381.264 514.874C377.753 514.227 374.312 513.81 370.871 513.393C321.18 508.342 275.043 495.725 222.092 486.356C130.413 470.153 25.874 473.898 -53.0105 481.872C-136.456 490.234 -195.57 498.468 -237.674 506.855" stroke="white" stroke-width="0.2" stroke-miterlimit="10"/>
<path d="M1565.65 17.2533C1558.93 36.8745 1538.61 63.7266 1504.31 93.3195C1481.73 112.72 1455.57 135.096 1431.47 152.057C1413.51 164.84 1395.44 174.049 1377.78 178.799C1370.18 180.769 1363.32 181.918 1356.56 182.788C1337.05 185.313 1318.91 183.984 1296 177.88C1277.71 172.862 1257.23 163.851 1237.89 152.788C1228.96 147.795 1220.12 142.409 1211.09 137.073C1180.01 118.189 1148.86 99.6981 1115.22 86.492C1086.87 75.3047 1056.08 67.6478 1023.04 66.0779C1015.72 65.7362 1008.29 65.6735 1000.76 65.8897C934.814 67.6832 862.98 96.3242 813.049 138.677C802.34 147.72 792.558 157.252 783.886 167.224C752.172 203.432 733.556 243.606 719.778 284.308C702.272 335.854 692.792 388.789 668.549 439.337C648.922 480.038 614.137 522.187 562.808 541.941C557.225 544.102 551.323 545.855 545.316 547.264C486.834 560.79 429.269 531.075 380.816 520.464C377.486 519.768 374.19 519.186 370.714 518.654C322.294 512.01 277.678 497.98 225.488 487.904C135.039 470.616 30.2328 476.05 -48.3566 486.924C-131.258 498.367 -189.839 510.927 -232.594 523.593" stroke="white" stroke-width="0.2" stroke-miterlimit="10"/>
<path d="M1566.01 17.7768C1559.05 39.8245 1539.71 68.641 1505.04 99.5789C1482.78 119.388 1456.04 141.798 1431.3 158.565C1412.69 171.152 1393.73 179.987 1375.28 184.083C1367.41 185.759 1360.08 186.663 1353.18 187.075C1333.14 188.503 1314.58 185.798 1292.04 178.349C1273.87 172.43 1254.15 162.712 1234.96 151.484C1226.18 146.327 1217.29 140.826 1208.27 135.49C1177.12 116.377 1145.07 98.1343 1110.63 85.5203C1081.42 74.6959 1049.69 67.7954 1016.07 66.8826C1008.61 66.7052 1001.03 66.8068 993.349 67.1873C926.641 70.3104 855.016 99.6394 805.078 142.615C794.404 151.773 784.657 161.419 776.019 171.506C744.625 208.123 726.472 248.541 712.979 289.538C695.938 341.329 687.171 394.688 663.606 445.545C644.699 486.048 610.918 528.293 560.199 548.127C554.616 550.288 548.748 552.156 542.921 553.515C484.903 567.286 427.548 538.258 380.221 526.219C377.035 525.358 373.704 524.662 370.443 524.195C323.44 515.794 280.345 500.35 228.95 489.681C139.697 471.194 34.8031 478.268 -43.851 492.141C-126.028 506.615 -184.256 523.55 -227.483 540.446" stroke="white" stroke-width="0.2" stroke-miterlimit="10"/>
<path d="M1566.4 18.4153C1559.02 42.9391 1540.67 73.72 1505.77 105.839C1483.68 126.221 1456.73 148.566 1431.09 164.958C1411.85 177.351 1391.99 185.811 1372.76 189.253C1364.6 190.635 1356.99 191.245 1349.77 191.247C1328.99 191.514 1310.37 187.333 1288.09 178.818C1270.25 172.062 1250.9 161.622 1231.99 150.066C1223.18 144.795 1214.44 139.129 1205.41 133.793C1174.02 114.5 1141.28 96.5708 1105.83 84.484C1075.79 74.137 1043.26 67.8287 1008.89 67.6227C1001.28 67.6096 993.559 67.8754 985.696 68.3056C918.221 72.7584 846.625 102.825 797.076 146.439C786.436 155.711 776.905 165.423 768.122 175.674C736.832 212.635 719.143 253.298 706.295 294.489C689.932 346.59 681.629 400.194 658.563 451.41C640.556 491.664 607.564 533.941 557.454 553.855C551.905 556.131 546.218 557.949 540.391 559.308C482.872 573.438 425.725 545.099 379.525 531.63C376.339 530.769 373.153 529.909 370.037 529.278C324.306 519.283 282.696 502.311 232.276 491.001C144.254 471.428 39.2726 480.141 -39.2663 496.965C-120.719 514.469 -178.594 535.78 -222.472 556.956" stroke="white" stroke-width="0.2" stroke-miterlimit="10"/>
<path d="M1566.61 19.1032C1558.99 46.0535 1541.45 78.8484 1506.35 112.262C1484.58 133.054 1457.06 155.433 1430.74 171.516C1410.67 183.763 1389.96 191.963 1370.09 194.587C1361.46 195.724 1353.71 195.876 1346.21 195.584C1324.9 194.754 1306.01 189.033 1283.96 179.337C1266.42 171.63 1247.47 160.582 1228.88 148.812C1220.18 143.262 1211.48 137.711 1202.38 132.145C1170.73 112.673 1137.13 95.1063 1100.86 83.497C1069.98 73.6275 1036.66 67.9113 1001.67 68.2478C993.879 68.2844 986.015 68.7145 978.221 69.374C909.946 75.0418 838.628 106.025 789.038 150.148C778.433 159.534 768.936 169.361 760.368 179.677C729.397 217.047 711.993 258.004 699.608 299.44C683.744 351.9 676.086 405.699 653.734 457.34C636.446 497.396 604.423 539.653 554.922 559.647C549.374 561.923 543.686 563.741 537.894 565.215C480.839 579.59 424.081 551.889 378.827 537.041C375.786 536.016 372.601 535.156 369.63 534.36C325.315 522.608 285.226 504.222 235.601 492.32C148.775 471.547 43.5261 481.95 -34.8628 501.838C-115.771 522.422 -173.113 548.059 -217.463 573.465" stroke="white" stroke-width="0.2" stroke-miterlimit="10"/>
<path d="M1566.96 19.6268C1559.1 49.0037 1542.4 83.9273 1507.26 118.472C1485.63 139.722 1457.93 162.151 1430.75 177.974C1410.04 190.026 1388.43 197.851 1367.78 199.822C1358.87 200.665 1350.83 200.522 1343.01 199.821C1321 197.944 1301.87 190.797 1280.01 179.806C1262.76 171.147 1244.43 159.557 1225.92 147.394C1217.36 141.679 1208.62 136.014 1199.52 130.448C1167.81 110.746 1133.34 93.5427 1096.24 82.4108C1064.5 72.9042 1030.41 67.8948 994.662 68.938C986.729 69.1389 978.9 69.6837 970.781 70.557C901.919 77.5049 830.45 109.276 781.034 153.971C770.464 163.473 761.002 173.414 752.468 183.844C721.816 221.623 704.842 262.711 692.776 304.556C677.591 357.325 670.431 411.484 648.758 463.434C632.19 503.291 601.137 545.53 552.065 565.654C546.697 567.88 541.044 569.813 535.252 571.287C478.481 585.956 422.146 559.008 378.018 542.731C374.978 541.706 371.937 540.681 369.111 539.721C326.247 526.326 287.465 506.462 238.635 493.967C153.04 472.11 47.6686 484.037 -30.5704 506.991C-110.968 530.54 -167.744 560.617 -212.744 590.303" stroke="white" stroke-width="0.2" stroke-miterlimit="10"/>
<path d="M1567.35 20.265C1559.29 52.183 1543.36 89.006 1508.03 124.847C1486.72 146.505 1458.47 169.083 1430.4 184.531C1409.04 196.388 1386.54 203.839 1364.93 205.206C1355.73 205.754 1347.23 205.366 1339.28 204.207C1316.52 201.168 1297.33 192.547 1275.73 180.489C1258.81 170.994 1240.85 158.681 1222.63 146.189C1214.03 140.36 1205.44 134.53 1196.34 128.965C1164.38 109.083 1129.2 92.0781 1091.11 81.588C1058.54 72.5589 1023.45 68.0767 987.333 69.8421C979.255 70.2072 971.281 70.9163 963.197 71.9043C893.534 80.0672 822.308 112.64 773.101 158.024C762.746 167.59 753.138 177.696 744.819 188.191C714.272 226.314 697.796 267.761 686.16 309.736C671.439 362.75 664.958 417.218 643.999 469.593C628.116 509.137 597.886 551.521 549.639 571.79C544.27 574.017 538.617 575.949 533.04 577.488C476.733 592.402 420.607 566.142 377.426 548.485C374.53 547.296 371.67 546.222 368.629 545.197C327.037 530.209 289.92 508.767 241.886 495.68C157.486 472.623 51.8473 486.239 -26.2417 512.257C-105.95 538.722 -162.123 573.355 -207.989 607.256" stroke="white" stroke-width="0.2" stroke-miterlimit="10"/>
<path d="M1567.7 20.7885C1559.4 55.133 1544.28 93.97 1508.76 131.106C1487.58 153.223 1459.13 175.736 1430.23 191.039C1408.05 202.75 1384.87 209.891 1362.43 210.49C1352.78 210.794 1344.14 209.947 1335.9 208.494C1312.43 204.407 1292.97 194.246 1271.78 180.959C1255.16 170.511 1237.59 157.591 1219.7 144.885C1211.25 138.892 1202.62 132.948 1193.52 127.382C1161.49 107.271 1125.44 90.629 1086.35 80.666C1052.95 72.1144 1017.06 68.2243 980.183 70.6965C971.959 71.2259 963.841 72.0993 955.577 73.1369C885.147 82.6295 813.985 116.055 764.917 161.897C754.596 171.578 745.024 181.798 736.74 192.408C706.511 230.94 690.285 272.566 679.148 314.901C665.106 368.225 659.124 423.052 638.664 475.786C623.5 515.131 594.274 557.611 546.601 577.846C541.233 580.073 535.795 582.07 530.003 583.544C474.16 598.703 418.458 573.195 376.222 554.16C373.472 552.806 370.577 551.617 367.716 550.543C327.54 533.797 291.765 510.991 244.705 497.262C161.536 473.121 55.7749 488.261 -22.1641 517.344C-101.328 546.889 -156.968 585.848 -203.306 623.979" stroke="white" stroke-width="0.2" stroke-miterlimit="10"/>
<path d="M1567.91 21.4766C1559.37 58.2476 1544.88 99.1482 1509.3 137.415C1488.49 160.056 1459.63 182.554 1430.03 197.432C1407.2 208.948 1383.13 215.715 1359.94 215.775C1350 215.784 1341.08 214.643 1332.52 212.781C1308.52 207.598 1288.82 196.011 1267.86 181.543C1251.54 170.144 1234.55 156.567 1216.95 143.532C1208.64 137.374 1200.02 131.43 1190.88 125.75C1158.6 105.459 1121.69 89.18 1081.76 79.6946C1047.53 71.6204 1010.85 68.3225 973.211 71.5015C964.843 72.1952 956.579 73.2328 948.17 74.4348C876.974 85.257 806.02 119.37 757.127 165.786C746.841 175.581 737.483 185.866 729.054 196.641C698.93 235.517 683.382 277.453 672.709 320.032C659.166 373.715 653.648 428.787 634.082 481.896C619.638 521.042 591.381 563.503 544.317 583.819C539.164 586.111 533.691 587.993 527.934 589.582C472.59 605.1 417.096 580.28 375.952 559.701C373.202 558.348 370.452 556.994 367.736 555.755C328.832 537.416 294.722 513.033 248.458 498.712C166.664 473.321 60.4561 490.2 -17.3329 522.348C-95.9868 554.858 -151.06 598.257 -198.049 640.668" stroke="white" stroke-width="0.2" stroke-miterlimit="10"/>
<path d="M1568.3 22.1149C1559.34 61.3621 1545.83 104.227 1510.25 143.74C1489.39 166.889 1460.32 189.322 1429.86 203.94C1406.38 215.261 1381.42 221.653 1357.45 221.059C1347.23 220.774 1337.84 219.389 1329.14 217.067C1304.4 210.723 1284.47 197.711 1263.91 182.012C1247.7 169.711 1231.29 155.477 1214.01 142.229C1205.86 135.906 1197.19 129.848 1188.06 124.167C1155.71 103.647 1117.93 87.731 1077.18 78.7231C1042.08 71.0118 1004.46 68.4702 966.421 72.2567C957.907 73.1147 949.464 74.202 941.124 75.6332C869.127 87.6704 798.237 122.636 749.552 169.739C739.3 179.649 729.978 190.049 721.763 200.889C691.958 240.173 676.66 282.289 666.451 325.113C653.407 379.155 648.533 434.422 629.68 487.956C615.956 526.904 588.669 569.345 542.214 589.742C537.06 592.033 531.622 594.031 526.045 595.569C470.986 611.382 415.881 587.2 375.898 565.307C373.292 563.789 370.542 562.436 367.972 561.033C330.484 540.936 297.895 515.139 252.246 500.276C171.683 473.799 65.1728 492.253 -12.2864 527.416C-90.4304 562.892 -144.936 610.731 -192.397 657.372" stroke="white" stroke-width="0.2" stroke-miterlimit="10"/>
<path d="M1568.65 22.6383C1559.46 64.312 1546.58 109.241 1510.98 149.999C1490.44 173.557 1460.98 195.975 1429.69 210.447C1405.39 221.623 1379.75 227.705 1354.96 226.343C1344.27 225.814 1334.74 223.97 1325.76 221.354C1300.32 213.962 1280.29 199.36 1259.96 182.481C1244.05 169.229 1228.04 154.387 1211.05 140.81C1202.86 134.373 1194.34 128.15 1185.18 122.355C1152.57 101.656 1114.11 86.0524 1072.35 77.5716C1036.42 70.3378 998.005 68.3884 959.204 72.8817C950.725 73.8543 942.136 75.1059 933.472 76.7511C860.708 90.1179 790.062 125.886 741.516 173.448C731.299 183.473 722.011 193.987 713.831 204.941C684.165 244.685 669.512 286.995 659.587 330.113C647.187 384.351 642.812 439.977 624.493 493.984C611.488 532.734 584.99 575.206 539.325 595.633C534.171 597.925 528.913 599.873 523.191 601.576C468.596 617.633 413.734 594.254 374.842 570.817C372.237 569.299 369.632 567.781 367.207 566.214C330.81 544.574 300.067 517.149 255.179 501.579C175.957 473.739 68.999 493.931 -8.27536 532.273C-85.9096 570.715 -139.848 622.995 -187.959 673.915" stroke="white" stroke-width="0.2" stroke-miterlimit="10"/>
<path d="M1568.86 23.3264C1559.47 67.5413 1547.35 114.369 1511.56 156.423C1491.16 180.44 1461.34 202.957 1429.34 217.005C1404.4 227.986 1377.68 233.743 1352.11 231.727C1341.14 230.903 1331.32 228.765 1322.02 225.74C1295.84 217.187 1275.61 201.274 1255.68 183.164C1240.1 169.075 1224.64 153.462 1207.76 139.606C1199.71 133.005 1191.16 126.667 1182 120.872C1149.32 99.9431 1109.78 84.6379 1067.22 76.7492C1030.47 69.9929 991.256 68.6356 951.84 73.6714C943.216 74.8083 934.482 76.2242 925.852 77.984C852.252 92.4512 781.704 129.186 733.332 177.321C723.151 187.461 713.897 198.09 705.932 209.109C676.55 249.147 662.181 291.751 652.755 335.229C640.854 389.826 636.978 445.812 619.518 500.079C607.053 538.679 581.739 581.198 536.503 601.755C531.349 604.046 526.126 606.109 520.583 607.762C466.452 624.064 411.799 601.373 374.069 576.622C371.609 574.94 369.184 573.372 366.724 571.69C331.778 548.407 302.342 519.504 258.428 503.292C180.257 474.417 73.1766 496.133 -3.98264 537.426C-81.1071 578.833 -134.478 635.553 -183.241 690.754" stroke="white" stroke-width="0.2" stroke-miterlimit="10"/>
<path d="M1569.25 23.9645C1559.61 70.6058 1548.13 119.498 1512.47 162.633C1492.21 187.108 1461.99 209.61 1429.13 223.398C1403.51 234.069 1375.94 239.566 1349.58 236.897C1338.33 235.779 1328.05 233.396 1318.61 229.912C1291.71 220.311 1271.21 202.859 1251.69 183.519C1236.23 168.528 1221.35 152.257 1204.8 138.187C1196.89 131.422 1188.34 125.084 1179.14 119.174C1146.22 98.066 1105.99 83.0739 1062.42 75.7124C1024.84 69.4335 984.651 68.718 944.654 74.411C935.885 75.7122 927.006 77.2924 918.196 79.1018C843.83 94.8987 773.49 132.322 725.327 181.144C715.18 191.399 705.962 202.142 698.031 213.276C668.789 253.772 654.883 296.622 645.887 340.229C634.665 395.136 631.074 451.416 614.507 506.058C602.727 544.345 578.416 586.96 533.79 607.597C528.851 609.954 523.592 611.901 518.085 613.669C464.418 630.216 409.829 608.377 373.37 582.032C370.909 580.35 368.595 578.504 366.314 576.773C332.786 551.732 304.87 521.415 261.752 504.611C184.811 474.65 77.2485 497.991 0.599083 542.249C-76.1955 586.671 -128.819 647.783 -178.018 707.328" stroke="white" stroke-width="0.2" stroke-miterlimit="10"/>
<path d="M1569.6 24.4884C1559.73 73.5562 1549.01 124.347 1513.2 168.893C1477.39 213.438 1409.07 249.807 1347.09 242.182C1276.23 233.53 1246.38 176.288 1201.87 136.884C1141.16 83.311 1038.57 59.4325 937.719 75.3308C836.868 91.2291 740.768 146.569 690.382 217.623C624.971 309.845 638.473 413.468 609.782 512.332C597.495 554.734 569.939 602.717 515.692 619.921C462.345 636.876 408.289 615.511 372.811 587.902C337.298 560.178 310.289 525.138 265.036 506.438C189.291 475.278 81.4266 500.193 4.96189 547.631C-71.3229 595.018 -123.379 660.57 -173.23 724.395" stroke="white" stroke-width="0.2" stroke-miterlimit="10"/>
</svg>
