<svg width="1192" height="480" viewBox="0 0 1192 480" fill="none" xmlns="http://www.w3.org/2000/svg">
<path d="M1207.29 149.671C1276.27 219.234 1244.84 301.095 1146.48 307.549C1076.31 312.032 992.005 283.947 915.087 254.881C841.338 227.037 767.058 197.074 691.688 180.196C616.319 163.319 537.547 161.561 494.384 188.826C406.372 244.168 502.619 381.289 435.255 449.311C380.241 504.76 232.582 491.885 109.95 446.674C-12.6812 401.463 -119.874 331.251 -231.448 268.916C-343.022 206.582 -471.915 147.93 -592.071 140.473C-702.983 133.538 -784.459 172.154 -841.156 220.089C-976.336 334.689 -1113.37 361.02 -1023.76 543.188" stroke="#98774A" stroke-width="0.5" stroke-miterlimit="10"/>
<path d="M1210.45 153.103C1240.81 183.622 1250.43 216.627 1243.49 243.583C1234.79 277.862 1200.56 303.542 1145.98 306.162C1095.8 308.563 1038.85 294.383 982.158 275.345C960.283 267.927 938.427 259.839 917.047 251.71C888.62 240.864 860.079 229.861 831.281 219.548C786.026 203.342 740.952 189.121 695.62 179.758C678.859 176.226 661.955 173.54 645.26 171.837C589.261 165.911 536.879 170.506 504.799 191.829C497.056 196.844 491.188 202.694 486.139 208.973C462.963 238.686 466.404 280.238 469.712 322.301C473.685 370.142 477.182 418.025 443.377 449.837C431.165 461.58 414.535 470.042 394.782 475.611C324.141 495.814 214.048 479.627 118.759 444.132C104.188 438.74 89.865 432.993 75.7898 426.891C-28.7363 382.202 -123.184 321.455 -221.137 267.018C-313.129 215.893 -417.311 167.505 -517.946 148.653C-539.089 144.672 -559.917 142.164 -580.307 140.951C-689.63 135.201 -767.618 175.558 -826.53 221.579C-970.005 334.38 -1107.93 369.323 -1017.71 552.833" stroke="#98774A" stroke-width="0.5" stroke-miterlimit="10"/>
<path d="M1213.73 156.66C1243.87 187.241 1251.96 219.925 1244.21 246.153C1234.24 279.088 1199.45 303.349 1145.59 304.908C1095.77 306.445 1039.65 291.671 983.77 272.368C962.124 264.918 940.497 256.8 919.347 248.639C890.908 237.779 862.355 226.762 833.773 216.749C788.604 201.013 743.96 187.736 699.886 179.418C683.461 176.352 667.016 173.956 651.02 172.523C596.752 167.605 546.58 173.18 515.909 194.742C508.515 199.9 502.884 205.738 498.072 212.005C476.071 241.989 479.641 283.419 482.611 325.069C485.771 372.546 486.93 419.365 452.077 450.144C439.281 461.453 422.655 469.593 402.665 474.855C331.675 493.947 222.624 477.144 127.771 441.56C113.432 436.141 99.1036 430.386 85.0224 424.276C-18.8338 379.465 -112.98 319.108 -210.519 265.226C-302.561 214.368 -406.693 166.743 -506.797 148.652C-527.834 144.823 -548.318 142.448 -568.611 141.726C-676.348 137.163 -751.322 179.314 -811.863 223.536C-964.234 334.433 -1102.45 378.132 -1011.62 563.01" stroke="#98774A" stroke-width="0.5" stroke-miterlimit="10"/>
<path d="M1216.79 160.007C1246.82 190.467 1253.62 223.138 1244.58 248.34C1233.22 280.099 1198.35 302.892 1145.09 303.563C1095.64 304.234 1040.34 288.867 985.156 269.479C963.626 261.843 942.229 253.694 921.071 245.524C892.86 234.63 864.411 223.758 836.047 214.048C791.205 198.765 746.992 186.437 703.942 179.188C687.978 176.413 672.109 174.464 656.45 173.501C604.031 169.751 555.72 176.172 526.814 198.106C520.009 203.386 514.377 209.231 509.802 215.484C488.864 245.578 492.915 287.016 495.069 328.286C497.415 375.391 496.348 421.291 460.57 450.851C447.427 461.702 430.453 469.38 410.582 474.471C339.131 492.289 231.129 474.87 136.955 439.183C122.612 433.757 108.516 427.975 94.4292 421.858C-8.87456 377.111 -102.591 316.976 -199.824 263.503C-291.796 213.078 -395.862 165.89 -495.2 148.88C-516.016 145.36 -536.392 143.14 -556.34 142.553C-662.483 139.181 -734.201 183.102 -796.722 225.378C-957.636 334.483 -1096.74 386.836 -1004.7 573.17" stroke="#98774A" stroke-width="0.5" stroke-miterlimit="10"/>
<path d="M1219.95 163.451C1250 193.948 1255.26 226.292 1245.42 250.759C1232.9 281.32 1197.59 302.506 1144.94 302.287C1096.08 302.068 1041.49 286.286 987.126 266.633C965.826 258.967 944.545 250.63 923.732 242.587C895.749 231.659 867.289 220.774 838.905 211.388C794.037 196.423 750.723 185.339 708.582 179.005C692.956 176.698 677.549 175.042 662.59 174.35C611.783 171.792 565.811 179.019 538.317 201.191C531.749 206.455 526.468 212.444 522.369 218.663C502.608 249.025 507.141 290.472 508.603 331.185C510.248 378.075 506.963 422.721 469.898 451.259C456.408 461.652 439.2 469.025 418.979 473.651C347.181 490.349 239.988 472.334 146.733 436.521C132.622 431.067 118.521 425.279 104.429 419.154C1.80097 374.291 -91.2565 314.692 -188.661 261.669C-280.564 211.676 -384.689 165.103 -483.491 148.86C-504.199 145.494 -524.354 143.586 -543.956 143.136C-648.391 141.114 -717.317 186.516 -781.353 227.136C-951.533 334.513 -1090.68 395.638 -998.158 583.164" stroke="#98774A" stroke-width="0.5" stroke-miterlimit="10"/>
<path d="M1222.83 166.933C1252.54 197.328 1256.62 229.477 1245.61 253.07C1231.7 282.449 1195.95 302.021 1143.9 300.91C1095.41 299.82 1041.65 283.443 987.982 263.706C967.152 255.99 945.864 247.644 925.168 239.413C897.175 228.474 868.819 217.734 840.541 208.496C796 193.987 753.12 183.857 712.006 178.598C696.841 176.583 681.773 175.397 667.277 174.999C618.323 173.615 574.455 181.67 548.489 204.234C542.272 209.642 537.228 215.616 533.481 221.979C514.899 252.607 519.799 293.901 520.684 334.209C521.512 380.722 515.884 424.285 477.769 451.774C463.933 461.707 446.491 468.774 426.273 473.069C354.253 488.464 247.874 469.853 155.302 433.938C141.187 428.479 127.319 422.663 113.575 416.668C11.6263 371.692 -81.1218 312.5 -178.217 259.891C-270.163 210.179 -373.99 164.364 -472.252 148.891C-492.853 145.679 -512.9 143.927 -532.279 143.791C-635.002 143.123 -701.018 190.164 -766.797 228.805C-945.882 334.238 -1085.08 404.15 -991.709 592.99" stroke="#98774A" stroke-width="0.5" stroke-miterlimit="10"/>
<path d="M1224.73 170.024C1254.43 200.405 1257.1 232.33 1244.81 254.852C1229.63 282.821 1193.68 301.062 1142.14 298.902C1094.04 296.941 1041.25 280.151 988.315 260.024C967.611 252.133 946.565 243.769 925.985 235.699C898.235 224.744 869.883 214.009 841.952 205.246C797.523 191.238 755.335 182.056 715.265 177.881C700.446 176.338 686.085 175.426 672.058 175.321C624.98 175.113 583.234 183.982 558.454 206.767C552.476 212.151 548.023 218.238 544.277 224.598C527.117 255.422 532.139 296.519 532.316 336.536C532.437 382.754 524.701 425.143 485.436 451.381C471.258 460.837 453.589 467.586 433.145 471.564C360.809 485.808 255.531 466.606 163.687 430.644C149.573 425.187 135.708 419.374 122.204 413.361C20.8609 368.52 -71.4063 309.648 -168.03 257.692C-259.857 208.495 -363.451 163.351 -461.252 148.85C-481.735 145.797 -501.312 144.339 -520.46 144.518C-621.539 145.046 -684.62 193.649 -751.89 230.562C-940.292 333.92 -1079.48 412.51 -985.328 602.367" stroke="#98774A" stroke-width="0.5" stroke-miterlimit="10"/>
<path d="M1225.06 172.829C1254.62 202.965 1255.85 234.587 1242.52 256.299C1225.96 282.971 1189.85 299.504 1138.86 296.301C1091.42 293.455 1039.52 276.136 987.106 256.024C966.66 248.134 945.871 239.773 925.434 231.548C897.708 220.624 869.734 210.055 841.704 201.495C797.657 187.996 755.716 179.824 716.956 176.715C702.617 175.47 688.611 175.03 675.176 175.375C630.004 176.338 590.406 185.995 567.175 209.078C561.554 214.582 557.342 220.63 553.835 226.95C537.865 257.913 543.35 298.848 542.824 338.139C542.117 383.793 532.034 424.927 491.758 450.008C477.361 459.122 459.362 465.379 438.943 469.01C366.226 481.911 262.125 462.164 170.84 426.262C156.977 420.799 143.123 415.002 129.632 409.006C29.0961 364.23 -62.7402 305.998 -158.817 254.818C-250.568 206.097 -353.972 161.907 -450.88 148.208C-471.231 145.32 -490.564 144.179 -509.343 144.493C-608.71 146.208 -669.063 196.266 -737.656 231.184C-935.604 332.074 -1074.12 419.226 -979.515 609.648" stroke="#98774A" stroke-width="0.5" stroke-miterlimit="10"/>
<path d="M1225.26 175.555C1254.43 205.467 1254.59 236.923 1240.23 257.495C1222.53 282.857 1185.78 297.732 1135.45 293.65C1088.31 289.787 1037.54 272.257 986.013 251.962C965.824 244.073 945.177 235.559 925.111 227.493C897.649 216.579 869.578 206.217 841.686 197.838C797.784 184.868 756.679 177.813 718.876 175.63C705.129 174.836 691.601 174.689 678.645 175.325C635.376 177.451 597.684 187.913 576.239 211.271C571.211 216.873 567.002 222.903 563.849 229.34C549.066 260.439 554.663 301.076 553.548 339.802C552.127 385.05 539.941 424.913 498.419 448.864C483.451 457.502 465.476 463.406 445.083 466.691C372.101 478.413 269.177 458.126 178.69 422.263C164.84 416.816 151.237 411.015 137.758 405.036C37.9061 360.503 -53.3749 302.731 -149.256 252.188C-240.815 204.098 -343.905 160.681 -440.395 147.822C-460.615 145.098 -479.816 144.116 -498.114 144.72C-595.656 147.771 -653.512 198.962 -723.435 232.228C-930.909 330.661 -1068.74 426.322 -973.461 617.281" stroke="#98774A" stroke-width="0.5" stroke-miterlimit="10"/>
<path d="M1225.7 178.465C1254.84 208.293 1253.71 239.273 1237.95 258.912C1219.11 282.972 1182.07 296.336 1132.29 291.223C1085.58 286.506 1035.69 268.452 984.815 247.994C964.767 239.951 944.615 231.418 924.329 223.396C896.778 212.355 869.084 202.158 841.559 194.269C797.8 181.823 757.415 175.723 720.918 174.596C707.411 174.116 694.474 174.416 681.994 175.341C640.387 178.645 605.073 189.866 585.059 213.364C580.271 218.929 576.416 225.077 573.74 231.453C560.143 262.692 566.088 303.014 564.387 341.182C562.141 385.873 547.617 424.498 505.088 447.307C489.789 455.451 471.599 461.025 450.881 463.832C377.519 474.227 275.769 453.401 186.077 417.574C172.478 412.122 158.888 406.336 145.421 400.374C46.3737 355.902 -44.4782 298.76 -139.814 248.983C-230.946 201.494 -334.198 158.884 -429.922 146.994C-450.01 144.433 -468.73 143.744 -487.136 144.523C-582.972 148.747 -638.223 201.224 -709.349 232.675C-926.334 328.672 -1063.74 432.823 -967.771 624.329" stroke="#98774A" stroke-width="0.5" stroke-miterlimit="10"/>
<path d="M1225.97 181.218C1254.97 210.806 1252.41 241.488 1235.62 260.333C1215.29 282.963 1178.2 294.803 1129.08 288.822C1082.79 283.255 1033.92 264.836 983.919 244.197C964.128 236.156 944.232 227.626 924.203 219.605C896.915 208.575 869.36 198.561 841.737 190.871C798.245 178.77 758.455 173.796 723.024 173.739C710.109 173.706 697.411 174.316 685.644 175.507C645.82 179.806 612.757 191.958 594.285 215.75C589.852 221.434 586.474 227.522 583.799 233.88C571.385 265.256 577.679 305.265 575.155 342.897C572.085 387.033 555.58 424.559 511.933 446.076C496.304 453.729 477.9 458.975 457.209 461.44C383.585 470.672 283.009 449.31 194.113 413.521C180.526 408.084 167.186 402.294 153.97 396.328C55.8424 352.074 -34.6933 295.404 -129.596 246.234C-220.651 199.211 -323.59 157.363 -418.546 146.437C-438.389 144.194 -456.978 143.662 -474.904 144.728C-569.034 150.118 -621.684 203.872 -694.01 233.518C-921.187 326.819 -1057.1 439.81 -960.81 631.72" stroke="#98774A" stroke-width="0.5" stroke-miterlimit="10"/>
<path d="M1226.24 184.032C1254.97 213.558 1251.23 243.926 1233.18 261.672C1211.71 283.018 1173.99 293.23 1125.53 286.384C1079.9 279.952 1031.68 261.035 982.438 240.39C963.025 232.173 943.148 223.667 923.137 215.668C896.111 204.647 868.344 194.68 840.973 187.321C797.624 175.738 758.551 171.707 724.184 172.714C711.507 172.991 699.636 174.023 688.22 175.676C650.288 181.12 619.472 194.199 602.074 217.997C597.882 223.643 594.857 229.849 592.534 236.324C581.539 267.818 587.944 307.539 584.836 344.62C581.057 388.362 562.347 424.489 517.461 444.899C501.502 452.064 482.885 456.984 461.983 459.132C387.983 467.051 288.578 445.156 200.476 409.402C187.139 403.959 173.811 398.184 160.607 392.234C63.0445 348.059 -26.5883 291.969 -121.185 243.574C-212.051 197.166 -314.915 156.093 -409.107 146.125C-428.819 144.042 -447.279 143.666 -464.724 145.018C-557.041 151.724 -607.445 206.618 -680.617 234.605C-917.62 325.367 -1052.76 446.889 -955.549 639.329" stroke="#98774A" stroke-width="0.5" stroke-miterlimit="10"/>
<path d="M1226.52 186.812C1255.11 216.102 1249.95 246.178 1231.11 263.12C1208.51 283.187 1170.4 291.76 1122.59 284.054C1077.38 276.783 1030.4 257.484 981.804 236.678C962.647 228.463 942.911 219.805 923.27 211.961C896.269 200.97 868.878 191.165 841.759 184.135C798.79 173.047 760.196 169.975 726.891 172.04C714.803 172.759 703.055 173.943 692.465 176.014C656.422 182.596 627.498 196.463 611.875 220.533C608.036 226.298 605.249 232.466 603.165 238.901C593.349 270.534 599.978 310.123 596.173 346.501C591.574 389.697 570.654 424.762 524.656 443.895C508.481 450.73 489.538 455.171 468.663 456.982C394.403 463.751 296.169 441.326 208.86 405.607C195.535 400.178 182.22 394.42 169.266 388.465C72.5058 344.348 -16.5856 289.032 -111.102 241.099C-201.778 195.302 -304.33 154.979 -397.872 145.809C-417.453 143.886 -435.556 143.974 -452.75 145.301C-543.709 152.696 -591.293 209.168 -665.545 235.525C-912.818 323.471 -1046.48 453.744 -948.83 646.752" stroke="#98774A" stroke-width="0.5" stroke-miterlimit="10"/>
<path d="M1227.1 189.863C1255.65 219.073 1249.32 248.839 1228.99 264.715C1205.25 283.512 1166.75 290.455 1119.6 281.894C1074.7 273.633 1028.72 253.974 980.763 233.008C961.747 224.64 942.381 216.139 922.881 208.141C896.142 197.159 868.776 187.379 841.672 180.696C798.845 170.121 761.533 168.753 728.607 170.945C716.879 171.796 705.833 173.572 695.478 175.946C661.321 183.661 634.523 198.291 620.32 222.501C617.071 228.363 614.286 234.513 612.676 240.89C604.038 272.661 611.014 311.946 606.628 347.781C601.21 390.436 578.208 424.271 530.976 442.31C514.473 448.662 495.204 452.628 474.119 454.124C399.486 459.596 302.421 436.642 215.666 400.977C202.354 395.563 189.288 389.799 176.346 383.861C80.2637 339.975 -8.27772 285.095 -102.251 237.908C-192.852 192.563 -295.215 153.16 -388.109 144.783C-407.559 143.019 -425.296 143.24 -442.486 144.892C-531.409 153.899 -577.097 211.036 -652.076 235.907C-909.6 321.057 -1041.79 460.038 -943.465 653.597" stroke="#98774A" stroke-width="0.5" stroke-miterlimit="10"/>
<path d="M1227.39 192.684C1255.57 221.681 1248.06 251.14 1226.59 266.089C1201.62 283.468 1162.71 289.119 1116.11 279.554C1071.62 270.462 1026.64 250.445 979.568 229.299C960.806 220.933 941.581 212.28 922.213 204.457C895.499 193.503 868.271 183.904 841.305 177.392C798.857 167.305 761.567 166.268 730.153 170.125C718.889 171.589 708.202 173.493 698.556 176.127C666.169 184.815 641.605 200.359 628.935 224.861C625.924 230.686 623.727 236.933 622.117 243.292C614.655 275.202 621.979 314.184 616.776 349.501C610.654 391.771 585.573 424.384 537.234 441.161C520.403 447.033 500.924 450.679 479.866 451.842C404.862 456.024 308.841 432.719 223.001 396.913C209.937 391.493 196.884 385.744 184.19 379.801C88.9088 335.97 0.793072 281.699 -92.6378 235.253C-183.05 190.51 -285.101 151.847 -377.47 144.433C-396.79 142.826 -414.399 143.2 -430.997 145.288C-517.992 155.416 -561.683 213.698 -637.5 236.939C-905.718 319.021 -1036.21 466.971 -937.215 661.081" stroke="#98774A" stroke-width="0.5" stroke-miterlimit="10"/>
<path d="M1227.68 195.574C1255.82 224.494 1246.91 253.668 1224.3 267.696C1198.2 283.82 1158.9 287.857 1112.96 277.447C1069.13 267.509 1024.8 247.002 978.475 225.85C959.968 217.485 940.998 208.834 921.77 200.857C895.318 189.912 868.115 180.337 841.512 174.302C799.206 164.722 762.628 164.607 732.27 169.507C721.478 171.252 711.377 173.591 702.078 176.678C671.57 186.488 649.124 202.787 637.87 227.428C635.211 233.371 633.251 239.58 631.991 246.055C625.94 278.084 633.373 316.788 627.592 351.569C620.654 393.306 593.263 424.724 544.045 440.554C526.887 445.949 507.197 449.278 486.167 450.109C410.793 453.008 316.051 429.333 231 393.558C217.949 388.152 205.144 382.398 192.462 376.47C98.0927 332.846 10.2885 279.024 -82.7147 233.16C-172.938 189.015 -274.916 151.106 -366.402 144.455C-385.592 143.006 -402.959 143.685 -419.193 145.9C-504.386 157.317 -545.724 216.547 -622.502 238.341C-902.218 317.282 -1030.68 474.292 -931.239 668.979" stroke="#98774A" stroke-width="0.5" stroke-miterlimit="10"/>
<path d="M1227.79 198.428C1255.79 227.122 1245.71 255.995 1221.96 269.108C1194.97 283.965 1154.81 286.439 1109.76 275.166C1066.35 264.405 1022.9 243.388 977.568 222.208C959.437 213.67 940.483 205.041 921.623 197.217C895.431 186.279 868.365 176.88 841.663 171.033C799.619 161.783 763.628 162.758 734.323 168.696C724.116 170.875 714.248 173.514 705.656 176.858C677.023 187.785 656.454 204.859 646.727 229.793C644.305 235.7 642.696 242.026 641.673 248.464C636.793 280.635 644.337 319.066 638.091 353.471C630.453 394.835 600.991 425.047 550.432 439.65C532.826 444.745 513.284 447.564 491.809 448.106C416.177 449.883 322.483 425.531 238.218 389.784C225.415 384.371 212.622 378.632 200.065 372.872C106.254 329.316 19.1078 276.069 -73.594 230.952C-163.745 187.244 -265.303 150.216 -356.382 144.364C-375.33 143.224 -392.569 144.054 -408.677 146.415C-492.186 158.964 -531.413 219.162 -609.149 239.519C-898.807 315.048 -1025.47 481.107 -925.122 676.347" stroke="#98774A" stroke-width="0.5" stroke-miterlimit="10"/>
<path d="M1228.12 201.353C1255.75 229.836 1244.85 258.537 1219.73 270.758C1191.63 284.371 1151.08 285.249 1106.45 273.162C1063.35 261.431 1021.24 240.196 976.201 218.727C958.324 210.192 939.512 201.412 920.67 193.609C894.503 182.7 867.464 173.327 841.013 167.8C799.111 159.051 763.831 160.939 735.578 167.907C725.606 170.386 716.323 173.455 708.2 177.074C681.327 188.958 662.983 206.931 654.78 232.153C652.709 238.176 651.572 244.444 650.785 250.844C647.074 283.151 655.077 321.435 648.142 355.155C639.691 395.987 608.278 425.147 556.621 438.506C538.69 443.128 518.94 445.633 497.38 445.695C421.384 446.202 328.97 421.486 245.496 385.774C232.705 380.376 220.161 374.631 207.616 368.887C114.606 325.386 27.8871 272.74 -64.384 228.202C-154.343 185.089 -255.936 148.657 -345.905 143.867C-364.722 142.882 -381.597 143.841 -397.465 146.5C-479.288 160.172 -516.292 221.475 -594.743 240.379C-895.26 312.905 -1019.78 488.068 -919.003 683.863" stroke="#98774A" stroke-width="0.5" stroke-miterlimit="10"/>
<path d="M1228.46 204.216C1256.06 232.627 1243.75 261.051 1217.39 272.213C1188.28 284.745 1147.23 283.883 1103.26 270.963C1060.81 258.398 1019.35 236.679 975.297 215.181C957.56 206.495 939.115 197.869 920.526 190.066C894.619 179.163 867.717 169.965 841.515 164.756C799.754 156.506 765.18 159.301 737.977 167.296C728.475 170.053 719.774 173.55 711.884 177.464C686.879 190.455 670.641 209.173 663.847 234.534C662.361 240.654 661.224 246.905 660.786 253.421C658.479 285.848 666.591 323.863 658.846 357.079C649.585 397.389 615.873 425.377 563.231 437.654C544.975 441.806 525.016 444 503.249 443.756C427.111 443.305 335.631 417.766 252.706 382.102C240.163 376.697 227.394 370.986 215.097 365.236C122.758 321.955 36.8194 269.705 -55.1502 225.907C-145.036 183.227 -246.208 147.666 -335.771 143.666C-354.459 142.835 -371.094 144.096 -386.487 147.032C-466.631 161.824 -501.53 224.086 -580.699 241.547C-892.17 310.623 -1014.45 495.027 -913.233 691.409" stroke="#98774A" stroke-width="0.5" stroke-miterlimit="10"/>
<path d="M1228.9 207.149C1256.36 235.335 1242.89 263.461 1215.17 273.742C1184.94 285.045 1143.51 282.604 1100.08 268.704C1058.05 255.33 1017.58 233.262 974.166 211.607C956.682 202.922 938.377 194.147 920.042 186.343C894.16 175.468 867.519 166.272 841.331 161.4C799.946 153.625 765.843 157.343 739.689 166.36C730.533 169.565 722.3 173.336 715.114 177.503C691.739 191.613 677.839 211.053 672.564 236.702C671.315 242.786 670.527 249.153 670.323 255.632C669.182 288.197 677.403 325.94 669.321 358.614C659.363 398.554 623.595 425.353 569.622 436.42C551.157 440.258 530.876 441.989 509.138 441.421C432.872 439.692 342.43 413.813 260.292 378.179C247.761 372.787 235.24 367.071 223.19 361.315C131.648 318.084 46.132 266.423 -45.4108 223.192C-134.872 181.075 -236.205 146.272 -324.775 143.17C-343.334 142.493 -359.73 144.053 -374.761 147.113C-453.227 163.018 -486.137 226.078 -565.793 242.407C-888.303 307.894 -1008.23 501.631 -906.345 698.567" stroke="#98774A" stroke-width="0.5" stroke-miterlimit="10"/>
<path d="M1229.39 210.125C1256.58 238.263 1241.95 266.096 1213.34 275.462C1182.23 285.523 1139.94 281.552 1097.41 266.806C1055.68 252.474 1016.2 230.055 973.653 208.22C956.421 199.537 938.369 190.762 919.937 182.825C894.314 171.955 867.574 162.954 841.521 158.244C800.275 150.961 766.877 155.578 741.767 165.613C733.079 169.092 725.314 173.137 718.583 177.9C696.957 192.955 685.269 213.286 681.398 239.075C680.497 245.275 679.944 251.606 679.975 258.049C679.998 290.757 688.565 328.216 679.674 360.394C668.909 399.822 631.199 425.593 575.898 435.459C557.109 438.832 536.619 440.255 514.91 439.365C438.39 436.537 348.991 409.991 267.634 374.382C255.115 369.003 242.841 363.28 230.803 357.538C140.163 314.501 55.0658 263.419 -36.2908 220.766C-125.568 179.224 -226.595 145.129 -314.763 142.809C-333.193 142.284 -349.462 143.992 -364.256 147.347C-441.051 164.362 -471.863 228.378 -552.234 243.28C-885.887 305.054 -1003.48 508.43 -901.035 705.794" stroke="#98774A" stroke-width="0.5" stroke-miterlimit="10"/>
<path d="M1229.66 212.939C1256.71 240.857 1241.04 268.549 1210.95 276.892C1178.85 285.889 1136.06 280.204 1093.94 264.657C1052.87 249.504 1014.27 226.586 972.233 204.764C955.375 195.91 937.34 187.156 919.274 179.37C893.91 168.507 867.307 159.677 841.503 155.281C800.631 148.468 767.353 153.869 743.634 165.046C735.415 168.799 727.993 173.287 721.963 178.3C702.196 194.446 692.367 215.533 690.01 241.611C689.344 247.775 689.374 254.202 689.517 260.779C690.936 293.608 699.613 330.803 690.151 362.467C678.581 401.382 638.698 426.149 582.542 434.78C563.431 437.69 542.734 438.807 520.819 437.616C443.936 433.542 355.806 406.637 275.231 371.054C262.959 365.668 250.696 359.959 238.67 354.231C148.586 311.258 64.1438 260.734 -26.6766 218.789C-115.88 177.67 -216.487 144.432 -304.251 142.891C-322.553 142.518 -338.347 144.503 -353.016 148C-428.028 166.27 -456.624 231.064 -537.828 244.717C-882.595 302.792 -997.732 515.579 -894.623 713.513" stroke="#98774A" stroke-width="0.5" stroke-miterlimit="10"/>
<path d="M1230.12 215.882C1257.15 243.732 1240.31 271.133 1208.87 278.61C1175.66 286.398 1132.5 279.157 1091.03 262.793C1050.26 246.691 1012.76 223.578 971.591 201.577C954.985 192.725 937.324 183.801 919.04 176.053C893.7 165.215 867.357 156.387 841.565 152.322C800.719 145.846 768.256 152.288 745.579 164.473C737.703 168.668 730.747 173.427 725.182 178.709C707.157 195.79 699.644 217.912 698.574 243.976C698.255 250.256 698.519 256.647 699.131 263.169C701.71 296.139 710.496 333.072 700.7 364.206C688.438 402.764 646.51 426.362 589.144 433.954C569.824 436.555 548.694 437.064 526.808 435.554C449.675 430.393 362.587 402.828 282.793 367.269C270.532 361.895 258.517 356.181 246.501 350.466C157.32 307.687 73.1837 257.585 -17.2144 216.192C-106.232 175.643 -206.768 143.126 -293.546 142.471C-311.607 142.4 -327.276 144.531 -341.472 148.3C-414.817 167.669 -441.435 233.258 -523.236 245.649C-879.322 299.744 -992.024 522.226 -888.249 720.732" stroke="#98774A" stroke-width="0.5" stroke-miterlimit="10"/>
<path d="M1230.49 218.798C1257.14 246.452 1239.27 273.718 1206.59 280.163C1172.39 286.898 1128.73 277.958 1087.91 260.78C1047.79 243.863 1010.93 220.272 970.506 198.262C954.038 189.259 936.741 180.487 918.708 172.736C893.626 161.904 867.184 153.266 841.526 149.36C801.053 143.35 769.055 150.697 747.417 163.886C740.006 168.352 733.628 173.531 728.526 179.081C712.353 197.245 706.928 220.098 707.366 246.453C707.517 252.678 707.892 259.204 708.738 265.691C712.822 298.935 721.717 335.61 711.005 366.108C697.94 404.163 654.083 426.751 595.394 433.159C575.753 435.302 554.417 435.509 532.325 433.7C454.829 427.305 368.769 399.402 289.753 363.865C277.738 358.484 265.733 352.782 253.729 347.081C165.335 304.34 81.6133 254.805 -8.48815 214.128C-97.3227 174.144 -197.554 142.322 -283.933 142.437C-301.867 142.516 -317.41 144.792 -331.37 148.853C-403.053 169.317 -427.697 235.704 -509.982 246.99C-877.251 296.959 -987.413 529.258 -883.204 728.372" stroke="#98774A" stroke-width="0.5" stroke-miterlimit="10"/>
<path d="M1231.02 221.763C1257.53 249.202 1238.72 276.481 1204.71 281.749C1169.64 287.266 1125.13 276.825 1084.96 258.837C1045.26 241.13 1009.38 217.194 969.71 194.856C953.492 185.855 936.335 176.933 918.553 169.18C893.382 158.223 867.311 149.735 842.013 146.287C801.677 140.76 770.38 148.99 749.778 163.177C742.598 167.932 736.796 173.529 732.269 179.496C717.709 198.757 714.602 222.317 716.547 248.96C717.044 255.301 717.888 261.772 718.732 268.242C723.971 301.628 733.21 338.027 721.932 368.021C707.831 405.594 661.834 426.554 602.277 432.385C582.54 434.372 560.773 433.977 538.711 431.852C460.967 424.379 375.946 395.821 297.708 360.306C285.592 354.788 273.711 349.249 262.187 343.521C174.345 300.84 91.5105 251.831 1.59494 211.719C-87.1672 172.147 -187.216 141.188 -272.724 142.03C-290.53 142.259 -305.601 144.809 -319.438 149.01C-389.459 170.564 -411.897 237.723 -495.246 247.798C-874.016 293.527 -981.296 535.72 -876.422 735.413" stroke="#98774A" stroke-width="0.5" stroke-miterlimit="10"/>
<path d="M1231.31 224.584C1257.8 251.962 1237.61 278.978 1202.48 283.373C1166.42 287.848 1121.42 275.723 1081.9 256.927C1042.73 238.261 1007.84 213.981 968.675 191.653C952.829 182.482 935.687 173.58 918.034 165.995C893.12 155.042 867.184 146.722 841.785 143.451C801.586 138.404 770.985 147.513 751.419 162.695C744.815 167.869 739.475 173.732 735.411 179.965C722.584 200.151 721.434 224.606 725.005 251.369C725.847 257.825 726.924 264.262 728.113 270.848C734.506 304.378 743.855 340.524 732.122 370.169C717.222 407.246 669.517 427.827 608.663 431.845C588.494 433.228 566.633 432.684 544.366 430.264C466.261 421.568 382.498 392.654 305.035 357.159C293.165 351.633 281.294 346.107 269.781 340.391C182.835 297.895 100.301 249.295 10.9152 209.87C-77.6652 170.855 -177.524 140.432 -262.41 142.339C-280.089 142.715 -295.036 145.409 -308.403 149.879C-376.768 172.521 -397.239 240.475 -481.182 249.307C-871.318 290.651 -976.083 542.905 -870.541 743.193" stroke="#98774A" stroke-width="0.5" stroke-miterlimit="10"/>
<path d="M1231.82 227.632C1257.93 254.814 1236.26 281.096 1200.36 285.071C1163.75 289.105 1117.82 274.708 1078.95 255.111C1040.2 235.663 1006.18 210.894 967.991 188.54C952.395 179.372 935.505 170.471 917.991 162.734C893.102 151.807 867.19 143.507 842.039 140.542C802.213 135.954 771.842 145.975 753.431 161.977C747.056 167.436 742.179 173.564 738.688 180.211C727.703 201.463 728.629 226.636 733.466 253.703C734.541 260.124 735.962 266.675 737.618 273.205C745.396 306.854 754.619 342.763 742.557 371.888C726.859 408.465 677.238 428.047 615.074 430.898C594.353 431.848 572.522 430.986 550.174 428.103C471.826 418.341 389.102 388.779 312.418 353.308C300.559 347.795 288.935 342.262 277.433 336.56C191.042 294.125 109.16 246.069 20.197 207.185C-68.1956 168.73 -167.98 139.015 -251.995 141.641C-269.547 142.166 -284.256 145.151 -297.265 149.74C-364.085 173.311 -380.678 244.267 -466.897 249.937C-876.101 277.238 -970.391 549.755 -864.538 750.475" stroke="#98774A" stroke-width="0.5" stroke-miterlimit="10"/>
<path d="M1232.12 230.682C1258.09 257.657 1235.83 284.407 1198.26 286.772C1160.23 289.177 1114.25 273.707 1075.8 253.327C1037.58 232.927 1004.41 207.983 966.737 185.319C951.389 176.15 934.636 167.099 917.484 159.507C892.85 148.583 867.073 140.449 841.932 137.808C802.24 133.696 772.452 144.439 755.183 161.579C749.383 167.454 744.732 173.867 741.935 180.758C732.442 202.949 735.786 228.973 742.011 256.182C743.431 262.718 745.318 269.215 746.972 275.732C756.133 309.508 765.466 345.171 752.606 373.826C736.224 410.065 684.34 428.529 621.097 430.199C600.169 430.849 578.02 429.541 555.701 426.345C476.992 415.37 395.521 385.452 319.606 349.997C307.992 344.475 296.378 338.954 284.998 333.413C199.497 291.157 117.913 243.5 29.2404 205.313C-59.0856 167.256 -158.46 138.367 -241.971 141.899C-259.396 142.571 -273.87 145.848 -286.645 150.724C-351.704 175.525 -367.011 246.379 -453.262 251.567C-871.066 276.854 -965.222 556.539 -858.7 757.874" stroke="#98774A" stroke-width="0.5" stroke-miterlimit="10"/>
<path d="M1232.54 233.594C1258.48 260.51 1234.96 287.149 1196.17 288.505C1157.15 289.882 1110.69 272.751 1072.88 251.573C1035.08 230.396 1003.01 204.942 966.074 182.269C950.863 172.952 934.471 164.05 917.223 156.326C892.847 145.406 867.093 137.29 842.197 134.951C802.763 131.144 773.548 142.924 757.308 161.046C751.735 167.205 747.891 174.01 745.43 181.331C737.772 204.584 743.185 231.324 750.907 258.82C752.792 265.303 754.789 271.934 756.786 278.565C767.095 312.485 776.771 347.88 763.348 376.043C746.172 411.794 692.377 429.272 628.06 429.766C606.815 429.967 584.462 428.364 561.939 424.878C482.984 412.844 402.546 382.278 327.403 346.841C315.8 341.332 304.431 335.803 293.061 330.274C208.342 288.051 127.281 241.094 38.9142 203.288C-48.9952 165.759 -148.535 137.586 -231.416 141.851C-248.714 142.67 -262.831 146.068 -275.372 151.231C-338.782 177.105 -353.016 247.235 -438.859 252.855C-863.036 280.376 -959.618 563.432 -852.433 765.359" stroke="#98774A" stroke-width="0.5" stroke-miterlimit="10"/>
<path d="M1233.01 236.564C1258.69 263.44 1234.14 289.948 1194.02 290.153C1153.91 290.357 1107.08 271.72 1069.92 249.749C1032.76 227.778 1001.44 202.005 965.123 179.174C928.808 156.343 884.256 135.78 842.285 132.196C789.731 127.763 756.162 151.871 748.631 181.844C741.099 211.817 754.615 246.969 766.069 281.032C777.523 315.094 787.542 350.223 773.325 377.917C749.485 424.874 658.674 438.316 567.421 423.083C475.935 407.87 384.541 368.986 300.368 326.815C216.308 284.793 135.781 238.216 47.9421 201.085C-39.8965 163.954 -139.022 136.602 -221.273 141.597C-324.326 148.019 -321.152 248.401 -424.986 253.784C-860.311 276.831 -954.301 570.239 -846.456 772.758" stroke="#98774A" stroke-width="0.5" stroke-miterlimit="10"/>
<path d="M1238.56 237.81C1260.89 261.919 1234.53 285.524 1192.74 284.916C1152.12 284.21 1104.96 265.832 1067.24 244.442C1040.98 229.695 1017.81 213.42 994.152 197.821C983.64 190.782 973.117 184.06 962.004 177.547C926.384 156.298 883.562 137.397 843.229 135.082C807.793 132.989 781.488 144.39 766.308 161.985C759.986 169.488 755.385 177.956 753.217 187.011C745.905 217.413 758.048 252.836 768.024 286.698C776.213 314.53 782.987 342.798 776.465 366.955C775.116 372.456 773.074 377.697 770.105 382.7C743.826 428.64 652.195 441.252 559.991 425.232C539.903 421.692 519.735 417.049 499.71 411.601C428.071 391.794 357.869 360.3 292.058 326.693C208.1 283.837 127.446 236.426 39.705 198.483C-47.3544 161.116 -145.707 133.255 -227.615 137.919C-236.394 138.499 -244.491 139.654 -251.906 141.386C-325.6 158.987 -335.98 232.745 -410.883 248.071C-416.526 249.179 -422.392 249.989 -428.483 250.5C-521.309 256.875 -597.398 276.261 -660.339 304.208C-765.131 351.041 -832.973 421.23 -866.563 497.572C-903.728 583.088 -898.304 676.908 -859.922 755.917" stroke="#98774A" stroke-width="0.5" stroke-miterlimit="10"/>
<path d="M1244.35 239.288C1263.42 260.76 1235.25 281.44 1191.79 279.694C1150.66 278.069 1103.17 259.949 1064.77 239.311C1037.98 224.857 1014.39 209.338 990.642 194.946C980.089 188.514 969.536 182.082 958.85 176.139C923.928 156.482 882.954 139.404 844.04 138.07C810.032 136.958 784.838 148.952 770.218 166.739C764 174.426 759.74 183.062 757.683 192.308C750.357 223.169 761.48 258.681 770.085 292.496C776.899 320.254 781.949 348.32 774.036 372.067C772.339 377.463 769.948 382.599 766.629 387.495C737.668 432.436 645.211 444.212 552.174 427.228C531.938 423.522 511.622 418.71 491.684 413.069C419.703 392.558 349.506 360.436 283.472 326.212C199.379 282.528 119.299 234.208 30.9491 195.498C-55.0962 157.868 -153.256 129.378 -234.711 133.86C-243.617 134.292 -251.727 135.454 -259.154 137.194C-332.835 154.391 -343.538 227.717 -416.025 244.176C-421.331 245.42 -426.972 246.214 -433.072 246.728C-522.476 254.586 -595.681 275.085 -656.976 303.494C-759.384 351.286 -830.063 419.802 -866.971 493.109C-908.017 574.883 -907.072 664.099 -874.413 738.703" stroke="#98774A" stroke-width="0.5" stroke-miterlimit="10"/>
<path d="M1249.89 240.878C1265.69 259.69 1235.7 277.421 1190.32 274.546C1148.69 271.993 1100.86 254.133 1062.01 234.233C1034.81 220.224 1010.56 205.486 987.083 192.121C976.612 186.131 966.253 180.291 955.65 174.792C921.427 156.739 882.197 141.35 844.933 141.306C812.471 141.335 788.279 153.778 774.334 171.91C768.456 179.763 764.304 188.591 762.246 197.88C755.141 229.186 765.242 264.792 772.002 298.602C777.671 326.268 780.99 354.132 771.682 377.469C769.636 382.759 766.895 387.789 763.46 392.557C731.929 436.325 638.646 447.26 544.996 429.601C524.613 425.729 504.149 420.745 484.063 414.929C411.739 393.705 341.424 361.117 275.636 326.227C191.408 281.703 111.433 232.502 23.178 192.957C-61.9616 154.907 -159.469 126.06 -240.58 130.208C-249.5 130.643 -257.389 131.79 -264.941 133.389C-338.609 150.18 -349.747 222.926 -419.808 240.53C-424.887 241.76 -430.426 242.709 -436.424 243.376C-522.738 252.602 -592.576 274.186 -652.343 303.233C-752.479 352.168 -825.882 418.831 -865.885 489.063C-910.601 567.37 -914.377 651.647 -887.697 721.831" stroke="#98774A" stroke-width="0.5" stroke-miterlimit="10"/>
<path d="M1255.76 242.55C1268.28 258.681 1236.35 273.285 1189.16 269.421C1147.02 265.933 1098.97 248.482 1059.45 229.023C1031.82 215.462 1007.15 201.489 983.71 189.179C973.322 183.634 962.811 178.26 952.638 173.34C919.119 156.905 881.403 143.237 845.794 144.496C814.771 145.525 791.586 158.423 778.555 176.885C773.016 184.909 768.972 193.93 766.914 203.265C759.909 235.195 768.749 270.922 774.016 304.542C778.414 332.29 780.12 359.784 769.176 382.73C766.78 387.915 763.688 392.838 759.901 397.498C725.904 440.24 631.554 450.347 537.176 431.853C516.644 427.813 496.266 422.635 475.796 416.661C403.005 394.886 332.58 361.501 266.801 325.953C182.672 280.556 102.802 230.457 14.4037 190.083C-69.7161 151.755 -166.682 122.393 -247.562 126.052C-256.262 126.47 -264.512 127.493 -271.728 129.231C-345.496 145.463 -357.081 217.957 -424.708 236.721C-429.682 238.108 -434.882 239.192 -440.655 239.843C-523.521 250.582 -590.452 273.304 -648.797 302.848C-746.53 352.774 -822.443 417.88 -866.135 484.907C-914.649 559.575 -923.051 639.029 -902.373 704.764" stroke="#98774A" stroke-width="0.5" stroke-miterlimit="10"/>
<path d="M1261.81 244.405C1271.03 257.831 1237.27 269.434 1188.15 264.419C1145.49 259.984 1097.11 242.794 1057.13 224.079C1029.09 210.968 1003.98 197.767 980.472 186.368C969.931 181.292 959.851 176.499 949.761 172.031C916.949 157.227 880.989 145.275 846.929 147.697C817.35 149.737 795.288 163.248 782.937 182.068C777.505 190.284 773.693 199.331 771.747 208.864C764.966 241.26 772.54 277.114 776.187 310.72C779.197 338.404 779.162 365.701 767.048 388.216C764.301 393.295 760.857 398.111 756.952 402.644C720.245 444.377 625.294 453.61 530.07 434.119C509.389 429.908 488.862 424.553 468.477 418.379C395.338 395.872 325.026 361.98 259.02 325.783C174.864 279.667 95.2185 228.483 6.43952 187.284C-76.6588 148.669 -173.084 118.782 -253.62 122.102C-262.335 122.522 -270.363 123.53 -277.94 125.146C-351.932 140.989 -363.718 212.897 -428.902 232.834C-433.536 234.36 -438.745 235.45 -444.179 236.237C-523.821 248.525 -587.6 272.38 -644.282 302.412C-739.716 353.194 -818.271 416.91 -865.196 480.672C-917.522 551.679 -930.569 626.278 -915.679 687.511" stroke="#98774A" stroke-width="0.5" stroke-miterlimit="10"/>
<path d="M1267.57 246.085C1273.14 256.647 1238 265.504 1187.18 259.306C1144.12 254.069 1095.05 237.006 1054.74 218.869C1026.16 206.058 1000.75 193.788 977.272 183.461C966.814 178.838 956.931 174.652 946.925 170.639C914.822 157.481 880.739 147.414 848.234 151.012C820.105 154.072 799.171 168.205 787.504 187.388C782.414 195.779 778.712 205.026 776.765 214.609C769.974 247.498 776.516 283.465 778.773 317.04C780.391 344.663 778.845 371.745 765.197 394.02C762.098 398.994 758.3 403.703 754.154 408.279C714.963 448.978 618.824 457.218 522.978 437.022C502.147 432.639 481.469 427.105 460.934 420.748C387.322 397.672 316.898 362.959 250.899 326.081C166.839 279.062 87.0589 226.967 -1.51755 185.043C-83.9403 146.001 -179.587 115.56 -259.665 118.69C-268.508 118.961 -276.549 119.975 -283.902 121.579C-357.883 137.011 -370.343 208.376 -432.726 229.633C-437.367 231.167 -442.235 232.396 -447.329 233.32C-523.498 247.154 -584.225 272.003 -639.361 302.704C-732.261 354.663 -813.57 416.505 -864.099 477.171C-920.016 544.467 -938.075 614.039 -929.118 670.904" stroke="#98774A" stroke-width="0.5" stroke-miterlimit="10"/>
<path d="M1273.39 248.068C1275.63 255.874 1238.63 261.671 1185.88 254.297C1142.4 248.247 1092.89 231.291 1052.12 213.908C1023.12 201.552 997.036 190.086 973.601 180.841C963.226 176.675 953.192 172.968 943.62 169.548C912.343 158.204 879.917 149.733 848.973 154.52C822.412 158.765 802.733 173.355 791.403 192.775C786.421 201.366 783.065 210.795 781.119 220.43C774.554 253.804 779.937 290.067 780.451 323.484C780.785 351.204 777.609 377.921 762.309 399.805C758.857 404.672 754.941 409.254 750.202 413.742C708.518 453.405 611.535 460.776 514.948 439.712C493.966 435.153 473.137 429.438 452.688 422.874C378.723 399.045 308.173 363.823 242.067 326.097C157.863 278.176 78.4187 225.112 -10.3069 182.314C-91.704 142.966 -187.045 112.001 -266.542 114.765C-275.163 115.018 -283.218 116.038 -290.696 117.498C-364.667 132.518 -377.567 203.327 -437.487 225.789C-441.786 227.465 -446.425 228.68 -451.414 229.763C-524.099 245.162 -581.886 271.194 -635.234 302.557C-725.941 355.581 -809.552 415.83 -863.577 473.204C-923.336 536.785 -946.077 601.423 -942.953 653.713" stroke="#98774A" stroke-width="0.5" stroke-miterlimit="10"/>
<path d="M1279.44 250.168C1278.34 255.187 1239.6 258.047 1184.78 249.329C1140.89 242.457 1090.93 225.604 1049.7 208.98C1020.27 197.081 993.757 186.407 970.361 178.254C959.947 174.723 950.234 171.459 940.748 168.504C910.423 158.817 879.536 152.132 850.273 158.276C825.173 163.566 806.517 178.641 795.988 198.594C791.351 207.367 788.106 217.005 786.274 226.848C779.701 260.74 784.045 297.135 782.923 330.556C782.093 358.205 776.922 384.753 760.438 406.206C756.631 410.968 752.473 415.596 747.5 419.802C703.314 458.425 605.244 464.941 507.797 442.84C486.662 438.102 465.681 432.203 445.079 425.449C370.52 400.875 300.204 364.936 234.213 326.652C149.862 277.81 70.5142 223.774 -18.1275 180.064C-98.498 140.398 -193.298 108.875 -272.687 111.312C-281.323 111.567 -289.506 112.439 -296.997 113.908C-370.959 128.515 -384.299 198.778 -441.635 222.617C-445.704 224.282 -450.124 225.814 -454.884 226.882C-524.422 243.733 -578.672 271.08 -630.814 303.006C-719.083 357.099 -805.357 415.616 -863.015 469.851C-926.397 529.67 -954.076 589.355 -957.045 637.052" stroke="#98774A" stroke-width="0.5" stroke-miterlimit="10"/>
<path d="M1285.63 252.388C1281.18 254.591 1240.57 254.325 1183.79 244.402C1139.73 236.675 1089.07 219.945 1047.03 203.951C1016.93 192.533 990.225 182.636 966.868 175.585C956.538 172.521 946.91 169.725 937.624 167.396C908.019 159.402 878.915 154.503 851.339 162.02C827.706 168.369 810.19 184.093 800.353 204.433C796.062 213.393 792.816 223.088 791.098 233.145C784.754 267.547 787.934 304.259 785.057 337.534C782.935 365.295 776.123 391.482 757.976 412.545C753.813 417.2 749.298 421.721 743.967 425.818C697.267 463.4 598.229 468.876 500.144 446.032C478.856 441.114 458.072 435.16 436.966 428.079C362.16 402.881 291.6 366.25 225.495 327.085C141.346 277.435 62.092 222.405 -27.0569 177.648C-106.637 137.674 -200.658 105.56 -279.817 107.491C-288.469 107.748 -296.428 108.605 -304.046 109.928C-378.352 123.986 -392.019 193.868 -446.638 218.928C-450.6 220.759 -454.789 222.279 -459.206 223.489C-525.235 241.946 -576.523 270.515 -626.979 302.975C-712.801 358.16 -801.873 415.115 -862.705 466.145C-929.724 522.172 -962.363 576.86 -971.45 619.923" stroke="#98774A" stroke-width="0.5" stroke-miterlimit="10"/>
<path d="M1291.01 254.579C1283.2 253.933 1240.83 250.663 1182.33 239.507C1137.87 230.943 1086.64 214.504 1044.28 199.117C1013.65 188.017 986.513 178.934 963.318 173.159C953.075 170.568 943.412 168.425 934.691 166.531C905.817 160.256 878.511 157.164 852.522 165.909C830.604 173.301 813.999 189.691 804.982 210.231C800.802 219.394 797.906 229.274 796.189 239.384C789.838 274.298 791.97 311.127 787.684 344.367C784.151 372.064 775.807 398.023 756.232 418.656C751.826 423.357 746.84 427.61 741.502 431.728C692.292 468.23 592.182 472.827 493.369 449.092C472.17 443.973 451.001 437.855 429.984 430.562C354.599 404.615 284.289 367.269 217.965 327.417C133.689 276.85 54.5518 220.855 -34.4918 175.186C-113.018 134.907 -206.586 102.083 -285.265 103.811C-293.931 104.07 -302.016 104.777 -309.292 106.243C-383.574 119.87 -397.684 189.158 -449.686 215.612C-453.415 217.432 -457.496 219.116 -461.806 220.489C-524.296 240.555 -572.476 270.161 -621.352 303.314C-704.585 359.718 -796.434 414.718 -860.916 462.513C-931.81 514.686 -968.948 564.241 -984.175 602.587" stroke="#98774A" stroke-width="0.5" stroke-miterlimit="10"/>
<path d="M1290.89 254.69C1279.62 251.036 1235.71 244.928 1175.27 232.478C1130.27 223.153 1078.95 206.926 1036.24 192.433C1005.26 181.886 977.764 173.684 954.555 168.918C944.424 166.82 934.986 165.325 926.376 163.922C898.652 159.55 872.856 158.156 848.621 168.218C828.227 176.621 813.037 193.513 804.488 214.297C800.661 223.574 797.879 233.587 796.162 243.674C789.8 278.841 790.86 315.514 784.918 348.492C779.967 375.918 769.857 401.475 748.885 421.521C744.13 426.076 738.795 430.185 733.108 434.158C681.473 469.298 580.745 472.948 481.317 448.329C460.02 443.065 438.751 436.805 417.635 429.372C342.2 402.993 271.838 365.241 205.698 324.969C121.742 273.829 42.9233 217.273 -46.035 171.04C-123.553 130.766 -216.093 97.5983 -294.236 98.9468C-302.772 99.0287 -310.737 99.8889 -318.361 101.216C-392.462 114.302 -407.02 182.478 -456.416 209.97C-460.029 211.941 -463.87 213.601 -467.826 215.105C-526.999 236.495 -571.75 267.226 -618.831 300.644C-699.432 357.686 -793.424 410.597 -861.556 454.628C-935.85 502.674 -978.024 546.595 -999.384 579.923" stroke="#98774A" stroke-width="0.5" stroke-miterlimit="10"/>
<path d="M1290.86 254.861C1276.01 248.387 1230.68 239.278 1168.31 225.538C1123.12 215.59 1071.37 199.44 1028.18 185.682C996.856 175.685 969.001 168.36 945.656 164.773C935.398 163.187 926.309 162.161 917.922 161.404C891.232 158.769 867.057 159.22 844.46 170.44C825.588 179.849 811.573 197.262 803.615 218.113C800.141 227.504 797.473 237.65 795.756 247.714C789.62 283.113 789.249 319.828 781.777 352.37C775.524 379.682 763.774 404.664 741.408 424.126C736.541 428.515 730.857 432.48 724.823 436.31C670.767 470.096 569.07 472.667 469.256 447.479C447.859 442.07 426.492 435.668 405.515 428.075C329.915 401.11 259.502 362.954 193.545 322.262C109.672 270.571 31.2846 213.61 -57.7022 166.66C-133.975 126.37 -225.964 92.9001 -303.334 93.8496C-311.864 93.9309 -319.938 94.6336 -327.32 95.9369C-401.24 108.483 -416.482 175.575 -462.925 204.237C-466.185 206.338 -469.786 207.973 -473.625 209.629C-529.135 232.471 -570.575 264.168 -616.338 297.893C-694.312 355.572 -790.68 406.424 -862.457 446.71C-940.021 490.473 -987.346 528.961 -1014.59 557.274" stroke="#98774A" stroke-width="0.5" stroke-miterlimit="10"/>
<path d="M1290.43 255.011C1272.24 245.71 1225.02 233.655 1161.2 218.59C1115.71 207.869 1063.39 191.97 1020.1 179.079C988.187 169.651 960.21 163.179 936.966 160.746C926.819 159.649 917.954 159.265 909.677 158.995C884.02 158.091 861.464 160.379 840.379 172.926C823.027 183.335 810.186 201.266 802.933 222.338C799.573 231.862 797.143 241.964 795.539 252.16C789.392 287.809 787.953 324.367 778.829 356.647C771.162 383.69 757.888 408.253 734.006 427.307C728.791 431.552 722.76 435.373 716.377 439.059C659.905 471.495 557.595 473.126 457.285 447.218C435.79 441.666 414.325 435.123 393.25 427.391C317.251 399.866 247.376 361.423 181.491 320.16C97.8171 268.079 19.6354 210.409 -69.0259 162.882C-144.291 122.599 -235.253 88.79 -312.198 89.2079C-320.722 89.2887 -328.554 89.9689 -336.045 91.114C-410.02 103.144 -425.583 168.954 -469.551 198.82C-472.572 200.896 -475.943 202.838 -479.543 204.469C-531.507 228.6 -569.764 261.432 -613.736 295.42C-688.97 353.883 -787.936 402.374 -862.998 439.061C-944.062 478.578 -996.291 511.635 -1029.65 534.974" stroke="#98774A" stroke-width="0.5" stroke-miterlimit="10"/>
<path d="M1290.17 254.996C1268.65 242.88 1219.89 228.025 1154.02 211.528C1108.35 200.189 1055.6 184.364 1011.96 172.356C979.694 163.473 951.356 157.869 928.211 156.586C918.175 155.975 909.42 156.076 901.366 156.445C876.388 157.13 855.799 161.382 836.347 175.076C820.512 186.482 808.729 204.776 802.293 226.224C799.285 235.861 796.969 246.096 795.478 256.424C789.558 292.303 786.814 328.729 776.278 360.731C767.2 387.508 752.166 411.676 726.894 430.151C721.331 434.252 715.066 438.085 708.337 441.629C649.452 472.723 546.527 473.42 445.369 446.658C423.776 440.963 402.449 434.258 381.038 426.409C304.991 398.457 234.95 359.457 169.362 317.933C86.0086 265.282 8.14433 207.057 -80.4312 158.971C-154.691 118.692 -244.743 84.3874 -321.276 84.6061C-329.557 84.6659 -337.735 85.2102 -345.221 86.3526C-419.129 97.6937 -435.023 162.566 -476.283 193.612C-479.188 195.838 -482.32 197.755 -485.566 199.516C-534.115 225.109 -568.833 258.878 -611.254 293.151C-683.868 352.247 -784.963 398.679 -863.895 431.675C-948.34 467.123 -1005.69 494.466 -1045.04 513.01" stroke="#98774A" stroke-width="0.5" stroke-miterlimit="10"/>
<path d="M1289.99 255.011C1265.15 240.092 1214.74 222.297 1147.07 204.682C1101.1 192.575 1047.9 177.155 1003.68 165.717C971.075 157.378 942.377 152.639 919.332 152.499C909.408 152.373 901.216 153.574 892.93 153.962C868.197 154.953 849.893 162.281 832.299 177.425C817.866 189.669 807.604 208.61 801.52 230.144C798.863 239.893 796.661 250.259 795.169 260.563C789.237 296.69 785.542 333.116 773.246 364.706C762.871 391.37 746.205 414.968 719.545 432.865C713.635 436.823 707.023 440.513 700.184 443.895C639.128 473.631 535.006 473.283 433.705 445.941C412.014 440.103 390.59 433.259 369.318 425.252C292.874 396.743 223.135 357.479 157.618 315.388C74.3504 262.196 -3.08054 203.575 -91.444 154.762C-164.461 114.469 -253.724 79.8481 -329.72 79.6936C-338.11 79.5987 -345.931 80.2754 -353.525 81.2606C-427.251 92.0697 -443.825 155.869 -482.256 187.914C-484.923 190.114 -487.94 192.181 -490.833 194.072C-535.847 220.943 -567.39 255.839 -608.024 290.373C-678.256 350.115 -781.476 394.495 -863.794 423.772C-951.726 455.012 -1013.97 476.972 -1059.17 490.566" stroke="#98774A" stroke-width="0.5" stroke-miterlimit="10"/>
<path d="M1289.83 255.149C1261.55 237.285 1209.49 216.889 1140.02 197.832C1093.87 185.114 1040.23 169.767 995.669 159.204C962.601 151.251 933.543 147.373 910.711 148.526C900.773 149.057 892.474 150.101 884.751 151.586C861.83 155.694 844.351 163.426 828.499 179.861C815.815 193.074 806.485 212.548 801.103 234.302C798.56 244.183 796.831 254.485 795.215 264.941C789.509 301.297 784.277 337.612 770.46 368.773C758.913 395.152 740.607 418.513 712.212 435.703C705.954 439.518 698.996 443.067 691.811 446.307C628.463 474.867 523.618 473.439 421.472 445.25C399.683 439.271 378.161 432.286 356.905 424.296C280.413 395.365 210.747 355.528 145.177 313.044C62.2311 259.288 -15.1187 200.136 -103.395 150.77C-175.409 110.481 -263.649 75.5229 -339.11 74.9969C-347.494 74.902 -355.423 75.4229 -362.776 76.3853C-436.319 86.6656 -453.335 149.38 -489.066 182.597C-491.618 184.946 -494.396 186.988 -497.175 189.029C-538.545 217.328 -566.796 253.174 -605.769 288.145C-673.273 348.669 -778.728 390.854 -864.902 416.471C-955.966 443.658 -1023.44 460.128 -1074.73 468.814" stroke="#98774A" stroke-width="0.5" stroke-miterlimit="10"/>
<path d="M1289.41 255.17C1257.82 234.526 1203.87 211.232 1132.96 190.872C1086.39 177.564 1032.56 162.268 987.641 152.576C953.989 145.182 924.808 142.141 901.725 144.294C891.897 145.304 883.819 146.981 876.205 148.944C854.196 154.6 838.438 164.291 824.211 181.859C813.037 196.058 804.875 216.043 800.429 237.996C798.237 247.99 796.621 258.424 794.768 268.878C789.051 305.484 782.757 341.65 767.297 372.559C754.345 398.677 734.524 421.628 704.745 438.248C698.141 441.922 691.073 445.309 683.542 448.409C617.792 475.646 511.987 473.163 409.697 444.395C387.81 438.274 366.19 431.15 345.073 423.002C268.182 393.516 198.816 353.413 133.429 310.516C50.5659 256.216 -26.3538 196.665 -114.421 146.572C-185.434 106.284 -272.89 71.0089 -347.581 70.0928C-355.722 69.9774 -363.646 70.4969 -371.23 71.4774C-444.83 81.2522 -462.163 142.717 -495.198 177.102C-497.512 179.426 -499.938 181.596 -502.602 183.786C-540.684 213.377 -565.648 250.171 -602.963 285.579C-667.857 346.731 -775.668 386.907 -865.219 408.841C-959.646 432.013 -1032.1 442.997 -1089.47 446.797" stroke="#98774A" stroke-width="0.5" stroke-miterlimit="10"/>
<path d="M1289.29 255.313C1254.38 231.904 1198.92 205.861 1125.98 184.093C1079.22 170.18 1024.84 155.131 979.586 145.981C945.589 139.123 916.05 136.936 893.067 140.217C883.349 141.705 875.143 143.878 867.987 146.45C846.889 153.645 832.5 165.154 820.359 184.133C810.458 199.332 803.934 219.783 799.838 241.82C797.995 251.923 796.492 262.487 794.639 272.918C789.147 309.747 781.669 345.933 764.694 376.414C750.451 402.42 728.768 424.828 697.609 440.878C690.659 444.41 683.247 447.656 675.371 450.616C607.226 476.532 500.818 473.131 397.803 443.678C375.819 437.417 354.102 430.155 332.888 421.872C255.841 391.816 186.664 351.301 121.228 308.019C38.5656 253.338 -38.1464 193.091 -125.886 142.434C-195.896 102.154 -282.441 66.3936 -356.594 65.1095C-364.729 64.9941 -372.761 65.3589 -380.104 66.3166C-453.519 75.5663 -471.528 135.972 -501.633 171.495C-503.595 173.946 -505.907 176.265 -508.446 178.276C-542.894 209.282 -564.574 247.015 -600.345 282.699C-662.516 344.621 -772.438 382.771 -865.828 401.076C-963.373 420.227 -1041.04 425.766 -1104.23 424.68" stroke="#98774A" stroke-width="0.5" stroke-miterlimit="10"/>
<path d="M1288.93 255.176C1250.48 229.031 1193.5 200.248 1118.89 177.208C1071.6 162.559 1017.13 147.714 971.531 139.428C937.19 133.103 907.291 131.766 884.406 136.171C874.798 138.135 866.701 140.782 859.766 143.981C839.454 152.883 826.904 166.162 816.383 186.262C807.874 202.285 802.626 223.396 799.229 245.651C797.5 255.886 796.346 266.559 794.493 276.967C788.989 314.044 780.452 350.079 761.84 380.31C746.195 406.056 723.003 428.058 690.228 443.561C682.934 446.953 675.176 450.059 667.069 453.033C596.531 477.636 489.282 473.341 385.9 443.011C363.819 436.61 342.241 429.189 320.694 420.79C243.365 390.338 174.375 349.408 109.36 305.697C27.0195 250.458 -49.4975 189.839 -137.149 138.636C-205.923 98.3385 -291.683 62.2651 -365.302 60.6145C-373.545 60.3462 -381.335 60.6896 -388.672 61.645C-462.017 70.2201 -480.702 129.577 -507.882 166.238C-509.843 168.683 -511.804 171.129 -513.992 173.27C-545.162 205.554 -563.45 244.379 -597.444 280.323C-657.011 342.865 -769.042 379.002 -866.031 393.674C-966.689 408.824 -1049.56 408.944 -1118.8 403.013" stroke="#98774A" stroke-width="0.5" stroke-miterlimit="10"/>
<path d="M1288.29 255.051C1246.55 226.164 1187.81 194.675 1111.42 170.217C1063.95 154.969 1008.92 140.368 963.106 132.769C928.184 126.997 897.815 126.353 875.377 132.009C865.643 134.467 858.003 137.718 851.176 141.388C831.771 151.816 820.934 167.03 812.144 188.398C805.138 205.394 801.052 227.008 798.24 249.326C796.972 259.823 795.705 270.321 794.077 281.011C788.562 318.332 778.732 354.237 758.722 384.196C741.677 409.681 716.979 431.277 682.941 446.368C675.415 449.773 667.313 452.74 658.986 455.401C586.173 478.848 478.097 473.338 374.105 442.481C351.928 435.94 330.254 428.383 308.846 419.829C231.361 388.81 162.323 347.49 97.4948 303.374C15.2416 247.603 -60.842 186.596 -148.28 134.678C-216.054 94.3863 -300.792 57.9828 -373.876 55.9675C-382.113 55.6995 -389.897 56.042 -397.343 56.8424C-470.503 64.8979 -489.625 123.188 -514.12 160.999C-515.731 163.572 -517.691 166.013 -519.528 168.28C-547.075 201.97 -562.089 241.728 -594.544 277.948C-651.396 341.258 -765.766 375.408 -866.459 386.31C-970.459 397.495 -1058.28 392.198 -1133.33 381.424" stroke="#98774A" stroke-width="0.5" stroke-miterlimit="10"/>
<path d="M1288.06 255.093C1243.02 223.473 1182.42 189.136 1104.59 163.398C1056.71 147.571 1001.49 133.02 955.212 126.127C919.946 120.883 889.22 121.082 866.88 127.852C857.255 130.781 849.723 134.503 843.116 138.793C824.38 150.763 815.14 167.751 808.191 190.536C802.687 208.5 799.884 230.444 797.646 253.15C796.726 263.757 795.571 274.385 793.943 285.052C788.652 322.597 777.531 358.373 756.125 388.064C737.795 413.442 711.479 434.483 675.832 449.032C667.962 452.297 659.753 455.105 650.845 457.649C575.884 479.773 466.736 473.398 362.257 441.842C339.984 435.163 318.214 427.469 296.709 418.78C219.068 387.196 150.331 345.617 85.3393 300.965C3.40878 244.641 -72.592 183.113 -159.704 130.634C-226.48 90.3456 -310.199 53.6121 -382.984 51.2539C-390.979 50.9659 -398.871 51.1551 -406.311 51.9536C-479.523 59.5123 -499.195 116.591 -520.772 155.529C-522.383 158.096 -523.993 160.664 -525.48 163.058C-549.522 197.996 -561.39 238.857 -592.308 275.355C-646.563 339.279 -762.92 371.585 -867.311 378.734C-974.535 386.125 -1067.42 375.281 -1148.5 359.703" stroke="#98774A" stroke-width="0.5" stroke-miterlimit="10"/>
<path d="M1287.72 255.009C1239.28 220.518 1177.05 183.65 1097.45 156.507C1049.39 140.086 993.502 125.625 946.879 119.586C911.272 114.869 880.188 115.907 857.711 123.806C848.195 127.204 840.535 131.414 834.383 136.303C816.429 149.957 809.02 168.691 803.683 192.581C799.565 211.357 798.032 233.953 796.49 256.872C795.682 267.608 794.875 278.344 793.247 288.988C787.944 326.774 775.883 362.552 752.734 391.842C733.009 416.961 705.069 437.771 668.174 451.588C659.96 454.713 651.408 457.383 642.394 459.769C565.167 480.747 455.31 473.319 350.236 440.917C328.103 434.08 306.001 426.27 284.637 417.427C206.719 385.454 138.059 343.316 73.3673 298.416C-8.36164 241.717 -84.0413 179.654 -170.938 126.467C-236.603 86.3363 -319.649 49.1443 -391.776 46.2524C-399.765 45.9649 -407.651 46.1534 -414.963 46.7777C-487.989 53.8213 -508.332 109.862 -527.232 149.94C-528.493 152.634 -529.867 155.175 -531.476 157.737C-552.254 193.936 -560.509 235.853 -589.892 272.625C-641.439 337.309 -760.126 367.646 -868.206 371.056C-978.409 374.648 -1076.45 358.131 -1163.68 337.942" stroke="#98774A" stroke-width="0.5" stroke-miterlimit="10"/>
<path d="M1287.44 254.999C1235.73 217.797 1171.75 178.254 1090.37 149.709C1041.9 132.713 985.93 118.453 938.737 112.96C902.55 108.787 871.232 110.489 848.964 119.644C839.321 123.531 832.118 128.338 826.072 133.692C808.785 148.874 803.08 169.52 799.701 194.645C797.08 214.383 796.703 237.478 795.743 260.462C795.283 271.307 794.587 282.172 792.959 292.794C787.881 330.805 774.532 366.456 749.755 395.502C728.637 420.365 699.197 440.776 660.696 454.057C652.139 457.045 643.244 459.577 634.001 461.978C554.396 481.666 443.593 473.208 338.146 440.264C315.917 433.288 293.719 425.342 272.259 416.366C194.185 383.83 125.589 341.454 60.9698 295.998C-20.4376 238.748 -96.0349 176.164 -182.843 122.439C-247.513 82.3093 -329.656 44.6366 -401.136 41.5367C-409.12 41.2495 -416.877 41.2656 -424.307 42.0602C-497.15 48.5918 -518.039 103.433 -534.267 144.653C-535.179 147.472 -536.439 150.16 -537.812 152.696C-554.983 190.286 -560.215 233.149 -587.829 270.178C-636.786 335.476 -757.454 363.986 -869.22 363.674C-982.748 363.352 -1085.72 341.487 -1178.73 316.513" stroke="#98774A" stroke-width="0.5" stroke-miterlimit="10"/>
<path d="M1286.83 254.875C1231.84 214.977 1165.88 172.793 1083.09 142.985C1034.33 125.248 978.046 111.209 930.745 106.543C894.218 102.892 862.544 105.426 840.261 115.529C830.727 119.881 823.63 125.152 817.803 131.119C801.418 147.801 797.301 170.199 795.641 196.571C794.514 217.266 795.528 240.836 795.261 264.032C795.148 274.985 794.452 285.826 792.936 296.576C787.845 334.827 773.211 370.35 747.046 399.129C724.537 423.735 693.6 443.748 653.498 456.493C644.599 459.343 635.363 461.738 625.777 464.002C543.802 482.402 432.407 473.052 326.481 439.419C304.157 432.307 282.099 424.206 260.308 415.117C181.959 382.195 113.677 339.244 49.2448 293.39C-32.0733 235.617 -107.472 172.672 -193.829 118.224C-257.503 78.0991 -338.627 40.1029 -409.572 36.6446C-417.427 36.1864 -425.066 36.3536 -432.603 36.9949C-505.372 42.8646 -526.929 96.6783 -540.14 139.161C-541.051 141.974 -541.963 144.787 -542.987 147.449C-556.905 186.29 -558.534 230.201 -584.617 267.503C-630.639 333.537 -753.863 360.114 -869.303 356.096C-986.034 352.028 -1094.04 324.687 -1193.04 294.971" stroke="#98774A" stroke-width="0.5" stroke-miterlimit="10"/>
<path d="M1286.43 254.692C1227.94 212.131 1160.48 167.28 1076.16 136.065C1026.75 117.781 970.392 103.942 922.637 99.969C885.77 96.8379 853.741 100.2 831.555 111.398C822.13 116.213 814.905 121.965 809.532 128.523C793.924 146.869 791.393 171.009 791.685 198.602C791.814 220.268 794.215 244.311 794.528 267.567C794.762 278.626 794.177 289.595 792.661 300.321C787.794 338.79 771.876 374.183 744.325 402.696C720.541 427.196 687.763 446.679 646.534 458.852C637.293 461.563 627.828 463.973 618.024 465.93C533.797 483.199 421.465 472.829 314.95 438.36C292.532 431.112 270.379 422.877 248.729 413.637C170.23 380.161 102.016 336.98 37.7737 290.732C-43.4531 232.439 -118.417 169.118 -204.556 113.972C-267.234 73.8534 -347.339 35.5363 -417.748 31.7214C-425.597 31.264 -433.343 31.2796 -440.639 31.8992C-513.455 37.2807 -535.443 90.0492 -545.867 133.486C-546.43 136.424 -547.341 139.231 -548.017 142.018C-558.338 182.235 -556.719 227.057 -581.508 264.649C-624.946 331.282 -750.371 356.065 -869.242 348.337C-989.166 340.538 -1102.19 307.747 -1206.95 273.289" stroke="#98774A" stroke-width="0.5" stroke-miterlimit="10"/>
<path d="M1286.05 254.612C1224.29 209.374 1154.87 161.902 1069.02 129.283C1019.43 110.413 962.757 96.7911 914.434 93.3571C876.991 90.7634 844.729 94.7805 822.752 107.219C813.2 112.516 806.429 118.858 801.161 125.875C786.216 145.729 785.615 171.738 787.621 200.571C789.24 223.187 792.791 247.722 793.796 271.191C794.14 282.379 793.902 293.455 792.498 304.31C787.619 343.02 770.655 378.268 741.485 406.539C716.314 430.785 682.044 449.875 639.218 461.518C629.871 464.073 620.065 466.346 609.686 468.188C523.095 484.182 410.06 472.775 303.178 437.772C280.664 430.388 258.417 422.019 236.671 412.646C157.785 378.635 89.9955 335.03 25.7041 288.405C-55.087 229.718 -129.966 165.884 -216.127 110.057C-277.813 69.9403 -357.137 31.3193 -426.779 27.1292C-434.621 26.6725 -442.127 26.6679 -449.765 27.1553C-522.395 32.0314 -545.161 83.6345 -552.578 128.328C-553.141 131.26 -553.704 134.192 -554.032 137.104C-561.346 178.584 -555.899 224.43 -579.05 262.446C-619.449 329.965 -747.423 352.833 -870.069 341.28C-993.186 329.766 -1111.22 291.543 -1221.96 252.381" stroke="#98774A" stroke-width="0.5" stroke-miterlimit="10"/>
<path d="M1285.29 254.426C1220.17 206.377 1149.13 156.429 1061.53 122.434C1011.53 103.003 954.435 89.4484 906.007 86.832C868.225 84.7535 835.375 89.6123 813.494 103.136C804.051 108.891 797.387 115.691 792.336 123.313C778.166 144.818 779.032 172.404 782.983 202.448C785.977 225.857 791.023 251.012 792.484 274.711C793.173 286.004 793.046 297.207 791.641 308.038C786.986 346.964 768.62 382.254 737.956 410.111C711.402 434.103 675.644 452.798 631.572 464.042C621.886 466.461 611.739 468.599 601.256 470.285C512.534 485.309 398.455 472.74 291.099 437.059C268.492 429.539 246.151 421.037 224.546 411.514C145.624 377.104 77.7916 333.121 13.5775 285.954C-67.1217 226.752 -141.913 162.413 -227.508 106.023C-288.435 65.9327 -366.62 26.8231 -435.961 22.2994C-443.797 21.8434 -451.409 21.6882 -458.806 22.1544C-531.248 26.5268 -554.677 77.1145 -559.316 122.754C-559.532 125.81 -559.86 128.716 -560.076 131.772C-563.916 174.466 -555.354 221.387 -576.745 259.651C-614.804 327.785 -744.734 348.855 -870.919 333.793C-997.216 318.581 -1120.25 274.953 -1236.95 231.109" stroke="#98774A" stroke-width="0.5" stroke-miterlimit="10"/>
<path d="M1284.75 254.139C1216.38 203.438 1143.38 150.894 1054.6 115.638C1004.2 95.6458 946.794 82.3085 897.913 80.3758C859.905 78.9604 826.589 84.4875 804.804 99.0915C795.469 105.305 788.676 112.579 784.077 120.785C770.567 143.784 773.123 173.243 779.016 204.494C783.259 228.865 789.686 254.487 791.724 278.246C792.759 289.645 792.63 300.824 791.337 311.782C786.669 350.945 767.262 386.089 734.984 413.705C707.048 437.444 669.57 455.767 624.143 466.465C614.116 468.748 603.63 470.751 592.919 472.453C501.845 486.211 387.183 472.765 279.241 436.256C256.54 428.602 234.105 419.967 212.406 410.314C133.1 375.374 65.4592 330.992 1.54619 283.584C-78.8272 223.846 -153.654 159.172 -238.797 102.07C-298.62 62.1334 -375.901 22.5552 -444.709 17.6794C-452.417 17.0543 -459.91 17.0493 -467.414 17.3642C-539.667 21.2353 -564.106 70.6841 -565.512 117.549C-565.728 120.598 -565.597 123.778 -565.578 126.808C-565.838 170.863 -554.044 218.687 -573.913 257.22C-609.399 325.949 -741.753 345.269 -871.114 326.523C-1000.82 307.648 -1128.61 258.617 -1251.15 209.939" stroke="#98774A" stroke-width="0.5" stroke-miterlimit="10"/>
<path d="M1284.44 254.104C1212.82 200.759 1138.21 145.756 1047.57 108.983C956.924 72.2089 845.615 59.1492 796.123 95.0066C739.445 135.928 783.509 216.115 790.96 281.717C800.914 370.99 733.257 443.565 616.841 468.669C500.424 493.773 338.553 470.49 200.397 408.907C21.0716 328.985 -97.3786 201.419 -250.072 97.7569C-315.544 53.2875 -402.664 8.89283 -476.249 12.234C-548.662 15.4761 -573.18 64.0335 -572.051 111.86C-570.81 159.837 -552.179 212.715 -571.673 254.321C-604.48 323.797 -739.019 341.355 -872.132 318.83C-1005.01 296.286 -1137.79 241.891 -1266.27 188.567" stroke="#98774A" stroke-width="0.5" stroke-miterlimit="10"/>
</svg>
