<svg width="353" height="400" viewBox="0 0 353 400" fill="none" xmlns="http://www.w3.org/2000/svg">
<g style="mix-blend-mode:color-dodge">
<path d="M-240.434 282.038C-239.856 282.617 -239.278 282.617 -238.7 282.617C-238.122 282.617 -237.544 282.038 -236.967 281.46L-227.143 268.16C-226.566 267.004 -226.566 265.848 -227.721 265.269C-301.106 201.084 -348.488 107.409 -351.377 3.3249C-351.377 2.16841 -352.533 1.01193 -353.689 1.01193C-354.844 1.01193 -356 1.59017 -356 3.3249C-356 6.79436 -356 10.8421 -356 14.3115C-356 119.552 -311.507 214.962 -240.434 282.038ZM-212.12 246.765C-211.542 246.765 -210.964 246.187 -210.386 245.609L-200.563 232.309C-199.985 231.153 -199.985 229.996 -201.141 229.418C-263.547 173.329 -303.995 92.9527 -306.884 2.74666C-306.884 1.59017 -308.04 0.433683 -309.196 0.433683C-310.351 0.433683 -311.507 1.59017 -311.507 2.74666C-311.507 6.21612 -311.507 10.2638 -311.507 13.7333C-311.507 104.518 -273.948 186.628 -213.853 245.609C-213.275 246.187 -212.698 246.765 -212.12 246.765ZM-187.273 210.336C-186.695 210.914 -186.117 210.914 -185.54 210.914C-184.962 210.914 -184.384 210.336 -183.806 209.758L-173.983 197.036C-173.405 195.88 -173.405 194.724 -173.983 194.145C-225.988 146.151 -259.502 78.4966 -262.391 3.3249C-262.391 2.16841 -262.969 1.59017 -263.547 1.01193C-264.125 0.433685 -265.28 1.01193 -265.858 1.59017C-266.436 2.16842 -266.436 2.74666 -266.436 3.3249C-266.436 6.79436 -266.436 10.8421 -266.436 14.3115C-267.014 90.6397 -236.389 159.451 -187.273 210.336ZM-160.115 173.907C-159.537 174.485 -158.959 174.485 -158.381 174.485C-157.804 174.485 -157.226 173.907 -156.648 173.329L-147.403 160.607C-146.825 159.451 -146.825 158.294 -147.403 157.716C-188.429 118.395 -215.009 63.4622 -217.898 2.74666C-217.898 2.16841 -218.476 1.01193 -219.054 0.433683C-219.632 -0.144561 -220.787 -0.144561 -221.365 0.433683C-221.943 1.01193 -222.521 1.59017 -222.521 2.16841C-222.521 5.63788 -222.521 9.68558 -222.521 13.155C-223.099 76.1836 -198.83 132.273 -160.115 173.907ZM-131.223 138.634C-130.645 138.634 -130.068 138.056 -129.49 137.477L-120.244 125.334C-119.667 124.178 -119.667 123.021 -120.244 122.443C-150.87 91.2179 -170.516 49.5844 -173.405 3.3249C-173.405 2.74666 -173.983 1.59017 -174.561 1.59017C-175.139 1.01193 -176.294 1.59017 -176.872 2.16841C-177.45 2.74666 -177.45 3.3249 -177.45 3.90315C-177.45 7.37261 -178.028 11.4203 -178.028 15.468C-178.028 62.3058 -160.693 105.674 -132.379 138.634C-132.957 138.056 -131.801 138.634 -131.223 138.634ZM-104.065 101.626C-103.487 101.626 -102.91 101.048 -102.332 100.47L-93.6642 88.905C-93.0864 88.3267 -93.0864 87.1702 -93.6642 86.0137C-113.888 63.4622 -126.601 34.5501 -128.912 2.74666C-128.912 2.16841 -128.912 1.59017 -129.49 1.01193C-130.068 0.433685 -130.645 0.433683 -131.223 0.433683C-131.801 0.433683 -132.379 0.433685 -132.957 1.01193C-133.535 1.59017 -133.535 2.16841 -133.535 2.74666C-133.535 6.21612 -134.112 10.2638 -134.112 13.7333C-134.112 46.1149 -123.711 76.1836 -105.799 99.8916C-105.221 101.048 -104.643 101.626 -104.065 101.626ZM224.721 265.269C223.566 265.848 223.566 267.582 224.143 268.16L233.967 281.46C234.544 282.038 235.122 282.038 235.7 282.617C236.278 282.617 236.856 282.617 237.434 282.038C308.507 214.962 353 120.13 353 14.3115C353 10.8421 353 6.79436 353 3.3249C353 2.16841 351.844 1.01193 350.689 1.01193C349.533 1.01193 348.377 2.16841 348.377 3.3249V3.90315C344.91 107.409 298.106 201.084 224.721 265.269ZM240.901 283.773C240.323 283.195 239.745 283.195 239.167 282.617C238.589 282.617 238.011 282.617 237.434 283.195C173.872 339.284 90.0864 373.401 -1.78888 373.401C-93.6642 373.401 -176.872 339.284 -241.011 283.195C-241.589 282.617 -242.167 282.617 -242.745 282.617C-243.323 282.617 -243.901 283.195 -244.478 283.773L-253.724 297.073C-254.302 298.229 -254.302 299.386 -253.724 299.964C-187.851 361.836 -99.4425 400 -1.78888 400C95.8647 400 184.273 361.836 250.146 299.964C250.724 299.386 251.302 297.651 250.146 297.073L240.901 283.773ZM198.141 229.418C197.563 229.996 196.985 231.731 197.563 232.309L207.386 245.609C207.964 246.187 208.542 246.187 209.12 246.765C209.698 246.765 210.276 246.765 210.853 246.187C270.948 187.206 308.507 105.096 308.507 14.3115C308.507 10.8421 308.507 6.79436 308.507 3.3249C308.507 2.16841 307.351 1.01193 306.196 1.01193C305.04 1.01193 303.884 2.16841 303.884 3.3249C300.995 92.9527 260.547 173.329 198.141 229.418ZM-216.165 246.765C-216.742 246.765 -217.32 247.344 -217.898 247.922L-227.721 261.222C-228.299 262.378 -228.299 263.535 -227.721 264.113C-169.36 320.781 -90.1972 355.475 -2.3667 355.475C85.4638 355.475 164.627 320.781 222.988 264.113C223.566 263.535 224.143 262.378 222.988 261.222L214.32 247.922C213.742 247.344 213.165 247.344 212.587 246.765C212.009 246.765 211.431 246.765 210.853 247.344C154.804 298.229 80.2633 328.876 -1.78888 328.876C-83.2632 328.876 -157.804 298.229 -214.431 247.344C-214.431 247.344 -215.587 246.765 -216.165 246.765ZM170.983 194.145C170.405 194.724 169.827 196.458 170.983 197.036L180.806 209.758C181.384 210.336 181.962 210.336 182.54 210.914C183.117 210.914 183.695 210.914 184.273 210.336C233.967 160.029 264.592 90.6397 264.592 14.3115C264.592 10.2638 264.592 6.79436 264.592 2.74666C264.592 1.59017 263.436 0.433683 262.28 0.433683C261.125 0.433683 259.969 1.59017 259.969 2.74666C256.502 78.4966 222.988 146.151 170.983 194.145ZM-189.007 211.493C-189.584 211.493 -190.162 212.071 -190.74 212.649L-200.563 225.37C-201.141 226.527 -201.141 227.683 -200.563 228.262C-150.292 279.725 -79.7962 311.529 -2.3667 311.529C75.0628 311.529 145.558 279.725 195.83 228.262C196.408 227.683 196.408 226.527 195.83 225.37L186.007 212.649C185.429 212.071 184.851 212.071 184.273 211.493C183.695 211.493 183.117 211.493 182.54 212.071C135.157 257.174 69.8623 284.351 -1.78888 284.351C-73.4401 284.351 -138.735 256.596 -187.273 212.071C-187.851 211.493 -188.429 211.493 -189.007 211.493ZM144.403 158.294C143.825 158.872 143.247 160.029 144.403 161.185L153.648 173.907C154.226 174.485 154.804 175.063 155.381 175.063C155.959 175.063 156.537 175.063 157.115 174.485C195.83 132.851 220.099 76.7618 220.099 14.8898C220.099 11.4203 220.099 7.37261 220.099 3.90315C220.099 3.3249 219.521 2.74666 218.943 2.16841C218.365 1.59017 217.21 1.59017 216.632 2.16841C216.054 2.74666 215.476 3.3249 215.476 4.48139C212.009 64.0405 185.429 118.395 144.403 158.294ZM-162.426 175.641C-163.004 175.641 -163.582 176.22 -164.16 176.798L-173.405 189.519C-173.983 190.098 -173.983 191.832 -173.405 192.411C-130.645 238.67 -69.3953 267.004 -1.78888 267.004C65.8175 267.004 127.068 238.092 169.827 192.411C170.405 191.832 170.405 190.676 169.827 189.519L160.582 176.798C160.004 176.22 159.426 176.22 158.848 175.641C158.271 175.641 157.693 175.641 157.115 176.22C116.089 215.54 60.0392 240.405 -1.78888 240.405C-63.6169 240.405 -119.667 216.119 -160.693 176.22C-161.271 175.641 -161.848 175.641 -162.426 175.641ZM117.245 125.334L126.49 137.477C127.068 138.056 127.646 138.634 128.223 138.634C128.801 138.634 129.379 138.634 129.957 138.056C158.271 105.096 175.606 61.7275 175.606 14.8898C175.606 10.8421 175.606 7.37261 175.028 3.3249V2.16841C174.45 1.59017 173.294 1.01193 172.716 1.59017C171.561 2.16842 170.983 2.74666 170.983 3.90315C168.094 50.1626 148.447 91.7962 117.822 123.021C116.667 123.021 116.667 124.178 117.245 125.334ZM-1.78888 222.479C55.9943 222.479 107.999 196.458 142.669 155.981C143.247 155.403 143.247 154.246 142.669 153.09L133.424 140.947C132.846 140.369 132.268 140.369 131.69 139.79C131.112 139.79 130.535 139.79 129.957 140.369C97.0204 174.485 50.216 195.88 -1.78888 195.88C-53.7938 195.88 -100.598 174.485 -134.112 140.369C-134.69 139.79 -135.268 139.79 -135.846 139.79C-136.424 139.79 -137.002 140.369 -137.579 140.947L-146.825 153.09C-147.403 153.668 -147.403 154.825 -146.825 155.981C-110.999 196.458 -59.5721 222.479 -1.78888 222.479ZM99.3317 100.47C99.9095 101.048 100.487 101.626 101.065 101.626C101.643 101.626 102.221 101.048 102.799 100.47C120.711 76.1836 131.112 46.6932 131.112 14.3115C131.112 10.8421 131.112 6.79436 130.535 3.3249C130.535 2.74666 130.535 2.16842 129.957 1.59017C129.379 1.01193 128.801 1.01193 128.223 1.01193C127.646 1.01193 127.068 1.01193 126.49 1.59017C125.912 2.16842 125.912 2.74666 125.912 3.3249C123.601 35.1283 110.311 64.0405 90.6642 86.592C90.0864 87.1702 90.0864 88.3267 90.6642 89.4832L99.3317 100.47ZM-106.954 104.518C-107.532 103.939 -108.11 103.939 -108.688 103.939C-109.266 103.939 -109.844 104.518 -110.421 105.096L-119.089 116.661C-119.667 117.239 -119.667 118.395 -119.089 119.552C-92.5085 155.403 -49.749 179.111 -1.78888 179.111C46.1712 179.111 88.9307 155.981 115.511 119.552C116.089 118.974 116.089 117.817 115.511 116.661L106.844 105.096C106.266 104.518 105.688 104.518 105.11 103.939C104.532 103.939 103.954 103.939 103.377 104.518C77.3741 133.43 39.815 151.355 -1.78888 151.355C-43.3928 151.355 -80.9519 133.43 -106.954 104.518Z" fill="#FFC72C" fill-opacity="0.15"/>
</g>
</svg>
