<svg width="14" height="14" viewBox="0 0 14 14" fill="none" xmlns="http://www.w3.org/2000/svg">
<path d="M10.1973 8.5H9.60477L9.39477 8.2975C10.1298 7.4425 10.5723 6.3325 10.5723 5.125C10.5723 2.4325 8.38977 0.25 5.69727 0.25C3.00477 0.25 0.822266 2.4325 0.822266 5.125C0.822266 7.8175 3.00477 10 5.69727 10C6.90477 10 8.01477 9.5575 8.86977 8.8225L9.07227 9.0325V9.625L12.8223 13.3675L13.9398 12.25L10.1973 8.5ZM5.69727 8.5C3.82977 8.5 2.32227 6.9925 2.32227 5.125C2.32227 3.2575 3.82977 1.75 5.69727 1.75C7.56477 1.75 9.07227 3.2575 9.07227 5.125C9.07227 6.9925 7.56477 8.5 5.69727 8.5Z" fill="#D3D8DA"/>
</svg>
