<svg width="1433" height="464" viewBox="0 0 1433 464" fill="none" xmlns="http://www.w3.org/2000/svg">
<path d="M1633.98 208.531C1677.53 261.885 1642.7 317.617 1566.66 316.005C1512.44 314.77 1451.7 289.694 1396.74 264.388C1344.05 240.142 1291.22 214.37 1235.84 197.752C1180.46 181.135 1120.48 174.962 1083.89 191.476C1009.31 224.973 1064.78 327.653 1004.31 371.38C954.943 407.018 843.775 388.694 756.005 349.145C668.235 309.596 595.565 253.392 518.507 202.466C441.449 151.54 350.667 102.125 259.807 89.3423C175.943 77.5069 108.569 99.6222 58.9049 129.859C-59.5483 202.169 -167.769 212.145 -123.315 346.162" stroke="#3C3E4D" stroke-width="0.2" stroke-miterlimit="10"/>
<path d="M1635.72 211.513C1654.89 234.896 1657.89 258.731 1649.03 277.269C1637.86 300.854 1608.31 316.787 1566.25 315.213C1527.59 313.761 1485.93 300.214 1445.12 283.263C1429.38 276.672 1413.74 269.61 1398.47 262.55C1378.18 253.135 1357.82 243.603 1337.17 234.541C1304.72 220.299 1272.15 207.467 1238.74 198.038C1226.4 194.502 1213.83 191.553 1201.3 189.308C1159.29 181.631 1118.65 181.585 1091.32 194.586C1084.74 197.631 1079.48 201.381 1074.79 205.485C1053.16 224.949 1050.31 254.412 1047.29 284.227C1044.01 318.151 1040.37 352.075 1010.33 372.351C999.453 379.852 985.627 384.767 969.796 387.45C913.143 397.247 831.141 378.959 762.999 348.008C752.575 343.3 742.387 338.358 732.435 333.182C658.448 295.18 594.281 246.506 526.603 202.055C463.044 160.308 389.807 119.724 315.384 100.153C299.751 96.0267 284.164 92.9569 268.741 90.8265C185.95 79.9335 121.024 103.458 69.9288 132.163C-54.604 202.579 -164.619 218.539 -119.881 353.36" stroke="#3C3E4D" stroke-width="0.2" stroke-miterlimit="10"/>
<path d="M1637.61 214.594C1656.6 237.974 1658.48 261.451 1649.09 279.4C1637.13 301.923 1607.35 316.797 1565.99 314.521C1527.72 312.483 1486.79 298.587 1446.63 281.522C1431.08 274.931 1415.62 267.871 1400.54 260.812C1380.24 251.399 1359.88 241.869 1339.36 233.042C1306.92 219.156 1274.56 207.029 1241.98 198.424C1229.83 195.242 1217.58 192.528 1205.55 190.52C1164.73 183.666 1125.66 184.444 1099.38 197.679C1093.05 200.841 1087.98 204.591 1083.47 208.695C1062.71 228.391 1059.97 257.733 1056.75 287.191C1052.9 320.757 1047.61 353.735 1016.92 373.186C1005.65 380.333 991.873 385.013 975.905 387.46C919.143 396.435 838.034 377.799 770.249 346.853C760.008 342.146 749.818 337.205 739.864 332.029C666.418 294.034 602.441 245.72 535.018 201.745C471.396 160.24 398.11 120.249 324.006 101.269C308.437 97.2604 293.099 94.3088 277.688 92.5309C195.968 82.5801 133.12 107.512 81.0283 134.803C-50.0251 203.206 -161.401 225.267 -116.38 360.89" stroke="#3C3E4D" stroke-width="0.2" stroke-miterlimit="10"/>
<path d="M1639.34 217.586C1658.27 240.845 1659.15 264.201 1648.93 281.325C1636.06 302.906 1606.42 316.722 1565.64 313.86C1527.77 311.236 1487.55 296.99 1447.95 279.928C1432.51 273.222 1417.23 266.163 1402.15 259.104C1382.03 249.693 1361.73 240.281 1341.34 231.691C1309.1 218.158 1276.95 206.738 1245.01 198.957C1233.18 196.01 1221.32 193.649 1209.48 191.993C1169.93 186.081 1132.17 187.565 1107.2 201.151C1101.3 204.431 1096.23 208.181 1091.91 212.284C1071.94 232.096 1069.57 261.434 1065.78 290.536C1061.36 323.745 1054.49 355.895 1023.26 374.404C1011.79 381.199 997.81 385.526 981.958 387.855C925.021 395.89 844.807 376.905 777.566 345.964C767.323 341.258 757.317 336.318 747.362 331.143C674.34 293.271 610.672 245.198 543.439 201.582C479.823 160.434 406.541 120.801 332.892 102.645C317.454 98.8724 302.179 96.0387 287.017 94.3788C206.37 85.3696 145.789 111.709 92.4501 137.47C-44.8706 203.98 -158.042 232.022 -112.301 368.566" stroke="#3C3E4D" stroke-width="0.2" stroke-miterlimit="10"/>
<path d="M1641.17 220.539C1660.1 243.795 1659.86 266.795 1649.12 283.329C1635.53 303.968 1605.76 316.608 1565.57 313.161C1528.28 309.951 1488.66 295.473 1449.73 278.297C1434.47 271.592 1419.31 264.417 1404.47 257.477C1384.54 248.067 1364.24 238.657 1343.79 230.302C1311.49 217.006 1279.87 206.527 1248.51 199.452C1236.88 196.857 1225.33 194.732 1214 193.311C1175.52 188.34 1139.46 190.53 1115.53 204.351C1109.82 207.63 1105 211.497 1101.05 215.6C1081.95 235.645 1079.95 264.98 1075.7 293.608C1070.78 326.578 1062.38 357.666 1030.31 375.35C1018.63 381.791 1004.52 385.882 988.463 387.86C931.419 395.072 851.915 375.739 785.403 344.803C775.343 340.098 765.335 335.158 755.378 329.984C682.9 292.118 619.674 244.522 552.261 201.263C488.651 160.473 415.254 121.315 341.926 103.749C326.552 100.094 311.408 97.4959 296.494 95.9539C216.988 88.0036 158.355 115.516 104.087 139.981C-40.0584 204.598 -154.406 238.737 -108.449 375.968" stroke="#3C3E4D" stroke-width="0.2" stroke-miterlimit="10"/>
<path d="M1642.81 223.529C1661.49 246.664 1660.37 269.426 1648.85 285.253C1634.36 304.949 1604.47 316.415 1564.87 312.382C1527.98 308.586 1489.08 293.759 1450.69 276.586C1435.8 269.882 1420.64 262.708 1405.92 255.652C1385.98 246.243 1365.74 236.951 1345.36 228.716C1313.26 215.773 1281.84 206 1251.14 199.748C1239.82 197.388 1228.47 195.616 1217.45 194.43C1180.24 190.4 1145.68 193.295 1122.88 207.468C1117.41 210.864 1112.78 214.731 1109.07 218.951C1090.85 239.23 1089.15 268.444 1084.51 296.716C1079.01 329.329 1068.98 359.472 1036.24 376.332C1024.37 382.421 1010.12 386.277 994.109 388.019C937.076 394.292 858.284 374.611 792.317 343.679C782.256 338.975 772.431 334.036 762.725 328.98C690.79 291.119 627.756 243.882 560.534 200.981C496.864 160.431 423.606 121.864 350.599 104.888C335.289 101.351 320.21 98.8704 305.427 97.5635C227.063 90.6717 170.446 119.473 115.116 142.41C-35.5503 205.017 -151.073 245.252 -104.647 383.288" stroke="#3C3E4D" stroke-width="0.2" stroke-miterlimit="10"/>
<path d="M1643.91 226.573C1662.59 249.709 1660.42 272.236 1648.07 287.242C1632.79 305.882 1602.93 316.41 1563.85 311.673C1527.37 307.291 1489.26 292.23 1451.48 274.822C1436.71 268 1421.74 260.825 1407.08 253.886C1387.33 244.477 1367.09 235.185 1346.91 227.301C1314.83 214.71 1283.82 205.641 1253.76 200.21C1242.65 198.203 1231.8 196.666 1221.1 195.715C1185.17 192.625 1152.11 196.226 1130.19 210.634C1124.91 214.031 1120.71 218.016 1117.01 222.236C1099.84 242.752 1098.26 271.85 1093.12 299.889C1087.12 332.268 1075.63 361.472 1042.18 377.394C1030.1 383.13 1015.72 386.752 999.579 388.259C942.453 393.711 864.575 373.677 799.167 342.745C789.106 338.04 779.282 333.101 769.761 328.045C698.267 290.3 635.554 243.295 568.603 200.862C504.951 160.661 431.779 122.563 358.992 106.29C343.75 102.87 328.989 100.624 314.341 99.5519C237.07 93.5997 182.484 123.696 126.24 145.341C-31.2784 205.949 -147.947 252.287 -101.055 391.151" stroke="#3C3E4D" stroke-width="0.2" stroke-miterlimit="10"/>
<path d="M1644.17 229.701C1662.78 252.728 1659.56 275.026 1646.51 289.448C1630.34 307.154 1600.56 316.511 1562.02 311.069C1526.15 306.099 1488.78 290.681 1451.38 273.268C1436.8 266.444 1422.02 259.267 1407.49 252.209C1387.75 242.796 1367.76 233.619 1347.48 225.849C1315.6 213.607 1284.63 205.238 1255.43 200.628C1244.63 198.855 1233.99 197.67 1223.68 197.071C1189.04 194.92 1157.51 199.228 1136.71 213.994C1131.69 217.51 1127.68 221.496 1124.16 225.718C1107.88 246.476 1106.67 275.584 1101.09 303.161C1094.52 335.198 1081.39 363.471 1047.31 378.574C1035.11 384.078 1020.53 387.348 1004.45 388.621C947.188 393.135 870.25 372.743 805.235 341.801C795.363 337.095 785.543 332.154 776.025 327.096C705.112 289.339 642.622 242.671 575.961 200.693C512.281 160.714 439.099 123.189 366.86 107.498C351.691 104.194 337.07 102.183 322.679 101.228C246.528 96.2131 193.812 127.611 136.796 147.854C-27.7597 206.359 -145.089 258.931 -97.9193 398.662" stroke="#3C3E4D" stroke-width="0.2" stroke-miterlimit="10"/>
<path d="M1644.4 232.869C1662.75 255.786 1658.72 277.973 1645.03 291.577C1628.15 308.349 1598.09 316.534 1560.16 310.503C1524.64 304.827 1488.14 289.288 1451.43 271.752C1437.04 264.925 1422.38 257.629 1408.11 250.686C1388.56 241.271 1368.47 232.207 1348.25 224.552C1316.41 212.658 1285.92 205.109 1257.31 201.202C1246.91 199.782 1236.58 198.831 1226.6 198.467C1193.24 197.256 1163.05 202.27 1143.57 217.395C1138.99 221.03 1134.98 225.017 1131.72 229.358C1116.31 250.358 1115.23 279.358 1109.26 306.592C1102.21 338.403 1087.63 365.745 1052.73 380.03C1040.15 385.182 1025.63 388.219 1009.61 389.257C952.273 392.95 876.275 372.2 811.841 341.247C801.972 336.54 792.34 331.598 782.826 326.538C712.377 288.886 650.227 242.438 583.606 200.798C519.965 161.158 446.894 124.09 374.834 108.98C359.738 105.793 345.19 103.898 331.123 103.178C256.16 99.2187 205.179 131.685 147.339 150.759C-24.2448 207.16 -142.231 265.97 -94.5997 406.569" stroke="#3C3E4D" stroke-width="0.2" stroke-miterlimit="10"/>
<path d="M1644.81 235.994C1663.15 258.917 1658.19 280.758 1643.55 293.661C1625.97 309.497 1595.88 316.628 1558.48 309.89C1523.39 303.626 1487.63 287.729 1451.42 270.071C1437.15 263.125 1422.87 255.827 1408.42 248.881C1388.8 239.345 1368.97 230.396 1348.97 223.091C1317.15 211.545 1287.07 204.699 1259.31 201.614C1249.05 200.428 1239.11 199.829 1229.45 199.701C1197.19 199.429 1168.71 205.152 1150.3 220.518C1145.9 224.154 1142.14 228.26 1139.25 232.603C1124.73 253.845 1123.95 282.737 1117.61 309.626C1109.99 341.095 1093.78 367.503 1058.25 380.97C1045.47 385.771 1030.83 388.573 1014.61 389.259C957.14 392.013 882.082 370.904 818.226 339.942C808.546 335.233 798.918 330.29 789.408 325.228C719.539 287.565 657.611 241.454 591.282 200.27C527.865 160.97 454.535 124.359 382.905 109.949C367.882 106.878 353.658 105.218 339.48 104.615C265.636 101.595 216.455 135.248 157.91 153.034C-20.6976 207.33 -139.524 272.381 -91.4323 413.847" stroke="#3C3E4D" stroke-width="0.2" stroke-miterlimit="10"/>
<path d="M1644.95 239.142C1663.23 261.956 1657.21 283.567 1641.88 295.886C1623.33 310.668 1593.4 316.744 1556.61 309.417C1521.93 302.563 1486.98 286.427 1451.46 268.646C1437.38 261.698 1423.29 254.398 1409.02 247.45C1389.61 237.911 1369.85 229.077 1349.73 221.887C1318.06 210.572 1288.28 204.546 1261.18 202.283C1251.31 201.449 1241.51 201.085 1232.35 201.192C1201.32 201.744 1174.42 208.293 1157.14 224.017C1153 227.772 1149.61 231.88 1146.72 236.224C1133.08 257.709 1132.61 286.493 1125.7 313.038C1117.52 344.163 1099.93 369.756 1063.7 382.286C1050.73 386.735 1035.96 389.303 1019.8 389.755C962.261 391.686 888.143 370.219 824.866 339.247C815.191 334.537 805.751 329.591 796.429 324.529C727.208 286.971 665.437 241.079 599.334 200.235C535.89 161.157 462.672 125.004 391.473 111.294C376.589 108.457 362.438 106.914 348.584 106.546C275.86 104.465 228.478 139.305 169.23 155.804C-16.895 207.757 -135.805 279.407 -87.5044 421.623" stroke="#3C3E4D" stroke-width="0.2" stroke-miterlimit="10"/>
<path d="M1645.3 242.273C1663.39 265.094 1656.51 286.476 1640.35 297.975C1621.09 311.82 1590.88 316.722 1554.69 308.806C1520.62 301.363 1486.22 284.87 1451.26 267.083C1437.49 260.016 1423.41 252.713 1409.15 245.763C1389.92 236.221 1369.99 227.384 1350.02 220.427C1318.37 209.46 1289 204.138 1262.57 202.697C1252.83 202.099 1243.61 202.088 1234.65 202.548C1204.9 204.041 1179.59 211.416 1163.13 227.263C1159.17 231.02 1156.04 235.247 1153.4 239.71C1140.82 261.438 1140.47 290.113 1133.19 316.313C1124.51 347.212 1105.41 371.753 1068.36 383.463C1055.2 387.561 1040.3 389.895 1024.02 390.111C966.341 391.103 893.161 369.276 830.464 338.295C820.976 333.583 811.54 328.636 802.222 323.572C733.398 286.002 672.219 240.45 606.223 200.063C542.82 161.324 469.528 125.629 398.76 112.62C383.949 109.9 369.871 108.474 356.341 108.341C284.803 107.318 238.968 143.228 179.267 158.556C-14.1197 208.282 -133.614 286.299 -84.6704 429.383" stroke="#3C3E4D" stroke-width="0.2" stroke-miterlimit="10"/>
<path d="M1645.53 245.405C1663.54 268.115 1655.61 289.267 1638.94 300.181C1618.98 313.09 1588.67 316.817 1553.09 308.311C1519.44 300.278 1486.02 283.546 1451.57 265.636C1437.99 258.567 1424.02 251.144 1410.02 244.309C1390.81 234.765 1371.13 226.042 1351.3 219.318C1319.87 208.701 1290.73 204.083 1264.96 203.465C1255.61 203.219 1246.46 203.326 1238.07 204.139C1209.61 206.575 1185.63 214.659 1170.48 230.865C1166.78 234.74 1163.83 238.969 1161.38 243.434C1149.68 265.404 1149.51 294.089 1141.79 319.826C1132.55 350.382 1111.89 374.105 1074.14 384.877C1060.85 388.741 1045.76 390.722 1029.54 390.704C971.789 390.872 899.547 368.687 837.429 337.696C827.945 332.983 818.513 328.034 809.383 322.968C741.141 285.387 680.251 240.29 614.231 200.125C550.869 161.727 477.69 126.491 407.286 114.066C392.548 111.462 378.677 110.388 365.337 110.255C294.718 109.821 250.813 147.154 190.475 161.31C-10.4812 208.572 -130.056 293.196 -80.8383 437.148" stroke="#3C3E4D" stroke-width="0.2" stroke-miterlimit="10"/>
<path d="M1645.99 248.506C1663.99 271.223 1655.2 292.145 1637.52 302.238C1616.85 314.209 1586.44 316.76 1551.47 307.665C1518.17 298.924 1485.55 281.951 1451.6 263.919C1438.14 256.73 1424.44 249.423 1410.56 242.469C1391.53 232.921 1371.87 224.196 1351.99 217.705C1320.59 207.437 1292.2 204.112 1266.69 203.611C1257.59 203.483 1248.9 204.061 1240.65 205.11C1213.47 208.488 1191 217.282 1176.92 233.729C1173.65 237.724 1170.71 241.954 1168.63 246.42C1157.81 268.634 1157.95 297.21 1149.84 322.602C1140.04 352.813 1117.94 375.601 1079.38 385.552C1065.9 389.064 1050.61 390.693 1034.27 390.439C976.378 389.665 905.073 367.121 843.349 336.121C833.87 331.406 824.626 326.456 815.5 321.389C747.72 283.914 687.173 239.038 621.446 199.331C558.058 161.156 484.874 126.497 414.834 114.655C400.17 112.168 386.556 111.212 373.171 111.314C303.87 112.174 261.309 150.226 200.587 163.326C-7.93333 208.123 -127.586 299.357 -77.912 444.178" stroke="#3C3E4D" stroke-width="0.2" stroke-miterlimit="10"/>
<path d="M1646.23 251.671C1663.97 274.277 1654.32 294.969 1635.88 304.358C1614.44 315.273 1583.88 316.884 1549.44 307.08C1516.56 297.749 1484.75 280.537 1451.48 262.382C1438.22 255.191 1424.63 247.764 1410.83 240.925C1391.81 231.374 1372.22 222.764 1352.42 216.389C1321.23 206.471 1292.8 203.379 1268.22 204.174C1259.39 204.516 1250.95 205.212 1243.21 206.497C1217.24 210.701 1196.36 220.323 1183.41 237.129C1180.33 241.125 1177.82 245.475 1175.74 249.942C1165.79 272.399 1166.24 300.866 1157.57 325.912C1147.28 355.897 1123.74 377.749 1084.48 386.761C1070.8 389.921 1055.39 391.314 1039.11 390.825C981.081 389.11 910.596 366.324 849.569 335.197C840.277 330.48 831.037 325.529 822.099 320.46C754.901 282.974 694.577 238.438 629.143 199.189C565.797 161.354 492.727 127.155 422.934 116.015C408.344 113.645 394.802 112.806 381.808 113.261C313.808 115.063 272.607 154.187 211.433 166.114C-4.95984 208.208 -124.556 306.292 -74.4262 451.981" stroke="#3C3E4D" stroke-width="0.2" stroke-miterlimit="10"/>
<path d="M1646.39 254.929C1664.13 277.542 1653.43 298.004 1634.24 306.689C1612.09 316.664 1581.43 317.099 1547.6 306.704C1515.32 296.782 1484.06 279.212 1451.36 261.052C1438.28 253.859 1424.89 246.43 1411.21 239.471C1392.38 229.918 1372.8 221.305 1353.21 215.281C1322.05 205.713 1294.03 203.326 1270.11 204.945C1261.6 205.524 1253.55 206.573 1246.01 208.212C1221.33 213.36 1201.96 223.692 1190.07 240.74C1187.24 244.855 1184.91 249.206 1183.09 253.793C1174.2 276.493 1174.77 304.851 1165.73 329.551C1154.87 359.191 1129.71 380.106 1089.88 388.414C1076.02 391.221 1060.48 392.38 1044.25 391.655C986.091 388.997 916.609 365.97 856.161 334.834C846.873 330.116 837.821 325.163 828.887 320.093C762.336 282.713 702.17 238.399 636.964 199.491C573.66 161.997 500.519 128.258 431.275 117.703C416.758 115.45 403.355 114.846 390.618 115.42C323.802 118.282 284.26 158.361 222.519 169.231C-2.35888 208.502 -121.647 313.557 -71.2463 460.114" stroke="#3C3E4D" stroke-width="0.2" stroke-miterlimit="10"/>
<path d="M1646.54 258.05C1664.21 280.553 1652.64 300.784 1632.69 308.764C1610.03 317.8 1578.9 317.057 1545.86 306.071C1514 295.558 1483.47 277.631 1451.52 259.466C1438.75 252.154 1425.36 244.723 1411.93 237.88C1393.3 228.324 1373.79 219.826 1354.09 213.917C1323.08 204.582 1295.35 203.019 1272.1 205.463C1263.98 206.395 1256.06 207.68 1249.03 209.555C1225.62 215.648 1207.59 226.691 1196.82 244.098C1194.18 248.214 1192.1 252.685 1190.46 257.273C1182.45 280.216 1183.14 308.465 1173.78 332.936C1162.44 362.348 1135.84 382.326 1095.13 389.693C1080.95 392.266 1065.59 393.071 1049.05 392.11C990.823 388.628 922.21 365.123 862.338 333.978C853.239 329.259 844.191 324.305 835.327 319.351C769.172 281.961 709.413 237.986 644.316 199.538C580.988 162.269 508.026 129.107 438.963 119.138C424.585 117.12 411.255 116.634 398.59 117.325C332.889 121.131 294.821 162.164 232.511 171.977C0.376084 208.307 -118.789 320.336 -67.7496 467.76" stroke="#3C3E4D" stroke-width="0.2" stroke-miterlimit="10"/>
<path d="M1646.89 261.155C1664.29 283.546 1652.12 303.665 1631.23 310.94C1607.86 319.036 1576.64 317.115 1544.01 305.537C1512.5 294.314 1483.02 276.265 1451.32 257.86C1438.74 250.545 1425.48 242.994 1412.06 236.149C1393.44 226.59 1373.94 218.089 1354.38 212.414C1323.4 203.429 1296.09 202.572 1273.49 205.842C1265.51 207.01 1257.98 208.649 1251.27 210.76C1229.07 217.68 1212.62 229.552 1202.97 247.319C1200.58 251.555 1198.88 256.027 1197.43 260.617C1190.29 283.803 1191.34 312.062 1181.55 336.069C1169.64 365.137 1141.67 384.295 1100.27 390.721C1085.9 392.941 1070.42 393.511 1053.87 392.196C995.506 387.77 927.895 364.023 868.604 332.869C859.509 328.149 850.648 323.193 841.788 318.237C776.215 280.836 716.683 237.201 651.815 199.094C588.531 162.165 515.436 129.347 447.055 120.199C432.751 118.298 419.678 117.929 407.153 118.856C342.569 123.606 306.042 165.713 243.35 174.468C3.18786 208.09 -115.597 327.218 -64.2891 475.513" stroke="#3C3E4D" stroke-width="0.2" stroke-miterlimit="10"/>
<path d="M1647.05 264.299C1664.45 286.696 1651.23 306.584 1629.52 313.036C1605.51 320.309 1574.12 317.091 1542.1 304.922C1511.19 293.107 1482.26 274.7 1451.31 256.29C1438.85 248.855 1425.84 241.42 1412.62 234.573C1394.18 225.011 1374.76 216.626 1355.35 211.185C1324.39 202.551 1297.49 202.401 1275.55 206.496C1267.89 207.9 1260.75 209.894 1254.18 212.241C1233.26 220.107 1218.31 232.691 1209.73 250.7C1207.78 255.055 1206.07 259.528 1204.87 264.238C1198.79 287.667 1199.97 315.817 1189.61 339.477C1177.14 368.198 1147.55 386.418 1105.52 392.02C1090.96 393.887 1075.35 394.221 1058.68 392.67C1000.31 387.536 933.506 363.194 874.608 332.031C865.701 327.31 856.661 322.352 847.988 317.395C782.878 280.101 723.872 236.689 659.114 199.042C595.806 162.338 522.892 130.098 454.693 121.536C440.461 119.753 427.528 119.619 415.326 120.782C351.856 126.477 316.801 169.54 253.726 177.237C5.52168 207.795 -112.819 334.141 -61.2432 483.304" stroke="#3C3E4D" stroke-width="0.2" stroke-miterlimit="10"/>
<path d="M1647.43 267.408C1664.76 289.695 1650.68 309.352 1628.03 315.097C1603.32 321.429 1571.84 317.032 1540.35 304.153C1509.86 291.746 1481.73 273.098 1451.27 254.565C1439.01 247.129 1426.12 239.573 1413.08 232.725C1394.66 223.16 1375.43 214.772 1355.97 209.565C1325.24 201.282 1298.56 201.838 1277.28 206.76C1269.83 208.519 1263.01 210.749 1256.93 213.333C1237.11 222.145 1223.86 235.441 1216.4 253.81C1214.63 258.167 1213.18 262.76 1212.16 267.471C1206.95 291.144 1208.25 319.184 1197.7 342.497C1184.74 370.991 1153.72 388.271 1110.81 392.931C1096.12 394.563 1080.32 394.544 1063.71 392.757C1005.39 386.678 939.401 362.094 881.081 330.922C872.178 326.199 863.326 321.24 854.841 316.282C790.312 278.977 731.531 235.906 667.002 198.6C603.923 162.239 530.758 130.46 463.175 122.603C449.017 120.937 436.223 121.039 424.276 122.32C361.922 128.96 328.272 172.862 264.948 179.736C8.64821 207.111 -109.18 340.798 -57.1528 490.831" stroke="#3C3E4D" stroke-width="0.2" stroke-miterlimit="10"/>
<path d="M1647.76 270.516C1664.89 292.809 1649.96 312.234 1626.74 317.273C1601.51 322.663 1569.56 317.086 1538.85 303.615C1508.71 290.498 1481.38 271.61 1451.61 252.955C1439.53 245.516 1426.83 237.959 1413.74 230.99C1395.5 221.423 1376.17 213.151 1356.78 208.06C1326.08 200.127 1299.81 201.392 1279.19 207.141C1272.06 209.135 1265.56 211.602 1259.75 214.659C1241.14 224.299 1229.46 238.426 1223.06 257.037C1221.54 261.513 1220.27 266.107 1219.44 270.82C1215.1 294.736 1216.7 322.667 1205.59 345.632C1192.08 373.78 1159.69 390.238 1115.9 393.956C1101.02 395.234 1085.1 394.979 1068.55 392.955C1010.16 386.05 945.031 360.988 887.289 329.808C878.39 325.083 869.725 320.124 861.244 315.164C797.361 277.966 738.805 235.237 674.32 198.274C611.284 162.256 538.234 130.939 470.831 123.669C456.746 122.12 444.025 122.34 432.217 123.858C370.976 131.443 338.794 176.301 275.088 182.116C10.6283 206.187 -106.74 347.454 -54.3289 498.236" stroke="#3C3E4D" stroke-width="0.2" stroke-miterlimit="10"/>
<path d="M1647.9 273.664C1664.96 295.845 1649.23 315.158 1625.01 319.371C1599.15 323.937 1567.03 317.061 1536.74 302.997C1507.2 289.287 1480.6 270.041 1451.21 251.381C1439.44 243.823 1426.75 236.263 1413.91 229.411C1395.87 219.841 1376.6 211.684 1357.37 206.828C1326.87 199.247 1300.59 201.1 1280.88 207.795C1274.06 210.027 1267.76 212.848 1262.46 216.142C1245.13 226.729 1234.77 241.569 1229.48 260.54C1228.15 265.018 1227.32 269.732 1226.55 274.564C1223.27 298.724 1224.98 326.544 1213.5 349.162C1199.43 376.963 1165.49 392.599 1121.2 395.374C1106.13 396.299 1090.08 395.807 1073.4 393.547C1014.88 385.696 950.75 360.393 893.585 329.204C884.874 324.478 876.213 319.517 867.736 314.556C804.25 277.348 746.102 234.96 681.913 198.458C618.855 162.665 545.988 131.929 478.766 125.246C464.755 123.814 452.356 124.27 440.621 125.906C380.559 134.556 349.963 180.254 285.758 185.126C13.1509 205.892 -103.638 354.625 -50.7777 506.276" stroke="#3C3E4D" stroke-width="0.2" stroke-miterlimit="10"/>
<path d="M1648.31 276.772C1665.37 298.959 1648.78 318.04 1623.62 321.546C1597.06 325.169 1564.85 317.111 1535.16 302.454C1505.97 288.034 1480.23 268.665 1451.52 249.883C1439.93 242.323 1427.55 234.643 1414.53 227.789C1396.5 218.216 1377.43 210.057 1358.15 205.435C1327.62 198.087 1301.81 200.767 1282.76 208.29C1276.15 210.876 1270.17 213.934 1265.19 217.465C1249.06 228.882 1240.34 244.671 1236.04 263.767C1234.96 268.364 1234.31 273.08 1233.91 277.913C1231.5 302.317 1233.33 330.028 1221.66 352.298C1207.09 379.87 1171.73 394.565 1126.63 396.514C1111.43 397.203 1095.12 396.24 1078.5 393.743C1019.91 385.064 956.652 359.283 900.064 328.086C891.357 323.359 882.884 318.396 874.41 313.434C811.57 276.333 753.582 234.169 689.621 198.011C626.609 162.561 553.674 132.287 487.068 126.31C473.196 125.114 460.87 125.689 449.457 127.561C390.507 137.157 361.311 183.695 296.791 187.624C15.9124 204.847 -100.347 361.286 -47.0391 513.805" stroke="#3C3E4D" stroke-width="0.2" stroke-miterlimit="10"/>
<path d="M1648.54 279.887C1665.35 301.963 1647.97 320.929 1621.99 323.61C1594.8 326.407 1562.42 317.05 1533.33 301.8C1504.74 286.786 1479.54 267.059 1451.4 248.272C1439.94 240.592 1427.81 233.029 1414.98 226.173C1397.14 216.597 1377.96 208.554 1358.75 204.049C1328.44 197.053 1302.86 200.441 1284.46 208.792C1278.17 211.615 1272.58 215.028 1267.91 218.797C1253.06 231.162 1245.84 247.665 1242.66 267.121C1241.95 271.719 1241.37 276.554 1241.15 281.39C1239.86 306.155 1241.81 333.755 1229.51 355.559C1214.39 382.784 1177.66 396.656 1131.68 397.66C1116.3 397.995 1099.87 396.796 1083.12 394.062C1024.39 384.437 961.949 358.413 905.937 327.208C897.417 322.48 888.948 317.516 880.479 312.552C818.217 275.442 760.454 233.621 696.604 197.924C633.637 162.819 560.818 133.008 494.393 127.619C480.594 126.54 468.341 127.233 457.066 129.342C399.226 139.885 371.428 187.262 306.661 190.367C17.632 203.927 -98.0338 368.191 -44.4612 521.579" stroke="#3C3E4D" stroke-width="0.2" stroke-miterlimit="10"/>
<path d="M1648.87 283.011C1665.6 304.975 1647.5 323.946 1620.64 325.682C1592.93 327.535 1560.09 316.995 1531.6 301.151C1503.42 285.544 1479.02 265.577 1451.49 246.549C1440.22 238.867 1428.21 231.184 1415.57 224.326C1397.67 214.63 1378.75 206.703 1359.76 202.55C1329.47 195.906 1304.3 200.004 1286.57 209.184C1280.41 212.243 1275.2 216.012 1270.92 220.136C1257.15 233.449 1251.62 250.666 1249.56 270.483C1249.1 275.201 1248.89 280.038 1248.67 284.874C1248.25 309.884 1250.5 337.374 1237.82 358.829C1221.96 385.707 1183.79 398.283 1137.21 398.815C1121.76 399.032 1105.07 397.359 1088.39 394.389C1029.59 383.935 968.012 357.433 912.576 326.22C903.994 321.372 895.595 316.525 887.496 311.56C825.63 274.44 768.459 232.962 704.656 197.609C641.668 162.729 568.849 133.5 502.972 128.699C489.247 127.739 477.315 128.668 466.113 130.895C409.384 142.386 383.167 190.604 317.719 192.764C20.3033 202.541 -94.5168 374.755 -40.4978 529.011" stroke="#3C3E4D" stroke-width="0.2" stroke-miterlimit="10"/>
<path d="M1649.18 286.116C1665.9 308.085 1646.76 326.824 1619.15 327.851C1590.81 328.878 1557.8 317.037 1529.91 300.6C1502.26 284.281 1478.66 264.073 1451.51 245.041C1440.54 237.239 1428.54 229.554 1415.97 222.812C1398.26 213.114 1379.42 205.302 1360.31 201.266C1330.06 194.975 1305.3 199.782 1288.22 209.791C1282.45 213.206 1277.56 217.212 1273.6 221.573C1261.04 235.718 1256.89 253.767 1256.06 273.826C1255.85 278.664 1255.82 283.502 1255.85 288.458C1256.29 313.711 1258.66 341.091 1245.68 362.315C1229.27 388.846 1189.81 401.069 1142.46 400.184C1126.76 399.928 1110.01 398.137 1093.2 394.93C1034.27 383.529 973.685 356.785 918.824 325.564C910.429 320.715 902.034 315.867 893.939 310.9C832.718 273.889 775.706 232.635 712.197 197.746C649.254 163.21 576.486 134.327 510.922 130.352C497.269 129.509 485.41 130.556 474.529 133.02C418.909 145.459 394.087 194.518 328.325 195.734C22.644 201.607 -91.6325 381.891 -37.1677 537.014" stroke="#3C3E4D" stroke-width="0.2" stroke-miterlimit="10"/>
<path d="M1649.43 289.213C1665.89 311.07 1645.7 329.222 1617.54 329.895C1588.83 330.568 1555.4 316.952 1528.1 299.92C1500.87 283.007 1478 262.44 1451.59 243.404C1440.81 235.6 1429 227.913 1416.56 221.051C1398.86 211.35 1380.02 203.536 1361.06 199.735C1331.02 193.796 1306.31 199.313 1290 210.034C1284.36 213.686 1279.79 217.929 1276.22 222.646C1264.92 237.741 1262.27 256.505 1262.38 276.925C1262.35 281.765 1262.57 286.722 1262.97 291.68C1264.46 317.178 1266.77 344.447 1253.59 365.323C1236.62 391.506 1195.82 402.904 1147.59 401.074C1131.51 400.463 1114.83 398.436 1098.01 394.874C1039.01 382.642 979.294 355.419 925.01 324.19C916.62 319.34 908.412 314.49 900.321 309.523C839.497 272.501 782.895 231.59 719.617 197.045C656.721 162.854 583.89 134.434 518.876 131.048C505.297 130.322 493.577 131.606 482.951 134.19C428.374 147.46 406.125 199.131 339.008 197.867C20.4113 192.157 -88.5628 388.669 -33.9038 544.544" stroke="#3C3E4D" stroke-width="0.2" stroke-miterlimit="10"/>
<path d="M1649.61 292.452C1666 314.197 1645.29 332.707 1616.05 332.08C1586.44 331.453 1553.11 317.007 1526.23 299.381C1499.53 281.756 1477.33 261.067 1451.35 241.79C1440.76 233.984 1429.07 226.177 1416.88 219.432C1399.37 209.729 1380.61 202.031 1361.61 198.465C1331.6 192.878 1307.23 198.987 1291.64 210.656C1286.39 214.664 1281.95 219.145 1278.88 224.099C1268.6 240.025 1267.7 259.623 1268.86 280.286C1269.08 285.245 1269.66 290.204 1270.06 295.164C1272.6 320.905 1275.02 348.063 1261.29 368.589C1243.83 394.542 1201.42 404.996 1152.5 402.219C1136.3 401.373 1119.43 398.99 1102.67 395.191C1043.54 382.012 984.809 354.547 931.1 323.31C922.896 318.459 914.692 313.608 906.671 308.757C846.49 271.846 790.046 231.16 726.879 197.078C663.962 163.114 591.312 135.278 526.544 132.599C513.038 131.992 501.456 133.512 490.968 136.333C437.564 150.67 416.309 202.474 349.208 200.855C24.1526 193.127 -85.7224 395.471 -30.6185 552.213" stroke="#3C3E4D" stroke-width="0.2" stroke-miterlimit="10"/>
<path d="M1649.92 295.584C1666.3 317.334 1644.62 335.73 1614.56 334.275C1584.33 332.819 1550.83 317.07 1524.55 298.851C1498.26 280.631 1476.97 259.583 1451.55 240.301C1441.09 232.375 1429.65 224.685 1417.4 217.82C1400.09 208.114 1381.34 200.414 1362.47 197.084C1332.61 191.732 1308.53 198.669 1293.6 211.168C1288.49 215.413 1284.62 220.251 1281.74 225.561C1272.73 242.438 1273.33 262.751 1275.6 283.775C1276.18 288.736 1276.83 293.815 1277.48 298.894C1280.89 324.879 1283.61 351.927 1269.5 372.103C1251.49 397.707 1207.72 407.336 1158.12 403.613C1141.73 402.411 1124.73 399.792 1107.85 395.755C1048.65 381.745 990.781 353.802 937.647 322.557C929.447 317.705 921.43 312.853 913.413 308.001C853.81 271.08 797.658 230.856 734.655 197.001C671.967 163.383 599.07 136.011 534.666 133.922C521.233 133.433 509.906 135.072 499.557 138.13C447.258 153.416 426.916 204.88 360.049 203.615C29.6723 197.176 -82.5701 402.404 -27.0235 560.014" stroke="#3C3E4D" stroke-width="0.2" stroke-miterlimit="10"/>
<path d="M1650.19 298.706C1666.38 320.462 1643.91 338.743 1612.98 336.342C1582.04 333.94 1548.45 317.005 1522.76 298.191C1497.08 279.376 1476.39 258.087 1451.47 238.683C1426.55 219.278 1394.97 201.047 1363.12 195.691C1323.22 189.025 1294.13 204.936 1284.32 226.895C1274.5 248.854 1280.21 276.031 1284.48 302.26C1288.74 328.49 1291.76 355.427 1277.1 375.253C1252.45 408.888 1180.69 413.168 1112.42 395.954C1043.97 378.739 978.755 343.809 919.547 306.878C860.406 270.066 804.596 230.069 741.889 196.677C679.182 163.286 606.47 136.498 542.431 134.999C462.174 133.244 451.186 208.595 370.466 206.012C31.9813 195.544 -79.6992 409.212 -23.7109 567.691" stroke="#3C3E4D" stroke-width="0.2" stroke-miterlimit="10"/>
<path d="M1653.6 297.58C1667.57 316.961 1644.12 332.871 1612.03 329.761C1580.85 326.652 1546.99 309.962 1520.81 291.629C1502.57 278.972 1486.9 265.375 1470.77 252.249C1463.62 246.337 1456.41 240.661 1448.73 235.102C1424.14 217.007 1393.7 200.203 1362.95 195.914C1335.95 192.102 1314.17 198.923 1300.13 211.066C1294.26 216.253 1289.59 222.269 1286.71 228.877C1277.02 251.062 1281.63 278.223 1284.79 304.083C1287.37 325.339 1288.81 346.829 1280.56 364.41C1278.78 368.423 1276.51 372.198 1273.56 375.736C1247.18 408.29 1174.95 411.859 1106.1 394.062C1091.1 390.147 1076.2 385.406 1061.51 380.075C1009 360.764 959.155 332.837 912.977 303.617C854.063 266.352 798.301 225.903 735.818 192.057C673.782 158.684 601.782 131.675 538.094 129.942C531.257 129.815 524.869 130.161 518.928 130.98C459.836 139.407 441.985 193.695 382.266 200.35C377.773 200.817 373.148 201.047 368.391 201.041C296.068 199.888 234.894 209.493 182.698 226.311C95.7544 254.538 34.1395 302.514 -1.92739 357.252C-41.9717 418.596 -50.336 488.836 -31.3451 550.136" stroke="#3C3E4D" stroke-width="0.2" stroke-miterlimit="10"/>
<path d="M1657.19 296.438C1669 313.563 1644.56 327.104 1611.36 323.05C1579.93 319.235 1545.81 302.79 1519.02 285.055C1500.34 272.642 1484.26 259.641 1467.91 247.466C1460.65 242.029 1453.39 236.592 1445.96 231.508C1421.71 214.721 1392.47 199.462 1362.71 196.003C1336.69 193.02 1315.7 200.311 1302.08 212.566C1296.27 217.869 1291.84 224 1289.02 230.723C1279.27 253.132 1283.08 280.16 1285.19 305.769C1286.73 326.776 1286.87 347.899 1277.61 364.998C1275.58 368.89 1273.06 372.545 1269.85 375.963C1241.57 407.435 1168.86 410.295 1099.54 391.8C1084.47 387.769 1069.48 382.912 1054.89 377.466C1002.25 357.693 952.529 329.428 906.291 299.869C847.422 262.152 792.259 221.254 729.45 186.954C668.271 153.6 596.55 126.252 533.281 124.403C526.371 124.158 519.976 124.505 514.029 125.323C455.043 133.392 437.02 187.062 379.051 194.66C374.803 195.245 370.357 195.475 365.594 195.469C295.758 195.618 236.698 206.165 185.745 223.331C100.573 252.254 37.0461 298.551 -1.13721 350.543C-43.6341 408.549 -54.8171 474.736 -39.6486 532.105" stroke="#3C3E4D" stroke-width="0.2" stroke-miterlimit="10"/>
<path d="M1660.45 295.411C1670.09 310.284 1644.67 321.457 1610.16 316.461C1578.49 311.94 1544.1 295.739 1516.89 278.604C1497.84 266.551 1481.16 254.146 1464.89 242.804C1457.64 237.723 1450.45 232.761 1443.03 228.034C1419.13 212.554 1391.02 198.72 1362.37 196.326C1337.41 194.29 1317.15 201.931 1304.01 214.417C1298.45 219.835 1294.08 226.081 1291.26 232.8C1281.62 255.433 1284.64 282.328 1285.33 307.686C1286 328.445 1284.84 349.201 1274.57 365.818C1272.29 369.589 1269.51 373.124 1266.23 376.423C1236.16 406.697 1162.98 408.847 1093.33 389.89C1078.17 385.744 1063.1 380.772 1048.44 375.21C995.66 354.977 945.943 326.492 900.013 296.595C841.191 258.428 786.262 217.08 723.679 182.328C663.292 148.876 592.17 121.425 529.254 119.343C522.338 119.098 516.12 119.444 510.1 120.145C451.222 127.856 432.959 180.79 376.745 189.33C372.676 189.915 368.292 190.263 363.591 190.375C295.998 191.707 239.425 203.195 189.6 220.825C106.086 250.562 40.7617 295.063 0.641763 344.313C-44.1791 399.219 -58.3186 461.121 -47.1637 514.563" stroke="#3C3E4D" stroke-width="0.2" stroke-miterlimit="10"/>
<path d="M1664.04 294.256C1671.51 306.878 1645.03 315.568 1609.3 309.749C1577.38 304.523 1542.79 288.685 1515.01 271.913C1495.6 260.219 1478.5 248.411 1462.13 237.899C1454.89 233.176 1447.53 228.569 1440.37 224.317C1416.8 210.143 1389.65 197.733 1362.12 196.402C1338.15 195.194 1318.62 203.186 1306.15 215.901C1300.83 221.435 1296.52 227.795 1293.69 234.511C1284.06 257.485 1286.09 284.246 1285.66 309.235C1285.35 329.863 1283 350.135 1271.53 366.27C1269 369.921 1265.97 373.336 1262.44 376.515C1230.63 405.709 1156.8 407.151 1086.75 387.616C1071.51 383.354 1056.55 378.267 1041.61 372.59C988.589 352.015 938.927 323.074 893.123 292.842C834.532 254.224 779.839 212.429 717.299 177.225C657.774 143.793 587.186 116.123 524.559 113.689C517.819 113.445 511.344 113.673 505.569 114.491C446.732 121.728 428.178 174.16 373.722 183.642C369.716 184.344 365.577 184.81 361.055 184.923C295.959 187.554 241.51 199.983 192.75 217.958C111.015 248.389 44.0222 291.332 1.52861 337.724C-45.6869 389.414 -62.7223 447.153 -55.5886 496.67" stroke="#3C3E4D" stroke-width="0.2" stroke-miterlimit="10"/>
<path d="M1667.64 293.21C1672.93 303.584 1645.47 309.912 1608.44 303.152C1576.27 297.223 1541.42 281.63 1513.21 265.456C1493.43 254.122 1475.91 242.909 1459.37 233.111C1451.96 228.743 1444.86 224.611 1437.7 220.714C1414.48 207.845 1388.46 196.857 1361.99 196.472C1339.01 196.09 1320.28 204.55 1308.29 217.495C1303.03 223.143 1298.9 229.5 1296.14 236.329C1286.63 259.527 1287.67 286.153 1286 310.891C1284.63 331.271 1280.98 351.176 1268.68 366.83C1265.9 370.361 1262.61 373.656 1259.01 376.714C1225.28 404.83 1151.16 405.565 1080.64 385.334C1065.33 380.957 1050.28 375.755 1035.45 369.964C982.294 348.93 932.821 319.771 886.961 289.202C828.485 250.254 774.146 207.895 711.467 172.24C652.806 138.829 582.753 110.941 520.482 108.274C513.736 108.03 507.438 108.258 501.407 108.957C442.494 115.837 423.884 167.533 371.189 177.954C367.428 178.775 363.285 179.241 359.009 179.471C296.231 183.401 244.095 196.768 196.585 215.089C116.565 246.094 47.7834 287.598 3.27911 331.134C-46.3356 379.611 -66.272 433.191 -62.9835 478.787" stroke="#3C3E4D" stroke-width="0.2" stroke-miterlimit="10"/>
<path d="M1671.05 292.04C1673.91 300.049 1645.78 304.254 1607.62 296.556C1575.28 290.041 1539.91 274.575 1511.39 258.881C1491.17 247.789 1473.3 237.289 1456.66 228.32C1449.25 224.308 1442.23 220.65 1435.08 217.109C1412.2 205.543 1387.39 196.094 1361.98 196.652C1340 197.097 1322.06 206.024 1310.56 219.197C1305.54 224.96 1301.47 231.431 1298.71 238.257C1289.13 261.676 1289.37 288.168 1286.65 312.655C1284.22 332.786 1279.44 352.326 1266.01 367.616C1262.97 371.027 1259.43 374.202 1255.64 377.258C1220.17 404.297 1145.33 404.207 1074.48 383.517C1059.08 379.025 1043.95 373.708 1029.05 367.803C975.64 346.428 926.225 316.816 880.493 285.913C822.251 246.518 767.968 203.712 705.585 167.726C647.54 134.218 578.209 106.113 516.362 103.331C509.543 102.969 503.239 103.197 497.385 103.897C438.582 110.42 419.546 161.379 368.867 172.857C365.103 173.677 361.205 174.261 357.175 174.61C296.905 179.836 247.019 194.023 200.645 212.806C122.477 244.621 51.889 284.333 5.06971 325.133C-46.7639 370.402 -69.8567 419.708 -70.5379 461.505" stroke="#3C3E4D" stroke-width="0.2" stroke-miterlimit="10"/>
<path d="M1674.34 290.844C1675.02 296.611 1645.9 298.459 1606.44 289.823C1573.91 282.724 1538.21 267.385 1509.26 252.289C1488.67 241.556 1470.2 231.65 1453.46 223.511C1446.06 219.854 1438.86 216.551 1431.98 213.484C1409.51 203.337 1385.77 195.19 1361.42 196.691C1340.5 198.078 1323.48 207.354 1312.22 220.638C1307.26 226.515 1303.43 233.1 1300.66 239.922C1291.21 263.563 1290.52 290.038 1286.49 314.156C1283.06 334.156 1277.09 353.211 1262.46 368.02C1259.17 371.311 1255.56 374.367 1251.33 377.303C1214.12 403.265 1138.8 402.47 1067.55 381.205C1052.07 376.597 1036.87 371.166 1022.06 365.148C968.524 343.315 919.117 313.486 873.447 282.132C815.257 242.29 761.398 199.041 699.062 162.607C641.886 129.121 572.911 100.799 511.607 97.7844C504.965 97.4236 498.655 97.6515 492.729 98.2328C434.035 104.4 414.756 154.623 365.846 167.038C362.329 167.975 358.611 168.559 354.644 169.025C296.886 175.546 249.137 190.67 204.084 209.914C127.522 242.419 55.44 280.577 6.41906 318.526C-47.8214 360.588 -73.8255 405.743 -78.366 443.628" stroke="#3C3E4D" stroke-width="0.2" stroke-miterlimit="10"/>
<path d="M1677.95 289.769C1676.44 293.295 1646.39 292.907 1605.56 283.216C1572.86 275.534 1536.82 260.322 1507.44 245.824C1486.48 235.451 1467.59 226.138 1450.75 218.828C1443.24 215.644 1436.23 212.696 1429.36 209.983C1407.41 201.138 1384.64 194.408 1361.41 196.968C1341.49 199.179 1325.2 208.803 1314.5 222.432C1309.78 228.424 1306.02 235.123 1303.32 242.058C1293.79 265.919 1292.3 292.259 1287.01 316.125C1282.72 335.876 1275.24 354.566 1259.77 368.895C1256.23 372.066 1252.43 375.119 1248.06 377.818C1209.11 402.703 1133.13 401.204 1061.42 379.247C1045.86 374.525 1030.57 368.98 1015.69 362.848C961.834 340.559 912.737 310.397 867.264 278.828C809.127 238.542 755.509 194.851 693.405 157.97C637.101 124.507 568.667 95.9686 507.539 92.7222C500.89 92.3616 494.508 92.4718 488.576 93.0528C429.992 98.8644 410.469 148.35 363.397 161.819C360.06 162.756 356.472 163.575 352.685 164.041C297.193 171.738 252.02 187.913 207.855 207.501C133.085 240.694 59.2557 277.18 7.91153 312.4C-48.5557 351.259 -77.6603 392.266 -86.2513 426.242" stroke="#3C3E4D" stroke-width="0.2" stroke-miterlimit="10"/>
<path d="M1681.41 288.544C1677.72 289.833 1646.68 287.094 1604.53 276.469C1571.84 268.205 1535.28 253.12 1505.22 239.101C1483.7 229.087 1464.57 220.368 1447.63 213.885C1440.13 211.056 1433.13 208.462 1426.33 206.222C1404.73 198.676 1383.11 193.362 1361.01 196.98C1342.08 200.014 1326.6 210.103 1316.38 223.959C1311.91 230.065 1308.15 236.759 1305.5 243.807C1296.1 267.888 1293.68 294.21 1287.07 317.707C1281.78 337.327 1273.1 355.533 1256.43 369.381C1252.63 372.432 1248.57 375.366 1243.95 377.946C1203.25 401.756 1126.73 399.435 1054.69 377.023C1039.05 372.187 1023.93 366.646 1008.71 360.282C954.797 337.657 905.643 307.162 860.234 275.144C802.402 234.533 749.027 190.401 686.722 152.958C631.108 119.518 563.402 90.7652 502.568 87.1697C495.912 86.8095 489.708 86.9198 483.703 87.383C424.979 92.7216 405.278 141.588 360.165 155.991C356.891 157.045 353.484 157.864 349.944 158.447C296.973 167.436 253.945 184.544 211.039 204.474C138.063 238.353 62.366 273.288 9.06356 305.78C-49.6341 341.439 -81.8443 378.304 -94.4927 408.375" stroke="#3C3E4D" stroke-width="0.2" stroke-miterlimit="10"/>
<path d="M1684.45 287.475C1678.56 286.529 1646.6 281.56 1603.33 270C1570.46 261.154 1533.46 246.313 1503.09 232.771C1481.13 222.998 1461.59 214.871 1444.61 209.332C1437.12 206.857 1430.01 204.734 1423.59 202.848C1402.34 196.599 1381.87 192.699 1360.84 197.256C1343.1 201.112 1328.24 211.666 1318.63 225.633C1314.22 231.853 1310.7 238.661 1308.06 245.705C1298.59 270.008 1295.35 296.196 1287.68 319.444C1281.33 338.816 1271.52 356.658 1253.82 370.028C1249.83 373.077 1245.46 375.774 1240.83 378.353C1198.38 401.091 1121.21 398.067 1048.78 375.081C1033.25 370.131 1017.87 364.475 1002.76 357.998C948.536 334.916 899.701 304.087 854.245 271.736C796.476 230.679 743.353 186.104 681.291 148.213C626.56 114.794 559.342 85.7065 498.945 81.997C492.284 81.6371 486.008 81.63 480.25 82.2107C421.645 87.1949 401.703 135.329 358.442 150.784C355.35 151.837 352.006 152.773 348.53 153.474C298.091 163.753 257.337 181.677 215.581 202.067C144.481 236.753 66.977 269.905 11.3535 299.675C-49.7522 332.141 -84.6972 364.871 -101.406 391.045" stroke="#3C3E4D" stroke-width="0.2" stroke-miterlimit="10"/>
<path d="M1684.64 286.687C1676.5 283.388 1643.72 276.302 1599.13 263.68C1565.94 254.243 1528.83 239.516 1498.07 226.557C1475.76 217.133 1455.81 209.592 1438.69 204.755C1431.22 202.632 1424.19 200.979 1417.79 199.445C1397.16 194.604 1377.61 191.997 1357.74 197.614C1341.03 202.294 1327.18 213.322 1317.9 227.527C1313.74 233.866 1310.29 240.794 1307.64 247.84C1298.13 272.383 1294.09 298.46 1285.19 321.477C1277.78 340.618 1266.67 358.11 1247.98 371.012C1243.74 373.945 1239.11 376.524 1234.24 378.986C1190.09 400.67 1112.56 396.939 1039.75 373.242C1024.16 368.173 1008.71 362.398 993.543 355.802C939.323 332.361 890.487 301.172 845.214 268.46C787.749 226.923 734.929 181.866 672.989 143.496C619.012 110.069 552.605 80.7403 492.65 76.795C486.11 76.3176 479.902 76.4281 473.895 76.8911C415.481 81.5239 395.335 128.964 353.915 145.365C350.891 146.536 347.733 147.472 344.509 148.291C296.416 159.75 258.123 178.739 217.691 199.487C148.495 234.888 69.6021 266.519 11.6644 293.474C-51.5175 322.891 -89.5831 351.396 -110.327 373.694" stroke="#3C3E4D" stroke-width="0.2" stroke-miterlimit="10"/>
<path d="M1684.89 285.836C1674.38 280.301 1640.9 270.979 1594.99 257.295C1561.73 247.386 1524.26 232.654 1493.04 220.162C1470.39 211.087 1450.04 204.131 1432.65 200.115C1425.01 198.344 1418.19 197.043 1411.87 195.978C1391.8 192.43 1373.24 191.234 1354.47 197.793C1338.78 203.298 1325.75 214.799 1316.91 229.126C1313.01 235.584 1309.62 242.631 1306.98 249.679C1297.6 274.463 1292.47 300.545 1282.44 323.214C1274.05 342.241 1261.75 359.266 1242.07 371.7C1237.76 374.515 1232.89 376.978 1227.76 379.322C1181.93 399.952 1103.77 395.396 1030.73 371.223C1015.07 366.034 999.563 360.141 984.515 353.425C930.231 329.508 881.395 297.959 836.305 264.886C778.96 222.868 726.508 177.448 664.623 138.481C611.585 105.047 545.62 75.4753 486.291 71.2943C479.753 70.8168 473.481 70.8096 467.66 71.273C409.437 75.5542 388.903 122.301 349.574 139.765C346.802 141.054 343.83 141.991 340.673 142.928C295.176 155.684 259.275 175.62 219.797 196.727C152.505 232.844 72.0391 262.952 11.7884 287.091C-53.3508 313.339 -94.6532 337.734 -119.246 356.156" stroke="#3C3E4D" stroke-width="0.2" stroke-miterlimit="10"/>
<path d="M1684.83 285.162C1672.14 277.39 1637.58 265.831 1590.72 251.084C1557.32 240.584 1519.38 225.965 1487.95 214.057C1464.77 205.332 1444.21 198.961 1426.74 195.768C1419.12 194.348 1412.38 193.518 1406.08 192.805C1386.56 190.549 1368.99 190.764 1351.19 198.384C1336.53 204.714 1324.33 216.69 1315.99 231.255C1312.16 237.833 1308.97 244.882 1306.39 252.049C1296.97 277.075 1291.03 303.045 1279.77 325.482C1270.33 344.278 1256.92 360.954 1236.12 373.037C1231.56 375.735 1226.44 378.08 1221.07 380.307C1173.55 399.882 1095.02 394.619 1021.66 369.851C1005.95 364.543 990.38 358.531 975.271 351.696C920.739 327.302 872.338 295.509 827.365 261.958C770.207 219.577 717.991 173.558 656.413 134.11C604.13 100.668 538.976 70.8545 480.022 66.3199C473.486 65.8422 467.401 65.8352 461.516 66.181C403.3 70.1103 382.68 116.046 345.073 134.574C342.487 135.864 339.649 137.036 336.678 137.973C293.709 151.911 260.082 172.912 221.926 194.378C156.603 231.329 74.4344 259.679 12.124 281.118C-55.1549 304.196 -99.5075 324.479 -128.13 339.022" stroke="#3C3E4D" stroke-width="0.2" stroke-miterlimit="10"/>
<path d="M1684.89 284.374C1670.01 274.364 1634.64 260.685 1586.4 244.757C1552.93 233.784 1514.63 219.16 1482.8 207.837C1459.28 199.462 1438.32 193.677 1420.77 191.305C1413.16 190.238 1406.45 189.76 1400.23 189.518C1381.02 188.437 1364.69 190.182 1347.98 198.745C1334.35 205.901 1322.9 218.233 1315.14 233.155C1311.56 239.853 1308.43 247.021 1305.92 254.307C1296.64 279.574 1289.71 305.432 1277.41 327.638C1266.92 346.202 1252.21 362.527 1230.41 374.142C1225.61 376.723 1220.3 379.068 1214.68 381.178C1165.48 399.697 1086.58 393.727 1012.66 368.246C996.881 362.819 981.439 356.688 966.084 349.733C911.555 324.98 863.087 292.71 818.363 258.915C761.509 216.053 709.596 169.553 648.14 129.625C596.611 96.175 532.2 66.0022 473.569 61.3489C467.22 60.8713 460.887 60.7464 455.004 61.0923C396.911 64.552 376.155 109.91 340.452 129.503C337.933 130.911 335.281 132.084 332.562 133.139C292.001 148.376 260.948 170.326 223.93 192.151C160.507 229.817 76.9525 256.644 12.1476 275.263C-57.204 295.287 -104.739 311.221 -137.323 322" stroke="#3C3E4D" stroke-width="0.2" stroke-miterlimit="10"/>
<path d="M1685.02 283.569C1667.97 271.318 1631.71 255.4 1582.21 238.525C1548.61 226.961 1509.9 212.569 1477.55 201.595C1453.68 193.57 1432.33 188.371 1414.69 186.821C1407.11 186.107 1400.67 186.452 1394.28 186.209C1375.2 185.364 1360.21 189.462 1344.73 199.205C1332.05 207.07 1321.68 219.994 1314.17 235.038C1310.85 241.855 1307.79 249.142 1305.28 256.43C1295.95 281.939 1288.3 307.802 1274.69 329.66C1263.22 348.109 1247.33 363.967 1224.54 375.112C1219.48 377.576 1213.93 379.804 1208.24 381.797C1157.54 399.26 1077.84 392.464 1003.87 366.505C988.025 360.96 972.522 354.709 957.29 347.635C902.513 322.405 854.298 289.891 809.69 255.617C752.957 212.274 701.414 165.409 640.197 124.883C589.607 91.426 525.822 61.0108 467.634 56.1213C461.221 55.5259 455.14 55.5188 449.193 55.747C391.292 58.8547 370.148 103.518 336.467 124.059C334.133 125.467 331.549 126.758 329.082 127.931C291.045 144.351 262.263 167.367 226.566 189.551C164.86 227.935 79.9219 253.237 12.9935 269.035C-58.4951 285.886 -109.077 297.705 -145.502 304.601" stroke="#3C3E4D" stroke-width="0.2" stroke-miterlimit="10"/>
<path d="M1685.22 282.885C1665.92 268.276 1628.73 250.353 1578.03 232.296C1544.36 220.259 1505.3 205.862 1472.55 195.473C1448.27 187.681 1426.52 183.068 1408.87 182.459C1401.19 182.214 1394.69 182.442 1388.58 183.023C1370.47 184.531 1356.05 188.984 1341.73 199.789C1330.26 208.48 1320.53 221.878 1313.53 237.162C1310.27 244.098 1307.58 251.388 1304.95 258.796C1295.77 284.545 1286.94 310.296 1272.23 331.805C1259.89 350.023 1242.76 365.647 1218.73 376.205C1213.43 378.552 1207.63 380.662 1201.69 382.537C1149.37 399.062 1069.23 391.439 994.706 364.768C978.804 359.103 963.239 352.733 948.012 345.657C893.239 320.068 845.142 287.075 800.533 252.44C744.105 208.616 692.679 161.269 631.585 120.263C581.748 86.7978 518.773 56.1405 461.026 51.0147C454.615 50.4191 448.471 50.2943 442.71 50.5228C385 53.2782 363.652 97.2462 331.873 118.853C329.607 120.379 327.208 121.67 324.809 122.961C289.361 140.682 262.966 164.647 228.471 187.309C168.73 226.527 82.3421 250.186 12.9226 263.162C-60.4516 276.956 -114.329 284.539 -154.777 287.55" stroke="#3C3E4D" stroke-width="0.2" stroke-miterlimit="10"/>
<path d="M1685.16 282.092C1663.68 265.242 1625.43 245.077 1573.78 225.956C1539.85 213.444 1500.62 199.044 1467.48 189.24C1442.67 181.798 1420.71 177.772 1402.73 177.868C1395.07 177.977 1388.65 178.675 1382.56 179.609C1364.94 182.295 1351.58 188.279 1338.34 200.029C1327.9 209.547 1318.99 223.42 1312.67 238.944C1309.67 245.999 1307.05 253.409 1304.24 260.818C1295.01 286.809 1285.39 312.447 1269.44 333.724C1256.05 351.709 1237.82 366.983 1212.79 377.072C1207.24 379.301 1201.37 381.294 1195.19 383.052C1141.19 398.519 1060.43 390.07 985.845 362.921C969.882 357.137 954.256 350.648 939.152 343.453C884.131 317.386 836.285 284.15 791.859 249.154C735.551 204.849 684.494 157.138 623.639 115.533C574.555 82.061 512.205 51.1614 455.082 45.7996C448.858 45.204 442.716 45.0791 436.773 45.3074C379.069 47.7101 357.635 90.8648 327.758 113.537C325.676 115.064 323.529 116.474 321.197 117.883C288.087 136.787 264.076 161.701 230.782 184.841C172.939 224.776 84.9834 246.909 13.4422 257.061C-62.0011 267.796 -118.989 271.141 -163.458 270.265" stroke="#3C3E4D" stroke-width="0.2" stroke-miterlimit="10"/>
<path d="M1685.36 281.399C1661.7 262.306 1622.64 240.017 1569.61 219.712C1535.6 206.726 1495.9 192.439 1462.43 182.985C1437.27 175.894 1414.92 172.454 1396.86 173.374C1389.21 173.836 1382.63 174.887 1376.81 176.293C1359.68 180.156 1347.12 187.555 1335.29 200.487C1325.68 210.832 1317.97 225.18 1311.91 240.826C1309.15 248.001 1306.6 255.53 1303.79 262.941C1294.7 289.174 1284.16 314.817 1267.11 335.745C1252.74 353.616 1233.14 368.422 1207.12 378.041C1201.33 380.153 1195.21 382.028 1188.78 383.668C1133.1 398.078 1051.97 388.92 976.899 361.175C960.875 355.271 945.189 348.662 930.024 341.348C874.942 314.803 827.281 281.206 782.855 245.848C726.735 201.178 675.915 152.866 615.368 110.781C567.037 77.3006 505.43 46.0407 448.75 40.4423C442.528 39.8465 436.322 39.6038 430.565 39.8323C373.054 41.8825 351.233 84.3414 323.44 108.081C321.61 109.727 319.53 111.254 317.317 112.546C286.793 132.752 265.166 158.617 233.007 182.116C177.128 222.887 87.7939 243.494 13.7663 250.821C-63.5585 258.496 -123.837 257.601 -172.138 252.836" stroke="#3C3E4D" stroke-width="0.2" stroke-miterlimit="10"/>
<path d="M1685.34 280.633C1659.32 259.296 1619.44 234.882 1565.28 213.511C1530.96 199.933 1491.16 185.76 1457.29 176.891C1431.79 170.151 1409.04 167.298 1390.9 169.043C1383.27 169.857 1376.71 171.262 1370.97 173.139C1354.21 178.298 1342.82 187.113 1332.09 200.991C1323.43 212.046 1316.61 226.987 1311.05 242.872C1308.36 250.167 1306.06 257.816 1303.26 265.229C1294.12 291.704 1282.79 317.234 1264.5 337.93C1249.08 355.569 1228.38 370.023 1201.18 379.172C1195.14 381.166 1188.78 382.925 1182.17 384.565C1124.8 397.916 1043.12 388.048 967.865 359.589C951.781 353.567 936.218 346.839 920.808 339.404C865.546 312.499 818.07 278.541 774.012 242.821C718.196 197.67 667.561 148.994 607.137 106.427C559.743 72.9394 498.761 41.437 442.521 35.602C436.235 34.8883 430.216 34.6457 424.462 34.8742C367.075 36.4539 344.866 78.2161 319.156 103.023C317.327 104.669 315.498 106.315 313.537 107.725C285.347 129.116 266.168 156.049 235.327 179.909C181.343 221.398 90.629 240.477 14.2997 244.977C-64.9066 249.591 -128.474 244.454 -180.791 235.798" stroke="#3C3E4D" stroke-width="0.2" stroke-miterlimit="10"/>
<path d="M1685.19 279.839C1657.01 256.256 1616.13 229.715 1560.77 207.16C1526.38 193.107 1486.11 179.047 1451.96 170.647C1425.94 164.257 1402.73 161.875 1384.76 164.561C1376.97 165.729 1370.68 167.606 1364.95 169.836C1348.68 176.175 1338.35 186.524 1328.77 201.466C1321.13 213.349 1315.13 228.766 1310.01 244.773C1307.64 252.306 1305.27 259.838 1302.61 267.489C1293.42 294.205 1281.11 319.623 1261.78 340.087C1245.32 357.494 1223.5 371.597 1195.39 380.394C1189.16 382.388 1182.55 384.029 1175.81 385.434C1116.84 397.844 1034.66 387.031 958.978 358.093C942.834 351.951 927.21 345.103 911.923 337.549C856.6 310.167 809.126 275.846 765.251 239.764C709.557 194.131 659.292 145.09 599.109 101.923C552.467 68.4284 492.294 36.6833 436.496 30.6116C430.213 29.8977 424.195 29.655 418.377 29.7658C361.182 30.9925 338.771 72.0582 314.958 97.9332C313.381 99.6975 311.553 101.344 309.842 102.872C284.235 125.566 267.437 153.451 237.729 177.671C185.706 219.996 93.4309 237.547 14.7361 239.102C-66.5333 240.653 -133.204 231.271 -189.347 218.723" stroke="#3C3E4D" stroke-width="0.2" stroke-miterlimit="10"/>
<path d="M1685.27 279.18C1654.91 253.351 1612.97 224.564 1556.67 200.942C1522.03 186.414 1481.58 172.351 1446.99 164.419C1420.62 158.381 1397.01 156.586 1378.97 160.097C1371.2 161.619 1364.92 163.849 1359.28 166.551C1343.31 174.069 1333.96 185.835 1325.6 201.96C1318.99 214.671 1313.93 230.446 1309.19 246.811C1307.08 254.464 1304.78 262.116 1302.11 269.768C1293.06 296.727 1279.77 322.032 1259.4 342.264C1241.96 359.556 1218.97 373.19 1189.68 381.516C1183.21 383.393 1176.54 384.916 1169.36 386.203C1108.9 397.554 1025.98 386.03 950.002 356.496C933.797 350.235 918.113 343.267 902.765 335.593C847.381 307.733 800.158 273.169 756.217 236.607C700.828 190.491 650.681 140.967 590.806 97.3189C544.916 63.8164 485.552 31.8288 430.01 25.5201C423.913 24.8061 417.832 24.4455 412.016 24.5563C354.829 25.4297 332.148 65.6805 310.415 92.6241C308.839 94.3888 307.262 96.1535 305.802 97.8005C282.71 121.68 268.172 150.635 239.596 175.215C189.467 218.259 95.8819 234.399 14.8228 233.006C-68.4421 231.611 -138.279 217.865 -198.432 201.422" stroke="#3C3E4D" stroke-width="0.2" stroke-miterlimit="10"/>
<path d="M1685.32 278.369C1652.73 250.175 1609.85 219.377 1552.36 194.569C1517.65 179.566 1476.67 165.498 1441.69 158.152C1414.98 152.466 1390.98 151.259 1372.67 155.595C1364.92 157.471 1358.48 160.055 1353.11 163.229C1337.51 172.045 1329.33 185.229 1322.06 202.301C1316.4 215.724 1312.22 232.093 1307.99 248.698C1305.94 256.47 1303.89 264.243 1301.23 271.897C1292.13 299.098 1278.12 324.408 1256.45 344.29C1237.97 361.349 1213.76 374.749 1183.6 382.487C1176.88 384.246 1169.96 385.652 1162.72 386.821C1100.65 397.23 1017.3 384.878 940.952 354.629C924.871 348.248 908.943 341.161 893.718 333.368C838.156 305.146 791.052 270.102 747.362 233.295C692.162 186.815 642.319 136.807 582.685 92.5594C537.614 59.1672 478.808 26.8186 423.825 20.1553C417.731 19.4411 411.652 19.0804 405.956 19.0735C348.961 19.5936 325.895 59.147 306.057 87.1597C304.731 89.0429 303.339 90.8082 301.763 92.5733C280.999 117.64 269.089 147.665 241.645 172.605C193.475 216.487 98.3315 231.097 14.9112 226.756C-70.1627 222.412 -143.23 204.182 -207.505 183.961" stroke="#3C3E4D" stroke-width="0.2" stroke-miterlimit="10"/>
<path d="M1685.37 277.7C1650.61 247.258 1606.74 214.331 1548.05 188.337C1513.09 172.859 1472.01 158.905 1436.5 151.91C1409.27 146.575 1384.99 145.839 1366.68 151.119C1358.76 153.348 1352.58 156.404 1347.23 159.932C1331.94 169.929 1324.81 184.649 1318.87 202.787C1314.23 217.039 1310.87 233.885 1307.08 250.612C1305.28 258.504 1303.3 266.396 1300.64 274.052C1291.68 301.495 1276.69 326.692 1253.8 346.342C1234.27 363.168 1208.95 376.216 1177.62 383.483C1170.65 385.125 1163.49 386.412 1156.07 387.581C1092.32 396.93 1008.37 383.749 931.778 353.021C915.636 346.521 899.648 339.314 884.363 331.401C828.74 302.701 781.704 267.413 738.131 230.126C683.236 183.163 633.512 132.672 574.001 87.9428C529.68 54.5434 471.616 21.8343 417.14 15.052C411.048 14.3376 405.089 13.8591 399.278 13.9698C342.475 14.1366 319.138 52.8739 301.194 81.9559C300.119 83.9577 298.793 85.8414 297.402 87.6071C279.216 113.979 269.496 144.956 243.366 170.257C197.086 214.858 100.635 228.056 14.8533 220.764C-72.28 213.353 -148.444 190.873 -216.538 166.753" stroke="#3C3E4D" stroke-width="0.2" stroke-miterlimit="10"/>
<path d="M1685.16 276.934C1648.23 244.242 1603.18 209.183 1543.56 182.121C1508.46 166.05 1467.1 152.21 1431.38 145.802C1403.81 140.818 1379.15 140.671 1360.68 146.659C1352.78 149.242 1346.63 152.652 1341.36 156.653C1326.55 167.832 1320.41 183.971 1315.62 203.176C1312 218.257 1309.64 235.579 1306.35 252.547C1304.81 260.559 1302.83 268.453 1300.23 276.229C1291.23 303.914 1275.26 328.999 1251.33 348.416C1230.77 365.009 1204.34 377.705 1171.84 384.502C1164.63 386.025 1157.21 387.195 1149.55 388.246C1084.13 396.534 999.811 382.642 922.923 351.316C906.722 344.696 890.857 337.369 875.328 329.336C819.528 300.275 772.796 264.507 729.407 226.858C674.635 179.412 625.097 128.555 566.012 83.2251C522.443 49.8182 465.186 16.8661 411.151 9.84656C405.179 9.01427 399.289 8.65352 393.414 8.64635C336.737 8.34153 313.015 46.3807 297.213 76.6509C296.138 78.6532 295.064 80.6555 293.923 82.5398C278.062 110.099 270.966 142.148 245.965 167.811C201.825 213.25 103.636 224.916 15.4974 214.673C-73.6253 204.31 -152.948 177.46 -225.04 149.44" stroke="#3C3E4D" stroke-width="0.2" stroke-miterlimit="10"/>
<path d="M1685.23 276.126C1645.96 241.183 1600.1 203.992 1539.47 175.743C1503.94 159.195 1462.47 145.469 1426.31 139.531C1398.4 134.899 1373.34 135.34 1354.8 142.154C1346.92 145.092 1340.6 148.857 1335.6 153.33C1321.16 165.809 1316 183.367 1312.55 203.64C1309.76 219.551 1308.41 237.351 1305.55 254.441C1304.26 262.574 1302.35 270.588 1299.75 278.365C1290.89 306.293 1273.95 331.265 1248.98 350.45C1227.44 366.928 1199.66 379.154 1166.36 385.479C1158.9 386.885 1151.3 388.054 1143.51 388.87C1076.49 396.215 991.557 381.493 914.303 349.451C898.043 342.711 882.118 335.265 866.713 327.112C810.854 297.571 764.191 261.558 720.988 223.546C666.338 175.616 617.171 124.393 558.328 78.4627C515.51 45.0481 459.062 11.8526 405.469 4.59584C399.499 3.76331 393.545 3.28446 387.857 3.2775C331.189 2.61866 307.266 39.9597 293.471 71.183C292.647 73.304 291.573 75.3068 290.683 77.3098C277.396 106.176 272.671 139.179 248.616 165.202C206.365 211.362 106.69 221.615 16.3807 208.418C-74.7287 195.103 -157.207 163.88 -233.11 131.958" stroke="#3C3E4D" stroke-width="0.2" stroke-miterlimit="10"/>
<path d="M1685.2 275.473C1643.76 238.278 1596.73 198.955 1535.09 169.518C1499.49 152.494 1457.75 138.883 1421.06 133.295C1392.63 129.016 1367.3 129.928 1348.75 137.687C1340.7 140.979 1334.65 145.217 1329.66 150.045C1315.53 163.706 1311.6 182.803 1309.3 204.143C1307.53 220.885 1306.99 239.161 1304.64 256.492C1303.41 264.745 1301.75 272.879 1299.23 280.776C1290.32 308.947 1272.58 333.805 1246.39 352.757C1223.82 369.002 1194.93 380.876 1160.46 386.729C1152.94 388.017 1145.1 389.069 1136.88 389.766C1068.19 396.049 982.827 380.497 905.339 347.975C889.019 341.116 873.035 333.55 857.569 325.276C801.468 295.257 755.174 258.882 711.971 220.506C657.694 172.212 608.646 120.505 549.861 73.9738C507.793 40.552 451.969 7.1132 398.999 -0.380621C393.032 -1.21337 387.264 -1.6921 381.328 -1.81732C324.853 -2.83009 300.478 33.6937 288.822 66.1062C287.998 68.2276 287.174 70.3491 286.534 72.4708C275.385 102.526 273.462 136.601 250.602 163.104C210.553 210.221 109.142 218.94 16.4127 202.671C-76.6834 186.402 -162.316 150.804 -242.211 114.978" stroke="#3C3E4D" stroke-width="0.2" stroke-miterlimit="10"/>
<path d="M1684.98 274.702C1641.31 235.137 1593.35 193.797 1530.53 163.171C1494.68 145.671 1452.59 132.056 1415.7 127.056C1386.93 123.129 1361.02 124.63 1342.39 133.217C1334.37 136.863 1328.34 141.456 1323.44 146.757C1309.67 161.719 1306.66 182.12 1305.69 204.528C1304.87 221.983 1305.4 240.855 1303.36 258.426C1302.39 266.799 1300.8 275.053 1298.27 282.953C1289.5 311.366 1270.67 336.23 1243.38 354.831C1219.77 370.843 1189.78 382.364 1154.4 387.864C1146.63 389.034 1138.54 389.967 1130.25 390.547C1060.03 396.003 973.998 379.503 896.212 346.382C879.833 339.403 863.789 331.717 848.447 323.324C792.354 292.943 746.064 256.205 702.98 217.348C648.826 168.57 599.899 116.377 541.607 69.3633C500.106 35.9337 445.207 2.13363 392.495 -5.59789C386.531 -6.43087 380.699 -7.02779 374.949 -7.15283C318.668 -8.51974 293.908 27.3049 284.256 60.6714C283.683 62.9117 283.043 65.0339 282.469 67.2741C273.824 98.5189 274.151 133.667 252.602 160.532C214.255 208.37 111.545 215.674 16.5328 196.567C-78.5459 177.343 -167.328 137.368 -251.211 97.6346" stroke="#3C3E4D" stroke-width="0.2" stroke-miterlimit="10"/>
<path d="M1684.86 273.92C1639.04 232.1 1589.91 188.625 1526.33 156.929C1490.23 138.952 1447.85 125.451 1410.52 120.921C1381.47 117.464 1355.11 119.437 1336.41 128.852C1328.4 132.853 1322.2 137.8 1317.57 143.575C1304.11 159.721 1302.15 181.662 1302.51 205.139C1302.52 223.425 1304.05 242.774 1302.45 260.468C1301.72 268.962 1300.13 277.218 1297.67 285.237C1288.86 313.894 1269.24 338.644 1240.73 357.012C1216.08 372.79 1184.81 383.959 1148.44 388.987C1140.43 390.039 1132.09 390.854 1123.63 391.433C1051.75 395.827 965.351 378.614 887.201 344.777C870.762 337.678 854.659 329.872 839.257 321.358C782.923 290.497 736.819 253.396 693.987 214.294C640.139 165.032 591.216 112.473 533.349 64.858C492.665 31.539 438.507 -2.62261 386.235 -10.5917C380.391 -11.5427 374.628 -12.0217 368.814 -12.2649C312.726 -13.9861 287.332 21.0207 279.999 55.5779C279.426 57.8187 279.103 60.1777 278.713 62.4187C272.635 94.972 275.326 131.075 254.904 158.302C218.441 206.862 114.067 212.749 17.0729 190.686C-80.1704 168.504 -171.917 124.15 -259.666 80.391" stroke="#3C3E4D" stroke-width="0.2" stroke-miterlimit="10"/>
<path d="M1684.95 273.259C1636.97 229.185 1586.91 183.692 1522.08 150.689C1457.25 117.686 1373.36 100.943 1330.49 124.373C1281.43 151.098 1304.62 213.314 1301.6 262.399C1297.35 329.183 1235.61 378.667 1142.69 389.88C1049.77 401.093 928.338 373.565 830.264 319.163C702.963 248.557 628.856 146.511 525.214 60.0052C480.777 22.8974 419.675 -15.5292 362.614 -17.7242C306.469 -19.9179 281.125 14.5072 275.61 50.019C270.162 85.6488 277.438 126.015 256.887 155.608C222.374 205.008 116.52 209.478 17.1127 184.338C-82.1114 159.199 -177.004 110.464 -268.736 62.795" stroke="#3C3E4D" stroke-width="0.2" stroke-miterlimit="10"/>
</svg>
