<svg width="525" height="752" viewBox="0 0 525 752" fill="none" xmlns="http://www.w3.org/2000/svg">
<g style="mix-blend-mode:color-dodge" opacity="0.15">
<path d="M194.295 529.879C195.266 530.966 196.238 530.966 197.209 530.966C198.181 530.966 199.152 529.879 200.124 528.793L216.639 503.806C217.61 501.634 217.61 499.461 215.667 498.375C92.2901 377.787 12.6292 201.794 7.7718 6.24666C7.7718 4.07391 5.82885 1.90116 3.8859 1.90116C1.94295 1.90116 0 2.98753 0 6.24666C0 12.7649 0 20.3695 0 26.8878C0 224.608 74.8036 403.86 194.295 529.879ZM241.897 463.611C242.869 463.611 243.84 462.524 244.812 461.438L261.327 436.451C262.298 434.278 262.298 432.106 260.355 431.019C155.436 325.641 87.4328 174.635 82.5754 5.16028C82.5754 2.98753 80.6324 0.814781 78.6895 0.814781C76.7465 0.814781 74.8036 2.98753 74.8036 5.16028C74.8036 11.6785 74.8036 19.2832 74.8036 25.8014C74.8036 196.362 137.949 350.628 238.983 461.438C239.954 462.524 240.926 463.611 241.897 463.611ZM283.671 395.169C284.642 396.255 285.614 396.255 286.585 396.255C287.557 396.255 288.528 395.169 289.5 394.083L306.015 370.182C306.986 368.01 306.986 365.837 306.015 364.75C218.582 274.581 162.236 147.475 157.379 6.24666C157.379 4.07391 156.407 2.98754 155.436 1.90116C154.465 0.814785 152.522 1.90116 151.55 2.98753C150.579 4.07391 150.579 5.16028 150.579 6.24666C150.579 12.7649 150.579 20.3695 150.579 26.8878C149.607 170.289 201.095 299.568 283.671 395.169ZM329.33 326.727C330.302 327.814 331.273 327.814 332.245 327.814C333.216 327.814 334.187 326.727 335.159 325.641L350.703 301.741C351.674 299.568 351.674 297.395 350.703 296.309C281.728 222.435 237.04 119.23 232.183 5.16028C232.183 4.07391 231.211 1.90116 230.24 0.814781C229.268 -0.271594 227.325 -0.271594 226.354 0.814781C225.382 1.90116 224.411 2.98753 224.411 4.07391C224.411 10.5922 224.411 18.1968 224.411 24.715C223.439 143.13 264.241 248.508 329.33 326.727ZM377.904 260.458C378.875 260.458 379.847 259.372 380.818 258.286L396.362 235.472C397.333 233.299 397.333 231.126 396.362 230.04C344.874 171.376 311.844 93.1567 306.986 6.24666C306.986 5.16028 306.015 2.98753 305.043 2.98753C304.072 1.90116 302.129 2.98753 301.157 4.07391C300.186 5.16028 300.186 6.24666 300.186 7.33304C300.186 13.8513 299.214 21.4559 299.214 29.0605C299.214 117.057 328.359 198.535 375.961 260.458C374.989 259.372 376.932 260.458 377.904 260.458ZM423.563 190.93C424.535 190.93 425.506 189.844 426.478 188.758L441.05 167.03C442.021 165.944 442.021 163.771 441.05 161.598C407.048 119.23 385.676 64.9109 381.79 5.16028C381.79 4.07391 381.79 2.98754 380.818 1.90116C379.847 0.814785 378.875 0.814781 377.904 0.814781C376.932 0.814781 375.961 0.814785 374.989 1.90116C374.018 2.98754 374.018 4.07391 374.018 5.16028C374.018 11.6785 373.046 19.2832 373.046 25.8014C373.046 86.6384 390.533 143.13 420.649 187.671C421.62 189.844 422.592 190.93 423.563 190.93ZM976.333 498.375C974.39 499.461 974.389 502.72 975.361 503.806L991.876 528.793C992.848 529.879 993.819 529.879 994.79 530.966C995.762 530.966 996.733 530.966 997.705 529.879C1117.2 403.86 1192 225.694 1192 26.8878C1192 20.3695 1192 12.7649 1192 6.24666C1192 4.07391 1190.06 1.90116 1188.11 1.90116C1186.17 1.90116 1184.23 4.07391 1184.23 6.24666V7.33304C1178.4 201.794 1099.71 377.787 976.333 498.375ZM1003.53 533.139C1002.56 532.052 1001.59 532.052 1000.62 530.966C999.648 530.966 998.676 530.966 997.705 532.052C890.843 637.431 749.979 701.527 595.514 701.527C441.05 701.527 301.157 637.431 193.324 532.052C192.352 530.966 191.381 530.966 190.409 530.966C189.438 530.966 188.466 532.052 187.495 533.139L171.951 558.125C170.98 560.298 170.98 562.471 171.951 563.557C282.699 679.799 431.335 751.5 595.514 751.5C759.694 751.5 908.329 679.799 1019.08 563.557C1020.05 562.471 1021.02 559.212 1019.08 558.125L1003.53 533.139ZM931.645 431.019C930.673 432.106 929.702 435.365 930.673 436.451L947.188 461.438C948.16 462.524 949.131 462.524 950.103 463.611C951.074 463.611 952.046 463.611 953.017 462.524C1054.05 351.714 1117.2 197.449 1117.2 26.8878C1117.2 20.3695 1117.2 12.7649 1117.2 6.24666C1117.2 4.07391 1115.25 1.90116 1113.31 1.90116C1111.37 1.90116 1109.42 4.07391 1109.42 6.24666C1104.57 174.635 1036.56 325.641 931.645 431.019ZM235.097 463.611C234.126 463.611 233.154 464.697 232.183 465.783L215.667 490.77C214.696 492.943 214.696 495.115 215.667 496.202C313.786 602.667 446.879 667.849 594.543 667.849C742.207 667.849 875.299 602.667 973.418 496.202C974.39 495.115 975.361 492.943 973.418 490.77L958.846 465.783C957.874 464.697 956.903 464.697 955.931 463.611C954.96 463.611 953.989 463.611 953.017 464.697C858.784 560.298 733.464 617.876 595.514 617.876C458.536 617.876 333.216 560.298 238.011 464.697C238.011 464.697 236.068 463.611 235.097 463.611ZM885.985 364.75C885.014 365.837 884.042 369.096 885.985 370.182L902.5 394.083C903.472 395.169 904.443 395.169 905.415 396.255C906.386 396.255 907.358 396.255 908.329 395.169C991.876 300.654 1043.36 170.289 1043.36 26.8878C1043.36 19.2832 1043.36 12.7649 1043.36 5.16028C1043.36 2.98753 1041.42 0.814781 1039.48 0.814781C1037.54 0.814781 1035.59 2.98753 1035.59 5.16028C1029.76 147.475 973.418 274.581 885.985 364.75ZM280.756 397.342C279.785 397.342 278.813 398.428 277.842 399.514L261.327 423.415C260.355 425.587 260.355 427.76 261.327 428.847C345.845 525.534 464.365 585.285 594.543 585.285C724.72 585.285 843.24 525.534 927.759 428.847C928.73 427.76 928.73 425.587 927.759 423.415L911.244 399.514C910.272 398.428 909.301 398.428 908.329 397.342C907.358 397.342 906.386 397.342 905.415 398.428C825.754 483.165 715.977 534.225 595.514 534.225C475.051 534.225 365.275 482.079 283.671 398.428C282.699 397.342 281.728 397.342 280.756 397.342ZM841.297 297.395C840.326 298.482 839.354 300.654 841.297 302.827L856.841 326.727C857.812 327.814 858.784 328.9 859.755 328.9C860.727 328.9 861.698 328.9 862.67 327.814C927.759 249.595 968.561 144.216 968.561 27.9742C968.561 21.4559 968.561 13.8513 968.561 7.33304C968.561 6.24666 967.589 5.16028 966.618 4.07391C965.646 2.98753 963.703 2.98753 962.732 4.07391C961.76 5.16028 960.789 6.24666 960.789 8.41941C954.96 120.316 910.272 222.435 841.297 297.395ZM325.444 329.986C324.473 329.986 323.501 331.073 322.53 332.159L306.986 356.059C306.015 357.146 306.015 360.405 306.986 361.491C378.875 448.401 481.852 501.634 595.514 501.634C709.177 501.634 812.153 447.315 884.042 361.491C885.014 360.405 885.014 358.232 884.042 356.059L868.499 332.159C867.527 331.073 866.556 331.073 865.584 329.986C864.613 329.986 863.641 329.986 862.67 331.073C793.695 404.946 699.462 451.66 595.514 451.66C491.566 451.66 397.333 406.033 328.359 331.073C327.387 329.986 326.416 329.986 325.444 329.986ZM795.638 235.472L811.182 258.286C812.153 259.372 813.125 260.458 814.096 260.458C815.068 260.458 816.039 260.458 817.011 259.372C864.613 197.449 893.757 115.971 893.757 27.9742C893.757 20.3695 893.757 13.8513 892.786 6.24666V4.07391C891.814 2.98753 889.871 1.90116 888.9 2.98753C886.957 4.07391 885.985 5.16029 885.985 7.33304C881.128 94.243 848.098 172.462 796.61 231.126C794.667 231.126 794.667 233.299 795.638 235.472ZM595.514 417.983C692.662 417.983 780.094 369.096 838.383 293.05C839.354 291.963 839.354 289.791 838.383 287.618L822.839 264.804C821.868 263.718 820.896 263.718 819.925 262.631C818.953 262.631 817.982 262.631 817.011 263.718C761.636 327.814 682.947 368.01 595.514 368.01C508.081 368.01 429.392 327.814 373.046 263.718C372.075 262.631 371.104 262.631 370.132 262.631C369.161 262.631 368.189 263.718 367.218 264.804L351.674 287.618C350.703 288.704 350.703 290.877 351.674 293.05C411.905 369.096 498.367 417.983 595.514 417.983ZM765.522 188.758C766.494 189.844 767.465 190.93 768.437 190.93C769.408 190.93 770.38 189.844 771.351 188.758C801.467 143.13 818.953 87.7248 818.953 26.8878C818.953 20.3695 818.953 12.7649 817.982 6.24666C817.982 5.16028 817.982 4.07391 817.011 2.98753C816.039 1.90116 815.068 1.90116 814.096 1.90116C813.125 1.90116 812.153 1.90116 811.182 2.98753C810.21 4.07391 810.21 5.16028 810.21 6.24666C806.324 65.9973 783.98 120.316 750.95 162.685C749.979 163.771 749.979 165.944 750.95 168.117L765.522 188.758ZM418.706 196.362C417.734 195.276 416.763 195.276 415.791 195.276C414.82 195.276 413.848 196.362 412.877 197.449L398.305 219.176C397.333 220.263 397.333 222.435 398.305 224.608C442.993 291.963 514.882 336.505 595.514 336.505C676.147 336.505 748.036 293.05 792.724 224.608C793.695 223.522 793.695 221.349 792.724 219.176L778.152 197.449C777.18 196.362 776.209 196.362 775.237 195.276C774.266 195.276 773.294 195.276 772.323 196.362C728.606 250.681 665.46 284.359 595.514 284.359C525.568 284.359 462.422 250.681 418.706 196.362Z" fill="#98774A"/>
</g>
</svg>
