<svg width="936" height="822" viewBox="0 0 936 822" fill="none" xmlns="http://www.w3.org/2000/svg">
<path opacity="0.07" d="M-293.554 579.589C-292.357 580.777 -291.16 580.777 -289.963 580.777C-288.765 580.777 -287.568 579.589 -286.371 578.4L-266.018 551.07C-264.821 548.693 -264.821 546.317 -267.215 545.128C-419.263 413.228 -517.436 220.725 -523.422 6.83267C-523.422 4.45609 -525.817 2.07951 -528.211 2.07951C-530.606 2.07951 -533 3.2678 -533 6.83267C-533 13.9624 -533 22.2804 -533 29.4102C-533 245.679 -440.813 441.747 -293.554 579.589ZM-234.89 507.103C-233.693 507.103 -232.496 505.915 -231.298 504.726L-210.945 477.396C-209.748 475.019 -209.748 472.643 -212.143 471.454C-341.443 356.19 -425.249 191.018 -431.236 5.64438C-431.236 3.2678 -433.63 0.891218 -436.024 0.891218C-438.419 0.891218 -440.813 3.2678 -440.813 5.64438C-440.813 12.7741 -440.813 21.0922 -440.813 28.2219C-440.813 214.784 -362.993 383.521 -238.482 504.726C-237.284 505.915 -236.087 507.103 -234.89 507.103ZM-183.409 432.241C-182.212 433.429 -181.015 433.429 -179.817 433.429C-178.62 433.429 -177.423 432.241 -176.226 431.052L-155.873 404.91C-154.676 402.533 -154.676 400.157 -155.873 398.969C-263.623 300.34 -333.063 161.31 -339.049 6.83267C-339.049 4.45609 -340.246 3.2678 -341.443 2.07951C-342.641 0.891222 -345.035 2.07951 -346.232 3.2678C-347.43 4.45609 -347.43 5.64438 -347.43 6.83267C-347.43 13.9624 -347.43 22.2804 -347.43 29.4102C-348.627 186.265 -285.174 327.671 -183.409 432.241ZM-127.139 357.378C-125.942 358.567 -124.745 358.567 -123.548 358.567C-122.35 358.567 -121.153 357.378 -119.956 356.19L-100.8 330.048C-99.6031 327.671 -99.6031 325.295 -100.8 324.106C-185.804 243.302 -240.876 130.415 -246.862 5.64438C-246.862 4.45609 -248.059 2.07951 -249.257 0.891218C-250.454 -0.297073 -252.848 -0.297073 -254.046 0.891218C-255.243 2.07951 -256.44 3.2678 -256.44 4.45609C-256.44 11.5858 -256.44 19.9039 -256.44 27.0336C-257.637 156.557 -207.354 271.821 -127.139 357.378ZM-67.2779 284.893C-66.0807 284.893 -64.8835 283.704 -63.6862 282.516L-44.5306 257.562C-43.3333 255.185 -43.3333 252.809 -44.5306 251.62C-107.984 187.453 -148.689 101.896 -154.676 6.83267C-154.676 5.64438 -155.873 3.2678 -157.07 3.2678C-158.267 2.07951 -160.662 3.2678 -161.859 4.45609C-163.056 5.64438 -163.056 6.83267 -163.056 8.02097C-163.056 15.1507 -164.253 23.4687 -164.253 31.7868C-164.253 128.038 -128.337 217.16 -69.6724 284.893C-70.8696 283.704 -68.4751 284.893 -67.2779 284.893ZM-11.0081 208.842C-9.81091 208.842 -8.61371 207.654 -7.41644 206.465L10.542 182.7C11.7392 181.511 11.7392 179.135 10.542 176.758C-31.361 130.415 -57.7001 71.0004 -62.489 5.64438C-62.489 4.45609 -62.489 3.2678 -63.6862 2.07951C-64.8835 0.891222 -66.0807 0.891218 -67.2779 0.891218C-68.4751 0.891218 -69.6724 0.891222 -70.8696 2.07951C-72.0668 3.2678 -72.0668 4.45609 -72.0668 5.64438C-72.0668 12.7741 -73.264 21.0922 -73.264 28.2219C-73.264 94.7662 -51.714 156.557 -14.5999 205.277C-13.4026 207.654 -12.2054 208.842 -11.0081 208.842ZM670.215 545.128C667.821 546.317 667.821 549.881 669.018 551.07L689.371 578.4C690.568 579.589 691.765 579.589 692.962 580.777C694.16 580.777 695.357 580.777 696.554 579.589C843.813 441.747 936 246.867 936 29.4102C936 22.2804 936 13.9624 936 6.83267C936 4.45609 933.606 2.07951 931.211 2.07951C928.817 2.07951 926.422 4.45609 926.422 6.83267V8.02097C919.239 220.725 822.263 413.228 670.215 545.128ZM703.738 583.154C702.54 581.965 701.343 581.965 700.146 580.777C698.949 580.777 697.751 580.777 696.554 581.965C564.859 697.229 391.261 767.339 200.901 767.339C10.542 767.339 -161.859 697.229 -294.751 581.965C-295.949 580.777 -297.146 580.777 -298.343 580.777C-299.54 580.777 -300.738 581.965 -301.935 583.154L-321.09 610.484C-322.288 612.861 -322.288 615.237 -321.09 616.426C-184.606 743.573 -1.4303 822 200.901 822C403.233 822 586.409 743.573 722.893 616.426C724.09 615.237 725.288 611.673 722.893 610.484L703.738 583.154ZM615.143 471.454C613.945 472.643 612.748 476.207 613.945 477.396L634.298 504.726C635.495 505.915 636.693 505.915 637.89 507.103C639.087 507.103 640.284 507.103 641.482 505.915C765.993 384.709 843.813 215.972 843.813 29.4102C843.813 22.2804 843.813 13.9624 843.813 6.83267C843.813 4.45609 841.419 2.07951 839.024 2.07951C836.63 2.07951 834.235 4.45609 834.235 6.83267C828.249 191.018 744.443 356.19 615.143 471.454ZM-243.271 507.103C-244.468 507.103 -245.665 508.291 -246.862 509.48L-267.215 536.81C-268.412 539.187 -268.412 541.563 -267.215 542.752C-146.295 659.204 17.7253 730.502 199.704 730.502C381.683 730.502 545.703 659.204 666.623 542.752C667.821 541.563 669.018 539.187 666.623 536.81L648.665 509.48C647.468 508.291 646.271 508.291 645.073 507.103C643.876 507.103 642.679 507.103 641.482 508.291C525.35 612.861 370.908 675.84 200.901 675.84C32.0921 675.84 -122.35 612.861 -239.679 508.291C-239.679 508.291 -242.073 507.103 -243.271 507.103ZM558.873 398.969C557.676 400.157 556.478 403.722 558.873 404.91L579.226 431.052C580.423 432.241 581.62 432.241 582.817 433.429C584.015 433.429 585.212 433.429 586.409 432.241C689.371 328.859 752.824 186.265 752.824 29.4102C752.824 21.0922 752.824 13.9624 752.824 5.64438C752.824 3.2678 750.429 0.891218 748.035 0.891218C745.641 0.891218 743.246 3.2678 743.246 5.64438C736.063 161.31 666.623 300.34 558.873 398.969ZM-187.001 434.617C-188.198 434.617 -189.395 435.806 -190.592 436.994L-210.945 463.136C-212.143 465.513 -212.143 467.889 -210.945 469.078C-106.786 574.836 39.2755 640.192 199.704 640.192C360.133 640.192 506.195 574.836 610.354 469.078C611.551 467.889 611.551 465.513 610.354 463.136L590.001 436.994C588.803 435.806 587.606 435.806 586.409 434.617C585.212 434.617 584.015 434.617 582.817 435.806C484.645 528.492 349.358 584.342 200.901 584.342C52.445 584.342 -82.8419 527.304 -183.409 435.806C-184.606 434.617 -185.804 434.617 -187.001 434.617ZM503.8 325.295C502.603 326.483 501.406 328.859 503.8 331.236L522.956 357.378C524.153 358.567 525.35 359.755 526.548 359.755C527.745 359.755 528.942 359.755 530.139 358.567C610.354 273.01 660.637 157.746 660.637 30.5985C660.637 23.4687 660.637 15.1507 660.637 8.02097C660.637 6.83267 659.44 5.64438 658.243 4.45609C657.046 3.2678 654.651 3.2678 653.454 4.45609C652.257 5.64438 651.059 6.83267 651.059 9.20925C643.876 131.603 588.804 243.302 503.8 325.295ZM-131.928 360.943C-133.126 360.943 -134.323 362.132 -135.52 363.32L-154.676 389.462C-155.873 390.651 -155.873 394.215 -154.676 395.404C-66.0807 490.467 60.8256 548.693 200.901 548.693C340.977 548.693 467.883 489.279 556.478 395.404C557.676 394.215 557.676 391.839 556.478 389.462L537.323 363.32C536.125 362.132 534.928 362.132 533.731 360.943C532.534 360.943 531.337 360.943 530.139 362.132C445.136 442.935 329.005 494.032 200.901 494.032C72.7979 494.032 -43.3333 444.124 -128.337 362.132C-129.534 360.943 -130.731 360.943 -131.928 360.943ZM447.53 257.562L466.686 282.516C467.883 283.704 469.081 284.893 470.278 284.893C471.475 284.893 472.672 284.893 473.87 283.704C532.534 215.972 568.451 126.85 568.451 30.5985C568.451 22.2804 568.451 15.1507 567.253 6.83267V4.45609C566.056 3.2678 563.662 2.07951 562.465 3.2678C560.07 4.45609 558.873 5.64438 558.873 8.02097C552.887 103.084 512.181 188.641 448.728 252.809C446.333 252.809 446.333 255.185 447.53 257.562ZM200.901 457.195C320.624 457.195 428.375 403.722 500.209 320.541C501.406 319.353 501.406 316.977 500.209 314.6L481.053 289.646C479.856 288.458 478.658 288.458 477.461 287.269C476.264 287.269 475.067 287.269 473.87 288.458C405.628 358.567 308.652 402.533 200.901 402.533C93.1508 402.533 -3.82477 358.567 -73.264 288.458C-74.4613 287.269 -75.6585 287.269 -76.8557 287.269C-78.0529 287.269 -79.2502 288.458 -80.4474 289.646L-99.6031 314.6C-100.8 315.788 -100.8 318.165 -99.6031 320.541C-25.3749 403.722 81.1785 457.195 200.901 457.195ZM410.416 206.465C411.614 207.654 412.811 208.842 414.008 208.842C415.205 208.842 416.403 207.654 417.6 206.465C454.714 156.557 476.264 95.9545 476.264 29.4102C476.264 22.2804 476.264 13.9624 475.067 6.83267C475.067 5.64438 475.067 4.45609 473.87 3.2678C472.672 2.07951 471.475 2.07951 470.278 2.07951C469.081 2.07951 467.883 2.07951 466.686 3.2678C465.489 4.45609 465.489 5.64438 465.489 6.83267C460.7 72.1886 433.164 131.603 392.458 177.947C391.261 179.135 391.261 181.511 392.458 183.888L410.416 206.465ZM-16.9943 214.784C-18.1915 213.595 -19.3888 213.595 -20.586 213.595C-21.7832 213.595 -22.9804 214.783 -24.1777 215.972L-42.1361 239.738C-43.3333 240.926 -43.3333 243.302 -42.1361 245.679C12.9364 319.353 101.531 368.073 200.901 368.073C300.271 368.073 388.866 320.541 443.939 245.679C445.136 244.491 445.136 242.114 443.939 239.738L425.98 215.972C424.783 214.783 423.586 214.784 422.389 213.595C421.191 213.595 419.994 213.595 418.797 214.784C364.922 274.198 287.102 311.035 200.901 311.035C114.701 311.035 36.881 274.198 -16.9943 214.784Z" fill="#98774A"/>
</svg>
