<svg width="1436" height="800" viewBox="0 0 1436 800" fill="none" xmlns="http://www.w3.org/2000/svg">
<path d="M1454.5 546.955C1441.8 604.789 1362.46 646.815 1301.38 627.967C1257.9 614.449 1230.75 578.051 1208.56 542.77C1187.26 508.958 1167.25 473.747 1136.81 446.163C1106.36 418.58 1062.64 399.314 1017.52 405.755C925.715 418.737 877.962 523.551 788.455 548.941C715.436 569.614 640.658 527.732 604.429 472.163C568.201 416.595 559.541 349.54 542.47 286.216C525.399 222.893 495.666 157.784 432.553 125.521C374.334 95.7093 298.801 100.13 230.451 115.889C67.254 153.651 -30.8368 137.832 -116.152 268.238" stroke="white" stroke-width="0.5" stroke-miterlimit="10"/>
<path d="M1453.34 550.016C1447.84 575.384 1428.63 597.456 1404.47 612.061C1373.84 630.665 1335.05 638.201 1301.89 627.165C1271.41 617.014 1249.48 595.328 1231.33 570.78C1224.38 561.264 1217.94 551.35 1211.81 541.521C1203.68 528.431 1195.61 515.219 1186.87 502.363C1173.14 482.16 1158.02 463.193 1139.12 447.088C1132.19 441.091 1124.53 435.57 1116.27 430.688C1088.7 414.185 1055.32 404.845 1021.02 410.256C1012.84 411.483 1005.1 413.645 997.516 416.255C962.023 428.768 932.88 454.551 903.277 480.611C869.729 510.3 835.877 539.904 792.737 551.224C776.965 555.464 761.124 556.711 745.665 555.495C690.163 551.322 639.358 516.15 611.469 472.786C607.178 466.177 603.294 459.412 599.818 452.49C573.534 401.463 565.034 343.108 549.805 287.737C535.504 235.736 512.186 182.565 468.781 147.975C459.678 140.696 449.651 134.375 438.905 128.934C380.725 100.216 305.934 106.466 237.806 120.529C71.3457 155.213 -33.6465 144.36 -119.477 275.564" stroke="white" stroke-width="0.5" stroke-miterlimit="10"/>
<path d="M1452.12 553.197C1446.47 578.522 1426.66 600.019 1402.61 613.978C1372.29 631.453 1334.28 637.988 1302.34 626.483C1272.73 615.899 1251.71 594.064 1234.22 569.565C1227.42 560.092 1221.14 550.221 1215.16 540.435C1207.03 527.345 1198.96 514.134 1190.11 501.519C1176.07 481.636 1160.49 463.351 1141.53 448.176C1134.44 442.541 1126.84 437.304 1118.77 432.748C1091.44 417.26 1058.61 409.02 1024.97 414.884C1016.88 416.274 1009.3 418.479 1001.87 421.131C966.877 434.055 937.938 459.759 908.492 485.457C874.796 514.697 840.451 543.08 797.524 553.513C781.757 557.349 766.172 558.397 750.817 556.94C695.982 552.008 646.244 516.729 618.659 473.451C614.52 466.885 610.636 460.119 607.16 453.198C581.332 402.3 572.675 344.308 557.239 289.422C542.682 237.621 518.8 184.969 475.135 150.984C465.98 143.825 456.053 137.667 444.999 132.546C386.859 104.921 312.507 112.916 244.851 125.489C74.8772 156.89 -36.7648 151.207 -123.111 283.209" stroke="white" stroke-width="0.5" stroke-miterlimit="10"/>
<path d="M1450.97 556.259C1445.37 581.463 1424.85 602.627 1400.86 615.656C1370.66 632.081 1333.72 637.699 1302.8 625.804C1274.05 614.787 1253.95 592.802 1236.92 568.432C1230.32 558.881 1224.19 549.052 1218.21 539.267C1210.23 526.219 1202.11 513.129 1193.16 500.756C1178.96 481.236 1162.92 463.632 1143.75 449.344C1136.7 443.993 1129.1 439.161 1120.87 434.967C1093.74 420.614 1061.35 413.31 1028.46 419.791C1020.63 421.386 1013.05 423.591 1005.76 426.285C971.329 439.5 942.694 465.288 913.1 490.538C879.258 519.332 844.366 546.615 801.856 556.082C786.245 559.556 770.816 560.242 755.665 558.706C701.551 552.894 652.879 517.509 625.75 474.36C621.611 467.793 617.879 461.071 614.403 454.149C588.826 403.458 580.217 345.751 564.624 291.228C549.76 239.749 525.57 187.417 481.542 154.277C472.283 147.36 462.304 141.323 451.349 136.365C393.249 109.833 319.486 119.615 252.204 130.535C78.8157 158.816 -39.7273 158.097 -126.337 291.104" stroke="white" stroke-width="0.5" stroke-miterlimit="10"/>
<path d="M1449.8 559.319C1444.2 584.522 1423.08 605.111 1399.21 617.494C1369.26 632.911 1333.3 637.45 1303.4 625.164C1275.68 613.757 1256.28 591.701 1239.91 567.38C1233.47 557.872 1227.54 547.965 1221.66 538.343C1213.83 525.338 1205.7 512.248 1196.5 500.074C1182.05 480.754 1165.59 464.116 1146.26 450.595C1139.06 445.606 1131.5 441.057 1123.48 437.19C1096.38 423.93 1064.74 417.647 1032.51 424.581C1024.83 426.218 1017.35 428.586 1010.37 431.365C976.434 444.991 948.102 470.863 918.565 495.588C884.524 524.054 849.342 550.038 806.893 558.576C791.438 561.688 776.113 562.133 761.119 560.236C707.672 553.664 659.916 518.13 633.394 475.152C629.406 468.628 625.674 461.905 622.198 454.984C597.077 404.421 588.412 347.241 572.36 292.996C557.187 241.837 532.486 189.905 488.198 157.369C478.887 150.572 468.804 144.777 457.95 139.982C399.836 114.664 326.616 125.95 259.755 135.499C82.4969 160.534 -42.5439 165.026 -129.617 298.712" stroke="white" stroke-width="0.5" stroke-miterlimit="10"/>
<path d="M1448.5 562.337C1442.8 587.377 1421.17 607.554 1397.31 619.129C1367.48 633.495 1332.49 636.955 1303.61 624.279C1276.75 612.438 1258.27 590.233 1242.35 566.04C1236.21 556.617 1230.28 546.711 1224.61 537.01C1216.78 524.006 1208.6 511.037 1199.35 498.984C1184.74 480.025 1167.82 464.069 1148.27 451.435C1141.12 446.73 1133.41 442.543 1125.43 438.96C1098.52 426.835 1067.48 421.531 1035.85 429.039C1028.27 430.839 1020.94 433.25 1014.06 436.192C980.634 450.228 952.658 476.064 923.126 500.384C888.937 528.403 853.262 553.167 811.025 560.818C795.726 563.568 780.506 563.771 765.767 561.675C713.193 554.266 666.351 518.582 640.284 475.732C636.297 469.209 632.717 462.529 629.34 455.771C604.674 405.336 595.853 348.52 579.645 294.638C564.217 243.679 539.104 192.308 494.556 160.376C485.193 153.701 475.058 148.026 464.1 143.473C405.973 119.368 333.244 132.278 266.908 140.216C86.1355 161.968 -45.4032 171.673 -132.84 306.2" stroke="white" stroke-width="0.5" stroke-miterlimit="10"/>
<path d="M1447.33 565.417C1441.64 590.457 1419.36 610.181 1395.55 620.826C1366.04 634.065 1331.92 636.687 1304.11 623.499C1278.12 611.224 1260.51 588.99 1245.3 564.726C1239.36 555.224 1233.58 545.36 1227.85 535.781C1220.18 522.818 1212 509.849 1202.59 498.158C1187.68 479.519 1170.44 464.287 1150.69 452.539C1143.38 448.196 1135.86 444.336 1127.93 441.036C1101.22 430.046 1070.78 425.72 1039.64 433.639C1032.22 435.482 1025.14 438.098 1018.26 441.04C985.485 455.53 957.713 481.289 927.981 505.282C893.593 532.975 857.575 556.562 815.603 563.205C800.46 565.593 785.344 565.555 770.709 563.218C718.802 555.049 673.027 519.258 647.415 476.535C643.427 470.012 639.847 463.332 636.623 456.616C612.208 406.387 603.434 349.853 587.018 296.454C571.282 245.813 545.81 194.883 500.797 163.631C491.382 157.076 481.295 151.685 470.232 147.373C412.145 124.361 339.905 138.895 273.99 145.464C89.3976 163.85 -48.6402 178.766 -136.441 314.139" stroke="white" stroke-width="0.5" stroke-miterlimit="10"/>
<path d="M1446.17 568.521C1440.53 593.442 1417.59 612.714 1393.74 622.671C1364.34 634.86 1331.35 636.446 1304.61 622.745C1279.64 610.079 1262.94 587.694 1248.03 563.513C1242.25 554.053 1236.62 544.232 1231.1 534.573C1223.43 521.61 1215.35 508.803 1205.73 497.19C1190.66 478.911 1172.81 464.317 1152.99 453.499C1145.73 449.439 1138.06 445.94 1130.12 443.044C1103.6 433.189 1073.76 429.841 1043.23 438.335C1035.9 440.342 1028.97 443 1022.24 445.985C989.973 460.887 962.503 486.731 932.827 510.201C898.291 537.449 861.779 559.817 820.018 565.574C804.979 567.721 790.019 567.321 775.639 564.785C724.451 555.735 679.742 519.835 654.433 477.195C650.597 470.713 647.017 464.033 643.792 457.317C619.832 407.212 610.903 351.037 594.278 298.117C578.286 247.673 552.249 197.257 507.128 166.65C497.66 160.215 487.469 155.065 476.506 150.916C418.456 128.995 346.553 145.111 281.261 150.233C92.7471 165.089 -51.5405 185.425 -139.859 321.607" stroke="white" stroke-width="0.5" stroke-miterlimit="10"/>
<path d="M1445.01 571.628C1439.27 596.387 1415.78 615.37 1392.14 624.441C1363 635.623 1330.84 636.087 1305.12 621.995C1281.06 608.774 1265.17 586.479 1250.92 562.346C1245.29 552.928 1239.87 543.027 1234.44 533.531C1226.92 520.61 1218.64 507.881 1208.97 496.387C1193.59 478.427 1175.38 464.677 1155.4 454.624C1148.13 450.968 1140.51 447.753 1132.62 445.141C1106.29 436.42 1076.89 434.008 1047.12 443.119C1040.04 445.331 1033.11 447.99 1026.48 451.138C994.713 466.452 967.447 492.22 937.775 515.287C903.039 542.21 866.184 563.402 824.483 568.23C809.448 569.972 794.743 569.373 780.62 566.638C730.098 556.828 686.455 520.819 661.6 478.303C657.764 471.821 654.336 465.183 651.111 458.467C627.402 408.564 618.52 352.67 601.587 300.066C585.287 249.938 558.89 199.96 513.356 169.912C503.836 163.597 493.592 158.568 482.677 154.702C424.613 133.993 353.15 151.451 288.226 155.324C95.7898 166.651 -54.7477 192.406 -143.432 329.441" stroke="white" stroke-width="0.5" stroke-miterlimit="10"/>
<path d="M1443.86 574.73C1438.11 599.49 1414.17 617.942 1390.39 626.162C1361.51 636.337 1330.27 635.843 1305.62 621.238C1282.43 607.582 1267.46 585.137 1253.72 561.009C1248.29 551.512 1243.17 541.696 1237.59 532.157C1230.12 519.114 1221.94 506.547 1212.12 495.415C1196.43 477.774 1177.9 464.746 1157.86 455.623C1150.49 452.208 1142.86 449.397 1135.02 447.069C1108.73 439.44 1080.08 438.049 1050.96 447.615C1044.03 449.869 1037.21 452.691 1030.88 455.924C999.613 471.65 972.701 497.384 943.033 520.048C908.149 546.525 870.799 566.499 829.31 570.439C814.431 571.82 799.83 570.98 785.862 567.882C736.059 557.192 693.482 521.073 669.082 478.682C665.398 472.243 661.969 465.604 658.744 458.887C635.49 409.109 626.452 353.574 609.31 301.45C592.854 251.681 565.793 202.055 519.946 172.729C510.374 166.535 500.178 161.789 489.058 158.001C431.032 138.384 359.958 157.304 295.605 159.85C99.247 167.647 -57.6926 198.779 -146.743 336.667" stroke="white" stroke-width="0.5" stroke-miterlimit="10"/>
<path d="M1442.7 577.834C1437 602.475 1412.4 620.474 1388.58 628.007C1359.87 637.012 1329.7 635.601 1306.07 620.604C1283.75 606.515 1269.64 584.039 1256.55 559.959C1251.28 550.504 1246.31 540.73 1240.88 531.232C1233.57 518.231 1225.33 505.785 1215.31 494.73C1199.51 477.329 1180.47 465.103 1160.21 456.866C1152.84 453.856 1145.11 451.286 1137.47 449.283C1111.41 442.668 1083.31 442.377 1054.79 452.517C1047.97 454.935 1041.44 457.842 1035.12 461.076C1004.35 477.213 977.797 502.913 947.98 525.131C912.948 551.164 875.203 570.081 833.978 573.014C819.255 574.033 804.758 572.951 791.045 569.655C741.909 558.204 700.397 521.976 676.453 479.71C672.768 473.27 669.491 466.673 666.418 459.999C643.567 410.466 634.424 355.168 617.126 303.404C600.414 253.831 572.993 204.642 526.832 176.039C517.156 170.085 506.908 165.46 495.836 161.956C437.848 143.43 367.162 163.812 303.381 165.031C102.901 168.972 -60.1423 205.971 -149.658 344.549" stroke="white" stroke-width="0.5" stroke-miterlimit="10"/>
<path d="M1441.54 580.939C1435.69 605.538 1410.59 623.127 1386.83 629.731C1358.38 637.728 1329.04 635.196 1306.43 619.807C1285.12 605.326 1271.77 582.656 1259.14 558.702C1254.22 549.211 1249.26 539.436 1243.83 529.939C1236.66 516.979 1228.28 504.489 1218.15 493.675C1202.05 476.593 1182.69 465.09 1162.22 457.74C1154.74 454.971 1147.16 452.848 1139.36 451.207C1113.5 445.727 1085.94 446.536 1057.98 456.967C1051.3 459.427 1044.88 462.498 1038.65 465.894C1008.54 482.486 982.189 508.109 952.376 529.924C917.144 555.632 879.108 573.252 837.943 575.256C823.376 575.913 808.982 574.589 795.374 571.051C746.957 558.719 706.511 522.382 683.021 480.241C679.488 473.843 676.211 467.246 673.138 460.571C650.589 411.121 641.594 356.267 623.936 304.939C606.915 255.683 578.982 206.89 532.509 179.009C522.78 173.176 512.48 168.67 501.455 165.45C443.453 148.136 373.057 169.819 309.946 169.873C105.444 170.12 -63.9021 212.662 -153.632 352.134" stroke="white" stroke-width="0.5" stroke-miterlimit="10"/>
<path d="M1440.38 584.042C1434.58 608.523 1408.83 625.659 1385.17 631.617C1356.99 638.607 1328.62 634.995 1307.03 619.214C1286.59 604.298 1274.25 581.641 1262.13 557.692C1257.36 548.243 1252.6 538.39 1247.27 529.055C1240.11 516.095 1231.82 503.767 1221.58 493.194C1205.33 476.472 1185.51 465.651 1164.83 459.187C1157.34 456.823 1149.71 454.82 1142.06 453.626C1116.38 449.281 1089.27 451.026 1062.06 462.075C1055.49 464.699 1049.22 467.812 1043.14 471.251C1013.53 488.255 987.331 513.922 957.574 535.213C922.194 560.475 883.611 576.997 842.71 577.993C828.246 578.408 814.009 576.723 800.656 572.986C752.906 559.893 713.525 523.447 690.49 481.431C686.957 475.032 683.68 468.435 680.758 461.802C658.665 412.476 649.461 358.102 631.547 306.97C614.218 258.031 585.924 209.675 539.19 182.396C529.41 176.683 518.953 172.54 508.08 169.362C450.272 152.778 380.16 176.164 317.568 175.012C108.996 171.281 -66.4534 219.691 -156.701 359.974" stroke="white" stroke-width="0.5" stroke-miterlimit="10"/>
<path d="M1439.22 587.141C1433.43 611.623 1407.17 628.349 1383.42 633.335C1355.5 639.317 1328.11 634.625 1307.53 618.453C1288.02 602.982 1276.54 580.294 1264.93 556.351C1260.36 546.823 1255.7 537.132 1250.58 527.718C1243.56 514.8 1235.27 502.472 1224.78 492.097C1208.22 475.694 1187.82 466.199 1167.24 459.899C1159.86 457.697 1152.16 456.22 1144.41 455.267C1118.93 452.057 1092.42 454.781 1065.86 466.284C1059.54 469.114 1053.26 472.227 1047.49 475.751C1018.39 493.168 992.54 518.801 962.787 539.688C927.259 564.505 888.333 579.849 847.491 579.916C833.184 579.969 819.102 577.921 805.853 573.943C758.822 559.969 720.507 523.413 697.775 481.48C694.242 475.081 691.117 468.526 688.195 461.892C666.353 412.769 657.196 358.676 639.074 308.025C621.489 259.282 592.631 211.441 545.636 184.764C535.803 179.172 525.446 175.191 514.316 172.212C456.39 157.082 386.724 181.406 324.751 179.21C112.108 171.5 -69.4449 225.78 -160.058 366.915" stroke="white" stroke-width="0.5" stroke-miterlimit="10"/>
<path d="M1438.07 590.243C1432.17 614.563 1405.41 630.879 1381.67 635.056C1354.07 639.91 1327.39 634.338 1307.89 617.652C1289.24 601.747 1278.63 579.029 1267.67 555.134C1263.26 545.648 1258.8 535.878 1253.62 526.584C1246.61 513.665 1238.27 501.457 1227.72 491.202C1211 475.161 1190.35 465.864 1169.35 460.933C1161.76 459.214 1154.16 457.9 1146.61 457.274C1121.37 455.079 1095.4 458.903 1069.45 470.981C1063.28 473.853 1057.26 477.172 1051.49 480.696C1022.88 498.525 997.389 524.123 967.489 544.565C931.761 569.057 892.491 583.224 851.914 582.282C837.762 581.974 823.784 579.685 810.791 575.507C764.478 560.652 727.026 524.065 704.952 482.179C701.571 475.822 698.446 469.266 695.676 462.675C674.288 413.677 664.975 359.942 646.644 309.771C628.751 261.345 599.533 213.942 552.073 187.945C542.188 182.473 531.778 178.613 520.644 176.038C462.908 162.043 393.379 187.624 332.077 184.264C115.316 172.291 -72.4453 232.682 -163.425 374.67" stroke="white" stroke-width="0.5" stroke-miterlimit="10"/>
<path d="M1436.85 593.469C1430.96 617.791 1403.54 633.653 1379.81 637.021C1352.47 640.868 1326.77 634.215 1308.28 617.138C1290.65 600.841 1280.8 577.929 1270.3 554.16C1266.04 544.716 1261.73 534.988 1256.76 525.616C1249.9 512.738 1241.56 500.53 1230.86 490.636C1213.83 474.913 1192.87 466.341 1171.65 462.297C1164.11 460.862 1156.51 459.952 1148.8 459.688C1123.75 458.628 1098.38 463.431 1073.08 475.964C1067.01 478.999 1061.14 482.361 1055.47 486.049C1027.52 504.332 1002.23 529.854 972.33 549.892C936.454 573.938 896.69 586.886 856.272 585.177C842.276 584.506 828.402 581.976 815.664 577.599C770.071 561.862 733.632 525.287 712.014 483.525C708.632 477.168 705.659 470.655 702.889 464.063C681.904 415.31 672.487 361.815 653.999 312.002C635.798 263.893 606.068 216.886 558.498 191.533C548.561 186.182 538.047 182.563 527.013 180.151C469.262 167.369 400.226 194.172 339.391 189.725C118.109 173.241 -75.761 239.908 -167.258 382.705" stroke="white" stroke-width="0.5" stroke-miterlimit="10"/>
<path d="M1435.54 596.529C1429.7 620.731 1401.78 636.183 1378.06 638.742C1351.13 641.623 1326.1 633.805 1308.79 616.378C1292.02 599.647 1283.09 576.584 1273.2 552.983C1269.29 543.503 1264.98 533.775 1260.11 524.565C1253.4 511.73 1245.01 499.641 1234.1 489.825C1216.97 474.343 1195.49 466.573 1174.06 463.416C1166.51 462.385 1158.81 461.717 1151.3 461.779C1126.44 461.855 1101.51 467.595 1076.82 480.702C1070.9 483.78 1065.13 487.305 1059.61 491.036C1032.16 509.732 1007.07 535.176 977.129 554.932C941.053 578.653 900.946 590.423 860.64 587.664C846.597 586.709 833.182 583.901 820.396 579.241C775.47 562.743 740.149 525.937 718.985 484.301C715.755 477.987 712.782 471.473 709.96 465.001C689.278 416.331 679.856 363.237 661.009 313.862C642.551 265.95 612.408 219.501 564.426 194.708C554.384 189.598 543.818 186.099 532.732 183.808C475.019 172.118 406.324 200.101 345.957 194.568C121.267 173.748 -78.8635 246.648 -170.575 390.341" stroke="white" stroke-width="0.5" stroke-miterlimit="10"/>
<path d="M1434.38 599.63C1428.44 623.67 1400.12 638.875 1376.25 640.582C1349.6 642.455 1325.54 633.558 1309.09 615.696C1293.25 598.409 1285.28 575.48 1275.79 551.721C1272.04 542.283 1267.93 532.476 1263.06 523.265C1256.35 510.429 1247.95 498.34 1236.95 488.765C1219.5 473.601 1197.71 466.555 1176.07 464.285C1168.42 463.496 1160.71 463.232 1153.25 463.579C1128.63 464.669 1104.25 471.509 1080.16 485.192C1074.34 488.433 1068.87 492.043 1063.5 495.817C1036.56 514.925 1011.77 540.456 981.884 559.687C945.66 582.962 905.157 593.676 865.116 589.909C851.228 588.592 837.917 585.542 825.439 580.561C781.231 563.182 746.924 526.388 726.216 484.877C722.986 478.562 720.164 472.09 717.342 465.618C697.115 417.073 687.537 364.338 668.533 315.323C649.767 267.727 619.164 221.553 570.968 197.646C560.875 192.656 550.408 189.32 539.217 187.27C481.542 176.673 413.136 205.957 353.388 199.379C124.428 174.252 -81.8643 253.55 -174.093 398.053" stroke="white" stroke-width="0.5" stroke-miterlimit="10"/>
<path d="M1433.23 602.731C1427.28 626.772 1398.3 641.524 1374.5 642.302C1348.05 643.287 1325.03 633.189 1309.6 614.935C1294.77 597.256 1287.56 574.133 1278.68 550.543C1275.13 541.026 1271.13 531.381 1266.41 522.213C1259.85 509.419 1251.4 497.449 1240.29 488.116C1222.54 473.271 1200.43 466.948 1178.58 465.566C1170.98 465.061 1163.26 465.202 1155.7 465.79C1131.27 468.016 1107.49 475.835 1084.05 489.973C1078.48 493.42 1073.01 497.03 1067.74 500.967C1041.45 520.53 1016.87 545.984 986.835 564.769C950.462 587.598 909.465 597.092 869.635 592.437C855.903 590.758 842.696 587.467 830.321 582.244C786.729 564.225 753.592 527.08 733.186 485.652C730.108 479.379 727.135 472.864 724.464 466.435C704.488 418.092 695.11 365.681 675.745 317.103C656.723 269.704 625.708 224.089 577.099 200.741C566.953 195.872 556.382 192.778 545.239 191.012C487.602 181.507 419.537 211.97 360.408 204.348C127.485 174.595 -85.0205 260.411 -177.767 405.724" stroke="white" stroke-width="0.5" stroke-miterlimit="10"/>
<path d="M1432.07 605.83C1426.18 629.752 1396.7 644.093 1372.75 644.019C1346.57 643.996 1324.51 632.817 1310.15 614.051C1296.19 595.937 1289.85 572.784 1281.48 549.199C1278.08 539.724 1274.28 530.001 1269.71 520.875C1263.15 508.08 1254.85 496.152 1243.49 487.017C1225.58 472.533 1203.01 466.892 1180.94 466.398C1173.18 466.255 1165.52 466.679 1158.15 467.593C1133.76 470.913 1110.73 479.755 1087.89 494.468C1082.47 497.957 1077.1 501.731 1071.99 505.711C1046.2 525.686 1021.82 551.063 991.943 569.487C955.37 591.991 914.029 600.307 874.311 594.601C860.683 592.68 847.632 589.027 835.513 583.605C792.792 564.746 760.517 527.57 740.566 486.268C737.488 479.994 734.666 473.522 732.147 467.134C712.626 418.916 703.092 366.864 683.571 318.647C664.392 271.607 632.712 226.345 583.942 203.763C573.744 199.014 563.069 196.161 552.025 194.558C494.426 186.146 426.754 217.668 368.14 209.243C131.307 174.742 -87.465 267.198 -180.578 413.365" stroke="white" stroke-width="0.5" stroke-miterlimit="10"/>
<path d="M1430.91 608.929C1424.87 632.809 1394.88 646.74 1371.09 645.899C1345.33 644.911 1323.95 632.566 1310.76 613.45C1297.72 594.78 1292.23 571.597 1284.52 548.06C1281.28 538.627 1277.63 528.946 1273.11 519.699C1266.7 506.946 1258.2 495.096 1246.78 486.081C1228.57 471.916 1205.69 466.999 1183.41 467.392C1175.69 467.533 1168.07 468.242 1160.5 469.639C1136.35 473.974 1113.87 483.916 1091.68 499.083C1086.37 502.737 1081.15 506.553 1076.18 510.575C1050.9 530.963 1026.88 556.306 996.847 574.284C960.127 596.342 918.391 603.6 878.785 596.843C865.313 594.56 852.365 590.665 840.502 585.044C798.448 565.424 767.292 528.018 747.796 486.841C744.717 480.567 742.047 474.137 739.528 467.749C720.41 419.777 710.719 368.084 690.89 320.184C671.403 273.461 639.363 228.637 590.18 206.616C579.93 201.987 569.202 199.255 558.054 197.893C500.492 190.574 433.162 223.276 375.167 213.807C134.475 174.436 -90.8185 273.732 -184.245 420.63" stroke="white" stroke-width="0.5" stroke-miterlimit="10"/>
<path d="M1429.75 612.031C1423.76 635.792 1393.22 649.433 1369.34 647.619C1343.79 645.743 1323.43 632.197 1311.11 612.646C1299.09 593.584 1294.52 570.25 1287.11 546.797C1284.22 537.328 1280.57 527.646 1276.15 518.561C1269.9 505.85 1261.35 494.12 1249.82 485.346C1231.45 471.543 1208.01 467.145 1185.61 468.589C1177.95 469.013 1170.17 470.084 1162.8 471.808C1138.84 477.279 1116.8 488.159 1095.22 503.901C1090.05 507.597 1085.09 511.62 1080.07 515.763C1055.44 536.606 1031.62 561.871 1001.6 579.445C964.727 601.057 922.444 607.216 883.254 599.493C869.937 596.848 857.094 592.711 845.334 586.848C803.999 566.346 773.857 528.952 754.816 487.899C751.889 481.668 749.219 475.237 746.7 468.849C727.885 420.959 718.189 369.669 698.152 322.249C678.409 275.723 645.956 231.458 596.36 209.997C586.057 205.489 575.378 203.04 564.177 201.799C506.601 195.694 439.816 229.498 382.236 219.062C137.685 174.821 -93.9267 280.879 -187.72 428.63" stroke="white" stroke-width="0.5" stroke-miterlimit="10"/>
<path d="M1428.6 615.129C1422.61 638.891 1391.56 652.121 1367.54 649.456C1342.25 646.571 1322.87 631.944 1311.57 612.001C1300.46 592.384 1296.71 569.14 1289.96 545.735C1287.22 536.308 1283.92 526.59 1279.35 517.462C1273.1 504.75 1264.7 493.062 1252.92 484.487C1234.29 470.882 1210.48 467.329 1187.87 469.661C1180.05 470.447 1172.32 471.802 1165 473.81C1141.28 480.297 1119.74 492.398 1098.86 508.474C1093.79 512.334 1088.98 516.399 1084.27 520.627C1060.14 541.883 1036.52 567.071 1006.65 584.284C969.585 605.57 926.959 610.552 887.829 601.897C874.616 599.01 861.981 594.39 850.477 588.328C809.808 567.065 780.785 529.441 762.198 488.514C759.272 482.282 756.753 475.894 754.234 469.505C735.822 421.861 726.022 370.81 705.828 323.749C685.777 277.541 652.812 233.671 603.054 212.976C592.648 208.709 581.915 206.381 570.762 205.424C513.224 200.412 446.832 235.275 389.82 223.915C141.514 174.563 -96.6728 287.582 -190.832 436.186" stroke="white" stroke-width="0.5" stroke-miterlimit="10"/>
<path d="M1427.44 618.229C1421.35 641.829 1389.75 654.769 1365.78 651.173C1340.71 647.4 1322.36 631.572 1312.07 611.236C1301.99 591.227 1298.99 567.79 1292.7 544.511C1290.16 535.005 1286.97 525.45 1282.55 516.364C1276.45 503.694 1267.84 492.084 1256.01 483.629C1237.23 470.386 1212.95 467.514 1190.13 470.734C1182.36 471.805 1174.63 473.565 1167.34 475.856C1143.82 483.479 1122.87 496.56 1102.6 513.213C1097.84 517.157 1092.97 521.343 1088.41 525.614C1064.88 547.445 1041.47 572.557 1011.51 589.202C974.289 610.043 931.268 613.966 892.25 604.261C879.193 601.011 866.661 596.15 855.261 589.846C815.312 567.7 787.151 530.045 769.02 489.244C766.245 483.054 763.726 476.665 761.207 470.277C743.25 422.758 733.294 372.066 712.739 325.444C692.38 279.553 659.054 236.122 608.884 215.987C598.425 211.841 587.64 209.633 576.383 208.918C518.883 204.999 452.884 240.921 396.387 228.758C144.529 174.216 -100.284 294.318 -194.96 443.732" stroke="white" stroke-width="0.5" stroke-miterlimit="10"/>
<path d="M1426.28 621.325C1420.24 644.806 1388.04 657.577 1364.19 652.929C1339.52 648.19 1321.85 631.197 1312.58 610.468C1303.36 590.024 1301.23 566.557 1295.65 543.205C1293.26 533.742 1290.27 524.108 1286.01 515.064C1279.95 502.272 1271.45 490.825 1259.46 482.731C1240.37 469.808 1215.78 467.66 1192.75 471.768C1184.87 473.081 1177.13 475.245 1169.85 477.942C1146.36 486.659 1126.17 500.762 1106.49 517.99C1101.83 522.098 1097.27 526.369 1092.71 530.641C1069.68 552.884 1046.63 577.962 1016.67 594.203C979.149 614.555 936.092 616.98 896.978 606.706C883.973 603.336 871.649 597.991 860.505 591.488C821.223 568.581 794.18 530.696 776.504 490.02C773.781 483.709 771.21 477.441 768.995 471.137C751.341 423.7 741.532 373.453 720.669 327.149C700.053 281.455 666.163 238.54 615.883 219.05C605.372 215.024 594.635 213.101 583.326 212.506C525.863 209.681 460.41 246.705 404.175 233.533C148.667 173.636 -102.673 300.985 -197.716 451.252" stroke="white" stroke-width="0.5" stroke-miterlimit="10"/>
<path d="M1425.12 624.426C1419.09 647.908 1386.22 660.225 1362.38 654.768C1337.93 649.141 1321.28 630.945 1313.03 609.825C1304.89 588.867 1303.62 565.37 1298.34 542.102C1296.31 532.602 1293.32 522.968 1289 514.044C1283.1 501.295 1274.54 489.967 1262.35 481.952C1242.95 469.347 1218.05 467.925 1194.81 472.92C1186.92 474.638 1179.23 477.086 1171.99 480.067C1148.75 489.8 1128.95 504.962 1110.08 522.687C1105.52 526.958 1101.11 531.272 1096.65 535.707C1074.12 558.363 1051.27 583.363 1021.26 599.322C983.598 619.227 939.786 621.036 901.296 609.312C888.499 605.458 876.227 599.992 865.187 593.247C826.624 569.458 800.595 531.585 783.374 491.034C780.803 484.766 778.232 478.497 776.016 472.192C758.765 425.002 748.852 374.994 727.78 329.171C706.856 283.794 672.658 241.197 621.861 222.509C611.297 218.604 600.508 216.801 589.246 216.49C531.822 214.758 466.761 252.843 411.094 238.746C152.139 173.417 -106.085 308.049 -201.494 459.168" stroke="white" stroke-width="0.5" stroke-miterlimit="10"/>
<path d="M1423.97 627.523C1417.83 650.842 1384.62 662.387 1360.63 656.482C1336.19 650.449 1320.77 630.569 1313.54 609.056C1306.26 587.664 1305.91 564.015 1301.24 540.916C1299.36 531.458 1296.52 521.866 1292.41 512.864C1286.51 500.114 1277.95 488.786 1265.65 481.011C1246.09 468.768 1220.58 467.985 1197.32 473.791C1189.34 475.75 1181.69 478.483 1174.45 481.869C1151.4 492.737 1132.19 508.88 1113.78 527.139C1109.37 531.453 1105.06 535.93 1100.9 540.45C1079.03 563.561 1056.23 588.442 1026.38 604.039C988.563 623.498 944.355 624.249 905.977 611.473C893.184 607.215 881.168 601.549 870.435 594.484C832.54 569.933 807.629 531.83 790.863 491.405C788.292 485.136 785.873 478.909 783.657 472.605C766.709 425.497 756.792 375.891 735.563 330.427C714.331 285.368 679.62 243.167 628.714 225.125C618.098 221.34 607.204 219.779 596.042 219.631C538.707 218.872 473.411 259.87 418.836 243.236C159.512 164.538 -109.035 314.831 -204.91 466.64" stroke="white" stroke-width="0.5" stroke-miterlimit="10"/>
<path d="M1422.61 630.699C1416.52 653.899 1382.55 665.636 1358.82 658.318C1334.8 650.914 1320.2 630.315 1313.84 608.367C1307.64 586.462 1307.94 562.861 1303.83 539.647C1302.1 530.231 1299.47 520.56 1295.45 511.721C1289.7 499.012 1281.1 487.805 1268.54 480.229C1248.68 468.306 1222.9 468.126 1199.38 474.941C1191.39 477.305 1183.64 480.279 1176.6 483.992C1153.63 495.834 1135.13 513.12 1117.37 531.834C1113.06 536.311 1109.05 540.874 1104.89 545.394C1083.68 568.961 1061.08 593.764 1031.08 608.914C993.065 628.048 948.362 627.577 910.248 613.792C897.559 609.292 885.699 603.264 875.222 596C838.045 570.567 814.149 532.475 797.838 492.175C795.419 485.949 792.999 479.722 790.732 473.538C774.187 426.676 764.165 377.31 742.576 332.284C721.088 287.422 685.964 245.781 634.593 228.419C623.925 224.756 612.927 223.436 601.66 223.53C544.311 223.985 479.721 265.318 425.453 248.364C162.456 166.334 -112.137 321.574 -208.378 474.235" stroke="white" stroke-width="0.5" stroke-miterlimit="10"/>
<path d="M1421.45 633.797C1415.36 656.998 1380.68 668.402 1357.02 660.153C1333.21 651.861 1319.64 630.06 1314.3 607.719C1308.96 585.379 1310.33 561.67 1306.67 538.583C1305.15 529.088 1302.61 519.58 1298.65 510.619C1293.05 497.953 1284.45 486.745 1271.79 479.41C1251.82 467.727 1225.52 468.351 1201.79 476.054C1193.69 478.659 1186.1 482.081 1178.9 486.157C1156.12 499.136 1138.21 517.403 1121.06 536.692C1117.05 541.254 1112.99 545.938 1108.93 550.622C1088.22 574.601 1065.98 599.37 1035.98 614.116C997.817 632.803 952.719 631.274 914.869 616.48C902.336 611.617 890.58 605.348 880.207 597.841C843.697 571.646 820.92 533.325 805.064 493.151C802.644 486.924 800.377 480.739 798.109 474.555C782.019 427.818 771.789 378.933 750.096 334.147C728.451 289.645 692.663 248.357 641.03 231.599C630.31 228.056 619.412 226.899 608.041 227.234C550.73 228.783 487.205 270.011 432.78 253.419C164.044 171.269 -115.142 328.479 -211.749 481.994" stroke="white" stroke-width="0.5" stroke-miterlimit="10"/>
<path d="M1420.29 636.894C1414.05 660.054 1378.82 671.168 1355.27 661.867C1331.72 652.566 1319.13 629.683 1314.8 606.95C1310.48 584.217 1312.57 560.436 1309.42 537.354C1306.26 514.272 1296.52 490.698 1274.88 478.548C1247.74 463.368 1209.14 470.834 1181.1 488.158C1153.05 505.481 1133.18 531.052 1112.97 555.444C1092.77 579.836 1070.88 604.57 1040.73 618.87C989.774 643.178 926.222 630.392 885.046 599.234C843.719 568.035 821.128 521.777 805.341 475.124C789.503 428.591 779.32 379.987 757.418 335.682C735.517 291.377 699.316 250.649 647.422 234.494C582.275 214.357 504.896 279.051 440.113 258.068C168.134 170.405 -118.245 335.221 -215.219 489.589" stroke="white" stroke-width="0.5" stroke-miterlimit="10"/>
<path d="M1420.78 636.126C1414.83 656.656 1380.93 665.438 1357.09 655.243C1334.01 645.261 1321.01 622.537 1315.87 600.119C1312.18 584.604 1311.49 568.845 1309.98 553.399C1309.4 546.468 1308.56 539.735 1307.21 532.997C1303.18 511.161 1293.12 489.123 1271.47 478.188C1252.49 468.543 1228.22 469.599 1205.56 477.194C1195.98 480.468 1186.65 484.758 1178.27 489.991C1150.12 507.555 1129.34 532.868 1108.53 556.683C1091.42 576.255 1073.15 595.772 1050.36 609.56C1045.25 612.731 1039.95 615.576 1034.29 618.052C982.886 641.016 919.649 627.506 878.583 595.705C869.676 588.745 861.589 581.067 854.217 572.912C828.095 543.536 811.996 507.086 800.113 470.327C784.938 423.443 775.267 374.445 754.03 329.789C732.737 285.658 697.4 244.904 646.068 228.637C640.504 226.943 634.884 225.776 629.207 225.134C572.488 218.998 508.474 263.335 452.839 255.472C448.684 254.85 444.634 253.987 440.687 252.882C381.658 235.136 322.141 229.57 263.547 232.519C165.754 237.621 71.1065 266.208 -8.44554 306.736C-97.2873 352.242 -167.873 413.012 -207.637 472.125" stroke="white" stroke-width="0.5" stroke-miterlimit="10"/>
<path d="M1421.28 635.353C1415.55 653.374 1383 659.825 1359.12 648.538C1336.5 637.874 1323.1 615.309 1316.94 593.285C1312.69 577.885 1311.13 562.561 1308.6 547.913C1307.51 541.38 1306.41 534.848 1304.85 528.593C1299.95 508.002 1289.51 487.622 1267.95 477.661C1249.07 468.99 1225.05 470.655 1202.64 478.456C1193.01 481.85 1183.78 486.303 1175.34 491.657C1146.94 509.417 1125.61 534.438 1104.15 557.796C1086.38 576.913 1067.35 595.81 1044.17 608.944C1038.96 611.952 1033.55 614.633 1027.8 616.945C975.802 638.523 912.88 624.29 872.128 591.767C863.273 584.687 855.238 576.888 848.071 568.656C822.31 538.842 806.671 502.118 795.096 465.043C780.434 417.766 771.73 368.502 750.702 323.367C730.168 279.453 695.445 238.469 644.622 222.209C639.11 220.395 633.49 219.228 627.813 218.586C571.556 212.173 507.956 255.945 452.969 249.346C448.915 248.888 445.016 248.067 441.07 246.962C382.988 230.971 324.423 226.754 266.586 230.32C169.698 236.486 75.024 263.167 -3.78335 300.786C-91.6198 342.78 -160.888 399.31 -200.3 454.049" stroke="white" stroke-width="0.5" stroke-miterlimit="10"/>
<path d="M1421.56 634.659C1416.07 650.171 1384.87 654.292 1360.8 641.87C1338.64 630.525 1324.83 608.119 1317.81 586.531C1312.95 571.367 1310.37 556.436 1307.17 542.549C1305.76 536.337 1304.31 530.246 1302.44 524.311C1296.66 504.966 1285.91 486.121 1264.34 477.375C1245.49 469.799 1221.77 471.954 1199.56 480.08C1190.03 483.638 1180.75 488.21 1172.32 493.564C1143.81 511.564 1121.92 536.291 1099.5 559.109C1081.23 577.812 1061.45 596.09 1037.87 608.57C1032.56 611.414 1027.06 613.932 1021.35 616.123C968.969 636.237 906.361 621.28 865.819 588.278C857.017 581.077 849.034 573.159 841.919 564.806C816.519 534.555 801.136 497.636 790.173 460.329C776.023 412.659 767.984 363.044 747.62 317.558C727.897 273.74 693.834 232.809 643.573 216.437C638.061 214.623 632.593 213.498 626.969 212.735C571.173 206.046 508.04 249.131 453.701 243.797C449.798 243.381 445.848 242.681 441.85 241.697C384.615 227.297 327.305 224.515 270.021 228.776C173.835 236.084 79.338 260.781 1.42717 295.534C-85.5081 334.256 -153.356 386.306 -192.566 436.631" stroke="white" stroke-width="0.5" stroke-miterlimit="10"/>
<path d="M1422.06 633.881C1416.79 646.885 1386.99 648.555 1362.68 635.119C1340.99 623.093 1326.72 600.966 1318.93 579.572C1313.46 564.645 1310.01 550.149 1305.99 536.982C1304.28 531.09 1302.37 525.277 1300.29 519.825C1293.64 501.725 1282.41 484.374 1260.82 476.843C1242.07 470.24 1218.65 472.885 1196.79 481.379C1187.36 485.099 1178.03 489.792 1169.6 495.145C1140.78 513.463 1118.19 537.855 1095.17 560.095C1076.2 578.463 1055.86 596.044 1031.73 607.827C1026.33 610.508 1020.72 612.862 1014.91 614.89C962.092 633.66 899.647 617.938 859.366 584.336C850.617 577.015 842.838 569.019 835.623 560.504C810.38 529.894 795.51 492.58 785.007 455C771.521 406.979 764.146 357.014 744.294 311.134C725.331 267.533 691.981 226.534 642.332 209.929C636.973 208.158 631.405 206.87 625.881 206.271C570.599 199.184 507.676 241.782 453.985 237.712C450.031 237.417 446.18 236.88 442.334 235.939C386.046 223.293 329.688 221.859 273.009 226.694C177.728 235.066 83.3044 258.021 6.03846 289.703C-79.9436 325.034 -146.422 372.725 -185.431 418.635" stroke="white" stroke-width="0.5" stroke-miterlimit="10"/>
<path d="M1422.5 633.221C1417.46 643.718 1389.01 643.058 1364.5 628.487C1343.28 615.781 1328.6 593.813 1319.95 572.855C1313.87 558.164 1309.55 544.103 1304.77 531.534C1302.59 525.92 1300.47 520.59 1298.09 515.459C1290.56 498.604 1279.01 482.788 1257.47 476.351C1238.8 470.722 1215.63 473.976 1193.97 482.796C1184.49 486.637 1175.31 491.372 1166.83 496.845C1137.91 515.403 1114.61 539.459 1090.78 561.2C1071.16 579.113 1050.07 596.075 1025.69 607.246C1020.19 609.763 1014.48 611.954 1008.73 613.861C955.313 631.245 893.335 614.843 853.368 580.519C844.671 573.079 836.944 564.963 829.934 556.371C805.052 525.323 790.59 487.857 780.395 449.961C767.369 401.667 760.861 351.274 741.37 304.959C723.167 261.575 690.529 220.508 641.441 203.791C636.082 202.02 630.667 200.775 625.043 200.012C570.071 192.607 507.766 234.561 454.723 231.754C450.868 231.622 447.018 231.086 443.272 230.308C387.78 219.374 332.525 219.33 276.602 224.782C182.279 234.097 87.7242 255.388 11.4067 284.084C-73.6223 316.024 -138.732 359.358 -177.388 400.897" stroke="white" stroke-width="0.5" stroke-miterlimit="10"/>
<path d="M1422.99 632.441C1418.08 640.268 1391.02 637.562 1366.48 621.9C1345.67 608.634 1330.48 586.662 1321.17 566.061C1314.52 551.486 1309.29 537.981 1303.69 526.131C1301.21 520.837 1298.72 515.948 1296.04 511.138C1287.63 495.527 1275.71 481.367 1254.2 476.024C1235.63 471.367 1212.71 475.232 1191.25 484.377C1181.87 488.381 1172.63 493.236 1164.15 498.708C1134.98 517.463 1111.13 541.226 1086.65 562.512C1066.36 579.968 1044.67 596.354 1019.7 606.95C1014.09 609.303 1008.29 611.331 1002.38 613.195C948.527 629.236 886.764 611.948 847.007 577.145C838.361 569.585 830.688 561.349 823.729 552.637C799.004 521.231 785.055 483.37 775.32 445.202C762.958 396.557 756.962 345.772 738.083 299.227C720.539 255.896 688.765 214.805 640.187 198.096C634.88 196.205 629.464 194.96 623.993 194.24C569.482 186.558 507.492 227.783 455.197 226.403C451.342 226.271 447.592 225.898 443.945 225.283C389.4 216.103 335.301 217.329 279.931 223.476C186.46 233.974 92.0833 253.283 16.3586 279.029C-67.5656 307.622 -131.407 346.435 -169.913 383.682" stroke="white" stroke-width="0.5" stroke-miterlimit="10"/>
<path d="M1423.33 631.612C1418.66 636.932 1392.94 631.898 1368.21 615.102C1347.81 601.277 1332.27 579.342 1322.09 559.178C1314.83 544.839 1308.58 531.727 1302.16 520.595C1299.37 515.622 1296.43 511.01 1293.53 506.683C1284.2 492.438 1272.01 479.692 1250.54 475.443C1232.01 471.879 1209.54 476.276 1188.18 485.583C1178.75 489.707 1169.61 494.724 1161.13 500.196C1131.85 519.191 1107.25 542.738 1082.01 563.405C1061.02 580.526 1038.78 596.215 1013.26 606.114C1007.55 608.305 1001.8 610.211 995.642 611.87C941.349 626.568 879.9 608.557 840.404 573.155C831.811 565.475 824.19 557.119 817.436 548.33C793.071 516.487 779.378 478.431 770.155 439.869C758.306 390.832 753.125 339.739 734.758 292.801C717.974 249.688 686.76 208.488 638.895 191.709C633.74 189.861 628.325 188.615 622.905 187.775C568.856 179.816 507.333 220.356 455.685 220.239C451.931 220.27 448.332 219.939 444.634 219.445C391.036 212.018 337.888 214.592 283.222 221.476C190.505 232.995 96.3529 250.604 21.4247 273.324C-61.5465 298.527 -124.019 332.984 -162.172 365.861" stroke="white" stroke-width="0.5" stroke-miterlimit="10"/>
<path d="M1423.77 630.947C1419.33 633.76 1394.9 626.519 1370.04 608.468C1350.05 594.084 1334.15 572.187 1323.1 552.459C1315.24 538.356 1308.12 525.679 1300.88 515.266C1297.58 510.691 1294.48 506.443 1291.28 502.435C1281.22 489.477 1268.56 478.223 1247.08 475.188C1228.64 472.597 1206.47 477.482 1185.26 487.235C1175.92 491.522 1166.74 496.66 1158.2 502.252C1128.67 521.443 1103.51 544.697 1077.47 564.865C1055.98 581.574 1032.84 596.601 1007.06 605.889C1001.26 607.916 995.354 609.78 989.301 611.197C934.568 624.552 873.282 605.777 834.1 569.655C825.559 561.855 817.99 553.38 811.288 544.471C787.133 512.148 774.052 473.863 765.237 435.148C753.899 385.719 749.382 334.277 731.68 286.989C715.655 244.093 685.153 202.826 637.698 185.893C632.543 184.044 627.18 182.679 621.76 181.838C568.173 173.603 507.116 213.456 456.064 214.723C452.461 214.796 448.759 214.707 445.212 214.255C392.462 208.419 340.517 212.546 286.304 219.961C194.492 232.542 100.465 248.29 26.1295 268.061C-55.737 289.918 -116.993 319.977 -154.945 348.444" stroke="white" stroke-width="0.5" stroke-miterlimit="10"/>
<path d="M1424.27 630.153C1420.05 630.461 1396.97 620.892 1371.91 601.709C1352.49 586.807 1336.09 564.907 1324.07 545.451C1315.45 531.542 1307.61 519.343 1299.55 509.648C1295.94 505.393 1292.54 501.465 1288.97 497.898C1278.04 486.184 1265.06 476.465 1243.57 474.643C1225.22 473.025 1203.29 478.519 1182.28 488.598C1173.05 493.047 1163.87 498.184 1155.28 503.896C1125.65 523.326 1099.73 546.366 1072.93 565.914C1050.74 582.288 1027.04 596.618 1000.72 605.21C994.819 607.074 988.814 608.775 982.662 610.028C927.488 622.041 866.569 602.424 827.596 565.823C819.108 557.903 811.691 549.471 804.942 540.28C781.096 507.641 768.323 469.041 760.02 429.933C749.294 380.275 745.44 328.484 728.15 280.64C712.733 237.919 683.096 196.628 636.253 179.462C631.098 177.614 625.887 176.291 620.52 175.33C567.295 166.656 506.652 205.943 456.4 208.515C452.745 208.709 449.194 208.662 445.748 208.374C393.944 204.29 342.95 209.764 289.494 217.794C198.588 231.438 104.482 245.403 31.0424 262.312C-49.7194 280.823 -109.759 306.485 -147.509 330.541" stroke="white" stroke-width="0.5" stroke-miterlimit="10"/>
<path d="M1424.55 629.447C1420.57 627.251 1398.78 615.474 1373.69 595.201C1354.68 579.74 1337.72 557.956 1325.04 538.857C1315.85 525.064 1307.15 513.299 1298.22 504.444C1294.3 500.509 1290.38 496.978 1286.82 493.816C1275.01 483.345 1261.7 475.16 1240.25 474.431C1222.15 473.827 1200.32 479.889 1179.71 490.214C1170.43 494.784 1161.34 500.084 1152.76 505.795C1122.87 525.422 1096.4 548.169 1068.95 567.262C1046.1 583.18 1021.81 596.935 995.086 604.873C989.03 606.694 982.978 608.111 976.826 609.364C921.212 620.035 860.455 599.653 821.744 562.453C813.46 554.456 805.943 545.862 799.398 536.593C775.761 503.475 763.599 464.644 755.604 425.221C745.391 375.171 742.2 323.029 725.574 274.836C710.916 232.331 682.043 190.852 635.709 173.695C630.554 171.847 625.396 170.403 620.128 169.605C567.364 160.655 507.187 199.257 457.531 203.211C454.028 203.448 450.425 203.522 446.926 203.354C396.069 201.022 346.231 207.765 293.326 216.49C203.273 231.316 109.343 243.3 36.4965 257.262C-43.313 272.386 -101.833 293.738 -139.382 313.385" stroke="white" stroke-width="0.5" stroke-miterlimit="10"/>
<path d="M1425.04 628.756C1421.34 623.934 1400.79 610.07 1375.56 588.54C1356.81 572.475 1339.65 550.768 1326.1 532.102C1316.3 518.542 1306.74 507.211 1297.03 498.951C1292.81 495.336 1288.53 492.245 1284.66 489.403C1272.07 480.337 1258.35 473.521 1236.88 474.006C1218.87 474.374 1197.44 481.089 1176.88 491.698C1167.7 496.431 1158.56 501.852 1149.97 507.563C1119.83 527.39 1092.8 549.847 1064.54 568.445C1041.04 583.91 1015.99 597.049 988.872 604.335C982.716 605.993 976.564 607.247 970.312 608.337C914.255 617.668 853.81 596.561 815.411 558.635C807.178 550.517 799.714 541.802 793.22 532.412C769.891 498.973 758.037 459.821 750.501 420.119C740.951 369.711 738.424 317.212 722.309 268.618C708.258 226.281 680.247 184.771 634.471 167.499C629.52 165.573 624.309 164.25 618.942 163.289C566.637 154.062 506.923 191.984 457.912 197.2C454.357 197.558 450.906 197.674 447.507 197.67C397.495 196.927 348.704 205.18 296.553 214.522C207.4 230.413 113.691 240.701 41.4846 251.598C-37.2766 263.5 -94.5307 280.339 -131.881 295.581" stroke="white" stroke-width="0.5" stroke-miterlimit="10"/>
<path d="M1425.53 628.063C1421.91 620.693 1402.81 604.664 1377.43 581.876C1359.04 565.371 1341.57 543.578 1327.21 525.224C1316.8 511.898 1306.37 501 1295.7 493.415C1291.02 490.076 1286.58 487.348 1282.34 484.945C1269.04 477.164 1254.84 471.838 1233.41 473.416C1215.49 474.756 1194.31 482.081 1174 492.896C1164.91 497.792 1155.72 503.334 1147.14 509.046C1116.89 529.115 1088.95 551.318 1060.09 569.343C1035.88 584.476 1010.28 596.92 982.762 603.554C976.658 605.092 970.406 606.182 964.055 607.109C907.555 615.1 847.321 593.105 809.129 554.694C800.949 546.455 793.537 537.619 787.247 528.15C764.276 494.27 752.73 454.796 745.654 414.816C736.615 364.008 734.699 311.271 719.148 262.157C705.856 220.031 678.403 178.405 633.338 161.061C628.387 159.134 623.228 157.691 618.013 156.772C566.167 147.267 506.764 184.467 458.497 191.11C455.042 191.63 451.743 191.789 448.292 191.905C399.224 192.914 351.533 202.558 299.833 212.432C211.58 229.387 117.939 237.938 46.3736 245.769C-31.1355 254.371 -87.3277 266.775 -124.327 277.653" stroke="white" stroke-width="0.5" stroke-miterlimit="10"/>
<path d="M1425.82 627.454C1422.43 617.579 1404.46 599.298 1379.25 575.338C1361.28 558.271 1343.3 536.47 1328.22 518.591C1317.05 505.457 1305.9 495.034 1294.41 488.166C1289.42 485.147 1284.62 482.859 1280.08 480.776C1266.05 474.279 1251.37 470.444 1229.78 473.192C1211.95 475.505 1191.02 483.44 1170.91 494.583C1161.77 499.599 1152.73 505.184 1144.09 511.017C1113.59 531.286 1085.09 553.199 1055.43 570.728C1030.56 585.408 1004.36 597.279 976.238 603.339C970.034 604.714 963.683 605.641 957.231 606.405C900.289 613.055 840.366 590.335 802.434 551.319C794.306 542.959 786.945 534.002 780.707 524.412C757.945 490.047 746.958 450.458 740.393 410.077C731.814 358.99 730.613 305.775 715.725 256.304C703.039 214.345 676.449 172.689 631.995 155.109C627.044 153.182 622.037 151.781 616.873 150.742C565.334 140.917 506.598 177.358 458.773 185.342C455.469 185.905 452.066 186.305 448.767 186.464C400.695 189.105 353.901 200.217 302.954 210.709C215.549 228.849 122.08 235.42 51.2558 240.349C-25.1529 245.608 -80.1316 253.619 -116.932 260.09" stroke="white" stroke-width="0.5" stroke-miterlimit="10"/>
<path d="M1426.31 626.766C1423.14 614.385 1406.42 594.016 1381.12 568.678C1363.51 551.17 1345.23 529.283 1329.28 511.838C1317.5 498.938 1305.48 488.948 1293.17 482.797C1287.87 480.097 1282.77 478.128 1277.86 476.485C1263.01 471.11 1247.96 468.929 1226.41 472.77C1208.67 476.055 1188.03 484.48 1168.07 496.07C1159.03 501.25 1149.94 506.956 1141.25 512.909C1110.64 533.42 1081.44 555.002 1051.12 572.078C1025.6 586.305 998.641 597.559 970.122 602.967C963.818 604.179 957.314 605.063 950.763 605.665C893.378 610.974 833.766 587.529 795.995 547.745C787.918 539.263 780.761 530.227 774.423 520.474C751.969 485.788 741.341 445.757 735.184 405.218C727.268 353.773 726.731 300.201 712.354 250.329C700.275 208.539 674.599 166.731 630.5 149.114C625.701 147.23 620.593 145.666 615.43 144.627C564.402 134.403 506.077 170.285 458.845 179.653C455.489 180.337 452.237 180.779 449.038 181.101C401.758 185.452 356.217 197.998 305.872 209.064C219.368 228.269 126.119 233.144 55.7832 234.964C-19.5772 237.001 -73.2383 240.376 -109.891 242.561" stroke="white" stroke-width="0.5" stroke-miterlimit="10"/>
<path d="M1426.8 626.076C1423.86 611.189 1408.43 588.611 1382.94 562.137C1365.74 544.067 1346.9 522.293 1330.19 505.039C1317.79 492.373 1304.91 482.816 1291.78 477.383C1286.17 475.002 1280.55 473.836 1275.5 472.15C1260.54 467.016 1244.45 467.248 1222.83 472.424C1205.23 476.561 1184.94 485.76 1165.08 497.513C1156.14 502.857 1147 508.683 1138.31 514.637C1107.44 535.348 1077.64 556.761 1046.56 573.221C1020.33 587.115 992.823 597.675 963.904 602.431C957.5 603.479 950.897 604.201 944.398 604.681C886.721 608.692 827.17 584.316 789.757 544.09C781.733 535.487 774.628 526.331 768.494 516.499C746.247 481.329 736.027 441.139 730.381 400.201C722.976 348.355 723.051 294.546 709.389 244.196C698.068 202.616 673.104 160.734 629.563 143.003C624.815 140.998 619.808 139.597 614.696 138.437C564.127 127.936 506.114 163.096 459.678 173.769C456.474 174.496 453.171 175.059 450.071 175.544C403.788 181.526 359.143 195.541 309.551 207.224C223.796 227.452 130.767 230.63 61.2238 229.427C-13.0361 228.12 -65.4837 227.102 -101.785 224.922" stroke="white" stroke-width="0.5" stroke-miterlimit="10"/>
<path d="M1427.23 625.509C1424.58 607.995 1410.18 583.406 1384.76 555.597C1367.91 537.086 1348.77 515.226 1331.19 498.404C1318.24 485.852 1304.49 476.728 1290.48 472.133C1284.37 470.15 1278.8 468.862 1273.23 467.979C1256.92 465.174 1240.98 465.853 1219.35 472.243C1202 477.395 1181.8 487.162 1162.14 499.242C1153.15 504.706 1144.31 510.618 1135.42 516.65C1104.44 537.604 1073.78 558.642 1042.1 574.528C1015.37 588.012 987.051 598.076 957.633 602.016C951.129 602.901 944.426 603.46 937.827 603.777C879.656 606.568 820.468 581.346 783.215 540.351C775.242 531.628 768.189 522.35 762.055 512.518C740.116 477.026 730.407 436.437 725.069 395.177C718.328 342.974 718.914 288.765 705.764 238.015C695.05 196.603 670.947 154.69 627.965 136.844C623.218 134.84 618.263 133.317 613.303 132.2C563.192 121.421 505.642 155.901 459.8 167.958C456.544 168.805 453.392 169.411 450.239 170.017C404.901 177.751 361.356 193.157 312.315 205.536C227.408 226.949 134.65 228.311 65.5969 223.998C-7.46287 219.511 -58.7965 213.936 -94.8989 207.348" stroke="white" stroke-width="0.5" stroke-miterlimit="10"/>
<path d="M1427.57 624.776C1425.15 604.756 1411.89 577.916 1386.63 548.934C1370 529.939 1350.7 508.036 1332.26 491.647C1318.54 479.287 1304.07 470.638 1289.15 466.597C1282.72 464.934 1276.8 464.087 1270.92 463.523C1253.94 461.882 1237.48 464.173 1215.88 471.656C1198.62 477.78 1178.67 488.158 1159.36 500.607C1150.47 506.235 1141.57 512.268 1132.53 518.258C1101.3 539.411 1070.08 560.16 1037.59 575.551C1010.21 588.581 981.288 598.071 951.471 601.359C944.868 602.081 938.216 602.519 931.518 602.673C872.903 604.122 813.927 578.012 777.033 536.576C769.113 527.731 762.111 518.332 756.181 508.421C734.449 472.445 725.149 431.698 720.27 390.159C714.04 337.556 715.237 283.109 702.803 231.881C692.696 190.637 669.304 148.651 627.032 130.733C622.437 128.771 617.481 127.248 612.369 126.088C562.566 114.99 505.683 148.711 460.434 162.152C457.329 163.042 454.277 163.811 451.073 164.537C406.579 173.862 364.135 190.658 315.643 203.733C231.636 226.211 138.948 225.834 70.6867 218.496C-1.3246 210.786 -51.3926 200.696 -87.2957 189.7" stroke="white" stroke-width="0.5" stroke-miterlimit="10"/>
<path d="M1428.01 624.208C1425.81 601.681 1413.8 572.752 1388.45 542.392C1372.17 522.956 1352.37 501.045 1333.32 484.89C1318.99 472.764 1303.65 464.549 1287.91 461.225C1281.18 459.881 1274.79 459.311 1268.7 459.23C1251.05 458.754 1233.96 462.493 1212.46 471.354C1195.13 478.408 1175.73 489.481 1156.52 502.094C1147.73 507.886 1138.78 514.039 1129.74 520.03C1098.41 541.425 1066.42 561.963 1033.34 576.78C1005.24 589.478 975.621 598.231 945.405 600.865C938.702 601.424 931.951 601.699 925.152 601.69C866.095 601.798 807.43 574.963 770.644 532.878C762.776 523.912 755.826 514.392 749.948 504.36C728.576 467.943 719.734 426.916 715.164 385.056C709.393 332.173 711.306 277.248 699.534 225.662C690.034 184.586 667.557 142.448 625.844 124.416C621.248 122.453 616.344 120.81 611.384 119.692C562.04 108.316 505.468 141.314 460.964 156.183C457.959 157.235 454.855 158.125 451.854 158.773C408.305 169.85 366.961 188.038 319.071 201.688C235.913 225.352 143.444 223.278 75.6723 212.831C4.86123 201.94 -44.0928 187.291 -79.6449 171.929" stroke="white" stroke-width="0.5" stroke-miterlimit="10"/>
<path d="M1428.49 623.522C1426.38 598.445 1415.61 567.427 1390.27 535.852C1374.25 515.811 1354.25 493.978 1334.32 478.256C1319.38 466.364 1303.18 458.582 1286.62 455.975C1279.58 454.951 1272.88 454.701 1266.44 455.061C1247.91 455.827 1230.5 461.1 1209.03 471.054C1191.85 478.96 1172.64 490.765 1153.63 503.705C1144.79 509.617 1135.94 515.934 1126.9 521.925C1095.31 543.52 1062.77 563.768 1028.88 578.089C1000.13 590.334 969.903 598.513 939.135 600.453C932.332 600.848 925.482 600.96 918.531 600.908C859.031 599.676 800.525 572.072 764.203 529.304C756.386 520.217 749.641 510.618 743.663 500.423C722.446 463.641 714.064 422.336 710.105 380.239C704.998 326.999 707.37 271.794 696.11 219.808C687.369 178.942 665.602 136.731 624.448 118.584C619.904 116.5 615.152 114.9 610.192 113.782C561.358 102.007 505.098 134.283 461.339 150.578C458.334 151.631 455.329 152.684 452.428 153.495C409.724 166.162 369.429 185.862 322.292 200.129C240.035 224.858 147.785 221.087 80.6547 207.573C11.0438 193.5 -36.7962 174.293 -72.149 154.523" stroke="white" stroke-width="0.5" stroke-miterlimit="10"/>
<path d="M1428.83 622.794C1426.95 595.21 1417.26 562.06 1391.99 529.149C1376.33 508.667 1355.82 486.826 1335.23 471.459C1319.53 459.758 1302.51 452.289 1285.23 450.563C1277.73 449.816 1270.82 450.048 1264.07 450.728C1244.87 452.659 1226.93 459.544 1205.45 470.712C1188.36 479.591 1169.4 492.006 1150.64 505.153C1141.85 511.35 1133.05 517.546 1123.9 523.779C1092.06 545.574 1058.81 565.489 1024.26 579.358C994.86 591.149 964.031 598.754 932.812 600.162C925.857 600.515 918.907 600.463 912.061 600.17C852.065 597.717 793.975 569.146 757.708 525.851C749.944 516.643 743.25 506.923 737.475 496.648C716.619 459.425 708.544 417.798 705.045 375.422C700.449 321.782 703.433 266.339 692.888 213.875C684.754 173.178 663.849 130.936 623.254 112.673C618.71 110.59 613.958 108.989 609.05 107.75C560.675 95.698 504.878 127.293 461.712 144.973C458.807 146.189 455.802 147.242 453.001 148.216C411.24 162.637 372.046 183.728 325.512 198.571C244.102 224.485 151.921 218.975 85.4834 202.273C16.9211 184.975 -29.6532 161.252 -64.655 137.115" stroke="white" stroke-width="0.5" stroke-miterlimit="10"/>
<path d="M1429.26 622.227C1427.61 592.136 1419.06 556.734 1393.96 522.649C1378.51 501.684 1357.84 479.799 1336.44 464.745C1320.13 453.278 1302.24 446.242 1284.14 445.234C1276.33 444.807 1269.12 445.359 1262 446.479C1241.98 449.532 1223.57 457.908 1202.02 470.412C1185.02 480.264 1166.52 493.212 1147.75 506.763C1139.05 513.123 1130.21 519.441 1121.06 525.674C1089.11 547.711 1055.16 567.295 1019.95 580.71C989.841 592.169 958.461 599.078 926.691 599.791C919.636 599.981 912.738 599.809 905.64 599.31C845.352 595.557 787.27 566.176 751.264 522.276C743.551 512.946 736.909 503.105 731.187 492.71C710.689 455.044 703.023 413.259 699.883 370.441C695.951 316.442 699.446 260.6 689.565 207.777C682.037 167.248 661.995 124.975 621.807 106.556C617.415 104.515 612.715 102.793 607.806 101.554C559.739 89.1819 504.456 119.976 462.036 139.083C459.131 140.299 456.225 141.515 453.524 142.653C412.76 158.706 374.462 181.267 328.53 196.685C248.021 223.664 156.008 216.578 90.2632 196.687C22.6974 176.286 -22.5591 147.925 -57.3615 119.378" stroke="white" stroke-width="0.5" stroke-miterlimit="10"/>
<path d="M1429.75 621.541C1428.38 588.821 1420.87 551.407 1395.83 515.987C1380.74 494.58 1359.62 472.567 1337.35 457.945C1320.42 446.713 1301.67 440.11 1282.6 439.777C1274.48 439.669 1266.81 440.499 1259.49 442.102C1238.59 446.398 1219.86 456.309 1198.35 469.906C1181.49 480.61 1163.18 494.29 1144.61 508.168C1135.86 514.649 1127.12 521.131 1117.97 527.363C1085.76 549.601 1051.2 569.015 1015.24 581.814C984.475 592.82 952.288 599.233 920.323 599.215C913.168 599.241 906.17 598.906 899.124 598.287C838.341 593.313 780.622 563.086 744.928 518.459C737.418 509.051 730.677 499.046 725.158 488.572C704.817 450.542 697.662 408.357 694.929 365.381C691.457 311.103 695.616 254.902 686.45 201.601C679.477 161.361 660.198 118.894 620.772 100.281C616.38 98.2397 611.679 96.5181 606.975 95.2012C559.366 82.5509 504.395 112.622 462.568 133.114C459.762 134.493 457.009 135.752 454.104 136.968C414.184 154.611 377.087 178.727 331.757 194.72C252.096 222.886 160.151 214.06 95.0994 190.98C28.6818 167.517 -15.2048 134.397 -50.0117 101.519" stroke="white" stroke-width="0.5" stroke-miterlimit="10"/>
<path d="M1430.19 620.975C1429.05 585.748 1422.63 546.202 1397.65 509.445C1382.77 487.554 1361.44 465.619 1338.41 451.188C1320.72 440.148 1301.3 433.901 1281.36 434.406C1272.78 434.575 1264.9 435.888 1257.27 437.81C1235.54 443.229 1216.29 454.752 1194.92 469.606C1178.15 481.284 1160.09 495.574 1141.77 509.659C1133.12 516.304 1124.32 522.906 1115.17 529.139C1082.86 551.619 1047.6 570.701 1010.83 583.004C979.409 593.556 946.618 599.396 914.102 598.682C906.847 598.545 899.749 598.047 892.551 597.385C831.326 591.07 773.819 559.953 738.332 514.841C730.874 505.312 724.185 495.186 718.718 484.591C698.736 446.12 691.837 403.734 689.616 360.357C686.807 305.721 691.478 249.12 682.823 195.419C676.457 155.347 658.093 112.728 619.174 94.1216C614.781 92.0802 610.285 90.2804 605.377 89.0416C558.227 76.1135 503.771 105.383 462.537 127.26C459.831 128.802 457.026 130.182 454.272 131.44C415.297 150.837 379.149 176.302 334.572 192.913C255.813 222.145 164.035 211.742 99.6766 185.473C34.3077 158.785 -8.31303 121.148 -42.7688 83.9011" stroke="white" stroke-width="0.5" stroke-miterlimit="10"/>
<path d="M1430.53 620.246C1429.62 582.511 1424.13 540.789 1399.32 502.859C1384.85 480.407 1363.17 458.506 1339.42 444.551C1321.12 433.745 1300.83 427.931 1280.12 429.033C1271.23 429.523 1263.05 431.155 1255.05 433.518C1232.66 440.102 1212.93 453.117 1191.55 469.186C1174.87 481.836 1157.2 496.78 1139.08 511.192C1130.54 518 1121.74 524.603 1112.54 530.957C1079.97 553.637 1043.99 572.387 1006.57 584.236C974.497 594.335 941.103 599.6 908.036 598.191C900.681 597.891 893.483 597.229 886.186 596.404C824.517 588.747 767.321 556.905 732.094 511.187C724.688 501.537 718.202 491.332 712.636 480.573C692.81 441.738 686.574 398.994 684.813 355.339C682.515 300.303 687.646 243.422 679.858 189.284C674.099 149.381 656.598 106.731 618.237 88.0092C614.049 85.8895 609.5 84.2103 604.644 82.8508C558.005 69.5241 503.86 98.0708 463.319 121.495C460.613 123.038 457.908 124.581 455.254 126.003C417.124 146.99 382.176 174.01 338.201 191.197C260.442 221.657 168.58 209.472 104.915 180.013C40.5423 150.221 -0.760416 107.944 -35.0169 66.287" stroke="white" stroke-width="0.5" stroke-miterlimit="10"/>
<path d="M1431.02 619.56C1430.18 579.274 1425.94 535.462 1401.35 496.238C1386.93 473.259 1365.04 451.435 1340.48 437.793C1321.56 427.221 1300.41 421.841 1278.88 423.661C1269.69 424.47 1261.04 426.379 1252.84 429.226C1229.57 437.053 1209.37 451.56 1188.12 468.886C1171.38 482.467 1154.11 498.065 1136.25 512.684C1127.8 519.655 1118.95 526.379 1109.75 532.733C1077.07 555.656 1040.39 574.073 1002.31 585.469C969.532 595.235 935.435 599.763 902.12 597.743C894.666 597.28 887.316 596.575 880.122 595.509C817.958 586.631 760.974 553.899 726.058 507.455C718.705 497.684 712.271 487.358 706.908 476.52C687.441 437.243 681.461 394.298 680.16 350.363C678.374 294.927 684.116 237.809 677.044 183.192C671.892 143.457 655.253 100.776 617.451 81.9393C613.263 79.8195 608.766 78.0195 604.061 76.7024C557.73 63.0554 504.048 90.9214 464.304 115.653C461.698 117.359 458.992 118.902 456.438 120.487C419.252 143.228 385.405 171.64 341.881 189.36C265.022 220.886 173.177 207.081 110.356 174.475C46.9801 141.578 6.99518 94.6622 -26.9103 48.6362" stroke="white" stroke-width="0.5" stroke-miterlimit="10"/>
<path d="M1431.45 618.996C1430.85 576.202 1427.54 530.215 1403.17 489.697C1389.11 466.276 1366.87 444.487 1341.54 431.036C1321.86 420.656 1300.05 415.631 1277.64 418.29C1267.99 419.376 1259.13 421.769 1250.62 424.935C1226.53 433.885 1205.95 450.047 1184.7 468.589C1168.05 483.143 1151.02 499.352 1133.36 514.298C1124.86 521.39 1116.11 528.277 1106.85 534.753C1073.92 557.875 1036.69 576.003 997.802 586.903C964.363 596.215 929.664 600.168 895.797 597.453C888.395 596.869 880.945 596.002 873.5 594.729C810.893 584.509 754.272 550.931 719.564 504.002C712.262 494.109 705.88 483.662 700.569 472.703C681.311 432.941 675.942 389.76 674.948 345.503C673.774 289.829 680.028 232.311 673.52 177.174C668.974 137.606 653.046 94.852 615.955 75.943C611.766 73.8231 607.422 72.0655 602.617 70.5851C556.744 56.6602 503.427 83.6823 464.376 109.962C461.769 111.668 459.163 113.374 456.708 115.123C420.216 139.413 387.721 169.423 344.746 187.838C268.836 220.714 176.907 205.127 114.831 169.21C52.4522 133.208 13.7854 81.652 -19.9208 31.2144" stroke="white" stroke-width="0.5" stroke-miterlimit="10"/>
<path d="M1431.79 618.269C1431.47 572.846 1429.2 524.846 1404.89 482.991C1391.04 459.086 1368.49 437.211 1342.45 424.236C1322.16 414.09 1299.32 409.457 1276.1 412.833C1266.14 414.239 1256.97 416.952 1248.1 420.558C1223.13 430.753 1202.14 448.286 1181.02 468.085C1164.51 483.492 1147.84 500.475 1130.22 515.706C1121.81 522.962 1113.01 529.97 1103.76 536.446C1070.72 559.811 1032.58 577.684 993.087 588.01C958.993 596.869 923.69 600.247 889.372 597C881.871 596.253 874.321 595.222 866.927 593.829C803.773 582.508 747.416 547.92 712.967 500.385C705.718 490.371 699.388 479.803 694.28 468.765C675.329 428.681 670.268 385.178 669.787 340.522C669.124 284.447 675.89 226.528 670.196 171.075C666.106 131.633 651.245 88.7699 614.561 69.7036C610.372 67.5836 606.079 65.7051 601.426 64.2672C556.012 50.0644 503.006 76.3631 464.752 103.95C462.246 105.82 459.791 107.568 457.284 109.438C421.789 135.361 390.191 166.841 347.97 185.875C272.808 219.774 181.047 202.61 119.612 163.623C58.2295 124.516 20.8807 68.3198 -12.6261 13.4702" stroke="white" stroke-width="0.5" stroke-miterlimit="10"/>
<path d="M1432.28 617.586C1432.18 569.653 1430.85 519.478 1406.85 476.491C1393.21 452.102 1370.31 430.262 1343.45 417.6C1322.5 407.809 1298.85 403.488 1274.8 407.583C1264.53 409.309 1254.91 412.298 1245.83 416.388C1220.03 427.706 1198.52 446.852 1177.53 467.909C1160.97 484.247 1144.69 501.884 1127.32 517.321C1119.02 524.741 1110.22 531.749 1100.91 538.346C1067.62 561.911 1028.92 579.494 988.622 589.324C953.873 597.73 917.815 600.491 883.097 596.59C875.495 595.68 867.846 594.486 860.301 593.05C796.703 580.387 740.657 545.073 706.52 496.811C699.323 486.676 693.044 475.987 687.989 464.827C669.246 424.259 664.644 380.477 664.57 335.662C664.571 279.229 671.645 220.988 666.819 165.098C663.284 125.945 649.337 82.9303 613.212 63.7491C609.227 61.5508 604.882 59.793 600.281 58.2342C555.326 43.7535 502.531 69.1656 465.122 98.344C462.616 100.213 460.209 102.246 457.854 104.158C423.303 131.836 392.806 164.709 351.187 184.318C276.926 219.283 185.029 200.456 124.591 158.364C64.0527 116.108 28.1738 55.3145 -4.92992 -4.0258" stroke="white" stroke-width="0.5" stroke-miterlimit="10"/>
<path d="M1432.71 617.021C1432.85 566.579 1432.55 514.391 1408.68 469.947C1384.8 425.503 1330.37 391.18 1273.56 402.209C1208.63 414.75 1171.48 475.672 1124.49 518.813C1060.42 577.477 964.341 607.418 877.082 595.98C789.823 584.541 714.021 531.92 681.958 460.689C640.331 368.238 671.339 259.989 663.754 158.8C660.519 115.398 644.651 66.9715 599.297 51.8371C554.701 36.9152 502.469 61.8096 465.706 92.2528C428.89 122.817 398.34 160.548 354.465 182.234C281.053 218.386 189.172 197.939 129.479 152.535C69.9375 107.173 35.3767 41.7386 2.47229 -22.0144" stroke="white" stroke-width="0.5" stroke-miterlimit="10"/>
</svg>
