<svg width="20" height="20" viewBox="0 0 20 20" fill="none" xmlns="http://www.w3.org/2000/svg">
<path d="M9.99297 1.66602C5.39297 1.66602 1.66797 5.39935 1.66797 9.99935C1.66797 14.5993 5.39297 18.3327 9.99297 18.3327C14.6013 18.3327 18.3346 14.5993 18.3346 9.99935C18.3346 5.39935 14.6013 1.66602 9.99297 1.66602ZM10.0013 16.666C6.31797 16.666 3.33464 13.6827 3.33464 9.99935C3.33464 6.31602 6.31797 3.33268 10.0013 3.33268C13.6846 3.33268 16.668 6.31602 16.668 9.99935C16.668 13.6827 13.6846 16.666 10.0013 16.666Z" fill="#98774A"/>
<path d="M10.418 5.83398H9.16797V10.834L13.543 13.459L14.168 12.434L10.418 10.209V5.83398Z" fill="#98774A"/>
</svg>
