<svg width="1440" height="1322" viewBox="0 0 1440 1322" fill="none" xmlns="http://www.w3.org/2000/svg">
<path d="M-93.5611 796.385C-82.6911 878.48 7.00299 942.763 79.5451 920.311C131.195 904.186 165.355 854.838 193.654 806.733C220.806 760.63 246.555 712.478 283.954 675.731C321.354 638.985 373.678 614.801 425.875 626.828C532.098 651.125 580.66 801.542 683.353 843.121C767.132 876.985 857.231 823.074 903.288 747.389C949.345 671.704 964.023 578.062 988.258 490.217C1012.49 402.372 1051.62 312.855 1127.46 271.689C1197.41 233.644 1285.23 244.839 1363.9 271.491C1551.72 335.316 1667.24 319.562 1757.88 508.414" stroke="white" stroke-width="0.2" stroke-miterlimit="10"/>
<path d="M-92.4286 800.759C-87.7433 836.765 -66.8358 869.045 -39.654 891.16C-5.17818 919.321 39.5601 932.469 78.9983 919.151C115.251 906.899 142.32 877.876 165.169 844.581C173.924 831.669 182.11 818.165 189.936 804.76C200.311 786.903 210.634 768.873 221.706 751.386C239.104 723.906 258.033 698.253 281.181 676.872C289.682 668.903 298.985 661.651 308.963 655.337C342.254 633.968 381.835 623.048 421.483 632.913C430.943 635.176 439.819 638.725 448.492 642.892C489.047 662.816 521.289 700.966 554.049 739.535C591.163 783.463 628.638 827.291 678.196 846.043C696.307 853.042 714.703 855.839 732.822 855.15C797.86 852.95 859.532 806.882 895.027 747.794C900.485 738.791 905.477 729.542 910.005 720.045C944.151 650.084 958.049 568.652 979.593 491.859C999.825 419.738 1030.66 346.567 1083.66 300.831C1094.77 291.203 1106.9 282.983 1119.81 276.048C1189.65 239.536 1276.48 253.253 1355 277.508C1546.84 337.225 1670.07 328.902 1761.26 518.915" stroke="white" stroke-width="0.2" stroke-miterlimit="10"/>
<path d="M-91.2447 805.305C-86.3795 841.261 -64.7299 872.774 -37.6305 893.975C-3.44703 920.53 40.4591 932.22 78.503 918.162C113.773 905.244 139.785 875.95 161.862 842.681C170.438 829.819 178.444 816.364 186.09 803.009C196.465 785.152 206.787 767.122 217.964 749.98C235.701 722.97 255.124 698.305 278.28 678.234C286.938 670.784 296.166 663.927 305.889 658.058C338.828 638.099 377.696 628.687 416.55 639.147C425.883 641.632 434.578 645.231 443.072 649.448C483.012 669.916 515.022 707.943 547.624 745.993C584.941 789.302 623.075 831.449 672.446 848.941C690.58 855.371 708.691 857.872 726.704 856.837C791.016 853.526 851.451 807.237 886.586 748.248C891.864 739.295 896.856 730.045 901.384 720.549C934.99 650.736 949.045 569.824 970.799 493.722C991.316 421.898 1022.77 349.492 1076.03 304.62C1087.2 295.166 1099.2 287.169 1112.45 280.703C1182.16 245.723 1268.37 261.863 1346.44 283.993C1542.6 339.33 1673.24 338.71 1764.98 529.884" stroke="white" stroke-width="0.2" stroke-miterlimit="10"/>
<path d="M-90.1119 809.678C-85.2991 845.462 -62.8025 876.554 -35.7106 896.444C-1.58711 921.517 41.1271 931.848 78.0091 917.174C112.297 903.59 137.253 874.026 158.789 840.906C167.133 827.92 174.959 814.515 182.605 801.159C192.8 783.352 203.175 765.495 214.457 748.699C232.351 722.208 252.268 698.531 275.612 679.72C284.195 672.666 293.401 666.378 303.281 661.028C335.92 642.651 374.204 634.524 412.135 645.801C421.161 648.559 429.857 652.157 438.17 656.424C477.443 677.264 509.093 715.389 541.897 752.822C579.417 795.513 618.263 836.151 667.214 852.259C685.191 858.171 703.144 860.152 720.926 858.995C784.457 854.399 843.656 807.889 878.251 749.049C883.528 740.096 888.341 730.896 892.869 721.399C926.167 651.859 940.148 571.342 962.059 495.759C982.914 424.404 1014.71 352.468 1068.33 308.807C1079.61 299.698 1091.66 291.874 1104.78 285.63C1174.38 252.183 1259.77 270.795 1337.52 290.578C1537.88 341.758 1676.24 348.569 1768.21 541.176" stroke="white" stroke-width="0.2" stroke-miterlimit="10"/>
<path d="M-88.9787 814.052C-84.1659 849.836 -60.927 880.161 -33.9176 899.136C-0.0340421 922.776 41.6157 931.527 77.3357 916.236C110.462 902.035 134.593 872.323 155.357 839.229C163.521 826.293 171.115 812.765 178.633 799.632C188.648 781.874 199.023 764.017 210.59 747.518C228.769 721.322 249.106 699.029 272.585 681.306C281.325 674.77 290.456 668.877 300.081 663.973C332.6 647.128 369.939 640.387 407.076 652.258C415.922 655.065 424.491 658.886 432.444 663.252C471.103 684.637 502.393 722.861 535.167 759.552C572.941 801.798 612.215 840.632 661.159 855.43C678.977 860.823 696.826 862.458 714.45 860.782C777.254 855.074 835.396 808.294 869.272 749.653C874.369 740.749 879.182 731.549 883.71 722.053C916.468 652.661 930.479 572.885 952.907 497.722C974.099 426.836 1006.46 355.493 1060.35 312.696C1071.68 303.761 1083.84 296.282 1096.83 290.261C1166.36 258.52 1251.01 279.209 1328.37 297.039C1533.47 343.913 1679.05 358.477 1771.52 552.072" stroke="white" stroke-width="0.2" stroke-miterlimit="10"/>
<path d="M-87.6678 818.376C-82.7275 853.937 -58.874 883.717 -31.8196 901.556C2.00397 923.712 42.5892 930.883 77.1473 914.975C109.292 900.109 132.365 870.126 152.59 837.181C160.394 824.344 167.988 810.815 175.274 797.559C185.289 779.801 195.716 762.117 207.336 745.791C225.672 720.115 246.504 698.81 270.17 682.346C278.836 676.207 288.124 670.833 297.674 666.323C329.893 651.061 366.468 645.656 402.863 658.293C411.581 661.323 419.969 665.194 427.795 669.782C465.839 691.711 496.717 729.863 529.514 765.985C567.49 807.613 607.424 844.765 656.18 858.303C673.841 863.176 691.585 864.466 708.924 862.494C770.769 855.551 827.854 808.5 861.19 750.008C866.287 741.104 870.92 731.954 875.32 722.68C907.539 653.437 921.707 574.181 944.293 499.536C965.77 428.947 998.574 358.418 1052.73 316.486C1064.11 307.724 1076.32 300.419 1089.41 294.743C1158.88 264.708 1242.85 287.647 1319.7 303.179C1529.13 345.673 1681.93 367.989 1774.77 562.795" stroke="white" stroke-width="0.2" stroke-miterlimit="10"/>
<path d="M-86.5354 822.749C-81.5951 858.31 -56.947 887.497 -29.9001 904.026C3.63112 924.576 43.2568 930.511 76.6005 913.814C107.763 898.281 129.832 868.201 149.232 835.108C156.804 822.148 164.217 808.669 171.556 795.586C181.391 777.878 191.819 760.194 203.595 744.387C222.269 719.179 243.416 698.912 267.269 683.709C276.092 678.088 285.125 673.159 294.601 669.046C326.52 655.366 362.33 651.296 398.11 664.478C406.649 667.558 414.73 671.701 422.556 676.289C459.805 698.812 490.451 736.84 523.502 772.517C561.734 813.7 602.147 849.22 650.663 861.325C668.167 865.679 685.806 866.623 703.04 864.305C764.158 856.251 820.005 808.979 852.802 750.635C857.899 741.732 862.532 732.581 866.752 723.357C898.664 654.387 912.757 575.526 935.553 501.573C957.367 431.453 990.56 361.566 1045.21 320.623C1056.64 312.033 1068.78 305.123 1081.98 299.794C1151.32 271.291 1234.61 296.48 1311.07 310.06C1525.18 348.075 1685.21 378.144 1778.41 574.16" stroke="white" stroke-width="0.2" stroke-miterlimit="10"/>
<path d="M-85.4043 827.123C-80.5166 862.511 -55.0738 891.103 -27.9295 906.668C5.54177 925.735 43.9231 930.14 76.0524 912.653C106.053 896.504 127.065 866.153 146.105 833.159C153.497 820.249 160.731 806.82 167.837 793.613C177.672 775.905 187.972 758.443 199.981 742.759C218.812 718.071 240.634 698.742 264.495 684.849C273.243 679.624 282.433 675.214 291.886 671.669C323.506 659.571 358.551 656.836 393.589 670.786C402 674.088 409.901 678.281 417.547 682.918C454.182 705.986 484.468 744.113 517.489 779.049C555.923 819.614 596.996 853.452 645.325 864.297C662.724 868.305 680.205 868.73 697.154 866.116C757.493 856.778 812.103 809.284 844.54 751.04C849.457 742.186 854.09 733.036 858.31 723.812C889.682 654.99 903.933 576.648 926.938 503.387C949.037 433.563 982.853 364.442 1037.58 324.413C1049.07 315.996 1061.31 309.433 1074.38 304.326C1143.6 277.355 1226.39 304.744 1302.22 316.249C1521.14 349.562 1688.09 387.656 1781.84 584.834" stroke="white" stroke-width="0.2" stroke-miterlimit="10"/>
<path d="M-84.2724 831.496C-79.2572 866.661 -53.1473 894.882 -26.1904 909.187C7.041 926.821 44.5377 929.595 75.5051 911.492C104.471 894.503 124.531 864.228 142.799 831.26C150.011 818.399 157.012 804.847 163.991 791.862C173.647 774.204 184.179 756.866 196.241 741.355C215.409 717.135 237.598 699.018 261.593 686.212C270.319 681.555 279.435 677.541 288.813 674.391C320.132 663.875 354.593 662.427 388.709 677.193C396.813 680.767 404.714 684.96 412.233 689.82C448.253 713.432 478.306 751.436 511.35 785.803C550.038 825.923 591.591 858.13 639.912 867.664C657.334 871.104 674.53 871.233 691.195 868.322C750.806 857.873 804.18 810.158 836.076 752.063C840.994 743.209 845.447 734.108 849.667 724.884C880.732 656.335 894.907 578.388 918.25 505.597C940.687 436.242 974.892 367.763 1030.07 328.549C1041.6 320.305 1053.9 313.914 1066.89 309.203C1136.05 283.938 1218.23 313.182 1293.71 322.907C1517.45 351.519 1691.32 397.638 1785.44 596.026" stroke="white" stroke-width="0.2" stroke-miterlimit="10"/>
<path d="M-83.1396 835.87C-78.1244 871.035 -51.4523 898.538 -24.2705 911.656C8.72099 927.857 45.2057 929.224 74.9587 910.331C102.942 892.676 121.946 862.13 139.622 829.138C146.601 816.154 153.243 802.701 160.402 789.667C170.004 771.835 180.409 754.72 192.628 739.728C212.134 715.978 234.637 698.898 258.641 687.402C267.471 683.091 276.564 679.645 285.867 676.891C317.067 667.907 350.583 667.844 383.905 683.204C391.828 686.828 399.602 691.244 406.761 696.203C442.166 720.36 471.807 758.29 504.874 792.089C543.765 831.59 585.977 862.116 634.111 870.39C651.375 873.311 668.467 873.094 684.974 869.664C743.805 857.93 795.942 809.995 827.299 752.049C832.036 743.244 836.489 734.143 840.71 724.919C871.235 656.519 885.567 579.091 909.121 506.992C931.714 438.155 966.669 370.22 1022.16 332.043C1033.75 323.973 1045.97 317.977 1059.2 313.389C1128.23 289.657 1209.86 320.928 1284.76 328.751C1513.31 352.661 1694.28 406.755 1788.76 606.354" stroke="white" stroke-width="0.2" stroke-miterlimit="10"/>
<path d="M-82.0086 840.243C-77.0459 875.236 -49.5792 902.145 -22.2999 914.299C10.5791 928.843 45.872 928.852 74.4629 909.343C101.465 891.022 119.463 860.378 136.367 827.412C143.167 814.477 149.628 801.073 156.607 788.089C166.03 770.308 176.488 753.365 188.939 738.496C208.549 715.092 231.601 699.173 255.791 688.937C264.599 685.195 273.797 682.095 282.845 679.786C313.693 672.212 346.497 673.657 379.076 689.784C386.872 693.631 394.286 698.146 401.445 703.105C436.236 727.806 465.464 765.663 498.733 798.843C537.827 837.727 580.571 866.793 628.465 873.634C645.572 876.037 662.559 875.473 678.781 871.747C736.885 858.902 787.785 810.746 818.602 752.948C823.34 744.144 827.613 735.093 831.653 725.918C861.691 657.84 876.129 580.758 899.839 509.177C922.718 440.637 958.063 373.344 1013.87 336.205C1025.56 328.48 1037.83 322.658 1050.99 318.466C1119.9 296.265 1200.97 329.564 1275.3 335.485C1508.92 354.248 1696.6 416.984 1791.58 617.572" stroke="white" stroke-width="0.2" stroke-miterlimit="10"/>
<path d="M-80.8761 844.617C-75.7335 879.56 -47.652 905.925 -20.3803 916.768C12.2589 929.88 46.6671 928.259 74.0961 908.133C99.936 889.195 117.058 858.231 133.422 825.413C139.809 812.405 146.27 799.002 153.25 786.017C162.492 768.285 173.13 751.293 185.686 736.77C205.634 713.835 229 698.954 253.378 689.979C262.291 686.582 271.287 684.1 280.492 682.31C311.04 676.318 343.132 679.272 375.044 695.771C382.66 699.667 389.946 704.404 396.978 709.587C430.974 734.882 459.97 772.615 493.261 805.227C532.61 843.665 575.782 870.927 623.668 876.458C640.617 878.341 657.499 877.432 673.616 873.36C730.941 859.231 780.604 810.853 810.881 753.205C815.439 744.45 819.712 735.399 823.753 726.225C853.43 658.245 867.666 581.782 891.766 510.843C914.982 442.772 950.897 376.071 1007.01 339.97C1018.76 332.418 1031.08 326.769 1044.17 322.972C1113.01 302.478 1193.66 337.581 1267.28 341.822C1505.84 355.66 1700.49 426.595 1795.66 628.442" stroke="white" stroke-width="0.2" stroke-miterlimit="10"/>
<path d="M-79.7442 848.99C-74.6541 883.76 -45.778 909.531 -18.5887 919.46C13.8105 931.138 47.1543 927.936 73.4214 907.194C98.2792 887.59 114.216 856.577 129.988 823.736C136.195 810.778 142.425 797.251 149.276 784.489C158.519 766.757 169.029 749.987 181.69 735.81C201.795 713.394 225.656 699.501 250.222 691.786C259.112 688.958 268.161 686.649 277.164 685.477C307.411 681.068 338.919 685.307 369.908 702.623C377.397 706.742 384.504 711.528 391.356 716.76C424.737 742.6 453.553 780.383 486.815 812.253C526.365 850.073 570.249 875.826 617.896 879.924C634.74 881.462 651.465 880.034 667.297 875.666C723.894 860.425 772.32 811.826 802.058 754.327C806.616 745.572 810.889 736.521 814.749 727.396C843.887 659.566 858.332 583.794 882.718 513.151C906.271 445.55 942.576 379.491 998.955 344.255C1010.75 336.876 1023.24 331.746 1036.14 327.999C1104.71 308.517 1184.9 345.994 1258 348.505C1501.57 357.024 1702.95 436.602 1798.66 639.61" stroke="white" stroke-width="0.2" stroke-miterlimit="10"/>
<path d="M-78.6126 853.364C-73.5224 888.134 -44.0317 913.36 -16.67 921.93C15.4894 932.175 47.7686 927.392 72.8738 906.033C96.6971 885.59 111.63 854.48 126.81 821.614C132.784 808.533 138.886 795.228 145.505 782.343C154.568 764.661 165.078 747.891 178.024 734.01C198.467 712.064 222.905 700.073 247.343 692.58C256.106 689.975 265.184 688.408 274.292 687.582C304.24 684.754 334.983 690.329 365.178 708.239C372.36 712.63 379.466 717.417 385.958 722.748C418.725 749.132 447.128 786.841 480.412 818.143C520.166 855.345 564.529 879.467 612.168 882.254C628.855 883.273 645.422 881.326 661.149 876.612C716.967 860.087 764.157 811.267 793.534 753.867C798.092 745.112 802.185 736.111 806.046 726.986C834.876 659.428 849.247 584.052 873.842 514.101C897.68 446.796 934.607 381.503 991.249 347.131C1003.1 339.925 1015.45 335.017 1028.64 331.566C1097.25 314.137 1176.86 352.899 1249.3 353.904C1497.89 357.103 1705.98 445.323 1802.06 649.543" stroke="white" stroke-width="0.2" stroke-miterlimit="10"/>
<path d="M-77.48 857.737C-72.2624 892.284 -42.1569 916.966 -14.7502 924.399C17.1168 933.038 48.6164 926.971 72.5072 904.822C95.3484 883.713 109.277 852.505 123.684 819.665C129.479 806.633 135.349 793.206 142.02 780.494C151.083 762.811 161.646 746.214 174.644 732.507C195.244 711.079 219.967 699.384 244.802 693.844C253.775 691.93 262.726 690.585 271.579 690.204C301.175 688.786 331.205 695.87 360.658 714.547C367.66 718.987 374.459 724.046 380.951 729.378C413.103 756.306 441.095 793.942 474.581 824.626C514.589 861.382 559.432 883.872 606.832 885.226C623.361 885.726 639.823 883.433 655.266 878.423C710.304 860.614 756.488 811.696 785.094 754.322C789.472 745.617 793.565 736.615 797.246 727.54C825.537 660.131 840.064 585.273 864.87 516.014C889.045 449.179 926.362 384.527 983.499 351.144C995.403 344.111 1007.81 339.376 1020.97 336.494C1089.28 320.646 1168.64 361.164 1240.38 360.488C1494.06 357.972 1708.97 455.182 1805.42 660.612" stroke="white" stroke-width="0.2" stroke-miterlimit="10"/>
<path d="M-76.2943 862.284C-71.0766 896.831 -40.1766 920.919 -12.725 927.214C18.9022 934.42 49.3373 926.772 72.0661 904.007C93.7455 882.281 106.796 850.753 120.665 818.062C126.279 805.08 131.969 791.702 138.408 778.867C147.291 761.234 157.854 744.637 171.01 731.448C191.947 710.489 216.985 699.832 242.007 695.552C250.906 694.035 259.834 693.258 268.844 693.396C298.14 693.56 327.406 701.979 356.064 721.25C362.939 725.913 369.558 731.022 375.922 736.576C407.28 764.099 435.039 801.611 468.548 831.726C508.758 867.865 554.261 888.673 601.526 888.94C617.898 888.921 634.255 886.282 649.412 880.976C703.671 861.882 748.671 812.916 776.737 755.691C781.115 746.986 785.028 738.034 788.709 728.959C816.512 661.871 831.145 587.36 856.107 518.62C880.62 452.253 918.507 388.194 975.726 355.726C987.683 348.865 1000.19 344.476 1013.23 341.817C1081.47 327.675 1160.17 369.874 1231.44 367.642C1490.7 359.089 1712.3 465.509 1809.3 672.1" stroke="white" stroke-width="0.2" stroke-miterlimit="10"/>
<path d="M-74.9843 866.607C-69.8192 900.982 -38.3044 924.525 -10.8078 929.684C20.3995 935.506 50.13 926.178 71.517 902.846C92.2143 880.454 104.208 848.655 117.357 816.163C122.559 803.107 128.249 789.729 134.561 777.116C143.264 759.533 153.879 743.109 167.267 730.044C188.309 709.431 213.894 699.935 239.104 696.915C247.98 695.966 257.013 695.535 265.769 696.118C294.765 697.865 323.446 707.57 351.362 727.608C358.057 732.321 364.549 737.652 370.733 743.255C401.476 771.322 429.002 808.711 462.586 838.431C503.052 874.124 549.034 893.301 596.239 892.085C612.686 891.671 628.526 888.612 643.758 882.91C697.289 862.705 741 813.345 768.527 756.269C772.725 747.613 776.638 738.661 780.371 729.759C807.815 662.771 822.425 588.828 847.777 520.73C872.575 454.66 910.903 391.416 968.565 359.763C980.627 353.248 993.191 349.032 1006.28 346.546C1074.4 333.936 1152.62 377.767 1223.42 373.978C1486.94 359.562 1715.42 475.145 1812.6 682.996" stroke="white" stroke-width="0.2" stroke-miterlimit="10"/>
<path d="M-73.8519 870.981C-68.5593 905.133 -36.5573 928.354 -8.83582 932.326C22.1316 936.715 50.7976 925.807 71.2026 901.809C90.8654 878.578 101.727 846.903 114.411 814.165C119.434 801.158 124.891 787.657 131.203 775.044C139.906 757.461 150.521 741.037 164.014 728.317C185.394 708.174 211.293 699.716 236.691 697.956C245.672 697.353 254.682 697.491 263.363 698.47C292.007 701.625 319.976 712.839 347.15 733.643C353.717 738.579 359.849 744.01 365.853 749.663C395.981 778.274 423.148 815.762 456.702 844.741C497.37 879.816 543.885 897.533 590.849 894.884C607.139 893.951 622.874 890.547 637.769 884.375C690.521 862.886 733.047 813.478 760.034 756.551C764.232 747.895 767.965 738.993 771.698 730.091C798.602 663.252 813.37 589.827 838.879 522.249C864.014 456.647 902.86 393.823 960.709 363.43C972.823 357.089 985.26 353.095 998.453 350.954C1066.45 339.877 1144.25 385.513 1214.39 380.217C1483.18 360.037 1718.41 485.004 1816.14 694.016" stroke="white" stroke-width="0.2" stroke-miterlimit="10"/>
<path d="M-72.7186 875.355C-67.426 909.506 -34.6294 932.134 -6.91536 934.796C23.8647 937.924 51.4137 925.262 70.6567 900.648C89.1576 876.8 99.1426 844.805 111.107 812.265C115.897 799.135 121.227 785.856 127.359 773.294C135.882 755.76 146.549 739.509 160.147 727.135C181.864 707.461 208.079 700.041 233.664 699.542C242.57 699.334 251.558 700.04 260.343 701.365C288.687 706.102 315.891 718.652 342.271 740.05C348.531 745.258 354.663 750.689 360.54 756.565C389.873 785.77 416.808 823.135 450.564 851.495C491.434 885.952 538.609 901.988 585.386 898.079C601.518 896.627 617.148 892.877 631.938 886.359C684.015 863.931 725.2 813.957 751.827 757.128C755.845 748.522 759.758 739.571 763.311 730.718C789.908 664.151 804.42 591.172 830.32 524.235C855.74 458.931 895.028 396.922 953.319 367.343C965.486 361.175 978.027 357.527 991.146 355.782C1059.03 346.238 1136.34 393.505 1205.83 386.703C1479.56 360.288 1721.58 494.812 1819.86 704.986" stroke="white" stroke-width="0.2" stroke-miterlimit="10"/>
<path d="M-71.587 879.728C-66.3469 913.707 -32.9356 935.789 -4.99672 937.265C25.5434 938.96 52.0279 924.718 70.0565 899.313C87.5754 874.799 96.5559 842.707 107.928 810.143C112.538 797.063 117.635 783.661 123.587 771.147C132.111 753.614 142.598 737.413 156.481 725.335C178.356 706.18 205.065 699.747 230.837 700.509C239.9 700.82 248.814 701.922 257.345 703.691C285.568 709.962 311.828 723.896 337.466 746.062C343.545 751.319 349.55 756.973 355.247 762.898C383.966 792.648 410.668 829.89 444.267 857.731C485.392 891.743 533.046 906.147 579.763 900.755C595.79 898.957 611.263 894.688 625.768 887.874C676.886 864.211 717.066 814.139 743.153 757.46C747.171 748.854 750.904 739.951 754.277 731.149C780.335 664.731 795.005 592.27 821.062 525.853C846.639 461.066 886.677 399.601 945.103 371.11C957.322 365.114 969.968 361.812 982.96 360.29C1050.72 352.278 1127.5 401.004 1196.45 393.041C1475.05 360.219 1723.93 504.474 1822.57 715.857" stroke="white" stroke-width="0.2" stroke-miterlimit="10"/>
<path d="M-70.4554 884.101C-65.0354 918.031 -31.0094 939.569 -3.20547 939.957C26.9149 940.268 52.6947 924.346 69.3815 898.375C85.8659 873.022 93.8418 840.832 104.442 808.293C108.872 795.263 113.789 781.91 119.689 769.224C128.032 751.74 138.752 735.662 152.688 723.758C174.899 705.071 201.924 699.677 227.883 701.698C236.872 702.405 245.71 703.902 254.45 706.364C282.322 714.043 307.87 729.486 332.713 752.246C338.665 757.726 344.489 763.429 350.007 769.404C378.111 799.699 404.401 836.867 438.202 864.09C479.529 897.484 527.716 910.429 574.373 903.554C590.243 901.237 605.61 896.622 619.831 889.512C670.221 864.738 709.112 814.272 734.659 757.741C738.677 749.135 742.231 740.283 745.604 731.48C771.174 665.384 786.001 593.442 812.395 527.494C838.31 463.177 878.738 402.353 937.606 374.677C949.878 368.855 962.577 365.726 975.673 364.549C1043.31 358.07 1119.62 408.428 1187.91 398.958C1471.34 359.556 1727.35 513.837 1826.31 726.259" stroke="white" stroke-width="0.2" stroke-miterlimit="10"/>
<path d="M-69.3245 888.475C-63.957 922.231 -29.2638 943.398 -1.28746 942.427C28.6455 941.478 53.3084 923.802 69.0131 897.165C84.3355 871.195 91.2545 838.734 101.494 806.295C105.512 793.191 110.43 779.838 116.202 767.375C124.366 749.94 135.138 734.035 149.178 722.477C171.547 704.309 199.194 699.68 225.214 703.185C234.127 704.287 243.122 706.303 251.608 709.21C279.18 718.472 304.143 735.2 328.244 758.727C334.016 764.257 339.533 770.232 345.103 776.38C372.412 807.269 398.47 844.313 432.293 870.968C473.823 903.744 522.722 915.18 568.96 906.922C584.672 904.086 599.934 899.125 614.05 891.669C663.661 865.611 701.367 815.097 726.375 758.715C730.213 750.159 733.766 741.306 737.139 732.503C762.349 666.506 777.154 595.134 803.759 529.877C829.958 465.856 870.828 405.847 930.139 378.987C942.463 373.337 955.087 370.604 968.235 369.6C1035.81 364.827 1111.4 416.693 1179.27 405.839C1467.53 359.857 1730.45 524.042 1829.78 737.674" stroke="white" stroke-width="0.2" stroke-miterlimit="10"/>
<path d="M-68.1901 892.849C-62.8226 926.605 -27.5147 947.227 0.686504 945.069C30.3795 942.687 53.978 923.431 68.5208 896.177C82.8087 869.368 88.7756 836.982 98.2434 804.569C102.081 791.514 106.587 778.088 112.539 765.575C120.702 748.14 131.294 732.285 145.62 721.023C168.274 703.151 196.288 699.733 222.495 704.498C231.566 706.119 240.486 708.531 248.897 711.833C276.116 722.504 300.42 740.914 323.673 764.862C329.318 770.615 334.656 776.639 339.866 782.887C366.56 814.32 392.385 851.241 426.051 877.377C467.836 909.707 517.215 919.512 563.445 909.943C579.052 906.762 594.105 901.109 607.935 893.357C656.819 866.187 693.236 815.279 717.704 759.046C721.542 750.49 724.915 741.687 728.289 732.884C753.011 667.209 767.921 596.182 794.683 531.444C821.22 467.893 862.659 408.477 922.105 382.704C934.534 377.4 947.21 374.84 960.284 374.231C1027.74 370.99 1102.8 424.316 1170.07 412.128C1463.05 359.219 1733.16 533.604 1832.85 748.447" stroke="white" stroke-width="0.2" stroke-miterlimit="10"/>
<path d="M-67.0593 897.222C-61.5644 930.756 -25.5893 951.006 2.60442 947.538C32.11 943.896 54.5915 922.886 67.9723 895.015C81.0983 867.59 86.1882 834.884 95.1162 802.619C98.7219 789.441 103.1 776.238 108.872 763.774C116.855 746.39 127.68 730.658 142.058 719.568C164.869 702.216 193.378 699.786 219.773 705.811C228.768 707.827 237.666 710.808 246.002 714.506C272.922 726.759 296.46 746.505 318.972 771.22C324.257 777.071 329.647 783.269 334.677 789.566C360.629 821.766 386.222 858.564 420.038 883.909C462.025 915.621 511.936 923.967 558.106 912.915C573.556 909.215 588.504 903.216 602.23 895.118C650.333 866.664 685.746 815.658 709.674 759.574C713.332 751.068 716.706 742.265 720.079 733.462C744.262 667.936 759.329 597.428 786.481 533.332C813.355 470.25 855.184 411.476 915.072 386.518C927.554 381.387 940.283 379 953.461 378.738C1020.79 377.029 1095.32 431.813 1162.05 418.464C1459.52 358.507 1736.87 543.263 1837.11 759.267" stroke="white" stroke-width="0.2" stroke-miterlimit="10"/>
<path d="M-65.9292 901.596C-60.4867 934.956 -23.792 955.008 4.34175 950.058C33.4276 945.032 55.2043 922.342 67.4233 893.854C79.5672 865.763 83.6526 832.96 91.756 800.547C95.1818 787.419 99.3272 774.092 104.919 761.678C112.851 744.12 123.548 728.611 138.083 718.04C161.232 701.157 190.055 699.765 216.637 707.05C225.738 709.413 234.614 712.962 242.927 717.228C269.726 731.014 292.321 752.145 314.09 777.627C319.248 783.701 324.278 789.998 329.308 796.295C354.646 829.04 379.826 865.764 413.665 890.54C456.034 921.584 506.087 927.83 552.407 915.987C567.804 912.113 582.542 905.423 595.983 897.029C643.36 867.463 677.483 816.063 700.871 760.128C704.477 751.449 707.903 742.819 710.917 734.115C734.74 668.689 749.605 598.799 777.093 535.172C804.252 472.386 846.704 414.378 906.675 390.334C919.209 385.376 931.862 383.384 945.093 383.295C1012.31 383.119 1086.12 439.412 1152.61 424.629C1454.7 357.4 1739.16 552.752 1839.77 769.967" stroke="white" stroke-width="0.2" stroke-miterlimit="10"/>
<path d="M-64.7958 905.969C-59.3533 939.329 -21.864 958.788 6.31478 952.7C35.2132 946.413 55.873 921.97 66.93 892.866C77.8596 863.985 80.9404 831.084 88.684 798.771C91.6975 785.569 95.8429 772.242 101.488 760.001C109.239 742.493 119.988 727.157 134.756 716.709C158.242 700.295 187.381 699.941 214.15 708.486C223.228 711.417 232.029 715.362 240.267 720.024C266.715 735.219 288.776 757.809 309.571 783.934C314.601 790.231 319.452 796.578 324.354 803.097C349.077 836.386 374.025 872.987 407.939 897.368C450.511 927.794 501.486 933.223 547.176 919.304C562.364 914.739 577.049 907.876 590.385 899.136C636.982 868.286 669.921 816.838 692.77 761.052C696.195 752.422 699.621 743.792 702.635 735.088C725.97 669.984 740.94 600.439 768.639 537.505C796.135 475.188 838.924 417.649 899.442 394.766C912.029 389.981 924.735 388.163 937.891 388.469C1004.98 389.825 1078.27 447.577 1144.15 431.461C1450.63 356.836 1742.62 562.857 1843.59 781.282" stroke="white" stroke-width="0.2" stroke-miterlimit="10"/>
<path d="M-63.6637 910.343C-58.0938 943.481 -20.1472 961.875 8.23395 955.169C37.1548 948.315 56.4878 921.426 66.3829 891.705C76.3304 862.158 78.3543 828.986 85.3782 796.872C88.2118 783.72 92.1773 770.442 97.5896 758.078C105.341 740.57 116.09 725.234 130.963 715.132C154.607 699.237 184.42 699.821 211.144 709.504C220.327 712.78 229.053 717.12 237.269 722.351C263.416 739.128 284.713 763.053 304.946 789.897C309.796 796.243 314.519 802.812 319.062 809.431C342.99 843.314 367.886 879.742 401.642 903.604C444.416 933.412 495.924 937.382 541.554 921.981C556.764 916.847 571.164 909.687 584.163 900.478C630.033 868.516 661.683 816.675 683.991 761.038C687.417 752.408 690.663 743.827 693.677 735.124C716.653 670.118 731.6 601.143 759.456 538.727C787.29 476.879 830.648 419.933 891.249 397.964C903.888 393.353 916.699 391.88 929.728 392.408C996.648 395.124 1070.01 456.979 1134.79 437.231C1442.6 343.869 1745.56 572.542 1847.03 791.956" stroke="white" stroke-width="0.2" stroke-miterlimit="10"/>
<path d="M-62.2989 914.839C-56.7815 947.804 -17.9578 966.519 10.2059 957.812C38.7295 949.005 57.1554 921.054 66.0684 890.667C74.8015 860.33 76.0533 827.185 82.4325 794.873C85.0862 781.77 88.8193 768.37 94.1042 756.228C101.675 738.77 112.478 723.606 127.635 713.801C151.616 698.375 181.691 699.824 208.656 710.94C217.816 714.785 226.647 719.471 234.608 725.147C260.583 743.283 280.988 768.767 300.426 796.204C305.149 802.773 309.512 809.442 314.055 816.061C337.189 850.538 361.852 886.843 395.81 910.086C438.839 939.449 491.007 941.737 536.397 924.903C551.502 919.423 565.745 911.745 578.459 902.239C623.549 868.993 654.014 817.103 675.783 761.615C679.029 753.035 682.275 744.455 685.341 735.924C707.83 671.24 722.882 602.611 751.128 540.837C779.247 479.286 823.048 423.154 884.143 402.174C896.834 397.735 909.75 396.608 922.884 397.483C989.736 401.904 1062.25 464.18 1126.69 443.962C1439.01 346.172 1748.67 582.178 1850.51 802.802" stroke="white" stroke-width="0.2" stroke-miterlimit="10"/>
<path d="M-61.1696 919.213C-55.6521 952.178 -15.9814 970.472 12.1749 960.454C40.511 950.387 57.82 920.683 65.571 889.68C73.3221 858.676 73.337 825.309 79.1765 793.147C81.5978 779.921 85.2035 766.743 90.4359 754.428C97.8272 737.019 108.629 721.856 123.892 712.397C147.978 697.317 178.6 699.926 205.752 712.303C215.017 716.494 223.646 721.798 231.764 727.992C257.439 747.711 277.08 774.53 295.776 802.735C300.139 809.403 304.554 816.245 308.97 823.086C331.489 858.108 355.74 894.339 389.721 917.014C432.952 945.759 485.652 946.588 530.802 928.32C545.75 922.322 559.888 914.297 572.497 904.446C616.86 870.089 646.035 817.805 667.265 762.466C670.511 753.885 673.577 745.355 676.643 736.824C698.592 672.289 713.854 604.351 742.205 542.924C770.481 481.891 815.031 426.303 876.389 406.187C889.133 401.921 901.921 401.017 915.16 402.237C981.893 408.191 1053.17 470.246 1117.77 450.547C1436.78 352.972 1751.66 592.037 1853.87 813.871" stroke="white" stroke-width="0.2" stroke-miterlimit="10"/>
<path d="M-60.0363 923.586C-54.3389 956.502 -14.001 974.424 14.0952 962.924C42.1915 951.423 58.4359 920.138 65.0251 888.518C71.6143 856.899 70.8045 823.384 76.0518 791.198C81.2991 759.011 94.2677 726.568 120.332 710.943C153.016 691.429 197.522 704.452 229.052 730.615C260.582 756.778 282.006 793.977 303.911 829.543C325.815 865.109 349.654 901.266 383.837 923.323C441.612 960.801 516.598 947.047 566.741 906.034C617.063 864.972 646.561 801.541 668.151 737.106C689.792 672.843 704.98 605.301 733.54 544.565C762.101 483.829 807.094 429.055 868.714 409.805C946.061 385.84 1031.89 481.739 1108.87 456.564C1432.03 351.469 1754.78 601.672 1857.36 824.718" stroke="white" stroke-width="0.2" stroke-miterlimit="10"/>
<path d="M-60.5316 922.598C-54.9841 951.806 -16.0555 966.369 12.4455 953.632C40.047 941.143 56.7562 910.105 64.275 878.979C69.6347 857.444 71.5162 835.371 74.3273 813.79C75.4817 804.1 76.9209 794.706 78.9524 785.336C85.1368 754.953 98.3752 724.685 124.372 710.765C147.161 698.479 175.393 701.561 201.307 713.716C212.252 718.944 222.845 725.58 232.26 733.478C263.895 759.987 286.399 796.888 309.045 831.687C327.667 860.287 347.652 888.885 373.282 909.741C379.024 914.53 385.021 918.873 391.453 922.721C449.835 958.344 524.506 943.552 574.566 901.625C585.429 892.443 595.384 882.199 604.537 871.239C637.003 831.73 658.263 781.631 674.627 730.82C695.519 666.014 710.137 597.88 737.948 536.601C765.789 476.063 809.777 421.192 870.753 401.744C877.357 399.735 883.991 398.467 890.655 397.94C957.223 393.068 1028.86 459.522 1094.28 452.156C1099.17 451.557 1103.95 450.612 1108.63 449.322C1178.68 428.307 1248.47 424.42 1316.61 432.424C1430.31 446.036 1538.74 492.402 1628.76 554.534C1729.27 624.267 1807.45 714.219 1849.8 799.812" stroke="white" stroke-width="0.2" stroke-miterlimit="10"/>
<path d="M-61.0269 921.609C-55.5769 947.283 -18.0577 958.486 10.5633 944.217C37.6701 930.74 54.8441 899.948 63.5247 869.439C69.5292 848.102 72.3927 826.694 76.3432 806.298C78.0673 797.201 79.7915 788.103 82.0328 779.425C89.1542 750.845 102.715 722.925 128.54 710.364C151.156 699.438 179.058 703.361 204.665 715.788C215.662 721.189 226.127 728.048 235.595 736.119C267.515 762.924 290.686 799.453 314.127 833.658C333.543 861.664 354.451 889.446 380.59 909.411C386.46 913.977 392.585 918.098 399.144 921.723C458.313 955.443 532.669 939.613 582.414 896.648C593.224 887.293 603.127 876.876 612.047 865.793C644.124 825.642 664.866 775.122 680.893 723.842C701.216 658.444 714.724 589.866 742.325 527.895C769.267 467.606 812.558 412.365 872.941 392.893C879.493 390.711 886.127 389.442 892.791 388.916C958.841 383.625 1030.03 449.263 1094.62 443.628C1099.38 443.252 1103.98 442.357 1108.66 441.066C1177.49 422.45 1246.08 420.394 1313.29 429.214C1425.87 444.261 1534.47 487.958 1623.82 545.963C1723.4 610.704 1800.34 694.627 1842.57 774.066" stroke="white" stroke-width="0.2" stroke-miterlimit="10"/>
<path d="M-61.2873 920.745C-55.9348 942.885 -19.8248 950.728 9.096 934.876C35.708 920.411 53.3467 889.866 63.0094 860.023C69.7111 839.055 73.7365 818.264 78.4142 798.98C80.4756 790.352 82.5896 781.897 85.1683 773.688C93.2267 746.911 107.057 721.165 132.815 710.31C155.311 700.917 182.83 705.507 208.183 718.38C219.053 724.003 229.57 731.035 239.038 739.106C271.063 766.257 294.901 802.414 319.497 835.926C339.527 863.388 361.357 890.353 388.006 909.428C394.003 913.771 400.255 917.669 406.762 921.122C466.486 952.813 540.527 935.946 590.063 892.29C600.82 882.762 610.67 872.172 619.538 860.916C651.225 820.122 671.682 769.307 687.012 717.657C706.765 651.666 719.523 582.545 746.375 520.031C772.365 459.817 814.884 404.602 874.622 384.933C881.174 382.75 887.628 381.532 894.24 380.832C959.773 375.122 1030.47 439.772 1094.21 435.868C1098.79 435.541 1103.45 434.819 1108.18 433.702C1175.92 417.262 1242.95 417.135 1309.47 426.896C1421.16 443.5 1529.69 484.405 1618.19 538.333C1716.95 598.428 1792.54 675.975 1834.84 749.21" stroke="white" stroke-width="0.2" stroke-miterlimit="10"/>
<path d="M-61.7834 919.757C-56.5284 938.362 -21.8803 942.673 7.39287 925.412C33.5101 909.959 51.6661 879.833 62.2058 850.31C69.6047 829.713 74.6121 809.588 80.1968 791.366C82.5956 783.207 85.2268 775.171 88.0154 767.654C97.011 742.68 111.291 719.06 136.981 709.91C159.305 701.876 186.442 707.134 211.36 720.502C222.102 726.347 232.672 733.552 242.14 741.624C274.502 769.244 299.188 804.98 324.525 837.725C345.403 864.765 367.922 890.79 395.261 908.925C401.386 913.046 407.765 916.721 414.4 919.951C474.73 949.789 548.637 931.834 597.91 887.313C608.615 877.612 618.233 866.898 627.228 855.42C658.758 814.107 678.645 762.699 693.458 710.63C712.461 644.096 724.47 574.432 750.751 511.326C775.841 451.36 817.536 395.997 876.577 375.959C882.949 373.826 889.531 372.385 896.015 371.908C960.978 365.604 1031.47 429.563 1094.37 427.39C1099 427.237 1103.53 426.737 1108.08 425.669C1174.59 411.628 1240.43 413.332 1306.21 423.86C1416.77 441.899 1525.34 480.356 1613.3 529.935C1711.18 585.212 1785.47 656.556 1827.84 723.588" stroke="white" stroke-width="0.2" stroke-miterlimit="10"/>
<path d="M-62.2257 918.942C-57.0682 934.013 -23.8294 934.963 5.74364 916.12C31.3661 899.679 49.9869 869.8 61.5087 840.943C69.6046 820.716 75.5941 801.258 82.0334 783.924C84.9495 776.184 87.7905 768.84 90.9165 761.793C100.849 738.622 115.399 717.176 140.969 709.559C163.121 702.885 189.928 708.984 214.591 722.797C225.386 728.815 235.776 736.07 245.296 744.314C277.763 772.28 303.296 807.595 329.608 839.696C351.28 866.142 374.721 891.351 402.39 908.645C408.642 912.543 415.149 915.996 421.731 919.053C482.849 946.986 556.26 928.044 605.219 882.485C615.871 872.611 625.436 861.724 634.2 850.122C665.339 808.168 684.762 756.513 699.237 703.974C717.723 637.021 728.75 566.691 754.642 502.943C778.832 443.225 819.702 387.715 878.099 367.479C884.471 365.346 890.873 363.955 897.484 363.255C962.11 356.483 1031.92 419.503 1093.99 419.061C1098.49 419.13 1103.02 418.631 1107.44 417.785C1172.92 406.093 1237.37 409.677 1302.23 421.022C1411.61 440.323 1520.45 476.457 1607.52 521.785C1704.52 572.243 1777.51 637.386 1819.77 698.263" stroke="white" stroke-width="0.2" stroke-miterlimit="10"/>
<path d="M-62.72 917.954C-57.5324 929.268 -25.7779 927.254 3.91503 906.878C29.0952 889.622 48.3082 859.768 60.5796 831.453C69.3203 811.423 76.3443 792.804 83.6906 776.532C86.944 769.262 90.1749 762.56 93.6382 755.981C104.508 734.614 119.38 715.516 144.831 709.431C166.81 704.117 193.287 711.056 217.695 725.314C228.362 731.555 238.805 738.983 248.325 747.227C281.077 775.49 307.277 810.433 334.384 841.94C356.85 867.792 381.034 892.233 409.445 908.761C415.824 912.436 422.459 915.666 429.22 918.674C490.945 944.753 564.17 924.549 612.918 878.299C623.518 868.252 633.031 857.193 641.741 845.418C672.724 802.944 691.577 750.697 705.535 697.739C723.271 630.243 733.728 559.32 758.923 495.202C782.341 435.51 822.207 379.902 880.011 359.642C886.33 357.336 892.732 355.945 899.164 355.295C963.273 348.103 1032.77 410.085 1093.87 411.597C1098.37 411.666 1102.77 411.389 1107.07 410.766C1171.32 401.473 1234.34 406.764 1298.51 419.049C1406.82 439.958 1515.6 473.299 1602.17 514.451C1698.12 560.14 1769.94 618.857 1812.32 673.703" stroke="white" stroke-width="0.2" stroke-miterlimit="10"/>
<path d="M-63.0339 916.916C-57.9438 924.696 -27.5986 919.322 2.39419 897.364C27.1321 879.293 46.7574 849.512 60.0108 821.864C69.4486 802.204 77.6345 784.201 85.888 768.991C89.4787 762.19 93.2268 755.908 96.9 750.021C108.759 730.63 123.849 713.533 149.179 708.981C171.039 705.199 196.954 712.856 221.234 727.337C231.954 733.751 242.269 741.401 251.79 749.645C284.646 778.254 311.746 812.949 339.775 843.639C363.088 869.07 387.961 892.571 417.062 908.158C423.569 911.611 430.151 914.669 437.22 917.404C499.552 941.628 572.461 920.387 620.948 873.272C631.495 863.052 640.955 851.82 649.434 839.922C680.026 796.806 698.594 744.263 711.983 690.712C729.149 622.623 738.676 551.207 763.302 486.496C785.82 427.052 825.041 371.247 882.021 350.84C888.16 348.584 894.562 347.193 900.942 346.37C964.533 338.758 1033.54 399.753 1093.79 402.996C1098.17 403.287 1102.39 403.06 1106.74 402.61C1169.77 395.716 1231.59 402.837 1294.89 416.111C1402.26 438.406 1510.89 469.349 1596.75 506.201C1691.81 547.072 1762.34 599.587 1804.6 648.279" stroke="white" stroke-width="0.2" stroke-miterlimit="10"/>
<path d="M-63.4759 916.101C-58.4833 920.346 -29.495 911.786 0.7452 888.073C25.0408 869.187 45.0784 839.479 59.3138 812.497C69.4488 793.207 78.6168 775.87 87.7773 761.722C91.9377 755.514 95.8433 749.75 99.8538 744.333C112.47 726.794 128.01 711.823 153.273 708.977C174.96 706.554 200.492 714.879 224.57 729.978C235.163 736.614 245.53 744.437 255.103 752.854C288.245 781.759 316.011 816.083 345.015 846.129C368.943 871.016 394.918 893.651 424.349 908.397C430.983 911.628 437.745 914.635 444.709 917.025C507.648 939.395 580.423 917.066 628.594 868.913C639.089 858.52 648.497 847.115 656.923 835.044C687.305 791.237 705.176 738.323 718.1 684.526C734.696 615.845 743.474 543.886 767.35 478.632C788.969 419.436 827.365 363.484 883.88 342.83C890.02 340.574 896.369 339.01 902.748 338.187C965.823 330.156 1034.33 390.162 1093.8 395.309C1098 395.65 1102.32 395.769 1106.49 395.369C1168.43 390.651 1228.74 399.875 1291.48 413.866C1397.73 437.595 1506.34 465.919 1591.71 498.595C1685.72 534.696 1755.13 580.959 1797.46 623.447" stroke="white" stroke-width="0.2" stroke-miterlimit="10"/>
<path d="M-63.9714 915.113C-59.0763 915.824 -31.4973 903.904 -0.957275 878.609C22.7161 858.957 43.3459 829.273 58.6909 802.735C69.7029 783.765 79.673 767.144 89.7405 754.058C94.2383 748.319 98.4812 743.024 102.882 738.249C116.435 722.514 132.245 709.717 157.44 708.576C178.954 707.513 204.157 716.679 227.981 732.223C238.446 739.082 248.813 746.905 258.438 755.495C291.685 784.746 320.351 818.821 350.276 848.051C375.052 872.517 401.717 894.212 431.837 908.018C438.599 911.026 445.488 913.811 452.579 915.978C516.126 936.493 588.533 912.954 636.495 864.109C646.937 853.543 656.165 842.188 664.666 829.721C694.711 785.445 712.245 732.062 724.598 677.672C740.498 608.621 748.526 536.119 771.959 470.05C792.859 411.053 830.25 355.003 886.068 333.98C892.208 331.723 898.377 330.208 904.704 329.213C967.389 320.539 1035.46 379.731 1093.9 386.658C1098.16 387.172 1102.3 387.341 1106.34 387.163C1167.05 384.844 1226.17 395.898 1287.99 410.707C1393.11 435.871 1501.94 461.698 1586.46 490.296C1679.41 521.628 1747.71 561.64 1790.11 597.924" stroke="white" stroke-width="0.2" stroke-miterlimit="10"/>
<path d="M-64.2334 914.248C-59.4358 911.425 -33.2136 896.318 -2.55369 869.49C20.6774 849.023 41.9519 819.537 58.0465 793.542C69.7032 774.769 80.6553 758.814 91.6824 746.962C96.5175 741.692 101.33 736.991 105.708 732.784C120.198 718.852 136.278 708.23 161.353 708.621C182.515 708.968 207.568 718.924 230.904 734.79C241.422 741.822 251.662 749.868 261.287 758.458C294.819 788.005 324.152 821.709 354.872 850.345C380.442 874.216 407.849 895.144 438.479 908.06C445.421 911.018 452.385 913.407 459.476 915.574C523.63 934.236 595.902 909.609 643.601 859.899C653.811 849.21 663.167 837.632 671.435 825.042C701.27 780.074 718.107 726.321 730.123 671.462C745.453 601.819 752.732 528.774 775.416 462.162C795.416 403.413 831.93 347.043 887.156 325.995C893.295 323.739 899.412 322.051 905.611 321.278C967.779 312.185 1035.35 370.388 1093.01 379.22C1097.08 379.784 1101.28 380.125 1105.37 380.12C1164.87 380.2 1222.55 392.962 1283.68 408.71C1387.72 435.481 1496.49 458.516 1580.52 482.938C1672.6 509.451 1739.42 543.31 1781.88 573.39" stroke="white" stroke-width="0.2" stroke-miterlimit="10"/>
<path d="M-64.7292 913.26C-60.0815 906.73 -35.1637 888.609 -4.25639 860.026C18.7123 838.694 40.2192 809.331 57.2958 784.002C69.6497 765.599 81.5838 750.31 93.4655 739.347C98.6379 734.547 103.84 730.487 108.556 726.75C123.856 714.843 140.332 706.174 165.34 708.271C186.33 709.977 210.873 720.824 234.134 737.085C244.524 744.34 254.817 752.558 264.442 761.149C298.258 790.992 328.259 824.324 359.954 852.316C386.318 875.593 414.647 895.704 445.787 907.73C452.856 910.466 459.948 912.632 467.167 914.577C531.928 931.384 603.885 905.72 651.269 854.972C661.427 844.11 670.73 832.359 678.946 819.596C708.443 774.158 724.943 719.936 736.442 664.658C751.022 594.471 757.551 520.883 779.665 453.679C798.945 395.129 834.455 338.661 889.036 317.416C894.943 315.037 901.113 313.522 907.44 312.526C969.09 303.013 1036.17 360.229 1092.99 370.791C1097.11 371.528 1101.13 371.919 1105.1 372.137C1163.49 374.393 1219.85 389.208 1280.05 405.773C1382.98 433.979 1491.6 454.616 1575.09 474.689C1666.17 496.606 1731.81 524.04 1774.35 547.916" stroke="white" stroke-width="0.2" stroke-miterlimit="10"/>
<path d="M-65.2225 912.272C-60.4923 902.158 -37.1113 880.9 -5.95661 850.562C16.6223 828.588 38.489 799.125 56.4951 774.29C69.5462 756.256 82.4624 741.634 95.431 731.683C101.121 727.302 106.481 723.762 111.586 720.666C127.643 710.613 144.569 704.068 169.457 707.698C190.275 710.763 214.488 722.451 237.442 738.985C247.704 746.462 258.049 754.853 267.675 763.444C301.596 793.633 332.676 826.667 365.113 853.892C392.324 876.748 421.343 895.919 452.992 907.055C460.009 909.617 467.228 911.562 474.574 913.283C539.943 928.236 611.713 901.311 658.887 849.872C668.992 838.837 678.242 826.913 686.226 814.027C715.334 767.947 731.496 713.256 742.478 657.557C756.488 586.779 762.32 512.821 783.812 444.851C802.193 386.549 837.058 329.884 890.814 308.492C896.721 306.112 902.838 304.425 908.985 303.478C970.118 293.546 1036.88 349.724 1092.74 362.24C1096.73 363.2 1100.57 363.64 1104.59 364.031C1161.76 368.686 1216.74 385.38 1276.38 402.663C1378.18 432.304 1486.84 450.494 1569.8 466.217C1659.63 483.415 1724.34 504.548 1766.76 522.27" stroke="white" stroke-width="0.2" stroke-miterlimit="10"/>
<path d="M-65.4853 911.407C-60.8526 897.758 -38.6485 873.263 -7.60631 841.27C14.5303 818.481 36.9893 789.042 55.7975 764.922C69.7256 747.21 83.4439 733.303 97.3196 724.414C103.347 720.502 109.096 717.604 114.539 714.977C131.353 706.777 148.729 702.358 173.73 707.643C194.375 712.068 218.258 724.596 240.957 741.575C251.272 749.225 261.437 757.667 271.115 766.43C305.321 796.915 337.068 829.578 370.48 856.159C398.486 878.421 428.247 896.825 460.638 907.194C467.782 909.534 475.129 911.255 482.603 912.754C548.578 925.852 620.033 897.89 666.945 845.586C676.998 834.378 686.196 822.281 694.127 809.222C723.025 762.45 738.542 707.562 748.954 651.271C762.447 580.073 767.477 505.399 788.219 436.887C805.88 378.783 839.741 322.02 892.8 300.258C898.707 297.879 904.644 296.241 910.739 295.122C971.534 284.72 1037.57 339.786 1092.82 354.157C1096.63 355.166 1100.58 355.953 1104.41 356.393C1160.32 363.274 1214.15 381.972 1272.87 400.071C1373.59 431.32 1482.19 446.717 1564.47 458.313C1653.25 470.743 1716.84 485.623 1759.33 497.141" stroke="white" stroke-width="0.2" stroke-miterlimit="10"/>
<path d="M-65.9829 910.419C-61.4476 893.236 -40.5479 865.728 -9.3108 831.806C12.436 808.375 35.2548 778.837 55.045 755.383C69.6703 738.04 84.3706 724.8 99.1534 716.973C105.518 713.53 111.605 711.101 117.437 709.117C135.136 702.547 152.835 700.475 177.715 707.293C198.188 713.078 221.689 726.274 244.185 743.871C254.373 751.744 264.59 760.358 274.321 769.294C308.632 800.125 341.226 832.367 375.432 858.354C404.233 880.022 434.915 897.609 467.817 907.087C475.088 909.205 482.615 910.877 490.216 912.153C556.799 923.397 627.939 894.397 674.716 841.005C684.716 829.624 693.682 817.404 701.74 804.122C730.301 756.881 745.428 701.351 755.376 644.814C768.119 573.072 772.4 497.856 792.572 428.751C809.513 370.846 842.317 313.812 894.964 291.977C900.691 289.647 906.756 287.786 912.85 286.667C973.076 275.673 1038.67 329.924 1093.13 346.199C1097 347.381 1100.76 348.217 1104.47 348.88C1159.33 358.11 1211.6 378.738 1269.58 397.604C1369.18 430.288 1477.63 443.288 1559.56 450.485C1647.34 458.318 1709.71 466.6 1752.31 472.088" stroke="white" stroke-width="0.2" stroke-miterlimit="10"/>
<path d="M-66.4749 909.431C-62.0372 888.714 -42.4943 858.018 -10.9573 822.514C10.3472 798.268 33.8106 768.927 54.478 745.794C69.8004 728.821 85.4827 716.247 101.173 709.481C107.874 706.508 114.509 705.239 120.521 703.206C138.324 696.982 157.073 698.369 181.938 707.065C202.186 714.037 225.23 728.296 247.599 746.116C257.659 754.211 267.929 762.998 277.659 771.934C312.255 803.062 345.569 835.105 380.697 860.275C410.345 881.522 441.717 898.169 475.129 906.757C482.528 908.652 490.181 910.101 497.73 911.205C564.74 920.644 635.873 890.334 682.26 836.3C692.208 824.746 701.121 812.353 708.947 798.948C737.298 751.015 751.96 695.238 761.338 638.108C773.512 565.774 777.095 490.188 796.465 420.367C812.507 362.71 844.486 305.529 896.488 283.497C902.163 280.994 908.1 279.356 914.142 278.064C973.851 266.65 1039.13 319.863 1092.57 337.919C1096.26 339.151 1100.07 340.16 1103.66 341.045C1157.24 352.502 1208.37 375.132 1265.42 394.815C1364.08 428.884 1472.39 439.487 1553.6 442.384C1640.31 445.448 1701.57 447.479 1744.06 446.812" stroke="white" stroke-width="0.2" stroke-miterlimit="10"/>
<path d="M-66.9177 908.616C-62.6299 884.191 -44.159 850.605 -12.607 813.223C8.30767 788.334 32.1309 758.895 53.7803 736.427C69.7474 719.651 86.4118 707.744 103.061 702.213C110.333 699.832 116.914 698.391 123.474 697.518C142.687 694.653 161.233 696.659 186.031 707.061C205.926 715.441 228.82 730.492 250.934 748.757C261.047 757.025 270.957 765.911 280.92 774.971C315.621 806.444 349.961 838.017 385.832 862.42C416.094 883.122 448.441 899.126 482.49 906.601C490.016 908.273 497.797 909.5 505.473 910.381C573.143 918.138 643.908 886.617 690.161 831.496C700.056 819.769 708.916 807.203 716.743 793.798C744.756 745.396 758.849 689.027 767.889 631.428C779.314 558.551 782.327 482.372 801.127 411.958C816.45 354.5 847.424 297.222 898.782 274.992C904.456 272.489 910.341 270.678 916.203 269.436C975.394 257.603 1040.18 309.828 1092.83 329.787C1096.57 331.192 1100.21 332.251 1103.84 333.309C1156.21 347.164 1205.95 371.675 1262.32 392.298C1359.91 427.975 1468.02 436.007 1548.87 434.505C1634.4 433.023 1694.66 428.579 1737.23 421.708" stroke="white" stroke-width="0.2" stroke-miterlimit="10"/>
<path d="M-67.2343 907.578C-63.044 879.619 -45.7501 842.796 -14.3105 803.758C6.39428 778.178 30.3975 748.688 53.0288 726.887C69.8731 710.432 87.3395 699.24 105.023 694.548C112.632 692.636 119.604 691.837 126.5 691.434C146.418 690.249 165.466 694.553 190.144 706.487C209.867 716.227 232.431 732.119 254.111 750.878C264.096 759.369 274.059 768.428 284.201 777.438C319.187 809.208 354.195 840.409 391.04 864.168C422.097 884.277 455.186 899.513 489.744 906.097C497.398 907.547 505.127 908.601 512.931 909.259C581.207 915.162 651.785 882.381 697.648 826.618C707.49 814.718 716.299 801.979 723.892 788.451C751.696 739.357 765.324 682.741 773.847 624.722C784.702 551.253 787.018 474.704 805.016 403.574C819.619 346.315 849.769 288.889 900.302 266.512C905.796 264.059 911.681 262.248 917.723 260.956C976.577 248.653 1040.63 299.767 1092.5 321.631C1096.06 323.085 1099.57 324.366 1103.26 325.598C1154.53 341.629 1202.89 368.02 1258.57 389.583C1355.03 426.695 1463.18 432.28 1543.31 426.478C1627.84 420.4 1686.93 409.531 1729.56 396.457" stroke="white" stroke-width="0.2" stroke-miterlimit="10"/>
<path d="M-67.6734 906.763C-63.5805 875.27 -47.591 835.433 -15.9566 794.467C4.35841 768.244 28.9538 738.779 52.2823 717.348C69.8237 701.262 88.2722 690.736 106.863 687.107C114.809 685.664 122.298 685.285 129.405 685.573C150.027 686.068 169.705 692.447 194.188 706.31C213.919 717.36 235.793 734.191 257.345 753.173C267.203 761.887 277.218 771.119 287.361 780.129C322.451 812.245 358.359 843.198 395.945 866.19C427.85 885.877 461.809 900.124 496.876 905.818C504.658 907.045 512.514 907.876 520.445 908.312C589.329 912.36 659.592 878.542 705.372 821.864C715.162 809.791 723.918 796.879 731.459 783.178C758.873 733.442 771.984 676.406 780.17 617.918C790.507 544.029 792.021 466.765 809.27 395.092C823.153 338.031 852.246 280.335 902.134 257.761C907.629 255.307 913.461 253.323 919.323 252.081C977.659 239.359 1041.4 289.435 1092.3 313.253C1095.73 314.929 1099.3 316.384 1102.75 317.492C1152.8 335.922 1199.78 364.193 1254.72 386.523C1350.11 425.243 1458.12 428.43 1537.88 418.23C1621.23 407.605 1679.33 390.261 1721.85 371.033" stroke="white" stroke-width="0.2" stroke-miterlimit="10"/>
<path d="M-68.1699 905.775C-63.9946 870.698 -49.3094 827.848 -17.6076 785.176C2.44505 758.088 27.2728 728.746 51.5834 707.981C69.822 692.265 89.2524 682.406 108.75 679.838C117.034 678.864 124.86 678.954 132.356 679.885C153.916 682.183 173.864 690.737 198.227 706.132C217.732 718.369 239.33 736.214 260.627 755.641C270.537 764.528 280.425 773.983 290.567 782.992C325.943 815.404 362.517 845.986 401.079 868.334C433.778 887.427 468.479 900.907 504.236 905.661C512.145 906.665 520.128 907.274 528.239 907.66C597.731 909.854 667.859 874.948 713.144 817.283C722.882 805.037 731.405 792.002 739.074 778.078C766.33 727.823 778.924 670.368 786.412 611.51C796 537.078 796.997 459.393 813.676 387.129C826.659 330.316 854.928 272.472 904.171 249.701C909.613 247.075 915.266 245.14 921.128 243.898C978.894 230.584 1042.32 279.622 1092.25 305.393C1095.69 307.07 1099.12 308.747 1102.45 310.077C1151.4 330.684 1197.06 361.008 1251.07 384.154C1345.34 424.309 1453.2 425.099 1532.43 410.549C1614.59 395.378 1671.71 371.56 1714.29 346.128" stroke="white" stroke-width="0.2" stroke-miterlimit="10"/>
<path d="M-68.4846 904.737C-64.4068 866.125 -50.8461 820.212 -19.1292 775.661C0.533599 747.932 25.9536 718.614 51.0138 698.392C70.1294 682.996 90.4895 673.63 110.767 672.346C119.568 671.792 127.604 672.574 135.438 673.974C157.702 677.952 178.152 688.804 202.448 705.904C221.781 719.501 243.048 738.187 264.038 757.886C273.873 767.168 283.708 776.45 293.956 785.806C329.616 818.514 367.038 848.674 406.394 870.429C439.888 888.927 475.33 901.64 511.65 905.677C519.739 906.631 527.85 907.018 535.856 907.058C606.007 907.57 675.715 871.281 720.97 812.874C730.655 800.455 739.126 787.247 746.563 773.199C773.429 722.302 785.686 664.378 792.657 605.101C801.675 530.076 801.974 452.022 817.851 379.041C830.115 322.427 857.379 264.485 905.978 241.517C911.42 238.891 917.072 236.957 922.882 235.541C980.132 221.807 1043.06 269.858 1092.21 297.533C1095.52 299.432 1098.95 301.109 1102.15 302.662C1149.88 325.668 1194.16 357.872 1247.43 381.785C1340.62 423.548 1448.53 421.891 1527.16 402.819C1608.32 383.051 1664.26 352.809 1706.74 321.222" stroke="white" stroke-width="0.2" stroke-miterlimit="10"/>
<path d="M-68.9276 903.922C-64.9472 861.776 -52.5634 812.626 -20.959 766.42C-1.50613 737.998 24.0938 708.631 50.0835 688.902C69.8963 673.876 91.2384 665.176 112.423 664.954C121.561 664.87 129.935 666.12 138.158 668.162C161.307 673.771 182.207 686.748 206.487 705.727C225.648 720.683 246.353 740.086 267.32 760.354C277.028 769.859 286.916 779.314 297.164 788.669C332.929 821.723 371.198 851.463 411.348 872.623C445.689 890.701 481.822 902.473 518.831 905.57C527.047 906.302 535.106 906.515 543.419 906.283C613.997 904.991 683.75 867.564 728.743 808.293C738.376 795.701 746.794 782.32 754.178 768.099C780.655 716.56 792.447 658.389 799.028 598.469C807.296 522.902 807.026 444.255 822.153 370.732C833.698 314.316 859.957 256.277 908.091 233.062C913.353 230.486 918.953 228.378 924.763 226.963C981.675 212.76 1044.06 259.649 1092.24 289.278C1095.54 291.177 1098.85 293.077 1101.92 294.853C1148.38 320.084 1191.51 354.291 1244.04 378.972C1336.11 422.169 1443.92 418.288 1521.97 394.693C1602.17 370.503 1656.89 333.662 1699.44 295.871" stroke="white" stroke-width="0.2" stroke-miterlimit="10"/>
<path d="M-69.4221 902.934C-65.5917 857.081 -54.2799 805.04 -22.6605 756.956C-3.59742 727.892 22.5422 698.376 49.514 679.313C70.0239 664.657 92.348 656.624 114.62 657.414C124.095 657.798 132.986 659.469 141.419 662.203C165.505 669.615 186.675 684.766 210.835 705.277C229.771 721.42 250.199 741.837 270.911 762.55C280.672 772.228 290.432 781.905 300.68 791.261C336.73 824.611 375.718 854.152 416.791 874.496C451.926 891.979 489.033 903.108 526.32 905.191C534.664 905.7 542.85 905.691 551.111 905.286C622.348 902.312 691.734 863.675 736.412 803.366C745.813 790.651 754.358 777.047 761.51 762.703C787.829 710.645 799.051 651.882 805.168 591.715C812.919 515.728 811.899 436.539 826.224 362.299C837.101 306.255 862.484 247.895 909.74 224.361C915.003 221.784 920.603 219.677 926.18 218.138C982.575 203.515 1044.64 249.367 1092.04 280.9C1095.22 283.022 1098.34 284.971 1101.65 286.87C1147.01 314.278 1188.64 350.587 1240.42 376.035C1331.42 420.84 1439.27 414.512 1516.72 386.395C1595.79 357.831 1649.24 314.22 1692.08 270.348" stroke="white" stroke-width="0.2" stroke-miterlimit="10"/>
<path d="M-69.8641 902.119C-66.1312 852.732 -55.9439 797.627 -24.3095 747.664C-5.4563 717.909 20.9157 688.515 48.7646 669.773C70.1516 655.438 93.2253 647.947 116.457 649.972C126.449 650.776 135.55 653.138 144.32 656.341C169.291 665.383 190.963 682.833 214.876 705.1C233.64 722.602 253.738 743.86 274.143 764.845C283.776 774.745 293.588 784.596 303.836 793.951C339.991 827.647 379.827 856.767 421.874 876.467C457.804 893.356 495.653 903.718 533.629 904.861C542.1 905.148 550.414 904.916 558.854 904.461C630.699 899.633 699.898 859.736 744.366 798.734C753.714 785.846 762.207 772.07 769.306 757.553C795.236 704.853 806.173 645.793 811.72 585.034C818.721 508.505 817.132 428.722 830.887 353.89C841.044 298.044 865.37 239.414 912.034 215.855C917.297 213.279 922.664 211.048 928.474 209.633C984.352 194.59 1045.87 239.281 1092.48 272.718C1095.53 275.062 1098.71 277.184 1101.83 279.133C1145.97 308.94 1186.4 347.08 1237.26 373.345C1327.14 419.584 1434.9 411.032 1511.76 378.393C1589.82 345.233 1642.1 295.196 1684.83 245.171" stroke="white" stroke-width="0.2" stroke-miterlimit="10"/>
<path d="M-70.1771 901.081C-66.5416 848.16 -57.2989 789.942 -25.7769 738.323C-7.36604 707.753 19.4183 678.433 48.0692 660.407C70.1534 646.441 94.2092 639.617 118.295 642.53C128.625 643.804 138.063 646.635 147.223 650.48C172.898 661.202 195.02 680.777 218.866 704.749C237.457 723.611 257.045 745.759 277.196 767.19C286.701 777.312 296.514 787.163 306.814 796.692C343.254 830.684 383.936 859.382 426.778 878.488C463.503 894.783 502.094 904.378 540.76 904.581C549.359 904.645 557.799 904.191 566.368 903.514C638.82 896.831 707.704 855.896 751.909 794.03C761.205 780.969 769.466 767.069 776.692 752.33C802.464 699.111 812.652 639.508 817.681 578.329C824.113 501.207 822.006 421.005 834.78 345.507C844.217 289.86 867.538 231.132 913.558 207.376C918.588 204.676 924.008 202.618 929.765 201.03C985.073 185.395 1046.28 229.048 1091.97 264.612C1095.02 266.956 1098.07 269.301 1101.07 271.472C1144.12 303.455 1183.04 343.698 1233.16 370.729C1321.78 418.627 1429.76 407.578 1506.03 370.416C1583.14 332.833 1634.2 276.198 1676.99 219.969" stroke="white" stroke-width="0.2" stroke-miterlimit="10"/>
<path d="M-70.6744 900.093C-66.9564 843.587 -59.0181 782.356 -27.6611 728.908C-9.28014 697.596 17.7366 668.4 47.3171 650.867C70.0984 637.271 95.1362 631.113 120.129 635.088C130.796 636.831 140.752 640.082 150.122 644.619C176.734 657.144 199.306 678.844 222.904 704.571C241.503 724.743 260.581 747.781 280.424 769.484C289.802 779.83 299.667 789.853 309.967 799.382C346.512 833.72 388.042 861.997 431.678 880.509C469.25 896.383 508.711 904.989 547.707 904.351C556.433 904.192 565.053 903.688 573.517 902.665C646.629 894.301 715.325 852.105 759.216 789.201C768.459 775.968 776.667 761.895 783.661 747.032C809.044 693.171 818.946 633.272 823.459 571.674C829.32 493.959 826.516 413.387 838.488 337.173C847.206 281.724 869.522 222.899 914.898 198.946C919.928 196.246 925.295 194.016 930.872 192.477C985.843 176.373 1046.56 219.037 1091.23 256.382C1094.15 258.949 1097.2 261.294 1100.07 263.688C1141.89 298.069 1179.44 340.192 1229 367.941C1316.49 417.273 1424.56 403.951 1500.06 362.316C1576.22 320.309 1626.05 257.077 1668.74 194.694" stroke="white" stroke-width="0.2" stroke-miterlimit="10"/>
<path d="M-71.1166 899.278C-67.4961 839.238 -60.5023 774.894 -29.3102 719.617C-11.3191 687.663 16.1099 658.54 46.5675 641.327C70.2259 628.052 96.0133 622.437 121.966 627.647C133.15 629.809 143.315 633.752 153.023 638.758C180.52 652.914 203.414 676.961 226.945 704.394C245.371 725.925 264.119 749.804 283.707 771.952C293.138 782.471 302.876 792.717 313.228 802.418C350.058 837.053 392.255 864.958 436.866 882.827C475.232 898.107 515.435 905.945 555.121 904.367C563.794 904.036 572.542 903.309 581.313 902.013C655.032 891.795 723.361 848.389 767.042 784.793C776.232 771.386 784.388 757.14 791.33 742.105C816.502 687.552 825.708 627.283 829.883 565.216C835.048 487.131 831.674 405.967 843.023 328.987C851.021 273.737 872.513 214.764 917.064 190.664C922.094 187.964 927.281 185.783 932.986 184.022C987.439 167.498 1047.79 208.952 1091.54 248.423C1094.47 250.99 1097.39 253.557 1100.13 256.174C1141.04 292.682 1176.9 336.957 1225.76 365.646C1312.06 416.809 1420.35 400.99 1495.2 354.659C1570.41 308.23 1619.02 238.4 1661.77 169.813" stroke="white" stroke-width="0.2" stroke-miterlimit="10"/>
<path d="M-71.431 898.24C-67.9605 834.493 -62.0386 767.258 -30.8316 710.102C-13.0504 677.456 14.7385 648.235 45.9982 631.738C70.3538 618.832 97.3031 613.834 124.163 620.105C135.684 622.737 146.187 627.149 156.284 632.797C184.718 648.756 208.009 674.756 231.293 703.943C249.494 726.662 267.786 751.604 287.299 774.147C296.602 784.888 306.392 795.307 316.744 805.009C353.679 839.99 396.956 867.597 442.309 884.698C481.47 899.384 522.415 906.455 562.663 904.16C571.463 903.606 580.339 902.657 589.057 901.188C663.488 889.462 731.578 844.622 774.996 780.162C784.134 766.582 792.238 752.163 798.947 737.004C823.782 681.982 832.65 621.244 836.255 558.584C840.85 479.907 836.907 398.15 847.326 320.677C854.785 265.576 875.04 206.382 919.126 182.035C924.156 179.335 929.291 176.981 934.816 175.269C988.752 158.326 1048.78 198.742 1091.52 239.994C1094.32 242.784 1097.06 245.401 1099.86 248.191C1139.49 286.925 1174.2 333.203 1222.14 362.709C1307.5 415.256 1415.69 397.213 1490 346.533C1564.26 295.681 1611.65 219.253 1654.47 144.462" stroke="white" stroke-width="0.2" stroke-miterlimit="10"/>
<path d="M-71.9264 897.252C-68.5533 829.97 -63.576 759.622 -32.6613 700.861C-15.09 667.523 13.1111 638.375 45.3004 622.371C70.4056 610.009 98.2845 605.503 126.051 612.837C137.91 615.937 148.93 620.769 159.237 627.109C188.556 644.698 212.349 672.996 235.386 703.939C253.594 727.967 271.376 753.8 290.582 776.616C299.757 787.579 309.547 797.998 319.952 807.873C357.172 843.149 401.116 870.386 447.443 886.843C487.399 900.935 529.266 907.189 570.023 904.004C578.951 903.227 587.955 902.055 596.853 900.537C671.891 886.956 739.665 841.079 782.769 775.58C791.855 761.828 799.906 747.236 806.562 731.904C831.188 676.19 839.538 615.032 842.679 552.126C846.524 472.906 842.244 390.68 851.681 312.54C858.473 257.811 877.671 198.346 921.112 173.802C925.909 170.979 931.097 168.798 936.569 166.913C989.988 149.551 1049.83 188.707 1091.47 232.135C1094.27 234.924 1096.94 237.937 1099.56 240.776C1137.97 281.909 1171.3 330.068 1218.5 360.34C1302.73 414.323 1411.19 393.956 1484.55 338.853C1558.04 283.528 1604.03 200.552 1646.68 119.433" stroke="white" stroke-width="0.2" stroke-miterlimit="10"/>
<path d="M-72.3671 896.437C-69.0915 825.621 -65.1862 752.382 -34.309 691.569C-3.4318 630.757 62.3934 586.167 127.889 605.395C202.77 627.282 241.939 715.251 293.814 778.91C364.535 865.484 474.551 913.851 577.101 903.55C679.651 893.25 771.646 824.383 813.895 726.508C868.746 599.477 839.959 445.478 855.701 303.935C862.432 243.224 884.239 176.292 938.167 158.039C991.197 140.034 1050.42 178.424 1091.22 223.583C1132.08 268.915 1165.13 323.896 1214.83 357.231C1297.99 412.821 1406.54 390.179 1479.25 330.381C1551.79 270.633 1596.56 181.059 1639.28 93.7369" stroke="white" stroke-width="0.2" stroke-miterlimit="10"/>
</svg>
