<svg width="1440" height="893" viewBox="0 0 1440 893" fill="none" xmlns="http://www.w3.org/2000/svg">
<path d="M-99.73 546.183C-110.861 464.123 -41.2588 378.491 34.6351 381.049C88.7081 383.004 134.657 421.616 174.624 460.572C212.957 497.898 250.478 537.571 296.233 563.173C341.988 588.775 398.834 598.326 446.022 572.98C542.099 521.569 549.34 363.674 637.46 296.522C709.366 241.792 810.48 270.076 874.841 330.962C939.202 391.848 978.019 478.321 1024.53 556.684C1071.04 635.047 1132.36 711.102 1216.36 730.847C1293.86 749.128 1375.64 715.204 1444.51 668.778C1608.9 557.75 1724.49 542.529 1762.2 336.475" stroke="white" stroke-width="0.2" stroke-miterlimit="10"/>
<path d="M-99.7897 541.666C-104.751 505.696 -93.0811 469.05 -72.6816 440.559C-46.838 404.313 -7.14042 379.849 34.4129 382.312C72.6118 384.586 106.368 405.457 137.177 431.56C149.024 441.71 160.477 452.583 171.557 463.454C186.268 477.949 200.973 492.625 216.259 506.579C240.28 528.508 265.295 548.271 293.257 562.803C303.556 568.251 314.44 572.798 325.728 576.262C363.471 588.11 404.531 588.223 440.182 568.266C448.713 563.592 456.341 557.831 463.611 551.527C497.488 521.627 518.547 476.334 539.994 430.5C564.232 378.349 588.843 326.2 631.715 295.06C647.344 283.539 664.354 275.998 682.015 271.891C745.337 256.887 816.964 285.09 866.765 332.746C874.4 339.995 881.652 347.603 888.521 355.572C939.883 414.074 974.733 488.972 1015.74 557.382C1054.25 621.63 1103.26 684.1 1166.43 714.267C1179.69 720.627 1193.56 725.363 1207.83 728.655C1284.82 745.489 1364.97 709.393 1434.34 665.317C1603.69 557.193 1724.76 532.772 1762.69 325.454" stroke="white" stroke-width="0.2" stroke-miterlimit="10"/>
<path d="M-99.8456 536.968C-104.62 501 -92.0325 464.898 -71.4718 437.31C-45.4873 402.691 -6.20871 379.852 34.1943 383.396C71.6213 386.571 104.429 407.981 134.487 434.263C146.147 444.413 157.413 455.285 168.306 466.156C183.017 480.651 197.723 495.327 213.019 508.92C237.242 530.307 262.474 548.987 290.098 562.252C300.412 567.159 311.12 571.344 322.045 574.446C359.077 585.027 399.052 583.872 433.781 563.551C442.13 558.696 449.571 552.934 456.654 546.63C489.796 516.367 510.663 471.254 532.094 425.961C556.69 374.354 582.381 323.653 625.403 293.778C641.204 282.8 658.018 275.619 675.668 271.874C738.582 258.134 809.073 286.876 858.501 334.531C865.949 341.779 873.201 349.387 880.07 357.356C930.873 415.856 965.738 490.212 1006.76 557.9C1045.47 621.787 1094.88 683.355 1158.08 712.618C1171.34 718.798 1185.02 723.353 1199.51 726.103C1275.97 741.49 1354.88 703.222 1424.37 661.315C1599.04 556.277 1725.24 522.475 1763.39 313.893" stroke="white" stroke-width="0.2" stroke-miterlimit="10"/>
<path d="M-99.9069 532.451C-104.686 496.662 -91.1707 460.744 -70.2724 434.422C-43.9552 401.249 -5.46893 380.034 33.9755 384.479C70.6305 388.555 102.49 410.505 131.988 436.785C143.456 447.116 154.536 457.987 165.429 468.858C179.953 483.352 194.664 497.847 209.97 511.079C234.208 531.924 259.657 549.52 287.13 561.521C297.268 566.066 307.805 569.709 318.745 572.268C355.071 581.402 394.144 579.161 427.767 558.294C435.748 553.257 443.19 547.496 450.086 541.191C482.486 510.745 502.98 465.631 524.77 420.882C549.724 369.817 576.498 320.384 619.48 291.955C635.266 281.519 652.064 274.88 669.523 271.314C732.022 259.019 801.378 288.3 850.246 335.953C857.695 343.201 864.76 350.809 871.629 358.778C922.064 417.096 956.752 491.09 997.793 558.236C1036.7 621.582 1086.31 682.608 1149.54 710.607C1162.82 716.425 1176.51 720.799 1190.81 723.368C1266.76 737.309 1344.23 696.869 1414.03 657.311C1593.85 555.178 1725.52 512.177 1763.53 302.149" stroke="white" stroke-width="0.2" stroke-miterlimit="10"/>
<path d="M-99.9646 527.934C-104.744 492.146 -90.3105 456.772 -69.2509 431.353C-42.7878 399.626 -4.91223 380.217 33.5736 385.562C69.2701 390.539 100.373 412.849 129.119 439.307C140.401 449.637 151.289 460.689 162 471.378C176.338 485.872 191.049 500.367 206.552 513.238C230.987 533.722 256.476 549.873 283.793 560.789C293.946 564.792 304.306 568.073 314.884 570.27C350.69 577.957 388.487 574.628 421.188 553.398C428.982 548.36 436.242 542.418 442.765 536.112C474.429 505.302 494.549 460.187 516.505 416.161C541.822 365.46 569.484 317.655 612.804 290.491C628.574 280.597 645.362 274.319 662.806 271.296C724.896 260.264 793.304 290.084 841.426 337.736C848.688 344.983 855.753 352.591 862.622 360.56C912.496 418.877 947.019 492.148 988.448 558.753C1027.56 621.557 1077.56 681.861 1140.82 708.957C1154.1 714.595 1167.8 718.607 1181.92 720.995C1257.35 733.308 1333.57 691.058 1403.5 653.488C1589.02 554.262 1725.63 501.879 1763.86 290.767" stroke="white" stroke-width="0.2" stroke-miterlimit="10"/>
<path d="M-99.8366 523.417C-104.435 487.811 -89.2646 452.8 -67.8623 428.467C-41.0665 398.186 -3.80164 380.582 33.7256 386.828C68.6502 392.706 98.8045 415.555 126.991 442.012C137.899 452.341 148.787 463.392 159.307 474.262C173.645 488.756 188.361 503.071 203.869 515.761C228.319 535.703 254.026 550.77 281.192 560.421C291.168 564.062 301.543 566.801 311.944 568.637C347.045 574.876 383.752 570.46 415.535 548.685C423.148 543.466 430.221 537.523 436.563 531.036C467.49 499.863 487.232 454.928 509.36 411.445C535.035 361.286 563.776 314.93 607.247 289.031C623.001 279.679 639.779 273.763 657.026 271.1C718.516 261.512 785.976 291.872 833.537 339.522C840.799 346.769 847.678 354.376 854.365 362.164C903.68 420.479 938.217 493.208 979.662 559.271C1018.97 621.714 1069.19 681.116 1132.47 707.308C1145.75 712.765 1159.46 716.597 1173.59 718.624C1248.51 729.309 1323.48 685.068 1393.53 649.847C1584.37 553.707 1725.91 491.942 1764.17 279.566" stroke="white" stroke-width="0.2" stroke-miterlimit="10"/>
<path d="M-99.8958 518.9C-104.494 483.293 -88.4007 448.646 -66.6607 425.579C-39.724 396.925 -3.05973 380.764 33.5039 388.092C67.6565 394.871 96.8675 418.079 124.297 444.895C135.014 455.404 145.715 466.455 156.24 477.144C170.391 491.638 185.107 505.952 200.63 518.101C225.282 537.501 251.02 551.485 278.034 559.87C288.026 562.969 298.039 565.346 308.263 566.819C342.658 571.612 378.276 566.108 409.322 543.97C416.748 538.751 423.453 532.626 429.795 526.139C459.799 494.602 479.349 449.847 501.84 406.726C527.878 356.929 557.512 312.021 601.129 287.568C616.868 278.758 633.636 273.203 650.873 270.902C711.954 262.578 778.279 293.476 825.28 341.125C832.542 348.372 839.421 355.98 845.921 363.767C894.868 421.9 929.229 494.267 970.694 559.608C1010.2 621.509 1060.63 680.189 1124.13 705.298C1137.42 710.574 1150.94 714.044 1165.08 715.709C1239.48 724.948 1313.2 678.716 1383.38 645.483C1579.93 552.43 1726.4 481.283 1764.69 267.642" stroke="white" stroke-width="0.2" stroke-miterlimit="10"/>
<path d="M-99.9583 514.383C-104.561 478.957 -87.5453 444.674 -65.4574 422.511C-38.1881 395.303 -2.32119 380.947 33.2788 389.356C66.4728 397.036 94.7353 420.783 121.792 447.599C132.322 458.107 142.837 469.158 153.17 480.027C167.321 494.52 181.855 508.654 197.57 520.622C222.237 539.481 248.378 552.381 275.056 559.501C284.871 562.238 294.898 564.072 304.951 565.003C338.64 568.348 373.169 561.758 403.297 539.075C410.542 533.675 417.06 527.549 423.215 521.062C452.483 489.162 471.66 444.405 494.317 402.008C520.713 352.754 551.426 309.294 595.194 286.107C610.924 277.658 627.676 272.645 644.716 270.704C705.383 263.825 770.573 295.262 817.201 342.909C824.277 350.156 831.155 357.764 837.656 365.551C886.042 423.683 920.418 495.508 961.903 560.125C1001.61 621.666 1052.43 679.444 1115.77 703.649C1129.07 708.744 1142.6 711.853 1156.56 713.337C1230.44 721.129 1303.1 672.906 1373.22 641.841C1575.64 552.057 1726.67 471.347 1765.19 256.441" stroke="white" stroke-width="0.2" stroke-miterlimit="10"/>
<path d="M-100.016 509.866C-104.438 474.621 -86.6803 440.521 -64.4414 419.623C-37.0261 393.861 -1.58323 381.31 33.0581 390.62C65.4751 399.382 92.7994 423.307 119.104 450.301C129.448 460.809 139.771 472.04 149.922 482.728C163.887 497.221 178.613 511.174 194.333 522.962C219.202 541.279 245.379 552.915 271.9 558.95C281.544 561.145 291.395 562.617 301.271 563.187C334.254 565.084 367.88 557.407 396.904 534.179C403.78 528.597 410.299 522.472 416.272 515.803C444.804 483.539 463.789 438.963 486.617 397.108C513.377 348.217 544.982 306.205 589.088 284.283C604.988 276.377 621.544 271.725 638.387 270.145C698.646 264.529 762.7 296.505 808.769 344.151C815.844 351.398 822.536 359.005 829.036 366.792C877.055 424.742 911.255 496.206 952.942 560.282C992.848 621.281 1043.88 678.336 1107.43 701.638C1120.73 706.553 1134.27 709.481 1148.05 710.603C1221.42 716.768 1293 666.916 1363.26 637.658C1571.56 551.142 1727.15 460.868 1765.71 244.698" stroke="white" stroke-width="0.2" stroke-miterlimit="10"/>
<path d="M-100.076 505.348C-104.497 470.103 -86.0083 436.547 -63.2399 416.735C-35.6787 392.419 -0.841431 381.493 32.8363 391.884C64.4813 401.547 90.8572 426.012 116.597 453.185C126.749 463.873 136.698 475.103 147.037 485.791C160.996 500.465 175.541 514.237 191.276 525.482C216.347 543.258 242.554 553.81 268.737 558.58C278.391 560.413 288.071 561.343 297.771 561.55C330.235 562.001 362.585 553.237 390.686 529.645C397.376 524.062 403.712 517.756 409.313 511.086C437.108 478.459 455.715 434.062 478.714 392.749C505.832 344.401 538.516 303.838 582.773 283.181C598.658 275.817 615.204 271.526 632.032 270.488C691.877 266.317 754.796 298.832 800.304 346.476C807.193 353.722 813.885 361.33 820.386 369.117C867.844 427.065 902.059 497.987 943.766 561.34C983.688 621.798 1035.3 678.131 1098.88 700.35C1112.19 705.084 1125.55 707.65 1139.52 708.592C1212.37 713.309 1282.88 661.648 1353.08 634.377C1567.27 551.13 1727.61 451.293 1766.2 233.859" stroke="white" stroke-width="0.2" stroke-miterlimit="10"/>
<path d="M-100.137 500.832C-104.563 465.767 -85.1515 432.575 -62.0352 413.667C-34.1464 390.978 -0.101459 381.676 32.6177 392.968C63.4908 403.533 88.9234 428.356 113.912 455.708C123.877 466.395 133.64 477.625 143.791 488.313C157.564 502.986 172.114 516.577 188.041 527.642C213.122 545.057 239.551 554.344 265.583 557.849C275.066 559.14 284.756 559.708 294.093 559.553C325.846 558.737 357.112 548.705 384.295 524.569C390.803 518.805 396.766 512.497 402.367 505.828C429.425 472.837 447.654 428.62 471.012 387.851C498.487 340.046 532.069 300.749 576.472 281.539C592.342 274.716 608.878 270.787 625.508 270.11C684.944 267.202 746.728 300.256 791.677 347.899C798.566 355.145 805.071 362.751 811.385 370.538C858.289 428.305 892.514 498.865 934.237 561.676C974.355 621.772 1026.17 677.384 1089.79 698.518C1103.1 702.891 1116.47 705.277 1130.27 705.857C1202.6 709.128 1272.04 655.656 1342.18 630.373C1562.61 550.757 1727.16 440.813 1765.97 222.295" stroke="white" stroke-width="0.2" stroke-miterlimit="10"/>
<path d="M-100.198 496.314C-104.438 461.25 -84.2898 428.421 -60.8358 410.779C-32.801 389.536 0.819838 382.04 32.5804 394.233C62.4949 405.698 87.1657 431.061 111.594 458.411C121.181 469.278 130.944 480.508 141.095 491.196C154.681 505.868 169.418 519.46 185.355 530.164C210.638 547.037 237.098 555.24 262.979 557.48C272.472 558.409 281.804 558.435 291.156 557.738C322.203 555.475 352.384 544.175 378.826 519.855C385.147 514.091 390.929 507.602 396.348 500.751C422.484 467.397 440.521 423.36 464.05 383.133C491.888 335.691 526.358 298.023 571.098 280.078C586.953 273.798 603.479 270.229 620.099 269.914C679.121 268.45 739.77 302.043 784.159 349.684C790.861 356.93 797.367 364.537 803.68 372.323C850.211 430.089 884.078 500.106 926.008 562.195C966.328 621.75 1018.54 676.64 1082.18 696.69C1095.5 700.882 1108.88 703.087 1122.5 703.306C1194.31 704.949 1262.87 649.849 1332.78 626.372C1559.27 550.205 1728.38 430.517 1767.04 210.734" stroke="white" stroke-width="0.2" stroke-miterlimit="10"/>
<path d="M-100.256 491.796C-104.501 456.913 -83.4299 424.448 -59.8147 407.71C-31.6339 387.912 1.37622 382.221 32.1782 395.315C61.3208 407.682 84.8616 433.403 108.725 460.933C118.125 471.799 127.696 483.209 137.667 493.716C151.252 508.388 165.807 521.799 181.755 532.141C207.053 548.472 233.73 555.592 259.46 556.566C268.781 556.953 278.118 556.798 287.112 555.558C317.454 551.848 346.732 539.461 372.069 514.597C378.209 508.651 383.805 502.162 389.037 495.31C414.436 461.593 432.286 417.556 455.982 378.052C484.178 331.152 519.732 294.752 564.618 278.253C580.463 272.334 596.973 269.308 613.397 269.353C672.01 269.153 731.524 303.285 775.353 350.925C782.056 358.17 788.561 365.777 794.688 373.563C840.659 431.327 874.546 500.621 916.672 562.349C957.195 621.363 1009.61 675.531 1073.28 694.678C1086.61 698.69 1100 700.352 1113.43 700.57C1184.71 701.308 1252.21 644.037 1322.06 622.367C1554.8 550.012 1728.11 420.217 1766.99 199.17" stroke="white" stroke-width="0.2" stroke-miterlimit="10"/>
<path d="M-100.315 487.279C-104.56 452.396 -82.7526 420.295 -58.6131 404.822C-30.2864 386.471 2.11304 382.585 31.9564 396.58C60.322 410.028 82.9195 436.108 106.218 463.817C115.426 474.864 124.816 486.092 134.594 496.779C147.994 511.451 162.548 524.861 178.693 534.843C204.193 550.633 230.926 555.765 256.474 556.558C265.614 556.764 274.785 555.886 283.789 554.285C313.424 549.126 341.614 535.653 366.028 510.425C371.8 504.297 377.395 497.808 382.254 490.956C406.917 456.875 424.389 413.017 448.256 374.056C476.81 327.699 513.256 292.747 558.48 277.513C574.31 272.137 590.805 269.652 607.218 270.059C665.418 271.303 723.797 305.974 767.252 353.613C773.955 360.858 780.273 368.464 786.4 376.251C832.003 433.833 865.714 502.765 907.86 563.771C948.58 622.424 1001.4 675.689 1065.09 693.933C1078.42 697.764 1091.63 699.246 1105.26 699.102C1176.04 697.852 1242.63 639.494 1312.25 619.449C1551.23 550.905 1728.74 411.004 1767.66 188.692" stroke="white" stroke-width="0.2" stroke-miterlimit="10"/>
<path d="M-100.376 482.763C-104.439 448.061 -81.8954 416.323 -57.4131 401.935C-28.9455 385.21 3.04002 382.769 31.9198 397.845C59.5134 412.195 81.1676 438.634 103.714 466.521C112.736 477.567 121.934 488.975 131.718 499.482C145.117 514.154 159.677 527.384 175.826 537.185C201.341 552.432 228.271 557.204 253.689 556.009C262.849 555.492 271.838 554.433 280.479 552.469C309.404 546.044 336.509 531.303 360.005 505.53C365.59 499.402 370.817 492.732 375.676 485.879C399.603 451.435 416.696 407.757 440.921 369.338C469.839 323.344 507.178 289.84 552.548 276.052C568.362 271.217 584.847 269.094 601.064 269.862C658.849 272.55 716.285 307.58 758.989 355.397C765.504 362.642 771.823 370.248 777.763 378.034C822.806 435.615 856.532 504.005 898.699 564.288C939.62 622.4 992.644 674.943 1056.55 692.103C1069.89 695.753 1083.11 697.055 1096.56 696.369C1166.63 693.671 1232.53 633.685 1301.91 615.446C1547.3 551.076 1729.03 400.707 1767.98 177.13" stroke="white" stroke-width="0.2" stroke-miterlimit="10"/>
<path d="M-100.43 478.064C-104.493 443.362 -81.0261 411.988 -56.2011 398.686C-27.5874 383.406 3.78736 382.77 31.7085 398.747C58.3436 413.997 79.2359 440.976 101.223 468.862C110.058 479.908 119.069 491.315 128.661 502.002C141.874 516.674 156.434 529.903 172.598 539.163C198.315 553.869 225.276 557.556 250.542 555.096C259.526 554.218 268.344 552.616 277 550.11C305.219 542.238 331.235 526.409 353.808 500.273C359.211 493.964 364.252 487.292 368.929 480.259C391.933 445.45 408.834 401.952 433.231 364.076C462.506 318.625 500.924 286.57 546.45 273.866C562.25 269.574 578.724 267.812 594.744 268.94C652.116 273.073 708.421 308.461 750.565 356.277C757.081 363.522 763.213 371.127 769.154 378.913C813.641 436.312 847.378 504.341 889.56 564.082C930.683 621.652 984.1 673.473 1047.85 689.729C1061.19 693.199 1074.42 694.139 1087.69 693.272C1157.25 688.946 1222.06 627.512 1291.4 610.9C1543.76 550.885 1729.52 389.866 1768.7 165.026" stroke="white" stroke-width="0.2" stroke-miterlimit="10"/>
<path d="M-100.302 473.547C-104.37 439.026 -80.167 408.015 -54.9992 395.798C-26.4262 381.964 4.71116 383.134 31.4871 400.011C57.3502 416.163 77.2942 443.681 98.5344 471.565C106.991 482.79 116.003 494.198 125.413 504.704C138.439 519.375 153.004 532.424 169.36 541.503C195.087 555.847 222.27 558.271 247.386 554.546C256.198 553.125 265.026 551.161 273.319 548.293C300.832 538.974 325.945 522.059 347.6 495.377C352.817 489.068 357.676 482.215 362.167 475.181C384.434 440.009 401.144 396.692 425.717 359.178C455.355 314.089 494.666 283.481 540.525 272.224C556.5 268.293 572.586 267.073 588.783 268.563C645.745 273.959 700.911 310.066 742.495 357.881C748.824 365.126 754.956 372.731 760.902 380.336C805.016 437.733 838.581 505.22 880.97 564.239C922.29 621.448 975.919 672.367 1039.88 687.72C1053.23 690.829 1066.46 691.588 1079.74 690.54C1148.78 684.767 1212.7 621.885 1282 606.899C1540.01 551.417 1730 379.75 1769.02 153.644" stroke="white" stroke-width="0.2" stroke-miterlimit="10"/>
<path d="M-100.36 469.03C-104.247 434.69 -79.4892 403.862 -53.7919 392.73C-25.0729 380.342 5.4537 383.317 31.4577 401.095C56.5438 418.329 75.3629 446.025 96.2197 474.269C104.49 485.494 113.31 497.082 122.72 507.587C135.746 522.258 150.311 535.307 166.677 544.025C192.606 557.828 219.819 559.168 244.784 554.177C253.607 552.395 262.263 549.889 270.38 546.659C297.181 536.073 321.21 517.89 341.948 490.664C346.983 484.173 351.469 477.32 355.773 470.285C377.304 434.75 393.64 391.431 418.38 354.64C448.376 310.095 488.584 280.754 534.589 270.943C550.549 267.554 566.625 266.695 582.62 268.726C639.169 275.567 693.204 312.033 734.229 359.846C740.558 367.09 746.503 374.695 752.448 382.3C796.003 439.696 829.583 506.641 871.987 565.118C913.509 621.785 967.527 672.163 1031.34 686.251C1044.69 689.179 1057.74 689.757 1071.03 688.348C1139.55 681.129 1202.59 616.618 1271.65 603.257C1536.27 551.948 1730.29 369.452 1769.53 142.081" stroke="white" stroke-width="0.2" stroke-miterlimit="10"/>
<path d="M-100.422 464.513C-104.309 430.173 -78.6281 399.709 -52.5932 389.843C-23.7232 378.72 6.18767 383.681 31.2331 402.36C55.3606 420.494 73.4179 448.73 93.5282 476.972C101.607 488.377 110.245 499.784 119.468 510.289C132.308 524.959 146.878 537.828 163.254 546.184C189.386 559.446 216.629 559.701 241.442 553.446C250.089 551.301 258.574 548.253 266.7 544.662C292.796 532.628 315.736 513.358 335.55 485.768C340.217 479.096 344.703 472.242 348.826 465.026C369.433 429.128 385.579 385.989 410.676 349.741C441.03 305.738 482.318 277.846 528.473 269.3C544.419 266.453 560.484 265.956 576.469 268.348C632.614 276.272 685.504 313.638 726.155 361.45C732.297 368.694 738.43 376.299 744.188 383.904C787.375 441.118 820.592 507.7 863.203 565.455C904.922 621.762 959.152 671.237 1023.17 684.422C1036.54 687.169 1049.6 687.386 1062.71 685.615C1130.71 676.949 1192.85 610.99 1261.68 599.255C1532.7 552.662 1730.76 359.154 1770.23 130.52" stroke="white" stroke-width="0.2" stroke-miterlimit="10"/>
<path d="M-100.481 459.996C-104.373 425.836 -77.9556 395.735 -51.3913 386.955C-22.3753 377.278 6.92483 384.044 31.0066 403.804C54.3622 422.84 71.4762 451.435 91.0214 479.856C98.9132 491.26 107.36 502.847 116.397 513.351C129.236 528.022 143.619 540.89 160.193 548.886C186.339 561.605 213.8 560.777 238.462 553.257C247.124 550.57 255.432 547.16 263.196 543.206C288.772 529.726 310.436 509.368 329.332 481.234C333.813 474.561 338.117 467.526 342.053 460.31C361.925 424.047 377.878 381.089 402.96 345.383C433.678 301.743 475.857 275.299 522.346 268.199C538.281 265.713 554.331 265.758 570.119 268.511C625.663 277.879 677.61 315.604 717.702 363.414C723.844 370.658 729.789 378.263 735.362 385.867C777.988 443.08 811.221 509.12 853.847 566.332C895.581 622.097 950.391 670.851 1014.26 682.952C1027.62 685.518 1040.69 685.374 1053.63 683.422C1121.1 673.308 1182.35 606.083 1250.96 595.611C1528.37 553.914 1730.48 349.216 1769.98 119.317" stroke="white" stroke-width="0.2" stroke-miterlimit="10"/>
<path d="M-100.54 455.479C-104.245 421.32 -77.0914 391.582 -50.3709 383.886C-21.3956 375.654 7.66709 384.226 30.6037 404.887C53.1822 425.005 69.3528 453.959 88.1465 482.558C95.8516 493.962 104.112 505.548 113.143 516.233C125.796 530.903 140.371 543.591 156.95 551.406C183.298 563.584 210.789 561.672 235.3 552.887C243.785 549.838 251.917 546.066 259.701 541.39C284.567 526.643 305.147 505.017 323.12 476.519C327.419 469.665 331.536 462.63 335.286 455.413C354.421 418.787 369.996 376.008 395.436 340.845C426.512 297.748 469.589 272.571 516.41 266.918C532.33 264.974 548.37 265.38 563.961 268.494C619.096 279.126 669.903 317.57 709.435 365.379C715.577 372.623 721.336 380.227 726.908 387.831C768.98 444.862 802.227 510.36 845.056 567.031C886.991 622.254 942.008 670.286 1006.09 681.484C1019.46 683.87 1032.53 683.544 1045.48 681.231C1112.44 669.671 1172.79 600.997 1241.16 592.151C1524.97 555.531 1731.32 339.281 1770.85 108.298" stroke="white" stroke-width="0.2" stroke-miterlimit="10"/>
<path d="M-100.601 450.961C-104.312 416.983 -76.4162 387.428 -49.1714 380.998C-20.045 374.032 8.40188 384.59 30.5665 406.152C52.1865 427.17 67.4087 456.663 85.8291 485.262C93.1559 496.845 101.416 508.432 110.266 518.936C122.732 533.605 137.312 546.112 153.901 553.566C180.264 565.202 208.154 562.388 232.333 552.155C240.641 548.745 248.789 544.431 256.21 539.393C280.369 523.198 300.046 500.486 317.102 471.443C321.214 464.589 324.963 457.372 328.718 449.974C346.93 412.984 362.313 370.386 387.924 335.766C419.358 293.211 463.52 269.302 510.3 265.094C526.205 263.693 542.235 264.459 557.816 267.935C612.537 280.011 662.214 318.813 701.186 366.62C707.141 373.864 712.9 381.469 718.472 389.073C760.171 446.102 793.247 511.058 836.096 567.006C878.228 621.869 933.457 668.998 997.748 679.293C1011.12 681.498 1024.02 680.81 1036.97 678.317C1103.42 665.129 1162.68 595.187 1231.02 587.787C1521.21 556.243 1731.62 328.621 1771.19 96.3734" stroke="white" stroke-width="0.2" stroke-miterlimit="10"/>
<path d="M-100.657 446.444C-104.367 412.466 -75.7357 383.274 -47.9615 377.93C-18.6891 372.41 9.14708 384.772 30.3531 407.235C51.1961 429.336 65.48 459.007 83.1488 487.784C90.289 499.367 98.1705 511.133 107.208 521.638C119.674 536.307 134.067 548.814 150.853 555.906C177.413 567.182 205.338 563.103 229.366 551.605C237.69 547.653 245.66 542.978 252.905 537.577C276.354 520.115 294.951 495.955 311.079 466.729C315.009 459.693 318.572 452.476 321.953 445.077C339.429 407.724 354.621 365.306 380.217 331.227C412.014 289.035 457.068 266.574 504.186 263.632C520.08 262.592 536.09 264.081 551.474 267.918C605.787 281.257 654.323 320.779 692.735 368.585C698.691 375.829 704.263 383.432 709.835 391.036C750.979 447.884 784.065 512.478 826.929 567.885C869.263 622.205 924.886 668.613 989.02 677.824C1002.41 679.667 1015.31 678.799 1028.08 675.943C1094.01 661.309 1152.38 590.1 1220.49 584.144C1517.06 558.039 1731.72 318.684 1771.32 85.1717" stroke="white" stroke-width="0.2" stroke-miterlimit="10"/>
<path d="M-100.717 441.927C-104.246 408.129 -74.8724 379.121 -46.7605 375.042C-17.337 370.787 9.88331 385.136 30.1308 408.499C50.0152 431.5 63.5374 461.711 80.6462 490.487C87.5947 502.25 95.2947 513.835 104.145 524.339C116.425 539.008 131.01 551.334 147.8 558.247C174.376 568.98 202.518 563.818 226.395 551.055C234.542 546.741 242.341 541.523 249.409 535.76C272.152 516.851 289.661 491.604 304.87 461.833C308.428 454.796 311.995 447.398 315.19 439.999C331.748 402.102 346.748 359.863 372.697 326.509C404.852 284.86 450.803 263.666 498.254 262.17C514.133 261.672 530.133 263.523 545.507 267.72C599.405 282.504 646.999 322.385 684.85 370.189C690.619 377.432 696.192 385.036 701.764 392.64C742.347 449.486 775.449 513.538 818.52 568.222C861.056 622.002 916.886 667.687 981.232 675.995C994.624 677.658 1007.53 676.609 1020.32 673.392C1085.72 657.311 1143.19 584.835 1211.08 580.143C1513.84 559.656 1732.75 308.388 1772.58 73.6111" stroke="white" stroke-width="0.2" stroke-miterlimit="10"/>
<path d="M-100.777 437.41C-104.311 403.793 -74.1916 374.786 -45.747 372.154C-16.3642 369.344 10.6187 385.499 29.9076 409.764C49.02 433.666 61.5989 464.236 77.9511 493.371C84.7129 505.133 92.2212 516.899 100.885 527.402C113.159 542.252 127.563 554.397 144.369 560.767C171.146 570.959 199.319 564.712 223.045 550.684C231.202 546.009 238.83 540.248 245.727 533.943C267.95 513.588 284.183 487.253 298.474 456.937C301.85 449.72 305.045 442.32 308.239 434.921C324.06 396.66 338.682 354.602 364.802 321.789C397.502 280.684 444.144 261.479 491.948 260.707C507.822 260.39 523.801 262.963 538.978 267.522C592.468 283.569 638.922 324.17 676.213 371.972C681.977 379.396 687.555 386.819 692.754 394.422C732.964 451.267 765.708 514.776 808.98 568.919C851.714 622.338 907.942 667.121 972.127 674.525C985.524 676.007 998.256 674.596 1011.04 671.199C1075.93 653.67 1132.32 579.927 1200.35 576.681C1509.48 561.993 1732.47 298.63 1772.33 62.5891" stroke="white" stroke-width="0.2" stroke-miterlimit="10"/>
<path d="M-100.838 432.893C-104.372 399.276 -73.3291 370.633 -44.5418 369.086C-15.0079 367.541 11.3592 385.682 29.6895 410.847C47.8383 435.831 59.4738 466.76 75.4528 495.893C81.8362 507.836 89.3445 519.601 98.0133 529.924C110.101 544.773 124.51 556.737 141.507 562.927C168.487 572.578 196.69 565.247 220.264 549.954C228.25 544.736 235.702 538.614 242.422 531.947C263.935 510.324 279.27 482.722 292.451 452.043C295.646 444.644 298.654 437.244 301.667 429.664C316.752 391.039 331.182 349.161 357.478 316.71C390.536 276.148 438.283 257.488 486.026 258.885C501.879 259.29 517.854 262.044 533.02 266.964C586.096 284.455 631.42 325.414 668.152 373.215C673.729 380.638 679.306 388.062 684.505 395.665C724.161 452.327 756.915 515.475 800.208 568.895C843.143 621.772 899.573 666.014 963.98 672.153C977.382 673.455 990.119 671.864 1002.73 668.104C1067.1 649.129 1122.59 574.118 1190.39 572.317C1505.7 563.609 1733.14 287.972 1773.04 50.6663" stroke="white" stroke-width="0.2" stroke-miterlimit="10"/>
<path d="M-100.897 428.375C-104.249 394.94 -72.4857 367.202 -43.3404 366.198C-13.6351 365.196 12.0959 386.045 29.4676 412.111C46.8445 437.996 57.5316 469.464 72.764 498.596C78.9608 510.538 86.2825 522.302 94.7595 532.805C106.847 547.654 121.256 559.619 138.264 565.448C165.258 574.556 193.865 566.143 217.097 549.765C225.093 544.185 232.368 537.701 238.917 530.492C259.724 507.422 273.969 478.732 286.42 447.509C289.428 440.109 292.254 432.528 294.894 424.947C309.056 385.959 323.48 344.261 349.762 312.353C383.178 272.333 431.822 254.941 479.898 257.783C495.923 258.731 511.7 261.846 526.665 267.307C579.332 286.062 623.516 327.741 659.687 375.54C665.265 382.964 670.655 390.386 675.854 397.989C715.137 454.651 747.719 517.256 791.027 570.134C834.164 622.47 890.988 665.99 955.234 671.226C968.641 672.347 981.388 670.394 993.818 666.453C1057.66 646.212 1112.14 567.223 1179.84 569.216C1501.37 578.232 1733.42 277.854 1773.54 39.465" stroke="white" stroke-width="0.2" stroke-miterlimit="10"/>
<path d="M-100.765 423.678C-104.123 390.423 -71.5973 362.146 -42.1346 363.13C-12.2986 364.116 12.8369 386.228 29.4367 413.195C45.8499 440.162 55.7854 471.809 70.4477 501.3C76.4579 513.242 83.5878 525.186 91.8833 535.508C103.784 550.356 118.198 562.14 135.403 567.608C162.599 576.175 191.232 566.858 214.317 549.034C222.142 542.913 229.427 536.067 235.613 528.495C255.896 504.159 268.87 474.202 280.398 442.614C283.224 435.033 285.677 427.451 288.317 419.87C301.556 380.518 315.789 339 342.428 307.635C376.207 267.978 425.931 252.034 474.152 256.322C490.167 257.631 505.929 261.288 520.697 267.11C572.951 287.31 616.004 329.346 651.616 377.144C657.007 384.567 662.397 391.99 667.601 399.412C706.329 455.891 738.921 518.135 782.437 570.291C825.77 622.266 882.806 664.883 947.27 669.036C960.682 669.976 973.439 667.662 985.879 663.36C1049.21 641.491 1102.76 562.319 1170.26 564.854C1497.3 576.956 1733.89 267.738 1774.04 28.0837" stroke="white" stroke-width="0.2" stroke-miterlimit="10"/>
<path d="M-100.825 419.161C-104.183 385.906 -70.729 357.812 -40.9286 360.062C-10.9415 362.313 13.5782 386.411 29.2194 414.279C44.8607 442.147 53.6611 474.333 67.7635 503.822C73.582 515.944 80.5304 527.708 88.8208 538.21C100.535 553.058 114.949 564.842 132.164 569.948C159.37 578.154 188.225 567.573 211.16 548.484C218.995 542.001 225.922 534.612 232.123 526.498C251.699 500.715 263.585 469.67 274.194 437.538C276.647 429.956 279.105 422.194 281.564 414.431C294.066 374.716 307.921 333.378 334.732 302.555C368.869 263.441 419.49 248.764 467.857 254.498C483.857 256.349 499.609 260.367 514.367 266.551C566.211 288.014 608.125 330.77 643.177 378.567C648.567 385.99 653.771 393.412 658.975 400.834C697.143 457.312 729.756 518.833 773.281 570.628C816.63 622.061 874.246 663.957 938.735 667.206C952.152 667.965 964.728 665.47 977.178 660.807C1039.99 637.491 1092.41 558.858 1159.92 560.851C1493.36 570.983 1734.18 257.44 1774.37 16.5212" stroke="white" stroke-width="0.2" stroke-miterlimit="10"/>
<path d="M-100.884 414.643C-104.055 381.389 -69.8602 353.478 -39.7272 357.174C-9.59416 360.871 14.3148 386.774 28.9975 415.543C43.6801 444.312 51.7239 476.856 65.2613 506.525C78.7988 536.194 99.8524 564.077 129.112 572.288C165.781 582.507 205.287 558.224 228.814 524.682C252.342 491.14 263.216 449.613 274.982 409.534C286.748 369.455 300.225 328.297 327.394 298.017C373.261 246.649 449.222 240.173 508.395 266.534C567.754 292.897 612.914 346.322 650.708 402.799C688.507 459.095 720.944 520.254 764.489 571.326C808.035 622.398 865.863 663.391 930.377 665.737C1011.31 668.489 1068.86 553.373 1149.75 557.389C1489.18 573.681 1734.65 247.323 1774.88 5.13929" stroke="white" stroke-width="0.2" stroke-miterlimit="10"/>
<path d="M-101.1 415.728C-103.44 386.089 -69.7197 361.79 -38.8706 366.573C-8.95469 371.353 15.3377 396.896 30.7873 424.944C41.6282 444.307 49.2557 465.106 57.6501 485.185C61.3153 494.229 65.1774 502.912 69.6044 511.416C83.571 539.099 104.312 564.813 133.058 571.397C158.277 577.248 184.701 566.841 206.5 548.291C215.682 540.366 224.153 531.174 231.157 521.076C254.695 487.172 266.688 445.648 279.372 406.114C289.805 373.62 301.555 340.768 320.789 313.9C325.068 307.768 329.709 301.999 334.901 296.593C381.842 246.854 457.773 241.462 517.107 268.727C530.003 274.725 542.305 281.986 554.021 290.149C595.745 319.715 629.446 362.449 658.612 407.157C695.831 464.174 727.874 526.056 770.84 577.849C813.639 628.919 870.524 670.271 934.468 672.976C941.368 673.176 948.102 672.652 954.67 671.406C1020.17 658.577 1071.78 575.605 1136.83 565.485C1141.7 564.776 1146.57 564.428 1151.42 564.441C1224.53 566.269 1292.89 551.641 1356.51 525.978C1462.62 482.906 1555.01 409.623 1625.49 325.981C1704.1 232.243 1755.83 124.879 1774.15 31.156" stroke="white" stroke-width="0.2" stroke-miterlimit="10"/>
<path d="M-101.318 416.811C-102.82 390.608 -69.5752 369.921 -38.2069 376.151C-8.50806 382.014 16.1678 407.197 32.5759 434.344C43.9869 453.347 52.3864 473.245 61.5679 491.881C65.6268 500.203 69.6856 508.526 74.1329 516.307C88.5287 542.004 108.963 565.368 137.184 570.685C161.879 575.27 187.763 564.139 209.194 545.407C218.381 537.302 226.671 527.929 233.679 517.65C257.414 483.386 270.149 442.044 283.756 402.874C295.112 370.744 307.966 338.437 327.927 312.293C332.387 306.343 337.21 300.755 342.583 295.53C390.785 247.421 466.685 243.113 525.989 271.462C538.88 277.641 551.177 285.083 562.701 293.426C604.218 323.714 637.531 366.988 666.495 412.238C703.321 469.977 734.41 532.578 777.355 585.094C819.221 636.162 875.531 678.054 938.91 680.938C945.805 681.319 952.539 680.795 959.107 679.549C1024.22 667.261 1075.62 585.192 1139.4 573.623C1144.09 572.733 1148.77 572.384 1153.62 572.397C1224.93 572.232 1291.64 556.154 1354.16 529.947C1458.8 485.787 1552.06 415.036 1622.98 335.55C1702 246.872 1754.13 145.653 1773.95 57.8966" stroke="white" stroke-width="0.2" stroke-miterlimit="10"/>
<path d="M-101.346 417.714C-102.012 394.947 -69.2419 377.872 -37.1676 385.549C-7.68596 392.496 17.3733 417.318 34.5534 443.564C46.5395 462.027 55.8976 481.024 65.488 498.396C69.7487 506.177 74.0145 513.777 78.6637 521.017C93.4886 544.727 113.61 565.923 141.317 569.612C165.493 572.75 190.832 561.076 211.901 541.982C220.906 533.695 229.201 524.142 236.209 513.862C259.954 479.237 273.431 438.078 288.334 399.273C300.427 367.506 314.385 335.744 335.072 310.325C339.713 304.556 344.718 299.15 350.086 294.105C399.357 247.806 475.227 244.581 534.51 273.653C547.397 280.013 559.688 287.635 571.207 296.159C612.517 327.169 645.633 370.805 674.022 416.595C710.454 475.055 740.963 538.378 783.328 591.615C824.256 642.86 879.814 684.931 942.623 688.176C949.518 688.556 956.066 688.032 962.628 686.966C1027.35 675.219 1078.53 594.234 1141.05 581.216C1145.56 580.325 1150.24 579.796 1155.1 579.629C1224.77 577.652 1289.47 560.123 1351.08 533.19C1454.45 487.762 1548.38 419.723 1619.56 344.394C1699.01 260.415 1751.51 165.702 1773.03 83.912" stroke="white" stroke-width="0.2" stroke-miterlimit="10"/>
<path d="M-101.563 418.798C-101.393 399.465 -69.1023 386.184 -36.3171 395.127C-7.05254 403.158 18.3953 427.439 36.3371 453.145C48.8984 471.067 59.0284 489.163 69.2142 505.272C73.6768 512.511 78.3311 519.571 83.0007 526.088C98.2548 547.812 118.251 566.839 145.444 568.901C169.095 570.773 193.89 558.555 214.408 539.097C223.232 530.63 231.532 520.896 238.54 510.616C262.487 475.449 276.892 434.474 292.713 396.213C305.734 364.63 320.605 333.593 342.204 308.899C347.028 303.311 352.214 298.086 357.764 293.223C408.109 248.552 484.135 246.413 543.392 276.388C556.274 282.928 568.373 290.731 580.074 299.436C621.369 330.988 654.091 375.345 682.092 421.676C717.944 480.858 747.872 544.901 789.844 598.86C829.838 650.103 884.64 692.533 946.874 696.318C953.582 696.698 960.311 696.355 966.692 695.108C1031.02 684.082 1082.18 603.82 1143.44 589.353C1147.95 588.281 1152.45 587.571 1157.12 587.403C1224.98 583.434 1288.04 564.456 1348.73 536.978C1450.64 490.462 1545.25 424.774 1617.06 353.782C1696.93 274.683 1749.81 186.294 1773.03 110.472" stroke="white" stroke-width="0.2" stroke-miterlimit="10"/>
<path d="M-101.774 419.701C-100.767 403.803 -68.9519 394.134 -35.4608 404.525C-6.41341 413.639 19.4178 437.56 38.1316 462.365C51.268 479.747 62.1699 496.941 72.9462 511.967C77.7973 518.666 82.4719 525.003 87.3434 530.979C103.027 550.716 122.71 567.574 149.384 568.189C172.511 568.795 196.766 555.852 216.922 536.033C225.751 527.384 233.864 517.65 240.877 507.19C264.834 471.661 280.167 430.869 297.098 392.973C311.041 361.753 327.017 331.262 349.156 307.292C354.161 301.886 359.529 296.841 365.074 292.159C416.679 249.118 492.488 248.062 551.715 279.121C564.592 285.842 576.686 293.825 588.195 302.71C629.283 334.984 661.622 379.702 689.421 426.575C724.884 486.297 754.041 551.242 795.805 605.923C834.867 657.163 888.911 699.953 950.575 704.098C957.284 704.477 963.826 704.134 970.389 703.068C1034.52 692.584 1085.27 613.404 1145.26 597.489C1149.59 596.236 1154.09 595.526 1158.58 595.177C1224.82 589.216 1286.05 568.786 1345.64 540.764C1446.08 493.34 1541.57 429.822 1613.62 363.168C1693.91 288.949 1747.18 206.885 1771.91 137.029" stroke="white" stroke-width="0.2" stroke-miterlimit="10"/>
<path d="M-101.99 420.784C-99.9644 408.503 -68.8003 402.084 -34.79 413.922C-5.95456 423.939 20.4417 447.681 39.7356 471.765C53.4421 488.787 65.1211 504.899 76.4928 518.662C81.5458 524.819 86.4274 530.434 91.5007 535.868C107.613 553.62 126.99 568.127 153.144 567.296C175.747 566.635 199.462 552.969 219.255 532.787C227.902 523.957 236.02 514.042 243.034 503.582C267.188 467.693 283.262 427.084 301.116 389.551C315.982 358.695 332.876 328.749 355.933 305.323C361.119 300.098 366.669 295.235 372.4 290.553C425.08 249.141 501.04 249.35 560.246 281.132C573.118 288.033 585.207 296.197 596.711 305.263C637.784 338.079 669.729 383.518 697.139 430.932C732.022 491.376 760.786 557.043 801.975 612.264C840.285 663.683 893.386 706.831 954.485 711.155C961.188 711.715 967.731 711.372 974.107 710.305C1037.85 700.363 1088.57 622.267 1147.11 604.721C1151.44 603.468 1155.76 602.577 1160.07 602.047C1224.5 594.093 1283.9 572.394 1342.57 543.646C1441.56 494.954 1537.71 434.148 1610.4 371.652C1690.93 302.311 1744.75 226.753 1771.19 162.684" stroke="white" stroke-width="0.2" stroke-miterlimit="10"/>
<path d="M-102.019 421.868C-99.1574 413.022 -68.4681 410.216 -33.7519 423.501C-5.1286 434.421 21.646 457.983 41.7119 481.166C55.9935 497.647 68.6311 512.859 80.5983 525.359C85.8531 530.974 91.1232 536.048 96.2168 540.76C112.764 556.344 131.823 568.863 157.458 566.585C179.541 564.478 202.526 550.267 222.136 529.904C230.789 520.894 238.726 510.797 245.739 500.337C269.903 464.087 286.91 423.48 305.869 386.492C321.663 355.82 339.47 326.599 363.44 303.899C368.808 298.854 374.352 294.172 380.452 289.672C434.205 249.889 510.135 251.182 569.316 283.867C582.182 290.949 594.266 299.294 605.579 308.54C646.444 342.078 678.193 387.878 705.21 436.014C739.699 497.179 767.696 563.566 808.491 619.509C845.868 670.925 898.399 714.433 958.741 719.116C965.258 719.676 971.801 719.333 978.172 718.447C1041.52 709.045 1092.03 632.033 1149.31 613.039C1153.45 611.604 1157.58 610.712 1161.9 610.002C1224.52 600.056 1282.28 576.907 1339.85 547.433C1437.56 497.653 1534.21 439.198 1607.33 381.039C1688.29 316.577 1742.49 247.345 1770.45 189.242" stroke="white" stroke-width="0.2" stroke-miterlimit="10"/>
<path d="M-102.232 422.77C-98.5336 417.36 -68.3142 417.985 -32.8972 432.899C-4.48586 444.721 22.6671 468.104 43.5049 490.385C58.3617 506.326 71.7712 520.636 84.3339 531.873C89.9823 536.767 95.2677 541.299 100.563 545.469C117.352 559.066 136.286 569.417 161.407 565.511C182.966 562.138 205.406 547.384 224.658 526.477C233.129 517.286 241.071 507.009 248.09 496.368C272.451 459.757 290.199 419.333 310.267 382.71C326.798 352.401 345.896 323.725 370.405 301.749C375.955 296.886 381.686 292.204 387.775 288.065C442.603 249.911 518.689 252.289 577.84 286.058C590.701 293.321 602.78 301.846 614.087 311.273C654.932 345.534 686.106 391.874 712.739 440.37C746.835 502.257 774.251 569.365 814.467 626.029C850.91 677.443 902.684 721.311 962.643 726.354C969.16 726.914 975.697 726.751 982.068 725.865C1045.03 717.005 1095.32 641.076 1151.34 620.452C1155.3 619.017 1159.44 617.764 1163.56 617.052C1224.56 605.295 1280.31 580.514 1337.15 550.497C1433.4 499.629 1530.72 443.705 1604.48 389.703C1685.66 330.121 1740.44 267.214 1770.09 215.078" stroke="white" stroke-width="0.2" stroke-miterlimit="10"/>
<path d="M-102.449 423.854C-97.9141 421.879 -68.1695 426.117 -32.0467 442.478C-4.03403 455.202 23.6839 478.406 45.4752 499.967C61.0938 515.368 75.0886 528.777 88.2467 538.75C94.0971 543.103 99.5843 547.093 105.087 550.541C122.305 562.152 140.926 570.334 165.533 564.8C186.568 560.161 208.468 544.682 227.358 523.414C235.647 514.041 243.589 503.764 250.613 492.943C274.984 455.97 293.665 415.549 314.838 379.47C332.297 349.345 352.308 321.394 377.73 300.144C383.461 295.462 389.374 290.961 395.644 287.003C451.546 250.479 527.596 254.121 586.727 288.613C599.583 296.056 611.475 304.581 622.959 314.369C663.603 349.172 694.574 396.054 720.814 445.271C754.334 507.699 781.17 575.528 821.174 633.095C856.871 684.507 907.702 728.733 967.085 734.317C973.602 734.877 979.953 734.713 986.319 734.008C1049.08 725.87 1099.15 650.844 1153.72 628.77C1157.68 627.155 1161.64 625.901 1165.58 625.008C1224.76 611.259 1278.88 585.028 1334.61 554.465C1429.4 502.509 1527.59 448.936 1601.6 399.091C1683.02 344.388 1738.37 287.806 1769.72 241.638" stroke="white" stroke-width="0.2" stroke-miterlimit="10"/>
<path d="M-102.476 424.758C-97.1038 426.218 -67.8291 433.887 -31.1869 451.695C-3.38636 465.322 24.9016 488.166 47.2732 509.006C63.4618 524.047 78.2286 536.555 91.9873 545.085C98.0395 548.896 103.92 552.164 109.251 555.07C126.899 564.694 145.208 570.707 169.295 563.727C189.619 557.82 211.166 541.618 229.501 520.167C237.796 510.614 245.556 500.156 252.58 489.334C277.147 452.001 296.571 411.762 318.666 376.048C337.048 346.286 357.977 318.88 384.125 298.354C390.043 293.673 396.132 289.534 402.403 285.576C459.379 250.681 535.585 255.407 594.69 290.803C607.355 298.426 619.428 307.132 630.72 317.101C671.344 352.626 701.74 400.048 727.778 449.808C760.905 512.957 787.161 581.507 826.584 639.795C861.348 691.204 911.417 735.97 970.236 741.733C976.753 742.293 983.098 742.311 989.282 741.424C1051.65 733.827 1101.51 659.884 1154.81 636.181C1158.59 634.565 1162.55 633.131 1166.5 632.057C1223.87 616.315 1276.16 588.815 1330.98 557.527C1424.31 504.302 1523.17 453.441 1597.81 407.753C1679.65 357.93 1735.2 307.672 1768.24 267.471" stroke="white" stroke-width="0.2" stroke-miterlimit="10"/>
<path d="M-102.693 425.841C-96.4894 430.917 -67.6794 441.838 -30.3365 461.273C-2.5613 475.804 25.9184 498.468 49.0619 518.406C65.8257 532.907 81.3643 544.513 95.7134 551.961C101.968 555.23 108.055 557.777 113.588 560.141C131.483 567.598 149.662 571.623 173.235 563.015C193.035 555.842 213.855 538.915 232.014 517.103C240.127 507.368 247.892 496.729 254.916 485.908C279.68 448.214 299.845 408.158 323.05 372.808C342.355 343.41 364.389 316.549 391.263 296.748C397.362 292.248 403.633 288.29 410.085 284.513C468.135 251.247 544.311 257.058 603.386 293.537C616.045 301.341 628.114 310.228 639.401 320.377C679.822 356.444 710.017 404.408 735.666 454.708C768.213 518.578 793.888 587.85 832.918 646.859C866.935 698.266 916.061 743.391 974.31 749.514C980.635 750.254 986.986 750.091 993.351 749.386C1055.33 742.329 1104.97 669.47 1157.01 644.318C1160.79 642.521 1164.57 641.086 1168.34 639.832C1224.08 622.278 1274.55 593.147 1328.26 561.314C1420.13 507.001 1519.48 458.49 1594.74 417.14C1676.83 372.015 1732.94 328.264 1767.68 294.03" stroke="white" stroke-width="0.2" stroke-miterlimit="10"/>
<path d="M-102.908 426.924C-95.6816 435.436 -67.5281 449.787 -29.4843 470.851C-1.9161 486.104 26.9369 508.769 50.8472 527.987C68.1862 541.947 84.4968 552.652 99.628 558.837C106.271 561.565 112.374 563.57 118.114 565.212C136.251 570.682 154.304 572.538 177.358 562.484C196.633 554.045 216.914 536.394 234.705 514.399C242.636 504.484 250.406 493.664 257.43 482.843C282.205 444.787 303.489 404.734 327.613 369.929C347.846 340.714 370.792 314.579 398.392 295.502C404.487 291.183 410.939 287.406 417.573 283.811C476.697 252.173 553.024 259.249 612.078 296.451C624.732 304.436 636.796 313.503 647.891 323.833C688.105 360.622 718.098 409.127 743.359 459.968C775.512 524.56 800.612 594.372 839.243 654.284C872.328 705.689 920.883 751.173 978.375 757.655C984.701 758.395 991.046 758.413 997.225 757.707C1058.82 751.191 1108.43 679.416 1159.02 652.634C1162.62 650.656 1166.21 649.221 1169.98 647.786C1223.91 628.24 1272.55 597.658 1325.54 565.281C1415.94 509.88 1515.98 463.72 1591.86 426.708C1674 386.461 1730.86 349.036 1767.12 320.769" stroke="white" stroke-width="0.2" stroke-miterlimit="10"/>
<path d="M-102.936 427.828C-94.8733 439.775 -67.003 457.559 -28.6317 480.249C-1.27552 496.405 28.1424 518.891 52.6381 537.207C70.7388 550.627 87.6347 560.431 103.361 565.352C110.206 567.539 116.516 568.821 122.458 569.922C140.838 573.405 158.765 573.093 181.491 561.411C200.242 551.706 219.984 533.331 237.411 510.974C245.348 500.878 252.931 490.058 259.96 479.056C284.931 440.639 306.957 400.769 332.19 366.328C353.347 337.478 377.211 311.886 405.729 293.355C412.005 289.216 418.639 285.621 425.454 282.207C485.652 252.198 561.949 260.358 620.978 298.464C633.627 306.629 645.685 315.877 656.775 326.387C696.969 363.899 726.392 412.764 751.259 464.327C783.024 529.459 807.539 600.173 845.59 660.806C877.927 712.209 925.54 758.052 982.456 765.075C988.782 765.815 994.941 765.832 1001.11 765.307C1062.5 759.333 1111.71 688.821 1161.22 660.41C1164.64 658.432 1168.24 656.635 1171.82 655.199C1223.94 633.842 1270.95 601.629 1322.83 568.707C1411.77 512.037 1512.48 468.589 1588.81 435.734C1671.18 400.367 1728.61 369.267 1766.57 346.966" stroke="white" stroke-width="0.2" stroke-miterlimit="10"/>
<path d="M-103.154 428.911C-94.2541 444.294 -66.8485 465.328 -27.7815 489.828C-0.632255 506.706 29.159 529.192 54.4266 546.607C73.1025 559.487 90.7703 568.389 107.092 572.048C114.139 573.693 120.651 574.434 126.799 574.812C145.604 576.49 163.223 573.828 185.431 560.7C203.657 549.728 222.854 530.809 239.923 507.91C247.678 497.632 255.267 486.631 262.301 475.449C287.283 436.671 310.237 396.984 336.393 362.907C358.472 334.42 383.441 309.374 412.685 291.567C419.143 287.61 425.963 284.015 432.96 280.782C494.232 252.403 570.498 261.647 629.683 300.837C642.327 309.183 654.194 318.611 665.465 329.302C705.458 367.355 734.673 416.942 759.157 468.865C790.342 534.719 814.277 606.154 851.934 667.509C883.525 718.91 930.189 765.292 986.727 772.495C992.866 773.234 999.206 773.432 1005.38 772.907C1066.38 767.655 1115.37 698.046 1163.62 668.005C1167.04 665.846 1170.45 664.049 1173.86 662.432C1224.35 639.083 1269.35 605.419 1320.31 571.952C1407.79 514.194 1508.99 473.096 1586.13 444.58C1668.75 413.911 1726.73 389.498 1766.39 372.984" stroke="white" stroke-width="0.2" stroke-miterlimit="10"/>
<path d="M-103.37 429.995C-93.6335 448.812 -66.6977 473.279 -26.9248 499.225C0.0124119 517.006 30.3737 539.133 56.4031 556.008C75.6541 568.347 94.0939 576.348 111.012 578.743C118.26 579.847 124.994 579.324 131.329 579.703C150.144 581.019 167.865 574.744 189.563 559.807C207.26 547.75 225.736 527.926 242.624 504.845C250.197 494.387 257.791 483.205 264.825 472.022C290.003 432.884 313.704 393.199 340.965 359.667C363.972 331.363 389.853 307.043 419.824 289.96C426.463 286.184 433.465 282.771 440.457 279.718C502.617 252.968 579.22 263.477 638.198 303.389C650.837 311.916 662.699 321.525 673.779 332.396C713.751 371.172 742.583 421.12 766.673 473.764C797.464 540.34 820.824 612.315 857.896 674.572C888.553 725.97 934.461 772.712 990.429 780.274C996.563 781.194 1002.72 781.211 1008.89 780.867C1069.5 776.155 1118.46 707.631 1165.26 676.14C1168.49 673.981 1171.91 672.003 1175.13 670.205C1223.81 645.043 1267.17 609.749 1317.03 575.737C1403.24 516.892 1504.93 478.144 1582.51 453.965C1665.36 428.175 1723.92 410.087 1765.09 399.541" stroke="white" stroke-width="0.2" stroke-miterlimit="10"/>
<path d="M-103.583 430.898C-93.0155 453.331 -66.3527 480.868 -26.0708 508.623C0.659455 527.127 31.394 549.254 58.1954 565.228C78.0164 577.207 97.2282 584.307 114.746 585.259C122.388 585.641 129.117 585.298 135.675 584.413C154.964 582.117 172.327 575.299 193.511 558.734C210.498 545.411 228.621 524.863 245.145 501.42C252.724 490.78 259.944 479.598 267.17 468.235C292.358 428.735 317.174 389.234 345.352 356.247C369.096 328.306 396.087 304.35 426.966 288.173C433.786 284.579 440.97 281.346 448.143 278.475C511.382 253.173 587.95 264.947 647.084 305.944C659.718 314.651 671.575 324.441 682.654 335.312C722.424 374.629 750.863 425.298 774.751 478.485C804.962 545.781 827.928 618.478 864.606 681.457C894.518 732.852 939.482 779.953 994.88 787.875C1001.01 788.795 1007.17 788.993 1013.15 788.648C1073.37 784.477 1122.11 717.036 1167.65 683.916C1170.89 681.576 1174.12 679.598 1177.35 677.619C1224.22 650.465 1265.75 613.72 1314.7 578.983C1399.45 518.869 1501.63 482.652 1580.02 462.812C1662.92 441.72 1722.23 430.139 1765.1 425.559" stroke="white" stroke-width="0.2" stroke-miterlimit="10"/>
<path d="M-103.611 431.982C-92.2066 457.851 -65.827 488.82 -25.2175 518.202C1.49235 537.428 32.4135 559.556 59.9868 574.628C80.5697 586.068 100.367 592.265 118.662 592.135C126.506 591.976 133.442 590.911 140.201 589.484C159.728 585.382 176.971 576.215 197.635 558.204C214.097 543.614 231.681 522.342 247.655 498.536C255.052 487.715 262.278 476.352 269.69 464.989C295.076 425.129 320.632 385.81 349.92 353.187C374.587 325.611 402.496 302.199 434.101 286.748C441.103 283.334 448.281 280.282 455.636 277.592C519.949 253.919 596.668 266.958 655.596 308.677C668.224 317.565 680.076 327.536 690.964 338.587C730.714 378.627 758.769 429.656 782.269 483.384C812.086 551.402 834.477 624.64 870.57 688.519C899.735 739.913 943.942 787.373 998.584 795.654C1004.53 796.574 1010.68 796.772 1016.85 796.427C1076.87 792.798 1125.21 726.621 1169.49 691.871C1172.54 689.531 1175.59 687.371 1178.82 685.212C1224.06 656.246 1263.77 618.051 1311.8 582.589C1395.09 521.386 1497.95 487.521 1576.78 472.018C1659.92 455.624 1719.79 450.549 1764.36 451.936" stroke="white" stroke-width="0.2" stroke-miterlimit="10"/>
<path d="M-103.822 432.884C-91.5808 462.188 -65.6659 496.408 -24.3607 527.599C2.14221 547.547 33.6284 569.496 61.7768 584.028C82.9348 594.927 103.504 600.224 122.394 598.83C130.44 598.129 137.764 596.524 144.544 594.374C164.309 588.466 181.612 577.131 201.581 557.31C217.706 541.455 234.376 519.458 250.169 495.47C257.385 484.469 264.615 472.925 272.028 461.562C297.423 421.34 323.913 382.024 354.119 349.946C379.714 322.553 408.722 299.867 441.053 285.14C448.237 281.907 455.597 279.037 463.134 276.528C528.52 254.484 605.209 268.608 664.297 311.23C676.921 320.299 688.768 330.45 699.651 341.682C739.194 382.444 766.86 434.015 790.158 488.283C819.587 556.842 841.392 630.982 876.905 695.583C905.323 746.975 948.582 794.974 1002.65 803.615C1008.6 804.535 1014.75 804.913 1020.73 804.568C1080.36 801.48 1128.67 736.387 1171.5 700.007C1174.37 697.485 1177.42 695.145 1180.46 693.166C1223.89 662.208 1261.77 622.562 1308.89 586.555C1390.72 524.084 1494.07 492.568 1573.71 481.405C1656.91 469.708 1717.54 471.14 1763.62 478.494" stroke="white" stroke-width="0.2" stroke-miterlimit="10"/>
<path d="M-104.042 433.968C-90.7778 466.708 -65.3277 504.179 -23.5083 536.998C2.96923 557.849 34.6471 579.618 63.5675 593.248C85.3006 603.607 106.642 608.002 126.128 605.346C134.375 604.103 141.901 601.956 148.888 599.084C169.082 591.19 186.073 577.685 205.523 556.419C221.118 539.477 237.254 516.575 252.684 492.226C259.904 481.043 266.953 469.318 274.366 457.956C299.958 417.373 327.189 378.24 358.505 346.526C385.023 319.497 414.949 297.355 448.193 283.353C455.558 280.302 463.1 277.613 470.823 275.104C537.284 254.69 614.129 269.897 673 313.604C685.619 322.853 697.274 333.184 708.338 344.597C747.866 385.902 775.144 438.013 797.866 492.822C826.715 562.102 848.132 636.783 883.251 702.106C910.736 753.495 953.238 801.854 1006.74 810.854C1012.68 811.955 1018.64 812.332 1024.63 811.988C1083.86 809.621 1132.14 745.612 1173.52 707.602C1176.39 705.08 1179.26 702.559 1182.12 700.398C1223.92 667.629 1259.98 626.352 1306 589.8C1386.36 526.241 1490.21 497.075 1570.48 490.25C1653.73 483.251 1715.1 491.19 1762.88 504.511" stroke="white" stroke-width="0.2" stroke-miterlimit="10"/>
<path d="M-104.071 435.052C-89.9699 471.227 -64.7979 511.95 -22.4694 546.576C3.80116 568.15 36.044 589.74 65.5446 602.649C88.0396 612.468 110.147 616.142 130.047 612.041C138.683 610.258 146.23 607.388 153.419 603.975C173.85 594.274 190.72 578.421 209.656 555.526C224.727 537.319 240.323 513.693 255.385 489.161C262.429 477.617 269.473 466.073 276.895 454.349C302.684 413.405 330.844 374.455 363.083 343.105C390.523 316.44 421.368 294.843 455.343 281.385C462.895 278.335 470.618 275.826 478.331 273.679C545.871 254.713 622.675 271.366 681.713 315.796C694.326 325.226 705.976 335.737 716.849 347.331C756.169 389.357 783.246 442.01 805.58 497.36C834.035 567.362 854.877 642.583 889.41 708.807C916.149 760.195 957.708 808.912 1010.64 818.273C1016.58 819.373 1022.54 819.751 1028.52 819.587C1087.37 817.761 1135.42 754.835 1175.55 715.196C1178.24 712.493 1181.11 709.971 1183.79 707.63C1223.77 672.868 1258.01 630.141 1303.11 593.045C1382.01 528.216 1486.55 501.402 1567.43 499.095C1650.93 496.795 1712.86 511.239 1762.15 530.527" stroke="white" stroke-width="0.2" stroke-miterlimit="10"/>
<path d="M-104.282 435.955C-89.3443 475.565 -64.4554 519.72 -21.7994 555.974C4.45083 578.27 36.8803 599.86 67.1478 612.049C90.2179 621.327 113.098 624.1 133.593 618.736C142.431 616.412 150.179 613 157.575 608.865C178.43 597.359 195.175 579.337 213.602 554.634C228.148 535.16 243.013 510.99 257.904 485.916C264.766 474.191 271.815 462.466 279.238 450.742C305.037 409.437 334.124 370.67 367.286 339.684C395.655 313.202 427.412 292.33 462.3 279.598C470.033 276.728 477.752 274.401 485.833 272.435C554.26 255.097 631.407 272.836 690.419 318.169C703.028 327.779 714.673 338.472 725.54 350.246C764.654 392.994 791.347 446.007 813.474 502.08C841.349 572.803 861.797 648.745 895.751 715.691C921.743 767.076 962.358 816.153 1014.91 825.873C1020.66 826.973 1026.62 827.532 1032.6 827.367C1091.24 826.083 1139.08 764.422 1177.75 723.152C1180.44 720.449 1183.13 717.746 1185.63 715.224C1223.8 678.65 1256.4 634.292 1300.58 596.651C1378.03 530.735 1483.06 506.09 1564.56 508.301C1648.3 510.519 1710.79 531.65 1761.78 556.905" stroke="white" stroke-width="0.2" stroke-miterlimit="10"/>
<path d="M-104.501 437.038C-88.732 480.264 -64.1162 527.49 -20.9511 565.552C5.09217 588.57 38.0816 610.162 69.121 621.45C92.7662 630.188 116.418 632.059 137.696 625.433C146.735 622.567 154.872 618.614 162.288 613.756C183.572 600.263 200.005 580.072 217.912 553.923C231.929 533.364 246.26 508.288 260.787 482.852C267.655 470.946 274.522 459.04 281.945 447.316C307.941 405.65 337.775 366.886 372.041 336.445C401.333 310.326 434.2 289.819 469.623 277.992C477.537 275.303 485.437 273.157 493.513 271.372C563.02 255.483 640.131 274.486 699.113 320.902C711.53 330.693 723.356 341.567 734.032 353.521C773.13 396.812 799.43 450.546 821.173 506.979C848.659 578.243 868.528 654.907 901.896 722.754C927.146 773.957 967 823.573 1018.79 833.834C1024.54 834.933 1030.5 835.492 1036.28 835.508C1094.54 834.765 1142.35 774.187 1179.76 731.288C1182.27 728.404 1184.77 725.701 1187.46 722.998C1224 684.613 1254.6 638.623 1297.86 600.438C1373.85 533.253 1479.56 510.958 1561.68 517.689C1645.48 524.424 1708.53 552.422 1761.41 583.464" stroke="white" stroke-width="0.2" stroke-miterlimit="10"/>
<path d="M-104.713 437.941C-88.1068 484.603 -63.769 535.08 -20.0948 574.95C5.92811 598.691 39.1092 620.102 70.9104 630.85C95.3174 639.048 119.549 640.199 141.427 632.128C150.856 628.721 159.013 624.046 166.631 618.646C188.339 603.348 204.652 580.808 221.858 553.03C235.35 531.205 249.141 505.405 263.301 479.788C269.987 467.7 276.859 455.614 284.282 443.89C310.288 401.862 341.05 363.281 376.426 333.205C406.641 307.45 440.426 287.488 476.761 276.385C484.857 273.878 492.939 271.913 501.201 270.129C571.782 255.868 649.044 276.136 708.006 323.276C720.417 333.247 732.239 344.302 742.91 356.437C781.801 400.449 807.904 454.545 829.254 511.699C856.16 583.684 875.634 661.07 908.609 729.639C933.113 780.839 972.018 830.995 1023.24 841.435C1028.99 842.534 1034.76 843.273 1040.74 843.109C1098.6 842.907 1146.19 783.593 1182.34 739.064C1184.67 735.999 1187.18 733.115 1189.68 730.412C1224.41 690.035 1253.37 642.595 1295.52 603.865C1370.05 535.591 1476.26 515.466 1559 526.716C1643.04 538.149 1706.65 572.654 1761.05 609.662" stroke="white" stroke-width="0.2" stroke-miterlimit="10"/>
<path d="M-104.744 439.025C-87.3011 489.122 -63.0548 542.851 -19.0531 584.348C6.75781 608.992 40.3173 630.224 72.7038 640.07C97.6859 647.727 122.69 647.976 145.158 638.823C154.788 634.875 163.148 629.658 170.972 623.537C192.918 606.432 209.105 581.723 225.797 552.318C238.765 529.227 251.83 502.702 265.626 476.722C272.131 464.454 279.003 452.367 286.431 440.462C312.634 398.074 344.324 359.676 380.623 329.964C411.761 304.573 446.464 285.155 483.712 274.778C491.99 272.452 500.252 270.668 508.697 269.065C580.352 256.434 657.583 277.786 716.519 325.829C728.926 335.981 740.555 347.215 751.408 359.531C790.284 404.086 815.806 458.903 836.768 516.598C863.28 589.305 882.366 667.231 914.569 736.701C938.327 787.9 976.289 838.414 1026.94 849.214C1032.5 850.494 1038.27 851.052 1044.25 851.068C1101.72 851.588 1149.27 793.358 1183.99 747.019C1186.31 743.953 1188.64 740.888 1190.96 738.004C1224.06 695.815 1251.01 646.744 1292.25 607.469C1365.13 537.926 1472.21 520.153 1555.57 535.921C1639.86 551.872 1704.02 593.063 1760.12 636.039" stroke="white" stroke-width="0.2" stroke-miterlimit="10"/>
<path d="M-104.959 440.108C-86.4929 493.641 -62.7113 550.621 -18.3872 593.926C7.59006 619.293 41.3412 640.345 74.4946 649.47C100.052 656.587 125.828 655.935 148.892 645.519C158.724 641.029 167.471 635.271 175.317 628.427C197.691 609.336 213.752 582.459 229.744 551.426C242.374 527.068 254.713 499.819 268.141 473.657C274.464 461.208 281.342 448.94 288.769 437.036C314.982 394.286 347.601 356.072 384.823 326.723C416.888 301.516 452.691 282.823 490.478 273.17C498.938 271.025 507.387 269.242 515.821 268C588.555 256.817 665.938 279.435 724.844 328.562C737.245 338.895 748.87 350.31 759.53 362.806C798.2 408.083 823.525 463.26 844.098 521.496C870.217 594.925 888.728 673.392 920.345 743.764C943.356 794.96 980.375 845.833 1030.46 856.993C1036.02 858.273 1041.78 859.011 1047.57 859.027C1104.84 860.088 1152.18 802.942 1185.44 755.153C1187.58 751.907 1189.91 748.842 1192.05 745.776C1223.34 701.595 1248.47 651.073 1288.97 611.254C1360.39 540.623 1468.15 525.02 1551.95 545.306C1636.48 565.775 1701.21 613.653 1758.81 662.595" stroke="white" stroke-width="0.2" stroke-miterlimit="10"/>
<path d="M-105.171 441.012C-85.8691 497.979 -62.1791 558.211 -17.5324 603.324C8.23782 629.413 42.3673 650.285 76.2825 658.871C102.602 665.448 128.958 664.075 152.622 652.215C162.843 647.184 171.611 640.703 179.658 633.318C202.457 612.421 218.21 583.194 233.688 550.533C245.794 524.91 257.593 496.937 270.658 470.412C276.986 457.782 283.682 445.333 291.114 433.248C317.524 390.138 350.884 352.106 389.216 323.122C422.205 298.278 458.925 280.131 497.626 271.203C506.08 269.239 514.711 267.636 523.513 266.576C597.321 257.023 674.668 280.905 733.554 330.754C745.95 341.268 757.569 352.863 768.225 365.54C806.874 411.54 831.624 467.258 851.996 526.035C877.539 600.005 895.656 679.193 926.875 750.467C949.14 801.661 985.402 852.894 1034.73 864.413C1040.29 865.693 1045.87 866.431 1051.84 866.628C1108.72 868.23 1156.02 812.349 1187.84 762.749C1189.98 759.502 1192.13 756.256 1194.08 753.009C1223.93 707.018 1246.87 654.864 1286.46 614.319C1356.24 542.238 1464.87 528.986 1549.27 553.972C1634.06 578.958 1699.34 633.523 1758.64 688.433" stroke="white" stroke-width="0.2" stroke-miterlimit="10"/>
<path d="M-105.203 442.096C-85.0691 502.68 -61.6521 565.983 -16.4964 612.903C9.25358 639.715 43.7564 660.588 78.2568 668.272C105.151 674.308 132.466 672.035 156.726 658.912C167.148 653.339 176.118 646.317 184.372 638.209C207.6 615.327 223.223 584.112 238 549.823C249.576 523.114 260.654 494.235 273.543 467.349C279.689 454.538 286.39 441.908 293.823 429.823C320.243 386.352 354.723 348.323 393.972 319.883C427.884 295.403 465.522 277.8 504.954 269.417C513.59 267.634 522.402 266.212 531.2 265.333C606.092 257.047 683.585 282.375 742.445 333.128C754.836 343.822 766.451 355.598 776.915 368.456C815.362 414.997 839.91 471.256 859.888 530.755C885.038 605.446 902.761 685.356 933.213 757.351C954.918 808.544 990.045 860.315 1038.99 872.194C1044.55 873.474 1050.12 874.393 1055.9 874.59C1112.4 876.732 1159.67 821.935 1190.03 770.886C1192 767.458 1193.95 764.212 1195.92 760.784C1223.95 712.98 1245.25 659.196 1283.74 618.106C1352.24 544.938 1461.37 533.855 1546.4 563.179C1631.43 592.683 1697.27 653.935 1758.28 714.812" stroke="white" stroke-width="0.2" stroke-miterlimit="10"/>
<path d="M-105.419 443.179C-84.4484 507.198 -61.1228 573.753 -15.8262 622.3C9.90344 649.835 44.7846 670.528 80.0519 677.491C107.526 682.807 135.608 679.812 160.463 665.426C171.088 659.312 180.446 651.749 188.72 642.919C212.372 618.23 227.875 584.666 241.951 548.749C253.19 520.775 263.541 491.171 276.062 464.103C282.026 451.111 288.728 438.482 296.165 426.216C322.782 382.383 358.003 344.537 398.362 316.462C433.197 292.346 471.94 275.288 512.098 267.629C520.916 266.027 529.91 264.787 538.894 263.909C614.86 257.252 692.323 283.664 751.152 335.5C763.538 346.375 775.147 358.332 785.606 371.37C824.033 418.634 848.193 475.434 867.787 535.294C892.357 610.706 909.879 691.157 939.559 764.053C960.522 815.063 994.7 867.374 1043.07 879.613C1048.44 881.073 1054.02 881.811 1059.8 882.189C1115.9 884.873 1163.32 831.341 1192.06 778.48C1194.02 775.052 1195.81 771.444 1197.58 768.016C1223.81 718.22 1243.28 662.985 1280.85 621.35C1347.89 547.094 1457.89 538.182 1543.17 572.023C1628.63 606.046 1694.84 673.984 1757.35 741.008" stroke="white" stroke-width="0.2" stroke-miterlimit="10"/>
<path d="M-105.632 444.082C-83.8253 511.536 -60.7727 581.162 -14.9721 631.698C30.8285 682.234 106.072 707.917 164.193 672.122C230.668 631.29 245.291 536.111 278.573 461.039C324.001 358.898 417.399 283.269 519.043 266.203C620.686 249.137 727.568 291.349 794.099 374.646C880.462 482.75 893.242 638.894 945.7 771.297C968.18 828.093 1006.84 886.921 1063.67 890.33C1119.57 893.736 1166.59 841.106 1194.07 786.797C1221.54 732.306 1238.96 670.561 1278.12 625.318C1343.7 549.793 1454.39 543.051 1540.28 581.591C1625.99 620.132 1692.77 694.756 1756.97 767.747" stroke="white" stroke-width="0.2" stroke-miterlimit="10"/>
</svg>
