<svg width="15" height="15" viewBox="0 0 15 15" fill="none" xmlns="http://www.w3.org/2000/svg">
<g clip-path="url(#clip0_571_62511)">
<path d="M7.15642 1.19336C3.8626 1.19336 1.19531 3.86661 1.19531 7.16044C1.19531 10.4543 3.8626 13.1275 7.15642 13.1275C10.4562 13.1275 13.1295 10.4543 13.1295 7.16044C13.1295 3.86661 10.4562 1.19336 7.15642 1.19336ZM7.16239 11.9341C4.52494 11.9341 2.38873 9.79789 2.38873 7.16044C2.38873 4.52299 4.52494 2.38678 7.16239 2.38678C9.79984 2.38678 11.9361 4.52299 11.9361 7.16044C11.9361 9.79789 9.79984 11.9341 7.16239 11.9341Z" fill="white"/>
<path d="M7.45951 4.17676H6.56445V7.757L9.69717 9.63663L10.1447 8.90268L7.45951 7.30947V4.17676Z" fill="white"/>
</g>
<defs>
<clipPath id="clip0_571_62511">
<rect width="14.321" height="14.321" fill="white"/>
</clipPath>
</defs>
</svg>
