<svg width="320" height="384" viewBox="0 0 320 384" fill="none" xmlns="http://www.w3.org/2000/svg">
<g opacity="0.35">
<path d="M-128.461 73.2628C-126.717 48.9515 -97.8972 35.171 -72.837 46.7086C-54.9908 54.9659 -42.2772 72.2143 -31.5753 88.7046C-21.3083 104.51 -11.4672 120.85 2.04498 134.468C15.5572 148.086 33.8211 158.843 51.1899 158.557C86.5402 158.031 99.4229 115.342 133.173 109.321C160.708 104.426 192.445 126.686 209.802 152.73C227.159 178.774 234.326 208.257 244.589 236.593C254.852 264.929 270.191 294.74 296.805 312.193C321.358 328.314 350.793 330.589 376.769 327.561C438.783 320.273 478.219 332.552 504.427 280.875" stroke="#98774A" stroke-width="0.2" stroke-miterlimit="10"/>
<path d="M-128.116 72.0116C-127.379 61.3448 -121.07 52.8635 -112.399 47.8855C-101.404 41.5374 -86.5851 40.4282 -72.9354 47.0391C-60.3881 53.1189 -50.5511 63.714 -42.0408 75.3372C-38.7759 79.838 -35.6898 84.4824 -32.7278 89.0733C-28.799 95.1856 -24.8839 101.347 -20.728 107.392C-14.1975 116.891 -7.19278 125.932 1.13847 133.945C4.20069 136.923 7.51728 139.735 11.0399 142.305C22.8006 150.97 36.442 156.86 49.6169 156.421C52.7626 156.344 55.6804 155.837 58.5152 155.129C71.7599 151.685 81.7642 142.149 91.9336 132.519C103.45 121.538 115.09 110.611 131.406 108.106C137.366 107.146 143.521 107.485 149.664 108.868C171.708 113.749 193.648 131.777 207.042 152.078C209.099 155.174 211.005 158.315 212.76 161.502C225.954 185.028 232.571 210.738 241.665 235.529C250.205 258.812 262.354 283.102 281.352 300.468C285.338 304.121 289.633 307.41 294.162 310.359C318.637 326.005 347.676 327.447 373.658 325.141C437.122 319.367 478.99 329.881 505.35 277.892" stroke="#98774A" stroke-width="0.2" stroke-miterlimit="10"/>
<path d="M-127.783 70.7067C-126.985 60.068 -120.407 51.8696 -111.744 47.1657C-100.811 41.289 -86.2409 40.5704 -73.046 47.3159C-60.8157 53.5346 -51.33 64.1426 -43.0813 75.7067C-39.8785 80.1802 -36.8544 84.7974 -33.9543 89.361C-30.0255 95.4726 -26.1104 101.633 -21.9272 107.579C-15.2936 116.956 -8.14497 125.727 0.157722 133.34C3.26086 136.17 6.54267 138.857 9.96849 141.274C21.5763 149.487 34.9406 154.87 47.8316 154.199C50.9288 154.046 53.7842 153.513 56.5567 152.778C69.5794 149.129 79.5066 139.617 89.6336 130.136C101.231 119.358 113.132 108.988 129.413 106.855C135.393 106.071 141.458 106.481 147.574 107.963C169.397 113.135 190.923 131.149 204.193 151.394C206.188 154.463 208.094 157.604 209.849 160.79C222.857 184.233 229.516 209.792 238.665 234.384C247.295 257.592 259.637 281.686 278.703 298.804C282.703 302.407 286.949 305.62 291.581 308.447C315.978 323.617 344.744 324.281 370.622 322.594C435.646 318.436 479.834 327.083 506.346 274.783" stroke="#98774A" stroke-width="0.2" stroke-miterlimit="10"/>
<path d="M-127.449 69.4449C-126.666 58.8566 -119.792 50.8424 -111.101 46.5377C-100.155 41.1097 -85.957 40.728 -73.141 47.5856C-61.2277 53.9431 -52.0931 64.5642 -44.0305 76.0469C-40.9034 80.5425 -37.9412 85.1325 -35.0411 89.6956C-31.1743 95.7798 -27.2454 101.891 -23.0349 107.737C-16.3604 116.965 -9.06783 125.466 -0.73172 132.708C2.33666 135.412 5.59736 137.923 9.06404 140.193C20.5328 147.903 33.6683 152.857 46.2273 151.878C49.2139 151.622 52.0691 151.089 54.7794 150.328C67.5666 146.522 77.3685 136.958 87.5772 127.68C99.2561 117.105 111.432 107.242 127.603 105.504C133.541 104.867 139.565 105.426 145.604 106.93C167.193 112.443 188.305 130.442 201.389 150.605C203.385 153.674 205.229 156.788 206.983 159.973C219.881 183.311 226.507 208.742 235.697 233.184C244.431 256.269 256.876 280.239 276.037 297.01C280.064 300.514 284.324 303.678 288.907 306.429C313.226 321.123 341.658 320.982 367.48 319.99C434.017 317.372 480.635 324.254 507.19 271.54" stroke="#98774A" stroke-width="0.2" stroke-miterlimit="10"/>
<path d="M-127.14 68.1913C-126.357 57.6043 -119.216 49.8728 -110.532 45.8419C-99.634 40.8358 -85.7595 40.8669 -73.3224 47.8365C-61.7879 54.3062 -52.9288 64.9177 -45.1278 76.3415C-42.0627 80.8099 -39.1762 85.4219 -36.3243 89.9085C-32.5195 95.9654 -28.5906 102.076 -24.2908 107.85C-17.5269 117.005 -10.1252 125.111 -1.7694 132.029C1.33987 134.586 4.56577 136.971 7.93564 139.088C19.3272 146.324 32.11 150.795 44.3853 149.583C47.3096 149.301 50.1163 148.692 52.7023 147.877C65.2676 143.867 74.9444 134.25 85.1591 125.197C96.9332 114.776 109.295 105.491 125.493 104.153C131.39 103.664 137.385 104.321 143.383 105.973C164.751 111.777 185.511 129.789 198.348 149.843C200.281 152.884 202.125 155.998 203.88 159.183C216.592 182.439 223.211 207.643 232.567 231.987C241.404 254.949 254.028 278.773 273.258 295.296C277.298 298.751 281.585 301.816 286.119 304.491C310.375 318.659 338.507 317.839 364.239 317.416C432.474 316.418 481.348 321.407 508.043 268.431" stroke="#98774A" stroke-width="0.2" stroke-miterlimit="10"/>
<path d="M-126.764 66.9493C-125.933 56.4395 -118.573 48.9145 -109.848 45.2335C-98.9361 40.6758 -85.385 41.1196 -73.3267 48.2013C-62.109 54.8097 -53.6009 65.4343 -45.9859 76.7768C-43.0448 81.1912 -40.1583 85.8028 -37.3821 90.3115C-33.5772 96.3678 -29.6347 102.428 -25.3212 108.152C-18.5164 117.159 -10.9709 124.996 -2.58174 131.542C0.492748 133.972 3.75952 136.21 7.09457 138.202C18.3469 144.936 30.839 148.95 42.8444 147.457C45.7202 147.099 48.4646 146.463 51.0021 145.572C63.3457 141.357 72.8836 131.738 83.1182 122.86C94.9741 112.642 107.597 103.913 123.76 102.947C129.616 102.606 135.584 103.362 141.492 105.085C162.563 111.203 182.972 129.227 195.622 149.199C197.556 152.24 199.338 155.327 201.044 158.436C213.571 181.609 220.232 206.662 229.629 230.857C238.556 253.744 251.311 277.346 270.608 293.622C274.661 297.027 278.962 300.042 283.523 302.619C307.715 316.262 335.561 314.713 361.176 314.958C430.972 315.576 482.103 318.672 508.888 265.357" stroke="#98774A" stroke-width="0.2" stroke-miterlimit="10"/>
<path d="M-126.413 65.6707C-125.582 55.1605 -117.938 47.8675 -109.185 44.5847C-98.3338 40.4969 -85.0776 41.2545 -73.411 48.4983C-62.5094 55.2463 -54.3385 65.836 -46.9988 77.1703C-44.1333 81.6075 -41.3088 86.1924 -38.519 90.6521C-34.7761 96.6818 -30.8336 102.743 -26.4792 108.319C-19.5714 117.205 -11.9438 124.746 -3.52092 130.921C-0.405416 133.204 2.76472 135.29 6.06515 137.156C17.179 143.389 29.3814 146.946 41.1665 145.248C43.9803 144.863 46.6145 144.124 49.1521 143.234C61.2134 138.786 70.6762 129.188 81.0079 120.463C92.9609 110.396 105.785 102.194 121.901 101.649C127.716 101.456 133.657 102.31 139.538 104.132C160.39 110.542 180.386 128.554 192.851 148.446C194.784 151.487 196.566 154.574 198.211 157.656C210.627 180.727 217.252 205.657 226.704 229.655C235.734 252.422 248.605 275.855 268.046 291.862C272.114 295.218 276.38 298.108 280.969 300.586C305.084 313.756 332.648 311.477 358.174 312.291C429.662 314.575 483.054 315.778 509.937 262.115" stroke="#98774A" stroke-width="0.2" stroke-miterlimit="10"/>
<path d="M-126.034 64.3638C-125.215 53.8999 -117.286 46.837 -108.475 43.8528C-97.6068 40.2113 -84.7329 41.3542 -73.4572 48.7613C-62.9327 55.6232 -55.1128 66.2294 -47.8972 77.5129C-45.0937 81.9243 -42.3313 86.4836 -39.6172 90.9669C-35.8744 96.9981 -31.9802 102.984 -27.55 108.54C-20.6011 117.28 -12.7671 124.58 -4.37179 130.357C-1.29067 132.516 1.9208 134.454 5.20059 136.146C16.177 141.878 28.0912 144.98 39.6096 142.999C42.3757 142.538 44.9485 141.772 47.4246 140.854C59.2681 136.199 68.6098 126.545 78.9519 118.04C90.9914 108.171 104.082 100.522 120.167 100.347C125.956 100.253 131.857 101.255 137.649 103.149C158.271 109.9 177.856 127.903 190.196 147.746C192.067 150.762 193.849 153.849 195.494 156.932C207.723 179.928 214.388 204.717 223.893 228.524C233.011 251.225 246.073 274.471 265.523 290.208C269.604 293.515 273.898 296.308 278.439 298.71C302.48 311.407 329.827 308.423 355.195 309.828C428.433 313.853 483.986 313.057 511.038 259.06" stroke="#98774A" stroke-width="0.2" stroke-miterlimit="10"/>
<path d="M-125.659 63.0365C-124.79 52.6458 -116.625 45.7369 -107.845 43.1234C-97.0216 39.9015 -84.4063 41.4837 -73.5078 49.0049C-63.3124 56.0568 -55.8161 66.581 -48.8624 77.8095C-46.121 82.1952 -43.4343 86.7782 -40.7686 91.1864C-37.0879 97.1923 -33.1181 103.157 -28.6742 108.665C-21.6221 117.286 -13.6918 124.243 -5.27565 129.699C-2.21522 131.682 0.961932 133.496 4.20746 135.063C15.0466 140.295 26.7345 142.967 37.9244 140.677C40.5807 140.112 43.1541 139.346 45.5824 138.352C57.2081 133.489 66.4771 123.854 76.8432 115.521C88.983 105.801 102.277 98.6773 118.394 98.9005C124.205 98.9801 130.017 100.054 135.721 102.02C156.126 109.063 175.299 127.058 187.453 146.826C189.324 149.842 191.044 152.903 192.689 155.987C204.807 178.886 211.435 203.556 221.042 227.247C230.261 249.833 243.44 272.914 263.021 288.435C267.117 291.694 271.425 294.438 275.932 296.715C299.912 308.891 327.017 305.3 352.314 307.223C427.304 312.99 485.018 310.194 512.178 255.835" stroke="#98774A" stroke-width="0.2" stroke-miterlimit="10"/>
<path d="M-125.319 61.7159C-124.449 51.3223 -116.073 44.6663 -107.188 42.4279C-96.4097 39.626 -84.1015 41.5715 -73.5942 49.2562C-63.7143 56.449 -56.5692 66.9897 -49.8154 78.1898C-47.1498 82.5991 -44.5872 87.1295 -41.8596 91.5656C-38.1927 97.6222 -34.2713 103.513 -29.7862 108.873C-22.6308 117.375 -14.618 124.038 -6.2292 129.096C-3.14109 130.981 0.0154355 132.62 3.22671 134.062C13.9905 138.82 25.3283 141.009 36.2378 138.485C38.8327 137.893 41.3583 137.051 43.6631 136.003C55.0708 130.932 64.2051 121.29 74.5952 113.129C86.8214 103.608 100.382 97.0365 116.468 97.631C122.238 97.8583 128.025 99.0311 133.688 101.145C153.863 108.53 172.623 126.516 184.591 146.208C186.4 149.198 188.12 152.26 189.764 155.345C201.696 178.169 208.363 202.697 218.023 226.197C227.282 248.641 240.701 271.61 260.366 286.839C264.476 290.049 268.749 292.667 273.332 294.922C297.239 306.625 324.114 302.379 349.265 304.844C426.006 312.353 485.945 307.582 513.213 252.863" stroke="#98774A" stroke-width="0.2" stroke-miterlimit="10"/>
<path d="M-124.911 60.4123C-124.053 50.0653 -115.393 43.6396 -106.45 41.7004C-95.6682 39.3948 -83.7293 41.6771 -73.5997 49.476C-64.0355 56.8098 -57.228 67.3177 -50.7362 78.4627C-48.1327 82.8463 -45.6324 87.3511 -42.9669 91.7614C-39.3621 97.7927 -35.4271 103.635 -30.8662 108.974C-23.6832 117.379 -15.5119 123.725 -7.08837 128.412C-4.02088 130.123 -0.8366 131.664 2.27842 132.953C12.8914 137.26 23.9547 138.943 34.5975 136.135C37.1446 135.467 39.5467 134.571 41.8522 133.522C53.042 128.244 62.0416 118.595 72.5177 110.633C84.8305 101.31 98.6085 95.2156 114.65 96.2309C120.381 96.6059 126.14 97.8774 131.715 100.064C151.673 107.742 170.021 125.719 181.802 145.335C183.611 148.326 185.269 151.362 186.851 154.421C198.609 177.121 205.302 201.556 215.002 224.914C224.349 247.291 237.884 270.096 257.633 285.031C261.77 288.143 266.058 290.713 270.607 292.843C294.44 304.073 321.085 299.17 346.09 302.177C424.679 311.582 486.699 304.606 514.125 249.602" stroke="#98774A" stroke-width="0.2" stroke-miterlimit="10"/>
<path d="M-124.578 59.0847C-123.657 48.7617 -114.773 42.5399 -105.8 40.9988C-95.0638 39.1136 -83.3842 41.8358 -73.6324 49.7491C-64.4462 57.1971 -57.9281 67.7483 -51.6227 78.8155C-49.1571 83.1958 -46.6569 87.7017 -43.9915 92.113C-40.449 98.1189 -36.452 103.989 -31.8635 109.231C-24.5773 117.517 -16.323 123.568 -7.86473 127.883C-4.76951 129.496 -1.66779 130.835 1.48873 131.977C11.9646 135.782 22.7534 136.959 33.1641 133.994C35.6498 133.299 38.0041 132.326 40.2618 131.201C51.1716 125.688 60.0984 116.059 70.5985 108.269C83.0114 99.0949 96.9796 93.5765 113.052 94.9903C118.743 95.5132 124.476 96.8835 130.024 99.1687C149.75 107.189 167.686 125.157 179.281 144.697C181.028 147.662 182.685 150.699 184.267 153.758C195.901 176.41 202.508 200.65 212.324 223.843C221.773 246.104 235.486 268.77 255.319 283.412C259.47 286.476 263.772 288.997 268.287 291.001C292.06 301.709 318.524 296.225 343.334 299.699C423.723 310.924 487.922 301.895 515.394 246.503" stroke="#98774A" stroke-width="0.2" stroke-miterlimit="10"/>
<path d="M-124.201 57.7756C-123.292 47.4994 -114.123 41.5082 -105.154 40.2398C-94.4636 38.7753 -83.1054 41.9109 -73.7317 49.9386C-64.8616 57.5278 -58.7434 68.0193 -52.6382 79.0581C-50.2349 83.4127 -47.8105 87.9421 -45.1936 92.2783C-41.6512 98.2856 -37.7026 104.081 -33.0866 109.225C-25.759 117.365 -17.3598 123.147 -8.86653 127.091C-5.79185 128.53 -2.67603 129.82 0.397975 130.76C10.7368 134.064 21.2995 134.81 31.3814 131.535C33.8193 130.764 36.1122 129.764 38.3085 128.611C49.0003 122.891 57.8681 113.232 68.3783 105.664C80.8778 96.6883 95.1257 91.674 111.153 93.5091C116.817 94.1306 122.51 95.649 127.97 98.0065C147.478 106.32 165.002 124.279 176.41 143.744C178.157 146.709 179.814 149.747 181.334 152.78C192.78 175.357 199.44 199.405 209.344 222.531C218.895 244.677 232.725 267.177 252.627 281.576C256.793 284.59 261.136 286.963 265.59 288.942C289.249 299.324 315.51 293.084 340.187 297.051C422.411 310.223 488.694 298.988 516.337 243.261" stroke="#98774A" stroke-width="0.2" stroke-miterlimit="10"/>
<path d="M-123.861 56.466C-122.95 46.187 -113.558 40.3998 -104.498 39.5567C-93.8524 38.5131 -82.8159 42.0623 -73.8205 50.2045C-65.2803 57.9843 -59.5001 68.443 -53.5952 79.4533C-51.2678 83.8314 -48.892 88.2857 -46.3509 92.6455C-42.8708 98.6274 -38.9223 104.424 -34.2166 109.498C-26.7856 117.517 -18.2347 122.758 -9.78873 126.626C-6.76201 127.989 -3.65296 129.055 -0.551064 129.896C9.65075 132.698 19.9254 132.988 29.7268 129.478C32.0549 128.604 34.3484 127.603 36.4211 126.397C46.8949 120.469 55.6279 110.802 66.162 103.407C78.748 94.6305 93.1996 90.1432 109.258 92.3772C114.882 93.1468 120.534 94.8134 125.967 97.27C145.244 105.926 162.355 123.876 173.638 143.292C175.385 146.258 176.981 149.269 178.5 152.303C189.835 174.782 196.458 198.71 206.415 221.645C216.054 243.724 230.077 266.036 250.049 280.19C254.229 283.156 258.525 285.453 263.068 287.36C286.695 297.12 312.734 290.448 337.229 294.832C421.288 309.951 489.657 296.508 517.408 240.421" stroke="#98774A" stroke-width="0.2" stroke-miterlimit="10"/>
<path d="M-123.48 55.1424C-122.519 44.9371 -112.904 39.354 -103.8 38.8601C-93.214 38.2871 -82.4099 42.1781 -73.8067 50.4843C-65.5829 58.4054 -60.1409 68.8312 -54.4984 79.7862C-52.2332 84.1385 -49.9334 88.6164 -47.3788 92.9278C-43.8988 98.911 -39.9367 104.66 -35.2172 109.685C-27.7447 117.558 -19.1034 122.728 -10.5674 126.027C-7.48542 127.191 -4.42427 128.181 -1.41857 128.871C8.63264 131.22 18.6329 131.003 28.1676 127.21C30.4342 126.308 32.6178 125.204 34.6911 123.998C44.947 117.861 53.5451 108.188 64.1651 100.992C76.8513 92.3654 91.5067 88.4055 107.52 91.0612C113.104 91.9788 118.729 93.7444 124.073 96.2734C143.119 105.272 159.893 123.191 170.913 142.553C172.598 145.493 174.193 148.505 175.65 151.513C186.798 173.917 193.46 197.702 203.471 220.445C213.212 242.407 227.351 264.553 247.47 278.441C251.663 281.358 255.973 283.606 260.496 285.338C283.987 294.597 309.908 287.371 334.208 292.222C420.136 309.415 490.619 293.664 518.48 237.216" stroke="#98774A" stroke-width="0.2" stroke-miterlimit="10"/>
<path d="M-123.068 53.7894C-122.106 43.5815 -112.205 38.2294 -103.057 38.0851C-92.5176 37.9334 -82.0357 42.2385 -73.8111 50.6593C-65.9659 58.6949 -60.8139 69.1641 -55.3582 80.0411C-53.1552 84.3676 -50.9177 88.8197 -48.439 93.1546C-45.0214 99.1123 -41.0593 104.862 -36.2984 109.74C-28.7224 117.494 -19.9978 122.368 -11.4266 125.294C-8.37878 126.334 -5.33804 127.149 -2.29067 127.69C7.62373 129.537 17.3359 128.862 26.5901 124.835C28.8089 123.857 30.931 122.726 32.9565 121.443C42.9323 115.072 51.4576 105.418 62.1015 98.3953C74.8741 89.9675 89.7952 86.562 105.791 89.5409C111.334 90.6067 116.933 92.4713 122.188 95.0726C141.002 104.414 157.376 122.275 168.21 141.56C169.894 144.501 171.427 147.487 172.885 150.496C183.859 172.775 190.546 196.467 200.597 219.066C210.44 240.912 224.757 262.92 244.884 276.536C249.092 279.404 253.429 281.554 257.905 283.21C281.337 291.945 307 284.16 331.18 289.456C419.151 308.853 491.701 290.717 519.733 233.935" stroke="#98774A" stroke-width="0.2" stroke-miterlimit="10"/>
<path d="M-122.661 52.4991C-121.71 42.3382 -111.586 37.1905 -102.395 37.3958C-91.9635 37.6389 -81.6799 42.4119 -73.8962 50.9206C-66.3678 59.0976 -61.5679 69.5832 -56.3611 80.3552C-54.2962 84.6785 -52.0589 89.1315 -49.6287 93.3911C-46.2734 99.3233 -42.2977 105.025 -37.4608 109.881C-29.857 117.537 -20.9732 122.093 -12.3667 124.648C-9.33926 125.512 -6.27059 126.229 -3.31939 126.618C6.45825 127.962 15.9444 126.856 24.9317 122.545C27.089 121.54 29.1633 120.332 31.1273 119.022C40.885 112.443 49.3373 102.81 60.0187 95.9101C72.8915 87.6322 88.0161 84.7546 104.028 88.1824C109.607 89.3738 115.041 91.3332 120.332 94.0606C138.927 103.696 154.874 121.597 165.521 140.806C167.143 143.721 168.676 146.707 170.147 149.667C180.995 171.897 187.66 195.42 197.826 217.853C207.758 239.632 222.205 261.423 242.465 274.822C246.7 277.592 251.052 279.692 255.542 281.299C278.9 289.56 304.37 281.242 328.43 286.983C417.994 308.448 492.674 287.952 520.754 230.783" stroke="#98774A" stroke-width="0.2" stroke-miterlimit="10"/>
<path d="M-122.326 51.1844C-121.325 41.0971 -111.025 36.0776 -101.729 36.6595C-91.3436 37.3244 -81.3826 42.5119 -73.9158 51.1622C-66.7181 59.5302 -62.3052 69.9068 -57.2507 80.7265C-55.2482 85.0239 -53.087 89.5006 -50.657 93.7612C-47.3019 99.6947 -43.3263 105.398 -38.4617 110.156C-30.7542 117.692 -21.7868 121.952 -13.1448 124.134C-10.0894 124.9 -7.04108 125.441 -4.12392 125.705C5.50341 126.596 14.7154 124.982 23.436 120.388C25.5455 119.306 27.4963 118.044 29.3987 116.707C38.9386 109.92 47.2698 100.23 57.9613 93.5526C70.9208 85.4741 86.2628 83.0751 102.229 86.9252C107.768 88.265 113.175 90.3235 118.363 93.1727C136.726 103.151 152.274 120.994 162.733 140.127C164.355 143.042 165.826 146.003 167.297 148.963C177.958 171.118 184.661 194.498 194.867 216.788C204.9 238.45 219.513 260.152 239.809 273.18C244.058 275.901 248.363 277.926 252.88 279.434C276.166 287.22 301.455 278.321 325.333 284.48C416.829 308.048 493.595 285.114 521.846 227.61" stroke="#98774A" stroke-width="0.2" stroke-miterlimit="10"/>
<path d="M-121.922 49.8814C-120.92 39.7918 -110.335 35.0036 -101.01 35.985C-90.6563 37.0225 -81.032 42.6741 -73.9445 51.4392C-67.126 59.922 -63.0035 70.3418 -58.198 81.0566C-56.2716 85.3776 -54.159 89.7789 -51.7912 94.0136C-48.4985 99.9215 -44.5092 105.576 -39.6169 110.237C-31.8057 117.653 -22.7547 121.617 -14.0771 123.426C-11.0559 124.066 -8.0278 124.433 -5.08261 124.597C4.40815 124.985 13.3322 122.913 21.7721 118.085C23.7718 116.899 25.7231 115.637 27.5778 114.223C36.8374 107.201 45.0957 97.5314 55.8731 91.0541C68.9189 83.175 84.5265 81.3312 100.461 85.5544C105.959 87.0426 111.34 89.2002 116.5 92.1488C134.658 102.372 149.765 120.304 160.099 139.388C161.659 142.277 163.192 145.265 164.6 148.199C175.15 170.255 181.754 193.488 192.076 215.612C202.198 237.207 216.94 258.693 237.369 271.503C241.633 274.175 245.965 276.101 250.449 277.484C273.661 284.794 298.756 275.362 322.451 281.94C415.776 307.733 494.64 282.313 523.064 224.475" stroke="#98774A" stroke-width="0.2" stroke-miterlimit="10"/>
<path d="M-121.585 48.5656C-120.595 38.523 -109.787 33.9394 -100.356 35.2978C-90.049 36.7575 -80.7478 42.8241 -74.0534 51.7536C-67.5523 60.378 -63.7686 70.7649 -59.1639 81.451C-57.2999 85.7461 -55.2634 90.171 -52.958 94.3798C-49.6655 100.289 -45.7385 105.918 -40.7563 110.507C-32.9035 117.777 -23.7066 121.471 -14.9933 122.908C-11.9302 123.4 -8.93612 123.64 -6.08703 123.652C3.32943 123.564 11.9035 121.006 20.0766 115.894C22.0147 114.681 23.9183 113.343 25.7114 111.901C34.7531 104.671 42.9386 95.0216 53.6775 88.6907C66.8237 80.9618 82.6347 79.6465 98.5855 84.3193C104.057 85.9065 109.397 88.2128 114.468 91.2339C132.332 101.774 147.1 119.675 157.247 138.682C158.807 141.572 160.277 144.533 161.624 147.441C171.985 169.422 178.629 192.511 188.991 214.492C199.152 235.943 214.136 257.316 234.587 269.804C238.865 272.428 243.225 274.255 247.661 275.562C270.801 282.397 295.688 272.482 319.228 279.38C414.367 307.449 495.347 279.489 523.882 221.291" stroke="#98774A" stroke-width="0.2" stroke-miterlimit="10"/>
<path d="M-121.22 47.2633C-120.166 37.2453 -109.134 32.8665 -99.7229 34.5483C-89.5248 36.4036 -80.4229 42.939 -74.1702 51.9565C-68.0003 60.7721 -64.5556 71.126 -60.2138 81.7564C-58.4122 86.0255 -56.4382 90.4246 -54.1467 94.6836C-50.9166 100.567 -46.9138 106.175 -41.9176 110.715C-33.961 117.864 -24.6802 121.263 -15.9312 122.326C-12.9021 122.692 -9.94211 122.807 -7.03735 122.621C2.22893 122.079 10.5288 119.014 18.4212 113.667C20.3115 112.377 22.1535 111.012 23.8851 109.543C32.7086 102.105 40.759 92.4485 51.5837 86.3178C64.8161 78.7887 80.8441 77.9529 96.811 83.0754C102.241 84.8111 107.555 87.2166 112.537 90.3103C130.181 101.145 144.522 119.086 154.482 138.016C156.041 140.906 157.45 143.842 158.795 146.751C168.983 168.606 175.666 191.552 186.13 213.415C196.393 234.749 211.494 255.955 232.078 268.225C236.37 270.799 240.745 272.578 245.209 273.785C268.276 280.145 292.968 269.697 316.325 277.014C413.265 307.409 496.45 276.838 525.081 218.329" stroke="#98774A" stroke-width="0.2" stroke-miterlimit="10"/>
<path d="M-120.822 45.9558C-119.78 35.9849 -108.511 31.7615 -99.008 33.8701C-88.8428 36.0986 -80.0784 43.0987 -74.1434 52.2581C-68.3532 61.1886 -65.2614 71.5589 -61.0447 82.138C-59.3815 86.4038 -57.4077 90.8037 -55.1648 94.9873C-51.9971 100.845 -47.9806 106.405 -42.9566 110.847C-34.9582 117.849 -25.4831 121.054 -16.7464 121.668C-13.7513 121.908 -10.7494 121.874 -7.94066 121.535C1.18937 120.49 9.2635 116.993 16.889 111.362C18.7178 110.045 20.4499 108.576 22.1958 107.058C30.7392 99.3844 38.7166 89.7483 49.5649 83.791C62.8837 76.4618 79.1908 76.1324 95.0494 81.6512C100.439 83.5355 105.725 86.0403 110.68 89.2334C128.092 100.412 142.032 118.294 151.804 137.148C153.302 140.012 154.71 142.948 156.056 145.857C166.118 167.663 172.778 190.439 183.295 212.109C193.647 233.375 208.878 254.365 229.595 266.416C233.901 268.941 238.242 270.594 242.721 271.752C265.729 277.587 290.151 266.628 313.401 274.342C412.141 307.064 497.458 273.903 526.2 215.034" stroke="#98774A" stroke-width="0.2" stroke-miterlimit="10"/>
<path d="M-120.49 44.6384C-119.446 34.6653 -107.954 30.6468 -98.346 33.1329C-88.2276 35.7842 -79.7871 43.1998 -74.232 52.4742C-68.7736 61.5961 -66.0072 71.8839 -62.0536 82.4073C-60.4528 86.6471 -58.6174 91.0438 -56.3126 95.255C-53.1453 101.114 -49.191 106.648 -44.077 111.019C-35.9885 117.95 -26.4155 120.809 -17.6427 121.049C-14.6057 121.141 -11.6377 120.981 -8.86293 120.516C0.117136 119.017 7.93107 114.962 15.2621 109.146C17.0431 107.753 18.7136 106.256 20.3359 104.684C28.6611 96.802 36.5655 87.1862 47.3752 81.3756C60.7942 74.1969 77.3045 74.3969 93.1927 80.3163C98.5555 82.2998 103.787 85.0028 108.653 88.2686C125.845 99.7412 139.357 117.664 148.942 136.441C150.439 139.306 151.785 142.216 153.13 145.126C163.018 166.806 169.703 189.487 180.261 211.013C190.715 232.162 206.125 253.011 226.865 264.741C231.199 267.167 235.554 268.771 239.999 269.804C262.935 275.163 287.149 263.72 310.229 271.803C410.742 306.952 498.282 271.128 527.135 211.899" stroke="#98774A" stroke-width="0.2" stroke-miterlimit="10"/>
<path d="M-120.116 43.3355C-119.023 33.4366 -107.293 29.5737 -97.6561 32.4601C-87.5709 35.4848 -79.4685 43.3656 -74.2935 52.7551C-69.2152 61.9919 -66.7398 72.323 -62.9735 82.7679C-61.4491 87.0312 -59.6623 91.3524 -57.4199 95.5376C-54.315 101.371 -50.2849 106.883 -45.1568 111.205C-37.0265 117.989 -27.3071 120.578 -18.4982 120.445C-15.4951 120.411 -12.5472 120.076 -9.80638 119.485C-0.962424 117.481 6.56368 112.967 13.6277 106.867C15.285 105.42 16.9699 103.874 18.5305 102.274C26.5892 94.1078 34.4206 84.5123 45.3021 78.9518C58.8073 71.9732 75.5343 72.6532 91.4381 79.0229C96.7601 81.1551 101.965 83.9575 106.803 87.3228C123.761 99.1394 136.935 117.03 146.332 135.731C147.767 138.569 149.113 141.479 150.458 144.39C160.158 165.994 166.883 188.531 177.556 209.89C188.113 230.921 203.639 251.604 224.512 263.114C228.861 265.492 233.23 267.046 237.704 267.98C260.567 272.863 284.573 260.936 307.498 269.339C409.707 306.939 499.484 268.402 528.51 208.839" stroke="#98774A" stroke-width="0.2" stroke-miterlimit="10"/>
<path d="M-119.748 42.0274C-118.667 32.1759 -106.685 28.4191 -97.0339 31.7554C-87.0581 35.1764 -79.1558 43.5268 -74.3612 53.0314C-69.6011 62.4102 -67.4652 72.7082 -63.976 83.1469C-62.5141 87.3842 -60.8036 91.7289 -58.6236 95.8881C-55.5329 101.772 -51.5512 107.209 -46.3814 111.383C-38.147 118.046 -28.3433 120.339 -19.4981 119.832C-16.4668 119.699 -13.539 119.188 -10.8182 118.422C-2.04802 115.941 5.12824 110.941 11.9253 104.556C13.5348 103.033 15.096 101.432 16.6572 99.832C24.4978 91.4575 32.1939 81.8555 43.0989 76.4688C56.7526 69.7173 73.5789 71.0487 89.5536 77.6709C94.8624 79.8528 100.012 82.8536 104.761 86.2916C121.5 98.403 134.245 116.334 143.454 134.958C144.875 137.846 146.234 140.708 147.455 143.565C157.029 165.12 163.669 187.459 174.445 208.701C185.089 229.664 200.809 250.156 221.691 261.394C226.054 263.722 230.39 265.151 234.877 266.035C257.668 270.442 281.405 258.004 304.283 266.831C408.237 306.959 500.206 265.63 529.343 205.707" stroke="#98774A" stroke-width="0.2" stroke-miterlimit="10"/>
<path d="M-119.411 40.7133C-118.328 30.8598 -106.061 27.3351 -96.367 31.0225C-86.4247 34.8173 -78.861 43.6332 -74.4469 53.253C-70.0811 62.7964 -68.2848 73.0612 -64.9208 83.4482C-63.5974 87.6822 -61.8873 92.0277 -59.6937 96.1381C-56.6655 101.996 -52.6701 107.384 -47.4241 111.537C-39.0855 118.079 -29.1974 120.075 -20.3158 119.194C-17.3046 118.886 -14.4106 118.249 -11.7237 117.356C-3.10329 114.421 3.86118 108.939 10.3153 102.293C11.877 100.692 13.3766 99.0646 14.89 97.3877C22.5124 88.8048 30.1353 79.2233 41.0775 73.961C54.8174 67.4099 71.9777 69.0506 87.7881 76.2677C93.0421 78.648 98.1783 81.6987 102.9 85.2363C119.405 97.692 131.749 115.565 140.771 134.111C142.129 136.973 143.488 139.835 144.709 142.693C154.109 164.121 160.774 186.366 171.604 207.414C182.351 228.259 198.174 248.633 219.217 259.553C223.594 261.832 227.944 263.211 232.398 263.969C255.116 267.9 278.645 254.978 301.354 264.176C406.976 306.854 501.275 262.737 530.523 202.455" stroke="#98774A" stroke-width="0.2" stroke-miterlimit="10"/>
<path d="M-119.028 39.4236C-117.894 29.6444 -105.445 26.4734 -95.6672 30.3635C-85.703 34.3342 -78.5336 43.8141 -74.5003 53.5491C-70.4531 63.2347 -69.0104 73.516 -65.8961 83.7977C-64.6353 88.0058 -62.9877 92.3253 -60.8704 96.4592C-57.8425 102.319 -53.8473 107.708 -48.5733 111.762C-40.1927 118.157 -30.0956 119.909 -21.2534 118.677C-18.2139 118.269 -15.3537 117.506 -12.6867 116.438C-4.20191 112.998 2.47505 107.056 8.72447 100.153C10.2246 98.5249 11.6764 96.8206 13.0661 95.0896C20.4083 86.2713 28.0205 76.737 38.9241 71.6218C52.7503 65.2711 70.1274 67.3924 85.953 75.0603C91.2283 77.6163 96.2751 80.7398 100.893 84.3996C117.178 97.1504 129.093 115.063 137.927 133.533C139.286 136.395 140.582 139.231 141.803 142.09C151.077 163.469 157.718 185.543 168.588 206.446C179.438 227.173 195.44 247.407 216.492 258.054C220.884 260.283 225.262 261.564 229.668 262.246C252.301 265.749 275.769 251.573 298.189 261.812C404.703 310.315 502.231 259.965 531.64 199.398" stroke="#98774A" stroke-width="0.2" stroke-miterlimit="10"/>
<path d="M-118.588 38.0899C-117.467 28.3583 -104.725 25.1451 -94.9741 29.6343C-85.0992 34.1771 -78.2135 43.9247 -74.4988 53.8018C-70.8463 63.652 -69.6674 73.8774 -66.7683 84.1795C-65.5701 88.3614 -63.9989 92.7044 -61.9301 96.7627C-58.9648 102.596 -54.9558 107.937 -49.5916 111.919C-41.1068 118.193 -30.939 119.698 -22.0463 118.042C-19.0268 117.459 -16.1383 116.597 -13.5672 115.375C-5.16996 111.507 1.17097 105.029 7.13946 97.8911C8.59178 96.1865 9.9198 94.4282 11.31 92.6968C18.3717 83.6434 25.9106 74.1298 36.8995 69.2155C50.8256 63.0159 68.4673 65.6944 84.2457 73.7864C89.4937 76.4418 94.4994 79.7143 99.0279 83.4469C115.078 96.5422 126.592 114.396 135.238 132.788C136.535 135.625 137.831 138.461 139.065 141.27C148.165 162.523 154.832 184.502 165.818 205.237C176.756 225.896 192.89 245.912 214.089 256.29C218.495 258.471 222.901 259.652 227.336 260.235C249.91 263.212 273.087 248.849 295.406 259.21C403.56 309.367 503.22 257.194 532.74 196.268" stroke="#98774A" stroke-width="0.2" stroke-miterlimit="10"/>
<path d="M-118.23 36.7738C-117.107 27.0402 -104.065 24.0097 -94.286 28.8999C-84.445 33.817 -77.8987 44.0308 -74.5651 54.0231C-71.2315 64.0155 -70.4686 74.2304 -67.7571 84.4539C-66.6353 88.6593 -65.1128 92.9267 -63.0582 97.0353C-60.1554 102.843 -56.1466 108.184 -50.7543 112.068C-42.2413 118.244 -31.9126 119.429 -22.9832 117.399C-19.9353 116.716 -17.1288 115.652 -14.5155 114.281C-6.25375 109.908 -0.200362 102.971 5.50115 95.548C6.82969 93.7893 8.1721 91.9811 9.51451 90.1729C16.3581 80.911 23.7616 71.3911 34.7738 66.651C48.7861 60.6521 66.6442 63.8116 82.3753 72.3279C87.5822 75.1323 92.5605 78.5043 97.0615 82.3366C112.891 95.7271 123.976 113.621 132.434 131.936C133.73 134.773 134.964 137.583 136.198 140.393C145.109 161.569 151.83 183.354 162.843 203.994C173.821 224.508 190.196 244.409 211.467 254.541C215.887 256.672 220.246 257.777 224.709 258.261C247.211 260.761 269.98 246.382 292.343 256.596C402.774 307.127 504.161 254.343 533.793 193.057" stroke="#98774A" stroke-width="0.2" stroke-miterlimit="10"/>
<path d="M-117.852 35.469C-116.665 25.7604 -103.386 22.8859 -93.5928 28.2269C-83.7997 33.5678 -77.5791 44.1984 -74.6268 54.3061C-71.6745 64.4138 -71.1895 74.6224 -68.6796 84.8168C-66.1696 95.0111 -61.0343 105.784 -51.8369 112.256C-40.3057 120.348 -25.5012 119.243 -15.397 113.275C-5.2928 107.307 1.13284 97.3061 7.75825 87.8356C14.3837 78.3652 21.6518 68.8391 32.7494 64.3001C51.5013 56.5678 77.254 65.6359 95.196 81.4404C113.2 97.2718 124.646 118.603 133.431 139.729C142.231 160.806 148.914 182.469 159.981 202.915C171.048 223.36 187.555 243.044 208.897 252.929C235.682 265.276 262.63 241.475 289.318 254.169C401.34 307.277 505.169 251.578 534.914 189.933" stroke="#98774A" stroke-width="0.2" stroke-miterlimit="10"/>
<path d="M-118.222 35.8406C-117.005 27.2606 -104.132 25.3251 -94.1757 31.0692C-84.5297 36.6791 -78.156 47.2606 -74.8975 57.2739C-72.5895 64.2116 -71.449 71.0892 -70.0045 77.8761C-69.3924 80.9165 -68.6905 83.8848 -67.7882 86.884C-64.9992 96.5835 -59.8202 106.704 -50.6857 112.649C-42.6767 117.885 -33.1714 118.77 -24.6583 116.728C-21.065 115.837 -17.6233 114.492 -14.6096 112.685C-4.48302 106.621 2.31018 96.7846 9.1995 87.601C14.8645 80.054 20.9923 72.5957 29.2109 67.8728C31.0495 66.7792 32.9848 65.8384 35.0788 65.0772C54.0699 57.9559 79.7333 67.3193 97.6668 83.3935C101.56 86.9072 105.17 90.6872 108.524 94.6343C120.435 108.829 128.785 125.539 135.492 142.15C144.053 163.337 150.561 185.136 161.389 205.692C172.21 226.023 188.378 245.666 209.502 255.567C211.788 256.61 214.067 257.427 216.339 258.02C239.028 263.823 261.813 248.124 284.17 254.616C285.842 255.116 287.485 255.714 289.101 256.412C313.34 267.381 337.1 273.091 360.027 275.054C398.284 278.253 434.007 271.085 463.125 257.9C495.629 243.068 520.099 220.602 532.515 197.148" stroke="#98774A" stroke-width="0.2" stroke-miterlimit="10"/>
<path d="M-118.614 36.2084C-117.352 28.7069 -104.886 27.7095 -94.8553 33.9286C-85.3562 39.8072 -78.8294 50.3396 -75.1891 60.2357C-72.6656 67.1523 -71.2056 73.887 -69.4002 80.3825C-68.6078 83.2774 -67.8153 86.1723 -66.8571 88.9724C-63.7895 98.1772 -58.5535 107.597 -49.5099 113.112C-41.5916 117.92 -32.2204 118.527 -23.8214 116.383C-20.2158 115.443 -16.8241 114.023 -13.7981 112.167C-3.58723 106.033 3.4352 96.3587 10.6022 87.4124C16.5459 80.1019 23.0005 72.9566 31.4078 68.5415C33.2938 67.5248 35.2764 66.6609 37.4177 65.9764C56.7102 59.4927 82.2844 69.1512 100.134 85.5172C104.013 89.0794 107.608 92.9076 110.886 96.876C122.68 111.237 130.867 128.036 137.473 144.762C145.858 166.086 152.005 187.941 162.78 208.687C173.292 228.877 189.233 248.58 210.152 258.448C212.424 259.54 214.702 260.358 216.974 260.95C239.491 266.847 262.132 251.377 284.159 257.283C285.781 257.707 287.362 258.279 288.978 258.976C312.742 269.13 336.047 274.201 358.636 275.855C396.466 278.543 432.291 272.209 461.263 260.25C493.55 246.892 517.72 226.201 530.226 204.633" stroke="#98774A" stroke-width="0.2" stroke-miterlimit="10"/>
<path d="M-118.89 36.5719C-117.583 30.148 -105.523 30.0881 -95.3558 36.8086C-86.0033 42.9555 -79.3237 53.4387 -75.364 63.1909C-72.6115 70.0369 -70.7702 76.6556 -68.7424 82.8558C-67.8458 85.6279 -66.9353 88.3505 -65.873 91.0278C-62.5274 99.7383 -57.2487 108.507 -48.2686 113.495C-40.4275 117.824 -31.2043 118.203 -22.9055 115.908C-19.3499 114.893 -15.9459 113.423 -12.9216 111.568C-2.68858 105.339 4.56306 95.8256 12.132 87.1703C18.2922 80.0695 25.0736 73.2371 33.6698 69.1296C35.6031 68.1898 37.633 67.4027 39.7595 66.7682C59.2777 60.9443 84.7629 70.8976 102.555 87.4561C106.42 91.0665 110.002 94.9429 113.266 98.9594C124.943 113.487 133.043 130.351 139.423 147.139C147.632 168.599 153.542 190.563 164.078 211.419C174.268 231.516 189.947 251.155 210.648 261.038C212.919 262.13 215.135 262.921 217.392 263.563C239.737 269.553 262.22 254.361 283.917 259.683C285.477 260.08 287.071 260.602 288.7 261.25C312.039 270.664 334.764 275.044 357.09 276.367C394.569 278.522 430.421 273.042 459.185 262.282C491.283 250.3 515.127 231.481 527.787 211.824" stroke="#98774A" stroke-width="0.2" stroke-miterlimit="10"/>
<path d="M-119.281 36.9445C-117.929 31.5975 -106.287 32.5237 -95.9693 39.6957C-86.7632 46.1106 -79.9173 56.495 -75.6661 66.2022C-72.6848 72.9775 -70.5247 79.4535 -68.2128 85.3853C-67.2121 88.0348 -66.1356 90.6615 -65.0176 93.1399C-61.3944 101.356 -56.0115 109.501 -47.0953 113.962C-39.3453 117.863 -30.2703 118.013 -22.1339 115.541C-18.6281 114.45 -15.2121 112.932 -12.1894 111.078C-1.85843 104.73 5.68445 95.4052 13.5172 87.0367C19.9697 80.123 27.0019 73.626 35.8491 69.8529C37.8298 68.9899 39.907 68.2796 42.0809 67.7218C61.8387 62.508 87.2971 72.7825 105.019 89.5825C108.87 93.2412 112.376 97.1388 115.688 101.23C127.324 115.9 135.246 132.902 141.464 149.778C149.435 171.347 155.108 193.419 165.467 214.412C175.349 234.367 190.753 253.99 211.221 263.939C213.43 265.003 215.693 265.87 217.902 266.436C240.061 272.57 262.476 257.583 283.842 262.321C285.415 262.668 286.961 263.114 288.528 263.735C311.391 272.335 333.661 276.077 355.71 277.119C392.762 278.764 428.669 274.039 457.336 264.58C489.233 254.022 512.766 237.024 525.581 219.278" stroke="#98774A" stroke-width="0.2" stroke-miterlimit="10"/>
<path d="M-119.646 37.2797C-118.247 33.0088 -107.009 34.8708 -96.5548 42.5432C-87.4949 49.2259 -80.4965 59.5609 -75.9267 69.1241C-72.7168 75.8287 -70.2382 82.162 -67.6564 87.8751C-66.4897 90.4287 -65.3576 92.8566 -64.1358 95.2124C-60.2358 102.935 -54.8111 110.43 -45.9728 114.413C-38.3143 117.887 -29.3738 117.759 -21.3377 115.136C-17.8198 113.996 -14.4675 112.452 -11.4327 110.55C-1.0799 104.107 6.75409 94.9704 14.9264 86.866C21.6574 80.1889 29.0163 74.0046 37.9903 70.5121C40.0183 69.7259 42.1428 69.0923 44.3019 68.5844C64.3616 64.0072 89.669 74.5489 107.307 91.6395C111.144 95.3462 114.636 99.2918 117.872 103.404C129.391 118.24 137.164 135.28 143.281 152.27C151.09 173.924 156.45 196.128 166.694 217.282C176.269 237.095 191.397 256.702 211.647 266.667C213.855 267.731 216.056 268.571 218.312 269.213C240.362 275.467 262.557 260.732 283.592 264.886C285.117 265.157 286.662 265.602 288.18 266.147C310.63 273.959 332.383 277.038 354.093 277.772C390.704 278.958 426.741 274.965 455.188 266.753C486.885 257.617 510.108 242.44 523.017 226.576" stroke="#98774A" stroke-width="0.2" stroke-miterlimit="10"/>
<path d="M-120.016 37.6703C-118.522 34.5509 -107.721 37.222 -97.1925 45.3675C-88.2648 52.2681 -81.0659 62.6299 -76.2536 72.0718C-72.8291 78.7551 -70.0187 84.8964 -67.1536 90.3415C-65.8832 92.7726 -64.6336 95.0286 -63.3082 97.2619C-59.1317 104.491 -53.6521 111.287 -44.892 114.793C-37.3252 117.84 -28.5192 117.435 -20.5835 114.661C-17.1155 113.445 -13.7512 111.853 -10.7181 109.952C-0.281395 103.441 7.78156 94.4657 16.2314 86.5987C23.2407 80.1581 30.8642 74.2595 40.103 71.0517C42.1783 70.3423 44.3502 69.7854 46.5704 69.3047C66.87 65.3369 92.1369 76.2485 109.719 93.5302C113.541 97.285 117.019 101.278 120.242 105.439C131.72 120.416 139.316 137.594 145.27 154.671C152.842 176.433 158.027 198.77 168.046 219.984C177.361 239.73 192.151 259.295 212.197 269.225C214.391 270.338 216.591 271.178 218.785 271.793C240.663 278.141 262.763 263.711 283.419 267.205C284.943 267.476 286.439 267.846 287.909 268.314C309.884 275.312 331.104 277.777 352.551 278.181C388.749 278.809 424.814 275.669 453.18 268.707C484.614 260.966 507.577 247.685 520.657 233.678" stroke="#98774A" stroke-width="0.2" stroke-miterlimit="10"/>
<path d="M-120.311 38.1041C-118.769 36.0589 -108.371 39.664 -97.7054 48.3088C-88.9098 55.427 -81.5726 65.7886 -76.4424 75.0865C-72.7898 81.6991 -69.5995 87.7246 -66.4514 92.902C-65.0775 95.2106 -63.6624 97.371 -62.2819 99.4058C-57.8158 106.093 -52.3092 112.289 -43.6275 115.319C-36.1389 117.888 -27.5433 117.229 -19.6598 114.381C-16.1797 113.117 -12.8654 111.45 -9.83403 109.55C0.624301 102.944 8.99189 94.1077 17.7674 86.5541C25.0688 80.3007 32.943 74.7372 42.4327 71.8634C44.5553 71.2307 46.7125 70.7236 49.0422 70.3463C69.5817 66.9876 94.7599 78.1924 112.271 95.7142C116.08 99.5169 119.544 103.558 122.691 107.739C134.052 122.881 141.561 140.123 147.339 157.337C154.735 179.233 159.622 201.65 169.464 222.998C178.471 242.602 193.048 262.176 212.814 272.095C214.945 273.181 217.145 274.02 219.323 274.685C241.03 281.126 262.973 266.975 283.298 269.886C284.773 270.081 286.207 270.423 287.689 270.842C309.189 277.028 329.954 278.857 351.075 278.904C386.908 279.05 422.965 276.638 451.175 270.948C482.411 264.627 505.066 253.163 518.243 241.036" stroke="#98774A" stroke-width="0.2" stroke-miterlimit="10"/>
<path d="M-120.704 38.4416C-119.114 37.4695 -109.103 41.9582 -98.3143 51.1511C-89.6507 58.4865 -82.1755 68.8477 -76.7276 78.0016C-72.8471 84.5434 -69.3395 90.4265 -65.9089 95.3363C-64.3558 97.4999 -62.8995 99.5112 -61.4156 101.424C-56.7363 107.592 -51.1273 113.166 -42.5108 115.67C-35.1143 117.813 -26.6672 116.926 -18.8705 113.879C-15.4404 112.54 -12.1142 110.824 -9.07081 108.876C1.47105 102.203 10.0673 93.528 19.182 86.2386C26.6996 80.195 34.9623 74.9707 44.5788 72.3771C46.7487 71.8211 48.967 71.3412 51.2682 71.0631C72.0477 68.313 97.1993 79.8374 114.627 97.6481C118.421 101.498 121.872 105.587 125.005 109.816C136.311 125.149 143.595 142.45 149.224 159.701C156.445 181.73 161.096 204.253 170.7 225.708C179.398 245.169 193.7 264.726 213.309 274.687C215.44 275.773 217.625 276.661 219.804 277.325C241.338 283.86 263.124 269.987 283.131 272.267C284.544 272.435 286.005 272.679 287.425 273.071C308.497 278.52 328.695 279.611 349.602 279.404C385.006 279.044 421.106 277.434 449.236 272.992C480.211 268.065 502.622 258.443 515.957 248.221" stroke="#98774A" stroke-width="0.2" stroke-miterlimit="10"/>
<path d="M-121.057 38.8655C-119.418 38.9655 -109.808 44.3861 -98.8823 54.077C-90.4125 61.6024 -82.7373 71.9897 -76.924 81.0759C-72.7538 87.5736 -68.9913 93.2875 -65.2785 97.9299C-63.6223 99.9713 -62.0628 101.86 -60.4621 103.602C-55.508 109.277 -49.8592 114.203 -41.3081 116.182C-34.0041 117.899 -25.6918 116.736 -17.9956 113.539C-14.6156 112.125 -11.2912 110.41 -8.23586 108.414C2.32735 101.647 11.2279 93.1115 20.668 86.1357C28.4773 80.2792 36.9907 75.3899 46.858 73.1298C49.0753 72.6505 51.3409 72.2472 53.6894 72.0456C74.7089 69.9038 99.7581 81.7698 117.129 99.77C120.91 103.668 124.298 107.728 127.466 112.08C138.669 127.527 145.851 144.941 151.305 162.327C158.302 184.413 162.717 207.042 172.193 228.706C180.646 248.05 194.61 267.563 213.987 277.588C216.117 278.673 218.24 279.534 220.404 280.248C241.815 286.951 263.458 273.308 283.071 274.98C284.497 275.098 285.896 275.315 287.267 275.631C307.863 280.269 327.605 280.726 348.172 280.212C383.149 279.345 419.366 278.515 447.292 275.266C478.008 271.73 500.176 263.951 513.672 255.631" stroke="#98774A" stroke-width="0.2" stroke-miterlimit="10"/>
<path d="M-121.346 39.2422C-119.657 40.4133 -110.433 46.7156 -99.432 56.8777C-91.0936 64.6201 -83.2051 74.9849 -77.1506 83.9502C-72.7669 90.4269 -68.6877 95.9989 -64.6795 100.325C-62.9203 102.245 -61.182 103.989 -59.6024 105.555C-54.374 110.74 -48.6857 115.018 -40.2135 116.522C-33.0638 117.787 -24.824 116.374 -17.3035 113.049C-13.9113 111.586 -10.6368 109.797 -7.58295 107.802C3.06444 100.967 12.1943 92.5932 21.9122 85.854C30.0002 80.2335 38.7785 75.629 48.8353 73.6753C51.1138 73.2231 53.4131 72.9457 55.7609 72.7443C77.0216 71.2099 102.045 83.3951 119.347 101.635C123.051 105.554 126.487 109.688 129.58 114.061C140.728 129.699 147.685 147.173 153.038 164.672C159.86 186.892 164.037 209.627 173.275 231.399C181.42 250.6 195.094 270.146 214.268 280.137C216.398 281.222 218.506 282.133 220.621 282.77C241.862 289.566 263.35 276.2 282.646 277.242C284.01 277.333 285.422 277.501 286.806 277.768C306.926 281.595 326.138 281.44 346.442 280.597C381.007 279.174 417.254 279.195 445.104 277.191C475.625 275.071 497.429 269.077 511.086 262.658" stroke="#98774A" stroke-width="0.2" stroke-miterlimit="10"/>
<path d="M-121.6 39.5037C-119.874 41.7955 -111.02 48.9332 -99.8939 59.648C-91.6235 67.6384 -83.6592 77.9825 -77.2883 86.81C-72.6774 93.2202 -68.2816 98.6537 -64.0051 102.765C-62.1427 104.564 -60.2876 106.138 -58.6048 107.583C-53.1498 112.203 -47.3726 115.913 -38.9622 116.893C-31.9018 117.732 -23.8539 116.014 -16.3666 112.562C-13.0221 111.023 -9.73321 109.184 -6.6787 107.188C4.06038 100.28 13.4268 92.0603 23.4917 85.5786C31.8642 80.1893 40.9754 75.8922 51.2272 74.2421C53.5543 73.8659 55.9024 73.6644 58.2988 73.539C79.8118 72.6081 104.756 85.0909 121.975 103.63C125.666 107.599 129.089 111.784 132.168 116.206C143.212 131.968 150.066 149.567 155.253 167.164C161.832 189.505 165.767 212.362 174.825 234.282C182.721 253.38 196.058 272.894 215.02 282.904C217.074 284.012 219.197 284.873 221.36 285.586C242.438 292.478 263.787 279.378 282.761 279.837C284.138 279.879 285.488 280.02 286.825 280.21C306.526 283.303 325.243 282.436 345.22 281.283C379.375 279.348 415.636 280.089 443.409 279.375C473.703 278.59 495.266 274.477 509.094 269.951" stroke="#98774A" stroke-width="0.2" stroke-miterlimit="10"/>
<path d="M-121.875 39.7851C-120.037 43.1755 -111.629 51.1714 -100.378 62.4392C-92.2238 70.6015 -84.1354 81.001 -77.4615 89.7398C-72.6234 96.0835 -67.911 101.378 -63.2902 105.252C-61.2626 106.957 -59.3662 108.383 -57.5666 109.658C-51.8985 113.763 -46.0185 116.854 -37.6834 117.359C-30.7123 117.772 -22.7943 115.776 -15.4159 112.22C-12.1191 110.605 -8.81583 108.716 -5.76067 106.72C5.00812 99.7105 14.749 91.6497 25.0851 85.4483C33.7558 80.2408 43.1241 76.2738 53.5709 74.9274C55.8848 74.6004 58.2815 74.4749 60.7267 74.4256C82.4918 74.0984 107.404 86.955 124.57 105.694C128.247 109.713 131.656 113.948 134.659 118.394C145.587 134.33 152.336 152.053 157.357 169.748C163.756 192.237 167.462 215.166 176.326 237.283C183.911 256.251 197.034 275.787 215.722 285.79C217.777 286.898 219.886 287.809 221.988 288.495C242.903 295.482 264.174 282.674 282.777 282.474C284.107 282.44 285.395 282.555 286.745 282.696C305.979 284.978 324.189 283.447 343.961 282.038C377.708 279.591 414.044 281.08 441.741 281.656C471.731 282.228 493.128 279.974 507.065 277.317" stroke="#98774A" stroke-width="0.2" stroke-miterlimit="10"/>
<path d="M-122.039 40.0306C-120.152 44.4932 -112.065 53.4014 -100.813 65.1689C-92.7892 73.5526 -84.5009 83.9849 -77.5724 92.559C-72.445 98.8629 -67.4778 103.992 -62.5747 107.602C-60.4438 109.185 -58.4305 110.441 -56.5275 111.595C-50.6462 115.184 -44.6632 117.657 -36.3276 117.664C-29.4456 117.651 -21.6575 115.376 -14.3743 111.668C-11.0631 110.002 -7.82115 108.086 -4.75159 106.04C6.10906 98.957 16.0868 91.0506 26.7699 85.107C35.7253 80.1307 45.3646 76.4445 56.0822 75.3795C58.4447 75.1284 60.8902 75.079 63.384 75.1056C85.4013 75.3825 110.234 88.537 127.331 107.526C130.995 111.596 134.39 115.88 137.38 120.377C148.252 136.513 154.787 154.257 159.628 172.1C165.86 194.688 169.309 217.788 177.931 240.026C185.267 258.891 198.053 278.395 216.515 288.467C218.57 289.576 220.617 290.46 222.705 291.196C243.52 298.304 264.575 285.785 282.933 284.979C284.201 284.918 285.516 284.934 286.805 285.048C305.558 286.569 323.336 284.351 342.78 282.633C376.132 279.624 412.516 281.959 440.088 283.75C469.837 285.708 491.005 285.286 505.113 284.524" stroke="#98774A" stroke-width="0.2" stroke-miterlimit="10"/>
<path d="M-122.273 40.2996C-120.337 45.8348 -112.621 55.5794 -101.257 67.9497C-93.3502 76.5054 -84.9378 86.9932 -77.6924 95.429C-72.3377 101.666 -67.0535 106.657 -61.868 110.002C-59.6337 111.464 -57.5171 112.599 -55.4971 113.582C-49.3541 116.732 -43.3162 118.51 -35.0558 118.041C-28.263 117.602 -20.6184 115.098 -13.4167 111.187C-10.1532 109.445 -6.89683 107.479 -3.81289 105.383C7.07756 98.1994 17.3541 90.4744 28.3223 84.7618C37.5623 80.0169 47.5345 76.6384 58.4471 75.8774C60.8583 75.7024 63.3662 75.6796 65.9087 75.7824C88.178 76.6635 112.93 90.1159 130.008 109.431C133.658 113.551 136.978 117.859 140.015 122.432C150.785 138.692 157.202 156.611 161.89 174.502C167.879 197.211 171.085 220.433 179.527 242.82C186.614 261.58 199.048 281.102 217.374 291.172C219.367 292.253 221.463 293.213 223.551 293.949C244.189 301.202 265.118 288.9 283.168 287.462C284.449 287.352 285.703 287.34 286.944 287.378C305.292 288.114 322.499 285.206 341.678 283.205C374.621 279.684 411.018 282.74 438.574 285.849C468.095 289.143 489.008 290.654 503.299 291.739" stroke="#98774A" stroke-width="0.2" stroke-miterlimit="10"/>
<path d="M-122.522 40.5709C-120.536 47.1793 -113.205 57.8101 -101.703 70.6847C-93.9264 79.4619 -85.3003 89.9332 -77.7654 98.3296C-72.1833 104.5 -66.5821 109.352 -61.114 112.432C-58.7763 113.773 -56.5014 114.59 -54.4191 115.6C-48.2481 118.651 -41.9351 119.442 -33.7223 118.399C-27.0322 117.583 -19.5658 114.724 -12.4109 110.735C-9.19495 108.917 -5.92416 106.901 -2.83951 104.804C8.1429 97.5468 18.6701 89.927 29.9717 84.5218C39.5102 79.9588 49.7396 76.9108 60.8473 76.4539C63.3072 76.3549 65.8638 76.4082 68.393 76.5603C90.8523 78.0191 115.635 91.8725 132.596 111.362C136.232 115.531 139.538 119.89 142.5 124.487C153.214 140.947 159.479 158.914 163.986 176.952C169.795 199.81 172.772 223.105 180.958 245.662C187.733 264.292 199.891 283.809 218.005 293.898C219.984 295.03 222.032 295.914 224.107 296.699C244.582 304.047 265.434 292.038 283.099 289.989C284.319 289.852 285.587 289.792 286.779 289.753C304.647 289.727 321.422 286.133 340.273 283.821C372.869 279.815 409.279 283.592 436.696 287.966C465.974 292.646 486.658 295.992 501.057 298.947" stroke="#98774A" stroke-width="0.2" stroke-miterlimit="10"/>
<path d="M-122.77 40.7855C-120.749 48.5168 -113.714 59.9622 -102.162 73.4131C-94.5024 82.3626 -85.7521 92.8892 -77.9002 101.147C-72.1043 107.301 -66.1859 112.013 -60.4213 114.779C-57.9045 115.977 -55.643 116.843 -53.4023 117.534C-46.832 119.652 -40.6011 120.241 -32.4496 118.672C-25.9105 117.403 -18.5118 114.292 -11.452 110.15C-8.22172 108.282 -5.07432 106.211 -1.91319 104.092C9.09913 96.7338 19.9873 89.3223 31.5603 84.1977C41.3215 79.8395 51.8977 77.05 63.2486 76.9736C65.7573 76.9506 68.3626 77.08 70.9404 77.3082C93.6654 79.3224 118.354 93.5234 135.295 113.339C138.918 117.559 142.21 121.967 145.172 126.565C155.782 143.149 161.867 161.264 166.269 179.427C171.835 202.407 174.631 225.849 182.636 248.555C189.162 267.081 200.982 286.566 218.885 296.675C220.864 297.807 222.898 298.74 224.911 299.499C245.223 306.943 265.934 295.2 283.292 292.518C284.526 292.331 285.732 292.244 286.938 292.156C304.339 291.318 320.606 287.059 339.205 284.415C371.406 279.846 407.814 284.395 435.216 290.088C464.203 296.079 484.705 301.337 499.273 306.19" stroke="#98774A" stroke-width="0.2" stroke-miterlimit="10"/>
<path d="M-122.954 41.0797C-120.884 49.8848 -114.173 62.2438 -102.62 76.1951C-95.0156 85.3436 -86.2031 95.8988 -78.034 104.018C-71.9485 110.132 -65.775 114.679 -59.6791 117.256C-57.0587 118.332 -54.68 119.027 -52.3359 119.597C-45.5654 121.248 -39.217 121.168 -31.1405 119.123C-24.6903 117.427 -17.4215 114.038 -10.5189 109.716C-7.33622 107.77 -4.1744 105.65 -0.950513 103.557C10.1538 96.1253 21.2789 88.8686 33.199 84.0022C43.245 79.8756 54.0921 77.3674 65.638 77.5953C68.1954 77.6484 70.7873 77.8272 73.4138 78.1315C96.3906 80.7506 121.047 95.3261 137.871 115.316C141.48 119.586 144.759 124.044 147.644 128.665C158.2 145.45 164.132 163.613 168.368 181.874C173.753 205.002 176.319 228.517 184.068 251.393C190.344 269.816 201.888 289.296 219.516 299.398C221.434 300.502 223.468 301.436 225.543 302.222C245.754 309.787 266.249 298.334 283.299 295.019C284.471 294.805 285.629 294.641 286.849 294.504C303.832 292.931 319.591 288.007 337.937 285.03C369.73 279.949 406.212 285.247 433.474 292.206C462.231 299.534 482.49 306.678 497.226 313.429" stroke="#98774A" stroke-width="0.2" stroke-miterlimit="10"/>
<path d="M-123.199 41.2986C-121.081 51.1782 -114.741 64.3751 -103.078 78.9301C-95.59 88.251 -86.5775 98.839 -78.1807 106.892C-71.8676 112.939 -65.3766 117.347 -58.9977 119.659C-56.2737 120.614 -53.7293 121.214 -51.3299 121.586C-44.359 122.771 -37.8447 122.097 -29.8775 119.45C-23.454 117.354 -16.439 113.632 -9.58314 109.233C-6.44805 107.211 -3.27172 105.041 -0.0470726 102.947C11.0873 95.4147 22.5254 88.2901 34.7171 83.7045C45.0617 79.7601 56.2283 77.6094 67.9693 78.1418C70.5753 78.2711 73.216 78.526 75.8912 78.9065C99.1199 82.1308 123.696 97.0047 140.514 117.272C144.109 121.592 147.374 126.1 150.246 130.772C160.684 147.731 166.449 165.992 170.58 184.378C175.797 207.605 178.106 231.291 185.612 254.288C191.639 272.608 202.831 292.106 220.247 302.227C222.164 303.332 224.185 304.315 226.199 305.074C246.246 312.735 266.664 301.575 283.344 297.6C284.468 297.31 285.639 297.097 286.784 296.982C303.3 294.596 318.552 289.008 336.632 285.747C368.029 280.103 404.525 286.123 431.77 294.403C460.236 303.043 480.312 312.1 495.155 320.723" stroke="#98774A" stroke-width="0.2" stroke-miterlimit="10"/>
<path d="M-123.42 41.565C-121.192 52.5461 -115.224 66.5813 -103.499 81.6638C-96.0794 91.2333 -86.991 101.8 -78.2768 109.715C-71.736 115.695 -64.9274 119.964 -58.2653 122.01C-55.4378 122.844 -52.7897 123.323 -50.2729 123.524C-43.0257 124.219 -36.4694 122.898 -28.5768 119.775C-22.2558 117.302 -15.3568 113.251 -8.59602 108.698C-5.44648 106.626 -2.31774 104.379 0.90764 102.285C12.1342 94.6788 23.8094 87.7091 36.3484 83.3818C46.9779 79.6692 58.4154 77.8 70.4135 78.6638C73.0682 78.8692 75.7575 79.2003 78.4952 79.6076C101.976 83.4372 126.533 98.6366 143.206 119.177C146.788 123.547 149.977 128.079 152.897 132.827C163.293 149.937 168.891 168.297 172.794 186.754C177.768 210.102 179.909 233.887 187.234 257.033C192.95 275.222 203.865 294.715 221.069 304.856C222.972 306.011 224.931 306.967 226.945 307.726C246.816 315.532 267.155 304.665 283.465 300.029C284.589 299.74 285.713 299.45 286.809 299.259C302.907 296.137 317.664 289.834 335.417 286.263C366.406 280.106 402.913 286.849 430.079 296.422C458.253 306.375 478.146 317.346 493.158 327.869" stroke="#98774A" stroke-width="0.2" stroke-miterlimit="10"/>
<path d="M-123.608 41.8557C-121.332 53.912 -115.676 68.8125 -103.901 84.4723C-96.5994 94.2144 -87.3108 104.814 -78.355 112.613C-71.5243 118.553 -64.4119 122.732 -57.5147 124.437C-54.5213 125.176 -51.8179 125.457 -49.1973 125.537C-41.7494 125.764 -35.0751 123.774 -27.2433 120.124C-21.0109 117.224 -14.2415 112.894 -7.58956 108.237C-4.47382 106.039 -1.35809 103.841 1.89557 101.647C13.2144 93.9668 25.1889 87.1788 38.0133 83.0831C48.9277 79.6023 60.6364 78.0147 72.8432 79.1337C75.5604 79.3659 78.2984 79.7732 81.0089 80.2793C104.755 84.6652 129.204 100.262 145.885 121.03C149.452 125.45 152.627 130.033 155.472 134.804C165.75 152.088 171.244 170.573 174.979 189.128C179.772 212.625 181.683 236.483 188.751 259.8C194.217 277.884 204.793 297.345 221.785 307.507C223.689 308.661 225.648 309.618 227.648 310.427C247.355 318.328 267.554 307.728 283.557 302.458C284.633 302.092 285.757 301.802 286.805 301.535C302.436 297.6 316.686 290.632 334.172 286.778C364.766 280.058 401.348 287.551 428.422 298.467C456.365 309.759 476.013 322.618 491.13 335.016" stroke="#98774A" stroke-width="0.2" stroke-miterlimit="10"/>
<path d="M-123.827 42.072C-121.503 55.2039 -116.171 71.0195 -104.397 87.1805C-97.1502 97.1219 -87.7994 107.75 -78.5397 115.46C-71.4811 121.333 -64.0509 125.372 -56.8703 126.812C-53.7732 127.429 -50.9659 127.589 -48.2278 127.498C-40.5169 127.284 -33.7382 124.673 -25.9533 120.448C-19.8095 117.12 -13.2456 112.534 -6.61277 107.7C-3.54461 105.426 -0.41436 103.178 2.84006 100.983C14.1891 93.2025 26.4629 86.5962 39.5726 82.7323C50.7859 79.4339 62.7519 78.1774 75.2158 79.628C77.9817 79.9364 80.7063 80.3931 83.5275 81.0023C107.463 85.9672 131.956 101.916 148.567 122.936C152.121 127.406 155.282 132.038 158.113 136.86C168.274 154.318 173.614 172.851 177.23 191.581C181.78 215.199 183.509 239.206 190.334 262.644C195.55 280.625 205.788 300.054 222.629 310.262C224.471 311.39 226.416 312.397 228.417 313.205C248.022 321.229 268.068 310.945 283.701 305.015C284.776 304.648 285.852 304.282 286.852 303.939C302.003 299.24 315.821 291.584 333.042 287.446C363.227 280.212 399.834 288.379 426.815 300.64C454.541 313.223 473.929 328.02 489.213 342.319" stroke="#98774A" stroke-width="0.2" stroke-miterlimit="10"/>
<path d="M-124.074 42.3464C-121.717 56.6037 -116.682 73.236 -104.859 89.9747C-97.7299 100.089 -88.1928 110.8 -78.6154 118.37C-71.3288 124.176 -63.5807 128.076 -56.0542 129.277C-52.8533 129.773 -49.8801 129.838 -47.0864 129.549C-39.0985 128.844 -32.2772 125.586 -24.5666 120.884C-18.525 117.178 -12.0769 112.263 -5.53903 107.276C-2.45632 104.951 0.626399 102.626 3.88162 100.431C15.3231 92.5763 27.8481 86.0756 41.2916 82.5197C52.7899 79.4532 65.103 78.4558 77.686 80.234C80.5006 80.6186 83.2739 81.1516 86.0817 81.8102C110.283 87.3317 134.681 103.629 151.209 124.949C154.688 129.442 157.897 134.152 160.651 138.997C170.77 156.607 175.93 175.287 179.392 194.066C183.774 217.783 185.259 241.912 191.827 265.522C196.807 283.349 206.754 302.823 223.307 313.074C225.149 314.202 227.095 315.208 229.019 316.039C248.462 324.159 268.429 314.169 283.754 307.604C284.782 307.161 285.796 306.768 286.872 306.402C301.605 300.966 314.867 292.568 331.821 288.146C361.612 280.35 398.293 289.267 425.181 302.873C452.627 316.72 471.741 333.505 487.268 349.683" stroke="#98774A" stroke-width="0.2" stroke-miterlimit="10"/>
<path d="M-124.292 42.5669C-121.888 57.9005 -117.165 75.3991 -105.294 92.7155C-98.2202 103.029 -88.6071 113.719 -78.7394 121.25C-71.1627 127.015 -63.1725 130.798 -55.3484 131.684C-51.9815 132.085 -48.9527 131.953 -46.0551 131.542C-37.8038 130.396 -30.864 126.467 -23.2759 121.211C-17.3228 117.078 -11.0042 111.883 -4.57518 106.792C-1.54003 104.39 1.55723 102.016 4.8132 99.8203C16.285 91.8646 29.1093 85.5458 42.9003 82.2487C54.6837 79.4143 67.2678 78.6987 80.1079 80.8087C82.9712 81.2696 85.7932 81.8789 88.6634 82.5644C113.116 88.6921 137.481 105.365 153.955 126.886C157.419 131.429 160.614 136.189 163.355 141.085C173.356 158.868 178.424 177.624 181.705 196.55C185.843 220.39 187.146 244.667 193.533 268.425C198.263 286.148 207.858 305.64 224.211 315.86C226.054 316.989 227.924 318.018 229.924 318.827C249.203 327.042 269.016 317.369 284.034 310.169C285.013 309.65 286.041 309.208 287.055 308.815C301.322 302.564 314.139 293.527 330.765 288.795C360.147 280.485 396.854 290.076 423.647 305.028C450.861 320.216 469.728 338.892 485.359 356.946" stroke="#98774A" stroke-width="0.2" stroke-miterlimit="10"/>
<path d="M-124.454 42.8572C-122.003 59.2677 -117.53 77.6598 -105.659 95.478C-98.7166 106.014 -88.9654 116.71 -78.8418 124.075C-71.0369 129.773 -62.7285 133.417 -54.6343 134.086C-51.1634 134.366 -48.0306 134.111 -45.0152 133.529C-36.5624 131.915 -29.5175 127.365 -21.9897 121.582C-16.1248 117.021 -9.99774 111.52 -3.66366 106.275C-0.676022 103.796 2.42204 101.421 5.69261 99.1759C17.2569 91.1462 30.3809 85.0093 44.4574 81.9441C56.526 79.3418 69.3814 78.9082 82.4786 81.3502C85.3906 81.8873 88.2612 82.5729 91.1801 83.3347C115.884 90.0689 140.168 107.041 156.573 128.813C160.023 133.406 163.143 138.19 165.931 143.163C175.89 161.098 180.715 179.974 183.829 198.999C187.785 222.987 188.919 247.363 194.986 271.266C199.466 288.885 208.722 308.345 224.863 318.586C226.629 319.737 228.513 320.717 230.501 321.575C249.602 329.935 269.336 320.557 283.998 312.646C284.978 312.127 285.958 311.608 286.924 311.138C300.773 304.15 313.034 294.371 329.394 289.355C358.32 280.454 395.162 290.824 421.861 307.121C448.857 323.601 467.462 344.217 483.259 364.175" stroke="#98774A" stroke-width="0.2" stroke-miterlimit="10"/>
<path d="M-124.718 43.1224C-122.158 60.637 -118.06 79.8695 -106.203 98.2391C-99.2541 109.002 -89.4268 119.676 -78.999 126.952C-70.9658 132.583 -62.3391 136.087 -53.9607 136.491C-50.3857 136.649 -47.0867 136.299 -44.0155 135.519C-35.285 133.414 -28.1348 128.242 -20.7292 121.905C-14.8903 116.943 -8.95478 111.136 -2.72938 105.786C0.210775 103.231 3.32346 100.806 6.59488 98.5597C18.1898 90.4291 31.6135 84.4742 45.9757 81.6409C58.3433 79.2213 71.5183 79.1461 84.7484 81.8665C87.7091 82.4799 90.6422 83.1923 93.5339 84.0532C118.503 91.3447 142.754 108.693 159.076 130.765C162.512 135.409 165.618 140.242 168.33 145.239C178.171 163.348 182.904 182.3 185.85 201.423C189.625 225.56 190.528 250.009 196.338 274.083C200.568 291.598 209.483 311.027 225.412 321.287C227.178 322.438 229.049 323.468 230.974 324.299C249.974 332.782 269.567 323.671 283.847 315.148C284.779 314.553 285.759 314.033 286.677 313.487C300.059 305.685 311.813 295.24 327.97 289.966C356.487 280.552 393.417 291.623 419.959 309.239C446.736 327.013 465.079 349.57 480.98 371.405" stroke="#98774A" stroke-width="0.2" stroke-miterlimit="10"/>
<path d="M-124.923 43.3406C-122.317 61.9326 -118.469 82.0592 -106.627 100.98C-99.7954 111.916 -89.8299 122.596 -79.1114 129.832C-70.7879 135.423 -61.9186 138.81 -53.2421 138.897C-49.5009 138.961 -46.1462 138.413 -42.9708 137.511C-33.9763 134.964 -26.769 129.094 -19.4234 122.23C-13.6726 116.84 -7.8665 110.753 -1.73605 105.25C1.21871 102.644 4.28389 100.142 7.56992 97.8462C19.2574 89.6416 32.9186 83.8419 47.6285 81.2677C60.2813 79.0803 73.7275 79.2873 87.2147 82.3398C90.162 83.0028 93.1437 83.7915 96.1462 84.7556C121.367 92.654 145.523 110.351 161.788 132.624C165.211 137.319 168.303 142.203 171.001 147.249C180.785 165.559 185.289 184.583 188.13 203.831C191.674 228.04 192.394 252.638 198.009 276.91C201.988 294.321 210.627 313.744 226.28 323.998C228.047 325.149 229.856 326.152 231.83 327.06C250.665 335.639 270.166 326.872 284.091 317.637C285.023 317.041 285.955 316.446 286.824 315.823C299.851 307.31 310.987 296.095 326.891 290.488C354.966 280.433 392.031 292.282 418.464 311.295C445.022 330.362 463.103 354.861 479.168 378.601" stroke="#98774A" stroke-width="0.2" stroke-miterlimit="10"/>
<path d="M-125.106 43.6251C-122.468 63.3447 -118.919 84.2896 -107.03 103.79C-100.254 114.925 -90.1642 125.661 -79.1895 132.73C-70.6376 138.254 -61.3876 141.528 -52.4265 141.35C-48.5811 141.291 -45.1222 140.622 -41.8288 139.548C-32.5561 136.509 -25.2569 130.067 -18.0332 122.649C-12.3842 116.88 -6.75563 110.437 -0.657882 104.806C2.24943 102.124 5.32929 99.5717 8.61618 97.2753C20.3344 88.9697 34.3714 83.3295 49.3532 81.0369C62.2914 79.0818 76.0089 79.571 89.7048 82.8795C92.7008 83.6188 95.7313 84.484 98.7203 85.4976C124.22 93.9041 148.329 112.026 164.525 134.551C167.934 139.296 171.011 144.23 173.633 149.3C183.313 167.735 187.712 186.884 190.371 206.28C193.732 230.638 194.27 255.385 199.578 279.752C203.369 297.086 211.592 316.5 227.095 326.801C228.862 327.952 230.657 329.004 232.569 329.886C251.24 338.56 270.663 330.088 284.205 320.24C285.088 319.568 285.958 318.946 286.842 318.274C299.389 308.995 310.094 297.09 325.671 291.172C353.399 280.63 390.489 293.155 416.841 313.466C443.179 333.826 460.996 360.268 477.226 385.913" stroke="#98774A" stroke-width="0.2" stroke-miterlimit="10"/>
<path d="M-125.329 43.8974C-122.646 64.6953 -119.348 86.5351 -107.522 106.511C-100.802 117.846 -90.574 128.588 -79.2946 135.567C-70.5003 140.975 -60.9455 144.158 -51.6997 143.713C-47.7501 143.533 -44.1247 142.769 -40.7753 141.497C-31.2381 138.016 -23.8191 130.901 -16.7173 122.929C-11.094 116.758 -5.65681 110.009 0.332286 104.274C3.19214 101.515 6.27285 98.9617 9.57442 96.6152C21.3855 88.2355 35.6603 82.7506 50.9899 80.7172C64.2135 78.9945 78.2644 79.7929 92.1553 83.4069C95.2 84.2226 98.2791 85.1642 101.331 86.2048C127.082 95.2186 151.109 113.64 167.221 136.466C170.616 141.261 173.68 146.245 176.288 151.366C185.911 170.002 190.142 189.249 192.647 208.694C195.764 233.174 196.194 258.048 201.182 282.559C204.737 299.739 212.607 319.171 227.896 329.492C229.587 330.666 231.396 331.669 233.295 332.6C251.802 341.37 271.195 333.269 284.319 322.683C285.203 322.011 286.039 321.262 286.861 320.563C298.942 310.469 309.139 297.897 324.45 291.695C351.771 280.638 389.009 293.892 415.141 315.498C441.321 337.179 458.812 365.538 475.13 393.112" stroke="#98774A" stroke-width="0.2" stroke-miterlimit="10"/>
<path d="M-125.565 44.1055C-122.836 65.9822 -119.838 88.641 -107.978 109.245C-96.1188 129.849 -72.7803 147.753 -51.012 146.113C-26.1222 144.266 -14.8517 119.891 1.28278 103.775C23.2836 81.8697 59.4817 74.1979 94.4889 83.9907C129.496 93.7835 162.263 120.81 178.825 153.489C200.327 195.903 194.086 241.151 202.658 285.473C206.328 304.482 215.252 326.371 233.955 335.448C252.347 344.39 271.55 336.481 284.353 325.308C297.169 314.085 307.122 299.406 323.21 292.427C350.136 280.805 387.461 294.762 413.483 317.765C439.443 340.742 456.67 371.044 473.151 400.525" stroke="#98774A" stroke-width="0.2" stroke-miterlimit="10"/>
</g>
</svg>
